<?xml version="1.0" encoding="utf-8" standalone="no"?>
<!DOCTYPE svg PUBLIC "-//W3C//DTD SVG 1.1//EN"
  "http://www.w3.org/Graphics/SVG/1.1/DTD/svg11.dtd">
<svg xmlns:xlink="http://www.w3.org/1999/xlink" width="720pt" height="360pt" viewBox="0 0 720 360" xmlns="http://www.w3.org/2000/svg" version="1.1">
 <metadata>
  <rdf:RDF xmlns:dc="http://purl.org/dc/elements/1.1/" xmlns:cc="http://creativecommons.org/ns#" xmlns:rdf="http://www.w3.org/1999/02/22-rdf-syntax-ns#">
   <cc:Work>
    <dc:type rdf:resource="http://purl.org/dc/dcmitype/StillImage"/>
    <dc:date>2026-01-08T10:11:15.459749</dc:date>
    <dc:format>image/svg+xml</dc:format>
    <dc:creator>
     <cc:Agent>
      <dc:title>Matplotlib v3.10.8, https://matplotlib.org/</dc:title>
     </cc:Agent>
    </dc:creator>
   </cc:Work>
  </rdf:RDF>
 </metadata>
 <defs>
  <style type="text/css">*{stroke-linejoin: round; stroke-linecap: butt}</style>
 </defs>
 <g id="figure_1">
  <g id="patch_1">
   <path d="M 0 360 
L 720 360 
L 720 0 
L 0 0 
z
" style="fill: #ffffff"/>
  </g>
  <g id="axes_1">
   <g id="patch_2">
    <path d="M 51.05 282.31 
L 709.2 282.31 
L 709.2 10.8 
L 51.05 10.8 
z
" style="fill: #ffffff"/>
   </g>
   <g id="patch_3">
    <path d="M 59.709868 282.31 
L 77.029605 282.31 
L 77.029605 23.729048 
L 59.709868 23.729048 
z
" clip-path="url(#p003b460a5f)" style="fill: #1f77b4"/>
   </g>
   <g id="patch_4">
    <path d="M 94.349342 282.31 
L 111.669079 282.31 
L 111.669079 51.728259 
L 94.349342 51.728259 
z
" clip-path="url(#p003b460a5f)" style="fill: #1f77b4"/>
   </g>
   <g id="patch_5">
    <path d="M 128.988816 282.31 
L 146.308553 282.31 
L 146.308553 180.195229 
L 128.988816 180.195229 
z
" clip-path="url(#p003b460a5f)" style="fill: #1f77b4"/>
   </g>
   <g id="patch_6">
    <path d="M 163.628289 282.31 
L 180.948026 282.31 
L 180.948026 230.70361 
L 163.628289 230.70361 
z
" clip-path="url(#p003b460a5f)" style="fill: #1f77b4"/>
   </g>
   <g id="patch_7">
    <path d="M 198.267763 282.31 
L 215.5875 282.31 
L 215.5875 259.251826 
L 198.267763 259.251826 
z
" clip-path="url(#p003b460a5f)" style="fill: #1f77b4"/>
   </g>
   <g id="patch_8">
    <path d="M 232.907237 282.31 
L 250.226974 282.31 
L 250.226974 263.094855 
L 232.907237 263.094855 
z
" clip-path="url(#p003b460a5f)" style="fill: #1f77b4"/>
   </g>
   <g id="patch_9">
    <path d="M 267.546711 282.31 
L 284.866447 282.31 
L 284.866447 265.839876 
L 267.546711 265.839876 
z
" clip-path="url(#p003b460a5f)" style="fill: #1f77b4"/>
   </g>
   <g id="patch_10">
    <path d="M 302.186184 282.31 
L 319.505921 282.31 
L 319.505921 268.035892 
L 302.186184 268.035892 
z
" clip-path="url(#p003b460a5f)" style="fill: #1f77b4"/>
   </g>
   <g id="patch_11">
    <path d="M 336.825658 282.31 
L 354.145395 282.31 
L 354.145395 275.72195 
L 336.825658 275.72195 
z
" clip-path="url(#p003b460a5f)" style="fill: #1f77b4"/>
   </g>
   <g id="patch_12">
    <path d="M 371.465132 282.31 
L 388.784868 282.31 
L 388.784868 276.270954 
L 371.465132 276.270954 
z
" clip-path="url(#p003b460a5f)" style="fill: #1f77b4"/>
   </g>
   <g id="patch_13">
    <path d="M 406.104605 282.31 
L 423.424342 282.31 
L 423.424342 277.368963 
L 406.104605 277.368963 
z
" clip-path="url(#p003b460a5f)" style="fill: #1f77b4"/>
   </g>
   <g id="patch_14">
    <path d="M 440.744079 282.31 
L 458.063816 282.31 
L 458.063816 277.368963 
L 440.744079 277.368963 
z
" clip-path="url(#p003b460a5f)" style="fill: #1f77b4"/>
   </g>
   <g id="patch_15">
    <path d="M 475.383553 282.31 
L 492.703289 282.31 
L 492.703289 279.015975 
L 475.383553 279.015975 
z
" clip-path="url(#p003b460a5f)" style="fill: #1f77b4"/>
   </g>
   <g id="patch_16">
    <path d="M 510.023026 282.31 
L 527.342763 282.31 
L 527.342763 280.113983 
L 510.023026 280.113983 
z
" clip-path="url(#p003b460a5f)" style="fill: #1f77b4"/>
   </g>
   <g id="patch_17">
    <path d="M 544.6625 282.31 
L 561.982237 282.31 
L 561.982237 280.113983 
L 544.6625 280.113983 
z
" clip-path="url(#p003b460a5f)" style="fill: #1f77b4"/>
   </g>
   <g id="patch_18">
    <path d="M 579.301974 282.31 
L 596.621711 282.31 
L 596.621711 280.113983 
L 579.301974 280.113983 
z
" clip-path="url(#p003b460a5f)" style="fill: #1f77b4"/>
   </g>
   <g id="patch_19">
    <path d="M 613.941447 282.31 
L 631.261184 282.31 
L 631.261184 280.662988 
L 613.941447 280.662988 
z
" clip-path="url(#p003b460a5f)" style="fill: #1f77b4"/>
   </g>
   <g id="patch_20">
    <path d="M 648.580921 282.31 
L 665.900658 282.31 
L 665.900658 280.662988 
L 648.580921 280.662988 
z
" clip-path="url(#p003b460a5f)" style="fill: #1f77b4"/>
   </g>
   <g id="patch_21">
    <path d="M 683.220395 282.31 
L 700.540132 282.31 
L 700.540132 281.211992 
L 683.220395 281.211992 
z
" clip-path="url(#p003b460a5f)" style="fill: #1f77b4"/>
   </g>
   <g id="matplotlib.axis_1">
    <g id="xtick_1">
     <g id="line2d_1">
      <defs>
       <path id="m719736f7c6" d="M 0 0 
L 0 3.5 
" style="stroke: #000000; stroke-width: 0.8"/>
      </defs>
      <g>
       <use xlink:href="#m719736f7c6" x="68.369737" y="282.31" style="stroke: #000000; stroke-width: 0.8"/>
      </g>
     </g>
     <g id="text_1">
      <!-- + -->
      <g transform="translate(71.129112 297.689687) rotate(-90) scale(0.1 -0.1)">
       <defs>
        <path id="DejaVuSans-2b" d="M 2944 4013 
L 2944 2272 
L 4684 2272 
L 4684 1741 
L 2944 1741 
L 2944 0 
L 2419 0 
L 2419 1741 
L 678 1741 
L 678 2272 
L 2419 2272 
L 2419 4013 
L 2944 4013 
z
" transform="scale(0.015625)"/>
       </defs>
       <use xlink:href="#DejaVuSans-2b"/>
      </g>
     </g>
    </g>
    <g id="xtick_2">
     <g id="line2d_2">
      <g>
       <use xlink:href="#m719736f7c6" x="103.009211" y="282.31" style="stroke: #000000; stroke-width: 0.8"/>
      </g>
     </g>
     <g id="text_2">
      <!-- ++ -->
      <g transform="translate(105.768586 306.069375) rotate(-90) scale(0.1 -0.1)">
       <use xlink:href="#DejaVuSans-2b"/>
       <use xlink:href="#DejaVuSans-2b" transform="translate(83.789062 0)"/>
      </g>
     </g>
    </g>
    <g id="xtick_3">
     <g id="line2d_3">
      <g>
       <use xlink:href="#m719736f7c6" x="137.648684" y="282.31" style="stroke: #000000; stroke-width: 0.8"/>
      </g>
     </g>
     <g id="text_3">
      <!-- +++ -->
      <g transform="translate(140.408059 314.449062) rotate(-90) scale(0.1 -0.1)">
       <use xlink:href="#DejaVuSans-2b"/>
       <use xlink:href="#DejaVuSans-2b" transform="translate(83.789062 0)"/>
       <use xlink:href="#DejaVuSans-2b" transform="translate(167.578125 0)"/>
      </g>
     </g>
    </g>
    <g id="xtick_4">
     <g id="line2d_4">
      <g>
       <use xlink:href="#m719736f7c6" x="172.288158" y="282.31" style="stroke: #000000; stroke-width: 0.8"/>
      </g>
     </g>
     <g id="text_4">
      <!-- +- -->
      <g transform="translate(175.047533 301.2975) rotate(-90) scale(0.1 -0.1)">
       <defs>
        <path id="DejaVuSans-2d" d="M 313 2009 
L 1997 2009 
L 1997 1497 
L 313 1497 
L 313 2009 
z
" transform="scale(0.015625)"/>
       </defs>
       <use xlink:href="#DejaVuSans-2b"/>
       <use xlink:href="#DejaVuSans-2d" transform="translate(83.789062 0)"/>
      </g>
     </g>
    </g>
    <g id="xtick_5">
     <g id="line2d_5">
      <g>
       <use xlink:href="#m719736f7c6" x="206.927632" y="282.31" style="stroke: #000000; stroke-width: 0.8"/>
      </g>
     </g>
     <g id="text_5">
      <!-- +-+ -->
      <g transform="translate(209.687007 309.677188) rotate(-90) scale(0.1 -0.1)">
       <use xlink:href="#DejaVuSans-2b"/>
       <use xlink:href="#DejaVuSans-2d" transform="translate(83.789062 0)"/>
       <use xlink:href="#DejaVuSans-2b" transform="translate(119.873047 0)"/>
      </g>
     </g>
    </g>
    <g id="xtick_6">
     <g id="line2d_6">
      <g>
       <use xlink:href="#m719736f7c6" x="241.567105" y="282.31" style="stroke: #000000; stroke-width: 0.8"/>
      </g>
     </g>
     <g id="text_6">
      <!-- ++++ -->
      <g transform="translate(244.32648 322.82875) rotate(-90) scale(0.1 -0.1)">
       <use xlink:href="#DejaVuSans-2b"/>
       <use xlink:href="#DejaVuSans-2b" transform="translate(83.789062 0)"/>
       <use xlink:href="#DejaVuSans-2b" transform="translate(167.578125 0)"/>
       <use xlink:href="#DejaVuSans-2b" transform="translate(251.367188 0)"/>
      </g>
     </g>
    </g>
    <g id="xtick_7">
     <g id="line2d_7">
      <g>
       <use xlink:href="#m719736f7c6" x="276.206579" y="282.31" style="stroke: #000000; stroke-width: 0.8"/>
      </g>
     </g>
     <g id="text_7">
      <!-- +- - -->
      <g transform="translate(278.965954 304.905312) rotate(-90) scale(0.1 -0.1)">
       <use xlink:href="#DejaVuSans-2b"/>
       <use xlink:href="#DejaVuSans-2d" transform="translate(83.789062 0)"/>
       <use xlink:href="#DejaVuSans-2d" transform="translate(119.873047 0)"/>
      </g>
     </g>
    </g>
    <g id="xtick_8">
     <g id="line2d_8">
      <g>
       <use xlink:href="#m719736f7c6" x="310.846053" y="282.31" style="stroke: #000000; stroke-width: 0.8"/>
      </g>
     </g>
     <g id="text_8">
      <!-- ++- -->
      <g transform="translate(313.605428 309.677188) rotate(-90) scale(0.1 -0.1)">
       <use xlink:href="#DejaVuSans-2b"/>
       <use xlink:href="#DejaVuSans-2b" transform="translate(83.789062 0)"/>
       <use xlink:href="#DejaVuSans-2d" transform="translate(167.578125 0)"/>
      </g>
     </g>
    </g>
    <g id="xtick_9">
     <g id="line2d_9">
      <g>
       <use xlink:href="#m719736f7c6" x="345.485526" y="282.31" style="stroke: #000000; stroke-width: 0.8"/>
      </g>
     </g>
     <g id="text_9">
      <!-- +-++ -->
      <g transform="translate(348.244901 318.056875) rotate(-90) scale(0.1 -0.1)">
       <use xlink:href="#DejaVuSans-2b"/>
       <use xlink:href="#DejaVuSans-2d" transform="translate(83.789062 0)"/>
       <use xlink:href="#DejaVuSans-2b" transform="translate(119.873047 0)"/>
       <use xlink:href="#DejaVuSans-2b" transform="translate(203.662109 0)"/>
      </g>
     </g>
    </g>
    <g id="xtick_10">
     <g id="line2d_10">
      <g>
       <use xlink:href="#m719736f7c6" x="380.125" y="282.31" style="stroke: #000000; stroke-width: 0.8"/>
      </g>
     </g>
     <g id="text_10">
      <!-- ++-+ -->
      <g transform="translate(382.884375 318.056875) rotate(-90) scale(0.1 -0.1)">
       <use xlink:href="#DejaVuSans-2b"/>
       <use xlink:href="#DejaVuSans-2b" transform="translate(83.789062 0)"/>
       <use xlink:href="#DejaVuSans-2d" transform="translate(167.578125 0)"/>
       <use xlink:href="#DejaVuSans-2b" transform="translate(203.662109 0)"/>
      </g>
     </g>
    </g>
    <g id="xtick_11">
     <g id="line2d_11">
      <g>
       <use xlink:href="#m719736f7c6" x="414.764474" y="282.31" style="stroke: #000000; stroke-width: 0.8"/>
      </g>
     </g>
     <g id="text_11">
      <!-- +++- -->
      <g transform="translate(417.523849 318.056875) rotate(-90) scale(0.1 -0.1)">
       <use xlink:href="#DejaVuSans-2b"/>
       <use xlink:href="#DejaVuSans-2b" transform="translate(83.789062 0)"/>
       <use xlink:href="#DejaVuSans-2b" transform="translate(167.578125 0)"/>
       <use xlink:href="#DejaVuSans-2d" transform="translate(251.367188 0)"/>
      </g>
     </g>
    </g>
    <g id="xtick_12">
     <g id="line2d_12">
      <g>
       <use xlink:href="#m719736f7c6" x="449.403947" y="282.31" style="stroke: #000000; stroke-width: 0.8"/>
      </g>
     </g>
     <g id="text_12">
      <!-- +- - - -->
      <g transform="translate(452.163322 308.513125) rotate(-90) scale(0.1 -0.1)">
       <use xlink:href="#DejaVuSans-2b"/>
       <use xlink:href="#DejaVuSans-2d" transform="translate(83.789062 0)"/>
       <use xlink:href="#DejaVuSans-2d" transform="translate(119.873047 0)"/>
       <use xlink:href="#DejaVuSans-2d" transform="translate(155.957031 0)"/>
      </g>
     </g>
    </g>
    <g id="xtick_13">
     <g id="line2d_13">
      <g>
       <use xlink:href="#m719736f7c6" x="484.043421" y="282.31" style="stroke: #000000; stroke-width: 0.8"/>
      </g>
     </g>
     <g id="text_13">
      <!-- +++++ -->
      <g transform="translate(486.802796 331.208438) rotate(-90) scale(0.1 -0.1)">
       <use xlink:href="#DejaVuSans-2b"/>
       <use xlink:href="#DejaVuSans-2b" transform="translate(83.789062 0)"/>
       <use xlink:href="#DejaVuSans-2b" transform="translate(167.578125 0)"/>
       <use xlink:href="#DejaVuSans-2b" transform="translate(251.367188 0)"/>
       <use xlink:href="#DejaVuSans-2b" transform="translate(335.15625 0)"/>
      </g>
     </g>
    </g>
    <g id="xtick_14">
     <g id="line2d_14">
      <g>
       <use xlink:href="#m719736f7c6" x="518.682895" y="282.31" style="stroke: #000000; stroke-width: 0.8"/>
      </g>
     </g>
     <g id="text_14">
      <!-- +- -+ -->
      <g transform="translate(521.44227 313.285) rotate(-90) scale(0.1 -0.1)">
       <use xlink:href="#DejaVuSans-2b"/>
       <use xlink:href="#DejaVuSans-2d" transform="translate(83.789062 0)"/>
       <use xlink:href="#DejaVuSans-2d" transform="translate(119.873047 0)"/>
       <use xlink:href="#DejaVuSans-2b" transform="translate(155.957031 0)"/>
      </g>
     </g>
    </g>
    <g id="xtick_15">
     <g id="line2d_15">
      <g>
       <use xlink:href="#m719736f7c6" x="553.322368" y="282.31" style="stroke: #000000; stroke-width: 0.8"/>
      </g>
     </g>
     <g id="text_15">
      <!-- ++-+- -->
      <g transform="translate(556.081743 321.664688) rotate(-90) scale(0.1 -0.1)">
       <use xlink:href="#DejaVuSans-2b"/>
       <use xlink:href="#DejaVuSans-2b" transform="translate(83.789062 0)"/>
       <use xlink:href="#DejaVuSans-2d" transform="translate(167.578125 0)"/>
       <use xlink:href="#DejaVuSans-2b" transform="translate(203.662109 0)"/>
       <use xlink:href="#DejaVuSans-2d" transform="translate(287.451172 0)"/>
      </g>
     </g>
    </g>
    <g id="xtick_16">
     <g id="line2d_16">
      <g>
       <use xlink:href="#m719736f7c6" x="587.961842" y="282.31" style="stroke: #000000; stroke-width: 0.8"/>
      </g>
     </g>
     <g id="text_16">
      <!-- ++- - -->
      <g transform="translate(590.721217 313.285) rotate(-90) scale(0.1 -0.1)">
       <use xlink:href="#DejaVuSans-2b"/>
       <use xlink:href="#DejaVuSans-2b" transform="translate(83.789062 0)"/>
       <use xlink:href="#DejaVuSans-2d" transform="translate(167.578125 0)"/>
       <use xlink:href="#DejaVuSans-2d" transform="translate(203.662109 0)"/>
      </g>
     </g>
    </g>
    <g id="xtick_17">
     <g id="line2d_17">
      <g>
       <use xlink:href="#m719736f7c6" x="622.601316" y="282.31" style="stroke: #000000; stroke-width: 0.8"/>
      </g>
     </g>
     <g id="text_17">
      <!-- +++-+ -->
      <g transform="translate(625.360691 326.436562) rotate(-90) scale(0.1 -0.1)">
       <use xlink:href="#DejaVuSans-2b"/>
       <use xlink:href="#DejaVuSans-2b" transform="translate(83.789062 0)"/>
       <use xlink:href="#DejaVuSans-2b" transform="translate(167.578125 0)"/>
       <use xlink:href="#DejaVuSans-2d" transform="translate(251.367188 0)"/>
       <use xlink:href="#DejaVuSans-2b" transform="translate(287.451172 0)"/>
      </g>
     </g>
    </g>
    <g id="xtick_18">
     <g id="line2d_18">
      <g>
       <use xlink:href="#m719736f7c6" x="657.240789" y="282.31" style="stroke: #000000; stroke-width: 0.8"/>
      </g>
     </g>
     <g id="text_18">
      <!-- +-+++ -->
      <g transform="translate(660.000164 326.436562) rotate(-90) scale(0.1 -0.1)">
       <use xlink:href="#DejaVuSans-2b"/>
       <use xlink:href="#DejaVuSans-2d" transform="translate(83.789062 0)"/>
       <use xlink:href="#DejaVuSans-2b" transform="translate(119.873047 0)"/>
       <use xlink:href="#DejaVuSans-2b" transform="translate(203.662109 0)"/>
       <use xlink:href="#DejaVuSans-2b" transform="translate(287.451172 0)"/>
      </g>
     </g>
    </g>
    <g id="xtick_19">
     <g id="line2d_19">
      <g>
       <use xlink:href="#m719736f7c6" x="691.880263" y="282.31" style="stroke: #000000; stroke-width: 0.8"/>
      </g>
     </g>
     <g id="text_19">
      <!-- ++++-+ -->
      <g transform="translate(694.639638 334.81625) rotate(-90) scale(0.1 -0.1)">
       <use xlink:href="#DejaVuSans-2b"/>
       <use xlink:href="#DejaVuSans-2b" transform="translate(83.789062 0)"/>
       <use xlink:href="#DejaVuSans-2b" transform="translate(167.578125 0)"/>
       <use xlink:href="#DejaVuSans-2b" transform="translate(251.367188 0)"/>
       <use xlink:href="#DejaVuSans-2d" transform="translate(335.15625 0)"/>
       <use xlink:href="#DejaVuSans-2b" transform="translate(371.240234 0)"/>
      </g>
     </g>
    </g>
    <g id="text_20">
     <!-- Orientation Pattern -->
     <g transform="translate(332.321094 346.414688) scale(0.1 -0.1)">
      <defs>
       <path id="DejaVuSans-4f" d="M 2522 4238 
Q 1834 4238 1429 3725 
Q 1025 3213 1025 2328 
Q 1025 1447 1429 934 
Q 1834 422 2522 422 
Q 3209 422 3611 934 
Q 4013 1447 4013 2328 
Q 4013 3213 3611 3725 
Q 3209 4238 2522 4238 
z
M 2522 4750 
Q 3503 4750 4090 4092 
Q 4678 3434 4678 2328 
Q 4678 1225 4090 567 
Q 3503 -91 2522 -91 
Q 1538 -91 948 565 
Q 359 1222 359 2328 
Q 359 3434 948 4092 
Q 1538 4750 2522 4750 
z
" transform="scale(0.015625)"/>
       <path id="DejaVuSans-72" d="M 2631 2963 
Q 2534 3019 2420 3045 
Q 2306 3072 2169 3072 
Q 1681 3072 1420 2755 
Q 1159 2438 1159 1844 
L 1159 0 
L 581 0 
L 581 3500 
L 1159 3500 
L 1159 2956 
Q 1341 3275 1631 3429 
Q 1922 3584 2338 3584 
Q 2397 3584 2469 3576 
Q 2541 3569 2628 3553 
L 2631 2963 
z
" transform="scale(0.015625)"/>
       <path id="DejaVuSans-69" d="M 603 3500 
L 1178 3500 
L 1178 0 
L 603 0 
L 603 3500 
z
M 603 4863 
L 1178 4863 
L 1178 4134 
L 603 4134 
L 603 4863 
z
" transform="scale(0.015625)"/>
       <path id="DejaVuSans-65" d="M 3597 1894 
L 3597 1613 
L 953 1613 
Q 991 1019 1311 708 
Q 1631 397 2203 397 
Q 2534 397 2845 478 
Q 3156 559 3463 722 
L 3463 178 
Q 3153 47 2828 -22 
Q 2503 -91 2169 -91 
Q 1331 -91 842 396 
Q 353 884 353 1716 
Q 353 2575 817 3079 
Q 1281 3584 2069 3584 
Q 2775 3584 3186 3129 
Q 3597 2675 3597 1894 
z
M 3022 2063 
Q 3016 2534 2758 2815 
Q 2500 3097 2075 3097 
Q 1594 3097 1305 2825 
Q 1016 2553 972 2059 
L 3022 2063 
z
" transform="scale(0.015625)"/>
       <path id="DejaVuSans-6e" d="M 3513 2113 
L 3513 0 
L 2938 0 
L 2938 2094 
Q 2938 2591 2744 2837 
Q 2550 3084 2163 3084 
Q 1697 3084 1428 2787 
Q 1159 2491 1159 1978 
L 1159 0 
L 581 0 
L 581 3500 
L 1159 3500 
L 1159 2956 
Q 1366 3272 1645 3428 
Q 1925 3584 2291 3584 
Q 2894 3584 3203 3211 
Q 3513 2838 3513 2113 
z
" transform="scale(0.015625)"/>
       <path id="DejaVuSans-74" d="M 1172 4494 
L 1172 3500 
L 2356 3500 
L 2356 3053 
L 1172 3053 
L 1172 1153 
Q 1172 725 1289 603 
Q 1406 481 1766 481 
L 2356 481 
L 2356 0 
L 1766 0 
Q 1100 0 847 248 
Q 594 497 594 1153 
L 594 3053 
L 172 3053 
L 172 3500 
L 594 3500 
L 594 4494 
L 1172 4494 
z
" transform="scale(0.015625)"/>
       <path id="DejaVuSans-61" d="M 2194 1759 
Q 1497 1759 1228 1600 
Q 959 1441 959 1056 
Q 959 750 1161 570 
Q 1363 391 1709 391 
Q 2188 391 2477 730 
Q 2766 1069 2766 1631 
L 2766 1759 
L 2194 1759 
z
M 3341 1997 
L 3341 0 
L 2766 0 
L 2766 531 
Q 2569 213 2275 61 
Q 1981 -91 1556 -91 
Q 1019 -91 701 211 
Q 384 513 384 1019 
Q 384 1609 779 1909 
Q 1175 2209 1959 2209 
L 2766 2209 
L 2766 2266 
Q 2766 2663 2505 2880 
Q 2244 3097 1772 3097 
Q 1472 3097 1187 3025 
Q 903 2953 641 2809 
L 641 3341 
Q 956 3463 1253 3523 
Q 1550 3584 1831 3584 
Q 2591 3584 2966 3190 
Q 3341 2797 3341 1997 
z
" transform="scale(0.015625)"/>
       <path id="DejaVuSans-6f" d="M 1959 3097 
Q 1497 3097 1228 2736 
Q 959 2375 959 1747 
Q 959 1119 1226 758 
Q 1494 397 1959 397 
Q 2419 397 2687 759 
Q 2956 1122 2956 1747 
Q 2956 2369 2687 2733 
Q 2419 3097 1959 3097 
z
M 1959 3584 
Q 2709 3584 3137 3096 
Q 3566 2609 3566 1747 
Q 3566 888 3137 398 
Q 2709 -91 1959 -91 
Q 1206 -91 779 398 
Q 353 888 353 1747 
Q 353 2609 779 3096 
Q 1206 3584 1959 3584 
z
" transform="scale(0.015625)"/>
       <path id="DejaVuSans-20" transform="scale(0.015625)"/>
       <path id="DejaVuSans-50" d="M 1259 4147 
L 1259 2394 
L 2053 2394 
Q 2494 2394 2734 2622 
Q 2975 2850 2975 3272 
Q 2975 3691 2734 3919 
Q 2494 4147 2053 4147 
L 1259 4147 
z
M 628 4666 
L 2053 4666 
Q 2838 4666 3239 4311 
Q 3641 3956 3641 3272 
Q 3641 2581 3239 2228 
Q 2838 1875 2053 1875 
L 1259 1875 
L 1259 0 
L 628 0 
L 628 4666 
z
" transform="scale(0.015625)"/>
      </defs>
      <use xlink:href="#DejaVuSans-4f"/>
      <use xlink:href="#DejaVuSans-72" transform="translate(78.710938 0)"/>
      <use xlink:href="#DejaVuSans-69" transform="translate(119.824219 0)"/>
      <use xlink:href="#DejaVuSans-65" transform="translate(147.607422 0)"/>
      <use xlink:href="#DejaVuSans-6e" transform="translate(209.130859 0)"/>
      <use xlink:href="#DejaVuSans-74" transform="translate(272.509766 0)"/>
      <use xlink:href="#DejaVuSans-61" transform="translate(311.71875 0)"/>
      <use xlink:href="#DejaVuSans-74" transform="translate(372.998047 0)"/>
      <use xlink:href="#DejaVuSans-69" transform="translate(412.207031 0)"/>
      <use xlink:href="#DejaVuSans-6f" transform="translate(439.990234 0)"/>
      <use xlink:href="#DejaVuSans-6e" transform="translate(501.171875 0)"/>
      <use xlink:href="#DejaVuSans-20" transform="translate(564.550781 0)"/>
      <use xlink:href="#DejaVuSans-50" transform="translate(596.337891 0)"/>
      <use xlink:href="#DejaVuSans-61" transform="translate(652.140625 0)"/>
      <use xlink:href="#DejaVuSans-74" transform="translate(713.419922 0)"/>
      <use xlink:href="#DejaVuSans-74" transform="translate(752.628906 0)"/>
      <use xlink:href="#DejaVuSans-65" transform="translate(791.837891 0)"/>
      <use xlink:href="#DejaVuSans-72" transform="translate(853.361328 0)"/>
      <use xlink:href="#DejaVuSans-6e" transform="translate(892.724609 0)"/>
     </g>
    </g>
   </g>
   <g id="matplotlib.axis_2">
    <g id="ytick_1">
     <g id="line2d_20">
      <defs>
       <path id="m1670982764" d="M 0 0 
L -3.5 0 
" style="stroke: #000000; stroke-width: 0.8"/>
      </defs>
      <g>
       <use xlink:href="#m1670982764" x="51.05" y="282.31" style="stroke: #000000; stroke-width: 0.8"/>
      </g>
     </g>
     <g id="text_21">
      <!-- 0 -->
      <g transform="translate(37.6875 286.109219) scale(0.1 -0.1)">
       <defs>
        <path id="DejaVuSans-30" d="M 2034 4250 
Q 1547 4250 1301 3770 
Q 1056 3291 1056 2328 
Q 1056 1369 1301 889 
Q 1547 409 2034 409 
Q 2525 409 2770 889 
Q 3016 1369 3016 2328 
Q 3016 3291 2770 3770 
Q 2525 4250 2034 4250 
z
M 2034 4750 
Q 2819 4750 3233 4129 
Q 3647 3509 3647 2328 
Q 3647 1150 3233 529 
Q 2819 -91 2034 -91 
Q 1250 -91 836 529 
Q 422 1150 422 2328 
Q 422 3509 836 4129 
Q 1250 4750 2034 4750 
z
" transform="scale(0.015625)"/>
       </defs>
       <use xlink:href="#DejaVuSans-30"/>
      </g>
     </g>
    </g>
    <g id="ytick_2">
     <g id="line2d_21">
      <g>
       <use xlink:href="#m1670982764" x="51.05" y="227.409585" style="stroke: #000000; stroke-width: 0.8"/>
      </g>
     </g>
     <g id="text_22">
      <!-- 100 -->
      <g transform="translate(24.9625 231.208804) scale(0.1 -0.1)">
       <defs>
        <path id="DejaVuSans-31" d="M 794 531 
L 1825 531 
L 1825 4091 
L 703 3866 
L 703 4441 
L 1819 4666 
L 2450 4666 
L 2450 531 
L 3481 531 
L 3481 0 
L 794 0 
L 794 531 
z
" transform="scale(0.015625)"/>
       </defs>
       <use xlink:href="#DejaVuSans-31"/>
       <use xlink:href="#DejaVuSans-30" transform="translate(63.623047 0)"/>
       <use xlink:href="#DejaVuSans-30" transform="translate(127.246094 0)"/>
      </g>
     </g>
    </g>
    <g id="ytick_3">
     <g id="line2d_22">
      <g>
       <use xlink:href="#m1670982764" x="51.05" y="172.509171" style="stroke: #000000; stroke-width: 0.8"/>
      </g>
     </g>
     <g id="text_23">
      <!-- 200 -->
      <g transform="translate(24.9625 176.30839) scale(0.1 -0.1)">
       <defs>
        <path id="DejaVuSans-32" d="M 1228 531 
L 3431 531 
L 3431 0 
L 469 0 
L 469 531 
Q 828 903 1448 1529 
Q 2069 2156 2228 2338 
Q 2531 2678 2651 2914 
Q 2772 3150 2772 3378 
Q 2772 3750 2511 3984 
Q 2250 4219 1831 4219 
Q 1534 4219 1204 4116 
Q 875 4013 500 3803 
L 500 4441 
Q 881 4594 1212 4672 
Q 1544 4750 1819 4750 
Q 2544 4750 2975 4387 
Q 3406 4025 3406 3419 
Q 3406 3131 3298 2873 
Q 3191 2616 2906 2266 
Q 2828 2175 2409 1742 
Q 1991 1309 1228 531 
z
" transform="scale(0.015625)"/>
       </defs>
       <use xlink:href="#DejaVuSans-32"/>
       <use xlink:href="#DejaVuSans-30" transform="translate(63.623047 0)"/>
       <use xlink:href="#DejaVuSans-30" transform="translate(127.246094 0)"/>
      </g>
     </g>
    </g>
    <g id="ytick_4">
     <g id="line2d_23">
      <g>
       <use xlink:href="#m1670982764" x="51.05" y="117.608756" style="stroke: #000000; stroke-width: 0.8"/>
      </g>
     </g>
     <g id="text_24">
      <!-- 300 -->
      <g transform="translate(24.9625 121.407975) scale(0.1 -0.1)">
       <defs>
        <path id="DejaVuSans-33" d="M 2597 2516 
Q 3050 2419 3304 2112 
Q 3559 1806 3559 1356 
Q 3559 666 3084 287 
Q 2609 -91 1734 -91 
Q 1441 -91 1130 -33 
Q 819 25 488 141 
L 488 750 
Q 750 597 1062 519 
Q 1375 441 1716 441 
Q 2309 441 2620 675 
Q 2931 909 2931 1356 
Q 2931 1769 2642 2001 
Q 2353 2234 1838 2234 
L 1294 2234 
L 1294 2753 
L 1863 2753 
Q 2328 2753 2575 2939 
Q 2822 3125 2822 3475 
Q 2822 3834 2567 4026 
Q 2313 4219 1838 4219 
Q 1578 4219 1281 4162 
Q 984 4106 628 3988 
L 628 4550 
Q 988 4650 1302 4700 
Q 1616 4750 1894 4750 
Q 2613 4750 3031 4423 
Q 3450 4097 3450 3541 
Q 3450 3153 3228 2886 
Q 3006 2619 2597 2516 
z
" transform="scale(0.015625)"/>
       </defs>
       <use xlink:href="#DejaVuSans-33"/>
       <use xlink:href="#DejaVuSans-30" transform="translate(63.623047 0)"/>
       <use xlink:href="#DejaVuSans-30" transform="translate(127.246094 0)"/>
      </g>
     </g>
    </g>
    <g id="ytick_5">
     <g id="line2d_24">
      <g>
       <use xlink:href="#m1670982764" x="51.05" y="62.708342" style="stroke: #000000; stroke-width: 0.8"/>
      </g>
     </g>
     <g id="text_25">
      <!-- 400 -->
      <g transform="translate(24.9625 66.507561) scale(0.1 -0.1)">
       <defs>
        <path id="DejaVuSans-34" d="M 2419 4116 
L 825 1625 
L 2419 1625 
L 2419 4116 
z
M 2253 4666 
L 3047 4666 
L 3047 1625 
L 3713 1625 
L 3713 1100 
L 3047 1100 
L 3047 0 
L 2419 0 
L 2419 1100 
L 313 1100 
L 313 1709 
L 2253 4666 
z
" transform="scale(0.015625)"/>
       </defs>
       <use xlink:href="#DejaVuSans-34"/>
       <use xlink:href="#DejaVuSans-30" transform="translate(63.623047 0)"/>
       <use xlink:href="#DejaVuSans-30" transform="translate(127.246094 0)"/>
      </g>
     </g>
    </g>
    <g id="text_26">
     <!-- Frequency -->
     <g transform="translate(18.882812 172.384688) rotate(-90) scale(0.1 -0.1)">
      <defs>
       <path id="DejaVuSans-46" d="M 628 4666 
L 3309 4666 
L 3309 4134 
L 1259 4134 
L 1259 2759 
L 3109 2759 
L 3109 2228 
L 1259 2228 
L 1259 0 
L 628 0 
L 628 4666 
z
" transform="scale(0.015625)"/>
       <path id="DejaVuSans-71" d="M 947 1747 
Q 947 1113 1208 752 
Q 1469 391 1925 391 
Q 2381 391 2643 752 
Q 2906 1113 2906 1747 
Q 2906 2381 2643 2742 
Q 2381 3103 1925 3103 
Q 1469 3103 1208 2742 
Q 947 2381 947 1747 
z
M 2906 525 
Q 2725 213 2448 61 
Q 2172 -91 1784 -91 
Q 1150 -91 751 415 
Q 353 922 353 1747 
Q 353 2572 751 3078 
Q 1150 3584 1784 3584 
Q 2172 3584 2448 3432 
Q 2725 3281 2906 2969 
L 2906 3500 
L 3481 3500 
L 3481 -1331 
L 2906 -1331 
L 2906 525 
z
" transform="scale(0.015625)"/>
       <path id="DejaVuSans-75" d="M 544 1381 
L 544 3500 
L 1119 3500 
L 1119 1403 
Q 1119 906 1312 657 
Q 1506 409 1894 409 
Q 2359 409 2629 706 
Q 2900 1003 2900 1516 
L 2900 3500 
L 3475 3500 
L 3475 0 
L 2900 0 
L 2900 538 
Q 2691 219 2414 64 
Q 2138 -91 1772 -91 
Q 1169 -91 856 284 
Q 544 659 544 1381 
z
M 1991 3584 
L 1991 3584 
z
" transform="scale(0.015625)"/>
       <path id="DejaVuSans-63" d="M 3122 3366 
L 3122 2828 
Q 2878 2963 2633 3030 
Q 2388 3097 2138 3097 
Q 1578 3097 1268 2742 
Q 959 2388 959 1747 
Q 959 1106 1268 751 
Q 1578 397 2138 397 
Q 2388 397 2633 464 
Q 2878 531 3122 666 
L 3122 134 
Q 2881 22 2623 -34 
Q 2366 -91 2075 -91 
Q 1284 -91 818 406 
Q 353 903 353 1747 
Q 353 2603 823 3093 
Q 1294 3584 2113 3584 
Q 2378 3584 2631 3529 
Q 2884 3475 3122 3366 
z
" transform="scale(0.015625)"/>
       <path id="DejaVuSans-79" d="M 2059 -325 
Q 1816 -950 1584 -1140 
Q 1353 -1331 966 -1331 
L 506 -1331 
L 506 -850 
L 844 -850 
Q 1081 -850 1212 -737 
Q 1344 -625 1503 -206 
L 1606 56 
L 191 3500 
L 800 3500 
L 1894 763 
L 2988 3500 
L 3597 3500 
L 2059 -325 
z
" transform="scale(0.015625)"/>
      </defs>
      <use xlink:href="#DejaVuSans-46"/>
      <use xlink:href="#DejaVuSans-72" transform="translate(50.269531 0)"/>
      <use xlink:href="#DejaVuSans-65" transform="translate(89.132812 0)"/>
      <use xlink:href="#DejaVuSans-71" transform="translate(150.65625 0)"/>
      <use xlink:href="#DejaVuSans-75" transform="translate(214.132812 0)"/>
      <use xlink:href="#DejaVuSans-65" transform="translate(277.511719 0)"/>
      <use xlink:href="#DejaVuSans-6e" transform="translate(339.035156 0)"/>
      <use xlink:href="#DejaVuSans-63" transform="translate(402.414062 0)"/>
      <use xlink:href="#DejaVuSans-79" transform="translate(457.394531 0)"/>
     </g>
    </g>
   </g>
   <g id="patch_22">
    <path d="M 51.05 282.31 
L 51.05 10.8 
" style="fill: none; stroke: #000000; stroke-width: 0.8; stroke-linejoin: miter; stroke-linecap: square"/>
   </g>
   <g id="patch_23">
    <path d="M 709.2 282.31 
L 709.2 10.8 
" style="fill: none; stroke: #000000; stroke-width: 0.8; stroke-linejoin: miter; stroke-linecap: square"/>
   </g>
   <g id="patch_24">
    <path d="M 51.05 282.31 
L 709.2 282.31 
" style="fill: none; stroke: #000000; stroke-width: 0.8; stroke-linejoin: miter; stroke-linecap: square"/>
   </g>
   <g id="patch_25">
    <path d="M 51.05 10.8 
L 709.2 10.8 
" style="fill: none; stroke: #000000; stroke-width: 0.8; stroke-linejoin: miter; stroke-linecap: square"/>
   </g>
  </g>
 </g>
 <defs>
  <clipPath id="p003b460a5f">
   <rect x="51.05" y="10.8" width="658.15" height="271.51"/>
  </clipPath>
 </defs>
</svg>
