<?xml version="1.0" encoding="utf-8" standalone="no"?>
<!DOCTYPE svg PUBLIC "-//W3C//DTD SVG 1.1//EN"
  "http://www.w3.org/Graphics/SVG/1.1/DTD/svg11.dtd">
<svg xmlns:xlink="http://www.w3.org/1999/xlink" width="432pt" height="360pt" viewBox="0 0 432 360" xmlns="http://www.w3.org/2000/svg" version="1.1">
 <metadata>
  <rdf:RDF xmlns:dc="http://purl.org/dc/elements/1.1/" xmlns:cc="http://creativecommons.org/ns#" xmlns:rdf="http://www.w3.org/1999/02/22-rdf-syntax-ns#">
   <cc:Work>
    <dc:type rdf:resource="http://purl.org/dc/dcmitype/StillImage"/>
    <dc:date>2026-03-18T17:35:27.018677</dc:date>
    <dc:format>image/svg+xml</dc:format>
    <dc:creator>
     <cc:Agent>
      <dc:title>Matplotlib v3.10.8, https://matplotlib.org/</dc:title>
     </cc:Agent>
    </dc:creator>
   </cc:Work>
  </rdf:RDF>
 </metadata>
 <defs>
  <style type="text/css">*{stroke-linejoin: round; stroke-linecap: butt}</style>
 </defs>
 <g id="figure_1">
  <g id="patch_1">
   <path d="M 0 360 
L 432 360 
L 432 0 
L 0 0 
z
" style="fill: #ffffff"/>
  </g>
  <g id="axes_1">
   <g id="patch_2">
    <path d="M 56.18 320.456 
L 421.2 320.456 
L 421.2 10.8 
L 56.18 10.8 
z
" style="fill: #ffffff"/>
   </g>
   <g id="matplotlib.axis_1">
    <g id="xtick_1">
     <g id="line2d_1">
      <defs>
       <path id="m777209c240" d="M 0 0 
L 0 3.5 
" style="stroke: #000000; stroke-width: 0.8"/>
      </defs>
      <g>
       <use xlink:href="#m777209c240" x="92.682" y="320.456" style="stroke: #000000; stroke-width: 0.8"/>
      </g>
     </g>
     <g id="text_1">
      <!-- Before -->
      <g transform="translate(76.335906 335.054438) scale(0.1 -0.1)">
       <defs>
        <path id="DejaVuSans-42" d="M 1259 2228 
L 1259 519 
L 2272 519 
Q 2781 519 3026 730 
Q 3272 941 3272 1375 
Q 3272 1813 3026 2020 
Q 2781 2228 2272 2228 
L 1259 2228 
z
M 1259 4147 
L 1259 2741 
L 2194 2741 
Q 2656 2741 2882 2914 
Q 3109 3088 3109 3444 
Q 3109 3797 2882 3972 
Q 2656 4147 2194 4147 
L 1259 4147 
z
M 628 4666 
L 2241 4666 
Q 2963 4666 3353 4366 
Q 3744 4066 3744 3513 
Q 3744 3084 3544 2831 
Q 3344 2578 2956 2516 
Q 3422 2416 3680 2098 
Q 3938 1781 3938 1306 
Q 3938 681 3513 340 
Q 3088 0 2303 0 
L 628 0 
L 628 4666 
z
" transform="scale(0.015625)"/>
        <path id="DejaVuSans-65" d="M 3597 1894 
L 3597 1613 
L 953 1613 
Q 991 1019 1311 708 
Q 1631 397 2203 397 
Q 2534 397 2845 478 
Q 3156 559 3463 722 
L 3463 178 
Q 3153 47 2828 -22 
Q 2503 -91 2169 -91 
Q 1331 -91 842 396 
Q 353 884 353 1716 
Q 353 2575 817 3079 
Q 1281 3584 2069 3584 
Q 2775 3584 3186 3129 
Q 3597 2675 3597 1894 
z
M 3022 2063 
Q 3016 2534 2758 2815 
Q 2500 3097 2075 3097 
Q 1594 3097 1305 2825 
Q 1016 2553 972 2059 
L 3022 2063 
z
" transform="scale(0.015625)"/>
        <path id="DejaVuSans-66" d="M 2375 4863 
L 2375 4384 
L 1825 4384 
Q 1516 4384 1395 4259 
Q 1275 4134 1275 3809 
L 1275 3500 
L 2222 3500 
L 2222 3053 
L 1275 3053 
L 1275 0 
L 697 0 
L 697 3053 
L 147 3053 
L 147 3500 
L 697 3500 
L 697 3744 
Q 697 4328 969 4595 
Q 1241 4863 1831 4863 
L 2375 4863 
z
" transform="scale(0.015625)"/>
        <path id="DejaVuSans-6f" d="M 1959 3097 
Q 1497 3097 1228 2736 
Q 959 2375 959 1747 
Q 959 1119 1226 758 
Q 1494 397 1959 397 
Q 2419 397 2687 759 
Q 2956 1122 2956 1747 
Q 2956 2369 2687 2733 
Q 2419 3097 1959 3097 
z
M 1959 3584 
Q 2709 3584 3137 3096 
Q 3566 2609 3566 1747 
Q 3566 888 3137 398 
Q 2709 -91 1959 -91 
Q 1206 -91 779 398 
Q 353 888 353 1747 
Q 353 2609 779 3096 
Q 1206 3584 1959 3584 
z
" transform="scale(0.015625)"/>
        <path id="DejaVuSans-72" d="M 2631 2963 
Q 2534 3019 2420 3045 
Q 2306 3072 2169 3072 
Q 1681 3072 1420 2755 
Q 1159 2438 1159 1844 
L 1159 0 
L 581 0 
L 581 3500 
L 1159 3500 
L 1159 2956 
Q 1341 3275 1631 3429 
Q 1922 3584 2338 3584 
Q 2397 3584 2469 3576 
Q 2541 3569 2628 3553 
L 2631 2963 
z
" transform="scale(0.015625)"/>
       </defs>
       <use xlink:href="#DejaVuSans-42"/>
       <use xlink:href="#DejaVuSans-65" transform="translate(68.603516 0)"/>
       <use xlink:href="#DejaVuSans-66" transform="translate(130.126953 0)"/>
       <use xlink:href="#DejaVuSans-6f" transform="translate(165.332031 0)"/>
       <use xlink:href="#DejaVuSans-72" transform="translate(226.513672 0)"/>
       <use xlink:href="#DejaVuSans-65" transform="translate(265.376953 0)"/>
      </g>
      <!-- optimization -->
      <g transform="translate(61.574188 346.25225) scale(0.1 -0.1)">
       <defs>
        <path id="DejaVuSans-70" d="M 1159 525 
L 1159 -1331 
L 581 -1331 
L 581 3500 
L 1159 3500 
L 1159 2969 
Q 1341 3281 1617 3432 
Q 1894 3584 2278 3584 
Q 2916 3584 3314 3078 
Q 3713 2572 3713 1747 
Q 3713 922 3314 415 
Q 2916 -91 2278 -91 
Q 1894 -91 1617 61 
Q 1341 213 1159 525 
z
M 3116 1747 
Q 3116 2381 2855 2742 
Q 2594 3103 2138 3103 
Q 1681 3103 1420 2742 
Q 1159 2381 1159 1747 
Q 1159 1113 1420 752 
Q 1681 391 2138 391 
Q 2594 391 2855 752 
Q 3116 1113 3116 1747 
z
" transform="scale(0.015625)"/>
        <path id="DejaVuSans-74" d="M 1172 4494 
L 1172 3500 
L 2356 3500 
L 2356 3053 
L 1172 3053 
L 1172 1153 
Q 1172 725 1289 603 
Q 1406 481 1766 481 
L 2356 481 
L 2356 0 
L 1766 0 
Q 1100 0 847 248 
Q 594 497 594 1153 
L 594 3053 
L 172 3053 
L 172 3500 
L 594 3500 
L 594 4494 
L 1172 4494 
z
" transform="scale(0.015625)"/>
        <path id="DejaVuSans-69" d="M 603 3500 
L 1178 3500 
L 1178 0 
L 603 0 
L 603 3500 
z
M 603 4863 
L 1178 4863 
L 1178 4134 
L 603 4134 
L 603 4863 
z
" transform="scale(0.015625)"/>
        <path id="DejaVuSans-6d" d="M 3328 2828 
Q 3544 3216 3844 3400 
Q 4144 3584 4550 3584 
Q 5097 3584 5394 3201 
Q 5691 2819 5691 2113 
L 5691 0 
L 5113 0 
L 5113 2094 
Q 5113 2597 4934 2840 
Q 4756 3084 4391 3084 
Q 3944 3084 3684 2787 
Q 3425 2491 3425 1978 
L 3425 0 
L 2847 0 
L 2847 2094 
Q 2847 2600 2669 2842 
Q 2491 3084 2119 3084 
Q 1678 3084 1418 2786 
Q 1159 2488 1159 1978 
L 1159 0 
L 581 0 
L 581 3500 
L 1159 3500 
L 1159 2956 
Q 1356 3278 1631 3431 
Q 1906 3584 2284 3584 
Q 2666 3584 2933 3390 
Q 3200 3197 3328 2828 
z
" transform="scale(0.015625)"/>
        <path id="DejaVuSans-7a" d="M 353 3500 
L 3084 3500 
L 3084 2975 
L 922 459 
L 3084 459 
L 3084 0 
L 275 0 
L 275 525 
L 2438 3041 
L 353 3041 
L 353 3500 
z
" transform="scale(0.015625)"/>
        <path id="DejaVuSans-61" d="M 2194 1759 
Q 1497 1759 1228 1600 
Q 959 1441 959 1056 
Q 959 750 1161 570 
Q 1363 391 1709 391 
Q 2188 391 2477 730 
Q 2766 1069 2766 1631 
L 2766 1759 
L 2194 1759 
z
M 3341 1997 
L 3341 0 
L 2766 0 
L 2766 531 
Q 2569 213 2275 61 
Q 1981 -91 1556 -91 
Q 1019 -91 701 211 
Q 384 513 384 1019 
Q 384 1609 779 1909 
Q 1175 2209 1959 2209 
L 2766 2209 
L 2766 2266 
Q 2766 2663 2505 2880 
Q 2244 3097 1772 3097 
Q 1472 3097 1187 3025 
Q 903 2953 641 2809 
L 641 3341 
Q 956 3463 1253 3523 
Q 1550 3584 1831 3584 
Q 2591 3584 2966 3190 
Q 3341 2797 3341 1997 
z
" transform="scale(0.015625)"/>
        <path id="DejaVuSans-6e" d="M 3513 2113 
L 3513 0 
L 2938 0 
L 2938 2094 
Q 2938 2591 2744 2837 
Q 2550 3084 2163 3084 
Q 1697 3084 1428 2787 
Q 1159 2491 1159 1978 
L 1159 0 
L 581 0 
L 581 3500 
L 1159 3500 
L 1159 2956 
Q 1366 3272 1645 3428 
Q 1925 3584 2291 3584 
Q 2894 3584 3203 3211 
Q 3513 2838 3513 2113 
z
" transform="scale(0.015625)"/>
       </defs>
       <use xlink:href="#DejaVuSans-6f"/>
       <use xlink:href="#DejaVuSans-70" transform="translate(61.181641 0)"/>
       <use xlink:href="#DejaVuSans-74" transform="translate(124.658203 0)"/>
       <use xlink:href="#DejaVuSans-69" transform="translate(163.867188 0)"/>
       <use xlink:href="#DejaVuSans-6d" transform="translate(191.650391 0)"/>
       <use xlink:href="#DejaVuSans-69" transform="translate(289.0625 0)"/>
       <use xlink:href="#DejaVuSans-7a" transform="translate(316.845703 0)"/>
       <use xlink:href="#DejaVuSans-61" transform="translate(369.335938 0)"/>
       <use xlink:href="#DejaVuSans-74" transform="translate(430.615234 0)"/>
       <use xlink:href="#DejaVuSans-69" transform="translate(469.824219 0)"/>
       <use xlink:href="#DejaVuSans-6f" transform="translate(497.607422 0)"/>
       <use xlink:href="#DejaVuSans-6e" transform="translate(558.789062 0)"/>
      </g>
     </g>
    </g>
    <g id="xtick_2">
     <g id="line2d_2">
      <g>
       <use xlink:href="#m777209c240" x="165.686" y="320.456" style="stroke: #000000; stroke-width: 0.8"/>
      </g>
     </g>
     <g id="text_2">
      <!-- Target -->
      <g transform="translate(150.214125 335.054438) scale(0.1 -0.1)">
       <defs>
        <path id="DejaVuSans-54" d="M -19 4666 
L 3928 4666 
L 3928 4134 
L 2272 4134 
L 2272 0 
L 1638 0 
L 1638 4134 
L -19 4134 
L -19 4666 
z
" transform="scale(0.015625)"/>
        <path id="DejaVuSans-67" d="M 2906 1791 
Q 2906 2416 2648 2759 
Q 2391 3103 1925 3103 
Q 1463 3103 1205 2759 
Q 947 2416 947 1791 
Q 947 1169 1205 825 
Q 1463 481 1925 481 
Q 2391 481 2648 825 
Q 2906 1169 2906 1791 
z
M 3481 434 
Q 3481 -459 3084 -895 
Q 2688 -1331 1869 -1331 
Q 1566 -1331 1297 -1286 
Q 1028 -1241 775 -1147 
L 775 -588 
Q 1028 -725 1275 -790 
Q 1522 -856 1778 -856 
Q 2344 -856 2625 -561 
Q 2906 -266 2906 331 
L 2906 616 
Q 2728 306 2450 153 
Q 2172 0 1784 0 
Q 1141 0 747 490 
Q 353 981 353 1791 
Q 353 2603 747 3093 
Q 1141 3584 1784 3584 
Q 2172 3584 2450 3431 
Q 2728 3278 2906 2969 
L 2906 3500 
L 3481 3500 
L 3481 434 
z
" transform="scale(0.015625)"/>
       </defs>
       <use xlink:href="#DejaVuSans-54"/>
       <use xlink:href="#DejaVuSans-61" transform="translate(44.583984 0)"/>
       <use xlink:href="#DejaVuSans-72" transform="translate(105.863281 0)"/>
       <use xlink:href="#DejaVuSans-67" transform="translate(145.226562 0)"/>
       <use xlink:href="#DejaVuSans-65" transform="translate(208.703125 0)"/>
       <use xlink:href="#DejaVuSans-74" transform="translate(270.226562 0)"/>
      </g>
      <!-- 30 -->
      <g transform="translate(159.3235 346.25225) scale(0.1 -0.1)">
       <defs>
        <path id="DejaVuSans-33" d="M 2597 2516 
Q 3050 2419 3304 2112 
Q 3559 1806 3559 1356 
Q 3559 666 3084 287 
Q 2609 -91 1734 -91 
Q 1441 -91 1130 -33 
Q 819 25 488 141 
L 488 750 
Q 750 597 1062 519 
Q 1375 441 1716 441 
Q 2309 441 2620 675 
Q 2931 909 2931 1356 
Q 2931 1769 2642 2001 
Q 2353 2234 1838 2234 
L 1294 2234 
L 1294 2753 
L 1863 2753 
Q 2328 2753 2575 2939 
Q 2822 3125 2822 3475 
Q 2822 3834 2567 4026 
Q 2313 4219 1838 4219 
Q 1578 4219 1281 4162 
Q 984 4106 628 3988 
L 628 4550 
Q 988 4650 1302 4700 
Q 1616 4750 1894 4750 
Q 2613 4750 3031 4423 
Q 3450 4097 3450 3541 
Q 3450 3153 3228 2886 
Q 3006 2619 2597 2516 
z
" transform="scale(0.015625)"/>
        <path id="DejaVuSans-30" d="M 2034 4250 
Q 1547 4250 1301 3770 
Q 1056 3291 1056 2328 
Q 1056 1369 1301 889 
Q 1547 409 2034 409 
Q 2525 409 2770 889 
Q 3016 1369 3016 2328 
Q 3016 3291 2770 3770 
Q 2525 4250 2034 4250 
z
M 2034 4750 
Q 2819 4750 3233 4129 
Q 3647 3509 3647 2328 
Q 3647 1150 3233 529 
Q 2819 -91 2034 -91 
Q 1250 -91 836 529 
Q 422 1150 422 2328 
Q 422 3509 836 4129 
Q 1250 4750 2034 4750 
z
" transform="scale(0.015625)"/>
       </defs>
       <use xlink:href="#DejaVuSans-33"/>
       <use xlink:href="#DejaVuSans-30" transform="translate(63.623047 0)"/>
      </g>
     </g>
    </g>
    <g id="xtick_3">
     <g id="line2d_3">
      <g>
       <use xlink:href="#m777209c240" x="238.69" y="320.456" style="stroke: #000000; stroke-width: 0.8"/>
      </g>
     </g>
     <g id="text_3">
      <!-- Target -->
      <g transform="translate(223.218125 335.054438) scale(0.1 -0.1)">
       <use xlink:href="#DejaVuSans-54"/>
       <use xlink:href="#DejaVuSans-61" transform="translate(44.583984 0)"/>
       <use xlink:href="#DejaVuSans-72" transform="translate(105.863281 0)"/>
       <use xlink:href="#DejaVuSans-67" transform="translate(145.226562 0)"/>
       <use xlink:href="#DejaVuSans-65" transform="translate(208.703125 0)"/>
       <use xlink:href="#DejaVuSans-74" transform="translate(270.226562 0)"/>
      </g>
      <!-- 50 -->
      <g transform="translate(232.3275 346.25225) scale(0.1 -0.1)">
       <defs>
        <path id="DejaVuSans-35" d="M 691 4666 
L 3169 4666 
L 3169 4134 
L 1269 4134 
L 1269 2991 
Q 1406 3038 1543 3061 
Q 1681 3084 1819 3084 
Q 2600 3084 3056 2656 
Q 3513 2228 3513 1497 
Q 3513 744 3044 326 
Q 2575 -91 1722 -91 
Q 1428 -91 1123 -41 
Q 819 9 494 109 
L 494 744 
Q 775 591 1075 516 
Q 1375 441 1709 441 
Q 2250 441 2565 725 
Q 2881 1009 2881 1497 
Q 2881 1984 2565 2268 
Q 2250 2553 1709 2553 
Q 1456 2553 1204 2497 
Q 953 2441 691 2322 
L 691 4666 
z
" transform="scale(0.015625)"/>
       </defs>
       <use xlink:href="#DejaVuSans-35"/>
       <use xlink:href="#DejaVuSans-30" transform="translate(63.623047 0)"/>
      </g>
     </g>
    </g>
    <g id="xtick_4">
     <g id="line2d_4">
      <g>
       <use xlink:href="#m777209c240" x="311.694" y="320.456" style="stroke: #000000; stroke-width: 0.8"/>
      </g>
     </g>
     <g id="text_4">
      <!-- Target -->
      <g transform="translate(296.222125 335.054438) scale(0.1 -0.1)">
       <use xlink:href="#DejaVuSans-54"/>
       <use xlink:href="#DejaVuSans-61" transform="translate(44.583984 0)"/>
       <use xlink:href="#DejaVuSans-72" transform="translate(105.863281 0)"/>
       <use xlink:href="#DejaVuSans-67" transform="translate(145.226562 0)"/>
       <use xlink:href="#DejaVuSans-65" transform="translate(208.703125 0)"/>
       <use xlink:href="#DejaVuSans-74" transform="translate(270.226562 0)"/>
      </g>
      <!-- 70 -->
      <g transform="translate(305.3315 346.25225) scale(0.1 -0.1)">
       <defs>
        <path id="DejaVuSans-37" d="M 525 4666 
L 3525 4666 
L 3525 4397 
L 1831 0 
L 1172 0 
L 2766 4134 
L 525 4134 
L 525 4666 
z
" transform="scale(0.015625)"/>
       </defs>
       <use xlink:href="#DejaVuSans-37"/>
       <use xlink:href="#DejaVuSans-30" transform="translate(63.623047 0)"/>
      </g>
     </g>
    </g>
    <g id="xtick_5">
     <g id="line2d_5">
      <g>
       <use xlink:href="#m777209c240" x="384.698" y="320.456" style="stroke: #000000; stroke-width: 0.8"/>
      </g>
     </g>
     <g id="text_5">
      <!-- Natural -->
      <g transform="translate(366.255813 335.054438) scale(0.1 -0.1)">
       <defs>
        <path id="DejaVuSans-4e" d="M 628 4666 
L 1478 4666 
L 3547 763 
L 3547 4666 
L 4159 4666 
L 4159 0 
L 3309 0 
L 1241 3903 
L 1241 0 
L 628 0 
L 628 4666 
z
" transform="scale(0.015625)"/>
        <path id="DejaVuSans-75" d="M 544 1381 
L 544 3500 
L 1119 3500 
L 1119 1403 
Q 1119 906 1312 657 
Q 1506 409 1894 409 
Q 2359 409 2629 706 
Q 2900 1003 2900 1516 
L 2900 3500 
L 3475 3500 
L 3475 0 
L 2900 0 
L 2900 538 
Q 2691 219 2414 64 
Q 2138 -91 1772 -91 
Q 1169 -91 856 284 
Q 544 659 544 1381 
z
M 1991 3584 
L 1991 3584 
z
" transform="scale(0.015625)"/>
        <path id="DejaVuSans-6c" d="M 603 4863 
L 1178 4863 
L 1178 0 
L 603 0 
L 603 4863 
z
" transform="scale(0.015625)"/>
       </defs>
       <use xlink:href="#DejaVuSans-4e"/>
       <use xlink:href="#DejaVuSans-61" transform="translate(74.804688 0)"/>
       <use xlink:href="#DejaVuSans-74" transform="translate(136.083984 0)"/>
       <use xlink:href="#DejaVuSans-75" transform="translate(175.292969 0)"/>
       <use xlink:href="#DejaVuSans-72" transform="translate(238.671875 0)"/>
       <use xlink:href="#DejaVuSans-61" transform="translate(279.785156 0)"/>
       <use xlink:href="#DejaVuSans-6c" transform="translate(341.064453 0)"/>
      </g>
      <!-- dots -->
      <g transform="translate(373.899563 346.25225) scale(0.1 -0.1)">
       <defs>
        <path id="DejaVuSans-64" d="M 2906 2969 
L 2906 4863 
L 3481 4863 
L 3481 0 
L 2906 0 
L 2906 525 
Q 2725 213 2448 61 
Q 2172 -91 1784 -91 
Q 1150 -91 751 415 
Q 353 922 353 1747 
Q 353 2572 751 3078 
Q 1150 3584 1784 3584 
Q 2172 3584 2448 3432 
Q 2725 3281 2906 2969 
z
M 947 1747 
Q 947 1113 1208 752 
Q 1469 391 1925 391 
Q 2381 391 2643 752 
Q 2906 1113 2906 1747 
Q 2906 2381 2643 2742 
Q 2381 3103 1925 3103 
Q 1469 3103 1208 2742 
Q 947 2381 947 1747 
z
" transform="scale(0.015625)"/>
        <path id="DejaVuSans-73" d="M 2834 3397 
L 2834 2853 
Q 2591 2978 2328 3040 
Q 2066 3103 1784 3103 
Q 1356 3103 1142 2972 
Q 928 2841 928 2578 
Q 928 2378 1081 2264 
Q 1234 2150 1697 2047 
L 1894 2003 
Q 2506 1872 2764 1633 
Q 3022 1394 3022 966 
Q 3022 478 2636 193 
Q 2250 -91 1575 -91 
Q 1294 -91 989 -36 
Q 684 19 347 128 
L 347 722 
Q 666 556 975 473 
Q 1284 391 1588 391 
Q 1994 391 2212 530 
Q 2431 669 2431 922 
Q 2431 1156 2273 1281 
Q 2116 1406 1581 1522 
L 1381 1569 
Q 847 1681 609 1914 
Q 372 2147 372 2553 
Q 372 3047 722 3315 
Q 1072 3584 1716 3584 
Q 2034 3584 2315 3537 
Q 2597 3491 2834 3397 
z
" transform="scale(0.015625)"/>
       </defs>
       <use xlink:href="#DejaVuSans-64"/>
       <use xlink:href="#DejaVuSans-6f" transform="translate(63.476562 0)"/>
       <use xlink:href="#DejaVuSans-74" transform="translate(124.658203 0)"/>
       <use xlink:href="#DejaVuSans-73" transform="translate(163.867188 0)"/>
      </g>
     </g>
    </g>
   </g>
   <g id="matplotlib.axis_2">
    <g id="ytick_1">
     <g id="line2d_6">
      <defs>
       <path id="m4e294f8dc7" d="M 0 0 
L -3.5 0 
" style="stroke: #000000; stroke-width: 0.8"/>
      </defs>
      <g>
       <use xlink:href="#m4e294f8dc7" x="56.18" y="304.889241" style="stroke: #000000; stroke-width: 0.8"/>
      </g>
     </g>
     <g id="text_6">
      <!-- −1.0 -->
      <g transform="translate(24.897187 308.68846) scale(0.1 -0.1)">
       <defs>
        <path id="DejaVuSans-2212" d="M 678 2272 
L 4684 2272 
L 4684 1741 
L 678 1741 
L 678 2272 
z
" transform="scale(0.015625)"/>
        <path id="DejaVuSans-31" d="M 794 531 
L 1825 531 
L 1825 4091 
L 703 3866 
L 703 4441 
L 1819 4666 
L 2450 4666 
L 2450 531 
L 3481 531 
L 3481 0 
L 794 0 
L 794 531 
z
" transform="scale(0.015625)"/>
        <path id="DejaVuSans-2e" d="M 684 794 
L 1344 794 
L 1344 0 
L 684 0 
L 684 794 
z
" transform="scale(0.015625)"/>
       </defs>
       <use xlink:href="#DejaVuSans-2212"/>
       <use xlink:href="#DejaVuSans-31" transform="translate(83.789062 0)"/>
       <use xlink:href="#DejaVuSans-2e" transform="translate(147.412109 0)"/>
       <use xlink:href="#DejaVuSans-30" transform="translate(179.199219 0)"/>
      </g>
     </g>
    </g>
    <g id="ytick_2">
     <g id="line2d_7">
      <g>
       <use xlink:href="#m4e294f8dc7" x="56.18" y="258.099808" style="stroke: #000000; stroke-width: 0.8"/>
      </g>
     </g>
     <g id="text_7">
      <!-- −0.5 -->
      <g transform="translate(24.897187 261.899027) scale(0.1 -0.1)">
       <use xlink:href="#DejaVuSans-2212"/>
       <use xlink:href="#DejaVuSans-30" transform="translate(83.789062 0)"/>
       <use xlink:href="#DejaVuSans-2e" transform="translate(147.412109 0)"/>
       <use xlink:href="#DejaVuSans-35" transform="translate(179.199219 0)"/>
      </g>
     </g>
    </g>
    <g id="ytick_3">
     <g id="line2d_8">
      <g>
       <use xlink:href="#m4e294f8dc7" x="56.18" y="211.310375" style="stroke: #000000; stroke-width: 0.8"/>
      </g>
     </g>
     <g id="text_8">
      <!-- 0.0 -->
      <g transform="translate(33.276875 215.109594) scale(0.1 -0.1)">
       <use xlink:href="#DejaVuSans-30"/>
       <use xlink:href="#DejaVuSans-2e" transform="translate(63.623047 0)"/>
       <use xlink:href="#DejaVuSans-30" transform="translate(95.410156 0)"/>
      </g>
     </g>
    </g>
    <g id="ytick_4">
     <g id="line2d_9">
      <g>
       <use xlink:href="#m4e294f8dc7" x="56.18" y="164.520942" style="stroke: #000000; stroke-width: 0.8"/>
      </g>
     </g>
     <g id="text_9">
      <!-- 0.5 -->
      <g transform="translate(33.276875 168.320161) scale(0.1 -0.1)">
       <use xlink:href="#DejaVuSans-30"/>
       <use xlink:href="#DejaVuSans-2e" transform="translate(63.623047 0)"/>
       <use xlink:href="#DejaVuSans-35" transform="translate(95.410156 0)"/>
      </g>
     </g>
    </g>
    <g id="ytick_5">
     <g id="line2d_10">
      <g>
       <use xlink:href="#m4e294f8dc7" x="56.18" y="117.731509" style="stroke: #000000; stroke-width: 0.8"/>
      </g>
     </g>
     <g id="text_10">
      <!-- 1.0 -->
      <g transform="translate(33.276875 121.530728) scale(0.1 -0.1)">
       <use xlink:href="#DejaVuSans-31"/>
       <use xlink:href="#DejaVuSans-2e" transform="translate(63.623047 0)"/>
       <use xlink:href="#DejaVuSans-30" transform="translate(95.410156 0)"/>
      </g>
     </g>
    </g>
    <g id="ytick_6">
     <g id="line2d_11">
      <g>
       <use xlink:href="#m4e294f8dc7" x="56.18" y="70.942077" style="stroke: #000000; stroke-width: 0.8"/>
      </g>
     </g>
     <g id="text_11">
      <!-- 1.5 -->
      <g transform="translate(33.276875 74.741295) scale(0.1 -0.1)">
       <use xlink:href="#DejaVuSans-31"/>
       <use xlink:href="#DejaVuSans-2e" transform="translate(63.623047 0)"/>
       <use xlink:href="#DejaVuSans-35" transform="translate(95.410156 0)"/>
      </g>
     </g>
    </g>
    <g id="ytick_7">
     <g id="line2d_12">
      <g>
       <use xlink:href="#m4e294f8dc7" x="56.18" y="24.152644" style="stroke: #000000; stroke-width: 0.8"/>
      </g>
     </g>
     <g id="text_12">
      <!-- 2.0 -->
      <g transform="translate(33.276875 27.951862) scale(0.1 -0.1)">
       <defs>
        <path id="DejaVuSans-32" d="M 1228 531 
L 3431 531 
L 3431 0 
L 469 0 
L 469 531 
Q 828 903 1448 1529 
Q 2069 2156 2228 2338 
Q 2531 2678 2651 2914 
Q 2772 3150 2772 3378 
Q 2772 3750 2511 3984 
Q 2250 4219 1831 4219 
Q 1534 4219 1204 4116 
Q 875 4013 500 3803 
L 500 4441 
Q 881 4594 1212 4672 
Q 1544 4750 1819 4750 
Q 2544 4750 2975 4387 
Q 3406 4025 3406 3419 
Q 3406 3131 3298 2873 
Q 3191 2616 2906 2266 
Q 2828 2175 2409 1742 
Q 1991 1309 1228 531 
z
" transform="scale(0.015625)"/>
       </defs>
       <use xlink:href="#DejaVuSans-32"/>
       <use xlink:href="#DejaVuSans-2e" transform="translate(63.623047 0)"/>
       <use xlink:href="#DejaVuSans-30" transform="translate(95.410156 0)"/>
      </g>
     </g>
    </g>
    <g id="text_13">
     <!-- Dot score -->
     <g transform="translate(18.8175 189.519406) rotate(-90) scale(0.1 -0.1)">
      <defs>
       <path id="DejaVuSans-44" d="M 1259 4147 
L 1259 519 
L 2022 519 
Q 2988 519 3436 956 
Q 3884 1394 3884 2338 
Q 3884 3275 3436 3711 
Q 2988 4147 2022 4147 
L 1259 4147 
z
M 628 4666 
L 1925 4666 
Q 3281 4666 3915 4102 
Q 4550 3538 4550 2338 
Q 4550 1131 3912 565 
Q 3275 0 1925 0 
L 628 0 
L 628 4666 
z
" transform="scale(0.015625)"/>
       <path id="DejaVuSans-20" transform="scale(0.015625)"/>
       <path id="DejaVuSans-63" d="M 3122 3366 
L 3122 2828 
Q 2878 2963 2633 3030 
Q 2388 3097 2138 3097 
Q 1578 3097 1268 2742 
Q 959 2388 959 1747 
Q 959 1106 1268 751 
Q 1578 397 2138 397 
Q 2388 397 2633 464 
Q 2878 531 3122 666 
L 3122 134 
Q 2881 22 2623 -34 
Q 2366 -91 2075 -91 
Q 1284 -91 818 406 
Q 353 903 353 1747 
Q 353 2603 823 3093 
Q 1294 3584 2113 3584 
Q 2378 3584 2631 3529 
Q 2884 3475 3122 3366 
z
" transform="scale(0.015625)"/>
      </defs>
      <use xlink:href="#DejaVuSans-44"/>
      <use xlink:href="#DejaVuSans-6f" transform="translate(77.001953 0)"/>
      <use xlink:href="#DejaVuSans-74" transform="translate(138.183594 0)"/>
      <use xlink:href="#DejaVuSans-20" transform="translate(177.392578 0)"/>
      <use xlink:href="#DejaVuSans-73" transform="translate(209.179688 0)"/>
      <use xlink:href="#DejaVuSans-63" transform="translate(261.279297 0)"/>
      <use xlink:href="#DejaVuSans-6f" transform="translate(316.259766 0)"/>
      <use xlink:href="#DejaVuSans-72" transform="translate(377.441406 0)"/>
      <use xlink:href="#DejaVuSans-65" transform="translate(416.304688 0)"/>
     </g>
    </g>
   </g>
   <g id="patch_3">
    <path d="M 63.4804 217.414324 
L 121.8836 217.414324 
L 121.8836 212.850207 
L 63.4804 212.850207 
L 63.4804 217.414324 
z
" clip-path="url(#pa267014e52)" style="fill: #3274a1; stroke: #3f3f3f; stroke-linejoin: miter"/>
   </g>
   <g id="line2d_13">
    <path d="M 92.682 217.414324 
L 92.682 224.078731 
" clip-path="url(#pa267014e52)" style="fill: none; stroke: #3f3f3f"/>
   </g>
   <g id="line2d_14">
    <path d="M 92.682 212.850207 
L 92.682 206.038944 
" clip-path="url(#pa267014e52)" style="fill: none; stroke: #3f3f3f"/>
   </g>
   <g id="line2d_15">
    <path d="M 78.0812 224.078731 
L 107.2828 224.078731 
" clip-path="url(#pa267014e52)" style="fill: none; stroke: #3f3f3f; stroke-linecap: square"/>
   </g>
   <g id="line2d_16">
    <path d="M 78.0812 206.038944 
L 107.2828 206.038944 
" clip-path="url(#pa267014e52)" style="fill: none; stroke: #3f3f3f; stroke-linecap: square"/>
   </g>
   <g id="line2d_17">
    <defs>
     <path id="m4ed6ee0369" d="M 0 3 
C 0.795609 3 1.55874 2.683901 2.12132 2.12132 
C 2.683901 1.55874 3 0.795609 3 0 
C 3 -0.795609 2.683901 -1.55874 2.12132 -2.12132 
C 1.55874 -2.683901 0.795609 -3 0 -3 
C -0.795609 -3 -1.55874 -2.683901 -2.12132 -2.12132 
C -2.683901 -1.55874 -3 -0.795609 -3 0 
C -3 0.795609 -2.683901 1.55874 -2.12132 2.12132 
C -1.55874 2.683901 -0.795609 3 0 3 
z
" style="stroke: #3f3f3f"/>
    </defs>
    <g clip-path="url(#pa267014e52)">
     <use xlink:href="#m4ed6ee0369" x="92.682" y="225.800762" style="fill-opacity: 0; stroke: #3f3f3f"/>
     <use xlink:href="#m4ed6ee0369" x="92.682" y="224.716527" style="fill-opacity: 0; stroke: #3f3f3f"/>
     <use xlink:href="#m4ed6ee0369" x="92.682" y="224.471479" style="fill-opacity: 0; stroke: #3f3f3f"/>
    </g>
   </g>
   <g id="patch_4">
    <path d="M 136.4844 166.072138 
L 194.8876 166.072138 
L 194.8876 162.547869 
L 136.4844 162.547869 
L 136.4844 166.072138 
z
" clip-path="url(#pa267014e52)" style="fill: #3274a1; stroke: #3f3f3f; stroke-linejoin: miter"/>
   </g>
   <g id="line2d_18">
    <path d="M 165.686 166.072138 
L 165.686 171.108418 
" clip-path="url(#pa267014e52)" style="fill: none; stroke: #3f3f3f"/>
   </g>
   <g id="line2d_19">
    <path d="M 165.686 162.547869 
L 165.686 157.987507 
" clip-path="url(#pa267014e52)" style="fill: none; stroke: #3f3f3f"/>
   </g>
   <g id="line2d_20">
    <path d="M 151.0852 171.108418 
L 180.2868 171.108418 
" clip-path="url(#pa267014e52)" style="fill: none; stroke: #3f3f3f; stroke-linecap: square"/>
   </g>
   <g id="line2d_21">
    <path d="M 151.0852 157.987507 
L 180.2868 157.987507 
" clip-path="url(#pa267014e52)" style="fill: none; stroke: #3f3f3f; stroke-linecap: square"/>
   </g>
   <g id="line2d_22">
    <g clip-path="url(#pa267014e52)">
     <use xlink:href="#m4ed6ee0369" x="165.686" y="174.498353" style="fill-opacity: 0; stroke: #3f3f3f"/>
     <use xlink:href="#m4ed6ee0369" x="165.686" y="173.186762" style="fill-opacity: 0; stroke: #3f3f3f"/>
     <use xlink:href="#m4ed6ee0369" x="165.686" y="220.030015" style="fill-opacity: 0; stroke: #3f3f3f"/>
     <use xlink:href="#m4ed6ee0369" x="165.686" y="172.047613" style="fill-opacity: 0; stroke: #3f3f3f"/>
     <use xlink:href="#m4ed6ee0369" x="165.686" y="180.834554" style="fill-opacity: 0; stroke: #3f3f3f"/>
    </g>
   </g>
   <g id="patch_5">
    <path d="M 209.4884 163.405772 
L 267.8916 163.405772 
L 267.8916 159.592372 
L 209.4884 159.592372 
L 209.4884 163.405772 
z
" clip-path="url(#pa267014e52)" style="fill: #3274a1; stroke: #3f3f3f; stroke-linejoin: miter"/>
   </g>
   <g id="line2d_23">
    <path d="M 238.69 163.405772 
L 238.69 169.01634 
" clip-path="url(#pa267014e52)" style="fill: none; stroke: #3f3f3f"/>
   </g>
   <g id="line2d_24">
    <path d="M 238.69 159.592372 
L 238.69 154.938935 
" clip-path="url(#pa267014e52)" style="fill: none; stroke: #3f3f3f"/>
   </g>
   <g id="line2d_25">
    <path d="M 224.0892 169.01634 
L 253.2908 169.01634 
" clip-path="url(#pa267014e52)" style="fill: none; stroke: #3f3f3f; stroke-linecap: square"/>
   </g>
   <g id="line2d_26">
    <path d="M 224.0892 154.938935 
L 253.2908 154.938935 
" clip-path="url(#pa267014e52)" style="fill: none; stroke: #3f3f3f; stroke-linecap: square"/>
   </g>
   <g id="line2d_27">
    <g clip-path="url(#pa267014e52)">
     <use xlink:href="#m4ed6ee0369" x="238.69" y="171.692281" style="fill-opacity: 0; stroke: #3f3f3f"/>
     <use xlink:href="#m4ed6ee0369" x="238.69" y="195.804411" style="fill-opacity: 0; stroke: #3f3f3f"/>
     <use xlink:href="#m4ed6ee0369" x="238.69" y="169.990104" style="fill-opacity: 0; stroke: #3f3f3f"/>
     <use xlink:href="#m4ed6ee0369" x="238.69" y="169.911519" style="fill-opacity: 0; stroke: #3f3f3f"/>
     <use xlink:href="#m4ed6ee0369" x="238.69" y="182.63018" style="fill-opacity: 0; stroke: #3f3f3f"/>
     <use xlink:href="#m4ed6ee0369" x="238.69" y="174.41761" style="fill-opacity: 0; stroke: #3f3f3f"/>
     <use xlink:href="#m4ed6ee0369" x="238.69" y="171.903783" style="fill-opacity: 0; stroke: #3f3f3f"/>
     <use xlink:href="#m4ed6ee0369" x="238.69" y="190.473766" style="fill-opacity: 0; stroke: #3f3f3f"/>
     <use xlink:href="#m4ed6ee0369" x="238.69" y="177.790444" style="fill-opacity: 0; stroke: #3f3f3f"/>
    </g>
   </g>
   <g id="patch_6">
    <path d="M 282.4924 162.47758 
L 340.8956 162.47758 
L 340.8956 159.324091 
L 282.4924 159.324091 
L 282.4924 162.47758 
z
" clip-path="url(#pa267014e52)" style="fill: #3274a1; stroke: #3f3f3f; stroke-linejoin: miter"/>
   </g>
   <g id="line2d_28">
    <path d="M 311.694 162.47758 
L 311.694 166.633557 
" clip-path="url(#pa267014e52)" style="fill: none; stroke: #3f3f3f"/>
   </g>
   <g id="line2d_29">
    <path d="M 311.694 159.324091 
L 311.694 155.251857 
" clip-path="url(#pa267014e52)" style="fill: none; stroke: #3f3f3f"/>
   </g>
   <g id="line2d_30">
    <path d="M 297.0932 166.633557 
L 326.2948 166.633557 
" clip-path="url(#pa267014e52)" style="fill: none; stroke: #3f3f3f; stroke-linecap: square"/>
   </g>
   <g id="line2d_31">
    <path d="M 297.0932 155.251857 
L 326.2948 155.251857 
" clip-path="url(#pa267014e52)" style="fill: none; stroke: #3f3f3f; stroke-linecap: square"/>
   </g>
   <g id="line2d_32">
    <g clip-path="url(#pa267014e52)">
     <use xlink:href="#m4ed6ee0369" x="311.694" y="167.264399" style="fill-opacity: 0; stroke: #3f3f3f"/>
     <use xlink:href="#m4ed6ee0369" x="311.694" y="185.710161" style="fill-opacity: 0; stroke: #3f3f3f"/>
     <use xlink:href="#m4ed6ee0369" x="311.694" y="168.670766" style="fill-opacity: 0; stroke: #3f3f3f"/>
     <use xlink:href="#m4ed6ee0369" x="311.694" y="167.241212" style="fill-opacity: 0; stroke: #3f3f3f"/>
     <use xlink:href="#m4ed6ee0369" x="311.694" y="201.757192" style="fill-opacity: 0; stroke: #3f3f3f"/>
     <use xlink:href="#m4ed6ee0369" x="311.694" y="168.796932" style="fill-opacity: 0; stroke: #3f3f3f"/>
     <use xlink:href="#m4ed6ee0369" x="311.694" y="197.762944" style="fill-opacity: 0; stroke: #3f3f3f"/>
     <use xlink:href="#m4ed6ee0369" x="311.694" y="201.831878" style="fill-opacity: 0; stroke: #3f3f3f"/>
     <use xlink:href="#m4ed6ee0369" x="311.694" y="186.744588" style="fill-opacity: 0; stroke: #3f3f3f"/>
     <use xlink:href="#m4ed6ee0369" x="311.694" y="170.073042" style="fill-opacity: 0; stroke: #3f3f3f"/>
     <use xlink:href="#m4ed6ee0369" x="311.694" y="201.419026" style="fill-opacity: 0; stroke: #3f3f3f"/>
    </g>
   </g>
   <g id="patch_7">
    <path d="M 355.4964 168.702021 
L 413.8996 168.702021 
L 413.8996 121.59461 
L 355.4964 121.59461 
L 355.4964 168.702021 
z
" clip-path="url(#pa267014e52)" style="fill: #3274a1; stroke: #3f3f3f; stroke-linejoin: miter"/>
   </g>
   <g id="line2d_33">
    <path d="M 384.698 168.702021 
L 384.698 239.31345 
" clip-path="url(#pa267014e52)" style="fill: none; stroke: #3f3f3f"/>
   </g>
   <g id="line2d_34">
    <path d="M 384.698 121.59461 
L 384.698 51.070681 
" clip-path="url(#pa267014e52)" style="fill: none; stroke: #3f3f3f"/>
   </g>
   <g id="line2d_35">
    <path d="M 370.0972 239.31345 
L 399.2988 239.31345 
" clip-path="url(#pa267014e52)" style="fill: none; stroke: #3f3f3f; stroke-linecap: square"/>
   </g>
   <g id="line2d_36">
    <path d="M 370.0972 51.070681 
L 399.2988 51.070681 
" clip-path="url(#pa267014e52)" style="fill: none; stroke: #3f3f3f; stroke-linecap: square"/>
   </g>
   <g id="line2d_37">
    <g clip-path="url(#pa267014e52)">
     <use xlink:href="#m4ed6ee0369" x="384.698" y="246.091859" style="fill-opacity: 0; stroke: #3f3f3f"/>
     <use xlink:href="#m4ed6ee0369" x="384.698" y="241.121517" style="fill-opacity: 0; stroke: #3f3f3f"/>
     <use xlink:href="#m4ed6ee0369" x="384.698" y="247.116037" style="fill-opacity: 0; stroke: #3f3f3f"/>
     <use xlink:href="#m4ed6ee0369" x="384.698" y="239.473952" style="fill-opacity: 0; stroke: #3f3f3f"/>
     <use xlink:href="#m4ed6ee0369" x="384.698" y="257.462351" style="fill-opacity: 0; stroke: #3f3f3f"/>
     <use xlink:href="#m4ed6ee0369" x="384.698" y="242.11917" style="fill-opacity: 0; stroke: #3f3f3f"/>
     <use xlink:href="#m4ed6ee0369" x="384.698" y="241.414086" style="fill-opacity: 0; stroke: #3f3f3f"/>
     <use xlink:href="#m4ed6ee0369" x="384.698" y="239.935284" style="fill-opacity: 0; stroke: #3f3f3f"/>
     <use xlink:href="#m4ed6ee0369" x="384.698" y="242.833904" style="fill-opacity: 0; stroke: #3f3f3f"/>
     <use xlink:href="#m4ed6ee0369" x="384.698" y="245.338037" style="fill-opacity: 0; stroke: #3f3f3f"/>
     <use xlink:href="#m4ed6ee0369" x="384.698" y="243.297545" style="fill-opacity: 0; stroke: #3f3f3f"/>
     <use xlink:href="#m4ed6ee0369" x="384.698" y="254.022422" style="fill-opacity: 0; stroke: #3f3f3f"/>
     <use xlink:href="#m4ed6ee0369" x="384.698" y="257.076645" style="fill-opacity: 0; stroke: #3f3f3f"/>
     <use xlink:href="#m4ed6ee0369" x="384.698" y="306.380727" style="fill-opacity: 0; stroke: #3f3f3f"/>
     <use xlink:href="#m4ed6ee0369" x="384.698" y="37.193834" style="fill-opacity: 0; stroke: #3f3f3f"/>
     <use xlink:href="#m4ed6ee0369" x="384.698" y="34.471454" style="fill-opacity: 0; stroke: #3f3f3f"/>
     <use xlink:href="#m4ed6ee0369" x="384.698" y="30.166078" style="fill-opacity: 0; stroke: #3f3f3f"/>
     <use xlink:href="#m4ed6ee0369" x="384.698" y="39.093276" style="fill-opacity: 0; stroke: #3f3f3f"/>
     <use xlink:href="#m4ed6ee0369" x="384.698" y="47.291297" style="fill-opacity: 0; stroke: #3f3f3f"/>
     <use xlink:href="#m4ed6ee0369" x="384.698" y="48.090219" style="fill-opacity: 0; stroke: #3f3f3f"/>
     <use xlink:href="#m4ed6ee0369" x="384.698" y="49.663943" style="fill-opacity: 0; stroke: #3f3f3f"/>
     <use xlink:href="#m4ed6ee0369" x="384.698" y="42.274102" style="fill-opacity: 0; stroke: #3f3f3f"/>
     <use xlink:href="#m4ed6ee0369" x="384.698" y="37.139351" style="fill-opacity: 0; stroke: #3f3f3f"/>
     <use xlink:href="#m4ed6ee0369" x="384.698" y="43.191539" style="fill-opacity: 0; stroke: #3f3f3f"/>
     <use xlink:href="#m4ed6ee0369" x="384.698" y="38.213154" style="fill-opacity: 0; stroke: #3f3f3f"/>
     <use xlink:href="#m4ed6ee0369" x="384.698" y="49.155466" style="fill-opacity: 0; stroke: #3f3f3f"/>
     <use xlink:href="#m4ed6ee0369" x="384.698" y="35.188728" style="fill-opacity: 0; stroke: #3f3f3f"/>
     <use xlink:href="#m4ed6ee0369" x="384.698" y="24.875273" style="fill-opacity: 0; stroke: #3f3f3f"/>
     <use xlink:href="#m4ed6ee0369" x="384.698" y="43.545279" style="fill-opacity: 0; stroke: #3f3f3f"/>
     <use xlink:href="#m4ed6ee0369" x="384.698" y="47.209305" style="fill-opacity: 0; stroke: #3f3f3f"/>
     <use xlink:href="#m4ed6ee0369" x="384.698" y="37.329463" style="fill-opacity: 0; stroke: #3f3f3f"/>
     <use xlink:href="#m4ed6ee0369" x="384.698" y="45.733403" style="fill-opacity: 0; stroke: #3f3f3f"/>
     <use xlink:href="#m4ed6ee0369" x="384.698" y="37.499494" style="fill-opacity: 0; stroke: #3f3f3f"/>
     <use xlink:href="#m4ed6ee0369" x="384.698" y="44.713748" style="fill-opacity: 0; stroke: #3f3f3f"/>
     <use xlink:href="#m4ed6ee0369" x="384.698" y="48.801313" style="fill-opacity: 0; stroke: #3f3f3f"/>
     <use xlink:href="#m4ed6ee0369" x="384.698" y="48.989249" style="fill-opacity: 0; stroke: #3f3f3f"/>
     <use xlink:href="#m4ed6ee0369" x="384.698" y="43.970626" style="fill-opacity: 0; stroke: #3f3f3f"/>
     <use xlink:href="#m4ed6ee0369" x="384.698" y="49.844595" style="fill-opacity: 0; stroke: #3f3f3f"/>
     <use xlink:href="#m4ed6ee0369" x="384.698" y="42.700788" style="fill-opacity: 0; stroke: #3f3f3f"/>
    </g>
   </g>
   <g id="line2d_38">
    <path d="M 63.4804 215.077884 
L 121.8836 215.077884 
" clip-path="url(#pa267014e52)" style="fill: none; stroke: #3f3f3f"/>
   </g>
   <g id="line2d_39">
    <path d="M 136.4844 164.496282 
L 194.8876 164.496282 
" clip-path="url(#pa267014e52)" style="fill: none; stroke: #3f3f3f"/>
   </g>
   <g id="line2d_40">
    <path d="M 209.4884 160.931257 
L 267.8916 160.931257 
" clip-path="url(#pa267014e52)" style="fill: none; stroke: #3f3f3f"/>
   </g>
   <g id="line2d_41">
    <path d="M 282.4924 160.766128 
L 340.8956 160.766128 
" clip-path="url(#pa267014e52)" style="fill: none; stroke: #3f3f3f"/>
   </g>
   <g id="line2d_42">
    <path d="M 355.4964 147.053032 
L 413.8996 147.053032 
" clip-path="url(#pa267014e52)" style="fill: none; stroke: #3f3f3f"/>
   </g>
   <g id="patch_8">
    <path d="M 56.18 320.456 
L 56.18 10.8 
" style="fill: none; stroke: #000000; stroke-width: 0.8; stroke-linejoin: miter; stroke-linecap: square"/>
   </g>
   <g id="patch_9">
    <path d="M 421.2 320.456 
L 421.2 10.8 
" style="fill: none; stroke: #000000; stroke-width: 0.8; stroke-linejoin: miter; stroke-linecap: square"/>
   </g>
   <g id="patch_10">
    <path d="M 56.18 320.456 
L 421.2 320.456 
" style="fill: none; stroke: #000000; stroke-width: 0.8; stroke-linejoin: miter; stroke-linecap: square"/>
   </g>
   <g id="patch_11">
    <path d="M 56.18 10.8 
L 421.2 10.8 
" style="fill: none; stroke: #000000; stroke-width: 0.8; stroke-linejoin: miter; stroke-linecap: square"/>
   </g>
  </g>
 </g>
 <defs>
  <clipPath id="pa267014e52">
   <rect x="56.18" y="10.8" width="365.02" height="309.656"/>
  </clipPath>
 </defs>
</svg>
