<?xml version="1.0" encoding="utf-8" standalone="no"?>
<!DOCTYPE svg PUBLIC "-//W3C//DTD SVG 1.1//EN"
  "http://www.w3.org/Graphics/SVG/1.1/DTD/svg11.dtd">
<svg xmlns:xlink="http://www.w3.org/1999/xlink" width="565.682771pt" height="425.725313pt" viewBox="0 0 565.682771 425.725313" xmlns="http://www.w3.org/2000/svg" version="1.1">
 <metadata>
  <rdf:RDF xmlns:dc="http://purl.org/dc/elements/1.1/" xmlns:cc="http://creativecommons.org/ns#" xmlns:rdf="http://www.w3.org/1999/02/22-rdf-syntax-ns#">
   <cc:Work>
    <dc:type rdf:resource="http://purl.org/dc/dcmitype/StillImage"/>
    <dc:date>2026-03-27T12:10:14.003518</dc:date>
    <dc:format>image/svg+xml</dc:format>
    <dc:creator>
     <cc:Agent>
      <dc:title>Matplotlib v3.10.8, https://matplotlib.org/</dc:title>
     </cc:Agent>
    </dc:creator>
   </cc:Work>
  </rdf:RDF>
 </metadata>
 <defs>
  <style type="text/css">*{stroke-linejoin: round; stroke-linecap: butt}</style>
 </defs>
 <g id="figure_1">
  <g id="patch_1">
   <path d="M 0 425.725313 
L 565.682771 425.725313 
L 565.682771 0 
L 0 0 
z
" style="fill: #ffffff"/>
  </g>
  <g id="axes_1">
   <g id="patch_2">
    <path d="M 41.570938 387.20125 
L 552.981847 387.20125 
L 552.981847 35.84925 
L 41.570938 35.84925 
z
" style="fill: #ffffff"/>
   </g>
   <g id="matplotlib.axis_1">
    <g id="xtick_1">
     <g id="line2d_1">
      <path d="M 96.575482 387.20125 
L 96.575482 35.84925 
" clip-path="url(#p5ed95ca168)" style="fill: none; stroke: #b0b0b0; stroke-opacity: 0.2; stroke-width: 0.8; stroke-linecap: square"/>
     </g>
     <g id="line2d_2">
      <defs>
       <path id="m5946572ad4" d="M 0 0 
L 0 3.5 
" style="stroke: #000000; stroke-width: 0.8"/>
      </defs>
      <g>
       <use xlink:href="#m5946572ad4" x="96.575482" y="387.20125" style="stroke: #000000; stroke-width: 0.8"/>
      </g>
     </g>
     <g id="text_1">
      <!-- −7.5 -->
      <g transform="translate(84.434075 401.799688) scale(0.1 -0.1)">
       <defs>
        <path id="DejaVuSans-2212" d="M 678 2272 
L 4684 2272 
L 4684 1741 
L 678 1741 
L 678 2272 
z
" transform="scale(0.015625)"/>
        <path id="DejaVuSans-37" d="M 525 4666 
L 3525 4666 
L 3525 4397 
L 1831 0 
L 1172 0 
L 2766 4134 
L 525 4134 
L 525 4666 
z
" transform="scale(0.015625)"/>
        <path id="DejaVuSans-2e" d="M 684 794 
L 1344 794 
L 1344 0 
L 684 0 
L 684 794 
z
" transform="scale(0.015625)"/>
        <path id="DejaVuSans-35" d="M 691 4666 
L 3169 4666 
L 3169 4134 
L 1269 4134 
L 1269 2991 
Q 1406 3038 1543 3061 
Q 1681 3084 1819 3084 
Q 2600 3084 3056 2656 
Q 3513 2228 3513 1497 
Q 3513 744 3044 326 
Q 2575 -91 1722 -91 
Q 1428 -91 1123 -41 
Q 819 9 494 109 
L 494 744 
Q 775 591 1075 516 
Q 1375 441 1709 441 
Q 2250 441 2565 725 
Q 2881 1009 2881 1497 
Q 2881 1984 2565 2268 
Q 2250 2553 1709 2553 
Q 1456 2553 1204 2497 
Q 953 2441 691 2322 
L 691 4666 
z
" transform="scale(0.015625)"/>
       </defs>
       <use xlink:href="#DejaVuSans-2212"/>
       <use xlink:href="#DejaVuSans-37" transform="translate(83.789062 0)"/>
       <use xlink:href="#DejaVuSans-2e" transform="translate(147.412109 0)"/>
       <use xlink:href="#DejaVuSans-35" transform="translate(179.199219 0)"/>
      </g>
     </g>
    </g>
    <g id="xtick_2">
     <g id="line2d_3">
      <path d="M 162.47981 387.20125 
L 162.47981 35.84925 
" clip-path="url(#p5ed95ca168)" style="fill: none; stroke: #b0b0b0; stroke-opacity: 0.2; stroke-width: 0.8; stroke-linecap: square"/>
     </g>
     <g id="line2d_4">
      <g>
       <use xlink:href="#m5946572ad4" x="162.47981" y="387.20125" style="stroke: #000000; stroke-width: 0.8"/>
      </g>
     </g>
     <g id="text_2">
      <!-- −5.0 -->
      <g transform="translate(150.338404 401.799688) scale(0.1 -0.1)">
       <defs>
        <path id="DejaVuSans-30" d="M 2034 4250 
Q 1547 4250 1301 3770 
Q 1056 3291 1056 2328 
Q 1056 1369 1301 889 
Q 1547 409 2034 409 
Q 2525 409 2770 889 
Q 3016 1369 3016 2328 
Q 3016 3291 2770 3770 
Q 2525 4250 2034 4250 
z
M 2034 4750 
Q 2819 4750 3233 4129 
Q 3647 3509 3647 2328 
Q 3647 1150 3233 529 
Q 2819 -91 2034 -91 
Q 1250 -91 836 529 
Q 422 1150 422 2328 
Q 422 3509 836 4129 
Q 1250 4750 2034 4750 
z
" transform="scale(0.015625)"/>
       </defs>
       <use xlink:href="#DejaVuSans-2212"/>
       <use xlink:href="#DejaVuSans-35" transform="translate(83.789062 0)"/>
       <use xlink:href="#DejaVuSans-2e" transform="translate(147.412109 0)"/>
       <use xlink:href="#DejaVuSans-30" transform="translate(179.199219 0)"/>
      </g>
     </g>
    </g>
    <g id="xtick_3">
     <g id="line2d_5">
      <path d="M 228.384139 387.20125 
L 228.384139 35.84925 
" clip-path="url(#p5ed95ca168)" style="fill: none; stroke: #b0b0b0; stroke-opacity: 0.2; stroke-width: 0.8; stroke-linecap: square"/>
     </g>
     <g id="line2d_6">
      <g>
       <use xlink:href="#m5946572ad4" x="228.384139" y="387.20125" style="stroke: #000000; stroke-width: 0.8"/>
      </g>
     </g>
     <g id="text_3">
      <!-- −2.5 -->
      <g transform="translate(216.242733 401.799688) scale(0.1 -0.1)">
       <defs>
        <path id="DejaVuSans-32" d="M 1228 531 
L 3431 531 
L 3431 0 
L 469 0 
L 469 531 
Q 828 903 1448 1529 
Q 2069 2156 2228 2338 
Q 2531 2678 2651 2914 
Q 2772 3150 2772 3378 
Q 2772 3750 2511 3984 
Q 2250 4219 1831 4219 
Q 1534 4219 1204 4116 
Q 875 4013 500 3803 
L 500 4441 
Q 881 4594 1212 4672 
Q 1544 4750 1819 4750 
Q 2544 4750 2975 4387 
Q 3406 4025 3406 3419 
Q 3406 3131 3298 2873 
Q 3191 2616 2906 2266 
Q 2828 2175 2409 1742 
Q 1991 1309 1228 531 
z
" transform="scale(0.015625)"/>
       </defs>
       <use xlink:href="#DejaVuSans-2212"/>
       <use xlink:href="#DejaVuSans-32" transform="translate(83.789062 0)"/>
       <use xlink:href="#DejaVuSans-2e" transform="translate(147.412109 0)"/>
       <use xlink:href="#DejaVuSans-35" transform="translate(179.199219 0)"/>
      </g>
     </g>
    </g>
    <g id="xtick_4">
     <g id="line2d_7">
      <path d="M 294.288468 387.20125 
L 294.288468 35.84925 
" clip-path="url(#p5ed95ca168)" style="fill: none; stroke: #b0b0b0; stroke-opacity: 0.2; stroke-width: 0.8; stroke-linecap: square"/>
     </g>
     <g id="line2d_8">
      <g>
       <use xlink:href="#m5946572ad4" x="294.288468" y="387.20125" style="stroke: #000000; stroke-width: 0.8"/>
      </g>
     </g>
     <g id="text_4">
      <!-- 0.0 -->
      <g transform="translate(286.336906 401.799688) scale(0.1 -0.1)">
       <use xlink:href="#DejaVuSans-30"/>
       <use xlink:href="#DejaVuSans-2e" transform="translate(63.623047 0)"/>
       <use xlink:href="#DejaVuSans-30" transform="translate(95.410156 0)"/>
      </g>
     </g>
    </g>
    <g id="xtick_5">
     <g id="line2d_9">
      <path d="M 360.192797 387.20125 
L 360.192797 35.84925 
" clip-path="url(#p5ed95ca168)" style="fill: none; stroke: #b0b0b0; stroke-opacity: 0.2; stroke-width: 0.8; stroke-linecap: square"/>
     </g>
     <g id="line2d_10">
      <g>
       <use xlink:href="#m5946572ad4" x="360.192797" y="387.20125" style="stroke: #000000; stroke-width: 0.8"/>
      </g>
     </g>
     <g id="text_5">
      <!-- 2.5 -->
      <g transform="translate(352.241234 401.799688) scale(0.1 -0.1)">
       <use xlink:href="#DejaVuSans-32"/>
       <use xlink:href="#DejaVuSans-2e" transform="translate(63.623047 0)"/>
       <use xlink:href="#DejaVuSans-35" transform="translate(95.410156 0)"/>
      </g>
     </g>
    </g>
    <g id="xtick_6">
     <g id="line2d_11">
      <path d="M 426.097126 387.20125 
L 426.097126 35.84925 
" clip-path="url(#p5ed95ca168)" style="fill: none; stroke: #b0b0b0; stroke-opacity: 0.2; stroke-width: 0.8; stroke-linecap: square"/>
     </g>
     <g id="line2d_12">
      <g>
       <use xlink:href="#m5946572ad4" x="426.097126" y="387.20125" style="stroke: #000000; stroke-width: 0.8"/>
      </g>
     </g>
     <g id="text_6">
      <!-- 5.0 -->
      <g transform="translate(418.145563 401.799688) scale(0.1 -0.1)">
       <use xlink:href="#DejaVuSans-35"/>
       <use xlink:href="#DejaVuSans-2e" transform="translate(63.623047 0)"/>
       <use xlink:href="#DejaVuSans-30" transform="translate(95.410156 0)"/>
      </g>
     </g>
    </g>
    <g id="xtick_7">
     <g id="line2d_13">
      <path d="M 492.001454 387.20125 
L 492.001454 35.84925 
" clip-path="url(#p5ed95ca168)" style="fill: none; stroke: #b0b0b0; stroke-opacity: 0.2; stroke-width: 0.8; stroke-linecap: square"/>
     </g>
     <g id="line2d_14">
      <g>
       <use xlink:href="#m5946572ad4" x="492.001454" y="387.20125" style="stroke: #000000; stroke-width: 0.8"/>
      </g>
     </g>
     <g id="text_7">
      <!-- 7.5 -->
      <g transform="translate(484.049892 401.799688) scale(0.1 -0.1)">
       <use xlink:href="#DejaVuSans-37"/>
       <use xlink:href="#DejaVuSans-2e" transform="translate(63.623047 0)"/>
       <use xlink:href="#DejaVuSans-35" transform="translate(95.410156 0)"/>
      </g>
     </g>
    </g>
    <g id="text_8">
     <!-- Δ mean activation (after − before optimization) -->
     <g transform="translate(166.359205 416.237656) scale(0.11 -0.11)">
      <defs>
       <path id="DejaVuSans-394" d="M 2188 4044 
L 906 525 
L 3472 525 
L 2188 4044 
z
M 50 0 
L 1831 4666 
L 2547 4666 
L 4325 0 
L 50 0 
z
" transform="scale(0.015625)"/>
       <path id="DejaVuSans-20" transform="scale(0.015625)"/>
       <path id="DejaVuSans-6d" d="M 3328 2828 
Q 3544 3216 3844 3400 
Q 4144 3584 4550 3584 
Q 5097 3584 5394 3201 
Q 5691 2819 5691 2113 
L 5691 0 
L 5113 0 
L 5113 2094 
Q 5113 2597 4934 2840 
Q 4756 3084 4391 3084 
Q 3944 3084 3684 2787 
Q 3425 2491 3425 1978 
L 3425 0 
L 2847 0 
L 2847 2094 
Q 2847 2600 2669 2842 
Q 2491 3084 2119 3084 
Q 1678 3084 1418 2786 
Q 1159 2488 1159 1978 
L 1159 0 
L 581 0 
L 581 3500 
L 1159 3500 
L 1159 2956 
Q 1356 3278 1631 3431 
Q 1906 3584 2284 3584 
Q 2666 3584 2933 3390 
Q 3200 3197 3328 2828 
z
" transform="scale(0.015625)"/>
       <path id="DejaVuSans-65" d="M 3597 1894 
L 3597 1613 
L 953 1613 
Q 991 1019 1311 708 
Q 1631 397 2203 397 
Q 2534 397 2845 478 
Q 3156 559 3463 722 
L 3463 178 
Q 3153 47 2828 -22 
Q 2503 -91 2169 -91 
Q 1331 -91 842 396 
Q 353 884 353 1716 
Q 353 2575 817 3079 
Q 1281 3584 2069 3584 
Q 2775 3584 3186 3129 
Q 3597 2675 3597 1894 
z
M 3022 2063 
Q 3016 2534 2758 2815 
Q 2500 3097 2075 3097 
Q 1594 3097 1305 2825 
Q 1016 2553 972 2059 
L 3022 2063 
z
" transform="scale(0.015625)"/>
       <path id="DejaVuSans-61" d="M 2194 1759 
Q 1497 1759 1228 1600 
Q 959 1441 959 1056 
Q 959 750 1161 570 
Q 1363 391 1709 391 
Q 2188 391 2477 730 
Q 2766 1069 2766 1631 
L 2766 1759 
L 2194 1759 
z
M 3341 1997 
L 3341 0 
L 2766 0 
L 2766 531 
Q 2569 213 2275 61 
Q 1981 -91 1556 -91 
Q 1019 -91 701 211 
Q 384 513 384 1019 
Q 384 1609 779 1909 
Q 1175 2209 1959 2209 
L 2766 2209 
L 2766 2266 
Q 2766 2663 2505 2880 
Q 2244 3097 1772 3097 
Q 1472 3097 1187 3025 
Q 903 2953 641 2809 
L 641 3341 
Q 956 3463 1253 3523 
Q 1550 3584 1831 3584 
Q 2591 3584 2966 3190 
Q 3341 2797 3341 1997 
z
" transform="scale(0.015625)"/>
       <path id="DejaVuSans-6e" d="M 3513 2113 
L 3513 0 
L 2938 0 
L 2938 2094 
Q 2938 2591 2744 2837 
Q 2550 3084 2163 3084 
Q 1697 3084 1428 2787 
Q 1159 2491 1159 1978 
L 1159 0 
L 581 0 
L 581 3500 
L 1159 3500 
L 1159 2956 
Q 1366 3272 1645 3428 
Q 1925 3584 2291 3584 
Q 2894 3584 3203 3211 
Q 3513 2838 3513 2113 
z
" transform="scale(0.015625)"/>
       <path id="DejaVuSans-63" d="M 3122 3366 
L 3122 2828 
Q 2878 2963 2633 3030 
Q 2388 3097 2138 3097 
Q 1578 3097 1268 2742 
Q 959 2388 959 1747 
Q 959 1106 1268 751 
Q 1578 397 2138 397 
Q 2388 397 2633 464 
Q 2878 531 3122 666 
L 3122 134 
Q 2881 22 2623 -34 
Q 2366 -91 2075 -91 
Q 1284 -91 818 406 
Q 353 903 353 1747 
Q 353 2603 823 3093 
Q 1294 3584 2113 3584 
Q 2378 3584 2631 3529 
Q 2884 3475 3122 3366 
z
" transform="scale(0.015625)"/>
       <path id="DejaVuSans-74" d="M 1172 4494 
L 1172 3500 
L 2356 3500 
L 2356 3053 
L 1172 3053 
L 1172 1153 
Q 1172 725 1289 603 
Q 1406 481 1766 481 
L 2356 481 
L 2356 0 
L 1766 0 
Q 1100 0 847 248 
Q 594 497 594 1153 
L 594 3053 
L 172 3053 
L 172 3500 
L 594 3500 
L 594 4494 
L 1172 4494 
z
" transform="scale(0.015625)"/>
       <path id="DejaVuSans-69" d="M 603 3500 
L 1178 3500 
L 1178 0 
L 603 0 
L 603 3500 
z
M 603 4863 
L 1178 4863 
L 1178 4134 
L 603 4134 
L 603 4863 
z
" transform="scale(0.015625)"/>
       <path id="DejaVuSans-76" d="M 191 3500 
L 800 3500 
L 1894 563 
L 2988 3500 
L 3597 3500 
L 2284 0 
L 1503 0 
L 191 3500 
z
" transform="scale(0.015625)"/>
       <path id="DejaVuSans-6f" d="M 1959 3097 
Q 1497 3097 1228 2736 
Q 959 2375 959 1747 
Q 959 1119 1226 758 
Q 1494 397 1959 397 
Q 2419 397 2687 759 
Q 2956 1122 2956 1747 
Q 2956 2369 2687 2733 
Q 2419 3097 1959 3097 
z
M 1959 3584 
Q 2709 3584 3137 3096 
Q 3566 2609 3566 1747 
Q 3566 888 3137 398 
Q 2709 -91 1959 -91 
Q 1206 -91 779 398 
Q 353 888 353 1747 
Q 353 2609 779 3096 
Q 1206 3584 1959 3584 
z
" transform="scale(0.015625)"/>
       <path id="DejaVuSans-28" d="M 1984 4856 
Q 1566 4138 1362 3434 
Q 1159 2731 1159 2009 
Q 1159 1288 1364 580 
Q 1569 -128 1984 -844 
L 1484 -844 
Q 1016 -109 783 600 
Q 550 1309 550 2009 
Q 550 2706 781 3412 
Q 1013 4119 1484 4856 
L 1984 4856 
z
" transform="scale(0.015625)"/>
       <path id="DejaVuSans-66" d="M 2375 4863 
L 2375 4384 
L 1825 4384 
Q 1516 4384 1395 4259 
Q 1275 4134 1275 3809 
L 1275 3500 
L 2222 3500 
L 2222 3053 
L 1275 3053 
L 1275 0 
L 697 0 
L 697 3053 
L 147 3053 
L 147 3500 
L 697 3500 
L 697 3744 
Q 697 4328 969 4595 
Q 1241 4863 1831 4863 
L 2375 4863 
z
" transform="scale(0.015625)"/>
       <path id="DejaVuSans-72" d="M 2631 2963 
Q 2534 3019 2420 3045 
Q 2306 3072 2169 3072 
Q 1681 3072 1420 2755 
Q 1159 2438 1159 1844 
L 1159 0 
L 581 0 
L 581 3500 
L 1159 3500 
L 1159 2956 
Q 1341 3275 1631 3429 
Q 1922 3584 2338 3584 
Q 2397 3584 2469 3576 
Q 2541 3569 2628 3553 
L 2631 2963 
z
" transform="scale(0.015625)"/>
       <path id="DejaVuSans-62" d="M 3116 1747 
Q 3116 2381 2855 2742 
Q 2594 3103 2138 3103 
Q 1681 3103 1420 2742 
Q 1159 2381 1159 1747 
Q 1159 1113 1420 752 
Q 1681 391 2138 391 
Q 2594 391 2855 752 
Q 3116 1113 3116 1747 
z
M 1159 2969 
Q 1341 3281 1617 3432 
Q 1894 3584 2278 3584 
Q 2916 3584 3314 3078 
Q 3713 2572 3713 1747 
Q 3713 922 3314 415 
Q 2916 -91 2278 -91 
Q 1894 -91 1617 61 
Q 1341 213 1159 525 
L 1159 0 
L 581 0 
L 581 4863 
L 1159 4863 
L 1159 2969 
z
" transform="scale(0.015625)"/>
       <path id="DejaVuSans-70" d="M 1159 525 
L 1159 -1331 
L 581 -1331 
L 581 3500 
L 1159 3500 
L 1159 2969 
Q 1341 3281 1617 3432 
Q 1894 3584 2278 3584 
Q 2916 3584 3314 3078 
Q 3713 2572 3713 1747 
Q 3713 922 3314 415 
Q 2916 -91 2278 -91 
Q 1894 -91 1617 61 
Q 1341 213 1159 525 
z
M 3116 1747 
Q 3116 2381 2855 2742 
Q 2594 3103 2138 3103 
Q 1681 3103 1420 2742 
Q 1159 2381 1159 1747 
Q 1159 1113 1420 752 
Q 1681 391 2138 391 
Q 2594 391 2855 752 
Q 3116 1113 3116 1747 
z
" transform="scale(0.015625)"/>
       <path id="DejaVuSans-7a" d="M 353 3500 
L 3084 3500 
L 3084 2975 
L 922 459 
L 3084 459 
L 3084 0 
L 275 0 
L 275 525 
L 2438 3041 
L 353 3041 
L 353 3500 
z
" transform="scale(0.015625)"/>
       <path id="DejaVuSans-29" d="M 513 4856 
L 1013 4856 
Q 1481 4119 1714 3412 
Q 1947 2706 1947 2009 
Q 1947 1309 1714 600 
Q 1481 -109 1013 -844 
L 513 -844 
Q 928 -128 1133 580 
Q 1338 1288 1338 2009 
Q 1338 2731 1133 3434 
Q 928 4138 513 4856 
z
" transform="scale(0.015625)"/>
      </defs>
      <use xlink:href="#DejaVuSans-394"/>
      <use xlink:href="#DejaVuSans-20" transform="translate(68.408203 0)"/>
      <use xlink:href="#DejaVuSans-6d" transform="translate(100.195312 0)"/>
      <use xlink:href="#DejaVuSans-65" transform="translate(197.607422 0)"/>
      <use xlink:href="#DejaVuSans-61" transform="translate(259.130859 0)"/>
      <use xlink:href="#DejaVuSans-6e" transform="translate(320.410156 0)"/>
      <use xlink:href="#DejaVuSans-20" transform="translate(383.789062 0)"/>
      <use xlink:href="#DejaVuSans-61" transform="translate(415.576172 0)"/>
      <use xlink:href="#DejaVuSans-63" transform="translate(476.855469 0)"/>
      <use xlink:href="#DejaVuSans-74" transform="translate(531.835938 0)"/>
      <use xlink:href="#DejaVuSans-69" transform="translate(571.044922 0)"/>
      <use xlink:href="#DejaVuSans-76" transform="translate(598.828125 0)"/>
      <use xlink:href="#DejaVuSans-61" transform="translate(658.007812 0)"/>
      <use xlink:href="#DejaVuSans-74" transform="translate(719.287109 0)"/>
      <use xlink:href="#DejaVuSans-69" transform="translate(758.496094 0)"/>
      <use xlink:href="#DejaVuSans-6f" transform="translate(786.279297 0)"/>
      <use xlink:href="#DejaVuSans-6e" transform="translate(847.460938 0)"/>
      <use xlink:href="#DejaVuSans-20" transform="translate(910.839844 0)"/>
      <use xlink:href="#DejaVuSans-28" transform="translate(942.626953 0)"/>
      <use xlink:href="#DejaVuSans-61" transform="translate(981.640625 0)"/>
      <use xlink:href="#DejaVuSans-66" transform="translate(1042.919922 0)"/>
      <use xlink:href="#DejaVuSans-74" transform="translate(1076.375 0)"/>
      <use xlink:href="#DejaVuSans-65" transform="translate(1115.583984 0)"/>
      <use xlink:href="#DejaVuSans-72" transform="translate(1177.107422 0)"/>
      <use xlink:href="#DejaVuSans-20" transform="translate(1218.220703 0)"/>
      <use xlink:href="#DejaVuSans-2212" transform="translate(1250.007812 0)"/>
      <use xlink:href="#DejaVuSans-20" transform="translate(1333.796875 0)"/>
      <use xlink:href="#DejaVuSans-62" transform="translate(1365.583984 0)"/>
      <use xlink:href="#DejaVuSans-65" transform="translate(1429.060547 0)"/>
      <use xlink:href="#DejaVuSans-66" transform="translate(1490.583984 0)"/>
      <use xlink:href="#DejaVuSans-6f" transform="translate(1525.789062 0)"/>
      <use xlink:href="#DejaVuSans-72" transform="translate(1586.970703 0)"/>
      <use xlink:href="#DejaVuSans-65" transform="translate(1625.833984 0)"/>
      <use xlink:href="#DejaVuSans-20" transform="translate(1687.357422 0)"/>
      <use xlink:href="#DejaVuSans-6f" transform="translate(1719.144531 0)"/>
      <use xlink:href="#DejaVuSans-70" transform="translate(1780.326172 0)"/>
      <use xlink:href="#DejaVuSans-74" transform="translate(1843.802734 0)"/>
      <use xlink:href="#DejaVuSans-69" transform="translate(1883.011719 0)"/>
      <use xlink:href="#DejaVuSans-6d" transform="translate(1910.794922 0)"/>
      <use xlink:href="#DejaVuSans-69" transform="translate(2008.207031 0)"/>
      <use xlink:href="#DejaVuSans-7a" transform="translate(2035.990234 0)"/>
      <use xlink:href="#DejaVuSans-61" transform="translate(2088.480469 0)"/>
      <use xlink:href="#DejaVuSans-74" transform="translate(2149.759766 0)"/>
      <use xlink:href="#DejaVuSans-69" transform="translate(2188.96875 0)"/>
      <use xlink:href="#DejaVuSans-6f" transform="translate(2216.751953 0)"/>
      <use xlink:href="#DejaVuSans-6e" transform="translate(2277.933594 0)"/>
      <use xlink:href="#DejaVuSans-29" transform="translate(2341.3125 0)"/>
     </g>
    </g>
   </g>
   <g id="matplotlib.axis_2">
    <g id="ytick_1">
     <g id="line2d_15">
      <path d="M 41.570938 371.867802 
L 552.981847 371.867802 
" clip-path="url(#p5ed95ca168)" style="fill: none; stroke: #b0b0b0; stroke-opacity: 0.2; stroke-width: 0.8; stroke-linecap: square"/>
     </g>
     <g id="line2d_16">
      <defs>
       <path id="m98f439cecb" d="M 0 0 
L -3.5 0 
" style="stroke: #000000; stroke-width: 0.8"/>
      </defs>
      <g>
       <use xlink:href="#m98f439cecb" x="41.570938" y="371.867802" style="stroke: #000000; stroke-width: 0.8"/>
      </g>
     </g>
     <g id="text_9">
      <!-- 0 -->
      <g transform="translate(28.208438 375.667021) scale(0.1 -0.1)">
       <use xlink:href="#DejaVuSans-30"/>
      </g>
     </g>
    </g>
    <g id="ytick_2">
     <g id="line2d_17">
      <path d="M 41.570938 312.213519 
L 552.981847 312.213519 
" clip-path="url(#p5ed95ca168)" style="fill: none; stroke: #b0b0b0; stroke-opacity: 0.2; stroke-width: 0.8; stroke-linecap: square"/>
     </g>
     <g id="line2d_18">
      <g>
       <use xlink:href="#m98f439cecb" x="41.570938" y="312.213519" style="stroke: #000000; stroke-width: 0.8"/>
      </g>
     </g>
     <g id="text_10">
      <!-- 10 -->
      <g transform="translate(21.845938 316.012737) scale(0.1 -0.1)">
       <defs>
        <path id="DejaVuSans-31" d="M 794 531 
L 1825 531 
L 1825 4091 
L 703 3866 
L 703 4441 
L 1819 4666 
L 2450 4666 
L 2450 531 
L 3481 531 
L 3481 0 
L 794 0 
L 794 531 
z
" transform="scale(0.015625)"/>
       </defs>
       <use xlink:href="#DejaVuSans-31"/>
       <use xlink:href="#DejaVuSans-30" transform="translate(63.623047 0)"/>
      </g>
     </g>
    </g>
    <g id="ytick_3">
     <g id="line2d_19">
      <path d="M 41.570938 252.559235 
L 552.981847 252.559235 
" clip-path="url(#p5ed95ca168)" style="fill: none; stroke: #b0b0b0; stroke-opacity: 0.2; stroke-width: 0.8; stroke-linecap: square"/>
     </g>
     <g id="line2d_20">
      <g>
       <use xlink:href="#m98f439cecb" x="41.570938" y="252.559235" style="stroke: #000000; stroke-width: 0.8"/>
      </g>
     </g>
     <g id="text_11">
      <!-- 20 -->
      <g transform="translate(21.845938 256.358454) scale(0.1 -0.1)">
       <use xlink:href="#DejaVuSans-32"/>
       <use xlink:href="#DejaVuSans-30" transform="translate(63.623047 0)"/>
      </g>
     </g>
    </g>
    <g id="ytick_4">
     <g id="line2d_21">
      <path d="M 41.570938 192.904951 
L 552.981847 192.904951 
" clip-path="url(#p5ed95ca168)" style="fill: none; stroke: #b0b0b0; stroke-opacity: 0.2; stroke-width: 0.8; stroke-linecap: square"/>
     </g>
     <g id="line2d_22">
      <g>
       <use xlink:href="#m98f439cecb" x="41.570938" y="192.904951" style="stroke: #000000; stroke-width: 0.8"/>
      </g>
     </g>
     <g id="text_12">
      <!-- 30 -->
      <g transform="translate(21.845938 196.70417) scale(0.1 -0.1)">
       <defs>
        <path id="DejaVuSans-33" d="M 2597 2516 
Q 3050 2419 3304 2112 
Q 3559 1806 3559 1356 
Q 3559 666 3084 287 
Q 2609 -91 1734 -91 
Q 1441 -91 1130 -33 
Q 819 25 488 141 
L 488 750 
Q 750 597 1062 519 
Q 1375 441 1716 441 
Q 2309 441 2620 675 
Q 2931 909 2931 1356 
Q 2931 1769 2642 2001 
Q 2353 2234 1838 2234 
L 1294 2234 
L 1294 2753 
L 1863 2753 
Q 2328 2753 2575 2939 
Q 2822 3125 2822 3475 
Q 2822 3834 2567 4026 
Q 2313 4219 1838 4219 
Q 1578 4219 1281 4162 
Q 984 4106 628 3988 
L 628 4550 
Q 988 4650 1302 4700 
Q 1616 4750 1894 4750 
Q 2613 4750 3031 4423 
Q 3450 4097 3450 3541 
Q 3450 3153 3228 2886 
Q 3006 2619 2597 2516 
z
" transform="scale(0.015625)"/>
       </defs>
       <use xlink:href="#DejaVuSans-33"/>
       <use xlink:href="#DejaVuSans-30" transform="translate(63.623047 0)"/>
      </g>
     </g>
    </g>
    <g id="ytick_5">
     <g id="line2d_23">
      <path d="M 41.570938 133.250668 
L 552.981847 133.250668 
" clip-path="url(#p5ed95ca168)" style="fill: none; stroke: #b0b0b0; stroke-opacity: 0.2; stroke-width: 0.8; stroke-linecap: square"/>
     </g>
     <g id="line2d_24">
      <g>
       <use xlink:href="#m98f439cecb" x="41.570938" y="133.250668" style="stroke: #000000; stroke-width: 0.8"/>
      </g>
     </g>
     <g id="text_13">
      <!-- 40 -->
      <g transform="translate(21.845938 137.049886) scale(0.1 -0.1)">
       <defs>
        <path id="DejaVuSans-34" d="M 2419 4116 
L 825 1625 
L 2419 1625 
L 2419 4116 
z
M 2253 4666 
L 3047 4666 
L 3047 1625 
L 3713 1625 
L 3713 1100 
L 3047 1100 
L 3047 0 
L 2419 0 
L 2419 1100 
L 313 1100 
L 313 1709 
L 2253 4666 
z
" transform="scale(0.015625)"/>
       </defs>
       <use xlink:href="#DejaVuSans-34"/>
       <use xlink:href="#DejaVuSans-30" transform="translate(63.623047 0)"/>
      </g>
     </g>
    </g>
    <g id="ytick_6">
     <g id="line2d_25">
      <path d="M 41.570938 73.596384 
L 552.981847 73.596384 
" clip-path="url(#p5ed95ca168)" style="fill: none; stroke: #b0b0b0; stroke-opacity: 0.2; stroke-width: 0.8; stroke-linecap: square"/>
     </g>
     <g id="line2d_26">
      <g>
       <use xlink:href="#m98f439cecb" x="41.570938" y="73.596384" style="stroke: #000000; stroke-width: 0.8"/>
      </g>
     </g>
     <g id="text_14">
      <!-- 50 -->
      <g transform="translate(21.845938 77.395603) scale(0.1 -0.1)">
       <use xlink:href="#DejaVuSans-35"/>
       <use xlink:href="#DejaVuSans-30" transform="translate(63.623047 0)"/>
      </g>
     </g>
    </g>
    <g id="text_15">
     <!-- −log₁₀(p-value) -->
     <g transform="translate(15.558281 253.576188) rotate(-90) scale(0.11 -0.11)">
      <defs>
       <path id="DejaVuSans-6c" d="M 603 4863 
L 1178 4863 
L 1178 0 
L 603 0 
L 603 4863 
z
" transform="scale(0.015625)"/>
       <path id="DejaVuSans-67" d="M 2906 1791 
Q 2906 2416 2648 2759 
Q 2391 3103 1925 3103 
Q 1463 3103 1205 2759 
Q 947 2416 947 1791 
Q 947 1169 1205 825 
Q 1463 481 1925 481 
Q 2391 481 2648 825 
Q 2906 1169 2906 1791 
z
M 3481 434 
Q 3481 -459 3084 -895 
Q 2688 -1331 1869 -1331 
Q 1566 -1331 1297 -1286 
Q 1028 -1241 775 -1147 
L 775 -588 
Q 1028 -725 1275 -790 
Q 1522 -856 1778 -856 
Q 2344 -856 2625 -561 
Q 2906 -266 2906 331 
L 2906 616 
Q 2728 306 2450 153 
Q 2172 0 1784 0 
Q 1141 0 747 490 
Q 353 981 353 1791 
Q 353 2603 747 3093 
Q 1141 3584 1784 3584 
Q 2172 3584 2450 3431 
Q 2728 3278 2906 2969 
L 2906 3500 
L 3481 3500 
L 3481 434 
z
" transform="scale(0.015625)"/>
       <path id="DejaVuSans-2081" d="M 488 343 
L 1125 343 
L 1125 2253 
L 428 2125 
L 428 2487 
L 1147 2609 
L 1575 2609 
L 1575 343 
L 2216 343 
L 2216 0 
L 488 0 
L 488 343 
z
" transform="scale(0.015625)"/>
       <path id="DejaVuSans-2080" d="M 1781 2115 
Q 1625 2384 1309 2384 
Q 994 2384 838 2115 
Q 678 1846 678 1309 
Q 678 768 838 500 
Q 994 231 1309 231 
Q 1625 231 1781 500 
Q 1941 768 1941 1309 
Q 1941 1846 1781 2115 
z
M 1309 2662 
Q 1813 2662 2078 2315 
Q 2344 1968 2344 1309 
Q 2344 646 2078 299 
Q 1813 -47 1309 -47 
Q 803 -47 537 299 
Q 272 646 272 1309 
Q 272 1968 537 2315 
Q 803 2662 1309 2662 
z
" transform="scale(0.015625)"/>
       <path id="DejaVuSans-2d" d="M 313 2009 
L 1997 2009 
L 1997 1497 
L 313 1497 
L 313 2009 
z
" transform="scale(0.015625)"/>
       <path id="DejaVuSans-75" d="M 544 1381 
L 544 3500 
L 1119 3500 
L 1119 1403 
Q 1119 906 1312 657 
Q 1506 409 1894 409 
Q 2359 409 2629 706 
Q 2900 1003 2900 1516 
L 2900 3500 
L 3475 3500 
L 3475 0 
L 2900 0 
L 2900 538 
Q 2691 219 2414 64 
Q 2138 -91 1772 -91 
Q 1169 -91 856 284 
Q 544 659 544 1381 
z
M 1991 3584 
L 1991 3584 
z
" transform="scale(0.015625)"/>
      </defs>
      <use xlink:href="#DejaVuSans-2212"/>
      <use xlink:href="#DejaVuSans-6c" transform="translate(83.789062 0)"/>
      <use xlink:href="#DejaVuSans-6f" transform="translate(111.572266 0)"/>
      <use xlink:href="#DejaVuSans-67" transform="translate(172.753906 0)"/>
      <use xlink:href="#DejaVuSans-2081" transform="translate(236.230469 0)"/>
      <use xlink:href="#DejaVuSans-2080" transform="translate(276.318359 0)"/>
      <use xlink:href="#DejaVuSans-28" transform="translate(316.40625 0)"/>
      <use xlink:href="#DejaVuSans-70" transform="translate(355.419922 0)"/>
      <use xlink:href="#DejaVuSans-2d" transform="translate(418.896484 0)"/>
      <use xlink:href="#DejaVuSans-76" transform="translate(452.355469 0)"/>
      <use xlink:href="#DejaVuSans-61" transform="translate(511.535156 0)"/>
      <use xlink:href="#DejaVuSans-6c" transform="translate(572.814453 0)"/>
      <use xlink:href="#DejaVuSans-75" transform="translate(600.597656 0)"/>
      <use xlink:href="#DejaVuSans-65" transform="translate(663.976562 0)"/>
      <use xlink:href="#DejaVuSans-29" transform="translate(725.5 0)"/>
     </g>
    </g>
   </g>
   <g id="PathCollection_1">
    <defs>
     <path id="C0_0_eeaba61ec8" d="M 0 2.738613 
C 0.726289 2.738613 1.422928 2.450055 1.936492 1.936492 
C 2.450055 1.422928 2.738613 0.726289 2.738613 -0 
C 2.738613 -0.726289 2.450055 -1.422928 1.936492 -1.936492 
C 1.422928 -2.450055 0.726289 -2.738613 0 -2.738613 
C -0.726289 -2.738613 -1.422928 -2.450055 -1.936492 -1.936492 
C -2.450055 -1.422928 -2.738613 -0.726289 -2.738613 0 
C -2.738613 0.726289 -2.450055 1.422928 -1.936492 1.936492 
C -1.422928 2.450055 -0.726289 2.738613 0 2.738613 
z
"/>
    </defs>
    <g clip-path="url(#p5ed95ca168)">
     <use xlink:href="#C0_0_eeaba61ec8" x="311.03439" y="287.06635" style="fill: #b0b0b0; fill-opacity: 0.5"/>
    </g>
    <g clip-path="url(#p5ed95ca168)">
     <use xlink:href="#C0_0_eeaba61ec8" x="260.924505" y="131.663604" style="fill: #b0b0b0; fill-opacity: 0.5"/>
    </g>
    <g clip-path="url(#p5ed95ca168)">
     <use xlink:href="#C0_0_eeaba61ec8" x="226.859795" y="52.038228" style="fill: #b0b0b0; fill-opacity: 0.5"/>
    </g>
    <g clip-path="url(#p5ed95ca168)">
     <use xlink:href="#C0_0_eeaba61ec8" x="199.58447" y="66.026994" style="fill: #b0b0b0; fill-opacity: 0.5"/>
    </g>
    <g clip-path="url(#p5ed95ca168)">
     <use xlink:href="#C0_0_eeaba61ec8" x="329.761924" y="133.751969" style="fill: #b0b0b0; fill-opacity: 0.5"/>
    </g>
    <g clip-path="url(#p5ed95ca168)">
     <use xlink:href="#C0_0_eeaba61ec8" x="155.266094" y="61.38332" style="fill: #b0b0b0; fill-opacity: 0.5"/>
    </g>
    <g clip-path="url(#p5ed95ca168)">
     <use xlink:href="#C0_0_eeaba61ec8" x="211.741966" y="56.270518" style="fill: #b0b0b0; fill-opacity: 0.5"/>
    </g>
    <g clip-path="url(#p5ed95ca168)">
     <use xlink:href="#C0_0_eeaba61ec8" x="113.459242" y="51.819795" style="fill: #b0b0b0; fill-opacity: 0.5"/>
    </g>
    <g clip-path="url(#p5ed95ca168)">
     <use xlink:href="#C0_0_eeaba61ec8" x="241.152751" y="96.911975" style="fill: #b0b0b0; fill-opacity: 0.5"/>
    </g>
    <g clip-path="url(#p5ed95ca168)">
     <use xlink:href="#C0_0_eeaba61ec8" x="462.252957" y="51.819795" style="fill: #b0b0b0; fill-opacity: 0.5"/>
    </g>
    <g clip-path="url(#p5ed95ca168)">
     <use xlink:href="#C0_0_eeaba61ec8" x="146.83779" y="53.782968" style="fill: #b0b0b0; fill-opacity: 0.5"/>
    </g>
    <g clip-path="url(#p5ed95ca168)">
     <use xlink:href="#C0_0_eeaba61ec8" x="238.588193" y="59.156169" style="fill: #b0b0b0; fill-opacity: 0.5"/>
    </g>
    <g clip-path="url(#p5ed95ca168)">
     <use xlink:href="#C0_0_eeaba61ec8" x="277.518031" y="245.104335" style="fill: #b0b0b0; fill-opacity: 0.5"/>
    </g>
    <g clip-path="url(#p5ed95ca168)">
     <use xlink:href="#C0_0_eeaba61ec8" x="313.456772" y="332.145865" style="fill: #b0b0b0; fill-opacity: 0.5"/>
    </g>
    <g clip-path="url(#p5ed95ca168)">
     <use xlink:href="#C0_0_eeaba61ec8" x="206.305319" y="52.111022" style="fill: #b0b0b0; fill-opacity: 0.5"/>
    </g>
    <g clip-path="url(#p5ed95ca168)">
     <use xlink:href="#C0_0_eeaba61ec8" x="247.931285" y="201.234282" style="fill: #b0b0b0; fill-opacity: 0.5"/>
    </g>
    <g clip-path="url(#p5ed95ca168)">
     <use xlink:href="#C0_0_eeaba61ec8" x="221.073242" y="143.946629" style="fill: #b0b0b0; fill-opacity: 0.5"/>
    </g>
    <g clip-path="url(#p5ed95ca168)">
     <use xlink:href="#C0_0_eeaba61ec8" x="135.480717" y="52.208067" style="fill: #b0b0b0; fill-opacity: 0.5"/>
    </g>
    <g clip-path="url(#p5ed95ca168)">
     <use xlink:href="#C0_0_eeaba61ec8" x="287.773862" y="346.186882" style="fill: #b0b0b0; fill-opacity: 0.5"/>
    </g>
    <g clip-path="url(#p5ed95ca168)">
     <use xlink:href="#C0_0_eeaba61ec8" x="193.222187" y="57.065409" style="fill: #b0b0b0; fill-opacity: 0.5"/>
    </g>
    <g clip-path="url(#p5ed95ca168)">
     <use xlink:href="#C0_0_eeaba61ec8" x="327.787904" y="238.437573" style="fill: #b0b0b0; fill-opacity: 0.5"/>
    </g>
    <g clip-path="url(#p5ed95ca168)">
     <use xlink:href="#C0_0_eeaba61ec8" x="280.670528" y="287.792814" style="fill: #b0b0b0; fill-opacity: 0.5"/>
    </g>
    <g clip-path="url(#p5ed95ca168)">
     <use xlink:href="#C0_0_eeaba61ec8" x="286.407278" y="333.862861" style="fill: #b0b0b0; fill-opacity: 0.5"/>
    </g>
    <g clip-path="url(#p5ed95ca168)">
     <use xlink:href="#C0_0_eeaba61ec8" x="283.222943" y="332.761213" style="fill: #b0b0b0; fill-opacity: 0.5"/>
    </g>
    <g clip-path="url(#p5ed95ca168)">
     <use xlink:href="#C0_0_eeaba61ec8" x="272.967194" y="321.17958" style="fill: #b0b0b0; fill-opacity: 0.5"/>
    </g>
    <g clip-path="url(#p5ed95ca168)">
     <use xlink:href="#C0_0_eeaba61ec8" x="257.710841" y="306.790181" style="fill: #b0b0b0; fill-opacity: 0.5"/>
    </g>
    <g clip-path="url(#p5ed95ca168)">
     <use xlink:href="#C0_0_eeaba61ec8" x="307.404858" y="138.539388" style="fill: #b0b0b0; fill-opacity: 0.5"/>
    </g>
    <g clip-path="url(#p5ed95ca168)">
     <use xlink:href="#C0_0_eeaba61ec8" x="379.404688" y="51.868342" style="fill: #b0b0b0; fill-opacity: 0.5"/>
    </g>
    <g clip-path="url(#p5ed95ca168)">
     <use xlink:href="#C0_0_eeaba61ec8" x="64.816888" y="51.819795" style="fill: #b0b0b0; fill-opacity: 0.5"/>
    </g>
    <g clip-path="url(#p5ed95ca168)">
     <use xlink:href="#C0_0_eeaba61ec8" x="260.792464" y="294.951557" style="fill: #b0b0b0; fill-opacity: 0.5"/>
    </g>
    <g clip-path="url(#p5ed95ca168)">
     <use xlink:href="#C0_0_eeaba61ec8" x="225.487526" y="176.45933" style="fill: #b0b0b0; fill-opacity: 0.5"/>
    </g>
    <g clip-path="url(#p5ed95ca168)">
     <use xlink:href="#C0_0_eeaba61ec8" x="313.032312" y="240.344718" style="fill: #b0b0b0; fill-opacity: 0.5"/>
    </g>
    <g clip-path="url(#p5ed95ca168)">
     <use xlink:href="#C0_0_eeaba61ec8" x="278.383358" y="240.931084" style="fill: #b0b0b0; fill-opacity: 0.5"/>
    </g>
    <g clip-path="url(#p5ed95ca168)">
     <use xlink:href="#C0_0_eeaba61ec8" x="169.452077" y="76.538056" style="fill: #b0b0b0; fill-opacity: 0.5"/>
    </g>
    <g clip-path="url(#p5ed95ca168)">
     <use xlink:href="#C0_0_eeaba61ec8" x="298.396131" y="364.980747" style="fill: #b0b0b0; fill-opacity: 0.5"/>
    </g>
    <g clip-path="url(#p5ed95ca168)">
     <use xlink:href="#C0_0_eeaba61ec8" x="263.219981" y="121.653028" style="fill: #b0b0b0; fill-opacity: 0.5"/>
    </g>
    <g clip-path="url(#p5ed95ca168)">
     <use xlink:href="#C0_0_eeaba61ec8" x="274.596029" y="128.504751" style="fill: #b0b0b0; fill-opacity: 0.5"/>
    </g>
    <g clip-path="url(#p5ed95ca168)">
     <use xlink:href="#C0_0_eeaba61ec8" x="295.608917" y="371.230705" style="fill: #b0b0b0; fill-opacity: 0.5"/>
    </g>
    <g clip-path="url(#p5ed95ca168)">
     <use xlink:href="#C0_0_eeaba61ec8" x="281.657174" y="278.228346" style="fill: #b0b0b0; fill-opacity: 0.5"/>
    </g>
    <g clip-path="url(#p5ed95ca168)">
     <use xlink:href="#C0_0_eeaba61ec8" x="291.214868" y="351.119578" style="fill: #b0b0b0; fill-opacity: 0.5"/>
    </g>
    <g clip-path="url(#p5ed95ca168)">
     <use xlink:href="#C0_0_eeaba61ec8" x="253.79995" y="133.841453" style="fill: #b0b0b0; fill-opacity: 0.5"/>
    </g>
    <g clip-path="url(#p5ed95ca168)">
     <use xlink:href="#C0_0_eeaba61ec8" x="231.46903" y="62.505805" style="fill: #b0b0b0; fill-opacity: 0.5"/>
    </g>
    <g clip-path="url(#p5ed95ca168)">
     <use xlink:href="#C0_0_eeaba61ec8" x="193.519411" y="156.498697" style="fill: #b0b0b0; fill-opacity: 0.5"/>
    </g>
    <g clip-path="url(#p5ed95ca168)">
     <use xlink:href="#C0_0_eeaba61ec8" x="266.575698" y="138.932181" style="fill: #b0b0b0; fill-opacity: 0.5"/>
    </g>
    <g clip-path="url(#p5ed95ca168)">
     <use xlink:href="#C0_0_eeaba61ec8" x="294.45618" y="369.377488" style="fill: #b0b0b0; fill-opacity: 0.5"/>
    </g>
    <g clip-path="url(#p5ed95ca168)">
     <use xlink:href="#C0_0_eeaba61ec8" x="247.279316" y="105.45262" style="fill: #b0b0b0; fill-opacity: 0.5"/>
    </g>
    <g clip-path="url(#p5ed95ca168)">
     <use xlink:href="#C0_0_eeaba61ec8" x="374.196914" y="71.928603" style="fill: #b0b0b0; fill-opacity: 0.5"/>
    </g>
    <g clip-path="url(#p5ed95ca168)">
     <use xlink:href="#C0_0_eeaba61ec8" x="285.009032" y="311.626836" style="fill: #b0b0b0; fill-opacity: 0.5"/>
    </g>
    <g clip-path="url(#p5ed95ca168)">
     <use xlink:href="#C0_0_eeaba61ec8" x="223.945583" y="176.440429" style="fill: #b0b0b0; fill-opacity: 0.5"/>
    </g>
    <g clip-path="url(#p5ed95ca168)">
     <use xlink:href="#C0_0_eeaba61ec8" x="278.423011" y="310.210695" style="fill: #b0b0b0; fill-opacity: 0.5"/>
    </g>
    <g clip-path="url(#p5ed95ca168)">
     <use xlink:href="#C0_0_eeaba61ec8" x="192.477814" y="54.000721" style="fill: #b0b0b0; fill-opacity: 0.5"/>
    </g>
    <g clip-path="url(#p5ed95ca168)">
     <use xlink:href="#C0_0_eeaba61ec8" x="196.743681" y="192.29776" style="fill: #b0b0b0; fill-opacity: 0.5"/>
    </g>
    <g clip-path="url(#p5ed95ca168)">
     <use xlink:href="#C0_0_eeaba61ec8" x="230.252582" y="182.738863" style="fill: #b0b0b0; fill-opacity: 0.5"/>
    </g>
    <g clip-path="url(#p5ed95ca168)">
     <use xlink:href="#C0_0_eeaba61ec8" x="333.782418" y="205.998262" style="fill: #b0b0b0; fill-opacity: 0.5"/>
    </g>
    <g clip-path="url(#p5ed95ca168)">
     <use xlink:href="#C0_0_eeaba61ec8" x="292.112532" y="365.296811" style="fill: #b0b0b0; fill-opacity: 0.5"/>
    </g>
    <g clip-path="url(#p5ed95ca168)">
     <use xlink:href="#C0_0_eeaba61ec8" x="226.372295" y="165.962277" style="fill: #b0b0b0; fill-opacity: 0.5"/>
    </g>
    <g clip-path="url(#p5ed95ca168)">
     <use xlink:href="#C0_0_eeaba61ec8" x="516.045985" y="51.868342" style="fill: #b0b0b0; fill-opacity: 0.5"/>
    </g>
    <g clip-path="url(#p5ed95ca168)">
     <use xlink:href="#C0_0_eeaba61ec8" x="337.2817" y="264.824579" style="fill: #b0b0b0; fill-opacity: 0.5"/>
    </g>
    <g clip-path="url(#p5ed95ca168)">
     <use xlink:href="#C0_0_eeaba61ec8" x="244.153195" y="265.546371" style="fill: #b0b0b0; fill-opacity: 0.5"/>
    </g>
    <g clip-path="url(#p5ed95ca168)">
     <use xlink:href="#C0_0_eeaba61ec8" x="256.185284" y="167.666749" style="fill: #b0b0b0; fill-opacity: 0.5"/>
    </g>
    <g clip-path="url(#p5ed95ca168)">
     <use xlink:href="#C0_0_eeaba61ec8" x="269.784167" y="272.81404" style="fill: #b0b0b0; fill-opacity: 0.5"/>
    </g>
    <g clip-path="url(#p5ed95ca168)">
     <use xlink:href="#C0_0_eeaba61ec8" x="187.953655" y="55.932985" style="fill: #b0b0b0; fill-opacity: 0.5"/>
    </g>
    <g clip-path="url(#p5ed95ca168)">
     <use xlink:href="#C0_0_eeaba61ec8" x="267.949589" y="221.883782" style="fill: #b0b0b0; fill-opacity: 0.5"/>
    </g>
    <g clip-path="url(#p5ed95ca168)">
     <use xlink:href="#C0_0_eeaba61ec8" x="239.726794" y="70.117112" style="fill: #b0b0b0; fill-opacity: 0.5"/>
    </g>
    <g clip-path="url(#p5ed95ca168)">
     <use xlink:href="#C0_0_eeaba61ec8" x="337.45346" y="286.942903" style="fill: #b0b0b0; fill-opacity: 0.5"/>
    </g>
    <g clip-path="url(#p5ed95ca168)">
     <use xlink:href="#C0_0_eeaba61ec8" x="287.177551" y="329.565832" style="fill: #b0b0b0; fill-opacity: 0.5"/>
    </g>
    <g clip-path="url(#p5ed95ca168)">
     <use xlink:href="#C0_0_eeaba61ec8" x="312.955822" y="316.482436" style="fill: #b0b0b0; fill-opacity: 0.5"/>
    </g>
    <g clip-path="url(#p5ed95ca168)">
     <use xlink:href="#C0_0_eeaba61ec8" x="224.529924" y="86.61116" style="fill: #b0b0b0; fill-opacity: 0.5"/>
    </g>
    <g clip-path="url(#p5ed95ca168)">
     <use xlink:href="#C0_0_eeaba61ec8" x="154.000999" y="51.868342" style="fill: #b0b0b0; fill-opacity: 0.5"/>
    </g>
    <g clip-path="url(#p5ed95ca168)">
     <use xlink:href="#C0_0_eeaba61ec8" x="276.639543" y="282.943918" style="fill: #b0b0b0; fill-opacity: 0.5"/>
    </g>
    <g clip-path="url(#p5ed95ca168)">
     <use xlink:href="#C0_0_eeaba61ec8" x="129.736916" y="51.844069" style="fill: #b0b0b0; fill-opacity: 0.5"/>
    </g>
    <g clip-path="url(#p5ed95ca168)">
     <use xlink:href="#C0_0_eeaba61ec8" x="280.924014" y="316.102375" style="fill: #b0b0b0; fill-opacity: 0.5"/>
    </g>
    <g clip-path="url(#p5ed95ca168)">
     <use xlink:href="#C0_0_eeaba61ec8" x="263.261611" y="127.701184" style="fill: #b0b0b0; fill-opacity: 0.5"/>
    </g>
    <g clip-path="url(#p5ed95ca168)">
     <use xlink:href="#C0_0_eeaba61ec8" x="201.216183" y="56.005329" style="fill: #b0b0b0; fill-opacity: 0.5"/>
    </g>
    <g clip-path="url(#p5ed95ca168)">
     <use xlink:href="#C0_0_eeaba61ec8" x="221.953839" y="53.831364" style="fill: #b0b0b0; fill-opacity: 0.5"/>
    </g>
    <g clip-path="url(#p5ed95ca168)">
     <use xlink:href="#C0_0_eeaba61ec8" x="264.464204" y="118.708591" style="fill: #b0b0b0; fill-opacity: 0.5"/>
    </g>
    <g clip-path="url(#p5ed95ca168)">
     <use xlink:href="#C0_0_eeaba61ec8" x="201.039364" y="59.156169" style="fill: #b0b0b0; fill-opacity: 0.5"/>
    </g>
    <g clip-path="url(#p5ed95ca168)">
     <use xlink:href="#C0_0_eeaba61ec8" x="363.116003" y="58.748184" style="fill: #b0b0b0; fill-opacity: 0.5"/>
    </g>
    <g clip-path="url(#p5ed95ca168)">
     <use xlink:href="#C0_0_eeaba61ec8" x="314.309116" y="284.178635" style="fill: #b0b0b0; fill-opacity: 0.5"/>
    </g>
    <g clip-path="url(#p5ed95ca168)">
     <use xlink:href="#C0_0_eeaba61ec8" x="275.118367" y="320.409594" style="fill: #b0b0b0; fill-opacity: 0.5"/>
    </g>
    <g clip-path="url(#p5ed95ca168)">
     <use xlink:href="#C0_0_eeaba61ec8" x="206.268765" y="63.792928" style="fill: #b0b0b0; fill-opacity: 0.5"/>
    </g>
    <g clip-path="url(#p5ed95ca168)">
     <use xlink:href="#C0_0_eeaba61ec8" x="229.511691" y="121.97435" style="fill: #b0b0b0; fill-opacity: 0.5"/>
    </g>
    <g clip-path="url(#p5ed95ca168)">
     <use xlink:href="#C0_0_eeaba61ec8" x="252.417696" y="144.906165" style="fill: #b0b0b0; fill-opacity: 0.5"/>
    </g>
    <g clip-path="url(#p5ed95ca168)">
     <use xlink:href="#C0_0_eeaba61ec8" x="307.935219" y="306.153132" style="fill: #b0b0b0; fill-opacity: 0.5"/>
    </g>
    <g clip-path="url(#p5ed95ca168)">
     <use xlink:href="#C0_0_eeaba61ec8" x="250.904263" y="220.940696" style="fill: #b0b0b0; fill-opacity: 0.5"/>
    </g>
    <g clip-path="url(#p5ed95ca168)">
     <use xlink:href="#C0_0_eeaba61ec8" x="232.03077" y="203.099001" style="fill: #b0b0b0; fill-opacity: 0.5"/>
    </g>
    <g clip-path="url(#p5ed95ca168)">
     <use xlink:href="#C0_0_eeaba61ec8" x="255.827626" y="162.492584" style="fill: #b0b0b0; fill-opacity: 0.5"/>
    </g>
    <g clip-path="url(#p5ed95ca168)">
     <use xlink:href="#C0_0_eeaba61ec8" x="259.587631" y="77.49284" style="fill: #b0b0b0; fill-opacity: 0.5"/>
    </g>
    <g clip-path="url(#p5ed95ca168)">
     <use xlink:href="#C0_0_eeaba61ec8" x="207.551961" y="261.940606" style="fill: #b0b0b0; fill-opacity: 0.5"/>
    </g>
    <g clip-path="url(#p5ed95ca168)">
     <use xlink:href="#C0_0_eeaba61ec8" x="221.127609" y="63.769117" style="fill: #b0b0b0; fill-opacity: 0.5"/>
    </g>
    <g clip-path="url(#p5ed95ca168)">
     <use xlink:href="#C0_0_eeaba61ec8" x="303.326895" y="357.652049" style="fill: #b0b0b0; fill-opacity: 0.5"/>
    </g>
    <g clip-path="url(#p5ed95ca168)">
     <use xlink:href="#C0_0_eeaba61ec8" x="125.609724" y="51.844069" style="fill: #b0b0b0; fill-opacity: 0.5"/>
    </g>
    <g clip-path="url(#p5ed95ca168)">
     <use xlink:href="#C0_0_eeaba61ec8" x="132.420929" y="51.989694" style="fill: #b0b0b0; fill-opacity: 0.5"/>
    </g>
    <g clip-path="url(#p5ed95ca168)">
     <use xlink:href="#C0_0_eeaba61ec8" x="260.221737" y="284.442066" style="fill: #b0b0b0; fill-opacity: 0.5"/>
    </g>
    <g clip-path="url(#p5ed95ca168)">
     <use xlink:href="#C0_0_eeaba61ec8" x="249.839135" y="105.253493" style="fill: #b0b0b0; fill-opacity: 0.5"/>
    </g>
    <g clip-path="url(#p5ed95ca168)">
     <use xlink:href="#C0_0_eeaba61ec8" x="254.811337" y="94.049805" style="fill: #b0b0b0; fill-opacity: 0.5"/>
    </g>
    <g clip-path="url(#p5ed95ca168)">
     <use xlink:href="#C0_0_eeaba61ec8" x="214.955715" y="92.216483" style="fill: #b0b0b0; fill-opacity: 0.5"/>
    </g>
    <g clip-path="url(#p5ed95ca168)">
     <use xlink:href="#C0_0_eeaba61ec8" x="140.985897" y="63.364189" style="fill: #b0b0b0; fill-opacity: 0.5"/>
    </g>
    <g clip-path="url(#p5ed95ca168)">
     <use xlink:href="#C0_0_eeaba61ec8" x="338.363358" y="125.516338" style="fill: #b0b0b0; fill-opacity: 0.5"/>
    </g>
    <g clip-path="url(#p5ed95ca168)">
     <use xlink:href="#C0_0_eeaba61ec8" x="243.647192" y="97.18164" style="fill: #b0b0b0; fill-opacity: 0.5"/>
    </g>
    <g clip-path="url(#p5ed95ca168)">
     <use xlink:href="#C0_0_eeaba61ec8" x="292.11179" y="367.660188" style="fill: #b0b0b0; fill-opacity: 0.5"/>
    </g>
    <g clip-path="url(#p5ed95ca168)">
     <use xlink:href="#C0_0_eeaba61ec8" x="248.116885" y="77.725476" style="fill: #b0b0b0; fill-opacity: 0.5"/>
    </g>
    <g clip-path="url(#p5ed95ca168)">
     <use xlink:href="#C0_0_eeaba61ec8" x="229.46943" y="141.055691" style="fill: #b0b0b0; fill-opacity: 0.5"/>
    </g>
    <g clip-path="url(#p5ed95ca168)">
     <use xlink:href="#C0_0_eeaba61ec8" x="220.437854" y="75.231432" style="fill: #b0b0b0; fill-opacity: 0.5"/>
    </g>
    <g clip-path="url(#p5ed95ca168)">
     <use xlink:href="#C0_0_eeaba61ec8" x="234.137318" y="68.465509" style="fill: #b0b0b0; fill-opacity: 0.5"/>
    </g>
    <g clip-path="url(#p5ed95ca168)">
     <use xlink:href="#C0_0_eeaba61ec8" x="274.864284" y="266.693283" style="fill: #b0b0b0; fill-opacity: 0.5"/>
    </g>
    <g clip-path="url(#p5ed95ca168)">
     <use xlink:href="#C0_0_eeaba61ec8" x="219.234453" y="101.812249" style="fill: #b0b0b0; fill-opacity: 0.5"/>
    </g>
    <g clip-path="url(#p5ed95ca168)">
     <use xlink:href="#C0_0_eeaba61ec8" x="291.866174" y="361.868294" style="fill: #b0b0b0; fill-opacity: 0.5"/>
    </g>
    <g clip-path="url(#p5ed95ca168)">
     <use xlink:href="#C0_0_eeaba61ec8" x="222.193742" y="78.422827" style="fill: #b0b0b0; fill-opacity: 0.5"/>
    </g>
    <g clip-path="url(#p5ed95ca168)">
     <use xlink:href="#C0_0_eeaba61ec8" x="194.854321" y="58.748184" style="fill: #b0b0b0; fill-opacity: 0.5"/>
    </g>
    <g clip-path="url(#p5ed95ca168)">
     <use xlink:href="#C0_0_eeaba61ec8" x="163.113163" y="56.439216" style="fill: #b0b0b0; fill-opacity: 0.5"/>
    </g>
    <g clip-path="url(#p5ed95ca168)">
     <use xlink:href="#C0_0_eeaba61ec8" x="294.879427" y="369.666025" style="fill: #b0b0b0; fill-opacity: 0.5"/>
    </g>
    <g clip-path="url(#p5ed95ca168)">
     <use xlink:href="#C0_0_eeaba61ec8" x="255.791791" y="67.685313" style="fill: #b0b0b0; fill-opacity: 0.5"/>
    </g>
    <g clip-path="url(#p5ed95ca168)">
     <use xlink:href="#C0_0_eeaba61ec8" x="311.290967" y="358.207278" style="fill: #b0b0b0; fill-opacity: 0.5"/>
    </g>
    <g clip-path="url(#p5ed95ca168)">
     <use xlink:href="#C0_0_eeaba61ec8" x="256.954615" y="164.445476" style="fill: #b0b0b0; fill-opacity: 0.5"/>
    </g>
    <g clip-path="url(#p5ed95ca168)">
     <use xlink:href="#C0_0_eeaba61ec8" x="453.745121" y="54.097475" style="fill: #b0b0b0; fill-opacity: 0.5"/>
    </g>
    <g clip-path="url(#p5ed95ca168)">
     <use xlink:href="#C0_0_eeaba61ec8" x="232.70544" y="94.862654" style="fill: #b0b0b0; fill-opacity: 0.5"/>
    </g>
    <g clip-path="url(#p5ed95ca168)">
     <use xlink:href="#C0_0_eeaba61ec8" x="204.559412" y="52.814264" style="fill: #b0b0b0; fill-opacity: 0.5"/>
    </g>
    <g clip-path="url(#p5ed95ca168)">
     <use xlink:href="#C0_0_eeaba61ec8" x="361.059748" y="56.005329" style="fill: #b0b0b0; fill-opacity: 0.5"/>
    </g>
    <g clip-path="url(#p5ed95ca168)">
     <use xlink:href="#C0_0_eeaba61ec8" x="195.609014" y="51.941156" style="fill: #b0b0b0; fill-opacity: 0.5"/>
    </g>
    <g clip-path="url(#p5ed95ca168)">
     <use xlink:href="#C0_0_eeaba61ec8" x="329.772834" y="345.312967" style="fill: #b0b0b0; fill-opacity: 0.5"/>
    </g>
    <g clip-path="url(#p5ed95ca168)">
     <use xlink:href="#C0_0_eeaba61ec8" x="229.957646" y="78.631868" style="fill: #b0b0b0; fill-opacity: 0.5"/>
    </g>
    <g clip-path="url(#p5ed95ca168)">
     <use xlink:href="#C0_0_eeaba61ec8" x="291.168776" y="362.797931" style="fill: #b0b0b0; fill-opacity: 0.5"/>
    </g>
    <g clip-path="url(#p5ed95ca168)">
     <use xlink:href="#C0_0_eeaba61ec8" x="247.87937" y="141.158523" style="fill: #b0b0b0; fill-opacity: 0.5"/>
    </g>
    <g clip-path="url(#p5ed95ca168)">
     <use xlink:href="#C0_0_eeaba61ec8" x="349.561153" y="149.491409" style="fill: #b0b0b0; fill-opacity: 0.5"/>
    </g>
    <g clip-path="url(#p5ed95ca168)">
     <use xlink:href="#C0_0_eeaba61ec8" x="292.169576" y="364.696202" style="fill: #b0b0b0; fill-opacity: 0.5"/>
    </g>
   </g>
   <g id="line2d_27">
    <path d="M 41.570938 351.536191 
L 552.981847 351.536191 
" clip-path="url(#p5ed95ca168)" style="fill: none; stroke-dasharray: 2.96,1.28; stroke-dashoffset: 0; stroke: #808080; stroke-opacity: 0.6; stroke-width: 0.8"/>
   </g>
   <g id="line2d_28">
    <path d="M 294.288468 387.20125 
L 294.288468 35.84925 
" clip-path="url(#p5ed95ca168)" style="fill: none; stroke: #808080; stroke-opacity: 0.5; stroke-width: 0.5; stroke-linecap: square"/>
   </g>
   <g id="patch_3">
    <path d="M 41.570938 387.20125 
L 41.570938 35.84925 
" style="fill: none; stroke: #000000; stroke-width: 0.8; stroke-linejoin: miter; stroke-linecap: square"/>
   </g>
   <g id="patch_4">
    <path d="M 552.981847 387.20125 
L 552.981847 35.84925 
" style="fill: none; stroke: #000000; stroke-width: 0.8; stroke-linejoin: miter; stroke-linecap: square"/>
   </g>
   <g id="patch_5">
    <path d="M 41.570937 387.20125 
L 552.981847 387.20125 
" style="fill: none; stroke: #000000; stroke-width: 0.8; stroke-linejoin: miter; stroke-linecap: square"/>
   </g>
   <g id="patch_6">
    <path d="M 41.570937 35.84925 
L 552.981847 35.84925 
" style="fill: none; stroke: #000000; stroke-width: 0.8; stroke-linejoin: miter; stroke-linecap: square"/>
   </g>
   <g id="patch_7">
    <path d="M 534.708044 48.908135 
Q 533.085056 49.858548 531.462067 50.80896 
" style="fill: none; stroke: #e63946; stroke-width: 0.8; stroke-linecap: round"/>
   </g>
   <g id="text_16">
    <!-- F68 -->
    <g style="fill: #e63946" transform="translate(537.735896 43.819795) scale(0.1 -0.1)">
     <defs>
      <path id="DejaVuSans-Bold-46" d="M 588 4666 
L 3834 4666 
L 3834 3756 
L 1791 3756 
L 1791 2888 
L 3713 2888 
L 3713 1978 
L 1791 1978 
L 1791 0 
L 588 0 
L 588 4666 
z
" transform="scale(0.015625)"/>
      <path id="DejaVuSans-Bold-36" d="M 2316 2303 
Q 2000 2303 1842 2098 
Q 1684 1894 1684 1484 
Q 1684 1075 1842 870 
Q 2000 666 2316 666 
Q 2634 666 2792 870 
Q 2950 1075 2950 1484 
Q 2950 1894 2792 2098 
Q 2634 2303 2316 2303 
z
M 3803 4544 
L 3803 3681 
Q 3506 3822 3243 3889 
Q 2981 3956 2731 3956 
Q 2194 3956 1894 3657 
Q 1594 3359 1544 2772 
Q 1750 2925 1990 3001 
Q 2231 3078 2516 3078 
Q 3231 3078 3670 2659 
Q 4109 2241 4109 1563 
Q 4109 813 3618 361 
Q 3128 -91 2303 -91 
Q 1394 -91 895 523 
Q 397 1138 397 2266 
Q 397 3422 980 4083 
Q 1563 4744 2578 4744 
Q 2900 4744 3203 4694 
Q 3506 4644 3803 4544 
z
" transform="scale(0.015625)"/>
      <path id="DejaVuSans-Bold-38" d="M 2228 2088 
Q 1891 2088 1709 1903 
Q 1528 1719 1528 1375 
Q 1528 1031 1709 848 
Q 1891 666 2228 666 
Q 2563 666 2741 848 
Q 2919 1031 2919 1375 
Q 2919 1722 2741 1905 
Q 2563 2088 2228 2088 
z
M 1350 2484 
Q 925 2613 709 2878 
Q 494 3144 494 3541 
Q 494 4131 934 4440 
Q 1375 4750 2228 4750 
Q 3075 4750 3515 4442 
Q 3956 4134 3956 3541 
Q 3956 3144 3739 2878 
Q 3522 2613 3097 2484 
Q 3572 2353 3814 2058 
Q 4056 1763 4056 1313 
Q 4056 619 3595 264 
Q 3134 -91 2228 -91 
Q 1319 -91 855 264 
Q 391 619 391 1313 
Q 391 1763 633 2058 
Q 875 2353 1350 2484 
z
M 1631 3419 
Q 1631 3141 1786 2991 
Q 1941 2841 2228 2841 
Q 2509 2841 2662 2991 
Q 2816 3141 2816 3419 
Q 2816 3697 2662 3845 
Q 2509 3994 2228 3994 
Q 1941 3994 1786 3844 
Q 1631 3694 1631 3419 
z
" transform="scale(0.015625)"/>
     </defs>
     <use xlink:href="#DejaVuSans-Bold-46"/>
     <use xlink:href="#DejaVuSans-Bold-36" transform="translate(68.310547 0)"/>
     <use xlink:href="#DejaVuSans-Bold-38" transform="translate(137.890625 0)"/>
    </g>
   </g>
   <g id="patch_8">
    <path d="M 399.917974 48.908135 
Q 398.294985 49.858548 396.671997 50.80896 
" style="fill: none; stroke: #e63946; stroke-width: 0.8; stroke-linecap: round"/>
   </g>
   <g id="text_17">
    <!-- F81 -->
    <g style="fill: #e63946" transform="translate(402.945826 43.819795) scale(0.1 -0.1)">
     <defs>
      <path id="DejaVuSans-Bold-31" d="M 750 831 
L 1813 831 
L 1813 3847 
L 722 3622 
L 722 4441 
L 1806 4666 
L 2950 4666 
L 2950 831 
L 4013 831 
L 4013 0 
L 750 0 
L 750 831 
z
" transform="scale(0.015625)"/>
     </defs>
     <use xlink:href="#DejaVuSans-Bold-46"/>
     <use xlink:href="#DejaVuSans-Bold-38" transform="translate(68.310547 0)"/>
     <use xlink:href="#DejaVuSans-Bold-31" transform="translate(137.890625 0)"/>
    </g>
   </g>
   <g id="text_18">
    <!-- Bonferroni p &lt; 0.05 -->
    <g style="fill: #808080" transform="translate(478.525479 349.746563) scale(0.07 -0.07)">
     <defs>
      <path id="DejaVuSans-Oblique-42" d="M 1081 4666 
L 2694 4666 
Q 3350 4666 3675 4422 
Q 4000 4178 4000 3688 
Q 4000 3238 3720 2911 
Q 3441 2584 2988 2516 
Q 3375 2428 3569 2181 
Q 3763 1934 3763 1522 
Q 3763 819 3242 409 
Q 2722 0 1819 0 
L 172 0 
L 1081 4666 
z
M 1234 2228 
L 903 519 
L 1919 519 
Q 2491 519 2800 781 
Q 3109 1044 3109 1522 
Q 3109 1891 2904 2059 
Q 2700 2228 2247 2228 
L 1234 2228 
z
M 1606 4147 
L 1331 2741 
L 2272 2741 
Q 2775 2741 3058 2959 
Q 3341 3178 3341 3566 
Q 3341 3869 3150 4008 
Q 2959 4147 2541 4147 
L 1606 4147 
z
" transform="scale(0.015625)"/>
      <path id="DejaVuSans-Oblique-6f" d="M 1625 -91 
Q 1009 -91 651 289 
Q 294 669 294 1325 
Q 294 1706 417 2101 
Q 541 2497 738 2766 
Q 1047 3184 1428 3384 
Q 1809 3584 2291 3584 
Q 2888 3584 3255 3212 
Q 3622 2841 3622 2241 
Q 3622 1825 3500 1412 
Q 3378 1000 3181 728 
Q 2875 309 2494 109 
Q 2113 -91 1625 -91 
z
M 891 1344 
Q 891 869 1089 633 
Q 1288 397 1691 397 
Q 2269 397 2648 901 
Q 3028 1406 3028 2181 
Q 3028 2634 2825 2865 
Q 2622 3097 2228 3097 
Q 1903 3097 1650 2945 
Q 1397 2794 1197 2484 
Q 1050 2253 970 1956 
Q 891 1659 891 1344 
z
" transform="scale(0.015625)"/>
      <path id="DejaVuSans-Oblique-6e" d="M 3566 2113 
L 3156 0 
L 2578 0 
L 2988 2091 
Q 3016 2238 3031 2350 
Q 3047 2463 3047 2528 
Q 3047 2791 2881 2937 
Q 2716 3084 2419 3084 
Q 1956 3084 1622 2776 
Q 1288 2469 1184 1941 
L 800 0 
L 225 0 
L 903 3500 
L 1478 3500 
L 1363 2950 
Q 1603 3253 1940 3418 
Q 2278 3584 2650 3584 
Q 3113 3584 3367 3334 
Q 3622 3084 3622 2631 
Q 3622 2519 3608 2391 
Q 3594 2263 3566 2113 
z
" transform="scale(0.015625)"/>
      <path id="DejaVuSans-Oblique-66" d="M 3059 4863 
L 2969 4384 
L 2419 4384 
Q 2106 4384 1964 4261 
Q 1822 4138 1753 3809 
L 1691 3500 
L 2638 3500 
L 2553 3053 
L 1606 3053 
L 1013 0 
L 434 0 
L 1031 3053 
L 481 3053 
L 563 3500 
L 1113 3500 
L 1159 3744 
Q 1278 4363 1576 4613 
Q 1875 4863 2516 4863 
L 3059 4863 
z
" transform="scale(0.015625)"/>
      <path id="DejaVuSans-Oblique-65" d="M 3078 2063 
Q 3088 2113 3092 2166 
Q 3097 2219 3097 2272 
Q 3097 2653 2873 2875 
Q 2650 3097 2266 3097 
Q 1838 3097 1509 2826 
Q 1181 2556 1013 2059 
L 3078 2063 
z
M 3578 1613 
L 903 1613 
Q 884 1494 878 1425 
Q 872 1356 872 1306 
Q 872 872 1139 634 
Q 1406 397 1894 397 
Q 2269 397 2603 481 
Q 2938 566 3225 728 
L 3116 159 
Q 2806 34 2476 -28 
Q 2147 -91 1806 -91 
Q 1078 -91 686 257 
Q 294 606 294 1247 
Q 294 1794 489 2264 
Q 684 2734 1063 3103 
Q 1306 3334 1642 3459 
Q 1978 3584 2356 3584 
Q 2950 3584 3301 3228 
Q 3653 2872 3653 2272 
Q 3653 2128 3634 1964 
Q 3616 1800 3578 1613 
z
" transform="scale(0.015625)"/>
      <path id="DejaVuSans-Oblique-72" d="M 2853 2969 
Q 2766 3016 2653 3041 
Q 2541 3066 2413 3066 
Q 1953 3066 1609 2717 
Q 1266 2369 1153 1784 
L 800 0 
L 225 0 
L 909 3500 
L 1484 3500 
L 1375 2956 
Q 1603 3259 1920 3421 
Q 2238 3584 2597 3584 
Q 2691 3584 2781 3573 
Q 2872 3563 2963 3538 
L 2853 2969 
z
" transform="scale(0.015625)"/>
      <path id="DejaVuSans-Oblique-69" d="M 1172 4863 
L 1747 4863 
L 1606 4134 
L 1031 4134 
L 1172 4863 
z
M 909 3500 
L 1484 3500 
L 800 0 
L 225 0 
L 909 3500 
z
" transform="scale(0.015625)"/>
      <path id="DejaVuSans-Oblique-20" transform="scale(0.015625)"/>
      <path id="DejaVuSans-Oblique-70" d="M 3175 2156 
Q 3175 2616 2975 2859 
Q 2775 3103 2400 3103 
Q 2144 3103 1911 2972 
Q 1678 2841 1497 2591 
Q 1319 2344 1212 1994 
Q 1106 1644 1106 1300 
Q 1106 863 1306 627 
Q 1506 391 1875 391 
Q 2147 391 2380 519 
Q 2613 647 2778 891 
Q 2956 1147 3065 1494 
Q 3175 1841 3175 2156 
z
M 1394 2969 
Q 1625 3272 1939 3428 
Q 2253 3584 2638 3584 
Q 3175 3584 3472 3232 
Q 3769 2881 3769 2247 
Q 3769 1728 3584 1258 
Q 3400 788 3053 416 
Q 2822 169 2531 39 
Q 2241 -91 1919 -91 
Q 1547 -91 1294 64 
Q 1041 219 916 525 
L 556 -1331 
L -19 -1331 
L 922 3500 
L 1497 3500 
L 1394 2969 
z
" transform="scale(0.015625)"/>
      <path id="DejaVuSans-Oblique-3c" d="M 4684 3150 
L 1459 2003 
L 4684 863 
L 4684 294 
L 678 1747 
L 678 2266 
L 4684 3719 
L 4684 3150 
z
" transform="scale(0.015625)"/>
      <path id="DejaVuSans-Oblique-30" d="M 2444 4750 
Q 3078 4750 3414 4328 
Q 3750 3906 3750 3116 
Q 3750 2516 3592 1923 
Q 3434 1331 3150 863 
Q 2859 394 2467 151 
Q 2075 -91 1600 -91 
Q 988 -91 653 334 
Q 319 759 319 1544 
Q 319 2138 480 2733 
Q 641 3328 928 3794 
Q 1216 4263 1602 4506 
Q 1988 4750 2444 4750 
z
M 2406 4250 
Q 2169 4250 1955 4123 
Q 1741 3997 1569 3750 
Q 1281 3338 1111 2720 
Q 941 2103 941 1453 
Q 941 938 1123 673 
Q 1306 409 1663 409 
Q 1913 409 2125 536 
Q 2338 663 2509 909 
Q 2794 1319 2961 1936 
Q 3128 2553 3128 3206 
Q 3128 3722 2945 3986 
Q 2763 4250 2406 4250 
z
" transform="scale(0.015625)"/>
      <path id="DejaVuSans-Oblique-2e" d="M 525 794 
L 1184 794 
L 1031 0 
L 372 0 
L 525 794 
z
" transform="scale(0.015625)"/>
      <path id="DejaVuSans-Oblique-35" d="M 3719 4666 
L 3622 4141 
L 1691 4141 
L 1466 2988 
Q 1609 3034 1757 3056 
Q 1906 3078 2059 3078 
Q 2706 3078 3081 2731 
Q 3456 2384 3456 1791 
Q 3456 1375 3264 994 
Q 3072 613 2719 325 
Q 2469 125 2108 17 
Q 1747 -91 1319 -91 
Q 1038 -91 744 -41 
Q 450 9 128 109 
L 244 697 
Q 531 556 820 486 
Q 1109 416 1403 416 
Q 2013 416 2411 781 
Q 2809 1147 2809 1697 
Q 2809 2103 2548 2328 
Q 2288 2553 1819 2553 
Q 1572 2553 1305 2495 
Q 1038 2438 756 2322 
L 1209 4666 
L 3719 4666 
z
" transform="scale(0.015625)"/>
     </defs>
     <use xlink:href="#DejaVuSans-Oblique-42"/>
     <use xlink:href="#DejaVuSans-Oblique-6f" transform="translate(68.603516 0)"/>
     <use xlink:href="#DejaVuSans-Oblique-6e" transform="translate(129.785156 0)"/>
     <use xlink:href="#DejaVuSans-Oblique-66" transform="translate(193.164062 0)"/>
     <use xlink:href="#DejaVuSans-Oblique-65" transform="translate(228.369141 0)"/>
     <use xlink:href="#DejaVuSans-Oblique-72" transform="translate(289.892578 0)"/>
     <use xlink:href="#DejaVuSans-Oblique-72" transform="translate(331.005859 0)"/>
     <use xlink:href="#DejaVuSans-Oblique-6f" transform="translate(372.119141 0)"/>
     <use xlink:href="#DejaVuSans-Oblique-6e" transform="translate(433.300781 0)"/>
     <use xlink:href="#DejaVuSans-Oblique-69" transform="translate(496.679688 0)"/>
     <use xlink:href="#DejaVuSans-Oblique-20" transform="translate(524.462891 0)"/>
     <use xlink:href="#DejaVuSans-Oblique-70" transform="translate(556.25 0)"/>
     <use xlink:href="#DejaVuSans-Oblique-20" transform="translate(619.726562 0)"/>
     <use xlink:href="#DejaVuSans-Oblique-3c" transform="translate(651.513672 0)"/>
     <use xlink:href="#DejaVuSans-Oblique-20" transform="translate(735.302734 0)"/>
     <use xlink:href="#DejaVuSans-Oblique-30" transform="translate(767.089844 0)"/>
     <use xlink:href="#DejaVuSans-Oblique-2e" transform="translate(830.712891 0)"/>
     <use xlink:href="#DejaVuSans-Oblique-30" transform="translate(862.5 0)"/>
     <use xlink:href="#DejaVuSans-Oblique-35" transform="translate(926.123047 0)"/>
    </g>
   </g>
   <g id="text_19">
    <!-- Filter activation changes after boundary suppression -->
    <g transform="translate(117.050455 16.318125) scale(0.12 -0.12)">
     <defs>
      <path id="DejaVuSans-Bold-69" d="M 538 3500 
L 1656 3500 
L 1656 0 
L 538 0 
L 538 3500 
z
M 538 4863 
L 1656 4863 
L 1656 3950 
L 538 3950 
L 538 4863 
z
" transform="scale(0.015625)"/>
      <path id="DejaVuSans-Bold-6c" d="M 538 4863 
L 1656 4863 
L 1656 0 
L 538 0 
L 538 4863 
z
" transform="scale(0.015625)"/>
      <path id="DejaVuSans-Bold-74" d="M 1759 4494 
L 1759 3500 
L 2913 3500 
L 2913 2700 
L 1759 2700 
L 1759 1216 
Q 1759 972 1856 886 
Q 1953 800 2241 800 
L 2816 800 
L 2816 0 
L 1856 0 
Q 1194 0 917 276 
Q 641 553 641 1216 
L 641 2700 
L 84 2700 
L 84 3500 
L 641 3500 
L 641 4494 
L 1759 4494 
z
" transform="scale(0.015625)"/>
      <path id="DejaVuSans-Bold-65" d="M 4031 1759 
L 4031 1441 
L 1416 1441 
Q 1456 1047 1700 850 
Q 1944 653 2381 653 
Q 2734 653 3104 758 
Q 3475 863 3866 1075 
L 3866 213 
Q 3469 63 3072 -14 
Q 2675 -91 2278 -91 
Q 1328 -91 801 392 
Q 275 875 275 1747 
Q 275 2603 792 3093 
Q 1309 3584 2216 3584 
Q 3041 3584 3536 3087 
Q 4031 2591 4031 1759 
z
M 2881 2131 
Q 2881 2450 2695 2645 
Q 2509 2841 2209 2841 
Q 1884 2841 1681 2658 
Q 1478 2475 1428 2131 
L 2881 2131 
z
" transform="scale(0.015625)"/>
      <path id="DejaVuSans-Bold-72" d="M 3138 2547 
Q 2991 2616 2845 2648 
Q 2700 2681 2553 2681 
Q 2122 2681 1889 2404 
Q 1656 2128 1656 1613 
L 1656 0 
L 538 0 
L 538 3500 
L 1656 3500 
L 1656 2925 
Q 1872 3269 2151 3426 
Q 2431 3584 2822 3584 
Q 2878 3584 2943 3579 
Q 3009 3575 3134 3559 
L 3138 2547 
z
" transform="scale(0.015625)"/>
      <path id="DejaVuSans-Bold-20" transform="scale(0.015625)"/>
      <path id="DejaVuSans-Bold-61" d="M 2106 1575 
Q 1756 1575 1579 1456 
Q 1403 1338 1403 1106 
Q 1403 894 1545 773 
Q 1688 653 1941 653 
Q 2256 653 2472 879 
Q 2688 1106 2688 1447 
L 2688 1575 
L 2106 1575 
z
M 3816 1997 
L 3816 0 
L 2688 0 
L 2688 519 
Q 2463 200 2181 54 
Q 1900 -91 1497 -91 
Q 953 -91 614 226 
Q 275 544 275 1050 
Q 275 1666 698 1953 
Q 1122 2241 2028 2241 
L 2688 2241 
L 2688 2328 
Q 2688 2594 2478 2717 
Q 2269 2841 1825 2841 
Q 1466 2841 1156 2769 
Q 847 2697 581 2553 
L 581 3406 
Q 941 3494 1303 3539 
Q 1666 3584 2028 3584 
Q 2975 3584 3395 3211 
Q 3816 2838 3816 1997 
z
" transform="scale(0.015625)"/>
      <path id="DejaVuSans-Bold-63" d="M 3366 3391 
L 3366 2478 
Q 3138 2634 2908 2709 
Q 2678 2784 2431 2784 
Q 1963 2784 1702 2511 
Q 1441 2238 1441 1747 
Q 1441 1256 1702 982 
Q 1963 709 2431 709 
Q 2694 709 2930 787 
Q 3166 866 3366 1019 
L 3366 103 
Q 3103 6 2833 -42 
Q 2563 -91 2291 -91 
Q 1344 -91 809 395 
Q 275 881 275 1747 
Q 275 2613 809 3098 
Q 1344 3584 2291 3584 
Q 2566 3584 2833 3536 
Q 3100 3488 3366 3391 
z
" transform="scale(0.015625)"/>
      <path id="DejaVuSans-Bold-76" d="M 97 3500 
L 1216 3500 
L 2088 1081 
L 2956 3500 
L 4078 3500 
L 2700 0 
L 1472 0 
L 97 3500 
z
" transform="scale(0.015625)"/>
      <path id="DejaVuSans-Bold-6f" d="M 2203 2784 
Q 1831 2784 1636 2517 
Q 1441 2250 1441 1747 
Q 1441 1244 1636 976 
Q 1831 709 2203 709 
Q 2569 709 2762 976 
Q 2956 1244 2956 1747 
Q 2956 2250 2762 2517 
Q 2569 2784 2203 2784 
z
M 2203 3584 
Q 3106 3584 3614 3096 
Q 4122 2609 4122 1747 
Q 4122 884 3614 396 
Q 3106 -91 2203 -91 
Q 1297 -91 786 396 
Q 275 884 275 1747 
Q 275 2609 786 3096 
Q 1297 3584 2203 3584 
z
" transform="scale(0.015625)"/>
      <path id="DejaVuSans-Bold-6e" d="M 4056 2131 
L 4056 0 
L 2931 0 
L 2931 347 
L 2931 1631 
Q 2931 2084 2911 2256 
Q 2891 2428 2841 2509 
Q 2775 2619 2662 2680 
Q 2550 2741 2406 2741 
Q 2056 2741 1856 2470 
Q 1656 2200 1656 1722 
L 1656 0 
L 538 0 
L 538 3500 
L 1656 3500 
L 1656 2988 
Q 1909 3294 2193 3439 
Q 2478 3584 2822 3584 
Q 3428 3584 3742 3212 
Q 4056 2841 4056 2131 
z
" transform="scale(0.015625)"/>
      <path id="DejaVuSans-Bold-68" d="M 4056 2131 
L 4056 0 
L 2931 0 
L 2931 347 
L 2931 1625 
Q 2931 2084 2911 2256 
Q 2891 2428 2841 2509 
Q 2775 2619 2662 2680 
Q 2550 2741 2406 2741 
Q 2056 2741 1856 2470 
Q 1656 2200 1656 1722 
L 1656 0 
L 538 0 
L 538 4863 
L 1656 4863 
L 1656 2988 
Q 1909 3294 2193 3439 
Q 2478 3584 2822 3584 
Q 3428 3584 3742 3212 
Q 4056 2841 4056 2131 
z
" transform="scale(0.015625)"/>
      <path id="DejaVuSans-Bold-67" d="M 2919 594 
Q 2688 288 2409 144 
Q 2131 0 1766 0 
Q 1125 0 706 504 
Q 288 1009 288 1791 
Q 288 2575 706 3076 
Q 1125 3578 1766 3578 
Q 2131 3578 2409 3434 
Q 2688 3291 2919 2981 
L 2919 3500 
L 4044 3500 
L 4044 353 
Q 4044 -491 3511 -936 
Q 2978 -1381 1966 -1381 
Q 1638 -1381 1331 -1331 
Q 1025 -1281 716 -1178 
L 716 -306 
Q 1009 -475 1290 -558 
Q 1572 -641 1856 -641 
Q 2406 -641 2662 -400 
Q 2919 -159 2919 353 
L 2919 594 
z
M 2181 2772 
Q 1834 2772 1640 2515 
Q 1447 2259 1447 1791 
Q 1447 1309 1634 1061 
Q 1822 813 2181 813 
Q 2531 813 2725 1069 
Q 2919 1325 2919 1791 
Q 2919 2259 2725 2515 
Q 2531 2772 2181 2772 
z
" transform="scale(0.015625)"/>
      <path id="DejaVuSans-Bold-73" d="M 3272 3391 
L 3272 2541 
Q 2913 2691 2578 2766 
Q 2244 2841 1947 2841 
Q 1628 2841 1473 2761 
Q 1319 2681 1319 2516 
Q 1319 2381 1436 2309 
Q 1553 2238 1856 2203 
L 2053 2175 
Q 2913 2066 3209 1816 
Q 3506 1566 3506 1031 
Q 3506 472 3093 190 
Q 2681 -91 1863 -91 
Q 1516 -91 1145 -36 
Q 775 19 384 128 
L 384 978 
Q 719 816 1070 734 
Q 1422 653 1784 653 
Q 2113 653 2278 743 
Q 2444 834 2444 1013 
Q 2444 1163 2330 1236 
Q 2216 1309 1875 1350 
L 1678 1375 
Q 931 1469 631 1722 
Q 331 1975 331 2491 
Q 331 3047 712 3315 
Q 1094 3584 1881 3584 
Q 2191 3584 2531 3537 
Q 2872 3491 3272 3391 
z
" transform="scale(0.015625)"/>
      <path id="DejaVuSans-Bold-66" d="M 2841 4863 
L 2841 4128 
L 2222 4128 
Q 1984 4128 1890 4042 
Q 1797 3956 1797 3744 
L 1797 3500 
L 2753 3500 
L 2753 2700 
L 1797 2700 
L 1797 0 
L 678 0 
L 678 2700 
L 122 2700 
L 122 3500 
L 678 3500 
L 678 3744 
Q 678 4316 997 4589 
Q 1316 4863 1984 4863 
L 2841 4863 
z
" transform="scale(0.015625)"/>
      <path id="DejaVuSans-Bold-62" d="M 2400 722 
Q 2759 722 2948 984 
Q 3138 1247 3138 1747 
Q 3138 2247 2948 2509 
Q 2759 2772 2400 2772 
Q 2041 2772 1848 2508 
Q 1656 2244 1656 1747 
Q 1656 1250 1848 986 
Q 2041 722 2400 722 
z
M 1656 2988 
Q 1888 3294 2169 3439 
Q 2450 3584 2816 3584 
Q 3463 3584 3878 3070 
Q 4294 2556 4294 1747 
Q 4294 938 3878 423 
Q 3463 -91 2816 -91 
Q 2450 -91 2169 54 
Q 1888 200 1656 506 
L 1656 0 
L 538 0 
L 538 4863 
L 1656 4863 
L 1656 2988 
z
" transform="scale(0.015625)"/>
      <path id="DejaVuSans-Bold-75" d="M 500 1363 
L 500 3500 
L 1625 3500 
L 1625 3150 
Q 1625 2866 1622 2436 
Q 1619 2006 1619 1863 
Q 1619 1441 1641 1255 
Q 1663 1069 1716 984 
Q 1784 875 1895 815 
Q 2006 756 2150 756 
Q 2500 756 2700 1025 
Q 2900 1294 2900 1772 
L 2900 3500 
L 4019 3500 
L 4019 0 
L 2900 0 
L 2900 506 
Q 2647 200 2364 54 
Q 2081 -91 1741 -91 
Q 1134 -91 817 281 
Q 500 653 500 1363 
z
" transform="scale(0.015625)"/>
      <path id="DejaVuSans-Bold-64" d="M 2919 2988 
L 2919 4863 
L 4044 4863 
L 4044 0 
L 2919 0 
L 2919 506 
Q 2688 197 2409 53 
Q 2131 -91 1766 -91 
Q 1119 -91 703 423 
Q 288 938 288 1747 
Q 288 2556 703 3070 
Q 1119 3584 1766 3584 
Q 2128 3584 2408 3439 
Q 2688 3294 2919 2988 
z
M 2181 722 
Q 2541 722 2730 984 
Q 2919 1247 2919 1747 
Q 2919 2247 2730 2509 
Q 2541 2772 2181 2772 
Q 1825 2772 1636 2509 
Q 1447 2247 1447 1747 
Q 1447 1247 1636 984 
Q 1825 722 2181 722 
z
" transform="scale(0.015625)"/>
      <path id="DejaVuSans-Bold-79" d="M 78 3500 
L 1197 3500 
L 2138 1125 
L 2938 3500 
L 4056 3500 
L 2584 -331 
Q 2363 -916 2067 -1148 
Q 1772 -1381 1288 -1381 
L 641 -1381 
L 641 -647 
L 991 -647 
Q 1275 -647 1404 -556 
Q 1534 -466 1606 -231 
L 1638 -134 
L 78 3500 
z
" transform="scale(0.015625)"/>
      <path id="DejaVuSans-Bold-70" d="M 1656 506 
L 1656 -1331 
L 538 -1331 
L 538 3500 
L 1656 3500 
L 1656 2988 
Q 1888 3294 2169 3439 
Q 2450 3584 2816 3584 
Q 3463 3584 3878 3070 
Q 4294 2556 4294 1747 
Q 4294 938 3878 423 
Q 3463 -91 2816 -91 
Q 2450 -91 2169 54 
Q 1888 200 1656 506 
z
M 2400 2772 
Q 2041 2772 1848 2508 
Q 1656 2244 1656 1747 
Q 1656 1250 1848 986 
Q 2041 722 2400 722 
Q 2759 722 2948 984 
Q 3138 1247 3138 1747 
Q 3138 2247 2948 2509 
Q 2759 2772 2400 2772 
z
" transform="scale(0.015625)"/>
     </defs>
     <use xlink:href="#DejaVuSans-Bold-46"/>
     <use xlink:href="#DejaVuSans-Bold-69" transform="translate(68.310547 0)"/>
     <use xlink:href="#DejaVuSans-Bold-6c" transform="translate(102.587891 0)"/>
     <use xlink:href="#DejaVuSans-Bold-74" transform="translate(136.865234 0)"/>
     <use xlink:href="#DejaVuSans-Bold-65" transform="translate(184.667969 0)"/>
     <use xlink:href="#DejaVuSans-Bold-72" transform="translate(252.490234 0)"/>
     <use xlink:href="#DejaVuSans-Bold-20" transform="translate(301.806641 0)"/>
     <use xlink:href="#DejaVuSans-Bold-61" transform="translate(336.621094 0)"/>
     <use xlink:href="#DejaVuSans-Bold-63" transform="translate(404.101562 0)"/>
     <use xlink:href="#DejaVuSans-Bold-74" transform="translate(463.378906 0)"/>
     <use xlink:href="#DejaVuSans-Bold-69" transform="translate(511.181641 0)"/>
     <use xlink:href="#DejaVuSans-Bold-76" transform="translate(545.458984 0)"/>
     <use xlink:href="#DejaVuSans-Bold-61" transform="translate(610.644531 0)"/>
     <use xlink:href="#DejaVuSans-Bold-74" transform="translate(678.125 0)"/>
     <use xlink:href="#DejaVuSans-Bold-69" transform="translate(725.927734 0)"/>
     <use xlink:href="#DejaVuSans-Bold-6f" transform="translate(760.205078 0)"/>
     <use xlink:href="#DejaVuSans-Bold-6e" transform="translate(828.90625 0)"/>
     <use xlink:href="#DejaVuSans-Bold-20" transform="translate(900.097656 0)"/>
     <use xlink:href="#DejaVuSans-Bold-63" transform="translate(934.912109 0)"/>
     <use xlink:href="#DejaVuSans-Bold-68" transform="translate(994.189453 0)"/>
     <use xlink:href="#DejaVuSans-Bold-61" transform="translate(1065.380859 0)"/>
     <use xlink:href="#DejaVuSans-Bold-6e" transform="translate(1132.861328 0)"/>
     <use xlink:href="#DejaVuSans-Bold-67" transform="translate(1204.052734 0)"/>
     <use xlink:href="#DejaVuSans-Bold-65" transform="translate(1275.634766 0)"/>
     <use xlink:href="#DejaVuSans-Bold-73" transform="translate(1343.457031 0)"/>
     <use xlink:href="#DejaVuSans-Bold-20" transform="translate(1402.978516 0)"/>
     <use xlink:href="#DejaVuSans-Bold-61" transform="translate(1437.792969 0)"/>
     <use xlink:href="#DejaVuSans-Bold-66" transform="translate(1505.273438 0)"/>
     <use xlink:href="#DejaVuSans-Bold-74" transform="translate(1548.779297 0)"/>
     <use xlink:href="#DejaVuSans-Bold-65" transform="translate(1596.582031 0)"/>
     <use xlink:href="#DejaVuSans-Bold-72" transform="translate(1664.404297 0)"/>
     <use xlink:href="#DejaVuSans-Bold-20" transform="translate(1713.720703 0)"/>
     <use xlink:href="#DejaVuSans-Bold-62" transform="translate(1748.535156 0)"/>
     <use xlink:href="#DejaVuSans-Bold-6f" transform="translate(1820.117188 0)"/>
     <use xlink:href="#DejaVuSans-Bold-75" transform="translate(1888.818359 0)"/>
     <use xlink:href="#DejaVuSans-Bold-6e" transform="translate(1960.009766 0)"/>
     <use xlink:href="#DejaVuSans-Bold-64" transform="translate(2031.201172 0)"/>
     <use xlink:href="#DejaVuSans-Bold-61" transform="translate(2102.783203 0)"/>
     <use xlink:href="#DejaVuSans-Bold-72" transform="translate(2170.263672 0)"/>
     <use xlink:href="#DejaVuSans-Bold-79" transform="translate(2219.580078 0)"/>
     <use xlink:href="#DejaVuSans-Bold-20" transform="translate(2284.765625 0)"/>
     <use xlink:href="#DejaVuSans-Bold-73" transform="translate(2319.580078 0)"/>
     <use xlink:href="#DejaVuSans-Bold-75" transform="translate(2379.101562 0)"/>
     <use xlink:href="#DejaVuSans-Bold-70" transform="translate(2450.292969 0)"/>
     <use xlink:href="#DejaVuSans-Bold-70" transform="translate(2521.875 0)"/>
     <use xlink:href="#DejaVuSans-Bold-72" transform="translate(2593.457031 0)"/>
     <use xlink:href="#DejaVuSans-Bold-65" transform="translate(2642.773438 0)"/>
     <use xlink:href="#DejaVuSans-Bold-73" transform="translate(2710.595703 0)"/>
     <use xlink:href="#DejaVuSans-Bold-73" transform="translate(2770.117188 0)"/>
     <use xlink:href="#DejaVuSans-Bold-69" transform="translate(2829.638672 0)"/>
     <use xlink:href="#DejaVuSans-Bold-6f" transform="translate(2863.916016 0)"/>
     <use xlink:href="#DejaVuSans-Bold-6e" transform="translate(2932.617188 0)"/>
    </g>
    <!-- (conv_tower_block3, all filters) -->
    <g transform="translate(193.362955 29.84925) scale(0.12 -0.12)">
     <defs>
      <path id="DejaVuSans-Bold-28" d="M 2413 -844 
L 1484 -844 
Q 1006 -72 778 623 
Q 550 1319 550 2003 
Q 550 2688 779 3389 
Q 1009 4091 1484 4856 
L 2413 4856 
Q 2013 4116 1813 3408 
Q 1613 2700 1613 2009 
Q 1613 1319 1811 609 
Q 2009 -100 2413 -844 
z
" transform="scale(0.015625)"/>
      <path id="DejaVuSans-Bold-5f" d="M 3200 -916 
L 3200 -1509 
L 0 -1509 
L 0 -916 
L 3200 -916 
z
" transform="scale(0.015625)"/>
      <path id="DejaVuSans-Bold-77" d="M 225 3500 
L 1313 3500 
L 1900 1088 
L 2491 3500 
L 3425 3500 
L 4013 1113 
L 4603 3500 
L 5691 3500 
L 4769 0 
L 3547 0 
L 2956 2406 
L 2369 0 
L 1147 0 
L 225 3500 
z
" transform="scale(0.015625)"/>
      <path id="DejaVuSans-Bold-6b" d="M 538 4863 
L 1656 4863 
L 1656 2216 
L 2944 3500 
L 4244 3500 
L 2534 1894 
L 4378 0 
L 3022 0 
L 1656 1459 
L 1656 0 
L 538 0 
L 538 4863 
z
" transform="scale(0.015625)"/>
      <path id="DejaVuSans-Bold-33" d="M 2981 2516 
Q 3453 2394 3698 2092 
Q 3944 1791 3944 1325 
Q 3944 631 3412 270 
Q 2881 -91 1863 -91 
Q 1503 -91 1142 -33 
Q 781 25 428 141 
L 428 1069 
Q 766 900 1098 814 
Q 1431 728 1753 728 
Q 2231 728 2486 893 
Q 2741 1059 2741 1369 
Q 2741 1688 2480 1852 
Q 2219 2016 1709 2016 
L 1228 2016 
L 1228 2791 
L 1734 2791 
Q 2188 2791 2409 2933 
Q 2631 3075 2631 3366 
Q 2631 3634 2415 3781 
Q 2200 3928 1806 3928 
Q 1516 3928 1219 3862 
Q 922 3797 628 3669 
L 628 4550 
Q 984 4650 1334 4700 
Q 1684 4750 2022 4750 
Q 2931 4750 3382 4451 
Q 3834 4153 3834 3553 
Q 3834 3144 3618 2883 
Q 3403 2622 2981 2516 
z
" transform="scale(0.015625)"/>
      <path id="DejaVuSans-Bold-2c" d="M 653 1209 
L 1778 1209 
L 1778 256 
L 1006 -909 
L 341 -909 
L 653 256 
L 653 1209 
z
" transform="scale(0.015625)"/>
      <path id="DejaVuSans-Bold-29" d="M 513 -844 
Q 913 -100 1113 609 
Q 1313 1319 1313 2009 
Q 1313 2700 1113 3408 
Q 913 4116 513 4856 
L 1441 4856 
Q 1916 4091 2145 3389 
Q 2375 2688 2375 2003 
Q 2375 1319 2147 623 
Q 1919 -72 1441 -844 
L 513 -844 
z
" transform="scale(0.015625)"/>
     </defs>
     <use xlink:href="#DejaVuSans-Bold-28"/>
     <use xlink:href="#DejaVuSans-Bold-63" transform="translate(45.703125 0)"/>
     <use xlink:href="#DejaVuSans-Bold-6f" transform="translate(104.980469 0)"/>
     <use xlink:href="#DejaVuSans-Bold-6e" transform="translate(173.681641 0)"/>
     <use xlink:href="#DejaVuSans-Bold-76" transform="translate(244.873047 0)"/>
     <use xlink:href="#DejaVuSans-Bold-5f" transform="translate(310.058594 0)"/>
     <use xlink:href="#DejaVuSans-Bold-74" transform="translate(360.058594 0)"/>
     <use xlink:href="#DejaVuSans-Bold-6f" transform="translate(407.861328 0)"/>
     <use xlink:href="#DejaVuSans-Bold-77" transform="translate(476.5625 0)"/>
     <use xlink:href="#DejaVuSans-Bold-65" transform="translate(568.945312 0)"/>
     <use xlink:href="#DejaVuSans-Bold-72" transform="translate(636.767578 0)"/>
     <use xlink:href="#DejaVuSans-Bold-5f" transform="translate(686.083984 0)"/>
     <use xlink:href="#DejaVuSans-Bold-62" transform="translate(736.083984 0)"/>
     <use xlink:href="#DejaVuSans-Bold-6c" transform="translate(807.666016 0)"/>
     <use xlink:href="#DejaVuSans-Bold-6f" transform="translate(841.943359 0)"/>
     <use xlink:href="#DejaVuSans-Bold-63" transform="translate(910.644531 0)"/>
     <use xlink:href="#DejaVuSans-Bold-6b" transform="translate(969.921875 0)"/>
     <use xlink:href="#DejaVuSans-Bold-33" transform="translate(1036.425781 0)"/>
     <use xlink:href="#DejaVuSans-Bold-2c" transform="translate(1106.005859 0)"/>
     <use xlink:href="#DejaVuSans-Bold-20" transform="translate(1143.994141 0)"/>
     <use xlink:href="#DejaVuSans-Bold-61" transform="translate(1178.808594 0)"/>
     <use xlink:href="#DejaVuSans-Bold-6c" transform="translate(1246.289062 0)"/>
     <use xlink:href="#DejaVuSans-Bold-6c" transform="translate(1280.566406 0)"/>
     <use xlink:href="#DejaVuSans-Bold-20" transform="translate(1314.84375 0)"/>
     <use xlink:href="#DejaVuSans-Bold-66" transform="translate(1349.658203 0)"/>
     <use xlink:href="#DejaVuSans-Bold-69" transform="translate(1393.164062 0)"/>
     <use xlink:href="#DejaVuSans-Bold-6c" transform="translate(1427.441406 0)"/>
     <use xlink:href="#DejaVuSans-Bold-74" transform="translate(1461.71875 0)"/>
     <use xlink:href="#DejaVuSans-Bold-65" transform="translate(1509.521484 0)"/>
     <use xlink:href="#DejaVuSans-Bold-72" transform="translate(1577.34375 0)"/>
     <use xlink:href="#DejaVuSans-Bold-73" transform="translate(1626.660156 0)"/>
     <use xlink:href="#DejaVuSans-Bold-29" transform="translate(1686.181641 0)"/>
    </g>
   </g>
   <g id="PathCollection_2">
    <defs>
     <path id="me4d563d520" d="M -0 7.745967 
L 7.745967 0 
L 0 -7.745967 
L -7.745967 -0 
z
" style="stroke: #000000; stroke-width: 1.2"/>
    </defs>
    <g clip-path="url(#p5ed95ca168)">
     <use xlink:href="#me4d563d520" x="529.735896" y="51.819795" style="fill: #e63946; stroke: #000000; stroke-width: 1.2"/>
    </g>
   </g>
   <g id="PathCollection_3">
    <g clip-path="url(#p5ed95ca168)">
     <use xlink:href="#me4d563d520" x="394.945826" y="51.819795" style="fill: #e63946; stroke: #000000; stroke-width: 1.2"/>
    </g>
   </g>
   <g id="legend_1">
    <g id="patch_9">
     <path d="M 47.870938 69.469875 
L 184.564063 69.469875 
Q 186.364063 69.469875 186.364063 67.669875 
L 186.364063 42.14925 
Q 186.364063 40.34925 184.564063 40.34925 
L 47.870938 40.34925 
Q 46.070938 40.34925 46.070938 42.14925 
L 46.070938 67.669875 
Q 46.070938 69.469875 47.870938 69.469875 
z
" style="fill: #ffffff; opacity: 0.8; stroke: #cccccc; stroke-linejoin: miter"/>
    </g>
    <g id="line2d_29">
     <path d="M 49.670938 47.637844 
L 58.670938 47.637844 
L 67.670938 47.637844 
" style="fill: none; stroke: #ffffff; stroke-width: 1.5; stroke-linecap: square"/>
     <defs>
      <path id="m618ed6bc21" d="M -0 7.071068 
L 7.071068 0 
L 0 -7.071068 
L -7.071068 -0 
z
" style="stroke: #000000; stroke-linejoin: miter"/>
     </defs>
     <g>
      <use xlink:href="#m618ed6bc21" x="58.670938" y="47.637844" style="fill: #e63946; stroke: #000000; stroke-linejoin: miter"/>
     </g>
    </g>
    <g id="text_20">
     <!-- B2+CTCF-specific filters -->
     <g transform="translate(74.870938 50.787844) scale(0.09 -0.09)">
      <defs>
       <path id="DejaVuSans-42" d="M 1259 2228 
L 1259 519 
L 2272 519 
Q 2781 519 3026 730 
Q 3272 941 3272 1375 
Q 3272 1813 3026 2020 
Q 2781 2228 2272 2228 
L 1259 2228 
z
M 1259 4147 
L 1259 2741 
L 2194 2741 
Q 2656 2741 2882 2914 
Q 3109 3088 3109 3444 
Q 3109 3797 2882 3972 
Q 2656 4147 2194 4147 
L 1259 4147 
z
M 628 4666 
L 2241 4666 
Q 2963 4666 3353 4366 
Q 3744 4066 3744 3513 
Q 3744 3084 3544 2831 
Q 3344 2578 2956 2516 
Q 3422 2416 3680 2098 
Q 3938 1781 3938 1306 
Q 3938 681 3513 340 
Q 3088 0 2303 0 
L 628 0 
L 628 4666 
z
" transform="scale(0.015625)"/>
       <path id="DejaVuSans-2b" d="M 2944 4013 
L 2944 2272 
L 4684 2272 
L 4684 1741 
L 2944 1741 
L 2944 0 
L 2419 0 
L 2419 1741 
L 678 1741 
L 678 2272 
L 2419 2272 
L 2419 4013 
L 2944 4013 
z
" transform="scale(0.015625)"/>
       <path id="DejaVuSans-43" d="M 4122 4306 
L 4122 3641 
Q 3803 3938 3442 4084 
Q 3081 4231 2675 4231 
Q 1875 4231 1450 3742 
Q 1025 3253 1025 2328 
Q 1025 1406 1450 917 
Q 1875 428 2675 428 
Q 3081 428 3442 575 
Q 3803 722 4122 1019 
L 4122 359 
Q 3791 134 3420 21 
Q 3050 -91 2638 -91 
Q 1578 -91 968 557 
Q 359 1206 359 2328 
Q 359 3453 968 4101 
Q 1578 4750 2638 4750 
Q 3056 4750 3426 4639 
Q 3797 4528 4122 4306 
z
" transform="scale(0.015625)"/>
       <path id="DejaVuSans-54" d="M -19 4666 
L 3928 4666 
L 3928 4134 
L 2272 4134 
L 2272 0 
L 1638 0 
L 1638 4134 
L -19 4134 
L -19 4666 
z
" transform="scale(0.015625)"/>
       <path id="DejaVuSans-46" d="M 628 4666 
L 3309 4666 
L 3309 4134 
L 1259 4134 
L 1259 2759 
L 3109 2759 
L 3109 2228 
L 1259 2228 
L 1259 0 
L 628 0 
L 628 4666 
z
" transform="scale(0.015625)"/>
       <path id="DejaVuSans-73" d="M 2834 3397 
L 2834 2853 
Q 2591 2978 2328 3040 
Q 2066 3103 1784 3103 
Q 1356 3103 1142 2972 
Q 928 2841 928 2578 
Q 928 2378 1081 2264 
Q 1234 2150 1697 2047 
L 1894 2003 
Q 2506 1872 2764 1633 
Q 3022 1394 3022 966 
Q 3022 478 2636 193 
Q 2250 -91 1575 -91 
Q 1294 -91 989 -36 
Q 684 19 347 128 
L 347 722 
Q 666 556 975 473 
Q 1284 391 1588 391 
Q 1994 391 2212 530 
Q 2431 669 2431 922 
Q 2431 1156 2273 1281 
Q 2116 1406 1581 1522 
L 1381 1569 
Q 847 1681 609 1914 
Q 372 2147 372 2553 
Q 372 3047 722 3315 
Q 1072 3584 1716 3584 
Q 2034 3584 2315 3537 
Q 2597 3491 2834 3397 
z
" transform="scale(0.015625)"/>
      </defs>
      <use xlink:href="#DejaVuSans-42"/>
      <use xlink:href="#DejaVuSans-32" transform="translate(68.603516 0)"/>
      <use xlink:href="#DejaVuSans-2b" transform="translate(132.226562 0)"/>
      <use xlink:href="#DejaVuSans-43" transform="translate(216.015625 0)"/>
      <use xlink:href="#DejaVuSans-54" transform="translate(285.839844 0)"/>
      <use xlink:href="#DejaVuSans-43" transform="translate(341.048828 0)"/>
      <use xlink:href="#DejaVuSans-46" transform="translate(410.873047 0)"/>
      <use xlink:href="#DejaVuSans-2d" transform="translate(468.392578 0)"/>
      <use xlink:href="#DejaVuSans-73" transform="translate(504.476562 0)"/>
      <use xlink:href="#DejaVuSans-70" transform="translate(556.576172 0)"/>
      <use xlink:href="#DejaVuSans-65" transform="translate(620.052734 0)"/>
      <use xlink:href="#DejaVuSans-63" transform="translate(681.576172 0)"/>
      <use xlink:href="#DejaVuSans-69" transform="translate(736.556641 0)"/>
      <use xlink:href="#DejaVuSans-66" transform="translate(764.339844 0)"/>
      <use xlink:href="#DejaVuSans-69" transform="translate(799.544922 0)"/>
      <use xlink:href="#DejaVuSans-63" transform="translate(827.328125 0)"/>
      <use xlink:href="#DejaVuSans-20" transform="translate(882.308594 0)"/>
      <use xlink:href="#DejaVuSans-66" transform="translate(914.095703 0)"/>
      <use xlink:href="#DejaVuSans-69" transform="translate(949.300781 0)"/>
      <use xlink:href="#DejaVuSans-6c" transform="translate(977.083984 0)"/>
      <use xlink:href="#DejaVuSans-74" transform="translate(1004.867188 0)"/>
      <use xlink:href="#DejaVuSans-65" transform="translate(1044.076172 0)"/>
      <use xlink:href="#DejaVuSans-72" transform="translate(1105.599609 0)"/>
      <use xlink:href="#DejaVuSans-73" transform="translate(1146.712891 0)"/>
     </g>
    </g>
    <g id="line2d_30">
     <path d="M 49.670938 60.848156 
L 58.670938 60.848156 
L 67.670938 60.848156 
" style="fill: none; stroke: #ffffff; stroke-width: 1.5; stroke-linecap: square"/>
     <defs>
      <path id="md24078fcbc" d="M 0 4 
C 1.060812 4 2.078319 3.578535 2.828427 2.828427 
C 3.578535 2.078319 4 1.060812 4 0 
C 4 -1.060812 3.578535 -2.078319 2.828427 -2.828427 
C 2.078319 -3.578535 1.060812 -4 0 -4 
C -1.060812 -4 -2.078319 -3.578535 -2.828427 -2.828427 
C -3.578535 -2.078319 -4 -1.060812 -4 0 
C -4 1.060812 -3.578535 2.078319 -2.828427 2.828427 
C -2.078319 3.578535 -1.060812 4 0 4 
z
" style="stroke: #ffffff"/>
     </defs>
     <g>
      <use xlink:href="#md24078fcbc" x="58.670938" y="60.848156" style="fill: #b0b0b0; stroke: #ffffff"/>
     </g>
    </g>
    <g id="text_21">
     <!-- Other filters -->
     <g transform="translate(74.870938 63.998156) scale(0.09 -0.09)">
      <defs>
       <path id="DejaVuSans-4f" d="M 2522 4238 
Q 1834 4238 1429 3725 
Q 1025 3213 1025 2328 
Q 1025 1447 1429 934 
Q 1834 422 2522 422 
Q 3209 422 3611 934 
Q 4013 1447 4013 2328 
Q 4013 3213 3611 3725 
Q 3209 4238 2522 4238 
z
M 2522 4750 
Q 3503 4750 4090 4092 
Q 4678 3434 4678 2328 
Q 4678 1225 4090 567 
Q 3503 -91 2522 -91 
Q 1538 -91 948 565 
Q 359 1222 359 2328 
Q 359 3434 948 4092 
Q 1538 4750 2522 4750 
z
" transform="scale(0.015625)"/>
       <path id="DejaVuSans-68" d="M 3513 2113 
L 3513 0 
L 2938 0 
L 2938 2094 
Q 2938 2591 2744 2837 
Q 2550 3084 2163 3084 
Q 1697 3084 1428 2787 
Q 1159 2491 1159 1978 
L 1159 0 
L 581 0 
L 581 4863 
L 1159 4863 
L 1159 2956 
Q 1366 3272 1645 3428 
Q 1925 3584 2291 3584 
Q 2894 3584 3203 3211 
Q 3513 2838 3513 2113 
z
" transform="scale(0.015625)"/>
      </defs>
      <use xlink:href="#DejaVuSans-4f"/>
      <use xlink:href="#DejaVuSans-74" transform="translate(78.710938 0)"/>
      <use xlink:href="#DejaVuSans-68" transform="translate(117.919922 0)"/>
      <use xlink:href="#DejaVuSans-65" transform="translate(181.298828 0)"/>
      <use xlink:href="#DejaVuSans-72" transform="translate(242.822266 0)"/>
      <use xlink:href="#DejaVuSans-20" transform="translate(283.935547 0)"/>
      <use xlink:href="#DejaVuSans-66" transform="translate(315.722656 0)"/>
      <use xlink:href="#DejaVuSans-69" transform="translate(350.927734 0)"/>
      <use xlink:href="#DejaVuSans-6c" transform="translate(378.710938 0)"/>
      <use xlink:href="#DejaVuSans-74" transform="translate(406.494141 0)"/>
      <use xlink:href="#DejaVuSans-65" transform="translate(445.703125 0)"/>
      <use xlink:href="#DejaVuSans-72" transform="translate(507.226562 0)"/>
      <use xlink:href="#DejaVuSans-73" transform="translate(548.339844 0)"/>
     </g>
    </g>
   </g>
  </g>
 </g>
 <defs>
  <clipPath id="p5ed95ca168">
   <rect x="41.570938" y="35.84925" width="511.410909" height="351.352"/>
  </clipPath>
 </defs>
</svg>
