<?xml version="1.0" encoding="utf-8" standalone="no"?>
<!DOCTYPE svg PUBLIC "-//W3C//DTD SVG 1.1//EN"
  "http://www.w3.org/Graphics/SVG/1.1/DTD/svg11.dtd">
<svg xmlns:xlink="http://www.w3.org/1999/xlink" width="563.938385pt" height="352.173125pt" viewBox="0 0 563.938385 352.173125" xmlns="http://www.w3.org/2000/svg" version="1.1">
 <metadata>
  <rdf:RDF xmlns:dc="http://purl.org/dc/elements/1.1/" xmlns:cc="http://creativecommons.org/ns#" xmlns:rdf="http://www.w3.org/1999/02/22-rdf-syntax-ns#">
   <cc:Work>
    <dc:type rdf:resource="http://purl.org/dc/dcmitype/StillImage"/>
    <dc:date>2025-12-03T11:32:08.832751</dc:date>
    <dc:format>image/svg+xml</dc:format>
    <dc:creator>
     <cc:Agent>
      <dc:title>Matplotlib v3.10.8, https://matplotlib.org/</dc:title>
     </cc:Agent>
    </dc:creator>
   </cc:Work>
  </rdf:RDF>
 </metadata>
 <defs>
  <style type="text/css">*{stroke-linejoin: round; stroke-linecap: butt}</style>
 </defs>
 <g id="figure_1">
  <g id="patch_1">
   <path d="M 0 352.173125 
L 563.938385 352.173125 
L 563.938385 0 
L 0 0 
z
" style="fill: #ffffff"/>
  </g>
  <g id="axes_1">
   <g id="patch_2">
    <path d="M 52.160938 314.33875 
L 550.905938 314.33875 
L 550.905938 7.2 
L 52.160938 7.2 
z
" style="fill: #ffffff"/>
   </g>
   <g id="matplotlib.axis_1">
    <g id="xtick_1">
     <g id="line2d_1">
      <defs>
       <path id="mf3763f6ab4" d="M 0 0 
L 0 3.5 
" style="stroke: #000000; stroke-width: 0.8"/>
      </defs>
      <g>
       <use xlink:href="#mf3763f6ab4" x="93.723021" y="314.33875" style="stroke: #000000; stroke-width: 0.8"/>
      </g>
     </g>
     <g id="text_1">
      <!-- URQ_init -->
      <g transform="translate(72.246458 328.937187) scale(0.1 -0.1)">
       <defs>
        <path id="DejaVuSans-55" d="M 556 4666 
L 1191 4666 
L 1191 1831 
Q 1191 1081 1462 751 
Q 1734 422 2344 422 
Q 2950 422 3222 751 
Q 3494 1081 3494 1831 
L 3494 4666 
L 4128 4666 
L 4128 1753 
Q 4128 841 3676 375 
Q 3225 -91 2344 -91 
Q 1459 -91 1007 375 
Q 556 841 556 1753 
L 556 4666 
z
" transform="scale(0.015625)"/>
        <path id="DejaVuSans-52" d="M 2841 2188 
Q 3044 2119 3236 1894 
Q 3428 1669 3622 1275 
L 4263 0 
L 3584 0 
L 2988 1197 
Q 2756 1666 2539 1819 
Q 2322 1972 1947 1972 
L 1259 1972 
L 1259 0 
L 628 0 
L 628 4666 
L 2053 4666 
Q 2853 4666 3247 4331 
Q 3641 3997 3641 3322 
Q 3641 2881 3436 2590 
Q 3231 2300 2841 2188 
z
M 1259 4147 
L 1259 2491 
L 2053 2491 
Q 2509 2491 2742 2702 
Q 2975 2913 2975 3322 
Q 2975 3731 2742 3939 
Q 2509 4147 2053 4147 
L 1259 4147 
z
" transform="scale(0.015625)"/>
        <path id="DejaVuSans-51" d="M 2522 4238 
Q 1834 4238 1429 3725 
Q 1025 3213 1025 2328 
Q 1025 1447 1429 934 
Q 1834 422 2522 422 
Q 3209 422 3611 934 
Q 4013 1447 4013 2328 
Q 4013 3213 3611 3725 
Q 3209 4238 2522 4238 
z
M 3406 84 
L 4238 -825 
L 3475 -825 
L 2784 -78 
Q 2681 -84 2626 -87 
Q 2572 -91 2522 -91 
Q 1538 -91 948 567 
Q 359 1225 359 2328 
Q 359 3434 948 4092 
Q 1538 4750 2522 4750 
Q 3503 4750 4090 4092 
Q 4678 3434 4678 2328 
Q 4678 1516 4351 937 
Q 4025 359 3406 84 
z
" transform="scale(0.015625)"/>
        <path id="DejaVuSans-5f" d="M 3263 -1063 
L 3263 -1509 
L -63 -1509 
L -63 -1063 
L 3263 -1063 
z
" transform="scale(0.015625)"/>
        <path id="DejaVuSans-69" d="M 603 3500 
L 1178 3500 
L 1178 0 
L 603 0 
L 603 3500 
z
M 603 4863 
L 1178 4863 
L 1178 4134 
L 603 4134 
L 603 4863 
z
" transform="scale(0.015625)"/>
        <path id="DejaVuSans-6e" d="M 3513 2113 
L 3513 0 
L 2938 0 
L 2938 2094 
Q 2938 2591 2744 2837 
Q 2550 3084 2163 3084 
Q 1697 3084 1428 2787 
Q 1159 2491 1159 1978 
L 1159 0 
L 581 0 
L 581 3500 
L 1159 3500 
L 1159 2956 
Q 1366 3272 1645 3428 
Q 1925 3584 2291 3584 
Q 2894 3584 3203 3211 
Q 3513 2838 3513 2113 
z
" transform="scale(0.015625)"/>
        <path id="DejaVuSans-74" d="M 1172 4494 
L 1172 3500 
L 2356 3500 
L 2356 3053 
L 1172 3053 
L 1172 1153 
Q 1172 725 1289 603 
Q 1406 481 1766 481 
L 2356 481 
L 2356 0 
L 1766 0 
Q 1100 0 847 248 
Q 594 497 594 1153 
L 594 3053 
L 172 3053 
L 172 3500 
L 594 3500 
L 594 4494 
L 1172 4494 
z
" transform="scale(0.015625)"/>
       </defs>
       <use xlink:href="#DejaVuSans-55"/>
       <use xlink:href="#DejaVuSans-52" transform="translate(73.193359 0)"/>
       <use xlink:href="#DejaVuSans-51" transform="translate(142.675781 0)"/>
       <use xlink:href="#DejaVuSans-5f" transform="translate(221.386719 0)"/>
       <use xlink:href="#DejaVuSans-69" transform="translate(271.386719 0)"/>
       <use xlink:href="#DejaVuSans-6e" transform="translate(299.169922 0)"/>
       <use xlink:href="#DejaVuSans-69" transform="translate(362.548828 0)"/>
       <use xlink:href="#DejaVuSans-74" transform="translate(390.332031 0)"/>
      </g>
     </g>
    </g>
    <g id="xtick_2">
     <g id="line2d_2">
      <g>
       <use xlink:href="#mf3763f6ab4" x="176.847188" y="314.33875" style="stroke: #000000; stroke-width: 0.8"/>
      </g>
     </g>
     <g id="text_2">
      <!-- -0.2 -->
      <g transform="translate(167.091719 328.937187) scale(0.1 -0.1)">
       <defs>
        <path id="DejaVuSans-2d" d="M 313 2009 
L 1997 2009 
L 1997 1497 
L 313 1497 
L 313 2009 
z
" transform="scale(0.015625)"/>
        <path id="DejaVuSans-30" d="M 2034 4250 
Q 1547 4250 1301 3770 
Q 1056 3291 1056 2328 
Q 1056 1369 1301 889 
Q 1547 409 2034 409 
Q 2525 409 2770 889 
Q 3016 1369 3016 2328 
Q 3016 3291 2770 3770 
Q 2525 4250 2034 4250 
z
M 2034 4750 
Q 2819 4750 3233 4129 
Q 3647 3509 3647 2328 
Q 3647 1150 3233 529 
Q 2819 -91 2034 -91 
Q 1250 -91 836 529 
Q 422 1150 422 2328 
Q 422 3509 836 4129 
Q 1250 4750 2034 4750 
z
" transform="scale(0.015625)"/>
        <path id="DejaVuSans-2e" d="M 684 794 
L 1344 794 
L 1344 0 
L 684 0 
L 684 794 
z
" transform="scale(0.015625)"/>
        <path id="DejaVuSans-32" d="M 1228 531 
L 3431 531 
L 3431 0 
L 469 0 
L 469 531 
Q 828 903 1448 1529 
Q 2069 2156 2228 2338 
Q 2531 2678 2651 2914 
Q 2772 3150 2772 3378 
Q 2772 3750 2511 3984 
Q 2250 4219 1831 4219 
Q 1534 4219 1204 4116 
Q 875 4013 500 3803 
L 500 4441 
Q 881 4594 1212 4672 
Q 1544 4750 1819 4750 
Q 2544 4750 2975 4387 
Q 3406 4025 3406 3419 
Q 3406 3131 3298 2873 
Q 3191 2616 2906 2266 
Q 2828 2175 2409 1742 
Q 1991 1309 1228 531 
z
" transform="scale(0.015625)"/>
       </defs>
       <use xlink:href="#DejaVuSans-2d"/>
       <use xlink:href="#DejaVuSans-30" transform="translate(36.083984 0)"/>
       <use xlink:href="#DejaVuSans-2e" transform="translate(99.707031 0)"/>
       <use xlink:href="#DejaVuSans-32" transform="translate(131.494141 0)"/>
      </g>
     </g>
    </g>
    <g id="xtick_3">
     <g id="line2d_3">
      <g>
       <use xlink:href="#mf3763f6ab4" x="259.971354" y="314.33875" style="stroke: #000000; stroke-width: 0.8"/>
      </g>
     </g>
     <g id="text_3">
      <!-- -0.3 -->
      <g transform="translate(250.215885 328.937187) scale(0.1 -0.1)">
       <defs>
        <path id="DejaVuSans-33" d="M 2597 2516 
Q 3050 2419 3304 2112 
Q 3559 1806 3559 1356 
Q 3559 666 3084 287 
Q 2609 -91 1734 -91 
Q 1441 -91 1130 -33 
Q 819 25 488 141 
L 488 750 
Q 750 597 1062 519 
Q 1375 441 1716 441 
Q 2309 441 2620 675 
Q 2931 909 2931 1356 
Q 2931 1769 2642 2001 
Q 2353 2234 1838 2234 
L 1294 2234 
L 1294 2753 
L 1863 2753 
Q 2328 2753 2575 2939 
Q 2822 3125 2822 3475 
Q 2822 3834 2567 4026 
Q 2313 4219 1838 4219 
Q 1578 4219 1281 4162 
Q 984 4106 628 3988 
L 628 4550 
Q 988 4650 1302 4700 
Q 1616 4750 1894 4750 
Q 2613 4750 3031 4423 
Q 3450 4097 3450 3541 
Q 3450 3153 3228 2886 
Q 3006 2619 2597 2516 
z
" transform="scale(0.015625)"/>
       </defs>
       <use xlink:href="#DejaVuSans-2d"/>
       <use xlink:href="#DejaVuSans-30" transform="translate(36.083984 0)"/>
       <use xlink:href="#DejaVuSans-2e" transform="translate(99.707031 0)"/>
       <use xlink:href="#DejaVuSans-33" transform="translate(131.494141 0)"/>
      </g>
     </g>
    </g>
    <g id="xtick_4">
     <g id="line2d_4">
      <g>
       <use xlink:href="#mf3763f6ab4" x="343.095521" y="314.33875" style="stroke: #000000; stroke-width: 0.8"/>
      </g>
     </g>
     <g id="text_4">
      <!-- -0.4 -->
      <g transform="translate(333.340052 328.937187) scale(0.1 -0.1)">
       <defs>
        <path id="DejaVuSans-34" d="M 2419 4116 
L 825 1625 
L 2419 1625 
L 2419 4116 
z
M 2253 4666 
L 3047 4666 
L 3047 1625 
L 3713 1625 
L 3713 1100 
L 3047 1100 
L 3047 0 
L 2419 0 
L 2419 1100 
L 313 1100 
L 313 1709 
L 2253 4666 
z
" transform="scale(0.015625)"/>
       </defs>
       <use xlink:href="#DejaVuSans-2d"/>
       <use xlink:href="#DejaVuSans-30" transform="translate(36.083984 0)"/>
       <use xlink:href="#DejaVuSans-2e" transform="translate(99.707031 0)"/>
       <use xlink:href="#DejaVuSans-34" transform="translate(131.494141 0)"/>
      </g>
     </g>
    </g>
    <g id="xtick_5">
     <g id="line2d_5">
      <g>
       <use xlink:href="#mf3763f6ab4" x="426.219688" y="314.33875" style="stroke: #000000; stroke-width: 0.8"/>
      </g>
     </g>
     <g id="text_5">
      <!-- -0.5 -->
      <g transform="translate(416.464219 328.937187) scale(0.1 -0.1)">
       <defs>
        <path id="DejaVuSans-35" d="M 691 4666 
L 3169 4666 
L 3169 4134 
L 1269 4134 
L 1269 2991 
Q 1406 3038 1543 3061 
Q 1681 3084 1819 3084 
Q 2600 3084 3056 2656 
Q 3513 2228 3513 1497 
Q 3513 744 3044 326 
Q 2575 -91 1722 -91 
Q 1428 -91 1123 -41 
Q 819 9 494 109 
L 494 744 
Q 775 591 1075 516 
Q 1375 441 1709 441 
Q 2250 441 2565 725 
Q 2881 1009 2881 1497 
Q 2881 1984 2565 2268 
Q 2250 2553 1709 2553 
Q 1456 2553 1204 2497 
Q 953 2441 691 2322 
L 691 4666 
z
" transform="scale(0.015625)"/>
       </defs>
       <use xlink:href="#DejaVuSans-2d"/>
       <use xlink:href="#DejaVuSans-30" transform="translate(36.083984 0)"/>
       <use xlink:href="#DejaVuSans-2e" transform="translate(99.707031 0)"/>
       <use xlink:href="#DejaVuSans-35" transform="translate(131.494141 0)"/>
      </g>
     </g>
    </g>
    <g id="xtick_6">
     <g id="line2d_6">
      <g>
       <use xlink:href="#mf3763f6ab4" x="509.343854" y="314.33875" style="stroke: #000000; stroke-width: 0.8"/>
      </g>
     </g>
     <g id="text_6">
      <!-- natural boundaries -->
      <g transform="translate(461.949323 328.937187) scale(0.1 -0.1)">
       <defs>
        <path id="DejaVuSans-61" d="M 2194 1759 
Q 1497 1759 1228 1600 
Q 959 1441 959 1056 
Q 959 750 1161 570 
Q 1363 391 1709 391 
Q 2188 391 2477 730 
Q 2766 1069 2766 1631 
L 2766 1759 
L 2194 1759 
z
M 3341 1997 
L 3341 0 
L 2766 0 
L 2766 531 
Q 2569 213 2275 61 
Q 1981 -91 1556 -91 
Q 1019 -91 701 211 
Q 384 513 384 1019 
Q 384 1609 779 1909 
Q 1175 2209 1959 2209 
L 2766 2209 
L 2766 2266 
Q 2766 2663 2505 2880 
Q 2244 3097 1772 3097 
Q 1472 3097 1187 3025 
Q 903 2953 641 2809 
L 641 3341 
Q 956 3463 1253 3523 
Q 1550 3584 1831 3584 
Q 2591 3584 2966 3190 
Q 3341 2797 3341 1997 
z
" transform="scale(0.015625)"/>
        <path id="DejaVuSans-75" d="M 544 1381 
L 544 3500 
L 1119 3500 
L 1119 1403 
Q 1119 906 1312 657 
Q 1506 409 1894 409 
Q 2359 409 2629 706 
Q 2900 1003 2900 1516 
L 2900 3500 
L 3475 3500 
L 3475 0 
L 2900 0 
L 2900 538 
Q 2691 219 2414 64 
Q 2138 -91 1772 -91 
Q 1169 -91 856 284 
Q 544 659 544 1381 
z
M 1991 3584 
L 1991 3584 
z
" transform="scale(0.015625)"/>
        <path id="DejaVuSans-72" d="M 2631 2963 
Q 2534 3019 2420 3045 
Q 2306 3072 2169 3072 
Q 1681 3072 1420 2755 
Q 1159 2438 1159 1844 
L 1159 0 
L 581 0 
L 581 3500 
L 1159 3500 
L 1159 2956 
Q 1341 3275 1631 3429 
Q 1922 3584 2338 3584 
Q 2397 3584 2469 3576 
Q 2541 3569 2628 3553 
L 2631 2963 
z
" transform="scale(0.015625)"/>
        <path id="DejaVuSans-6c" d="M 603 4863 
L 1178 4863 
L 1178 0 
L 603 0 
L 603 4863 
z
" transform="scale(0.015625)"/>
        <path id="DejaVuSans-20" transform="scale(0.015625)"/>
        <path id="DejaVuSans-62" d="M 3116 1747 
Q 3116 2381 2855 2742 
Q 2594 3103 2138 3103 
Q 1681 3103 1420 2742 
Q 1159 2381 1159 1747 
Q 1159 1113 1420 752 
Q 1681 391 2138 391 
Q 2594 391 2855 752 
Q 3116 1113 3116 1747 
z
M 1159 2969 
Q 1341 3281 1617 3432 
Q 1894 3584 2278 3584 
Q 2916 3584 3314 3078 
Q 3713 2572 3713 1747 
Q 3713 922 3314 415 
Q 2916 -91 2278 -91 
Q 1894 -91 1617 61 
Q 1341 213 1159 525 
L 1159 0 
L 581 0 
L 581 4863 
L 1159 4863 
L 1159 2969 
z
" transform="scale(0.015625)"/>
        <path id="DejaVuSans-6f" d="M 1959 3097 
Q 1497 3097 1228 2736 
Q 959 2375 959 1747 
Q 959 1119 1226 758 
Q 1494 397 1959 397 
Q 2419 397 2687 759 
Q 2956 1122 2956 1747 
Q 2956 2369 2687 2733 
Q 2419 3097 1959 3097 
z
M 1959 3584 
Q 2709 3584 3137 3096 
Q 3566 2609 3566 1747 
Q 3566 888 3137 398 
Q 2709 -91 1959 -91 
Q 1206 -91 779 398 
Q 353 888 353 1747 
Q 353 2609 779 3096 
Q 1206 3584 1959 3584 
z
" transform="scale(0.015625)"/>
        <path id="DejaVuSans-64" d="M 2906 2969 
L 2906 4863 
L 3481 4863 
L 3481 0 
L 2906 0 
L 2906 525 
Q 2725 213 2448 61 
Q 2172 -91 1784 -91 
Q 1150 -91 751 415 
Q 353 922 353 1747 
Q 353 2572 751 3078 
Q 1150 3584 1784 3584 
Q 2172 3584 2448 3432 
Q 2725 3281 2906 2969 
z
M 947 1747 
Q 947 1113 1208 752 
Q 1469 391 1925 391 
Q 2381 391 2643 752 
Q 2906 1113 2906 1747 
Q 2906 2381 2643 2742 
Q 2381 3103 1925 3103 
Q 1469 3103 1208 2742 
Q 947 2381 947 1747 
z
" transform="scale(0.015625)"/>
        <path id="DejaVuSans-65" d="M 3597 1894 
L 3597 1613 
L 953 1613 
Q 991 1019 1311 708 
Q 1631 397 2203 397 
Q 2534 397 2845 478 
Q 3156 559 3463 722 
L 3463 178 
Q 3153 47 2828 -22 
Q 2503 -91 2169 -91 
Q 1331 -91 842 396 
Q 353 884 353 1716 
Q 353 2575 817 3079 
Q 1281 3584 2069 3584 
Q 2775 3584 3186 3129 
Q 3597 2675 3597 1894 
z
M 3022 2063 
Q 3016 2534 2758 2815 
Q 2500 3097 2075 3097 
Q 1594 3097 1305 2825 
Q 1016 2553 972 2059 
L 3022 2063 
z
" transform="scale(0.015625)"/>
        <path id="DejaVuSans-73" d="M 2834 3397 
L 2834 2853 
Q 2591 2978 2328 3040 
Q 2066 3103 1784 3103 
Q 1356 3103 1142 2972 
Q 928 2841 928 2578 
Q 928 2378 1081 2264 
Q 1234 2150 1697 2047 
L 1894 2003 
Q 2506 1872 2764 1633 
Q 3022 1394 3022 966 
Q 3022 478 2636 193 
Q 2250 -91 1575 -91 
Q 1294 -91 989 -36 
Q 684 19 347 128 
L 347 722 
Q 666 556 975 473 
Q 1284 391 1588 391 
Q 1994 391 2212 530 
Q 2431 669 2431 922 
Q 2431 1156 2273 1281 
Q 2116 1406 1581 1522 
L 1381 1569 
Q 847 1681 609 1914 
Q 372 2147 372 2553 
Q 372 3047 722 3315 
Q 1072 3584 1716 3584 
Q 2034 3584 2315 3537 
Q 2597 3491 2834 3397 
z
" transform="scale(0.015625)"/>
       </defs>
       <use xlink:href="#DejaVuSans-6e"/>
       <use xlink:href="#DejaVuSans-61" transform="translate(63.378906 0)"/>
       <use xlink:href="#DejaVuSans-74" transform="translate(124.658203 0)"/>
       <use xlink:href="#DejaVuSans-75" transform="translate(163.867188 0)"/>
       <use xlink:href="#DejaVuSans-72" transform="translate(227.246094 0)"/>
       <use xlink:href="#DejaVuSans-61" transform="translate(268.359375 0)"/>
       <use xlink:href="#DejaVuSans-6c" transform="translate(329.638672 0)"/>
       <use xlink:href="#DejaVuSans-20" transform="translate(357.421875 0)"/>
       <use xlink:href="#DejaVuSans-62" transform="translate(389.208984 0)"/>
       <use xlink:href="#DejaVuSans-6f" transform="translate(452.685547 0)"/>
       <use xlink:href="#DejaVuSans-75" transform="translate(513.867188 0)"/>
       <use xlink:href="#DejaVuSans-6e" transform="translate(577.246094 0)"/>
       <use xlink:href="#DejaVuSans-64" transform="translate(640.625 0)"/>
       <use xlink:href="#DejaVuSans-61" transform="translate(704.101562 0)"/>
       <use xlink:href="#DejaVuSans-72" transform="translate(765.380859 0)"/>
       <use xlink:href="#DejaVuSans-69" transform="translate(806.494141 0)"/>
       <use xlink:href="#DejaVuSans-65" transform="translate(834.277344 0)"/>
       <use xlink:href="#DejaVuSans-73" transform="translate(895.800781 0)"/>
      </g>
     </g>
    </g>
    <g id="text_7">
     <!-- Boundaries -->
     <g transform="translate(273.342031 342.893437) scale(0.1 -0.1)">
      <defs>
       <path id="DejaVuSans-42" d="M 1259 2228 
L 1259 519 
L 2272 519 
Q 2781 519 3026 730 
Q 3272 941 3272 1375 
Q 3272 1813 3026 2020 
Q 2781 2228 2272 2228 
L 1259 2228 
z
M 1259 4147 
L 1259 2741 
L 2194 2741 
Q 2656 2741 2882 2914 
Q 3109 3088 3109 3444 
Q 3109 3797 2882 3972 
Q 2656 4147 2194 4147 
L 1259 4147 
z
M 628 4666 
L 2241 4666 
Q 2963 4666 3353 4366 
Q 3744 4066 3744 3513 
Q 3744 3084 3544 2831 
Q 3344 2578 2956 2516 
Q 3422 2416 3680 2098 
Q 3938 1781 3938 1306 
Q 3938 681 3513 340 
Q 3088 0 2303 0 
L 628 0 
L 628 4666 
z
" transform="scale(0.015625)"/>
      </defs>
      <use xlink:href="#DejaVuSans-42"/>
      <use xlink:href="#DejaVuSans-6f" transform="translate(68.603516 0)"/>
      <use xlink:href="#DejaVuSans-75" transform="translate(129.785156 0)"/>
      <use xlink:href="#DejaVuSans-6e" transform="translate(193.164062 0)"/>
      <use xlink:href="#DejaVuSans-64" transform="translate(256.542969 0)"/>
      <use xlink:href="#DejaVuSans-61" transform="translate(320.019531 0)"/>
      <use xlink:href="#DejaVuSans-72" transform="translate(381.298828 0)"/>
      <use xlink:href="#DejaVuSans-69" transform="translate(422.412109 0)"/>
      <use xlink:href="#DejaVuSans-65" transform="translate(450.195312 0)"/>
      <use xlink:href="#DejaVuSans-73" transform="translate(511.71875 0)"/>
     </g>
    </g>
   </g>
   <g id="matplotlib.axis_2">
    <g id="ytick_1">
     <g id="line2d_7">
      <defs>
       <path id="maa15787d72" d="M 0 0 
L -3.5 0 
" style="stroke: #000000; stroke-width: 0.8"/>
      </defs>
      <g>
       <use xlink:href="#maa15787d72" x="52.160938" y="301.401639" style="stroke: #000000; stroke-width: 0.8"/>
      </g>
     </g>
     <g id="text_8">
      <!-- −1.0 -->
      <g transform="translate(20.878125 305.200857) scale(0.1 -0.1)">
       <defs>
        <path id="DejaVuSans-2212" d="M 678 2272 
L 4684 2272 
L 4684 1741 
L 678 1741 
L 678 2272 
z
" transform="scale(0.015625)"/>
        <path id="DejaVuSans-31" d="M 794 531 
L 1825 531 
L 1825 4091 
L 703 3866 
L 703 4441 
L 1819 4666 
L 2450 4666 
L 2450 531 
L 3481 531 
L 3481 0 
L 794 0 
L 794 531 
z
" transform="scale(0.015625)"/>
       </defs>
       <use xlink:href="#DejaVuSans-2212"/>
       <use xlink:href="#DejaVuSans-31" transform="translate(83.789062 0)"/>
       <use xlink:href="#DejaVuSans-2e" transform="translate(147.412109 0)"/>
       <use xlink:href="#DejaVuSans-30" transform="translate(179.199219 0)"/>
      </g>
     </g>
    </g>
    <g id="ytick_2">
     <g id="line2d_8">
      <g>
       <use xlink:href="#maa15787d72" x="52.160938" y="255.419334" style="stroke: #000000; stroke-width: 0.8"/>
      </g>
     </g>
     <g id="text_9">
      <!-- −0.8 -->
      <g transform="translate(20.878125 259.218553) scale(0.1 -0.1)">
       <defs>
        <path id="DejaVuSans-38" d="M 2034 2216 
Q 1584 2216 1326 1975 
Q 1069 1734 1069 1313 
Q 1069 891 1326 650 
Q 1584 409 2034 409 
Q 2484 409 2743 651 
Q 3003 894 3003 1313 
Q 3003 1734 2745 1975 
Q 2488 2216 2034 2216 
z
M 1403 2484 
Q 997 2584 770 2862 
Q 544 3141 544 3541 
Q 544 4100 942 4425 
Q 1341 4750 2034 4750 
Q 2731 4750 3128 4425 
Q 3525 4100 3525 3541 
Q 3525 3141 3298 2862 
Q 3072 2584 2669 2484 
Q 3125 2378 3379 2068 
Q 3634 1759 3634 1313 
Q 3634 634 3220 271 
Q 2806 -91 2034 -91 
Q 1263 -91 848 271 
Q 434 634 434 1313 
Q 434 1759 690 2068 
Q 947 2378 1403 2484 
z
M 1172 3481 
Q 1172 3119 1398 2916 
Q 1625 2713 2034 2713 
Q 2441 2713 2670 2916 
Q 2900 3119 2900 3481 
Q 2900 3844 2670 4047 
Q 2441 4250 2034 4250 
Q 1625 4250 1398 4047 
Q 1172 3844 1172 3481 
z
" transform="scale(0.015625)"/>
       </defs>
       <use xlink:href="#DejaVuSans-2212"/>
       <use xlink:href="#DejaVuSans-30" transform="translate(83.789062 0)"/>
       <use xlink:href="#DejaVuSans-2e" transform="translate(147.412109 0)"/>
       <use xlink:href="#DejaVuSans-38" transform="translate(179.199219 0)"/>
      </g>
     </g>
    </g>
    <g id="ytick_3">
     <g id="line2d_9">
      <g>
       <use xlink:href="#maa15787d72" x="52.160938" y="209.43703" style="stroke: #000000; stroke-width: 0.8"/>
      </g>
     </g>
     <g id="text_10">
      <!-- −0.6 -->
      <g transform="translate(20.878125 213.236249) scale(0.1 -0.1)">
       <defs>
        <path id="DejaVuSans-36" d="M 2113 2584 
Q 1688 2584 1439 2293 
Q 1191 2003 1191 1497 
Q 1191 994 1439 701 
Q 1688 409 2113 409 
Q 2538 409 2786 701 
Q 3034 994 3034 1497 
Q 3034 2003 2786 2293 
Q 2538 2584 2113 2584 
z
M 3366 4563 
L 3366 3988 
Q 3128 4100 2886 4159 
Q 2644 4219 2406 4219 
Q 1781 4219 1451 3797 
Q 1122 3375 1075 2522 
Q 1259 2794 1537 2939 
Q 1816 3084 2150 3084 
Q 2853 3084 3261 2657 
Q 3669 2231 3669 1497 
Q 3669 778 3244 343 
Q 2819 -91 2113 -91 
Q 1303 -91 875 529 
Q 447 1150 447 2328 
Q 447 3434 972 4092 
Q 1497 4750 2381 4750 
Q 2619 4750 2861 4703 
Q 3103 4656 3366 4563 
z
" transform="scale(0.015625)"/>
       </defs>
       <use xlink:href="#DejaVuSans-2212"/>
       <use xlink:href="#DejaVuSans-30" transform="translate(83.789062 0)"/>
       <use xlink:href="#DejaVuSans-2e" transform="translate(147.412109 0)"/>
       <use xlink:href="#DejaVuSans-36" transform="translate(179.199219 0)"/>
      </g>
     </g>
    </g>
    <g id="ytick_4">
     <g id="line2d_10">
      <g>
       <use xlink:href="#maa15787d72" x="52.160938" y="163.454725" style="stroke: #000000; stroke-width: 0.8"/>
      </g>
     </g>
     <g id="text_11">
      <!-- −0.4 -->
      <g transform="translate(20.878125 167.253944) scale(0.1 -0.1)">
       <use xlink:href="#DejaVuSans-2212"/>
       <use xlink:href="#DejaVuSans-30" transform="translate(83.789062 0)"/>
       <use xlink:href="#DejaVuSans-2e" transform="translate(147.412109 0)"/>
       <use xlink:href="#DejaVuSans-34" transform="translate(179.199219 0)"/>
      </g>
     </g>
    </g>
    <g id="ytick_5">
     <g id="line2d_11">
      <g>
       <use xlink:href="#maa15787d72" x="52.160938" y="117.472421" style="stroke: #000000; stroke-width: 0.8"/>
      </g>
     </g>
     <g id="text_12">
      <!-- −0.2 -->
      <g transform="translate(20.878125 121.27164) scale(0.1 -0.1)">
       <use xlink:href="#DejaVuSans-2212"/>
       <use xlink:href="#DejaVuSans-30" transform="translate(83.789062 0)"/>
       <use xlink:href="#DejaVuSans-2e" transform="translate(147.412109 0)"/>
       <use xlink:href="#DejaVuSans-32" transform="translate(179.199219 0)"/>
      </g>
     </g>
    </g>
    <g id="ytick_6">
     <g id="line2d_12">
      <g>
       <use xlink:href="#maa15787d72" x="52.160938" y="71.490117" style="stroke: #000000; stroke-width: 0.8"/>
      </g>
     </g>
     <g id="text_13">
      <!-- 0.0 -->
      <g transform="translate(29.257813 75.289336) scale(0.1 -0.1)">
       <use xlink:href="#DejaVuSans-30"/>
       <use xlink:href="#DejaVuSans-2e" transform="translate(63.623047 0)"/>
       <use xlink:href="#DejaVuSans-30" transform="translate(95.410156 0)"/>
      </g>
     </g>
    </g>
    <g id="ytick_7">
     <g id="line2d_13">
      <g>
       <use xlink:href="#maa15787d72" x="52.160938" y="25.507812" style="stroke: #000000; stroke-width: 0.8"/>
      </g>
     </g>
     <g id="text_14">
      <!-- 0.2 -->
      <g transform="translate(29.257813 29.307031) scale(0.1 -0.1)">
       <use xlink:href="#DejaVuSans-30"/>
       <use xlink:href="#DejaVuSans-2e" transform="translate(63.623047 0)"/>
       <use xlink:href="#DejaVuSans-32" transform="translate(95.410156 0)"/>
      </g>
     </g>
    </g>
    <g id="text_15">
     <!-- URQ Mean -->
     <g transform="translate(14.798438 187.051406) rotate(-90) scale(0.1 -0.1)">
      <defs>
       <path id="DejaVuSans-4d" d="M 628 4666 
L 1569 4666 
L 2759 1491 
L 3956 4666 
L 4897 4666 
L 4897 0 
L 4281 0 
L 4281 4097 
L 3078 897 
L 2444 897 
L 1241 4097 
L 1241 0 
L 628 0 
L 628 4666 
z
" transform="scale(0.015625)"/>
      </defs>
      <use xlink:href="#DejaVuSans-55"/>
      <use xlink:href="#DejaVuSans-52" transform="translate(73.193359 0)"/>
      <use xlink:href="#DejaVuSans-51" transform="translate(142.675781 0)"/>
      <use xlink:href="#DejaVuSans-20" transform="translate(221.386719 0)"/>
      <use xlink:href="#DejaVuSans-4d" transform="translate(253.173828 0)"/>
      <use xlink:href="#DejaVuSans-65" transform="translate(339.453125 0)"/>
      <use xlink:href="#DejaVuSans-61" transform="translate(400.976562 0)"/>
      <use xlink:href="#DejaVuSans-6e" transform="translate(462.255859 0)"/>
     </g>
    </g>
   </g>
   <g id="patch_3">
    <path d="M 60.473354 94.702084 
L 126.972688 94.702084 
L 126.972688 65.580975 
L 60.473354 65.580975 
L 60.473354 94.702084 
z
" clip-path="url(#pe66880f689)" style="fill: #3274a1; stroke: #3f3f3f; stroke-linejoin: miter"/>
   </g>
   <g id="line2d_14">
    <path d="M 93.723021 94.702084 
L 93.723021 138.118545 
" clip-path="url(#pe66880f689)" style="fill: none; stroke: #3f3f3f"/>
   </g>
   <g id="line2d_15">
    <path d="M 93.723021 65.580975 
L 93.723021 39.773586 
" clip-path="url(#pe66880f689)" style="fill: none; stroke: #3f3f3f"/>
   </g>
   <g id="line2d_16">
    <path d="M 77.098188 138.118545 
L 110.347854 138.118545 
" clip-path="url(#pe66880f689)" style="fill: none; stroke: #3f3f3f; stroke-linecap: square"/>
   </g>
   <g id="line2d_17">
    <path d="M 77.098188 39.773586 
L 110.347854 39.773586 
" clip-path="url(#pe66880f689)" style="fill: none; stroke: #3f3f3f; stroke-linecap: square"/>
   </g>
   <g id="line2d_18">
    <defs>
     <path id="mc512278d98" d="M 0 3 
C 0.795609 3 1.55874 2.683901 2.12132 2.12132 
C 2.683901 1.55874 3 0.795609 3 0 
C 3 -0.795609 2.683901 -1.55874 2.12132 -2.12132 
C 1.55874 -2.683901 0.795609 -3 0 -3 
C -0.795609 -3 -1.55874 -2.683901 -2.12132 -2.12132 
C -2.683901 -1.55874 -3 -0.795609 -3 0 
C -3 0.795609 -2.683901 1.55874 -2.12132 2.12132 
C -1.55874 2.683901 -0.795609 3 0 3 
z
" style="stroke: #3f3f3f"/>
    </defs>
    <g clip-path="url(#pe66880f689)">
     <use xlink:href="#mc512278d98" x="93.723021" y="158.055621" style="fill-opacity: 0; stroke: #3f3f3f"/>
     <use xlink:href="#mc512278d98" x="93.723021" y="151.374634" style="fill-opacity: 0; stroke: #3f3f3f"/>
     <use xlink:href="#mc512278d98" x="93.723021" y="157.613846" style="fill-opacity: 0; stroke: #3f3f3f"/>
     <use xlink:href="#mc512278d98" x="93.723021" y="167.284992" style="fill-opacity: 0; stroke: #3f3f3f"/>
     <use xlink:href="#mc512278d98" x="93.723021" y="149.188837" style="fill-opacity: 0; stroke: #3f3f3f"/>
     <use xlink:href="#mc512278d98" x="93.723021" y="144.701935" style="fill-opacity: 0; stroke: #3f3f3f"/>
    </g>
   </g>
   <g id="patch_4">
    <path d="M 143.597521 124.436233 
L 210.096854 124.436233 
L 210.096854 100.340978 
L 143.597521 100.340978 
L 143.597521 124.436233 
z
" clip-path="url(#pe66880f689)" style="fill: #3274a1; stroke: #3f3f3f; stroke-linejoin: miter"/>
   </g>
   <g id="line2d_19">
    <path d="M 176.847188 124.436233 
L 176.847188 158.208558 
" clip-path="url(#pe66880f689)" style="fill: none; stroke: #3f3f3f"/>
   </g>
   <g id="line2d_20">
    <path d="M 176.847188 100.340978 
L 176.847188 71.264811 
" clip-path="url(#pe66880f689)" style="fill: none; stroke: #3f3f3f"/>
   </g>
   <g id="line2d_21">
    <path d="M 160.222354 158.208558 
L 193.472021 158.208558 
" clip-path="url(#pe66880f689)" style="fill: none; stroke: #3f3f3f; stroke-linecap: square"/>
   </g>
   <g id="line2d_22">
    <path d="M 160.222354 71.264811 
L 193.472021 71.264811 
" clip-path="url(#pe66880f689)" style="fill: none; stroke: #3f3f3f; stroke-linecap: square"/>
   </g>
   <g id="line2d_23">
    <g clip-path="url(#pe66880f689)">
     <use xlink:href="#mc512278d98" x="176.847188" y="167.883828" style="fill-opacity: 0; stroke: #3f3f3f"/>
     <use xlink:href="#mc512278d98" x="176.847188" y="167.035689" style="fill-opacity: 0; stroke: #3f3f3f"/>
     <use xlink:href="#mc512278d98" x="176.847188" y="189.590355" style="fill-opacity: 0; stroke: #3f3f3f"/>
     <use xlink:href="#mc512278d98" x="176.847188" y="174.92958" style="fill-opacity: 0; stroke: #3f3f3f"/>
     <use xlink:href="#mc512278d98" x="176.847188" y="167.177096" style="fill-opacity: 0; stroke: #3f3f3f"/>
     <use xlink:href="#mc512278d98" x="176.847188" y="165.788235" style="fill-opacity: 0; stroke: #3f3f3f"/>
     <use xlink:href="#mc512278d98" x="176.847188" y="167.717768" style="fill-opacity: 0; stroke: #3f3f3f"/>
     <use xlink:href="#mc512278d98" x="176.847188" y="173.204629" style="fill-opacity: 0; stroke: #3f3f3f"/>
    </g>
   </g>
   <g id="patch_5">
    <path d="M 226.721688 132.240734 
L 293.221021 132.240734 
L 293.221021 110.458582 
L 226.721688 110.458582 
L 226.721688 132.240734 
z
" clip-path="url(#pe66880f689)" style="fill: #3274a1; stroke: #3f3f3f; stroke-linejoin: miter"/>
   </g>
   <g id="line2d_24">
    <path d="M 259.971354 132.240734 
L 259.971354 164.298119 
" clip-path="url(#pe66880f689)" style="fill: none; stroke: #3f3f3f"/>
   </g>
   <g id="line2d_25">
    <path d="M 259.971354 110.458582 
L 259.971354 89.320551 
" clip-path="url(#pe66880f689)" style="fill: none; stroke: #3f3f3f"/>
   </g>
   <g id="line2d_26">
    <path d="M 243.346521 164.298119 
L 276.596188 164.298119 
" clip-path="url(#pe66880f689)" style="fill: none; stroke: #3f3f3f; stroke-linecap: square"/>
   </g>
   <g id="line2d_27">
    <path d="M 243.346521 89.320551 
L 276.596188 89.320551 
" clip-path="url(#pe66880f689)" style="fill: none; stroke: #3f3f3f; stroke-linecap: square"/>
   </g>
   <g id="line2d_28">
    <g clip-path="url(#pe66880f689)">
     <use xlink:href="#mc512278d98" x="259.971354" y="165.800559" style="fill-opacity: 0; stroke: #3f3f3f"/>
     <use xlink:href="#mc512278d98" x="259.971354" y="169.869855" style="fill-opacity: 0; stroke: #3f3f3f"/>
     <use xlink:href="#mc512278d98" x="259.971354" y="177.256606" style="fill-opacity: 0; stroke: #3f3f3f"/>
     <use xlink:href="#mc512278d98" x="259.971354" y="193.169088" style="fill-opacity: 0; stroke: #3f3f3f"/>
     <use xlink:href="#mc512278d98" x="259.971354" y="175.039264" style="fill-opacity: 0; stroke: #3f3f3f"/>
     <use xlink:href="#mc512278d98" x="259.971354" y="172.060983" style="fill-opacity: 0; stroke: #3f3f3f"/>
     <use xlink:href="#mc512278d98" x="259.971354" y="178.012755" style="fill-opacity: 0; stroke: #3f3f3f"/>
     <use xlink:href="#mc512278d98" x="259.971354" y="165.390443" style="fill-opacity: 0; stroke: #3f3f3f"/>
     <use xlink:href="#mc512278d98" x="259.971354" y="175.78671" style="fill-opacity: 0; stroke: #3f3f3f"/>
     <use xlink:href="#mc512278d98" x="259.971354" y="169.151381" style="fill-opacity: 0; stroke: #3f3f3f"/>
     <use xlink:href="#mc512278d98" x="259.971354" y="179.147175" style="fill-opacity: 0; stroke: #3f3f3f"/>
     <use xlink:href="#mc512278d98" x="259.971354" y="63.986285" style="fill-opacity: 0; stroke: #3f3f3f"/>
    </g>
   </g>
   <g id="patch_6">
    <path d="M 309.845854 141.348166 
L 376.345188 141.348166 
L 376.345188 117.442459 
L 309.845854 117.442459 
L 309.845854 141.348166 
z
" clip-path="url(#pe66880f689)" style="fill: #3274a1; stroke: #3f3f3f; stroke-linejoin: miter"/>
   </g>
   <g id="line2d_29">
    <path d="M 343.095521 141.348166 
L 343.095521 176.34797 
" clip-path="url(#pe66880f689)" style="fill: none; stroke: #3f3f3f"/>
   </g>
   <g id="line2d_30">
    <path d="M 343.095521 117.442459 
L 343.095521 91.107766 
" clip-path="url(#pe66880f689)" style="fill: none; stroke: #3f3f3f"/>
   </g>
   <g id="line2d_31">
    <path d="M 326.470687 176.34797 
L 359.720354 176.34797 
" clip-path="url(#pe66880f689)" style="fill: none; stroke: #3f3f3f; stroke-linecap: square"/>
   </g>
   <g id="line2d_32">
    <path d="M 326.470687 91.107766 
L 359.720354 91.107766 
" clip-path="url(#pe66880f689)" style="fill: none; stroke: #3f3f3f; stroke-linecap: square"/>
   </g>
   <g id="line2d_33">
    <g clip-path="url(#pe66880f689)">
     <use xlink:href="#mc512278d98" x="343.095521" y="178.701671" style="fill-opacity: 0; stroke: #3f3f3f"/>
     <use xlink:href="#mc512278d98" x="343.095521" y="189.144319" style="fill-opacity: 0; stroke: #3f3f3f"/>
     <use xlink:href="#mc512278d98" x="343.095521" y="181.310627" style="fill-opacity: 0; stroke: #3f3f3f"/>
     <use xlink:href="#mc512278d98" x="343.095521" y="192.590987" style="fill-opacity: 0; stroke: #3f3f3f"/>
     <use xlink:href="#mc512278d98" x="343.095521" y="178.872585" style="fill-opacity: 0; stroke: #3f3f3f"/>
     <use xlink:href="#mc512278d98" x="343.095521" y="67.925244" style="fill-opacity: 0; stroke: #3f3f3f"/>
     <use xlink:href="#mc512278d98" x="343.095521" y="76.094232" style="fill-opacity: 0; stroke: #3f3f3f"/>
     <use xlink:href="#mc512278d98" x="343.095521" y="60.680907" style="fill-opacity: 0; stroke: #3f3f3f"/>
    </g>
   </g>
   <g id="patch_7">
    <path d="M 392.970021 150.078728 
L 459.469354 150.078728 
L 459.469354 121.475793 
L 392.970021 121.475793 
L 392.970021 150.078728 
z
" clip-path="url(#pe66880f689)" style="fill: #3274a1; stroke: #3f3f3f; stroke-linejoin: miter"/>
   </g>
   <g id="line2d_34">
    <path d="M 426.219688 150.078728 
L 426.219688 191.368295 
" clip-path="url(#pe66880f689)" style="fill: none; stroke: #3f3f3f"/>
   </g>
   <g id="line2d_35">
    <path d="M 426.219688 121.475793 
L 426.219688 86.891073 
" clip-path="url(#pe66880f689)" style="fill: none; stroke: #3f3f3f"/>
   </g>
   <g id="line2d_36">
    <path d="M 409.594854 191.368295 
L 442.844521 191.368295 
" clip-path="url(#pe66880f689)" style="fill: none; stroke: #3f3f3f; stroke-linecap: square"/>
   </g>
   <g id="line2d_37">
    <path d="M 409.594854 86.891073 
L 442.844521 86.891073 
" clip-path="url(#pe66880f689)" style="fill: none; stroke: #3f3f3f; stroke-linecap: square"/>
   </g>
   <g id="line2d_38">
    <g clip-path="url(#pe66880f689)">
     <use xlink:href="#mc512278d98" x="426.219688" y="200.462893" style="fill-opacity: 0; stroke: #3f3f3f"/>
     <use xlink:href="#mc512278d98" x="426.219688" y="203.142896" style="fill-opacity: 0; stroke: #3f3f3f"/>
     <use xlink:href="#mc512278d98" x="426.219688" y="69.517047" style="fill-opacity: 0; stroke: #3f3f3f"/>
    </g>
   </g>
   <g id="patch_8">
    <path d="M 476.094187 151.657258 
L 542.593521 151.657258 
L 542.593521 102.852697 
L 476.094187 102.852697 
L 476.094187 151.657258 
z
" clip-path="url(#pe66880f689)" style="fill: #3274a1; stroke: #3f3f3f; stroke-linejoin: miter"/>
   </g>
   <g id="line2d_39">
    <path d="M 509.343854 151.657258 
L 509.343854 224.760235 
" clip-path="url(#pe66880f689)" style="fill: none; stroke: #3f3f3f"/>
   </g>
   <g id="line2d_40">
    <path d="M 509.343854 102.852697 
L 509.343854 46.697415 
" clip-path="url(#pe66880f689)" style="fill: none; stroke: #3f3f3f"/>
   </g>
   <g id="line2d_41">
    <path d="M 492.719021 224.760235 
L 525.968687 224.760235 
" clip-path="url(#pe66880f689)" style="fill: none; stroke: #3f3f3f; stroke-linecap: square"/>
   </g>
   <g id="line2d_42">
    <path d="M 492.719021 46.697415 
L 525.968687 46.697415 
" clip-path="url(#pe66880f689)" style="fill: none; stroke: #3f3f3f; stroke-linecap: square"/>
   </g>
   <g id="line2d_43">
    <g clip-path="url(#pe66880f689)">
     <use xlink:href="#mc512278d98" x="509.343854" y="237.485776" style="fill-opacity: 0; stroke: #3f3f3f"/>
     <use xlink:href="#mc512278d98" x="509.343854" y="275.636066" style="fill-opacity: 0; stroke: #3f3f3f"/>
     <use xlink:href="#mc512278d98" x="509.343854" y="225.474393" style="fill-opacity: 0; stroke: #3f3f3f"/>
     <use xlink:href="#mc512278d98" x="509.343854" y="235.675062" style="fill-opacity: 0; stroke: #3f3f3f"/>
     <use xlink:href="#mc512278d98" x="509.343854" y="231.07001" style="fill-opacity: 0; stroke: #3f3f3f"/>
     <use xlink:href="#mc512278d98" x="509.343854" y="227.829186" style="fill-opacity: 0; stroke: #3f3f3f"/>
     <use xlink:href="#mc512278d98" x="509.343854" y="224.96253" style="fill-opacity: 0; stroke: #3f3f3f"/>
     <use xlink:href="#mc512278d98" x="509.343854" y="233.120784" style="fill-opacity: 0; stroke: #3f3f3f"/>
     <use xlink:href="#mc512278d98" x="509.343854" y="245.566867" style="fill-opacity: 0; stroke: #3f3f3f"/>
     <use xlink:href="#mc512278d98" x="509.343854" y="230.994224" style="fill-opacity: 0; stroke: #3f3f3f"/>
     <use xlink:href="#mc512278d98" x="509.343854" y="227.25515" style="fill-opacity: 0; stroke: #3f3f3f"/>
     <use xlink:href="#mc512278d98" x="509.343854" y="266.356455" style="fill-opacity: 0; stroke: #3f3f3f"/>
     <use xlink:href="#mc512278d98" x="509.343854" y="225.4271" style="fill-opacity: 0; stroke: #3f3f3f"/>
     <use xlink:href="#mc512278d98" x="509.343854" y="242.38365" style="fill-opacity: 0; stroke: #3f3f3f"/>
     <use xlink:href="#mc512278d98" x="509.343854" y="246.938496" style="fill-opacity: 0; stroke: #3f3f3f"/>
     <use xlink:href="#mc512278d98" x="509.343854" y="241.708492" style="fill-opacity: 0; stroke: #3f3f3f"/>
     <use xlink:href="#mc512278d98" x="509.343854" y="234.971831" style="fill-opacity: 0; stroke: #3f3f3f"/>
     <use xlink:href="#mc512278d98" x="509.343854" y="231.930722" style="fill-opacity: 0; stroke: #3f3f3f"/>
     <use xlink:href="#mc512278d98" x="509.343854" y="270.181125" style="fill-opacity: 0; stroke: #3f3f3f"/>
     <use xlink:href="#mc512278d98" x="509.343854" y="258.866966" style="fill-opacity: 0; stroke: #3f3f3f"/>
     <use xlink:href="#mc512278d98" x="509.343854" y="245.104738" style="fill-opacity: 0; stroke: #3f3f3f"/>
     <use xlink:href="#mc512278d98" x="509.343854" y="260.177652" style="fill-opacity: 0; stroke: #3f3f3f"/>
     <use xlink:href="#mc512278d98" x="509.343854" y="233.148876" style="fill-opacity: 0; stroke: #3f3f3f"/>
     <use xlink:href="#mc512278d98" x="509.343854" y="271.905427" style="fill-opacity: 0; stroke: #3f3f3f"/>
     <use xlink:href="#mc512278d98" x="509.343854" y="224.931724" style="fill-opacity: 0; stroke: #3f3f3f"/>
     <use xlink:href="#mc512278d98" x="509.343854" y="228.062013" style="fill-opacity: 0; stroke: #3f3f3f"/>
     <use xlink:href="#mc512278d98" x="509.343854" y="264.551926" style="fill-opacity: 0; stroke: #3f3f3f"/>
     <use xlink:href="#mc512278d98" x="509.343854" y="228.587257" style="fill-opacity: 0; stroke: #3f3f3f"/>
     <use xlink:href="#mc512278d98" x="509.343854" y="265.715738" style="fill-opacity: 0; stroke: #3f3f3f"/>
     <use xlink:href="#mc512278d98" x="509.343854" y="248.664856" style="fill-opacity: 0; stroke: #3f3f3f"/>
     <use xlink:href="#mc512278d98" x="509.343854" y="293.457851" style="fill-opacity: 0; stroke: #3f3f3f"/>
     <use xlink:href="#mc512278d98" x="509.343854" y="287.018985" style="fill-opacity: 0; stroke: #3f3f3f"/>
     <use xlink:href="#mc512278d98" x="509.343854" y="272.55552" style="fill-opacity: 0; stroke: #3f3f3f"/>
     <use xlink:href="#mc512278d98" x="509.343854" y="246.900561" style="fill-opacity: 0; stroke: #3f3f3f"/>
     <use xlink:href="#mc512278d98" x="509.343854" y="230.919756" style="fill-opacity: 0; stroke: #3f3f3f"/>
     <use xlink:href="#mc512278d98" x="509.343854" y="227.204086" style="fill-opacity: 0; stroke: #3f3f3f"/>
     <use xlink:href="#mc512278d98" x="509.343854" y="238.368337" style="fill-opacity: 0; stroke: #3f3f3f"/>
     <use xlink:href="#mc512278d98" x="509.343854" y="246.674151" style="fill-opacity: 0; stroke: #3f3f3f"/>
     <use xlink:href="#mc512278d98" x="509.343854" y="263.707008" style="fill-opacity: 0; stroke: #3f3f3f"/>
     <use xlink:href="#mc512278d98" x="509.343854" y="276.37816" style="fill-opacity: 0; stroke: #3f3f3f"/>
     <use xlink:href="#mc512278d98" x="509.343854" y="225.706213" style="fill-opacity: 0; stroke: #3f3f3f"/>
     <use xlink:href="#mc512278d98" x="509.343854" y="228.534148" style="fill-opacity: 0; stroke: #3f3f3f"/>
     <use xlink:href="#mc512278d98" x="509.343854" y="231.376371" style="fill-opacity: 0; stroke: #3f3f3f"/>
     <use xlink:href="#mc512278d98" x="509.343854" y="258.626025" style="fill-opacity: 0; stroke: #3f3f3f"/>
     <use xlink:href="#mc512278d98" x="509.343854" y="281.120959" style="fill-opacity: 0; stroke: #3f3f3f"/>
     <use xlink:href="#mc512278d98" x="509.343854" y="300.377898" style="fill-opacity: 0; stroke: #3f3f3f"/>
     <use xlink:href="#mc512278d98" x="509.343854" y="267.182021" style="fill-opacity: 0; stroke: #3f3f3f"/>
     <use xlink:href="#mc512278d98" x="509.343854" y="246.356337" style="fill-opacity: 0; stroke: #3f3f3f"/>
     <use xlink:href="#mc512278d98" x="509.343854" y="228.280383" style="fill-opacity: 0; stroke: #3f3f3f"/>
     <use xlink:href="#mc512278d98" x="509.343854" y="290.992634" style="fill-opacity: 0; stroke: #3f3f3f"/>
     <use xlink:href="#mc512278d98" x="509.343854" y="249.539232" style="fill-opacity: 0; stroke: #3f3f3f"/>
     <use xlink:href="#mc512278d98" x="509.343854" y="256.651936" style="fill-opacity: 0; stroke: #3f3f3f"/>
     <use xlink:href="#mc512278d98" x="509.343854" y="242.941086" style="fill-opacity: 0; stroke: #3f3f3f"/>
     <use xlink:href="#mc512278d98" x="509.343854" y="237.004709" style="fill-opacity: 0; stroke: #3f3f3f"/>
     <use xlink:href="#mc512278d98" x="509.343854" y="248.002446" style="fill-opacity: 0; stroke: #3f3f3f"/>
     <use xlink:href="#mc512278d98" x="509.343854" y="232.711054" style="fill-opacity: 0; stroke: #3f3f3f"/>
     <use xlink:href="#mc512278d98" x="509.343854" y="272.966607" style="fill-opacity: 0; stroke: #3f3f3f"/>
     <use xlink:href="#mc512278d98" x="509.343854" y="269.205841" style="fill-opacity: 0; stroke: #3f3f3f"/>
     <use xlink:href="#mc512278d98" x="509.343854" y="21.160852" style="fill-opacity: 0; stroke: #3f3f3f"/>
    </g>
   </g>
   <g id="line2d_44">
    <path d="M 60.473354 78.8754 
L 126.972688 78.8754 
" clip-path="url(#pe66880f689)" style="fill: none; stroke: #3f3f3f"/>
   </g>
   <g id="line2d_45">
    <path d="M 143.597521 110.611884 
L 210.096854 110.611884 
" clip-path="url(#pe66880f689)" style="fill: none; stroke: #3f3f3f"/>
   </g>
   <g id="line2d_46">
    <path d="M 226.721688 121.108929 
L 293.221021 121.108929 
" clip-path="url(#pe66880f689)" style="fill: none; stroke: #3f3f3f"/>
   </g>
   <g id="line2d_47">
    <path d="M 309.845854 129.015297 
L 376.345188 129.015297 
" clip-path="url(#pe66880f689)" style="fill: none; stroke: #3f3f3f"/>
   </g>
   <g id="line2d_48">
    <path d="M 392.970021 135.69505 
L 459.469354 135.69505 
" clip-path="url(#pe66880f689)" style="fill: none; stroke: #3f3f3f"/>
   </g>
   <g id="line2d_49">
    <path d="M 476.094187 124.193146 
L 542.593521 124.193146 
" clip-path="url(#pe66880f689)" style="fill: none; stroke: #3f3f3f"/>
   </g>
   <g id="patch_9">
    <path d="M 52.160938 314.33875 
L 52.160938 7.2 
" style="fill: none; stroke: #000000; stroke-width: 0.8; stroke-linejoin: miter; stroke-linecap: square"/>
   </g>
   <g id="patch_10">
    <path d="M 550.905938 314.33875 
L 550.905938 7.2 
" style="fill: none; stroke: #000000; stroke-width: 0.8; stroke-linejoin: miter; stroke-linecap: square"/>
   </g>
   <g id="patch_11">
    <path d="M 52.160938 314.33875 
L 550.905937 314.33875 
" style="fill: none; stroke: #000000; stroke-width: 0.8; stroke-linejoin: miter; stroke-linecap: square"/>
   </g>
   <g id="patch_12">
    <path d="M 52.160938 7.2 
L 550.905937 7.2 
" style="fill: none; stroke: #000000; stroke-width: 0.8; stroke-linejoin: miter; stroke-linecap: square"/>
   </g>
  </g>
 </g>
 <defs>
  <clipPath id="pe66880f689">
   <rect x="52.160938" y="7.2" width="498.745" height="307.13875"/>
  </clipPath>
 </defs>
</svg>
