<?xml version="1.0" encoding="utf-8" standalone="no"?>
<!DOCTYPE svg PUBLIC "-//W3C//DTD SVG 1.1//EN"
  "http://www.w3.org/Graphics/SVG/1.1/DTD/svg11.dtd">
<svg xmlns:xlink="http://www.w3.org/1999/xlink" width="720pt" height="360pt" viewBox="0 0 720 360" xmlns="http://www.w3.org/2000/svg" version="1.1">
 <metadata>
  <rdf:RDF xmlns:dc="http://purl.org/dc/elements/1.1/" xmlns:cc="http://creativecommons.org/ns#" xmlns:rdf="http://www.w3.org/1999/02/22-rdf-syntax-ns#">
   <cc:Work>
    <dc:type rdf:resource="http://purl.org/dc/dcmitype/StillImage"/>
    <dc:date>2025-12-03T11:35:39.620518</dc:date>
    <dc:format>image/svg+xml</dc:format>
    <dc:creator>
     <cc:Agent>
      <dc:title>Matplotlib v3.10.8, https://matplotlib.org/</dc:title>
     </cc:Agent>
    </dc:creator>
   </cc:Work>
  </rdf:RDF>
 </metadata>
 <defs>
  <style type="text/css">*{stroke-linejoin: round; stroke-linecap: butt}</style>
 </defs>
 <g id="figure_1">
  <g id="patch_1">
   <path d="M 0 360 
L 720 360 
L 720 0 
L 0 0 
z
" style="fill: #ffffff"/>
  </g>
  <g id="axes_1">
   <g id="patch_2">
    <path d="M 51.05 285.82 
L 709.2 285.82 
L 709.2 25.44 
L 51.05 25.44 
z
" style="fill: #ffffff"/>
   </g>
   <g id="patch_3">
    <path d="M 58.203804 285.82 
L 72.511413 285.82 
L 72.511413 37.839048 
L 58.203804 37.839048 
z
" clip-path="url(#pf629954591)" style="fill: #1f77b4"/>
   </g>
   <g id="patch_4">
    <path d="M 86.819022 285.82 
L 101.12663 285.82 
L 101.12663 43.523425 
L 86.819022 43.523425 
z
" clip-path="url(#pf629954591)" style="fill: #1f77b4"/>
   </g>
   <g id="patch_5">
    <path d="M 115.434239 285.82 
L 129.741848 285.82 
L 129.741848 160.053156 
L 115.434239 160.053156 
z
" clip-path="url(#pf629954591)" style="fill: #1f77b4"/>
   </g>
   <g id="patch_6">
    <path d="M 144.049457 285.82 
L 158.357065 285.82 
L 158.357065 199.843796 
L 144.049457 199.843796 
z
" clip-path="url(#pf629954591)" style="fill: #1f77b4"/>
   </g>
   <g id="patch_7">
    <path d="M 172.664674 285.82 
L 186.972283 285.82 
L 186.972283 222.581304 
L 172.664674 222.581304 
z
" clip-path="url(#pf629954591)" style="fill: #1f77b4"/>
   </g>
   <g id="patch_8">
    <path d="M 201.279891 285.82 
L 215.5875 285.82 
L 215.5875 230.397323 
L 201.279891 230.397323 
z
" clip-path="url(#pf629954591)" style="fill: #1f77b4"/>
   </g>
   <g id="patch_9">
    <path d="M 229.895109 285.82 
L 244.202717 285.82 
L 244.202717 241.05553 
L 229.895109 241.05553 
z
" clip-path="url(#pf629954591)" style="fill: #1f77b4"/>
   </g>
   <g id="patch_10">
    <path d="M 258.510326 285.82 
L 272.817935 285.82 
L 272.817935 270.187963 
L 258.510326 270.187963 
z
" clip-path="url(#pf629954591)" style="fill: #1f77b4"/>
   </g>
   <g id="patch_11">
    <path d="M 287.125543 285.82 
L 301.433152 285.82 
L 301.433152 273.030151 
L 287.125543 273.030151 
z
" clip-path="url(#pf629954591)" style="fill: #1f77b4"/>
   </g>
   <g id="patch_12">
    <path d="M 315.740761 285.82 
L 330.04837 285.82 
L 330.04837 273.030151 
L 315.740761 273.030151 
z
" clip-path="url(#pf629954591)" style="fill: #1f77b4"/>
   </g>
   <g id="patch_13">
    <path d="M 344.355978 285.82 
L 358.663587 285.82 
L 358.663587 275.87234 
L 344.355978 275.87234 
z
" clip-path="url(#pf629954591)" style="fill: #1f77b4"/>
   </g>
   <g id="patch_14">
    <path d="M 372.971196 285.82 
L 387.278804 285.82 
L 387.278804 276.582887 
L 372.971196 276.582887 
z
" clip-path="url(#pf629954591)" style="fill: #1f77b4"/>
   </g>
   <g id="patch_15">
    <path d="M 401.586413 285.82 
L 415.894022 285.82 
L 415.894022 277.293434 
L 401.586413 277.293434 
z
" clip-path="url(#pf629954591)" style="fill: #1f77b4"/>
   </g>
   <g id="patch_16">
    <path d="M 430.20163 285.82 
L 444.509239 285.82 
L 444.509239 279.425076 
L 430.20163 279.425076 
z
" clip-path="url(#pf629954591)" style="fill: #1f77b4"/>
   </g>
   <g id="patch_17">
    <path d="M 458.816848 285.82 
L 473.124457 285.82 
L 473.124457 281.556717 
L 458.816848 281.556717 
z
" clip-path="url(#pf629954591)" style="fill: #1f77b4"/>
   </g>
   <g id="patch_18">
    <path d="M 487.432065 285.82 
L 501.739674 285.82 
L 501.739674 281.556717 
L 487.432065 281.556717 
z
" clip-path="url(#pf629954591)" style="fill: #1f77b4"/>
   </g>
   <g id="patch_19">
    <path d="M 516.047283 285.82 
L 530.354891 285.82 
L 530.354891 282.267264 
L 516.047283 282.267264 
z
" clip-path="url(#pf629954591)" style="fill: #1f77b4"/>
   </g>
   <g id="patch_20">
    <path d="M 544.6625 285.82 
L 558.970109 285.82 
L 558.970109 282.267264 
L 544.6625 282.267264 
z
" clip-path="url(#pf629954591)" style="fill: #1f77b4"/>
   </g>
   <g id="patch_21">
    <path d="M 573.277717 285.82 
L 587.585326 285.82 
L 587.585326 283.688359 
L 573.277717 283.688359 
z
" clip-path="url(#pf629954591)" style="fill: #1f77b4"/>
   </g>
   <g id="patch_22">
    <path d="M 601.892935 285.82 
L 616.200543 285.82 
L 616.200543 283.688359 
L 601.892935 283.688359 
z
" clip-path="url(#pf629954591)" style="fill: #1f77b4"/>
   </g>
   <g id="patch_23">
    <path d="M 630.508152 285.82 
L 644.815761 285.82 
L 644.815761 283.688359 
L 630.508152 283.688359 
z
" clip-path="url(#pf629954591)" style="fill: #1f77b4"/>
   </g>
   <g id="patch_24">
    <path d="M 659.12337 285.82 
L 673.430978 285.82 
L 673.430978 284.398906 
L 659.12337 284.398906 
z
" clip-path="url(#pf629954591)" style="fill: #1f77b4"/>
   </g>
   <g id="patch_25">
    <path d="M 687.738587 285.82 
L 702.046196 285.82 
L 702.046196 284.398906 
L 687.738587 284.398906 
z
" clip-path="url(#pf629954591)" style="fill: #1f77b4"/>
   </g>
   <g id="matplotlib.axis_1">
    <g id="xtick_1">
     <g id="line2d_1">
      <defs>
       <path id="m6ee9272936" d="M 0 0 
L 0 3.5 
" style="stroke: #000000; stroke-width: 0.8"/>
      </defs>
      <g>
       <use xlink:href="#m6ee9272936" x="65.357609" y="285.82" style="stroke: #000000; stroke-width: 0.8"/>
      </g>
     </g>
     <g id="text_1">
      <!-- ++ -->
      <g transform="translate(68.116984 309.579375) rotate(-90) scale(0.1 -0.1)">
       <defs>
        <path id="DejaVuSans-2b" d="M 2944 4013 
L 2944 2272 
L 4684 2272 
L 4684 1741 
L 2944 1741 
L 2944 0 
L 2419 0 
L 2419 1741 
L 678 1741 
L 678 2272 
L 2419 2272 
L 2419 4013 
L 2944 4013 
z
" transform="scale(0.015625)"/>
       </defs>
       <use xlink:href="#DejaVuSans-2b"/>
       <use xlink:href="#DejaVuSans-2b" transform="translate(83.789062 0)"/>
      </g>
     </g>
    </g>
    <g id="xtick_2">
     <g id="line2d_2">
      <g>
       <use xlink:href="#m6ee9272936" x="93.972826" y="285.82" style="stroke: #000000; stroke-width: 0.8"/>
      </g>
     </g>
     <g id="text_2">
      <!-- + -->
      <g transform="translate(96.732201 301.199687) rotate(-90) scale(0.1 -0.1)">
       <use xlink:href="#DejaVuSans-2b"/>
      </g>
     </g>
    </g>
    <g id="xtick_3">
     <g id="line2d_3">
      <g>
       <use xlink:href="#m6ee9272936" x="122.588043" y="285.82" style="stroke: #000000; stroke-width: 0.8"/>
      </g>
     </g>
     <g id="text_3">
      <!-- +- -->
      <g transform="translate(125.347418 304.8075) rotate(-90) scale(0.1 -0.1)">
       <defs>
        <path id="DejaVuSans-2d" d="M 313 2009 
L 1997 2009 
L 1997 1497 
L 313 1497 
L 313 2009 
z
" transform="scale(0.015625)"/>
       </defs>
       <use xlink:href="#DejaVuSans-2b"/>
       <use xlink:href="#DejaVuSans-2d" transform="translate(83.789062 0)"/>
      </g>
     </g>
    </g>
    <g id="xtick_4">
     <g id="line2d_4">
      <g>
       <use xlink:href="#m6ee9272936" x="151.203261" y="285.82" style="stroke: #000000; stroke-width: 0.8"/>
      </g>
     </g>
     <g id="text_4">
      <!-- +++ -->
      <g transform="translate(153.962636 317.959063) rotate(-90) scale(0.1 -0.1)">
       <use xlink:href="#DejaVuSans-2b"/>
       <use xlink:href="#DejaVuSans-2b" transform="translate(83.789062 0)"/>
       <use xlink:href="#DejaVuSans-2b" transform="translate(167.578125 0)"/>
      </g>
     </g>
    </g>
    <g id="xtick_5">
     <g id="line2d_5">
      <g>
       <use xlink:href="#m6ee9272936" x="179.818478" y="285.82" style="stroke: #000000; stroke-width: 0.8"/>
      </g>
     </g>
     <g id="text_5">
      <!-- +- - -->
      <g transform="translate(182.577853 308.415313) rotate(-90) scale(0.1 -0.1)">
       <use xlink:href="#DejaVuSans-2b"/>
       <use xlink:href="#DejaVuSans-2d" transform="translate(83.789062 0)"/>
       <use xlink:href="#DejaVuSans-2d" transform="translate(119.873047 0)"/>
      </g>
     </g>
    </g>
    <g id="xtick_6">
     <g id="line2d_6">
      <g>
       <use xlink:href="#m6ee9272936" x="208.433696" y="285.82" style="stroke: #000000; stroke-width: 0.8"/>
      </g>
     </g>
     <g id="text_6">
      <!-- +-+ -->
      <g transform="translate(211.193071 313.187187) rotate(-90) scale(0.1 -0.1)">
       <use xlink:href="#DejaVuSans-2b"/>
       <use xlink:href="#DejaVuSans-2d" transform="translate(83.789062 0)"/>
       <use xlink:href="#DejaVuSans-2b" transform="translate(119.873047 0)"/>
      </g>
     </g>
    </g>
    <g id="xtick_7">
     <g id="line2d_7">
      <g>
       <use xlink:href="#m6ee9272936" x="237.048913" y="285.82" style="stroke: #000000; stroke-width: 0.8"/>
      </g>
     </g>
     <g id="text_7">
      <!-- ++- -->
      <g transform="translate(239.808288 313.187187) rotate(-90) scale(0.1 -0.1)">
       <use xlink:href="#DejaVuSans-2b"/>
       <use xlink:href="#DejaVuSans-2b" transform="translate(83.789062 0)"/>
       <use xlink:href="#DejaVuSans-2d" transform="translate(167.578125 0)"/>
      </g>
     </g>
    </g>
    <g id="xtick_8">
     <g id="line2d_8">
      <g>
       <use xlink:href="#m6ee9272936" x="265.66413" y="285.82" style="stroke: #000000; stroke-width: 0.8"/>
      </g>
     </g>
     <g id="text_8">
      <!-- ++- - -->
      <g transform="translate(268.423505 316.795) rotate(-90) scale(0.1 -0.1)">
       <use xlink:href="#DejaVuSans-2b"/>
       <use xlink:href="#DejaVuSans-2b" transform="translate(83.789062 0)"/>
       <use xlink:href="#DejaVuSans-2d" transform="translate(167.578125 0)"/>
       <use xlink:href="#DejaVuSans-2d" transform="translate(203.662109 0)"/>
      </g>
     </g>
    </g>
    <g id="xtick_9">
     <g id="line2d_9">
      <g>
       <use xlink:href="#m6ee9272936" x="294.279348" y="285.82" style="stroke: #000000; stroke-width: 0.8"/>
      </g>
     </g>
     <g id="text_9">
      <!-- +- - - -->
      <g transform="translate(297.038723 312.023125) rotate(-90) scale(0.1 -0.1)">
       <use xlink:href="#DejaVuSans-2b"/>
       <use xlink:href="#DejaVuSans-2d" transform="translate(83.789062 0)"/>
       <use xlink:href="#DejaVuSans-2d" transform="translate(119.873047 0)"/>
       <use xlink:href="#DejaVuSans-2d" transform="translate(155.957031 0)"/>
      </g>
     </g>
    </g>
    <g id="xtick_10">
     <g id="line2d_10">
      <g>
       <use xlink:href="#m6ee9272936" x="322.894565" y="285.82" style="stroke: #000000; stroke-width: 0.8"/>
      </g>
     </g>
     <g id="text_10">
      <!-- +- -+ -->
      <g transform="translate(325.65394 316.795) rotate(-90) scale(0.1 -0.1)">
       <use xlink:href="#DejaVuSans-2b"/>
       <use xlink:href="#DejaVuSans-2d" transform="translate(83.789062 0)"/>
       <use xlink:href="#DejaVuSans-2d" transform="translate(119.873047 0)"/>
       <use xlink:href="#DejaVuSans-2b" transform="translate(155.957031 0)"/>
      </g>
     </g>
    </g>
    <g id="xtick_11">
     <g id="line2d_11">
      <g>
       <use xlink:href="#m6ee9272936" x="351.509783" y="285.82" style="stroke: #000000; stroke-width: 0.8"/>
      </g>
     </g>
     <g id="text_11">
      <!-- +-+- -->
      <g transform="translate(354.269158 316.795) rotate(-90) scale(0.1 -0.1)">
       <use xlink:href="#DejaVuSans-2b"/>
       <use xlink:href="#DejaVuSans-2d" transform="translate(83.789062 0)"/>
       <use xlink:href="#DejaVuSans-2b" transform="translate(119.873047 0)"/>
       <use xlink:href="#DejaVuSans-2d" transform="translate(203.662109 0)"/>
      </g>
     </g>
    </g>
    <g id="xtick_12">
     <g id="line2d_12">
      <g>
       <use xlink:href="#m6ee9272936" x="380.125" y="285.82" style="stroke: #000000; stroke-width: 0.8"/>
      </g>
     </g>
     <g id="text_12">
      <!-- +++- -->
      <g transform="translate(382.884375 321.566875) rotate(-90) scale(0.1 -0.1)">
       <use xlink:href="#DejaVuSans-2b"/>
       <use xlink:href="#DejaVuSans-2b" transform="translate(83.789062 0)"/>
       <use xlink:href="#DejaVuSans-2b" transform="translate(167.578125 0)"/>
       <use xlink:href="#DejaVuSans-2d" transform="translate(251.367188 0)"/>
      </g>
     </g>
    </g>
    <g id="xtick_13">
     <g id="line2d_13">
      <g>
       <use xlink:href="#m6ee9272936" x="408.740217" y="285.82" style="stroke: #000000; stroke-width: 0.8"/>
      </g>
     </g>
     <g id="text_13">
      <!-- ++++ -->
      <g transform="translate(411.499592 326.33875) rotate(-90) scale(0.1 -0.1)">
       <use xlink:href="#DejaVuSans-2b"/>
       <use xlink:href="#DejaVuSans-2b" transform="translate(83.789062 0)"/>
       <use xlink:href="#DejaVuSans-2b" transform="translate(167.578125 0)"/>
       <use xlink:href="#DejaVuSans-2b" transform="translate(251.367188 0)"/>
      </g>
     </g>
    </g>
    <g id="xtick_14">
     <g id="line2d_14">
      <g>
       <use xlink:href="#m6ee9272936" x="437.355435" y="285.82" style="stroke: #000000; stroke-width: 0.8"/>
      </g>
     </g>
     <g id="text_14">
      <!-- ++-+ -->
      <g transform="translate(440.11481 321.566875) rotate(-90) scale(0.1 -0.1)">
       <use xlink:href="#DejaVuSans-2b"/>
       <use xlink:href="#DejaVuSans-2b" transform="translate(83.789062 0)"/>
       <use xlink:href="#DejaVuSans-2d" transform="translate(167.578125 0)"/>
       <use xlink:href="#DejaVuSans-2b" transform="translate(203.662109 0)"/>
      </g>
     </g>
    </g>
    <g id="xtick_15">
     <g id="line2d_15">
      <g>
       <use xlink:href="#m6ee9272936" x="465.970652" y="285.82" style="stroke: #000000; stroke-width: 0.8"/>
      </g>
     </g>
     <g id="text_15">
      <!-- +-++ -->
      <g transform="translate(468.730027 321.566875) rotate(-90) scale(0.1 -0.1)">
       <use xlink:href="#DejaVuSans-2b"/>
       <use xlink:href="#DejaVuSans-2d" transform="translate(83.789062 0)"/>
       <use xlink:href="#DejaVuSans-2b" transform="translate(119.873047 0)"/>
       <use xlink:href="#DejaVuSans-2b" transform="translate(203.662109 0)"/>
      </g>
     </g>
    </g>
    <g id="xtick_16">
     <g id="line2d_16">
      <g>
       <use xlink:href="#m6ee9272936" x="494.58587" y="285.82" style="stroke: #000000; stroke-width: 0.8"/>
      </g>
     </g>
     <g id="text_16">
      <!-- ++- -+ -->
      <g transform="translate(497.345245 325.174688) rotate(-90) scale(0.1 -0.1)">
       <use xlink:href="#DejaVuSans-2b"/>
       <use xlink:href="#DejaVuSans-2b" transform="translate(83.789062 0)"/>
       <use xlink:href="#DejaVuSans-2d" transform="translate(167.578125 0)"/>
       <use xlink:href="#DejaVuSans-2d" transform="translate(203.662109 0)"/>
       <use xlink:href="#DejaVuSans-2b" transform="translate(239.746094 0)"/>
      </g>
     </g>
    </g>
    <g id="xtick_17">
     <g id="line2d_17">
      <g>
       <use xlink:href="#m6ee9272936" x="523.201087" y="285.82" style="stroke: #000000; stroke-width: 0.8"/>
      </g>
     </g>
     <g id="text_17">
      <!-- +++-+ -->
      <g transform="translate(525.960462 329.946563) rotate(-90) scale(0.1 -0.1)">
       <use xlink:href="#DejaVuSans-2b"/>
       <use xlink:href="#DejaVuSans-2b" transform="translate(83.789062 0)"/>
       <use xlink:href="#DejaVuSans-2b" transform="translate(167.578125 0)"/>
       <use xlink:href="#DejaVuSans-2d" transform="translate(251.367188 0)"/>
       <use xlink:href="#DejaVuSans-2b" transform="translate(287.451172 0)"/>
      </g>
     </g>
    </g>
    <g id="xtick_18">
     <g id="line2d_18">
      <g>
       <use xlink:href="#m6ee9272936" x="551.816304" y="285.82" style="stroke: #000000; stroke-width: 0.8"/>
      </g>
     </g>
     <g id="text_18">
      <!-- +- -+- -->
      <g transform="translate(554.575679 320.402812) rotate(-90) scale(0.1 -0.1)">
       <use xlink:href="#DejaVuSans-2b"/>
       <use xlink:href="#DejaVuSans-2d" transform="translate(83.789062 0)"/>
       <use xlink:href="#DejaVuSans-2d" transform="translate(119.873047 0)"/>
       <use xlink:href="#DejaVuSans-2b" transform="translate(155.957031 0)"/>
       <use xlink:href="#DejaVuSans-2d" transform="translate(239.746094 0)"/>
      </g>
     </g>
    </g>
    <g id="xtick_19">
     <g id="line2d_19">
      <g>
       <use xlink:href="#m6ee9272936" x="580.431522" y="285.82" style="stroke: #000000; stroke-width: 0.8"/>
      </g>
     </g>
     <g id="text_19">
      <!-- +- - -+ -->
      <g transform="translate(583.190897 320.402812) rotate(-90) scale(0.1 -0.1)">
       <use xlink:href="#DejaVuSans-2b"/>
       <use xlink:href="#DejaVuSans-2d" transform="translate(83.789062 0)"/>
       <use xlink:href="#DejaVuSans-2d" transform="translate(119.873047 0)"/>
       <use xlink:href="#DejaVuSans-2d" transform="translate(155.957031 0)"/>
       <use xlink:href="#DejaVuSans-2b" transform="translate(192.041016 0)"/>
      </g>
     </g>
    </g>
    <g id="xtick_20">
     <g id="line2d_20">
      <g>
       <use xlink:href="#m6ee9272936" x="609.046739" y="285.82" style="stroke: #000000; stroke-width: 0.8"/>
      </g>
     </g>
     <g id="text_20">
      <!-- ++- - - -->
      <g transform="translate(611.806114 320.402812) rotate(-90) scale(0.1 -0.1)">
       <use xlink:href="#DejaVuSans-2b"/>
       <use xlink:href="#DejaVuSans-2b" transform="translate(83.789062 0)"/>
       <use xlink:href="#DejaVuSans-2d" transform="translate(167.578125 0)"/>
       <use xlink:href="#DejaVuSans-2d" transform="translate(203.662109 0)"/>
       <use xlink:href="#DejaVuSans-2d" transform="translate(239.746094 0)"/>
      </g>
     </g>
    </g>
    <g id="xtick_21">
     <g id="line2d_21">
      <g>
       <use xlink:href="#m6ee9272936" x="637.661957" y="285.82" style="stroke: #000000; stroke-width: 0.8"/>
      </g>
     </g>
     <g id="text_21">
      <!-- +++++ -->
      <g transform="translate(640.421332 334.718437) rotate(-90) scale(0.1 -0.1)">
       <use xlink:href="#DejaVuSans-2b"/>
       <use xlink:href="#DejaVuSans-2b" transform="translate(83.789062 0)"/>
       <use xlink:href="#DejaVuSans-2b" transform="translate(167.578125 0)"/>
       <use xlink:href="#DejaVuSans-2b" transform="translate(251.367188 0)"/>
       <use xlink:href="#DejaVuSans-2b" transform="translate(335.15625 0)"/>
      </g>
     </g>
    </g>
    <g id="xtick_22">
     <g id="line2d_22">
      <g>
       <use xlink:href="#m6ee9272936" x="666.277174" y="285.82" style="stroke: #000000; stroke-width: 0.8"/>
      </g>
     </g>
     <g id="text_22">
      <!-- ++-+- -->
      <g transform="translate(669.036549 325.174688) rotate(-90) scale(0.1 -0.1)">
       <use xlink:href="#DejaVuSans-2b"/>
       <use xlink:href="#DejaVuSans-2b" transform="translate(83.789062 0)"/>
       <use xlink:href="#DejaVuSans-2d" transform="translate(167.578125 0)"/>
       <use xlink:href="#DejaVuSans-2b" transform="translate(203.662109 0)"/>
       <use xlink:href="#DejaVuSans-2d" transform="translate(287.451172 0)"/>
      </g>
     </g>
    </g>
    <g id="xtick_23">
     <g id="line2d_23">
      <g>
       <use xlink:href="#m6ee9272936" x="694.892391" y="285.82" style="stroke: #000000; stroke-width: 0.8"/>
      </g>
     </g>
     <g id="text_23">
      <!-- ++- - - - -->
      <g transform="translate(697.651766 324.010625) rotate(-90) scale(0.1 -0.1)">
       <use xlink:href="#DejaVuSans-2b"/>
       <use xlink:href="#DejaVuSans-2b" transform="translate(83.789062 0)"/>
       <use xlink:href="#DejaVuSans-2d" transform="translate(167.578125 0)"/>
       <use xlink:href="#DejaVuSans-2d" transform="translate(203.662109 0)"/>
       <use xlink:href="#DejaVuSans-2d" transform="translate(239.746094 0)"/>
       <use xlink:href="#DejaVuSans-2d" transform="translate(275.830078 0)"/>
      </g>
     </g>
    </g>
    <g id="text_24">
     <!-- Orientation Pattern -->
     <g transform="translate(332.321094 346.316875) scale(0.1 -0.1)">
      <defs>
       <path id="DejaVuSans-4f" d="M 2522 4238 
Q 1834 4238 1429 3725 
Q 1025 3213 1025 2328 
Q 1025 1447 1429 934 
Q 1834 422 2522 422 
Q 3209 422 3611 934 
Q 4013 1447 4013 2328 
Q 4013 3213 3611 3725 
Q 3209 4238 2522 4238 
z
M 2522 4750 
Q 3503 4750 4090 4092 
Q 4678 3434 4678 2328 
Q 4678 1225 4090 567 
Q 3503 -91 2522 -91 
Q 1538 -91 948 565 
Q 359 1222 359 2328 
Q 359 3434 948 4092 
Q 1538 4750 2522 4750 
z
" transform="scale(0.015625)"/>
       <path id="DejaVuSans-72" d="M 2631 2963 
Q 2534 3019 2420 3045 
Q 2306 3072 2169 3072 
Q 1681 3072 1420 2755 
Q 1159 2438 1159 1844 
L 1159 0 
L 581 0 
L 581 3500 
L 1159 3500 
L 1159 2956 
Q 1341 3275 1631 3429 
Q 1922 3584 2338 3584 
Q 2397 3584 2469 3576 
Q 2541 3569 2628 3553 
L 2631 2963 
z
" transform="scale(0.015625)"/>
       <path id="DejaVuSans-69" d="M 603 3500 
L 1178 3500 
L 1178 0 
L 603 0 
L 603 3500 
z
M 603 4863 
L 1178 4863 
L 1178 4134 
L 603 4134 
L 603 4863 
z
" transform="scale(0.015625)"/>
       <path id="DejaVuSans-65" d="M 3597 1894 
L 3597 1613 
L 953 1613 
Q 991 1019 1311 708 
Q 1631 397 2203 397 
Q 2534 397 2845 478 
Q 3156 559 3463 722 
L 3463 178 
Q 3153 47 2828 -22 
Q 2503 -91 2169 -91 
Q 1331 -91 842 396 
Q 353 884 353 1716 
Q 353 2575 817 3079 
Q 1281 3584 2069 3584 
Q 2775 3584 3186 3129 
Q 3597 2675 3597 1894 
z
M 3022 2063 
Q 3016 2534 2758 2815 
Q 2500 3097 2075 3097 
Q 1594 3097 1305 2825 
Q 1016 2553 972 2059 
L 3022 2063 
z
" transform="scale(0.015625)"/>
       <path id="DejaVuSans-6e" d="M 3513 2113 
L 3513 0 
L 2938 0 
L 2938 2094 
Q 2938 2591 2744 2837 
Q 2550 3084 2163 3084 
Q 1697 3084 1428 2787 
Q 1159 2491 1159 1978 
L 1159 0 
L 581 0 
L 581 3500 
L 1159 3500 
L 1159 2956 
Q 1366 3272 1645 3428 
Q 1925 3584 2291 3584 
Q 2894 3584 3203 3211 
Q 3513 2838 3513 2113 
z
" transform="scale(0.015625)"/>
       <path id="DejaVuSans-74" d="M 1172 4494 
L 1172 3500 
L 2356 3500 
L 2356 3053 
L 1172 3053 
L 1172 1153 
Q 1172 725 1289 603 
Q 1406 481 1766 481 
L 2356 481 
L 2356 0 
L 1766 0 
Q 1100 0 847 248 
Q 594 497 594 1153 
L 594 3053 
L 172 3053 
L 172 3500 
L 594 3500 
L 594 4494 
L 1172 4494 
z
" transform="scale(0.015625)"/>
       <path id="DejaVuSans-61" d="M 2194 1759 
Q 1497 1759 1228 1600 
Q 959 1441 959 1056 
Q 959 750 1161 570 
Q 1363 391 1709 391 
Q 2188 391 2477 730 
Q 2766 1069 2766 1631 
L 2766 1759 
L 2194 1759 
z
M 3341 1997 
L 3341 0 
L 2766 0 
L 2766 531 
Q 2569 213 2275 61 
Q 1981 -91 1556 -91 
Q 1019 -91 701 211 
Q 384 513 384 1019 
Q 384 1609 779 1909 
Q 1175 2209 1959 2209 
L 2766 2209 
L 2766 2266 
Q 2766 2663 2505 2880 
Q 2244 3097 1772 3097 
Q 1472 3097 1187 3025 
Q 903 2953 641 2809 
L 641 3341 
Q 956 3463 1253 3523 
Q 1550 3584 1831 3584 
Q 2591 3584 2966 3190 
Q 3341 2797 3341 1997 
z
" transform="scale(0.015625)"/>
       <path id="DejaVuSans-6f" d="M 1959 3097 
Q 1497 3097 1228 2736 
Q 959 2375 959 1747 
Q 959 1119 1226 758 
Q 1494 397 1959 397 
Q 2419 397 2687 759 
Q 2956 1122 2956 1747 
Q 2956 2369 2687 2733 
Q 2419 3097 1959 3097 
z
M 1959 3584 
Q 2709 3584 3137 3096 
Q 3566 2609 3566 1747 
Q 3566 888 3137 398 
Q 2709 -91 1959 -91 
Q 1206 -91 779 398 
Q 353 888 353 1747 
Q 353 2609 779 3096 
Q 1206 3584 1959 3584 
z
" transform="scale(0.015625)"/>
       <path id="DejaVuSans-20" transform="scale(0.015625)"/>
       <path id="DejaVuSans-50" d="M 1259 4147 
L 1259 2394 
L 2053 2394 
Q 2494 2394 2734 2622 
Q 2975 2850 2975 3272 
Q 2975 3691 2734 3919 
Q 2494 4147 2053 4147 
L 1259 4147 
z
M 628 4666 
L 2053 4666 
Q 2838 4666 3239 4311 
Q 3641 3956 3641 3272 
Q 3641 2581 3239 2228 
Q 2838 1875 2053 1875 
L 1259 1875 
L 1259 0 
L 628 0 
L 628 4666 
z
" transform="scale(0.015625)"/>
      </defs>
      <use xlink:href="#DejaVuSans-4f"/>
      <use xlink:href="#DejaVuSans-72" transform="translate(78.710938 0)"/>
      <use xlink:href="#DejaVuSans-69" transform="translate(119.824219 0)"/>
      <use xlink:href="#DejaVuSans-65" transform="translate(147.607422 0)"/>
      <use xlink:href="#DejaVuSans-6e" transform="translate(209.130859 0)"/>
      <use xlink:href="#DejaVuSans-74" transform="translate(272.509766 0)"/>
      <use xlink:href="#DejaVuSans-61" transform="translate(311.71875 0)"/>
      <use xlink:href="#DejaVuSans-74" transform="translate(372.998047 0)"/>
      <use xlink:href="#DejaVuSans-69" transform="translate(412.207031 0)"/>
      <use xlink:href="#DejaVuSans-6f" transform="translate(439.990234 0)"/>
      <use xlink:href="#DejaVuSans-6e" transform="translate(501.171875 0)"/>
      <use xlink:href="#DejaVuSans-20" transform="translate(564.550781 0)"/>
      <use xlink:href="#DejaVuSans-50" transform="translate(596.337891 0)"/>
      <use xlink:href="#DejaVuSans-61" transform="translate(652.140625 0)"/>
      <use xlink:href="#DejaVuSans-74" transform="translate(713.419922 0)"/>
      <use xlink:href="#DejaVuSans-74" transform="translate(752.628906 0)"/>
      <use xlink:href="#DejaVuSans-65" transform="translate(791.837891 0)"/>
      <use xlink:href="#DejaVuSans-72" transform="translate(853.361328 0)"/>
      <use xlink:href="#DejaVuSans-6e" transform="translate(892.724609 0)"/>
     </g>
    </g>
   </g>
   <g id="matplotlib.axis_2">
    <g id="ytick_1">
     <g id="line2d_24">
      <defs>
       <path id="m6c8369575b" d="M 0 0 
L -3.5 0 
" style="stroke: #000000; stroke-width: 0.8"/>
      </defs>
      <g>
       <use xlink:href="#m6c8369575b" x="51.05" y="285.82" style="stroke: #000000; stroke-width: 0.8"/>
      </g>
     </g>
     <g id="text_25">
      <!-- 0 -->
      <g transform="translate(37.6875 289.619219) scale(0.1 -0.1)">
       <defs>
        <path id="DejaVuSans-30" d="M 2034 4250 
Q 1547 4250 1301 3770 
Q 1056 3291 1056 2328 
Q 1056 1369 1301 889 
Q 1547 409 2034 409 
Q 2525 409 2770 889 
Q 3016 1369 3016 2328 
Q 3016 3291 2770 3770 
Q 2525 4250 2034 4250 
z
M 2034 4750 
Q 2819 4750 3233 4129 
Q 3647 3509 3647 2328 
Q 3647 1150 3233 529 
Q 2819 -91 2034 -91 
Q 1250 -91 836 529 
Q 422 1150 422 2328 
Q 422 3509 836 4129 
Q 1250 4750 2034 4750 
z
" transform="scale(0.015625)"/>
       </defs>
       <use xlink:href="#DejaVuSans-30"/>
      </g>
     </g>
    </g>
    <g id="ytick_2">
     <g id="line2d_25">
      <g>
       <use xlink:href="#m6c8369575b" x="51.05" y="250.292643" style="stroke: #000000; stroke-width: 0.8"/>
      </g>
     </g>
     <g id="text_26">
      <!-- 50 -->
      <g transform="translate(31.325 254.091862) scale(0.1 -0.1)">
       <defs>
        <path id="DejaVuSans-35" d="M 691 4666 
L 3169 4666 
L 3169 4134 
L 1269 4134 
L 1269 2991 
Q 1406 3038 1543 3061 
Q 1681 3084 1819 3084 
Q 2600 3084 3056 2656 
Q 3513 2228 3513 1497 
Q 3513 744 3044 326 
Q 2575 -91 1722 -91 
Q 1428 -91 1123 -41 
Q 819 9 494 109 
L 494 744 
Q 775 591 1075 516 
Q 1375 441 1709 441 
Q 2250 441 2565 725 
Q 2881 1009 2881 1497 
Q 2881 1984 2565 2268 
Q 2250 2553 1709 2553 
Q 1456 2553 1204 2497 
Q 953 2441 691 2322 
L 691 4666 
z
" transform="scale(0.015625)"/>
       </defs>
       <use xlink:href="#DejaVuSans-35"/>
       <use xlink:href="#DejaVuSans-30" transform="translate(63.623047 0)"/>
      </g>
     </g>
    </g>
    <g id="ytick_3">
     <g id="line2d_26">
      <g>
       <use xlink:href="#m6c8369575b" x="51.05" y="214.765286" style="stroke: #000000; stroke-width: 0.8"/>
      </g>
     </g>
     <g id="text_27">
      <!-- 100 -->
      <g transform="translate(24.9625 218.564505) scale(0.1 -0.1)">
       <defs>
        <path id="DejaVuSans-31" d="M 794 531 
L 1825 531 
L 1825 4091 
L 703 3866 
L 703 4441 
L 1819 4666 
L 2450 4666 
L 2450 531 
L 3481 531 
L 3481 0 
L 794 0 
L 794 531 
z
" transform="scale(0.015625)"/>
       </defs>
       <use xlink:href="#DejaVuSans-31"/>
       <use xlink:href="#DejaVuSans-30" transform="translate(63.623047 0)"/>
       <use xlink:href="#DejaVuSans-30" transform="translate(127.246094 0)"/>
      </g>
     </g>
    </g>
    <g id="ytick_4">
     <g id="line2d_27">
      <g>
       <use xlink:href="#m6c8369575b" x="51.05" y="179.237929" style="stroke: #000000; stroke-width: 0.8"/>
      </g>
     </g>
     <g id="text_28">
      <!-- 150 -->
      <g transform="translate(24.9625 183.037148) scale(0.1 -0.1)">
       <use xlink:href="#DejaVuSans-31"/>
       <use xlink:href="#DejaVuSans-35" transform="translate(63.623047 0)"/>
       <use xlink:href="#DejaVuSans-30" transform="translate(127.246094 0)"/>
      </g>
     </g>
    </g>
    <g id="ytick_5">
     <g id="line2d_28">
      <g>
       <use xlink:href="#m6c8369575b" x="51.05" y="143.710572" style="stroke: #000000; stroke-width: 0.8"/>
      </g>
     </g>
     <g id="text_29">
      <!-- 200 -->
      <g transform="translate(24.9625 147.50979) scale(0.1 -0.1)">
       <defs>
        <path id="DejaVuSans-32" d="M 1228 531 
L 3431 531 
L 3431 0 
L 469 0 
L 469 531 
Q 828 903 1448 1529 
Q 2069 2156 2228 2338 
Q 2531 2678 2651 2914 
Q 2772 3150 2772 3378 
Q 2772 3750 2511 3984 
Q 2250 4219 1831 4219 
Q 1534 4219 1204 4116 
Q 875 4013 500 3803 
L 500 4441 
Q 881 4594 1212 4672 
Q 1544 4750 1819 4750 
Q 2544 4750 2975 4387 
Q 3406 4025 3406 3419 
Q 3406 3131 3298 2873 
Q 3191 2616 2906 2266 
Q 2828 2175 2409 1742 
Q 1991 1309 1228 531 
z
" transform="scale(0.015625)"/>
       </defs>
       <use xlink:href="#DejaVuSans-32"/>
       <use xlink:href="#DejaVuSans-30" transform="translate(63.623047 0)"/>
       <use xlink:href="#DejaVuSans-30" transform="translate(127.246094 0)"/>
      </g>
     </g>
    </g>
    <g id="ytick_6">
     <g id="line2d_29">
      <g>
       <use xlink:href="#m6c8369575b" x="51.05" y="108.183215" style="stroke: #000000; stroke-width: 0.8"/>
      </g>
     </g>
     <g id="text_30">
      <!-- 250 -->
      <g transform="translate(24.9625 111.982433) scale(0.1 -0.1)">
       <use xlink:href="#DejaVuSans-32"/>
       <use xlink:href="#DejaVuSans-35" transform="translate(63.623047 0)"/>
       <use xlink:href="#DejaVuSans-30" transform="translate(127.246094 0)"/>
      </g>
     </g>
    </g>
    <g id="ytick_7">
     <g id="line2d_30">
      <g>
       <use xlink:href="#m6c8369575b" x="51.05" y="72.655858" style="stroke: #000000; stroke-width: 0.8"/>
      </g>
     </g>
     <g id="text_31">
      <!-- 300 -->
      <g transform="translate(24.9625 76.455076) scale(0.1 -0.1)">
       <defs>
        <path id="DejaVuSans-33" d="M 2597 2516 
Q 3050 2419 3304 2112 
Q 3559 1806 3559 1356 
Q 3559 666 3084 287 
Q 2609 -91 1734 -91 
Q 1441 -91 1130 -33 
Q 819 25 488 141 
L 488 750 
Q 750 597 1062 519 
Q 1375 441 1716 441 
Q 2309 441 2620 675 
Q 2931 909 2931 1356 
Q 2931 1769 2642 2001 
Q 2353 2234 1838 2234 
L 1294 2234 
L 1294 2753 
L 1863 2753 
Q 2328 2753 2575 2939 
Q 2822 3125 2822 3475 
Q 2822 3834 2567 4026 
Q 2313 4219 1838 4219 
Q 1578 4219 1281 4162 
Q 984 4106 628 3988 
L 628 4550 
Q 988 4650 1302 4700 
Q 1616 4750 1894 4750 
Q 2613 4750 3031 4423 
Q 3450 4097 3450 3541 
Q 3450 3153 3228 2886 
Q 3006 2619 2597 2516 
z
" transform="scale(0.015625)"/>
       </defs>
       <use xlink:href="#DejaVuSans-33"/>
       <use xlink:href="#DejaVuSans-30" transform="translate(63.623047 0)"/>
       <use xlink:href="#DejaVuSans-30" transform="translate(127.246094 0)"/>
      </g>
     </g>
    </g>
    <g id="ytick_8">
     <g id="line2d_31">
      <g>
       <use xlink:href="#m6c8369575b" x="51.05" y="37.1285" style="stroke: #000000; stroke-width: 0.8"/>
      </g>
     </g>
     <g id="text_32">
      <!-- 350 -->
      <g transform="translate(24.9625 40.927719) scale(0.1 -0.1)">
       <use xlink:href="#DejaVuSans-33"/>
       <use xlink:href="#DejaVuSans-35" transform="translate(63.623047 0)"/>
       <use xlink:href="#DejaVuSans-30" transform="translate(127.246094 0)"/>
      </g>
     </g>
    </g>
    <g id="text_33">
     <!-- Frequency -->
     <g transform="translate(18.882812 181.459688) rotate(-90) scale(0.1 -0.1)">
      <defs>
       <path id="DejaVuSans-46" d="M 628 4666 
L 3309 4666 
L 3309 4134 
L 1259 4134 
L 1259 2759 
L 3109 2759 
L 3109 2228 
L 1259 2228 
L 1259 0 
L 628 0 
L 628 4666 
z
" transform="scale(0.015625)"/>
       <path id="DejaVuSans-71" d="M 947 1747 
Q 947 1113 1208 752 
Q 1469 391 1925 391 
Q 2381 391 2643 752 
Q 2906 1113 2906 1747 
Q 2906 2381 2643 2742 
Q 2381 3103 1925 3103 
Q 1469 3103 1208 2742 
Q 947 2381 947 1747 
z
M 2906 525 
Q 2725 213 2448 61 
Q 2172 -91 1784 -91 
Q 1150 -91 751 415 
Q 353 922 353 1747 
Q 353 2572 751 3078 
Q 1150 3584 1784 3584 
Q 2172 3584 2448 3432 
Q 2725 3281 2906 2969 
L 2906 3500 
L 3481 3500 
L 3481 -1331 
L 2906 -1331 
L 2906 525 
z
" transform="scale(0.015625)"/>
       <path id="DejaVuSans-75" d="M 544 1381 
L 544 3500 
L 1119 3500 
L 1119 1403 
Q 1119 906 1312 657 
Q 1506 409 1894 409 
Q 2359 409 2629 706 
Q 2900 1003 2900 1516 
L 2900 3500 
L 3475 3500 
L 3475 0 
L 2900 0 
L 2900 538 
Q 2691 219 2414 64 
Q 2138 -91 1772 -91 
Q 1169 -91 856 284 
Q 544 659 544 1381 
z
M 1991 3584 
L 1991 3584 
z
" transform="scale(0.015625)"/>
       <path id="DejaVuSans-63" d="M 3122 3366 
L 3122 2828 
Q 2878 2963 2633 3030 
Q 2388 3097 2138 3097 
Q 1578 3097 1268 2742 
Q 959 2388 959 1747 
Q 959 1106 1268 751 
Q 1578 397 2138 397 
Q 2388 397 2633 464 
Q 2878 531 3122 666 
L 3122 134 
Q 2881 22 2623 -34 
Q 2366 -91 2075 -91 
Q 1284 -91 818 406 
Q 353 903 353 1747 
Q 353 2603 823 3093 
Q 1294 3584 2113 3584 
Q 2378 3584 2631 3529 
Q 2884 3475 3122 3366 
z
" transform="scale(0.015625)"/>
       <path id="DejaVuSans-79" d="M 2059 -325 
Q 1816 -950 1584 -1140 
Q 1353 -1331 966 -1331 
L 506 -1331 
L 506 -850 
L 844 -850 
Q 1081 -850 1212 -737 
Q 1344 -625 1503 -206 
L 1606 56 
L 191 3500 
L 800 3500 
L 1894 763 
L 2988 3500 
L 3597 3500 
L 2059 -325 
z
" transform="scale(0.015625)"/>
      </defs>
      <use xlink:href="#DejaVuSans-46"/>
      <use xlink:href="#DejaVuSans-72" transform="translate(50.269531 0)"/>
      <use xlink:href="#DejaVuSans-65" transform="translate(89.132812 0)"/>
      <use xlink:href="#DejaVuSans-71" transform="translate(150.65625 0)"/>
      <use xlink:href="#DejaVuSans-75" transform="translate(214.132812 0)"/>
      <use xlink:href="#DejaVuSans-65" transform="translate(277.511719 0)"/>
      <use xlink:href="#DejaVuSans-6e" transform="translate(339.035156 0)"/>
      <use xlink:href="#DejaVuSans-63" transform="translate(402.414062 0)"/>
      <use xlink:href="#DejaVuSans-79" transform="translate(457.394531 0)"/>
     </g>
    </g>
   </g>
   <g id="patch_26">
    <path d="M 51.05 285.82 
L 51.05 25.44 
" style="fill: none; stroke: #000000; stroke-width: 0.8; stroke-linejoin: miter; stroke-linecap: square"/>
   </g>
   <g id="patch_27">
    <path d="M 709.2 285.82 
L 709.2 25.44 
" style="fill: none; stroke: #000000; stroke-width: 0.8; stroke-linejoin: miter; stroke-linecap: square"/>
   </g>
   <g id="patch_28">
    <path d="M 51.05 285.82 
L 709.2 285.82 
" style="fill: none; stroke: #000000; stroke-width: 0.8; stroke-linejoin: miter; stroke-linecap: square"/>
   </g>
   <g id="patch_29">
    <path d="M 51.05 25.44 
L 709.2 25.44 
" style="fill: none; stroke: #000000; stroke-width: 0.8; stroke-linejoin: miter; stroke-linecap: square"/>
   </g>
   <g id="text_34">
    <!-- Frequency of Motif Orientation Patterns, for targets -0.2, -0.3, -0.4, -0.5 -->
    <g transform="translate(166.64125 19.44) scale(0.12 -0.12)">
     <defs>
      <path id="DejaVuSans-66" d="M 2375 4863 
L 2375 4384 
L 1825 4384 
Q 1516 4384 1395 4259 
Q 1275 4134 1275 3809 
L 1275 3500 
L 2222 3500 
L 2222 3053 
L 1275 3053 
L 1275 0 
L 697 0 
L 697 3053 
L 147 3053 
L 147 3500 
L 697 3500 
L 697 3744 
Q 697 4328 969 4595 
Q 1241 4863 1831 4863 
L 2375 4863 
z
" transform="scale(0.015625)"/>
      <path id="DejaVuSans-4d" d="M 628 4666 
L 1569 4666 
L 2759 1491 
L 3956 4666 
L 4897 4666 
L 4897 0 
L 4281 0 
L 4281 4097 
L 3078 897 
L 2444 897 
L 1241 4097 
L 1241 0 
L 628 0 
L 628 4666 
z
" transform="scale(0.015625)"/>
      <path id="DejaVuSans-73" d="M 2834 3397 
L 2834 2853 
Q 2591 2978 2328 3040 
Q 2066 3103 1784 3103 
Q 1356 3103 1142 2972 
Q 928 2841 928 2578 
Q 928 2378 1081 2264 
Q 1234 2150 1697 2047 
L 1894 2003 
Q 2506 1872 2764 1633 
Q 3022 1394 3022 966 
Q 3022 478 2636 193 
Q 2250 -91 1575 -91 
Q 1294 -91 989 -36 
Q 684 19 347 128 
L 347 722 
Q 666 556 975 473 
Q 1284 391 1588 391 
Q 1994 391 2212 530 
Q 2431 669 2431 922 
Q 2431 1156 2273 1281 
Q 2116 1406 1581 1522 
L 1381 1569 
Q 847 1681 609 1914 
Q 372 2147 372 2553 
Q 372 3047 722 3315 
Q 1072 3584 1716 3584 
Q 2034 3584 2315 3537 
Q 2597 3491 2834 3397 
z
" transform="scale(0.015625)"/>
      <path id="DejaVuSans-2c" d="M 750 794 
L 1409 794 
L 1409 256 
L 897 -744 
L 494 -744 
L 750 256 
L 750 794 
z
" transform="scale(0.015625)"/>
      <path id="DejaVuSans-67" d="M 2906 1791 
Q 2906 2416 2648 2759 
Q 2391 3103 1925 3103 
Q 1463 3103 1205 2759 
Q 947 2416 947 1791 
Q 947 1169 1205 825 
Q 1463 481 1925 481 
Q 2391 481 2648 825 
Q 2906 1169 2906 1791 
z
M 3481 434 
Q 3481 -459 3084 -895 
Q 2688 -1331 1869 -1331 
Q 1566 -1331 1297 -1286 
Q 1028 -1241 775 -1147 
L 775 -588 
Q 1028 -725 1275 -790 
Q 1522 -856 1778 -856 
Q 2344 -856 2625 -561 
Q 2906 -266 2906 331 
L 2906 616 
Q 2728 306 2450 153 
Q 2172 0 1784 0 
Q 1141 0 747 490 
Q 353 981 353 1791 
Q 353 2603 747 3093 
Q 1141 3584 1784 3584 
Q 2172 3584 2450 3431 
Q 2728 3278 2906 2969 
L 2906 3500 
L 3481 3500 
L 3481 434 
z
" transform="scale(0.015625)"/>
      <path id="DejaVuSans-2e" d="M 684 794 
L 1344 794 
L 1344 0 
L 684 0 
L 684 794 
z
" transform="scale(0.015625)"/>
      <path id="DejaVuSans-34" d="M 2419 4116 
L 825 1625 
L 2419 1625 
L 2419 4116 
z
M 2253 4666 
L 3047 4666 
L 3047 1625 
L 3713 1625 
L 3713 1100 
L 3047 1100 
L 3047 0 
L 2419 0 
L 2419 1100 
L 313 1100 
L 313 1709 
L 2253 4666 
z
" transform="scale(0.015625)"/>
     </defs>
     <use xlink:href="#DejaVuSans-46"/>
     <use xlink:href="#DejaVuSans-72" transform="translate(50.269531 0)"/>
     <use xlink:href="#DejaVuSans-65" transform="translate(89.132812 0)"/>
     <use xlink:href="#DejaVuSans-71" transform="translate(150.65625 0)"/>
     <use xlink:href="#DejaVuSans-75" transform="translate(214.132812 0)"/>
     <use xlink:href="#DejaVuSans-65" transform="translate(277.511719 0)"/>
     <use xlink:href="#DejaVuSans-6e" transform="translate(339.035156 0)"/>
     <use xlink:href="#DejaVuSans-63" transform="translate(402.414062 0)"/>
     <use xlink:href="#DejaVuSans-79" transform="translate(457.394531 0)"/>
     <use xlink:href="#DejaVuSans-20" transform="translate(516.574219 0)"/>
     <use xlink:href="#DejaVuSans-6f" transform="translate(548.361328 0)"/>
     <use xlink:href="#DejaVuSans-66" transform="translate(609.542969 0)"/>
     <use xlink:href="#DejaVuSans-20" transform="translate(644.748047 0)"/>
     <use xlink:href="#DejaVuSans-4d" transform="translate(676.535156 0)"/>
     <use xlink:href="#DejaVuSans-6f" transform="translate(762.814453 0)"/>
     <use xlink:href="#DejaVuSans-74" transform="translate(823.996094 0)"/>
     <use xlink:href="#DejaVuSans-69" transform="translate(863.205078 0)"/>
     <use xlink:href="#DejaVuSans-66" transform="translate(890.988281 0)"/>
     <use xlink:href="#DejaVuSans-20" transform="translate(926.193359 0)"/>
     <use xlink:href="#DejaVuSans-4f" transform="translate(957.980469 0)"/>
     <use xlink:href="#DejaVuSans-72" transform="translate(1036.691406 0)"/>
     <use xlink:href="#DejaVuSans-69" transform="translate(1077.804688 0)"/>
     <use xlink:href="#DejaVuSans-65" transform="translate(1105.587891 0)"/>
     <use xlink:href="#DejaVuSans-6e" transform="translate(1167.111328 0)"/>
     <use xlink:href="#DejaVuSans-74" transform="translate(1230.490234 0)"/>
     <use xlink:href="#DejaVuSans-61" transform="translate(1269.699219 0)"/>
     <use xlink:href="#DejaVuSans-74" transform="translate(1330.978516 0)"/>
     <use xlink:href="#DejaVuSans-69" transform="translate(1370.1875 0)"/>
     <use xlink:href="#DejaVuSans-6f" transform="translate(1397.970703 0)"/>
     <use xlink:href="#DejaVuSans-6e" transform="translate(1459.152344 0)"/>
     <use xlink:href="#DejaVuSans-20" transform="translate(1522.53125 0)"/>
     <use xlink:href="#DejaVuSans-50" transform="translate(1554.318359 0)"/>
     <use xlink:href="#DejaVuSans-61" transform="translate(1610.121094 0)"/>
     <use xlink:href="#DejaVuSans-74" transform="translate(1671.400391 0)"/>
     <use xlink:href="#DejaVuSans-74" transform="translate(1710.609375 0)"/>
     <use xlink:href="#DejaVuSans-65" transform="translate(1749.818359 0)"/>
     <use xlink:href="#DejaVuSans-72" transform="translate(1811.341797 0)"/>
     <use xlink:href="#DejaVuSans-6e" transform="translate(1850.705078 0)"/>
     <use xlink:href="#DejaVuSans-73" transform="translate(1914.083984 0)"/>
     <use xlink:href="#DejaVuSans-2c" transform="translate(1966.183594 0)"/>
     <use xlink:href="#DejaVuSans-20" transform="translate(1997.970703 0)"/>
     <use xlink:href="#DejaVuSans-66" transform="translate(2029.757812 0)"/>
     <use xlink:href="#DejaVuSans-6f" transform="translate(2064.962891 0)"/>
     <use xlink:href="#DejaVuSans-72" transform="translate(2126.144531 0)"/>
     <use xlink:href="#DejaVuSans-20" transform="translate(2167.257812 0)"/>
     <use xlink:href="#DejaVuSans-74" transform="translate(2199.044922 0)"/>
     <use xlink:href="#DejaVuSans-61" transform="translate(2238.253906 0)"/>
     <use xlink:href="#DejaVuSans-72" transform="translate(2299.533203 0)"/>
     <use xlink:href="#DejaVuSans-67" transform="translate(2338.896484 0)"/>
     <use xlink:href="#DejaVuSans-65" transform="translate(2402.373047 0)"/>
     <use xlink:href="#DejaVuSans-74" transform="translate(2463.896484 0)"/>
     <use xlink:href="#DejaVuSans-73" transform="translate(2503.105469 0)"/>
     <use xlink:href="#DejaVuSans-20" transform="translate(2555.205078 0)"/>
     <use xlink:href="#DejaVuSans-2d" transform="translate(2586.992188 0)"/>
     <use xlink:href="#DejaVuSans-30" transform="translate(2623.076172 0)"/>
     <use xlink:href="#DejaVuSans-2e" transform="translate(2686.699219 0)"/>
     <use xlink:href="#DejaVuSans-32" transform="translate(2718.486328 0)"/>
     <use xlink:href="#DejaVuSans-2c" transform="translate(2782.109375 0)"/>
     <use xlink:href="#DejaVuSans-20" transform="translate(2813.896484 0)"/>
     <use xlink:href="#DejaVuSans-2d" transform="translate(2845.683594 0)"/>
     <use xlink:href="#DejaVuSans-30" transform="translate(2881.767578 0)"/>
     <use xlink:href="#DejaVuSans-2e" transform="translate(2945.390625 0)"/>
     <use xlink:href="#DejaVuSans-33" transform="translate(2977.177734 0)"/>
     <use xlink:href="#DejaVuSans-2c" transform="translate(3040.800781 0)"/>
     <use xlink:href="#DejaVuSans-20" transform="translate(3072.587891 0)"/>
     <use xlink:href="#DejaVuSans-2d" transform="translate(3104.375 0)"/>
     <use xlink:href="#DejaVuSans-30" transform="translate(3140.458984 0)"/>
     <use xlink:href="#DejaVuSans-2e" transform="translate(3204.082031 0)"/>
     <use xlink:href="#DejaVuSans-34" transform="translate(3235.869141 0)"/>
     <use xlink:href="#DejaVuSans-2c" transform="translate(3299.492188 0)"/>
     <use xlink:href="#DejaVuSans-20" transform="translate(3331.279297 0)"/>
     <use xlink:href="#DejaVuSans-2d" transform="translate(3363.066406 0)"/>
     <use xlink:href="#DejaVuSans-30" transform="translate(3399.150391 0)"/>
     <use xlink:href="#DejaVuSans-2e" transform="translate(3462.773438 0)"/>
     <use xlink:href="#DejaVuSans-35" transform="translate(3494.560547 0)"/>
    </g>
   </g>
  </g>
 </g>
 <defs>
  <clipPath id="pf629954591">
   <rect x="51.05" y="25.44" width="658.15" height="260.38"/>
  </clipPath>
 </defs>
</svg>
