<?xml version="1.0" encoding="utf-8" standalone="no"?>
<!DOCTYPE svg PUBLIC "-//W3C//DTD SVG 1.1//EN"
  "http://www.w3.org/Graphics/SVG/1.1/DTD/svg11.dtd">
<svg xmlns:xlink="http://www.w3.org/1999/xlink" width="856.87375pt" height="279.034375pt" viewBox="0 0 856.87375 279.034375" xmlns="http://www.w3.org/2000/svg" version="1.1">
 <metadata>
  <rdf:RDF xmlns:dc="http://purl.org/dc/elements/1.1/" xmlns:cc="http://creativecommons.org/ns#" xmlns:rdf="http://www.w3.org/1999/02/22-rdf-syntax-ns#">
   <cc:Work>
    <dc:type rdf:resource="http://purl.org/dc/dcmitype/StillImage"/>
    <dc:date>2026-01-21T14:38:29.884999</dc:date>
    <dc:format>image/svg+xml</dc:format>
    <dc:creator>
     <cc:Agent>
      <dc:title>Matplotlib v3.10.1, https://matplotlib.org/</dc:title>
     </cc:Agent>
    </dc:creator>
   </cc:Work>
  </rdf:RDF>
 </metadata>
 <defs>
  <style type="text/css">*{stroke-linejoin: round; stroke-linecap: butt}</style>
 </defs>
 <g id="figure_1">
  <g id="patch_1">
   <path d="M -0 279.034375 
L 856.87375 279.034375 
L 856.87375 0 
L -0 0 
z
" style="fill: #ffffff"/>
  </g>
  <g id="axes_1">
   <g id="patch_2">
    <path d="M 48.74375 241.478125 
L 849.67375 241.478125 
L 849.67375 22.318125 
L 48.74375 22.318125 
z
" style="fill: #ffffff"/>
   </g>
   <g id="line2d_1">
    <path d="M 25.279004 221.554489 
L 857.87375 221.554489 
" clip-path="url(#pe07f66c4aa)" style="fill: none; stroke-dasharray: 2.96,1.28; stroke-dashoffset: 0; stroke: #d3d3d3; stroke-opacity: 0.8; stroke-width: 0.8"/>
   </g>
   <g id="line2d_2">
    <path d="M 25.279004 201.630852 
L 857.87375 201.630852 
" clip-path="url(#pe07f66c4aa)" style="fill: none; stroke-dasharray: 2.96,1.28; stroke-dashoffset: 0; stroke: #d3d3d3; stroke-opacity: 0.8; stroke-width: 0.8"/>
   </g>
   <g id="line2d_3">
    <path d="M 25.279004 181.707216 
L 857.87375 181.707216 
" clip-path="url(#pe07f66c4aa)" style="fill: none; stroke-dasharray: 2.96,1.28; stroke-dashoffset: 0; stroke: #d3d3d3; stroke-opacity: 0.8; stroke-width: 0.8"/>
   </g>
   <g id="line2d_4">
    <path d="M 25.279004 161.78358 
L 857.87375 161.78358 
" clip-path="url(#pe07f66c4aa)" style="fill: none; stroke-dasharray: 2.96,1.28; stroke-dashoffset: 0; stroke: #d3d3d3; stroke-opacity: 0.8; stroke-width: 0.8"/>
   </g>
   <g id="line2d_5">
    <path d="M 25.279004 141.859943 
L 857.87375 141.859943 
" clip-path="url(#pe07f66c4aa)" style="fill: none; stroke-dasharray: 2.96,1.28; stroke-dashoffset: 0; stroke: #d3d3d3; stroke-opacity: 0.8; stroke-width: 0.8"/>
   </g>
   <g id="line2d_6">
    <path d="M 25.279004 121.936307 
L 857.87375 121.936307 
" clip-path="url(#pe07f66c4aa)" style="fill: none; stroke-dasharray: 2.96,1.28; stroke-dashoffset: 0; stroke: #d3d3d3; stroke-opacity: 0.8; stroke-width: 0.8"/>
   </g>
   <g id="line2d_7">
    <path d="M 25.279004 102.01267 
L 857.87375 102.01267 
" clip-path="url(#pe07f66c4aa)" style="fill: none; stroke-dasharray: 2.96,1.28; stroke-dashoffset: 0; stroke: #d3d3d3; stroke-opacity: 0.8; stroke-width: 0.8"/>
   </g>
   <g id="line2d_8">
    <path d="M 25.279004 82.089034 
L 857.87375 82.089034 
" clip-path="url(#pe07f66c4aa)" style="fill: none; stroke-dasharray: 2.96,1.28; stroke-dashoffset: 0; stroke: #d3d3d3; stroke-opacity: 0.8; stroke-width: 0.8"/>
   </g>
   <g id="line2d_9">
    <path d="M 25.279004 62.165398 
L 857.87375 62.165398 
" clip-path="url(#pe07f66c4aa)" style="fill: none; stroke-dasharray: 2.96,1.28; stroke-dashoffset: 0; stroke: #d3d3d3; stroke-opacity: 0.8; stroke-width: 0.8"/>
   </g>
   <g id="line2d_10">
    <path d="M 25.279004 42.241761 
L 857.87375 42.241761 
" clip-path="url(#pe07f66c4aa)" style="fill: none; stroke-dasharray: 2.96,1.28; stroke-dashoffset: 0; stroke: #d3d3d3; stroke-opacity: 0.8; stroke-width: 0.8"/>
   </g>
   <g id="patch_3">
    <path d="M 228.249058 181.707216 
L 223.790756 184.695761 
L 223.790756 183.69958 
L 220.818555 183.69958 
L 220.818555 179.714852 
L 223.790756 179.714852 
L 223.790756 178.71867 
z
" clip-path="url(#pe07f66c4aa)" style="fill: #0000ff; stroke: #0000ff; stroke-linejoin: miter"/>
   </g>
   <g id="patch_4">
    <path d="M 249.758408 181.707216 
L 245.300106 184.695761 
L 245.300106 183.69958 
L 242.327905 183.69958 
L 242.327905 179.714852 
L 245.300106 179.714852 
L 245.300106 178.71867 
z
" clip-path="url(#pe07f66c4aa)" style="fill: #0000ff; stroke: #0000ff; stroke-linejoin: miter"/>
   </g>
   <g id="patch_5">
    <path d="M 279.871499 181.707216 
L 275.413197 184.695761 
L 275.413197 183.69958 
L 272.440996 183.69958 
L 272.440996 179.714852 
L 275.413197 179.714852 
L 275.413197 178.71867 
z
" clip-path="url(#pe07f66c4aa)" style="fill: #0000ff; stroke: #0000ff; stroke-linejoin: miter"/>
   </g>
   <g id="patch_6">
    <path d="M 459.376807 181.707216 
L 454.918505 184.695761 
L 454.918505 183.69958 
L 451.946304 183.69958 
L 451.946304 179.714852 
L 454.918505 179.714852 
L 454.918505 178.71867 
z
" clip-path="url(#pe07f66c4aa)" style="fill: #0000ff; stroke: #0000ff; stroke-linejoin: miter"/>
   </g>
   <g id="patch_7">
    <path d="M 474.628892 181.707216 
L 479.087193 178.71867 
L 479.087193 179.714852 
L 482.059395 179.714852 
L 482.059395 183.69958 
L 479.087193 183.69958 
L 479.087193 184.695761 
z
" clip-path="url(#pe07f66c4aa)" style="fill: #ff0000; stroke: #ff0000; stroke-linejoin: miter"/>
   </g>
   <g id="patch_8">
    <path d="M 501.222271 181.707216 
L 505.680572 178.71867 
L 505.680572 179.714852 
L 508.652773 179.714852 
L 508.652773 183.69958 
L 505.680572 183.69958 
L 505.680572 184.695761 
z
" clip-path="url(#pe07f66c4aa)" style="fill: #ff0000; stroke: #ff0000; stroke-linejoin: miter"/>
   </g>
   <g id="patch_9">
    <path d="M 565.750322 181.707216 
L 561.292021 184.695761 
L 561.292021 183.69958 
L 558.319819 183.69958 
L 558.319819 179.714852 
L 561.292021 179.714852 
L 561.292021 178.71867 
z
" clip-path="url(#pe07f66c4aa)" style="fill: #0000ff; stroke: #0000ff; stroke-linejoin: miter"/>
   </g>
   <g id="patch_10">
    <path d="M 758.16124 181.707216 
L 762.619542 178.71867 
L 762.619542 179.714852 
L 765.591743 179.714852 
L 765.591743 183.69958 
L 762.619542 183.69958 
L 762.619542 184.695761 
z
" clip-path="url(#pe07f66c4aa)" style="fill: #ff0000; stroke: #ff0000; stroke-linejoin: miter"/>
   </g>
   <g id="patch_11">
    <path d="M 813.694473 181.707216 
L 818.152774 178.71867 
L 818.152774 179.714852 
L 821.124976 179.714852 
L 821.124976 183.69958 
L 818.152774 183.69958 
L 818.152774 184.695761 
z
" clip-path="url(#pe07f66c4aa)" style="fill: #ff0000; stroke: #ff0000; stroke-linejoin: miter"/>
   </g>
   <g id="patch_12">
    <path d="M 249.758408 221.554489 
L 245.300106 224.543034 
L 245.300106 223.546852 
L 242.327905 223.546852 
L 242.327905 219.562125 
L 245.300106 219.562125 
L 245.300106 218.565943 
z
" clip-path="url(#pe07f66c4aa)" style="fill: #0000ff; stroke: #0000ff; stroke-linejoin: miter"/>
   </g>
   <g id="patch_13">
    <path d="M 430.045874 221.554489 
L 425.587572 224.543034 
L 425.587572 223.546852 
L 422.615371 223.546852 
L 422.615371 219.562125 
L 425.587572 219.562125 
L 425.587572 218.565943 
z
" clip-path="url(#pe07f66c4aa)" style="fill: #0000ff; stroke: #0000ff; stroke-linejoin: miter"/>
   </g>
   <g id="patch_14">
    <path d="M 448.035513 221.554489 
L 452.493814 218.565943 
L 452.493814 219.562125 
L 455.466016 219.562125 
L 455.466016 223.546852 
L 452.493814 223.546852 
L 452.493814 224.543034 
z
" clip-path="url(#pe07f66c4aa)" style="fill: #ff0000; stroke: #ff0000; stroke-linejoin: miter"/>
   </g>
   <g id="patch_15">
    <path d="M 484.01479 221.554489 
L 488.473092 218.565943 
L 488.473092 219.562125 
L 491.445293 219.562125 
L 491.445293 223.546852 
L 488.473092 223.546852 
L 488.473092 224.543034 
z
" clip-path="url(#pe07f66c4aa)" style="fill: #ff0000; stroke: #ff0000; stroke-linejoin: miter"/>
   </g>
   <g id="patch_16">
    <path d="M 703.801245 221.554489 
L 699.342943 224.543034 
L 699.342943 223.546852 
L 696.370742 223.546852 
L 696.370742 219.562125 
L 699.342943 219.562125 
L 699.342943 218.565943 
z
" clip-path="url(#pe07f66c4aa)" style="fill: #0000ff; stroke: #0000ff; stroke-linejoin: miter"/>
   </g>
   <g id="patch_17">
    <path d="M 714.360381 221.554489 
L 718.818683 218.565943 
L 718.818683 219.562125 
L 721.790884 219.562125 
L 721.790884 223.546852 
L 718.818683 223.546852 
L 718.818683 224.543034 
z
" clip-path="url(#pe07f66c4aa)" style="fill: #ff0000; stroke: #ff0000; stroke-linejoin: miter"/>
   </g>
   <g id="patch_18">
    <path d="M 760.507715 221.554489 
L 756.049413 224.543034 
L 756.049413 223.546852 
L 753.077212 223.546852 
L 753.077212 219.562125 
L 756.049413 219.562125 
L 756.049413 218.565943 
z
" clip-path="url(#pe07f66c4aa)" style="fill: #0000ff; stroke: #0000ff; stroke-linejoin: miter"/>
   </g>
   <g id="patch_19">
    <path d="M 775.7598 221.554489 
L 780.218102 218.565943 
L 780.218102 219.562125 
L 783.190303 219.562125 
L 783.190303 223.546852 
L 780.218102 223.546852 
L 780.218102 224.543034 
z
" clip-path="url(#pe07f66c4aa)" style="fill: #ff0000; stroke: #ff0000; stroke-linejoin: miter"/>
   </g>
   <g id="patch_20">
    <path d="M 228.249058 62.165398 
L 223.790756 65.153943 
L 223.790756 64.157761 
L 220.818555 64.157761 
L 220.818555 60.173034 
L 223.790756 60.173034 
L 223.790756 59.176852 
z
" clip-path="url(#pe07f66c4aa)" style="fill: #0000ff; stroke: #0000ff; stroke-linejoin: miter"/>
   </g>
   <g id="patch_21">
    <path d="M 249.758408 62.165398 
L 245.300106 65.153943 
L 245.300106 64.157761 
L 242.327905 64.157761 
L 242.327905 60.173034 
L 245.300106 60.173034 
L 245.300106 59.176852 
z
" clip-path="url(#pe07f66c4aa)" style="fill: #0000ff; stroke: #0000ff; stroke-linejoin: miter"/>
   </g>
   <g id="patch_22">
    <path d="M 409.318682 62.165398 
L 404.86038 65.153943 
L 404.86038 64.157761 
L 401.888179 64.157761 
L 401.888179 60.173034 
L 404.86038 60.173034 
L 404.86038 59.176852 
z
" clip-path="url(#pe07f66c4aa)" style="fill: #0000ff; stroke: #0000ff; stroke-linejoin: miter"/>
   </g>
   <g id="patch_23">
    <path d="M 448.035513 62.165398 
L 452.493814 59.176852 
L 452.493814 60.173034 
L 455.466016 60.173034 
L 455.466016 64.157761 
L 452.493814 64.157761 
L 452.493814 65.153943 
z
" clip-path="url(#pe07f66c4aa)" style="fill: #ff0000; stroke: #ff0000; stroke-linejoin: miter"/>
   </g>
   <g id="patch_24">
    <path d="M 483.623711 62.165398 
L 488.082013 59.176852 
L 488.082013 60.173034 
L 491.054214 60.173034 
L 491.054214 64.157761 
L 488.082013 64.157761 
L 488.082013 65.153943 
z
" clip-path="url(#pe07f66c4aa)" style="fill: #ff0000; stroke: #ff0000; stroke-linejoin: miter"/>
   </g>
   <g id="patch_25">
    <path d="M 598.209888 62.165398 
L 602.668189 59.176852 
L 602.668189 60.173034 
L 605.640391 60.173034 
L 605.640391 64.157761 
L 602.668189 64.157761 
L 602.668189 65.153943 
z
" clip-path="url(#pe07f66c4aa)" style="fill: #ff0000; stroke: #ff0000; stroke-linejoin: miter"/>
   </g>
   <g id="patch_26">
    <path d="M 710.840669 62.165398 
L 715.298971 59.176852 
L 715.298971 60.173034 
L 718.271172 60.173034 
L 718.271172 64.157761 
L 715.298971 64.157761 
L 715.298971 65.153943 
z
" clip-path="url(#pe07f66c4aa)" style="fill: #ff0000; stroke: #ff0000; stroke-linejoin: miter"/>
   </g>
   <g id="patch_27">
    <path d="M 747.993184 62.165398 
L 743.534882 65.153943 
L 743.534882 64.157761 
L 740.562681 64.157761 
L 740.562681 60.173034 
L 743.534882 60.173034 
L 743.534882 59.176852 
z
" clip-path="url(#pe07f66c4aa)" style="fill: #0000ff; stroke: #0000ff; stroke-linejoin: miter"/>
   </g>
   <g id="patch_28">
    <path d="M 785.536777 62.165398 
L 781.078476 65.153943 
L 781.078476 64.157761 
L 778.106274 64.157761 
L 778.106274 60.173034 
L 781.078476 60.173034 
L 781.078476 59.176852 
z
" clip-path="url(#pe07f66c4aa)" style="fill: #0000ff; stroke: #0000ff; stroke-linejoin: miter"/>
   </g>
   <g id="patch_29">
    <path d="M 228.249058 42.241761 
L 223.790756 45.230307 
L 223.790756 44.234125 
L 220.818555 44.234125 
L 220.818555 40.249398 
L 223.790756 40.249398 
L 223.790756 39.253216 
z
" clip-path="url(#pe07f66c4aa)" style="fill: #0000ff; stroke: #0000ff; stroke-linejoin: miter"/>
   </g>
   <g id="patch_30">
    <path d="M 249.758408 42.241761 
L 245.300106 45.230307 
L 245.300106 44.234125 
L 242.327905 44.234125 
L 242.327905 40.249398 
L 245.300106 40.249398 
L 245.300106 39.253216 
z
" clip-path="url(#pe07f66c4aa)" style="fill: #0000ff; stroke: #0000ff; stroke-linejoin: miter"/>
   </g>
   <g id="patch_31">
    <path d="M 430.045874 42.241761 
L 425.587572 45.230307 
L 425.587572 44.234125 
L 422.615371 44.234125 
L 422.615371 40.249398 
L 425.587572 40.249398 
L 425.587572 39.253216 
z
" clip-path="url(#pe07f66c4aa)" style="fill: #0000ff; stroke: #0000ff; stroke-linejoin: miter"/>
   </g>
   <g id="patch_32">
    <path d="M 448.035513 42.241761 
L 452.493814 39.253216 
L 452.493814 40.249398 
L 455.466016 40.249398 
L 455.466016 44.234125 
L 452.493814 44.234125 
L 452.493814 45.230307 
z
" clip-path="url(#pe07f66c4aa)" style="fill: #ff0000; stroke: #ff0000; stroke-linejoin: miter"/>
   </g>
   <g id="patch_33">
    <path d="M 482.841553 42.241761 
L 487.299854 39.253216 
L 487.299854 40.249398 
L 490.272056 40.249398 
L 490.272056 44.234125 
L 487.299854 44.234125 
L 487.299854 45.230307 
z
" clip-path="url(#pe07f66c4aa)" style="fill: #ff0000; stroke: #ff0000; stroke-linejoin: miter"/>
   </g>
   <g id="patch_34">
    <path d="M 709.276353 42.241761 
L 713.734654 39.253216 
L 713.734654 40.249398 
L 716.706855 40.249398 
L 716.706855 44.234125 
L 713.734654 44.234125 
L 713.734654 45.230307 
z
" clip-path="url(#pe07f66c4aa)" style="fill: #ff0000; stroke: #ff0000; stroke-linejoin: miter"/>
   </g>
   <g id="patch_35">
    <path d="M 724.919517 42.241761 
L 720.461215 45.230307 
L 720.461215 44.234125 
L 717.489014 44.234125 
L 717.489014 40.249398 
L 720.461215 40.249398 
L 720.461215 39.253216 
z
" clip-path="url(#pe07f66c4aa)" style="fill: #0000ff; stroke: #0000ff; stroke-linejoin: miter"/>
   </g>
   <g id="patch_36">
    <path d="M 743.691313 42.241761 
L 748.149615 39.253216 
L 748.149615 40.249398 
L 751.121816 40.249398 
L 751.121816 44.234125 
L 748.149615 44.234125 
L 748.149615 45.230307 
z
" clip-path="url(#pe07f66c4aa)" style="fill: #ff0000; stroke: #ff0000; stroke-linejoin: miter"/>
   </g>
   <g id="patch_37">
    <path d="M 785.536777 42.241761 
L 781.078476 45.230307 
L 781.078476 44.234125 
L 778.106274 44.234125 
L 778.106274 40.249398 
L 781.078476 40.249398 
L 781.078476 39.253216 
z
" clip-path="url(#pe07f66c4aa)" style="fill: #0000ff; stroke: #0000ff; stroke-linejoin: miter"/>
   </g>
   <g id="patch_38">
    <path d="M 796.486992 42.241761 
L 800.945294 39.253216 
L 800.945294 40.249398 
L 803.917495 40.249398 
L 803.917495 44.234125 
L 800.945294 44.234125 
L 800.945294 45.230307 
z
" clip-path="url(#pe07f66c4aa)" style="fill: #ff0000; stroke: #ff0000; stroke-linejoin: miter"/>
   </g>
   <g id="patch_39">
    <path d="M 95.282163 121.936307 
L 99.740465 118.947761 
L 99.740465 119.943943 
L 102.712666 119.943943 
L 102.712666 123.92867 
L 99.740465 123.92867 
L 99.740465 124.924852 
z
" clip-path="url(#pe07f66c4aa)" style="fill: #ff0000; stroke: #ff0000; stroke-linejoin: miter"/>
   </g>
   <g id="patch_40">
    <path d="M 405.79897 121.936307 
L 401.340668 124.924852 
L 401.340668 123.92867 
L 398.368467 123.92867 
L 398.368467 119.943943 
L 401.340668 119.943943 
L 401.340668 118.947761 
z
" clip-path="url(#pe07f66c4aa)" style="fill: #0000ff; stroke: #0000ff; stroke-linejoin: miter"/>
   </g>
   <g id="patch_41">
    <path d="M 427.30832 121.936307 
L 422.850019 124.924852 
L 422.850019 123.92867 
L 419.877817 123.92867 
L 419.877817 119.943943 
L 422.850019 119.943943 
L 422.850019 118.947761 
z
" clip-path="url(#pe07f66c4aa)" style="fill: #0000ff; stroke: #0000ff; stroke-linejoin: miter"/>
   </g>
   <g id="patch_42">
    <path d="M 448.035513 121.936307 
L 452.493814 118.947761 
L 452.493814 119.943943 
L 455.466016 119.943943 
L 455.466016 123.92867 
L 452.493814 123.92867 
L 452.493814 124.924852 
z
" clip-path="url(#pe07f66c4aa)" style="fill: #ff0000; stroke: #ff0000; stroke-linejoin: miter"/>
   </g>
   <g id="patch_43">
    <path d="M 587.650752 121.936307 
L 583.19245 124.924852 
L 583.19245 123.92867 
L 580.220249 123.92867 
L 580.220249 119.943943 
L 583.19245 119.943943 
L 583.19245 118.947761 
z
" clip-path="url(#pe07f66c4aa)" style="fill: #0000ff; stroke: #0000ff; stroke-linejoin: miter"/>
   </g>
   <g id="patch_44">
    <path d="M 598.209888 121.936307 
L 602.668189 118.947761 
L 602.668189 119.943943 
L 605.640391 119.943943 
L 605.640391 123.92867 
L 602.668189 123.92867 
L 602.668189 124.924852 
z
" clip-path="url(#pe07f66c4aa)" style="fill: #ff0000; stroke: #ff0000; stroke-linejoin: miter"/>
   </g>
   <g id="patch_45">
    <path d="M 633.798086 121.936307 
L 638.256388 118.947761 
L 638.256388 119.943943 
L 641.228589 119.943943 
L 641.228589 123.92867 
L 638.256388 123.92867 
L 638.256388 124.924852 
z
" clip-path="url(#pe07f66c4aa)" style="fill: #ff0000; stroke: #ff0000; stroke-linejoin: miter"/>
   </g>
   <g id="patch_46">
    <path d="M 747.993184 121.936307 
L 743.534882 124.924852 
L 743.534882 123.92867 
L 740.562681 123.92867 
L 740.562681 119.943943 
L 743.534882 119.943943 
L 743.534882 118.947761 
z
" clip-path="url(#pe07f66c4aa)" style="fill: #0000ff; stroke: #0000ff; stroke-linejoin: miter"/>
   </g>
   <g id="patch_47">
    <path d="M 774.977642 121.936307 
L 770.51934 124.924852 
L 770.51934 123.92867 
L 767.547139 123.92867 
L 767.547139 119.943943 
L 770.51934 119.943943 
L 770.51934 118.947761 
z
" clip-path="url(#pe07f66c4aa)" style="fill: #0000ff; stroke: #0000ff; stroke-linejoin: miter"/>
   </g>
   <g id="patch_48">
    <path d="M 249.758408 161.78358 
L 245.300106 164.772125 
L 245.300106 163.775943 
L 242.327905 163.775943 
L 242.327905 159.791216 
L 245.300106 159.791216 
L 245.300106 158.795034 
z
" clip-path="url(#pe07f66c4aa)" style="fill: #0000ff; stroke: #0000ff; stroke-linejoin: miter"/>
   </g>
   <g id="patch_49">
    <path d="M 275.960708 161.78358 
L 271.502406 164.772125 
L 271.502406 163.775943 
L 268.530205 163.775943 
L 268.530205 159.791216 
L 271.502406 159.791216 
L 271.502406 158.795034 
z
" clip-path="url(#pe07f66c4aa)" style="fill: #0000ff; stroke: #0000ff; stroke-linejoin: miter"/>
   </g>
   <g id="patch_50">
    <path d="M 410.10084 161.78358 
L 405.642538 164.772125 
L 405.642538 163.775943 
L 402.670337 163.775943 
L 402.670337 159.791216 
L 405.642538 159.791216 
L 405.642538 158.795034 
z
" clip-path="url(#pe07f66c4aa)" style="fill: #0000ff; stroke: #0000ff; stroke-linejoin: miter"/>
   </g>
   <g id="patch_51">
    <path d="M 427.30832 161.78358 
L 422.850019 164.772125 
L 422.850019 163.775943 
L 419.877817 163.775943 
L 419.877817 159.791216 
L 422.850019 159.791216 
L 422.850019 158.795034 
z
" clip-path="url(#pe07f66c4aa)" style="fill: #0000ff; stroke: #0000ff; stroke-linejoin: miter"/>
   </g>
   <g id="patch_52">
    <path d="M 457.421411 161.78358 
L 452.963109 164.772125 
L 452.963109 163.775943 
L 449.990908 163.775943 
L 449.990908 159.791216 
L 452.963109 159.791216 
L 452.963109 158.795034 
z
" clip-path="url(#pe07f66c4aa)" style="fill: #0000ff; stroke: #0000ff; stroke-linejoin: miter"/>
   </g>
   <g id="patch_53">
    <path d="M 558.319819 161.78358 
L 553.861518 164.772125 
L 553.861518 163.775943 
L 550.889316 163.775943 
L 550.889316 159.791216 
L 553.861518 159.791216 
L 553.861518 158.795034 
z
" clip-path="url(#pe07f66c4aa)" style="fill: #0000ff; stroke: #0000ff; stroke-linejoin: miter"/>
   </g>
   <g id="patch_54">
    <path d="M 570.834351 161.78358 
L 575.292652 158.795034 
L 575.292652 159.791216 
L 578.264854 159.791216 
L 578.264854 163.775943 
L 575.292652 163.775943 
L 575.292652 164.772125 
z
" clip-path="url(#pe07f66c4aa)" style="fill: #ff0000; stroke: #ff0000; stroke-linejoin: miter"/>
   </g>
   <g id="patch_55">
    <path d="M 586.477515 161.78358 
L 582.019213 164.772125 
L 582.019213 163.775943 
L 579.047012 163.775943 
L 579.047012 159.791216 
L 582.019213 159.791216 
L 582.019213 158.795034 
z
" clip-path="url(#pe07f66c4aa)" style="fill: #0000ff; stroke: #0000ff; stroke-linejoin: miter"/>
   </g>
   <g id="patch_56">
    <path d="M 598.209888 161.78358 
L 602.668189 158.795034 
L 602.668189 159.791216 
L 605.640391 159.791216 
L 605.640391 163.775943 
L 602.668189 163.775943 
L 602.668189 164.772125 
z
" clip-path="url(#pe07f66c4aa)" style="fill: #ff0000; stroke: #ff0000; stroke-linejoin: miter"/>
   </g>
   <g id="patch_57">
    <path d="M 633.798086 161.78358 
L 638.256388 158.795034 
L 638.256388 159.791216 
L 641.228589 159.791216 
L 641.228589 163.775943 
L 638.256388 163.775943 
L 638.256388 164.772125 
z
" clip-path="url(#pe07f66c4aa)" style="fill: #ff0000; stroke: #ff0000; stroke-linejoin: miter"/>
   </g>
   <g id="patch_58">
    <path d="M 782.408145 161.78358 
L 786.866446 158.795034 
L 786.866446 159.791216 
L 789.838647 159.791216 
L 789.838647 163.775943 
L 786.866446 163.775943 
L 786.866446 164.772125 
z
" clip-path="url(#pe07f66c4aa)" style="fill: #ff0000; stroke: #ff0000; stroke-linejoin: miter"/>
   </g>
   <g id="patch_59">
    <path d="M 249.758408 141.859943 
L 245.300106 144.848489 
L 245.300106 143.852307 
L 242.327905 143.852307 
L 242.327905 139.86758 
L 245.300106 139.86758 
L 245.300106 138.871398 
z
" clip-path="url(#pe07f66c4aa)" style="fill: #0000ff; stroke: #0000ff; stroke-linejoin: miter"/>
   </g>
   <g id="patch_60">
    <path d="M 280.262578 141.859943 
L 275.804276 144.848489 
L 275.804276 143.852307 
L 272.832075 143.852307 
L 272.832075 139.86758 
L 275.804276 139.86758 
L 275.804276 138.871398 
z
" clip-path="url(#pe07f66c4aa)" style="fill: #0000ff; stroke: #0000ff; stroke-linejoin: miter"/>
   </g>
   <g id="patch_61">
    <path d="M 311.939985 141.859943 
L 307.481684 144.848489 
L 307.481684 143.852307 
L 304.509482 143.852307 
L 304.509482 139.86758 
L 307.481684 139.86758 
L 307.481684 138.871398 
z
" clip-path="url(#pe07f66c4aa)" style="fill: #0000ff; stroke: #0000ff; stroke-linejoin: miter"/>
   </g>
   <g id="patch_62">
    <path d="M 408.927603 141.859943 
L 404.469301 144.848489 
L 404.469301 143.852307 
L 401.4971 143.852307 
L 401.4971 139.86758 
L 404.469301 139.86758 
L 404.469301 138.871398 
z
" clip-path="url(#pe07f66c4aa)" style="fill: #0000ff; stroke: #0000ff; stroke-linejoin: miter"/>
   </g>
   <g id="patch_63">
    <path d="M 430.045874 141.859943 
L 425.587572 144.848489 
L 425.587572 143.852307 
L 422.615371 143.852307 
L 422.615371 139.86758 
L 425.587572 139.86758 
L 425.587572 138.871398 
z
" clip-path="url(#pe07f66c4aa)" style="fill: #0000ff; stroke: #0000ff; stroke-linejoin: miter"/>
   </g>
   <g id="patch_64">
    <path d="M 457.421411 141.859943 
L 452.963109 144.848489 
L 452.963109 143.852307 
L 449.990908 143.852307 
L 449.990908 139.86758 
L 452.963109 139.86758 
L 452.963109 138.871398 
z
" clip-path="url(#pe07f66c4aa)" style="fill: #0000ff; stroke: #0000ff; stroke-linejoin: miter"/>
   </g>
   <g id="patch_65">
    <path d="M 566.92356 141.859943 
L 562.465258 144.848489 
L 562.465258 143.852307 
L 559.493057 143.852307 
L 559.493057 139.86758 
L 562.465258 139.86758 
L 562.465258 138.871398 
z
" clip-path="url(#pe07f66c4aa)" style="fill: #0000ff; stroke: #0000ff; stroke-linejoin: miter"/>
   </g>
   <g id="patch_66">
    <path d="M 574.354063 141.859943 
L 578.812364 138.871398 
L 578.812364 139.86758 
L 581.784565 139.86758 
L 581.784565 143.852307 
L 578.812364 143.852307 
L 578.812364 144.848489 
z
" clip-path="url(#pe07f66c4aa)" style="fill: #ff0000; stroke: #ff0000; stroke-linejoin: miter"/>
   </g>
   <g id="patch_67">
    <path d="M 598.209888 141.859943 
L 602.668189 138.871398 
L 602.668189 139.86758 
L 605.640391 139.86758 
L 605.640391 143.852307 
L 602.668189 143.852307 
L 602.668189 144.848489 
z
" clip-path="url(#pe07f66c4aa)" style="fill: #ff0000; stroke: #ff0000; stroke-linejoin: miter"/>
   </g>
   <g id="patch_68">
    <path d="M 633.407007 141.859943 
L 637.865309 138.871398 
L 637.865309 139.86758 
L 640.83751 139.86758 
L 640.83751 143.852307 
L 637.865309 143.852307 
L 637.865309 144.848489 
z
" clip-path="url(#pe07f66c4aa)" style="fill: #ff0000; stroke: #ff0000; stroke-linejoin: miter"/>
   </g>
   <g id="patch_69">
    <path d="M 796.486992 141.859943 
L 800.945294 138.871398 
L 800.945294 139.86758 
L 803.917495 139.86758 
L 803.917495 143.852307 
L 800.945294 143.852307 
L 800.945294 144.848489 
z
" clip-path="url(#pe07f66c4aa)" style="fill: #ff0000; stroke: #ff0000; stroke-linejoin: miter"/>
   </g>
   <g id="patch_70">
    <path d="M 141.820576 82.089034 
L 146.278878 79.100489 
L 146.278878 80.09667 
L 149.251079 80.09667 
L 149.251079 84.081398 
L 146.278878 84.081398 
L 146.278878 85.07758 
z
" clip-path="url(#pe07f66c4aa)" style="fill: #ff0000; stroke: #ff0000; stroke-linejoin: miter"/>
   </g>
   <g id="patch_71">
    <path d="M 228.249058 82.089034 
L 223.790756 85.07758 
L 223.790756 84.081398 
L 220.818555 84.081398 
L 220.818555 80.09667 
L 223.790756 80.09667 
L 223.790756 79.100489 
z
" clip-path="url(#pe07f66c4aa)" style="fill: #0000ff; stroke: #0000ff; stroke-linejoin: miter"/>
   </g>
   <g id="patch_72">
    <path d="M 359.260557 82.089034 
L 354.802255 85.07758 
L 354.802255 84.081398 
L 351.830054 84.081398 
L 351.830054 80.09667 
L 354.802255 80.09667 
L 354.802255 79.100489 
z
" clip-path="url(#pe07f66c4aa)" style="fill: #0000ff; stroke: #0000ff; stroke-linejoin: miter"/>
   </g>
   <g id="patch_73">
    <path d="M 369.037534 82.089034 
L 373.495836 79.100489 
L 373.495836 80.09667 
L 376.468037 80.09667 
L 376.468037 84.081398 
L 373.495836 84.081398 
L 373.495836 85.07758 
z
" clip-path="url(#pe07f66c4aa)" style="fill: #ff0000; stroke: #ff0000; stroke-linejoin: miter"/>
   </g>
   <g id="patch_74">
    <path d="M 584.522119 82.089034 
L 580.063817 85.07758 
L 580.063817 84.081398 
L 577.091616 84.081398 
L 577.091616 80.09667 
L 580.063817 80.09667 
L 580.063817 79.100489 
z
" clip-path="url(#pe07f66c4aa)" style="fill: #0000ff; stroke: #0000ff; stroke-linejoin: miter"/>
   </g>
   <g id="patch_75">
    <path d="M 598.209888 82.089034 
L 602.668189 79.100489 
L 602.668189 80.09667 
L 605.640391 80.09667 
L 605.640391 84.081398 
L 602.668189 84.081398 
L 602.668189 85.07758 
z
" clip-path="url(#pe07f66c4aa)" style="fill: #ff0000; stroke: #ff0000; stroke-linejoin: miter"/>
   </g>
   <g id="patch_76">
    <path d="M 633.407007 82.089034 
L 637.865309 79.100489 
L 637.865309 80.09667 
L 640.83751 80.09667 
L 640.83751 84.081398 
L 637.865309 84.081398 
L 637.865309 85.07758 
z
" clip-path="url(#pe07f66c4aa)" style="fill: #ff0000; stroke: #ff0000; stroke-linejoin: miter"/>
   </g>
   <g id="patch_77">
    <path d="M 743.691313 82.089034 
L 748.149615 79.100489 
L 748.149615 80.09667 
L 751.121816 80.09667 
L 751.121816 84.081398 
L 748.149615 84.081398 
L 748.149615 85.07758 
z
" clip-path="url(#pe07f66c4aa)" style="fill: #ff0000; stroke: #ff0000; stroke-linejoin: miter"/>
   </g>
   <g id="patch_78">
    <path d="M 785.536777 82.089034 
L 781.078476 85.07758 
L 781.078476 84.081398 
L 778.106274 84.081398 
L 778.106274 80.09667 
L 781.078476 80.09667 
L 781.078476 79.100489 
z
" clip-path="url(#pe07f66c4aa)" style="fill: #0000ff; stroke: #0000ff; stroke-linejoin: miter"/>
   </g>
   <g id="patch_79">
    <path d="M 132.825757 102.01267 
L 137.284059 99.024125 
L 137.284059 100.020307 
L 140.25626 100.020307 
L 140.25626 104.005034 
L 137.284059 104.005034 
L 137.284059 105.001216 
z
" clip-path="url(#pe07f66c4aa)" style="fill: #ff0000; stroke: #ff0000; stroke-linejoin: miter"/>
   </g>
   <g id="patch_80">
    <path d="M 385.071777 102.01267 
L 380.613476 105.001216 
L 380.613476 104.005034 
L 377.641274 104.005034 
L 377.641274 100.020307 
L 380.613476 100.020307 
L 380.613476 99.024125 
z
" clip-path="url(#pe07f66c4aa)" style="fill: #0000ff; stroke: #0000ff; stroke-linejoin: miter"/>
   </g>
   <g id="patch_81">
    <path d="M 547.760684 102.01267 
L 552.218985 99.024125 
L 552.218985 100.020307 
L 555.191187 100.020307 
L 555.191187 104.005034 
L 552.218985 104.005034 
L 552.218985 105.001216 
z
" clip-path="url(#pe07f66c4aa)" style="fill: #ff0000; stroke: #ff0000; stroke-linejoin: miter"/>
   </g>
   <g id="patch_82">
    <path d="M 586.477515 102.01267 
L 582.019213 105.001216 
L 582.019213 104.005034 
L 579.047012 104.005034 
L 579.047012 100.020307 
L 582.019213 100.020307 
L 582.019213 99.024125 
z
" clip-path="url(#pe07f66c4aa)" style="fill: #0000ff; stroke: #0000ff; stroke-linejoin: miter"/>
   </g>
   <g id="patch_83">
    <path d="M 598.209888 102.01267 
L 602.668189 99.024125 
L 602.668189 100.020307 
L 605.640391 100.020307 
L 605.640391 104.005034 
L 602.668189 104.005034 
L 602.668189 105.001216 
z
" clip-path="url(#pe07f66c4aa)" style="fill: #ff0000; stroke: #ff0000; stroke-linejoin: miter"/>
   </g>
   <g id="patch_84">
    <path d="M 633.407007 102.01267 
L 637.865309 99.024125 
L 637.865309 100.020307 
L 640.83751 100.020307 
L 640.83751 104.005034 
L 637.865309 104.005034 
L 637.865309 105.001216 
z
" clip-path="url(#pe07f66c4aa)" style="fill: #ff0000; stroke: #ff0000; stroke-linejoin: miter"/>
   </g>
   <g id="patch_85">
    <path d="M 747.993184 102.01267 
L 743.534882 105.001216 
L 743.534882 104.005034 
L 740.562681 104.005034 
L 740.562681 100.020307 
L 743.534882 100.020307 
L 743.534882 99.024125 
z
" clip-path="url(#pe07f66c4aa)" style="fill: #0000ff; stroke: #0000ff; stroke-linejoin: miter"/>
   </g>
   <g id="patch_86">
    <path d="M 769.893613 102.01267 
L 765.435312 105.001216 
L 765.435312 104.005034 
L 762.46311 104.005034 
L 762.46311 100.020307 
L 765.435312 100.020307 
L 765.435312 99.024125 
z
" clip-path="url(#pe07f66c4aa)" style="fill: #0000ff; stroke: #0000ff; stroke-linejoin: miter"/>
   </g>
   <g id="patch_87">
    <path d="M 785.536777 102.01267 
L 781.078476 105.001216 
L 781.078476 104.005034 
L 778.106274 104.005034 
L 778.106274 100.020307 
L 781.078476 100.020307 
L 781.078476 99.024125 
z
" clip-path="url(#pe07f66c4aa)" style="fill: #0000ff; stroke: #0000ff; stroke-linejoin: miter"/>
   </g>
   <g id="patch_88">
    <path d="M 228.249058 201.630852 
L 223.790756 204.619398 
L 223.790756 203.623216 
L 220.818555 203.623216 
L 220.818555 199.638489 
L 223.790756 199.638489 
L 223.790756 198.642307 
z
" clip-path="url(#pe07f66c4aa)" style="fill: #0000ff; stroke: #0000ff; stroke-linejoin: miter"/>
   </g>
   <g id="patch_89">
    <path d="M 249.758408 201.630852 
L 245.300106 204.619398 
L 245.300106 203.623216 
L 242.327905 203.623216 
L 242.327905 199.638489 
L 245.300106 199.638489 
L 245.300106 198.642307 
z
" clip-path="url(#pe07f66c4aa)" style="fill: #0000ff; stroke: #0000ff; stroke-linejoin: miter"/>
   </g>
   <g id="patch_90">
    <path d="M 331.102861 201.630852 
L 326.64456 204.619398 
L 326.64456 203.623216 
L 323.672358 203.623216 
L 323.672358 199.638489 
L 326.64456 199.638489 
L 326.64456 198.642307 
z
" clip-path="url(#pe07f66c4aa)" style="fill: #0000ff; stroke: #0000ff; stroke-linejoin: miter"/>
   </g>
   <g id="patch_91">
    <path d="M 344.008472 201.630852 
L 348.466773 198.642307 
L 348.466773 199.638489 
L 351.438975 199.638489 
L 351.438975 203.623216 
L 348.466773 203.623216 
L 348.466773 204.619398 
z
" clip-path="url(#pe07f66c4aa)" style="fill: #ff0000; stroke: #ff0000; stroke-linejoin: miter"/>
   </g>
   <g id="patch_92">
    <path d="M 385.071777 201.630852 
L 380.613476 204.619398 
L 380.613476 203.623216 
L 377.641274 203.623216 
L 377.641274 199.638489 
L 380.613476 199.638489 
L 380.613476 198.642307 
z
" clip-path="url(#pe07f66c4aa)" style="fill: #0000ff; stroke: #0000ff; stroke-linejoin: miter"/>
   </g>
   <g id="patch_93">
    <path d="M 565.750322 201.630852 
L 561.292021 204.619398 
L 561.292021 203.623216 
L 558.319819 203.623216 
L 558.319819 199.638489 
L 561.292021 199.638489 
L 561.292021 198.642307 
z
" clip-path="url(#pe07f66c4aa)" style="fill: #0000ff; stroke: #0000ff; stroke-linejoin: miter"/>
   </g>
   <g id="patch_94">
    <path d="M 587.650752 201.630852 
L 583.19245 204.619398 
L 583.19245 203.623216 
L 580.220249 203.623216 
L 580.220249 199.638489 
L 583.19245 199.638489 
L 583.19245 198.642307 
z
" clip-path="url(#pe07f66c4aa)" style="fill: #0000ff; stroke: #0000ff; stroke-linejoin: miter"/>
   </g>
   <g id="patch_95">
    <path d="M 598.209888 201.630852 
L 602.668189 198.642307 
L 602.668189 199.638489 
L 605.640391 199.638489 
L 605.640391 203.623216 
L 602.668189 203.623216 
L 602.668189 204.619398 
z
" clip-path="url(#pe07f66c4aa)" style="fill: #ff0000; stroke: #ff0000; stroke-linejoin: miter"/>
   </g>
   <g id="patch_96">
    <path d="M 633.798086 201.630852 
L 638.256388 198.642307 
L 638.256388 199.638489 
L 641.228589 199.638489 
L 641.228589 203.623216 
L 638.256388 203.623216 
L 638.256388 204.619398 
z
" clip-path="url(#pe07f66c4aa)" style="fill: #ff0000; stroke: #ff0000; stroke-linejoin: miter"/>
   </g>
   <g id="patch_97">
    <path d="M 740.562681 201.630852 
L 745.020982 198.642307 
L 745.020982 199.638489 
L 747.993184 199.638489 
L 747.993184 203.623216 
L 745.020982 203.623216 
L 745.020982 204.619398 
z
" clip-path="url(#pe07f66c4aa)" style="fill: #ff0000; stroke: #ff0000; stroke-linejoin: miter"/>
   </g>
   <g id="matplotlib.axis_1">
    <g id="xtick_1">
     <g id="line2d_11">
      <path d="M 48.74375 241.478125 
L 48.74375 22.318125 
" clip-path="url(#pe07f66c4aa)" style="fill: none; stroke-dasharray: 2.96,1.28; stroke-dashoffset: 0; stroke: #b0b0b0; stroke-opacity: 0.4; stroke-width: 0.8"/>
     </g>
     <g id="line2d_12">
      <defs>
       <path id="m37cf0629c3" d="M 0 0 
L 0 3.5 
" style="stroke: #000000; stroke-width: 0.8"/>
      </defs>
      <g>
       <use xlink:href="#m37cf0629c3" x="48.74375" y="241.478125" style="stroke: #000000; stroke-width: 0.8"/>
      </g>
     </g>
     <g id="text_1">
      <!-- 0 -->
      <g transform="translate(45.5625 256.076563) scale(0.1 -0.1)">
       <defs>
        <path id="DejaVuSans-30" d="M 2034 4250 
Q 1547 4250 1301 3770 
Q 1056 3291 1056 2328 
Q 1056 1369 1301 889 
Q 1547 409 2034 409 
Q 2525 409 2770 889 
Q 3016 1369 3016 2328 
Q 3016 3291 2770 3770 
Q 2525 4250 2034 4250 
z
M 2034 4750 
Q 2819 4750 3233 4129 
Q 3647 3509 3647 2328 
Q 3647 1150 3233 529 
Q 2819 -91 2034 -91 
Q 1250 -91 836 529 
Q 422 1150 422 2328 
Q 422 3509 836 4129 
Q 1250 4750 2034 4750 
z
" transform="scale(0.015625)"/>
       </defs>
       <use xlink:href="#DejaVuSans-30"/>
      </g>
     </g>
    </g>
    <g id="xtick_2">
     <g id="line2d_13">
      <path d="M 146.513525 241.478125 
L 146.513525 22.318125 
" clip-path="url(#pe07f66c4aa)" style="fill: none; stroke-dasharray: 2.96,1.28; stroke-dashoffset: 0; stroke: #b0b0b0; stroke-opacity: 0.4; stroke-width: 0.8"/>
     </g>
     <g id="line2d_14">
      <g>
       <use xlink:href="#m37cf0629c3" x="146.513525" y="241.478125" style="stroke: #000000; stroke-width: 0.8"/>
      </g>
     </g>
     <g id="text_2">
      <!-- 250 -->
      <g transform="translate(136.969775 256.076563) scale(0.1 -0.1)">
       <defs>
        <path id="DejaVuSans-32" d="M 1228 531 
L 3431 531 
L 3431 0 
L 469 0 
L 469 531 
Q 828 903 1448 1529 
Q 2069 2156 2228 2338 
Q 2531 2678 2651 2914 
Q 2772 3150 2772 3378 
Q 2772 3750 2511 3984 
Q 2250 4219 1831 4219 
Q 1534 4219 1204 4116 
Q 875 4013 500 3803 
L 500 4441 
Q 881 4594 1212 4672 
Q 1544 4750 1819 4750 
Q 2544 4750 2975 4387 
Q 3406 4025 3406 3419 
Q 3406 3131 3298 2873 
Q 3191 2616 2906 2266 
Q 2828 2175 2409 1742 
Q 1991 1309 1228 531 
z
" transform="scale(0.015625)"/>
        <path id="DejaVuSans-35" d="M 691 4666 
L 3169 4666 
L 3169 4134 
L 1269 4134 
L 1269 2991 
Q 1406 3038 1543 3061 
Q 1681 3084 1819 3084 
Q 2600 3084 3056 2656 
Q 3513 2228 3513 1497 
Q 3513 744 3044 326 
Q 2575 -91 1722 -91 
Q 1428 -91 1123 -41 
Q 819 9 494 109 
L 494 744 
Q 775 591 1075 516 
Q 1375 441 1709 441 
Q 2250 441 2565 725 
Q 2881 1009 2881 1497 
Q 2881 1984 2565 2268 
Q 2250 2553 1709 2553 
Q 1456 2553 1204 2497 
Q 953 2441 691 2322 
L 691 4666 
z
" transform="scale(0.015625)"/>
       </defs>
       <use xlink:href="#DejaVuSans-32"/>
       <use xlink:href="#DejaVuSans-35" transform="translate(63.623047 0)"/>
       <use xlink:href="#DejaVuSans-30" transform="translate(127.246094 0)"/>
      </g>
     </g>
    </g>
    <g id="xtick_3">
     <g id="line2d_15">
      <path d="M 244.283301 241.478125 
L 244.283301 22.318125 
" clip-path="url(#pe07f66c4aa)" style="fill: none; stroke-dasharray: 2.96,1.28; stroke-dashoffset: 0; stroke: #b0b0b0; stroke-opacity: 0.4; stroke-width: 0.8"/>
     </g>
     <g id="line2d_16">
      <g>
       <use xlink:href="#m37cf0629c3" x="244.283301" y="241.478125" style="stroke: #000000; stroke-width: 0.8"/>
      </g>
     </g>
     <g id="text_3">
      <!-- 500 -->
      <g transform="translate(234.739551 256.076563) scale(0.1 -0.1)">
       <use xlink:href="#DejaVuSans-35"/>
       <use xlink:href="#DejaVuSans-30" transform="translate(63.623047 0)"/>
       <use xlink:href="#DejaVuSans-30" transform="translate(127.246094 0)"/>
      </g>
     </g>
    </g>
    <g id="xtick_4">
     <g id="line2d_17">
      <path d="M 342.053076 241.478125 
L 342.053076 22.318125 
" clip-path="url(#pe07f66c4aa)" style="fill: none; stroke-dasharray: 2.96,1.28; stroke-dashoffset: 0; stroke: #b0b0b0; stroke-opacity: 0.4; stroke-width: 0.8"/>
     </g>
     <g id="line2d_18">
      <g>
       <use xlink:href="#m37cf0629c3" x="342.053076" y="241.478125" style="stroke: #000000; stroke-width: 0.8"/>
      </g>
     </g>
     <g id="text_4">
      <!-- 750 -->
      <g transform="translate(332.509326 256.076563) scale(0.1 -0.1)">
       <defs>
        <path id="DejaVuSans-37" d="M 525 4666 
L 3525 4666 
L 3525 4397 
L 1831 0 
L 1172 0 
L 2766 4134 
L 525 4134 
L 525 4666 
z
" transform="scale(0.015625)"/>
       </defs>
       <use xlink:href="#DejaVuSans-37"/>
       <use xlink:href="#DejaVuSans-35" transform="translate(63.623047 0)"/>
       <use xlink:href="#DejaVuSans-30" transform="translate(127.246094 0)"/>
      </g>
     </g>
    </g>
    <g id="xtick_5">
     <g id="line2d_19">
      <path d="M 439.822852 241.478125 
L 439.822852 22.318125 
" clip-path="url(#pe07f66c4aa)" style="fill: none; stroke-dasharray: 2.96,1.28; stroke-dashoffset: 0; stroke: #b0b0b0; stroke-opacity: 0.4; stroke-width: 0.8"/>
     </g>
     <g id="line2d_20">
      <g>
       <use xlink:href="#m37cf0629c3" x="439.822852" y="241.478125" style="stroke: #000000; stroke-width: 0.8"/>
      </g>
     </g>
     <g id="text_5">
      <!-- 1000 -->
      <g transform="translate(427.097852 256.076563) scale(0.1 -0.1)">
       <defs>
        <path id="DejaVuSans-31" d="M 794 531 
L 1825 531 
L 1825 4091 
L 703 3866 
L 703 4441 
L 1819 4666 
L 2450 4666 
L 2450 531 
L 3481 531 
L 3481 0 
L 794 0 
L 794 531 
z
" transform="scale(0.015625)"/>
       </defs>
       <use xlink:href="#DejaVuSans-31"/>
       <use xlink:href="#DejaVuSans-30" transform="translate(63.623047 0)"/>
       <use xlink:href="#DejaVuSans-30" transform="translate(127.246094 0)"/>
       <use xlink:href="#DejaVuSans-30" transform="translate(190.869141 0)"/>
      </g>
     </g>
    </g>
    <g id="xtick_6">
     <g id="line2d_21">
      <path d="M 537.592627 241.478125 
L 537.592627 22.318125 
" clip-path="url(#pe07f66c4aa)" style="fill: none; stroke-dasharray: 2.96,1.28; stroke-dashoffset: 0; stroke: #b0b0b0; stroke-opacity: 0.4; stroke-width: 0.8"/>
     </g>
     <g id="line2d_22">
      <g>
       <use xlink:href="#m37cf0629c3" x="537.592627" y="241.478125" style="stroke: #000000; stroke-width: 0.8"/>
      </g>
     </g>
     <g id="text_6">
      <!-- 1250 -->
      <g transform="translate(524.867627 256.076563) scale(0.1 -0.1)">
       <use xlink:href="#DejaVuSans-31"/>
       <use xlink:href="#DejaVuSans-32" transform="translate(63.623047 0)"/>
       <use xlink:href="#DejaVuSans-35" transform="translate(127.246094 0)"/>
       <use xlink:href="#DejaVuSans-30" transform="translate(190.869141 0)"/>
      </g>
     </g>
    </g>
    <g id="xtick_7">
     <g id="line2d_23">
      <path d="M 635.362402 241.478125 
L 635.362402 22.318125 
" clip-path="url(#pe07f66c4aa)" style="fill: none; stroke-dasharray: 2.96,1.28; stroke-dashoffset: 0; stroke: #b0b0b0; stroke-opacity: 0.4; stroke-width: 0.8"/>
     </g>
     <g id="line2d_24">
      <g>
       <use xlink:href="#m37cf0629c3" x="635.362402" y="241.478125" style="stroke: #000000; stroke-width: 0.8"/>
      </g>
     </g>
     <g id="text_7">
      <!-- 1500 -->
      <g transform="translate(622.637402 256.076563) scale(0.1 -0.1)">
       <use xlink:href="#DejaVuSans-31"/>
       <use xlink:href="#DejaVuSans-35" transform="translate(63.623047 0)"/>
       <use xlink:href="#DejaVuSans-30" transform="translate(127.246094 0)"/>
       <use xlink:href="#DejaVuSans-30" transform="translate(190.869141 0)"/>
      </g>
     </g>
    </g>
    <g id="xtick_8">
     <g id="line2d_25">
      <path d="M 733.132178 241.478125 
L 733.132178 22.318125 
" clip-path="url(#pe07f66c4aa)" style="fill: none; stroke-dasharray: 2.96,1.28; stroke-dashoffset: 0; stroke: #b0b0b0; stroke-opacity: 0.4; stroke-width: 0.8"/>
     </g>
     <g id="line2d_26">
      <g>
       <use xlink:href="#m37cf0629c3" x="733.132178" y="241.478125" style="stroke: #000000; stroke-width: 0.8"/>
      </g>
     </g>
     <g id="text_8">
      <!-- 1750 -->
      <g transform="translate(720.407178 256.076563) scale(0.1 -0.1)">
       <use xlink:href="#DejaVuSans-31"/>
       <use xlink:href="#DejaVuSans-37" transform="translate(63.623047 0)"/>
       <use xlink:href="#DejaVuSans-35" transform="translate(127.246094 0)"/>
       <use xlink:href="#DejaVuSans-30" transform="translate(190.869141 0)"/>
      </g>
     </g>
    </g>
    <g id="xtick_9">
     <g id="line2d_27">
      <path d="M 830.901953 241.478125 
L 830.901953 22.318125 
" clip-path="url(#pe07f66c4aa)" style="fill: none; stroke-dasharray: 2.96,1.28; stroke-dashoffset: 0; stroke: #b0b0b0; stroke-opacity: 0.4; stroke-width: 0.8"/>
     </g>
     <g id="line2d_28">
      <g>
       <use xlink:href="#m37cf0629c3" x="830.901953" y="241.478125" style="stroke: #000000; stroke-width: 0.8"/>
      </g>
     </g>
     <g id="text_9">
      <!-- 2000 -->
      <g transform="translate(818.176953 256.076563) scale(0.1 -0.1)">
       <use xlink:href="#DejaVuSans-32"/>
       <use xlink:href="#DejaVuSans-30" transform="translate(63.623047 0)"/>
       <use xlink:href="#DejaVuSans-30" transform="translate(127.246094 0)"/>
       <use xlink:href="#DejaVuSans-30" transform="translate(190.869141 0)"/>
      </g>
     </g>
    </g>
    <g id="text_10">
     <!-- Relative Position (bp) -->
     <g transform="translate(396.1525 269.754687) scale(0.1 -0.1)">
      <defs>
       <path id="DejaVuSans-52" d="M 2841 2188 
Q 3044 2119 3236 1894 
Q 3428 1669 3622 1275 
L 4263 0 
L 3584 0 
L 2988 1197 
Q 2756 1666 2539 1819 
Q 2322 1972 1947 1972 
L 1259 1972 
L 1259 0 
L 628 0 
L 628 4666 
L 2053 4666 
Q 2853 4666 3247 4331 
Q 3641 3997 3641 3322 
Q 3641 2881 3436 2590 
Q 3231 2300 2841 2188 
z
M 1259 4147 
L 1259 2491 
L 2053 2491 
Q 2509 2491 2742 2702 
Q 2975 2913 2975 3322 
Q 2975 3731 2742 3939 
Q 2509 4147 2053 4147 
L 1259 4147 
z
" transform="scale(0.015625)"/>
       <path id="DejaVuSans-65" d="M 3597 1894 
L 3597 1613 
L 953 1613 
Q 991 1019 1311 708 
Q 1631 397 2203 397 
Q 2534 397 2845 478 
Q 3156 559 3463 722 
L 3463 178 
Q 3153 47 2828 -22 
Q 2503 -91 2169 -91 
Q 1331 -91 842 396 
Q 353 884 353 1716 
Q 353 2575 817 3079 
Q 1281 3584 2069 3584 
Q 2775 3584 3186 3129 
Q 3597 2675 3597 1894 
z
M 3022 2063 
Q 3016 2534 2758 2815 
Q 2500 3097 2075 3097 
Q 1594 3097 1305 2825 
Q 1016 2553 972 2059 
L 3022 2063 
z
" transform="scale(0.015625)"/>
       <path id="DejaVuSans-6c" d="M 603 4863 
L 1178 4863 
L 1178 0 
L 603 0 
L 603 4863 
z
" transform="scale(0.015625)"/>
       <path id="DejaVuSans-61" d="M 2194 1759 
Q 1497 1759 1228 1600 
Q 959 1441 959 1056 
Q 959 750 1161 570 
Q 1363 391 1709 391 
Q 2188 391 2477 730 
Q 2766 1069 2766 1631 
L 2766 1759 
L 2194 1759 
z
M 3341 1997 
L 3341 0 
L 2766 0 
L 2766 531 
Q 2569 213 2275 61 
Q 1981 -91 1556 -91 
Q 1019 -91 701 211 
Q 384 513 384 1019 
Q 384 1609 779 1909 
Q 1175 2209 1959 2209 
L 2766 2209 
L 2766 2266 
Q 2766 2663 2505 2880 
Q 2244 3097 1772 3097 
Q 1472 3097 1187 3025 
Q 903 2953 641 2809 
L 641 3341 
Q 956 3463 1253 3523 
Q 1550 3584 1831 3584 
Q 2591 3584 2966 3190 
Q 3341 2797 3341 1997 
z
" transform="scale(0.015625)"/>
       <path id="DejaVuSans-74" d="M 1172 4494 
L 1172 3500 
L 2356 3500 
L 2356 3053 
L 1172 3053 
L 1172 1153 
Q 1172 725 1289 603 
Q 1406 481 1766 481 
L 2356 481 
L 2356 0 
L 1766 0 
Q 1100 0 847 248 
Q 594 497 594 1153 
L 594 3053 
L 172 3053 
L 172 3500 
L 594 3500 
L 594 4494 
L 1172 4494 
z
" transform="scale(0.015625)"/>
       <path id="DejaVuSans-69" d="M 603 3500 
L 1178 3500 
L 1178 0 
L 603 0 
L 603 3500 
z
M 603 4863 
L 1178 4863 
L 1178 4134 
L 603 4134 
L 603 4863 
z
" transform="scale(0.015625)"/>
       <path id="DejaVuSans-76" d="M 191 3500 
L 800 3500 
L 1894 563 
L 2988 3500 
L 3597 3500 
L 2284 0 
L 1503 0 
L 191 3500 
z
" transform="scale(0.015625)"/>
       <path id="DejaVuSans-20" transform="scale(0.015625)"/>
       <path id="DejaVuSans-50" d="M 1259 4147 
L 1259 2394 
L 2053 2394 
Q 2494 2394 2734 2622 
Q 2975 2850 2975 3272 
Q 2975 3691 2734 3919 
Q 2494 4147 2053 4147 
L 1259 4147 
z
M 628 4666 
L 2053 4666 
Q 2838 4666 3239 4311 
Q 3641 3956 3641 3272 
Q 3641 2581 3239 2228 
Q 2838 1875 2053 1875 
L 1259 1875 
L 1259 0 
L 628 0 
L 628 4666 
z
" transform="scale(0.015625)"/>
       <path id="DejaVuSans-6f" d="M 1959 3097 
Q 1497 3097 1228 2736 
Q 959 2375 959 1747 
Q 959 1119 1226 758 
Q 1494 397 1959 397 
Q 2419 397 2687 759 
Q 2956 1122 2956 1747 
Q 2956 2369 2687 2733 
Q 2419 3097 1959 3097 
z
M 1959 3584 
Q 2709 3584 3137 3096 
Q 3566 2609 3566 1747 
Q 3566 888 3137 398 
Q 2709 -91 1959 -91 
Q 1206 -91 779 398 
Q 353 888 353 1747 
Q 353 2609 779 3096 
Q 1206 3584 1959 3584 
z
" transform="scale(0.015625)"/>
       <path id="DejaVuSans-73" d="M 2834 3397 
L 2834 2853 
Q 2591 2978 2328 3040 
Q 2066 3103 1784 3103 
Q 1356 3103 1142 2972 
Q 928 2841 928 2578 
Q 928 2378 1081 2264 
Q 1234 2150 1697 2047 
L 1894 2003 
Q 2506 1872 2764 1633 
Q 3022 1394 3022 966 
Q 3022 478 2636 193 
Q 2250 -91 1575 -91 
Q 1294 -91 989 -36 
Q 684 19 347 128 
L 347 722 
Q 666 556 975 473 
Q 1284 391 1588 391 
Q 1994 391 2212 530 
Q 2431 669 2431 922 
Q 2431 1156 2273 1281 
Q 2116 1406 1581 1522 
L 1381 1569 
Q 847 1681 609 1914 
Q 372 2147 372 2553 
Q 372 3047 722 3315 
Q 1072 3584 1716 3584 
Q 2034 3584 2315 3537 
Q 2597 3491 2834 3397 
z
" transform="scale(0.015625)"/>
       <path id="DejaVuSans-6e" d="M 3513 2113 
L 3513 0 
L 2938 0 
L 2938 2094 
Q 2938 2591 2744 2837 
Q 2550 3084 2163 3084 
Q 1697 3084 1428 2787 
Q 1159 2491 1159 1978 
L 1159 0 
L 581 0 
L 581 3500 
L 1159 3500 
L 1159 2956 
Q 1366 3272 1645 3428 
Q 1925 3584 2291 3584 
Q 2894 3584 3203 3211 
Q 3513 2838 3513 2113 
z
" transform="scale(0.015625)"/>
       <path id="DejaVuSans-28" d="M 1984 4856 
Q 1566 4138 1362 3434 
Q 1159 2731 1159 2009 
Q 1159 1288 1364 580 
Q 1569 -128 1984 -844 
L 1484 -844 
Q 1016 -109 783 600 
Q 550 1309 550 2009 
Q 550 2706 781 3412 
Q 1013 4119 1484 4856 
L 1984 4856 
z
" transform="scale(0.015625)"/>
       <path id="DejaVuSans-62" d="M 3116 1747 
Q 3116 2381 2855 2742 
Q 2594 3103 2138 3103 
Q 1681 3103 1420 2742 
Q 1159 2381 1159 1747 
Q 1159 1113 1420 752 
Q 1681 391 2138 391 
Q 2594 391 2855 752 
Q 3116 1113 3116 1747 
z
M 1159 2969 
Q 1341 3281 1617 3432 
Q 1894 3584 2278 3584 
Q 2916 3584 3314 3078 
Q 3713 2572 3713 1747 
Q 3713 922 3314 415 
Q 2916 -91 2278 -91 
Q 1894 -91 1617 61 
Q 1341 213 1159 525 
L 1159 0 
L 581 0 
L 581 4863 
L 1159 4863 
L 1159 2969 
z
" transform="scale(0.015625)"/>
       <path id="DejaVuSans-70" d="M 1159 525 
L 1159 -1331 
L 581 -1331 
L 581 3500 
L 1159 3500 
L 1159 2969 
Q 1341 3281 1617 3432 
Q 1894 3584 2278 3584 
Q 2916 3584 3314 3078 
Q 3713 2572 3713 1747 
Q 3713 922 3314 415 
Q 2916 -91 2278 -91 
Q 1894 -91 1617 61 
Q 1341 213 1159 525 
z
M 3116 1747 
Q 3116 2381 2855 2742 
Q 2594 3103 2138 3103 
Q 1681 3103 1420 2742 
Q 1159 2381 1159 1747 
Q 1159 1113 1420 752 
Q 1681 391 2138 391 
Q 2594 391 2855 752 
Q 3116 1113 3116 1747 
z
" transform="scale(0.015625)"/>
       <path id="DejaVuSans-29" d="M 513 4856 
L 1013 4856 
Q 1481 4119 1714 3412 
Q 1947 2706 1947 2009 
Q 1947 1309 1714 600 
Q 1481 -109 1013 -844 
L 513 -844 
Q 928 -128 1133 580 
Q 1338 1288 1338 2009 
Q 1338 2731 1133 3434 
Q 928 4138 513 4856 
z
" transform="scale(0.015625)"/>
      </defs>
      <use xlink:href="#DejaVuSans-52"/>
      <use xlink:href="#DejaVuSans-65" transform="translate(64.982422 0)"/>
      <use xlink:href="#DejaVuSans-6c" transform="translate(126.505859 0)"/>
      <use xlink:href="#DejaVuSans-61" transform="translate(154.289062 0)"/>
      <use xlink:href="#DejaVuSans-74" transform="translate(215.568359 0)"/>
      <use xlink:href="#DejaVuSans-69" transform="translate(254.777344 0)"/>
      <use xlink:href="#DejaVuSans-76" transform="translate(282.560547 0)"/>
      <use xlink:href="#DejaVuSans-65" transform="translate(341.740234 0)"/>
      <use xlink:href="#DejaVuSans-20" transform="translate(403.263672 0)"/>
      <use xlink:href="#DejaVuSans-50" transform="translate(435.050781 0)"/>
      <use xlink:href="#DejaVuSans-6f" transform="translate(491.728516 0)"/>
      <use xlink:href="#DejaVuSans-73" transform="translate(552.910156 0)"/>
      <use xlink:href="#DejaVuSans-69" transform="translate(605.009766 0)"/>
      <use xlink:href="#DejaVuSans-74" transform="translate(632.792969 0)"/>
      <use xlink:href="#DejaVuSans-69" transform="translate(672.001953 0)"/>
      <use xlink:href="#DejaVuSans-6f" transform="translate(699.785156 0)"/>
      <use xlink:href="#DejaVuSans-6e" transform="translate(760.966797 0)"/>
      <use xlink:href="#DejaVuSans-20" transform="translate(824.345703 0)"/>
      <use xlink:href="#DejaVuSans-28" transform="translate(856.132812 0)"/>
      <use xlink:href="#DejaVuSans-62" transform="translate(895.146484 0)"/>
      <use xlink:href="#DejaVuSans-70" transform="translate(958.623047 0)"/>
      <use xlink:href="#DejaVuSans-29" transform="translate(1022.099609 0)"/>
     </g>
    </g>
   </g>
   <g id="matplotlib.axis_2">
    <g id="ytick_1">
     <g id="line2d_29">
      <defs>
       <path id="m345ec1893a" d="M 0 0 
L -3.5 0 
" style="stroke: #000000; stroke-width: 0.8"/>
      </defs>
      <g>
       <use xlink:href="#m345ec1893a" x="48.74375" y="221.554489" style="stroke: #000000; stroke-width: 0.8"/>
      </g>
     </g>
     <g id="text_11">
      <!-- Seed 0 -->
      <g transform="translate(7.2 225.353707) scale(0.1 -0.1)">
       <defs>
        <path id="DejaVuSans-53" d="M 3425 4513 
L 3425 3897 
Q 3066 4069 2747 4153 
Q 2428 4238 2131 4238 
Q 1616 4238 1336 4038 
Q 1056 3838 1056 3469 
Q 1056 3159 1242 3001 
Q 1428 2844 1947 2747 
L 2328 2669 
Q 3034 2534 3370 2195 
Q 3706 1856 3706 1288 
Q 3706 609 3251 259 
Q 2797 -91 1919 -91 
Q 1588 -91 1214 -16 
Q 841 59 441 206 
L 441 856 
Q 825 641 1194 531 
Q 1563 422 1919 422 
Q 2459 422 2753 634 
Q 3047 847 3047 1241 
Q 3047 1584 2836 1778 
Q 2625 1972 2144 2069 
L 1759 2144 
Q 1053 2284 737 2584 
Q 422 2884 422 3419 
Q 422 4038 858 4394 
Q 1294 4750 2059 4750 
Q 2388 4750 2728 4690 
Q 3069 4631 3425 4513 
z
" transform="scale(0.015625)"/>
        <path id="DejaVuSans-64" d="M 2906 2969 
L 2906 4863 
L 3481 4863 
L 3481 0 
L 2906 0 
L 2906 525 
Q 2725 213 2448 61 
Q 2172 -91 1784 -91 
Q 1150 -91 751 415 
Q 353 922 353 1747 
Q 353 2572 751 3078 
Q 1150 3584 1784 3584 
Q 2172 3584 2448 3432 
Q 2725 3281 2906 2969 
z
M 947 1747 
Q 947 1113 1208 752 
Q 1469 391 1925 391 
Q 2381 391 2643 752 
Q 2906 1113 2906 1747 
Q 2906 2381 2643 2742 
Q 2381 3103 1925 3103 
Q 1469 3103 1208 2742 
Q 947 2381 947 1747 
z
" transform="scale(0.015625)"/>
       </defs>
       <use xlink:href="#DejaVuSans-53"/>
       <use xlink:href="#DejaVuSans-65" transform="translate(63.476562 0)"/>
       <use xlink:href="#DejaVuSans-65" transform="translate(125 0)"/>
       <use xlink:href="#DejaVuSans-64" transform="translate(186.523438 0)"/>
       <use xlink:href="#DejaVuSans-20" transform="translate(250 0)"/>
       <use xlink:href="#DejaVuSans-30" transform="translate(281.787109 0)"/>
      </g>
     </g>
    </g>
    <g id="ytick_2">
     <g id="line2d_30">
      <g>
       <use xlink:href="#m345ec1893a" x="48.74375" y="201.630852" style="stroke: #000000; stroke-width: 0.8"/>
      </g>
     </g>
     <g id="text_12">
      <!-- Seed 1 -->
      <g transform="translate(7.2 205.430071) scale(0.1 -0.1)">
       <use xlink:href="#DejaVuSans-53"/>
       <use xlink:href="#DejaVuSans-65" transform="translate(63.476562 0)"/>
       <use xlink:href="#DejaVuSans-65" transform="translate(125 0)"/>
       <use xlink:href="#DejaVuSans-64" transform="translate(186.523438 0)"/>
       <use xlink:href="#DejaVuSans-20" transform="translate(250 0)"/>
       <use xlink:href="#DejaVuSans-31" transform="translate(281.787109 0)"/>
      </g>
     </g>
    </g>
    <g id="ytick_3">
     <g id="line2d_31">
      <g>
       <use xlink:href="#m345ec1893a" x="48.74375" y="181.707216" style="stroke: #000000; stroke-width: 0.8"/>
      </g>
     </g>
     <g id="text_13">
      <!-- Seed 2 -->
      <g transform="translate(7.2 185.506435) scale(0.1 -0.1)">
       <use xlink:href="#DejaVuSans-53"/>
       <use xlink:href="#DejaVuSans-65" transform="translate(63.476562 0)"/>
       <use xlink:href="#DejaVuSans-65" transform="translate(125 0)"/>
       <use xlink:href="#DejaVuSans-64" transform="translate(186.523438 0)"/>
       <use xlink:href="#DejaVuSans-20" transform="translate(250 0)"/>
       <use xlink:href="#DejaVuSans-32" transform="translate(281.787109 0)"/>
      </g>
     </g>
    </g>
    <g id="ytick_4">
     <g id="line2d_32">
      <g>
       <use xlink:href="#m345ec1893a" x="48.74375" y="161.78358" style="stroke: #000000; stroke-width: 0.8"/>
      </g>
     </g>
     <g id="text_14">
      <!-- Seed 3 -->
      <g transform="translate(7.2 165.582798) scale(0.1 -0.1)">
       <defs>
        <path id="DejaVuSans-33" d="M 2597 2516 
Q 3050 2419 3304 2112 
Q 3559 1806 3559 1356 
Q 3559 666 3084 287 
Q 2609 -91 1734 -91 
Q 1441 -91 1130 -33 
Q 819 25 488 141 
L 488 750 
Q 750 597 1062 519 
Q 1375 441 1716 441 
Q 2309 441 2620 675 
Q 2931 909 2931 1356 
Q 2931 1769 2642 2001 
Q 2353 2234 1838 2234 
L 1294 2234 
L 1294 2753 
L 1863 2753 
Q 2328 2753 2575 2939 
Q 2822 3125 2822 3475 
Q 2822 3834 2567 4026 
Q 2313 4219 1838 4219 
Q 1578 4219 1281 4162 
Q 984 4106 628 3988 
L 628 4550 
Q 988 4650 1302 4700 
Q 1616 4750 1894 4750 
Q 2613 4750 3031 4423 
Q 3450 4097 3450 3541 
Q 3450 3153 3228 2886 
Q 3006 2619 2597 2516 
z
" transform="scale(0.015625)"/>
       </defs>
       <use xlink:href="#DejaVuSans-53"/>
       <use xlink:href="#DejaVuSans-65" transform="translate(63.476562 0)"/>
       <use xlink:href="#DejaVuSans-65" transform="translate(125 0)"/>
       <use xlink:href="#DejaVuSans-64" transform="translate(186.523438 0)"/>
       <use xlink:href="#DejaVuSans-20" transform="translate(250 0)"/>
       <use xlink:href="#DejaVuSans-33" transform="translate(281.787109 0)"/>
      </g>
     </g>
    </g>
    <g id="ytick_5">
     <g id="line2d_33">
      <g>
       <use xlink:href="#m345ec1893a" x="48.74375" y="141.859943" style="stroke: #000000; stroke-width: 0.8"/>
      </g>
     </g>
     <g id="text_15">
      <!-- Seed 4 -->
      <g transform="translate(7.2 145.659162) scale(0.1 -0.1)">
       <defs>
        <path id="DejaVuSans-34" d="M 2419 4116 
L 825 1625 
L 2419 1625 
L 2419 4116 
z
M 2253 4666 
L 3047 4666 
L 3047 1625 
L 3713 1625 
L 3713 1100 
L 3047 1100 
L 3047 0 
L 2419 0 
L 2419 1100 
L 313 1100 
L 313 1709 
L 2253 4666 
z
" transform="scale(0.015625)"/>
       </defs>
       <use xlink:href="#DejaVuSans-53"/>
       <use xlink:href="#DejaVuSans-65" transform="translate(63.476562 0)"/>
       <use xlink:href="#DejaVuSans-65" transform="translate(125 0)"/>
       <use xlink:href="#DejaVuSans-64" transform="translate(186.523438 0)"/>
       <use xlink:href="#DejaVuSans-20" transform="translate(250 0)"/>
       <use xlink:href="#DejaVuSans-34" transform="translate(281.787109 0)"/>
      </g>
     </g>
    </g>
    <g id="ytick_6">
     <g id="line2d_34">
      <g>
       <use xlink:href="#m345ec1893a" x="48.74375" y="121.936307" style="stroke: #000000; stroke-width: 0.8"/>
      </g>
     </g>
     <g id="text_16">
      <!-- Seed 5 -->
      <g transform="translate(7.2 125.735526) scale(0.1 -0.1)">
       <use xlink:href="#DejaVuSans-53"/>
       <use xlink:href="#DejaVuSans-65" transform="translate(63.476562 0)"/>
       <use xlink:href="#DejaVuSans-65" transform="translate(125 0)"/>
       <use xlink:href="#DejaVuSans-64" transform="translate(186.523438 0)"/>
       <use xlink:href="#DejaVuSans-20" transform="translate(250 0)"/>
       <use xlink:href="#DejaVuSans-35" transform="translate(281.787109 0)"/>
      </g>
     </g>
    </g>
    <g id="ytick_7">
     <g id="line2d_35">
      <g>
       <use xlink:href="#m345ec1893a" x="48.74375" y="102.01267" style="stroke: #000000; stroke-width: 0.8"/>
      </g>
     </g>
     <g id="text_17">
      <!-- Seed 6 -->
      <g transform="translate(7.2 105.811889) scale(0.1 -0.1)">
       <defs>
        <path id="DejaVuSans-36" d="M 2113 2584 
Q 1688 2584 1439 2293 
Q 1191 2003 1191 1497 
Q 1191 994 1439 701 
Q 1688 409 2113 409 
Q 2538 409 2786 701 
Q 3034 994 3034 1497 
Q 3034 2003 2786 2293 
Q 2538 2584 2113 2584 
z
M 3366 4563 
L 3366 3988 
Q 3128 4100 2886 4159 
Q 2644 4219 2406 4219 
Q 1781 4219 1451 3797 
Q 1122 3375 1075 2522 
Q 1259 2794 1537 2939 
Q 1816 3084 2150 3084 
Q 2853 3084 3261 2657 
Q 3669 2231 3669 1497 
Q 3669 778 3244 343 
Q 2819 -91 2113 -91 
Q 1303 -91 875 529 
Q 447 1150 447 2328 
Q 447 3434 972 4092 
Q 1497 4750 2381 4750 
Q 2619 4750 2861 4703 
Q 3103 4656 3366 4563 
z
" transform="scale(0.015625)"/>
       </defs>
       <use xlink:href="#DejaVuSans-53"/>
       <use xlink:href="#DejaVuSans-65" transform="translate(63.476562 0)"/>
       <use xlink:href="#DejaVuSans-65" transform="translate(125 0)"/>
       <use xlink:href="#DejaVuSans-64" transform="translate(186.523438 0)"/>
       <use xlink:href="#DejaVuSans-20" transform="translate(250 0)"/>
       <use xlink:href="#DejaVuSans-36" transform="translate(281.787109 0)"/>
      </g>
     </g>
    </g>
    <g id="ytick_8">
     <g id="line2d_36">
      <g>
       <use xlink:href="#m345ec1893a" x="48.74375" y="82.089034" style="stroke: #000000; stroke-width: 0.8"/>
      </g>
     </g>
     <g id="text_18">
      <!-- Seed 7 -->
      <g transform="translate(7.2 85.888253) scale(0.1 -0.1)">
       <use xlink:href="#DejaVuSans-53"/>
       <use xlink:href="#DejaVuSans-65" transform="translate(63.476562 0)"/>
       <use xlink:href="#DejaVuSans-65" transform="translate(125 0)"/>
       <use xlink:href="#DejaVuSans-64" transform="translate(186.523438 0)"/>
       <use xlink:href="#DejaVuSans-20" transform="translate(250 0)"/>
       <use xlink:href="#DejaVuSans-37" transform="translate(281.787109 0)"/>
      </g>
     </g>
    </g>
    <g id="ytick_9">
     <g id="line2d_37">
      <g>
       <use xlink:href="#m345ec1893a" x="48.74375" y="62.165398" style="stroke: #000000; stroke-width: 0.8"/>
      </g>
     </g>
     <g id="text_19">
      <!-- Seed 8 -->
      <g transform="translate(7.2 65.964616) scale(0.1 -0.1)">
       <defs>
        <path id="DejaVuSans-38" d="M 2034 2216 
Q 1584 2216 1326 1975 
Q 1069 1734 1069 1313 
Q 1069 891 1326 650 
Q 1584 409 2034 409 
Q 2484 409 2743 651 
Q 3003 894 3003 1313 
Q 3003 1734 2745 1975 
Q 2488 2216 2034 2216 
z
M 1403 2484 
Q 997 2584 770 2862 
Q 544 3141 544 3541 
Q 544 4100 942 4425 
Q 1341 4750 2034 4750 
Q 2731 4750 3128 4425 
Q 3525 4100 3525 3541 
Q 3525 3141 3298 2862 
Q 3072 2584 2669 2484 
Q 3125 2378 3379 2068 
Q 3634 1759 3634 1313 
Q 3634 634 3220 271 
Q 2806 -91 2034 -91 
Q 1263 -91 848 271 
Q 434 634 434 1313 
Q 434 1759 690 2068 
Q 947 2378 1403 2484 
z
M 1172 3481 
Q 1172 3119 1398 2916 
Q 1625 2713 2034 2713 
Q 2441 2713 2670 2916 
Q 2900 3119 2900 3481 
Q 2900 3844 2670 4047 
Q 2441 4250 2034 4250 
Q 1625 4250 1398 4047 
Q 1172 3844 1172 3481 
z
" transform="scale(0.015625)"/>
       </defs>
       <use xlink:href="#DejaVuSans-53"/>
       <use xlink:href="#DejaVuSans-65" transform="translate(63.476562 0)"/>
       <use xlink:href="#DejaVuSans-65" transform="translate(125 0)"/>
       <use xlink:href="#DejaVuSans-64" transform="translate(186.523438 0)"/>
       <use xlink:href="#DejaVuSans-20" transform="translate(250 0)"/>
       <use xlink:href="#DejaVuSans-38" transform="translate(281.787109 0)"/>
      </g>
     </g>
    </g>
    <g id="ytick_10">
     <g id="line2d_38">
      <g>
       <use xlink:href="#m345ec1893a" x="48.74375" y="42.241761" style="stroke: #000000; stroke-width: 0.8"/>
      </g>
     </g>
     <g id="text_20">
      <!-- Seed 9 -->
      <g transform="translate(7.2 46.04098) scale(0.1 -0.1)">
       <defs>
        <path id="DejaVuSans-39" d="M 703 97 
L 703 672 
Q 941 559 1184 500 
Q 1428 441 1663 441 
Q 2288 441 2617 861 
Q 2947 1281 2994 2138 
Q 2813 1869 2534 1725 
Q 2256 1581 1919 1581 
Q 1219 1581 811 2004 
Q 403 2428 403 3163 
Q 403 3881 828 4315 
Q 1253 4750 1959 4750 
Q 2769 4750 3195 4129 
Q 3622 3509 3622 2328 
Q 3622 1225 3098 567 
Q 2575 -91 1691 -91 
Q 1453 -91 1209 -44 
Q 966 3 703 97 
z
M 1959 2075 
Q 2384 2075 2632 2365 
Q 2881 2656 2881 3163 
Q 2881 3666 2632 3958 
Q 2384 4250 1959 4250 
Q 1534 4250 1286 3958 
Q 1038 3666 1038 3163 
Q 1038 2656 1286 2365 
Q 1534 2075 1959 2075 
z
" transform="scale(0.015625)"/>
       </defs>
       <use xlink:href="#DejaVuSans-53"/>
       <use xlink:href="#DejaVuSans-65" transform="translate(63.476562 0)"/>
       <use xlink:href="#DejaVuSans-65" transform="translate(125 0)"/>
       <use xlink:href="#DejaVuSans-64" transform="translate(186.523438 0)"/>
       <use xlink:href="#DejaVuSans-20" transform="translate(250 0)"/>
       <use xlink:href="#DejaVuSans-39" transform="translate(281.787109 0)"/>
      </g>
     </g>
    </g>
   </g>
   <g id="patch_98">
    <path d="M 48.74375 241.478125 
L 48.74375 22.318125 
" style="fill: none; stroke: #000000; stroke-width: 0.8; stroke-linejoin: miter; stroke-linecap: square"/>
   </g>
   <g id="patch_99">
    <path d="M 849.67375 241.478125 
L 849.67375 22.318125 
" style="fill: none; stroke: #000000; stroke-width: 0.8; stroke-linejoin: miter; stroke-linecap: square"/>
   </g>
   <g id="patch_100">
    <path d="M 48.74375 241.478125 
L 849.67375 241.478125 
" style="fill: none; stroke: #000000; stroke-width: 0.8; stroke-linejoin: miter; stroke-linecap: square"/>
   </g>
   <g id="patch_101">
    <path d="M 48.74375 22.318125 
L 849.67375 22.318125 
" style="fill: none; stroke: #000000; stroke-width: 0.8; stroke-linejoin: miter; stroke-linecap: square"/>
   </g>
   <g id="text_21">
    <!-- CTCF Motif Orientation in 2048bp Slice – chr3:53286912-54597632 -->
    <g transform="translate(247.723125 16.318125) scale(0.12 -0.12)">
     <defs>
      <path id="DejaVuSans-43" d="M 4122 4306 
L 4122 3641 
Q 3803 3938 3442 4084 
Q 3081 4231 2675 4231 
Q 1875 4231 1450 3742 
Q 1025 3253 1025 2328 
Q 1025 1406 1450 917 
Q 1875 428 2675 428 
Q 3081 428 3442 575 
Q 3803 722 4122 1019 
L 4122 359 
Q 3791 134 3420 21 
Q 3050 -91 2638 -91 
Q 1578 -91 968 557 
Q 359 1206 359 2328 
Q 359 3453 968 4101 
Q 1578 4750 2638 4750 
Q 3056 4750 3426 4639 
Q 3797 4528 4122 4306 
z
" transform="scale(0.015625)"/>
      <path id="DejaVuSans-54" d="M -19 4666 
L 3928 4666 
L 3928 4134 
L 2272 4134 
L 2272 0 
L 1638 0 
L 1638 4134 
L -19 4134 
L -19 4666 
z
" transform="scale(0.015625)"/>
      <path id="DejaVuSans-46" d="M 628 4666 
L 3309 4666 
L 3309 4134 
L 1259 4134 
L 1259 2759 
L 3109 2759 
L 3109 2228 
L 1259 2228 
L 1259 0 
L 628 0 
L 628 4666 
z
" transform="scale(0.015625)"/>
      <path id="DejaVuSans-4d" d="M 628 4666 
L 1569 4666 
L 2759 1491 
L 3956 4666 
L 4897 4666 
L 4897 0 
L 4281 0 
L 4281 4097 
L 3078 897 
L 2444 897 
L 1241 4097 
L 1241 0 
L 628 0 
L 628 4666 
z
" transform="scale(0.015625)"/>
      <path id="DejaVuSans-66" d="M 2375 4863 
L 2375 4384 
L 1825 4384 
Q 1516 4384 1395 4259 
Q 1275 4134 1275 3809 
L 1275 3500 
L 2222 3500 
L 2222 3053 
L 1275 3053 
L 1275 0 
L 697 0 
L 697 3053 
L 147 3053 
L 147 3500 
L 697 3500 
L 697 3744 
Q 697 4328 969 4595 
Q 1241 4863 1831 4863 
L 2375 4863 
z
" transform="scale(0.015625)"/>
      <path id="DejaVuSans-4f" d="M 2522 4238 
Q 1834 4238 1429 3725 
Q 1025 3213 1025 2328 
Q 1025 1447 1429 934 
Q 1834 422 2522 422 
Q 3209 422 3611 934 
Q 4013 1447 4013 2328 
Q 4013 3213 3611 3725 
Q 3209 4238 2522 4238 
z
M 2522 4750 
Q 3503 4750 4090 4092 
Q 4678 3434 4678 2328 
Q 4678 1225 4090 567 
Q 3503 -91 2522 -91 
Q 1538 -91 948 565 
Q 359 1222 359 2328 
Q 359 3434 948 4092 
Q 1538 4750 2522 4750 
z
" transform="scale(0.015625)"/>
      <path id="DejaVuSans-72" d="M 2631 2963 
Q 2534 3019 2420 3045 
Q 2306 3072 2169 3072 
Q 1681 3072 1420 2755 
Q 1159 2438 1159 1844 
L 1159 0 
L 581 0 
L 581 3500 
L 1159 3500 
L 1159 2956 
Q 1341 3275 1631 3429 
Q 1922 3584 2338 3584 
Q 2397 3584 2469 3576 
Q 2541 3569 2628 3553 
L 2631 2963 
z
" transform="scale(0.015625)"/>
      <path id="DejaVuSans-63" d="M 3122 3366 
L 3122 2828 
Q 2878 2963 2633 3030 
Q 2388 3097 2138 3097 
Q 1578 3097 1268 2742 
Q 959 2388 959 1747 
Q 959 1106 1268 751 
Q 1578 397 2138 397 
Q 2388 397 2633 464 
Q 2878 531 3122 666 
L 3122 134 
Q 2881 22 2623 -34 
Q 2366 -91 2075 -91 
Q 1284 -91 818 406 
Q 353 903 353 1747 
Q 353 2603 823 3093 
Q 1294 3584 2113 3584 
Q 2378 3584 2631 3529 
Q 2884 3475 3122 3366 
z
" transform="scale(0.015625)"/>
      <path id="DejaVuSans-2013" d="M 313 1978 
L 2888 1978 
L 2888 1528 
L 313 1528 
L 313 1978 
z
" transform="scale(0.015625)"/>
      <path id="DejaVuSans-68" d="M 3513 2113 
L 3513 0 
L 2938 0 
L 2938 2094 
Q 2938 2591 2744 2837 
Q 2550 3084 2163 3084 
Q 1697 3084 1428 2787 
Q 1159 2491 1159 1978 
L 1159 0 
L 581 0 
L 581 4863 
L 1159 4863 
L 1159 2956 
Q 1366 3272 1645 3428 
Q 1925 3584 2291 3584 
Q 2894 3584 3203 3211 
Q 3513 2838 3513 2113 
z
" transform="scale(0.015625)"/>
      <path id="DejaVuSans-3a" d="M 750 794 
L 1409 794 
L 1409 0 
L 750 0 
L 750 794 
z
M 750 3309 
L 1409 3309 
L 1409 2516 
L 750 2516 
L 750 3309 
z
" transform="scale(0.015625)"/>
      <path id="DejaVuSans-2d" d="M 313 2009 
L 1997 2009 
L 1997 1497 
L 313 1497 
L 313 2009 
z
" transform="scale(0.015625)"/>
     </defs>
     <use xlink:href="#DejaVuSans-43"/>
     <use xlink:href="#DejaVuSans-54" transform="translate(69.824219 0)"/>
     <use xlink:href="#DejaVuSans-43" transform="translate(125.033203 0)"/>
     <use xlink:href="#DejaVuSans-46" transform="translate(194.857422 0)"/>
     <use xlink:href="#DejaVuSans-20" transform="translate(252.376953 0)"/>
     <use xlink:href="#DejaVuSans-4d" transform="translate(284.164062 0)"/>
     <use xlink:href="#DejaVuSans-6f" transform="translate(370.443359 0)"/>
     <use xlink:href="#DejaVuSans-74" transform="translate(431.625 0)"/>
     <use xlink:href="#DejaVuSans-69" transform="translate(470.833984 0)"/>
     <use xlink:href="#DejaVuSans-66" transform="translate(498.617188 0)"/>
     <use xlink:href="#DejaVuSans-20" transform="translate(533.822266 0)"/>
     <use xlink:href="#DejaVuSans-4f" transform="translate(565.609375 0)"/>
     <use xlink:href="#DejaVuSans-72" transform="translate(644.320312 0)"/>
     <use xlink:href="#DejaVuSans-69" transform="translate(685.433594 0)"/>
     <use xlink:href="#DejaVuSans-65" transform="translate(713.216797 0)"/>
     <use xlink:href="#DejaVuSans-6e" transform="translate(774.740234 0)"/>
     <use xlink:href="#DejaVuSans-74" transform="translate(838.119141 0)"/>
     <use xlink:href="#DejaVuSans-61" transform="translate(877.328125 0)"/>
     <use xlink:href="#DejaVuSans-74" transform="translate(938.607422 0)"/>
     <use xlink:href="#DejaVuSans-69" transform="translate(977.816406 0)"/>
     <use xlink:href="#DejaVuSans-6f" transform="translate(1005.599609 0)"/>
     <use xlink:href="#DejaVuSans-6e" transform="translate(1066.78125 0)"/>
     <use xlink:href="#DejaVuSans-20" transform="translate(1130.160156 0)"/>
     <use xlink:href="#DejaVuSans-69" transform="translate(1161.947266 0)"/>
     <use xlink:href="#DejaVuSans-6e" transform="translate(1189.730469 0)"/>
     <use xlink:href="#DejaVuSans-20" transform="translate(1253.109375 0)"/>
     <use xlink:href="#DejaVuSans-32" transform="translate(1284.896484 0)"/>
     <use xlink:href="#DejaVuSans-30" transform="translate(1348.519531 0)"/>
     <use xlink:href="#DejaVuSans-34" transform="translate(1412.142578 0)"/>
     <use xlink:href="#DejaVuSans-38" transform="translate(1475.765625 0)"/>
     <use xlink:href="#DejaVuSans-62" transform="translate(1539.388672 0)"/>
     <use xlink:href="#DejaVuSans-70" transform="translate(1602.865234 0)"/>
     <use xlink:href="#DejaVuSans-20" transform="translate(1666.341797 0)"/>
     <use xlink:href="#DejaVuSans-53" transform="translate(1698.128906 0)"/>
     <use xlink:href="#DejaVuSans-6c" transform="translate(1761.605469 0)"/>
     <use xlink:href="#DejaVuSans-69" transform="translate(1789.388672 0)"/>
     <use xlink:href="#DejaVuSans-63" transform="translate(1817.171875 0)"/>
     <use xlink:href="#DejaVuSans-65" transform="translate(1872.152344 0)"/>
     <use xlink:href="#DejaVuSans-20" transform="translate(1933.675781 0)"/>
     <use xlink:href="#DejaVuSans-2013" transform="translate(1965.462891 0)"/>
     <use xlink:href="#DejaVuSans-20" transform="translate(2015.462891 0)"/>
     <use xlink:href="#DejaVuSans-63" transform="translate(2047.25 0)"/>
     <use xlink:href="#DejaVuSans-68" transform="translate(2102.230469 0)"/>
     <use xlink:href="#DejaVuSans-72" transform="translate(2165.609375 0)"/>
     <use xlink:href="#DejaVuSans-33" transform="translate(2206.722656 0)"/>
     <use xlink:href="#DejaVuSans-3a" transform="translate(2270.345703 0)"/>
     <use xlink:href="#DejaVuSans-35" transform="translate(2304.037109 0)"/>
     <use xlink:href="#DejaVuSans-33" transform="translate(2367.660156 0)"/>
     <use xlink:href="#DejaVuSans-32" transform="translate(2431.283203 0)"/>
     <use xlink:href="#DejaVuSans-38" transform="translate(2494.90625 0)"/>
     <use xlink:href="#DejaVuSans-36" transform="translate(2558.529297 0)"/>
     <use xlink:href="#DejaVuSans-39" transform="translate(2622.152344 0)"/>
     <use xlink:href="#DejaVuSans-31" transform="translate(2685.775391 0)"/>
     <use xlink:href="#DejaVuSans-32" transform="translate(2749.398438 0)"/>
     <use xlink:href="#DejaVuSans-2d" transform="translate(2813.021484 0)"/>
     <use xlink:href="#DejaVuSans-35" transform="translate(2849.105469 0)"/>
     <use xlink:href="#DejaVuSans-34" transform="translate(2912.728516 0)"/>
     <use xlink:href="#DejaVuSans-35" transform="translate(2976.351562 0)"/>
     <use xlink:href="#DejaVuSans-39" transform="translate(3039.974609 0)"/>
     <use xlink:href="#DejaVuSans-37" transform="translate(3103.597656 0)"/>
     <use xlink:href="#DejaVuSans-36" transform="translate(3167.220703 0)"/>
     <use xlink:href="#DejaVuSans-33" transform="translate(3230.84375 0)"/>
     <use xlink:href="#DejaVuSans-32" transform="translate(3294.466797 0)"/>
    </g>
   </g>
   <g id="legend_1">
    <g id="patch_102">
     <path d="M 55.74375 148.07625 
L 155.75625 148.07625 
Q 157.75625 148.07625 157.75625 146.07625 
L 157.75625 117.72 
Q 157.75625 115.72 155.75625 115.72 
L 55.74375 115.72 
Q 53.74375 115.72 53.74375 117.72 
L 53.74375 146.07625 
Q 53.74375 148.07625 55.74375 148.07625 
z
" style="fill: #ffffff; opacity: 0.8; stroke: #cccccc; stroke-linejoin: miter"/>
    </g>
    <g id="patch_103">
     <path d="M 57.74375 127.318438 
L 77.74375 127.318438 
L 77.74375 120.318438 
L 57.74375 120.318438 
z
" style="fill: #0000ff; stroke: #0000ff; stroke-linejoin: miter"/>
    </g>
    <g id="text_22">
     <!-- Orientation + -->
     <g transform="translate(85.74375 127.318438) scale(0.1 -0.1)">
      <defs>
       <path id="DejaVuSans-2b" d="M 2944 4013 
L 2944 2272 
L 4684 2272 
L 4684 1741 
L 2944 1741 
L 2944 0 
L 2419 0 
L 2419 1741 
L 678 1741 
L 678 2272 
L 2419 2272 
L 2419 4013 
L 2944 4013 
z
" transform="scale(0.015625)"/>
      </defs>
      <use xlink:href="#DejaVuSans-4f"/>
      <use xlink:href="#DejaVuSans-72" transform="translate(78.710938 0)"/>
      <use xlink:href="#DejaVuSans-69" transform="translate(119.824219 0)"/>
      <use xlink:href="#DejaVuSans-65" transform="translate(147.607422 0)"/>
      <use xlink:href="#DejaVuSans-6e" transform="translate(209.130859 0)"/>
      <use xlink:href="#DejaVuSans-74" transform="translate(272.509766 0)"/>
      <use xlink:href="#DejaVuSans-61" transform="translate(311.71875 0)"/>
      <use xlink:href="#DejaVuSans-74" transform="translate(372.998047 0)"/>
      <use xlink:href="#DejaVuSans-69" transform="translate(412.207031 0)"/>
      <use xlink:href="#DejaVuSans-6f" transform="translate(439.990234 0)"/>
      <use xlink:href="#DejaVuSans-6e" transform="translate(501.171875 0)"/>
      <use xlink:href="#DejaVuSans-20" transform="translate(564.550781 0)"/>
      <use xlink:href="#DejaVuSans-2b" transform="translate(596.337891 0)"/>
     </g>
    </g>
    <g id="patch_104">
     <path d="M 57.74375 141.996563 
L 77.74375 141.996563 
L 77.74375 134.996563 
L 57.74375 134.996563 
z
" style="fill: #ff0000; stroke: #ff0000; stroke-linejoin: miter"/>
    </g>
    <g id="text_23">
     <!-- Orientation - -->
     <g transform="translate(85.74375 141.996563) scale(0.1 -0.1)">
      <use xlink:href="#DejaVuSans-4f"/>
      <use xlink:href="#DejaVuSans-72" transform="translate(78.710938 0)"/>
      <use xlink:href="#DejaVuSans-69" transform="translate(119.824219 0)"/>
      <use xlink:href="#DejaVuSans-65" transform="translate(147.607422 0)"/>
      <use xlink:href="#DejaVuSans-6e" transform="translate(209.130859 0)"/>
      <use xlink:href="#DejaVuSans-74" transform="translate(272.509766 0)"/>
      <use xlink:href="#DejaVuSans-61" transform="translate(311.71875 0)"/>
      <use xlink:href="#DejaVuSans-74" transform="translate(372.998047 0)"/>
      <use xlink:href="#DejaVuSans-69" transform="translate(412.207031 0)"/>
      <use xlink:href="#DejaVuSans-6f" transform="translate(439.990234 0)"/>
      <use xlink:href="#DejaVuSans-6e" transform="translate(501.171875 0)"/>
      <use xlink:href="#DejaVuSans-20" transform="translate(564.550781 0)"/>
      <use xlink:href="#DejaVuSans-2d" transform="translate(596.337891 0)"/>
     </g>
    </g>
   </g>
  </g>
 </g>
 <defs>
  <clipPath id="pe07f66c4aa">
   <rect x="48.74375" y="22.318125" width="800.93" height="219.16"/>
  </clipPath>
 </defs>
</svg>
