<?xml version="1.0" encoding="utf-8" standalone="no"?>
<!DOCTYPE svg PUBLIC "-//W3C//DTD SVG 1.1//EN"
  "http://www.w3.org/Graphics/SVG/1.1/DTD/svg11.dtd">
<svg xmlns:xlink="http://www.w3.org/1999/xlink" width="856.87375pt" height="279.034375pt" viewBox="0 0 856.87375 279.034375" xmlns="http://www.w3.org/2000/svg" version="1.1">
 <metadata>
  <rdf:RDF xmlns:dc="http://purl.org/dc/elements/1.1/" xmlns:cc="http://creativecommons.org/ns#" xmlns:rdf="http://www.w3.org/1999/02/22-rdf-syntax-ns#">
   <cc:Work>
    <dc:type rdf:resource="http://purl.org/dc/dcmitype/StillImage"/>
    <dc:date>2025-12-03T16:21:14.436703</dc:date>
    <dc:format>image/svg+xml</dc:format>
    <dc:creator>
     <cc:Agent>
      <dc:title>Matplotlib v3.10.1, https://matplotlib.org/</dc:title>
     </cc:Agent>
    </dc:creator>
   </cc:Work>
  </rdf:RDF>
 </metadata>
 <defs>
  <style type="text/css">*{stroke-linejoin: round; stroke-linecap: butt}</style>
 </defs>
 <g id="figure_1">
  <g id="patch_1">
   <path d="M -0 279.034375 
L 856.87375 279.034375 
L 856.87375 0 
L -0 0 
z
" style="fill: #ffffff"/>
  </g>
  <g id="axes_1">
   <g id="patch_2">
    <path d="M 48.74375 241.478125 
L 849.67375 241.478125 
L 849.67375 22.318125 
L 48.74375 22.318125 
z
" style="fill: #ffffff"/>
   </g>
   <g id="patch_3">
    <path d="M 48.74375 241.478125 
L 70.909709 241.478125 
L 70.909709 22.318125 
L 48.74375 22.318125 
z
" clip-path="url(#pf02db59d2f)" style="fill: #d3d3d3; opacity: 0.8; stroke: #d3d3d3; stroke-linejoin: miter"/>
   </g>
   <g id="patch_4">
    <path d="M 827.507791 241.478125 
L 849.67375 241.478125 
L 849.67375 22.318125 
L 827.507791 22.318125 
z
" clip-path="url(#pf02db59d2f)" style="fill: #d3d3d3; opacity: 0.8; stroke: #d3d3d3; stroke-linejoin: miter"/>
   </g>
   <g id="line2d_1">
    <path d="M 48.74375 221.554489 
L 849.67375 221.554489 
" clip-path="url(#pf02db59d2f)" style="fill: none; stroke-dasharray: 2.96,1.28; stroke-dashoffset: 0; stroke: #d3d3d3; stroke-opacity: 0.8; stroke-width: 0.8"/>
   </g>
   <g id="line2d_2">
    <path d="M 48.74375 201.630852 
L 849.67375 201.630852 
" clip-path="url(#pf02db59d2f)" style="fill: none; stroke-dasharray: 2.96,1.28; stroke-dashoffset: 0; stroke: #d3d3d3; stroke-opacity: 0.8; stroke-width: 0.8"/>
   </g>
   <g id="line2d_3">
    <path d="M 48.74375 181.707216 
L 849.67375 181.707216 
" clip-path="url(#pf02db59d2f)" style="fill: none; stroke-dasharray: 2.96,1.28; stroke-dashoffset: 0; stroke: #d3d3d3; stroke-opacity: 0.8; stroke-width: 0.8"/>
   </g>
   <g id="line2d_4">
    <path d="M 48.74375 161.78358 
L 849.67375 161.78358 
" clip-path="url(#pf02db59d2f)" style="fill: none; stroke-dasharray: 2.96,1.28; stroke-dashoffset: 0; stroke: #d3d3d3; stroke-opacity: 0.8; stroke-width: 0.8"/>
   </g>
   <g id="line2d_5">
    <path d="M 48.74375 141.859943 
L 849.67375 141.859943 
" clip-path="url(#pf02db59d2f)" style="fill: none; stroke-dasharray: 2.96,1.28; stroke-dashoffset: 0; stroke: #d3d3d3; stroke-opacity: 0.8; stroke-width: 0.8"/>
   </g>
   <g id="line2d_6">
    <path d="M 48.74375 121.936307 
L 849.67375 121.936307 
" clip-path="url(#pf02db59d2f)" style="fill: none; stroke-dasharray: 2.96,1.28; stroke-dashoffset: 0; stroke: #d3d3d3; stroke-opacity: 0.8; stroke-width: 0.8"/>
   </g>
   <g id="line2d_7">
    <path d="M 48.74375 102.01267 
L 849.67375 102.01267 
" clip-path="url(#pf02db59d2f)" style="fill: none; stroke-dasharray: 2.96,1.28; stroke-dashoffset: 0; stroke: #d3d3d3; stroke-opacity: 0.8; stroke-width: 0.8"/>
   </g>
   <g id="line2d_8">
    <path d="M 48.74375 82.089034 
L 849.67375 82.089034 
" clip-path="url(#pf02db59d2f)" style="fill: none; stroke-dasharray: 2.96,1.28; stroke-dashoffset: 0; stroke: #d3d3d3; stroke-opacity: 0.8; stroke-width: 0.8"/>
   </g>
   <g id="line2d_9">
    <path d="M 48.74375 62.165398 
L 849.67375 62.165398 
" clip-path="url(#pf02db59d2f)" style="fill: none; stroke-dasharray: 2.96,1.28; stroke-dashoffset: 0; stroke: #d3d3d3; stroke-opacity: 0.8; stroke-width: 0.8"/>
   </g>
   <g id="line2d_10">
    <path d="M 48.74375 42.241761 
L 849.67375 42.241761 
" clip-path="url(#pf02db59d2f)" style="fill: none; stroke-dasharray: 2.96,1.28; stroke-dashoffset: 0; stroke: #d3d3d3; stroke-opacity: 0.8; stroke-width: 0.8"/>
   </g>
   <g id="patch_5">
    <path d="M 134.821559 102.01267 
L 139.033091 99.024125 
L 139.033091 100.020307 
L 141.84078 100.020307 
L 141.84078 104.005034 
L 139.033091 104.005034 
L 139.033091 105.001216 
z
" clip-path="url(#pf02db59d2f)" style="fill: #ff0000; stroke: #ff0000; stroke-linejoin: miter"/>
   </g>
   <g id="patch_6">
    <path d="M 149.598865 102.01267 
L 145.387333 105.001216 
L 145.387333 104.005034 
L 142.579645 104.005034 
L 142.579645 100.020307 
L 145.387333 100.020307 
L 145.387333 99.024125 
z
" clip-path="url(#pf02db59d2f)" style="fill: #0000ff; stroke: #0000ff; stroke-linejoin: miter"/>
   </g>
   <g id="patch_7">
    <path d="M 161.790143 102.01267 
L 166.001675 99.024125 
L 166.001675 100.020307 
L 168.809363 100.020307 
L 168.809363 104.005034 
L 166.001675 104.005034 
L 166.001675 105.001216 
z
" clip-path="url(#pf02db59d2f)" style="fill: #ff0000; stroke: #ff0000; stroke-linejoin: miter"/>
   </g>
   <g id="patch_8">
    <path d="M 376.430517 102.01267 
L 380.642049 99.024125 
L 380.642049 100.020307 
L 383.449737 100.020307 
L 383.449737 104.005034 
L 380.642049 104.005034 
L 380.642049 105.001216 
z
" clip-path="url(#pf02db59d2f)" style="fill: #ff0000; stroke: #ff0000; stroke-linejoin: miter"/>
   </g>
   <g id="patch_9">
    <path d="M 391.207823 102.01267 
L 386.996291 105.001216 
L 386.996291 104.005034 
L 384.188602 104.005034 
L 384.188602 100.020307 
L 386.996291 100.020307 
L 386.996291 99.024125 
z
" clip-path="url(#pf02db59d2f)" style="fill: #0000ff; stroke: #0000ff; stroke-linejoin: miter"/>
   </g>
   <g id="patch_10">
    <path d="M 408.94059 102.01267 
L 413.152123 99.024125 
L 413.152123 100.020307 
L 415.959811 100.020307 
L 415.959811 104.005034 
L 413.152123 104.005034 
L 413.152123 105.001216 
z
" clip-path="url(#pf02db59d2f)" style="fill: #ff0000; stroke: #ff0000; stroke-linejoin: miter"/>
   </g>
   <g id="patch_11">
    <path d="M 744.385443 102.01267 
L 740.173911 105.001216 
L 740.173911 104.005034 
L 737.366222 104.005034 
L 737.366222 100.020307 
L 740.173911 100.020307 
L 740.173911 99.024125 
z
" clip-path="url(#pf02db59d2f)" style="fill: #0000ff; stroke: #0000ff; stroke-linejoin: miter"/>
   </g>
   <g id="patch_12">
    <path d="M 778.003815 102.01267 
L 773.792282 105.001216 
L 773.792282 104.005034 
L 770.984594 104.005034 
L 770.984594 100.020307 
L 773.792282 100.020307 
L 773.792282 99.024125 
z
" clip-path="url(#pf02db59d2f)" style="fill: #0000ff; stroke: #0000ff; stroke-linejoin: miter"/>
   </g>
   <g id="patch_13">
    <path d="M 124.846877 62.165398 
L 120.635345 65.153943 
L 120.635345 64.157761 
L 117.827657 64.157761 
L 117.827657 60.173034 
L 120.635345 60.173034 
L 120.635345 59.176852 
z
" clip-path="url(#pf02db59d2f)" style="fill: #0000ff; stroke: #0000ff; stroke-linejoin: miter"/>
   </g>
   <g id="patch_14">
    <path d="M 153.293192 62.165398 
L 149.08166 65.153943 
L 149.08166 64.157761 
L 146.273971 64.157761 
L 146.273971 60.173034 
L 149.08166 60.173034 
L 149.08166 59.176852 
z
" clip-path="url(#pf02db59d2f)" style="fill: #0000ff; stroke: #0000ff; stroke-linejoin: miter"/>
   </g>
   <g id="patch_15">
    <path d="M 278.530863 62.165398 
L 282.742395 59.176852 
L 282.742395 60.173034 
L 285.550083 60.173034 
L 285.550083 64.157761 
L 282.742395 64.157761 
L 282.742395 65.153943 
z
" clip-path="url(#pf02db59d2f)" style="fill: #ff0000; stroke: #ff0000; stroke-linejoin: miter"/>
   </g>
   <g id="patch_16">
    <path d="M 381.602574 62.165398 
L 377.391042 65.153943 
L 377.391042 64.157761 
L 374.583353 64.157761 
L 374.583353 60.173034 
L 377.391042 60.173034 
L 377.391042 59.176852 
z
" clip-path="url(#pf02db59d2f)" style="fill: #0000ff; stroke: #0000ff; stroke-linejoin: miter"/>
   </g>
   <g id="patch_17">
    <path d="M 463.986056 62.165398 
L 459.774524 65.153943 
L 459.774524 64.157761 
L 456.966836 64.157761 
L 456.966836 60.173034 
L 459.774524 60.173034 
L 459.774524 59.176852 
z
" clip-path="url(#pf02db59d2f)" style="fill: #0000ff; stroke: #0000ff; stroke-linejoin: miter"/>
   </g>
   <g id="patch_18">
    <path d="M 487.629746 62.165398 
L 483.418214 65.153943 
L 483.418214 64.157761 
L 480.610526 64.157761 
L 480.610526 60.173034 
L 483.418214 60.173034 
L 483.418214 59.176852 
z
" clip-path="url(#pf02db59d2f)" style="fill: #0000ff; stroke: #0000ff; stroke-linejoin: miter"/>
   </g>
   <g id="patch_19">
    <path d="M 498.343293 62.165398 
L 502.554826 59.176852 
L 502.554826 60.173034 
L 505.362514 60.173034 
L 505.362514 64.157761 
L 502.554826 64.157761 
L 502.554826 65.153943 
z
" clip-path="url(#pf02db59d2f)" style="fill: #ff0000; stroke: #ff0000; stroke-linejoin: miter"/>
   </g>
   <g id="patch_20">
    <path d="M 532.70053 62.165398 
L 536.912063 59.176852 
L 536.912063 60.173034 
L 539.719751 60.173034 
L 539.719751 64.157761 
L 536.912063 64.157761 
L 536.912063 65.153943 
z
" clip-path="url(#pf02db59d2f)" style="fill: #ff0000; stroke: #ff0000; stroke-linejoin: miter"/>
   </g>
   <g id="patch_21">
    <path d="M 240.479299 181.707216 
L 236.267767 184.695761 
L 236.267767 183.69958 
L 233.460078 183.69958 
L 233.460078 179.714852 
L 236.267767 179.714852 
L 236.267767 178.71867 
z
" clip-path="url(#pf02db59d2f)" style="fill: #0000ff; stroke: #0000ff; stroke-linejoin: miter"/>
   </g>
   <g id="patch_22">
    <path d="M 384.188602 181.707216 
L 388.400135 178.71867 
L 388.400135 179.714852 
L 391.207823 179.714852 
L 391.207823 183.69958 
L 388.400135 183.69958 
L 388.400135 184.695761 
z
" clip-path="url(#pf02db59d2f)" style="fill: #ff0000; stroke: #ff0000; stroke-linejoin: miter"/>
   </g>
   <g id="patch_23">
    <path d="M 408.571158 181.707216 
L 412.78269 178.71867 
L 412.78269 179.714852 
L 415.590378 179.714852 
L 415.590378 183.69958 
L 412.78269 183.69958 
L 412.78269 184.695761 
z
" clip-path="url(#pf02db59d2f)" style="fill: #ff0000; stroke: #ff0000; stroke-linejoin: miter"/>
   </g>
   <g id="patch_24">
    <path d="M 579.987911 181.707216 
L 575.776378 184.695761 
L 575.776378 183.69958 
L 572.96869 183.69958 
L 572.96869 179.714852 
L 575.776378 179.714852 
L 575.776378 178.71867 
z
" clip-path="url(#pf02db59d2f)" style="fill: #0000ff; stroke: #0000ff; stroke-linejoin: miter"/>
   </g>
   <g id="patch_25">
    <path d="M 772.092892 181.707216 
L 776.304424 178.71867 
L 776.304424 179.714852 
L 779.112113 179.714852 
L 779.112113 183.69958 
L 776.304424 183.69958 
L 776.304424 184.695761 
z
" clip-path="url(#pf02db59d2f)" style="fill: #ff0000; stroke: #ff0000; stroke-linejoin: miter"/>
   </g>
   <g id="patch_26">
    <path d="M 145.904539 221.554489 
L 150.116071 218.565943 
L 150.116071 219.562125 
L 152.923759 219.562125 
L 152.923759 223.546852 
L 150.116071 223.546852 
L 150.116071 224.543034 
z
" clip-path="url(#pf02db59d2f)" style="fill: #ff0000; stroke: #ff0000; stroke-linejoin: miter"/>
   </g>
   <g id="patch_27">
    <path d="M 370.150161 221.554489 
L 374.361694 218.565943 
L 374.361694 219.562125 
L 377.169382 219.562125 
L 377.169382 223.546852 
L 374.361694 223.546852 
L 374.361694 224.543034 
z
" clip-path="url(#pf02db59d2f)" style="fill: #ff0000; stroke: #ff0000; stroke-linejoin: miter"/>
   </g>
   <g id="patch_28">
    <path d="M 396.749313 221.554489 
L 400.960845 218.565943 
L 400.960845 219.562125 
L 403.768533 219.562125 
L 403.768533 223.546852 
L 400.960845 223.546852 
L 400.960845 224.543034 
z
" clip-path="url(#pf02db59d2f)" style="fill: #ff0000; stroke: #ff0000; stroke-linejoin: miter"/>
   </g>
   <g id="patch_29">
    <path d="M 502.03762 221.554489 
L 506.249152 218.565943 
L 506.249152 219.562125 
L 509.05684 219.562125 
L 509.05684 223.546852 
L 506.249152 223.546852 
L 506.249152 224.543034 
z
" clip-path="url(#pf02db59d2f)" style="fill: #ff0000; stroke: #ff0000; stroke-linejoin: miter"/>
   </g>
   <g id="patch_30">
    <path d="M 714.83083 221.554489 
L 719.042363 218.565943 
L 719.042363 219.562125 
L 721.850051 219.562125 
L 721.850051 223.546852 
L 719.042363 223.546852 
L 719.042363 224.543034 
z
" clip-path="url(#pf02db59d2f)" style="fill: #ff0000; stroke: #ff0000; stroke-linejoin: miter"/>
   </g>
   <g id="patch_31">
    <path d="M 749.5575 221.554489 
L 745.345968 224.543034 
L 745.345968 223.546852 
L 742.53828 223.546852 
L 742.53828 219.562125 
L 745.345968 219.562125 
L 745.345968 218.565943 
z
" clip-path="url(#pf02db59d2f)" style="fill: #0000ff; stroke: #0000ff; stroke-linejoin: miter"/>
   </g>
   <g id="patch_32">
    <path d="M 779.481545 221.554489 
L 775.270013 224.543034 
L 775.270013 223.546852 
L 772.462325 223.546852 
L 772.462325 219.562125 
L 775.270013 219.562125 
L 775.270013 218.565943 
z
" clip-path="url(#pf02db59d2f)" style="fill: #0000ff; stroke: #0000ff; stroke-linejoin: miter"/>
   </g>
   <g id="patch_33">
    <path d="M 153.293192 82.089034 
L 149.08166 85.07758 
L 149.08166 84.081398 
L 146.273971 84.081398 
L 146.273971 80.09667 
L 149.08166 80.09667 
L 149.08166 79.100489 
z
" clip-path="url(#pf02db59d2f)" style="fill: #0000ff; stroke: #0000ff; stroke-linejoin: miter"/>
   </g>
   <g id="patch_34">
    <path d="M 161.790143 82.089034 
L 166.001675 79.100489 
L 166.001675 80.09667 
L 168.809363 80.09667 
L 168.809363 84.081398 
L 166.001675 84.081398 
L 166.001675 85.07758 
z
" clip-path="url(#pf02db59d2f)" style="fill: #ff0000; stroke: #ff0000; stroke-linejoin: miter"/>
   </g>
   <g id="patch_35">
    <path d="M 210.185821 82.089034 
L 205.974289 85.07758 
L 205.974289 84.081398 
L 203.166601 84.081398 
L 203.166601 80.09667 
L 205.974289 80.09667 
L 205.974289 79.100489 
z
" clip-path="url(#pf02db59d2f)" style="fill: #0000ff; stroke: #0000ff; stroke-linejoin: miter"/>
   </g>
   <g id="patch_36">
    <path d="M 330.620867 82.089034 
L 334.832399 79.100489 
L 334.832399 80.09667 
L 337.640088 80.09667 
L 337.640088 84.081398 
L 334.832399 84.081398 
L 334.832399 85.07758 
z
" clip-path="url(#pf02db59d2f)" style="fill: #ff0000; stroke: #ff0000; stroke-linejoin: miter"/>
   </g>
   <g id="patch_37">
    <path d="M 357.220018 82.089034 
L 361.431551 79.100489 
L 361.431551 80.09667 
L 364.239239 80.09667 
L 364.239239 84.081398 
L 361.431551 84.081398 
L 361.431551 85.07758 
z
" clip-path="url(#pf02db59d2f)" style="fill: #ff0000; stroke: #ff0000; stroke-linejoin: miter"/>
   </g>
   <g id="patch_38">
    <path d="M 381.602574 82.089034 
L 377.391042 85.07758 
L 377.391042 84.081398 
L 374.583353 84.081398 
L 374.583353 80.09667 
L 377.391042 80.09667 
L 377.391042 79.100489 
z
" clip-path="url(#pf02db59d2f)" style="fill: #0000ff; stroke: #0000ff; stroke-linejoin: miter"/>
   </g>
   <g id="patch_39">
    <path d="M 384.188602 82.089034 
L 388.400135 79.100489 
L 388.400135 80.09667 
L 391.207823 80.09667 
L 391.207823 84.081398 
L 388.400135 84.081398 
L 388.400135 85.07758 
z
" clip-path="url(#pf02db59d2f)" style="fill: #ff0000; stroke: #ff0000; stroke-linejoin: miter"/>
   </g>
   <g id="patch_40">
    <path d="M 534.178261 82.089034 
L 529.966729 85.07758 
L 529.966729 84.081398 
L 527.159041 84.081398 
L 527.159041 80.09667 
L 529.966729 80.09667 
L 529.966729 79.100489 
z
" clip-path="url(#pf02db59d2f)" style="fill: #0000ff; stroke: #0000ff; stroke-linejoin: miter"/>
   </g>
   <g id="patch_41">
    <path d="M 548.216702 82.089034 
L 552.428234 79.100489 
L 552.428234 80.09667 
L 555.235923 80.09667 
L 555.235923 84.081398 
L 552.428234 84.081398 
L 552.428234 85.07758 
z
" clip-path="url(#pf02db59d2f)" style="fill: #ff0000; stroke: #ff0000; stroke-linejoin: miter"/>
   </g>
   <g id="patch_42">
    <path d="M 562.994008 82.089034 
L 558.782476 85.07758 
L 558.782476 84.081398 
L 555.974788 84.081398 
L 555.974788 80.09667 
L 558.782476 80.09667 
L 558.782476 79.100489 
z
" clip-path="url(#pf02db59d2f)" style="fill: #0000ff; stroke: #0000ff; stroke-linejoin: miter"/>
   </g>
   <g id="patch_43">
    <path d="M 763.595941 82.089034 
L 767.807473 79.100489 
L 767.807473 80.09667 
L 770.615161 80.09667 
L 770.615161 84.081398 
L 767.807473 84.081398 
L 767.807473 85.07758 
z
" clip-path="url(#pf02db59d2f)" style="fill: #ff0000; stroke: #ff0000; stroke-linejoin: miter"/>
   </g>
   <g id="patch_44">
    <path d="M 778.373247 82.089034 
L 774.161715 85.07758 
L 774.161715 84.081398 
L 771.354027 84.081398 
L 771.354027 80.09667 
L 774.161715 80.09667 
L 774.161715 79.100489 
z
" clip-path="url(#pf02db59d2f)" style="fill: #0000ff; stroke: #0000ff; stroke-linejoin: miter"/>
   </g>
   <g id="patch_45">
    <path d="M 286.288948 161.78358 
L 282.077416 164.772125 
L 282.077416 163.775943 
L 279.269728 163.775943 
L 279.269728 159.791216 
L 282.077416 159.791216 
L 282.077416 158.795034 
z
" clip-path="url(#pf02db59d2f)" style="fill: #0000ff; stroke: #0000ff; stroke-linejoin: miter"/>
   </g>
   <g id="patch_46">
    <path d="M 369.780729 161.78358 
L 365.569196 164.772125 
L 365.569196 163.775943 
L 362.761508 163.775943 
L 362.761508 159.791216 
L 365.569196 159.791216 
L 365.569196 158.795034 
z
" clip-path="url(#pf02db59d2f)" style="fill: #0000ff; stroke: #0000ff; stroke-linejoin: miter"/>
   </g>
   <g id="patch_47">
    <path d="M 408.571158 161.78358 
L 412.78269 158.795034 
L 412.78269 159.791216 
L 415.590378 159.791216 
L 415.590378 163.775943 
L 412.78269 163.775943 
L 412.78269 164.772125 
z
" clip-path="url(#pf02db59d2f)" style="fill: #ff0000; stroke: #ff0000; stroke-linejoin: miter"/>
   </g>
   <g id="patch_48">
    <path d="M 437.386905 161.78358 
L 441.598437 158.795034 
L 441.598437 159.791216 
L 444.406125 159.791216 
L 444.406125 163.775943 
L 441.598437 163.775943 
L 441.598437 164.772125 
z
" clip-path="url(#pf02db59d2f)" style="fill: #ff0000; stroke: #ff0000; stroke-linejoin: miter"/>
   </g>
   <g id="patch_49">
    <path d="M 456.22797 161.78358 
L 452.016438 164.772125 
L 452.016438 163.775943 
L 449.20875 163.775943 
L 449.20875 159.791216 
L 452.016438 159.791216 
L 452.016438 158.795034 
z
" clip-path="url(#pf02db59d2f)" style="fill: #0000ff; stroke: #0000ff; stroke-linejoin: miter"/>
   </g>
   <g id="patch_50">
    <path d="M 627.275291 161.78358 
L 623.063758 164.772125 
L 623.063758 163.775943 
L 620.25607 163.775943 
L 620.25607 159.791216 
L 623.063758 159.791216 
L 623.063758 158.795034 
z
" clip-path="url(#pf02db59d2f)" style="fill: #0000ff; stroke: #0000ff; stroke-linejoin: miter"/>
   </g>
   <g id="patch_51">
    <path d="M 779.850978 161.78358 
L 784.06251 158.795034 
L 784.06251 159.791216 
L 786.870198 159.791216 
L 786.870198 163.775943 
L 784.06251 163.775943 
L 784.06251 164.772125 
z
" clip-path="url(#pf02db59d2f)" style="fill: #ff0000; stroke: #ff0000; stroke-linejoin: miter"/>
   </g>
   <g id="patch_52">
    <path d="M 153.293192 42.241761 
L 149.08166 45.230307 
L 149.08166 44.234125 
L 146.273971 44.234125 
L 146.273971 40.249398 
L 149.08166 40.249398 
L 149.08166 39.253216 
z
" clip-path="url(#pf02db59d2f)" style="fill: #0000ff; stroke: #0000ff; stroke-linejoin: miter"/>
   </g>
   <g id="patch_53">
    <path d="M 360.914345 42.241761 
L 356.702813 45.230307 
L 356.702813 44.234125 
L 353.895125 44.234125 
L 353.895125 40.249398 
L 356.702813 40.249398 
L 356.702813 39.253216 
z
" clip-path="url(#pf02db59d2f)" style="fill: #0000ff; stroke: #0000ff; stroke-linejoin: miter"/>
   </g>
   <g id="patch_54">
    <path d="M 381.602574 42.241761 
L 377.391042 45.230307 
L 377.391042 44.234125 
L 374.583353 44.234125 
L 374.583353 40.249398 
L 377.391042 40.249398 
L 377.391042 39.253216 
z
" clip-path="url(#pf02db59d2f)" style="fill: #0000ff; stroke: #0000ff; stroke-linejoin: miter"/>
   </g>
   <g id="patch_55">
    <path d="M 465.463787 42.241761 
L 461.252255 45.230307 
L 461.252255 44.234125 
L 458.444566 44.234125 
L 458.444566 40.249398 
L 461.252255 40.249398 
L 461.252255 39.253216 
z
" clip-path="url(#pf02db59d2f)" style="fill: #0000ff; stroke: #0000ff; stroke-linejoin: miter"/>
   </g>
   <g id="patch_56">
    <path d="M 480.979958 42.241761 
L 476.768426 45.230307 
L 476.768426 44.234125 
L 473.960738 44.234125 
L 473.960738 40.249398 
L 476.768426 40.249398 
L 476.768426 39.253216 
z
" clip-path="url(#pf02db59d2f)" style="fill: #0000ff; stroke: #0000ff; stroke-linejoin: miter"/>
   </g>
   <g id="patch_57">
    <path d="M 497.234995 42.241761 
L 501.446528 39.253216 
L 501.446528 40.249398 
L 504.254216 40.249398 
L 504.254216 44.234125 
L 501.446528 44.234125 
L 501.446528 45.230307 
z
" clip-path="url(#pf02db59d2f)" style="fill: #ff0000; stroke: #ff0000; stroke-linejoin: miter"/>
   </g>
   <g id="patch_58">
    <path d="M 686.015083 42.241761 
L 690.226615 39.253216 
L 690.226615 40.249398 
L 693.034304 40.249398 
L 693.034304 44.234125 
L 690.226615 44.234125 
L 690.226615 45.230307 
z
" clip-path="url(#pf02db59d2f)" style="fill: #ff0000; stroke: #ff0000; stroke-linejoin: miter"/>
   </g>
   <g id="patch_59">
    <path d="M 714.83083 42.241761 
L 719.042363 39.253216 
L 719.042363 40.249398 
L 721.850051 40.249398 
L 721.850051 44.234125 
L 719.042363 44.234125 
L 719.042363 45.230307 
z
" clip-path="url(#pf02db59d2f)" style="fill: #ff0000; stroke: #ff0000; stroke-linejoin: miter"/>
   </g>
   <g id="patch_60">
    <path d="M 281.486324 141.859943 
L 277.274792 144.848489 
L 277.274792 143.852307 
L 274.467103 143.852307 
L 274.467103 139.86758 
L 277.274792 139.86758 
L 277.274792 138.871398 
z
" clip-path="url(#pf02db59d2f)" style="fill: #0000ff; stroke: #0000ff; stroke-linejoin: miter"/>
   </g>
   <g id="patch_61">
    <path d="M 441.081232 141.859943 
L 445.292764 138.871398 
L 445.292764 139.86758 
L 448.100452 139.86758 
L 448.100452 143.852307 
L 445.292764 143.852307 
L 445.292764 144.848489 
z
" clip-path="url(#pf02db59d2f)" style="fill: #ff0000; stroke: #ff0000; stroke-linejoin: miter"/>
   </g>
   <g id="patch_62">
    <path d="M 621.733801 141.859943 
L 617.522268 144.848489 
L 617.522268 143.852307 
L 614.71458 143.852307 
L 614.71458 139.86758 
L 617.522268 139.86758 
L 617.522268 138.871398 
z
" clip-path="url(#pf02db59d2f)" style="fill: #0000ff; stroke: #0000ff; stroke-linejoin: miter"/>
   </g>
   <g id="patch_63">
    <path d="M 764.334806 141.859943 
L 768.546339 138.871398 
L 768.546339 139.86758 
L 771.354027 139.86758 
L 771.354027 143.852307 
L 768.546339 143.852307 
L 768.546339 144.848489 
z
" clip-path="url(#pf02db59d2f)" style="fill: #ff0000; stroke: #ff0000; stroke-linejoin: miter"/>
   </g>
   <g id="patch_64">
    <path d="M 281.486324 121.936307 
L 277.274792 124.924852 
L 277.274792 123.92867 
L 274.467103 123.92867 
L 274.467103 119.943943 
L 277.274792 119.943943 
L 277.274792 118.947761 
z
" clip-path="url(#pf02db59d2f)" style="fill: #0000ff; stroke: #0000ff; stroke-linejoin: miter"/>
   </g>
   <g id="patch_65">
    <path d="M 360.544912 121.936307 
L 356.33338 124.924852 
L 356.33338 123.92867 
L 353.525692 123.92867 
L 353.525692 119.943943 
L 356.33338 119.943943 
L 356.33338 118.947761 
z
" clip-path="url(#pf02db59d2f)" style="fill: #0000ff; stroke: #0000ff; stroke-linejoin: miter"/>
   </g>
   <g id="patch_66">
    <path d="M 408.571158 121.936307 
L 412.78269 118.947761 
L 412.78269 119.943943 
L 415.590378 119.943943 
L 415.590378 123.92867 
L 412.78269 123.92867 
L 412.78269 124.924852 
z
" clip-path="url(#pf02db59d2f)" style="fill: #ff0000; stroke: #ff0000; stroke-linejoin: miter"/>
   </g>
   <g id="patch_67">
    <path d="M 601.045572 121.936307 
L 605.257104 118.947761 
L 605.257104 119.943943 
L 608.064792 119.943943 
L 608.064792 123.92867 
L 605.257104 123.92867 
L 605.257104 124.924852 
z
" clip-path="url(#pf02db59d2f)" style="fill: #ff0000; stroke: #ff0000; stroke-linejoin: miter"/>
   </g>
   <g id="patch_68">
    <path d="M 764.334806 121.936307 
L 768.546339 118.947761 
L 768.546339 119.943943 
L 771.354027 119.943943 
L 771.354027 123.92867 
L 768.546339 123.92867 
L 768.546339 124.924852 
z
" clip-path="url(#pf02db59d2f)" style="fill: #ff0000; stroke: #ff0000; stroke-linejoin: miter"/>
   </g>
   <g id="patch_69">
    <path d="M 81.253824 201.630852 
L 85.465356 198.642307 
L 85.465356 199.638489 
L 88.273044 199.638489 
L 88.273044 203.623216 
L 85.465356 203.623216 
L 85.465356 204.619398 
z
" clip-path="url(#pf02db59d2f)" style="fill: #ff0000; stroke: #ff0000; stroke-linejoin: miter"/>
   </g>
   <g id="patch_70">
    <path d="M 106.744677 201.630852 
L 110.956209 198.642307 
L 110.956209 199.638489 
L 113.763898 199.638489 
L 113.763898 203.623216 
L 110.956209 203.623216 
L 110.956209 204.619398 
z
" clip-path="url(#pf02db59d2f)" style="fill: #ff0000; stroke: #ff0000; stroke-linejoin: miter"/>
   </g>
   <g id="patch_71">
    <path d="M 745.124308 201.630852 
L 740.912776 204.619398 
L 740.912776 203.623216 
L 738.105088 203.623216 
L 738.105088 199.638489 
L 740.912776 199.638489 
L 740.912776 198.642307 
z
" clip-path="url(#pf02db59d2f)" style="fill: #0000ff; stroke: #0000ff; stroke-linejoin: miter"/>
   </g>
   <g id="patch_72">
    <path d="M 755.09899 201.630852 
L 759.310522 198.642307 
L 759.310522 199.638489 
L 762.11821 199.638489 
L 762.11821 203.623216 
L 759.310522 203.623216 
L 759.310522 204.619398 
z
" clip-path="url(#pf02db59d2f)" style="fill: #ff0000; stroke: #ff0000; stroke-linejoin: miter"/>
   </g>
   <g id="matplotlib.axis_1">
    <g id="xtick_1">
     <g id="line2d_11">
      <path d="M 70.909709 241.478125 
L 70.909709 22.318125 
" clip-path="url(#pf02db59d2f)" style="fill: none; stroke-dasharray: 2.96,1.28; stroke-dashoffset: 0; stroke: #b0b0b0; stroke-opacity: 0.4; stroke-width: 0.8"/>
     </g>
     <g id="line2d_12">
      <defs>
       <path id="m86720c8800" d="M 0 0 
L 0 3.5 
" style="stroke: #000000; stroke-width: 0.8"/>
      </defs>
      <g>
       <use xlink:href="#m86720c8800" x="70.909709" y="241.478125" style="stroke: #000000; stroke-width: 0.8"/>
      </g>
     </g>
     <g id="text_1">
      <!-- 0 -->
      <g transform="translate(67.728459 256.076563) scale(0.1 -0.1)">
       <defs>
        <path id="DejaVuSans-30" d="M 2034 4250 
Q 1547 4250 1301 3770 
Q 1056 3291 1056 2328 
Q 1056 1369 1301 889 
Q 1547 409 2034 409 
Q 2525 409 2770 889 
Q 3016 1369 3016 2328 
Q 3016 3291 2770 3770 
Q 2525 4250 2034 4250 
z
M 2034 4750 
Q 2819 4750 3233 4129 
Q 3647 3509 3647 2328 
Q 3647 1150 3233 529 
Q 2819 -91 2034 -91 
Q 1250 -91 836 529 
Q 422 1150 422 2328 
Q 422 3509 836 4129 
Q 1250 4750 2034 4750 
z
" transform="scale(0.015625)"/>
       </defs>
       <use xlink:href="#DejaVuSans-30"/>
      </g>
     </g>
    </g>
    <g id="xtick_2">
     <g id="line2d_13">
      <path d="M 163.267874 241.478125 
L 163.267874 22.318125 
" clip-path="url(#pf02db59d2f)" style="fill: none; stroke-dasharray: 2.96,1.28; stroke-dashoffset: 0; stroke: #b0b0b0; stroke-opacity: 0.4; stroke-width: 0.8"/>
     </g>
     <g id="line2d_14">
      <g>
       <use xlink:href="#m86720c8800" x="163.267874" y="241.478125" style="stroke: #000000; stroke-width: 0.8"/>
      </g>
     </g>
     <g id="text_2">
      <!-- 250 -->
      <g transform="translate(153.724124 256.076563) scale(0.1 -0.1)">
       <defs>
        <path id="DejaVuSans-32" d="M 1228 531 
L 3431 531 
L 3431 0 
L 469 0 
L 469 531 
Q 828 903 1448 1529 
Q 2069 2156 2228 2338 
Q 2531 2678 2651 2914 
Q 2772 3150 2772 3378 
Q 2772 3750 2511 3984 
Q 2250 4219 1831 4219 
Q 1534 4219 1204 4116 
Q 875 4013 500 3803 
L 500 4441 
Q 881 4594 1212 4672 
Q 1544 4750 1819 4750 
Q 2544 4750 2975 4387 
Q 3406 4025 3406 3419 
Q 3406 3131 3298 2873 
Q 3191 2616 2906 2266 
Q 2828 2175 2409 1742 
Q 1991 1309 1228 531 
z
" transform="scale(0.015625)"/>
        <path id="DejaVuSans-35" d="M 691 4666 
L 3169 4666 
L 3169 4134 
L 1269 4134 
L 1269 2991 
Q 1406 3038 1543 3061 
Q 1681 3084 1819 3084 
Q 2600 3084 3056 2656 
Q 3513 2228 3513 1497 
Q 3513 744 3044 326 
Q 2575 -91 1722 -91 
Q 1428 -91 1123 -41 
Q 819 9 494 109 
L 494 744 
Q 775 591 1075 516 
Q 1375 441 1709 441 
Q 2250 441 2565 725 
Q 2881 1009 2881 1497 
Q 2881 1984 2565 2268 
Q 2250 2553 1709 2553 
Q 1456 2553 1204 2497 
Q 953 2441 691 2322 
L 691 4666 
z
" transform="scale(0.015625)"/>
       </defs>
       <use xlink:href="#DejaVuSans-32"/>
       <use xlink:href="#DejaVuSans-35" transform="translate(63.623047 0)"/>
       <use xlink:href="#DejaVuSans-30" transform="translate(127.246094 0)"/>
      </g>
     </g>
    </g>
    <g id="xtick_3">
     <g id="line2d_15">
      <path d="M 255.626038 241.478125 
L 255.626038 22.318125 
" clip-path="url(#pf02db59d2f)" style="fill: none; stroke-dasharray: 2.96,1.28; stroke-dashoffset: 0; stroke: #b0b0b0; stroke-opacity: 0.4; stroke-width: 0.8"/>
     </g>
     <g id="line2d_16">
      <g>
       <use xlink:href="#m86720c8800" x="255.626038" y="241.478125" style="stroke: #000000; stroke-width: 0.8"/>
      </g>
     </g>
     <g id="text_3">
      <!-- 500 -->
      <g transform="translate(246.082288 256.076563) scale(0.1 -0.1)">
       <use xlink:href="#DejaVuSans-35"/>
       <use xlink:href="#DejaVuSans-30" transform="translate(63.623047 0)"/>
       <use xlink:href="#DejaVuSans-30" transform="translate(127.246094 0)"/>
      </g>
     </g>
    </g>
    <g id="xtick_4">
     <g id="line2d_17">
      <path d="M 347.984202 241.478125 
L 347.984202 22.318125 
" clip-path="url(#pf02db59d2f)" style="fill: none; stroke-dasharray: 2.96,1.28; stroke-dashoffset: 0; stroke: #b0b0b0; stroke-opacity: 0.4; stroke-width: 0.8"/>
     </g>
     <g id="line2d_18">
      <g>
       <use xlink:href="#m86720c8800" x="347.984202" y="241.478125" style="stroke: #000000; stroke-width: 0.8"/>
      </g>
     </g>
     <g id="text_4">
      <!-- 750 -->
      <g transform="translate(338.440452 256.076563) scale(0.1 -0.1)">
       <defs>
        <path id="DejaVuSans-37" d="M 525 4666 
L 3525 4666 
L 3525 4397 
L 1831 0 
L 1172 0 
L 2766 4134 
L 525 4134 
L 525 4666 
z
" transform="scale(0.015625)"/>
       </defs>
       <use xlink:href="#DejaVuSans-37"/>
       <use xlink:href="#DejaVuSans-35" transform="translate(63.623047 0)"/>
       <use xlink:href="#DejaVuSans-30" transform="translate(127.246094 0)"/>
      </g>
     </g>
    </g>
    <g id="xtick_5">
     <g id="line2d_19">
      <path d="M 440.342366 241.478125 
L 440.342366 22.318125 
" clip-path="url(#pf02db59d2f)" style="fill: none; stroke-dasharray: 2.96,1.28; stroke-dashoffset: 0; stroke: #b0b0b0; stroke-opacity: 0.4; stroke-width: 0.8"/>
     </g>
     <g id="line2d_20">
      <g>
       <use xlink:href="#m86720c8800" x="440.342366" y="241.478125" style="stroke: #000000; stroke-width: 0.8"/>
      </g>
     </g>
     <g id="text_5">
      <!-- 1000 -->
      <g transform="translate(427.617366 256.076563) scale(0.1 -0.1)">
       <defs>
        <path id="DejaVuSans-31" d="M 794 531 
L 1825 531 
L 1825 4091 
L 703 3866 
L 703 4441 
L 1819 4666 
L 2450 4666 
L 2450 531 
L 3481 531 
L 3481 0 
L 794 0 
L 794 531 
z
" transform="scale(0.015625)"/>
       </defs>
       <use xlink:href="#DejaVuSans-31"/>
       <use xlink:href="#DejaVuSans-30" transform="translate(63.623047 0)"/>
       <use xlink:href="#DejaVuSans-30" transform="translate(127.246094 0)"/>
       <use xlink:href="#DejaVuSans-30" transform="translate(190.869141 0)"/>
      </g>
     </g>
    </g>
    <g id="xtick_6">
     <g id="line2d_21">
      <path d="M 532.70053 241.478125 
L 532.70053 22.318125 
" clip-path="url(#pf02db59d2f)" style="fill: none; stroke-dasharray: 2.96,1.28; stroke-dashoffset: 0; stroke: #b0b0b0; stroke-opacity: 0.4; stroke-width: 0.8"/>
     </g>
     <g id="line2d_22">
      <g>
       <use xlink:href="#m86720c8800" x="532.70053" y="241.478125" style="stroke: #000000; stroke-width: 0.8"/>
      </g>
     </g>
     <g id="text_6">
      <!-- 1250 -->
      <g transform="translate(519.97553 256.076563) scale(0.1 -0.1)">
       <use xlink:href="#DejaVuSans-31"/>
       <use xlink:href="#DejaVuSans-32" transform="translate(63.623047 0)"/>
       <use xlink:href="#DejaVuSans-35" transform="translate(127.246094 0)"/>
       <use xlink:href="#DejaVuSans-30" transform="translate(190.869141 0)"/>
      </g>
     </g>
    </g>
    <g id="xtick_7">
     <g id="line2d_23">
      <path d="M 625.058695 241.478125 
L 625.058695 22.318125 
" clip-path="url(#pf02db59d2f)" style="fill: none; stroke-dasharray: 2.96,1.28; stroke-dashoffset: 0; stroke: #b0b0b0; stroke-opacity: 0.4; stroke-width: 0.8"/>
     </g>
     <g id="line2d_24">
      <g>
       <use xlink:href="#m86720c8800" x="625.058695" y="241.478125" style="stroke: #000000; stroke-width: 0.8"/>
      </g>
     </g>
     <g id="text_7">
      <!-- 1500 -->
      <g transform="translate(612.333695 256.076563) scale(0.1 -0.1)">
       <use xlink:href="#DejaVuSans-31"/>
       <use xlink:href="#DejaVuSans-35" transform="translate(63.623047 0)"/>
       <use xlink:href="#DejaVuSans-30" transform="translate(127.246094 0)"/>
       <use xlink:href="#DejaVuSans-30" transform="translate(190.869141 0)"/>
      </g>
     </g>
    </g>
    <g id="xtick_8">
     <g id="line2d_25">
      <path d="M 717.416859 241.478125 
L 717.416859 22.318125 
" clip-path="url(#pf02db59d2f)" style="fill: none; stroke-dasharray: 2.96,1.28; stroke-dashoffset: 0; stroke: #b0b0b0; stroke-opacity: 0.4; stroke-width: 0.8"/>
     </g>
     <g id="line2d_26">
      <g>
       <use xlink:href="#m86720c8800" x="717.416859" y="241.478125" style="stroke: #000000; stroke-width: 0.8"/>
      </g>
     </g>
     <g id="text_8">
      <!-- 1750 -->
      <g transform="translate(704.691859 256.076563) scale(0.1 -0.1)">
       <use xlink:href="#DejaVuSans-31"/>
       <use xlink:href="#DejaVuSans-37" transform="translate(63.623047 0)"/>
       <use xlink:href="#DejaVuSans-35" transform="translate(127.246094 0)"/>
       <use xlink:href="#DejaVuSans-30" transform="translate(190.869141 0)"/>
      </g>
     </g>
    </g>
    <g id="xtick_9">
     <g id="line2d_27">
      <path d="M 809.775023 241.478125 
L 809.775023 22.318125 
" clip-path="url(#pf02db59d2f)" style="fill: none; stroke-dasharray: 2.96,1.28; stroke-dashoffset: 0; stroke: #b0b0b0; stroke-opacity: 0.4; stroke-width: 0.8"/>
     </g>
     <g id="line2d_28">
      <g>
       <use xlink:href="#m86720c8800" x="809.775023" y="241.478125" style="stroke: #000000; stroke-width: 0.8"/>
      </g>
     </g>
     <g id="text_9">
      <!-- 2000 -->
      <g transform="translate(797.050023 256.076563) scale(0.1 -0.1)">
       <use xlink:href="#DejaVuSans-32"/>
       <use xlink:href="#DejaVuSans-30" transform="translate(63.623047 0)"/>
       <use xlink:href="#DejaVuSans-30" transform="translate(127.246094 0)"/>
       <use xlink:href="#DejaVuSans-30" transform="translate(190.869141 0)"/>
      </g>
     </g>
    </g>
    <g id="text_10">
     <!-- Relative Position (bp) -->
     <g transform="translate(396.1525 269.754687) scale(0.1 -0.1)">
      <defs>
       <path id="DejaVuSans-52" d="M 2841 2188 
Q 3044 2119 3236 1894 
Q 3428 1669 3622 1275 
L 4263 0 
L 3584 0 
L 2988 1197 
Q 2756 1666 2539 1819 
Q 2322 1972 1947 1972 
L 1259 1972 
L 1259 0 
L 628 0 
L 628 4666 
L 2053 4666 
Q 2853 4666 3247 4331 
Q 3641 3997 3641 3322 
Q 3641 2881 3436 2590 
Q 3231 2300 2841 2188 
z
M 1259 4147 
L 1259 2491 
L 2053 2491 
Q 2509 2491 2742 2702 
Q 2975 2913 2975 3322 
Q 2975 3731 2742 3939 
Q 2509 4147 2053 4147 
L 1259 4147 
z
" transform="scale(0.015625)"/>
       <path id="DejaVuSans-65" d="M 3597 1894 
L 3597 1613 
L 953 1613 
Q 991 1019 1311 708 
Q 1631 397 2203 397 
Q 2534 397 2845 478 
Q 3156 559 3463 722 
L 3463 178 
Q 3153 47 2828 -22 
Q 2503 -91 2169 -91 
Q 1331 -91 842 396 
Q 353 884 353 1716 
Q 353 2575 817 3079 
Q 1281 3584 2069 3584 
Q 2775 3584 3186 3129 
Q 3597 2675 3597 1894 
z
M 3022 2063 
Q 3016 2534 2758 2815 
Q 2500 3097 2075 3097 
Q 1594 3097 1305 2825 
Q 1016 2553 972 2059 
L 3022 2063 
z
" transform="scale(0.015625)"/>
       <path id="DejaVuSans-6c" d="M 603 4863 
L 1178 4863 
L 1178 0 
L 603 0 
L 603 4863 
z
" transform="scale(0.015625)"/>
       <path id="DejaVuSans-61" d="M 2194 1759 
Q 1497 1759 1228 1600 
Q 959 1441 959 1056 
Q 959 750 1161 570 
Q 1363 391 1709 391 
Q 2188 391 2477 730 
Q 2766 1069 2766 1631 
L 2766 1759 
L 2194 1759 
z
M 3341 1997 
L 3341 0 
L 2766 0 
L 2766 531 
Q 2569 213 2275 61 
Q 1981 -91 1556 -91 
Q 1019 -91 701 211 
Q 384 513 384 1019 
Q 384 1609 779 1909 
Q 1175 2209 1959 2209 
L 2766 2209 
L 2766 2266 
Q 2766 2663 2505 2880 
Q 2244 3097 1772 3097 
Q 1472 3097 1187 3025 
Q 903 2953 641 2809 
L 641 3341 
Q 956 3463 1253 3523 
Q 1550 3584 1831 3584 
Q 2591 3584 2966 3190 
Q 3341 2797 3341 1997 
z
" transform="scale(0.015625)"/>
       <path id="DejaVuSans-74" d="M 1172 4494 
L 1172 3500 
L 2356 3500 
L 2356 3053 
L 1172 3053 
L 1172 1153 
Q 1172 725 1289 603 
Q 1406 481 1766 481 
L 2356 481 
L 2356 0 
L 1766 0 
Q 1100 0 847 248 
Q 594 497 594 1153 
L 594 3053 
L 172 3053 
L 172 3500 
L 594 3500 
L 594 4494 
L 1172 4494 
z
" transform="scale(0.015625)"/>
       <path id="DejaVuSans-69" d="M 603 3500 
L 1178 3500 
L 1178 0 
L 603 0 
L 603 3500 
z
M 603 4863 
L 1178 4863 
L 1178 4134 
L 603 4134 
L 603 4863 
z
" transform="scale(0.015625)"/>
       <path id="DejaVuSans-76" d="M 191 3500 
L 800 3500 
L 1894 563 
L 2988 3500 
L 3597 3500 
L 2284 0 
L 1503 0 
L 191 3500 
z
" transform="scale(0.015625)"/>
       <path id="DejaVuSans-20" transform="scale(0.015625)"/>
       <path id="DejaVuSans-50" d="M 1259 4147 
L 1259 2394 
L 2053 2394 
Q 2494 2394 2734 2622 
Q 2975 2850 2975 3272 
Q 2975 3691 2734 3919 
Q 2494 4147 2053 4147 
L 1259 4147 
z
M 628 4666 
L 2053 4666 
Q 2838 4666 3239 4311 
Q 3641 3956 3641 3272 
Q 3641 2581 3239 2228 
Q 2838 1875 2053 1875 
L 1259 1875 
L 1259 0 
L 628 0 
L 628 4666 
z
" transform="scale(0.015625)"/>
       <path id="DejaVuSans-6f" d="M 1959 3097 
Q 1497 3097 1228 2736 
Q 959 2375 959 1747 
Q 959 1119 1226 758 
Q 1494 397 1959 397 
Q 2419 397 2687 759 
Q 2956 1122 2956 1747 
Q 2956 2369 2687 2733 
Q 2419 3097 1959 3097 
z
M 1959 3584 
Q 2709 3584 3137 3096 
Q 3566 2609 3566 1747 
Q 3566 888 3137 398 
Q 2709 -91 1959 -91 
Q 1206 -91 779 398 
Q 353 888 353 1747 
Q 353 2609 779 3096 
Q 1206 3584 1959 3584 
z
" transform="scale(0.015625)"/>
       <path id="DejaVuSans-73" d="M 2834 3397 
L 2834 2853 
Q 2591 2978 2328 3040 
Q 2066 3103 1784 3103 
Q 1356 3103 1142 2972 
Q 928 2841 928 2578 
Q 928 2378 1081 2264 
Q 1234 2150 1697 2047 
L 1894 2003 
Q 2506 1872 2764 1633 
Q 3022 1394 3022 966 
Q 3022 478 2636 193 
Q 2250 -91 1575 -91 
Q 1294 -91 989 -36 
Q 684 19 347 128 
L 347 722 
Q 666 556 975 473 
Q 1284 391 1588 391 
Q 1994 391 2212 530 
Q 2431 669 2431 922 
Q 2431 1156 2273 1281 
Q 2116 1406 1581 1522 
L 1381 1569 
Q 847 1681 609 1914 
Q 372 2147 372 2553 
Q 372 3047 722 3315 
Q 1072 3584 1716 3584 
Q 2034 3584 2315 3537 
Q 2597 3491 2834 3397 
z
" transform="scale(0.015625)"/>
       <path id="DejaVuSans-6e" d="M 3513 2113 
L 3513 0 
L 2938 0 
L 2938 2094 
Q 2938 2591 2744 2837 
Q 2550 3084 2163 3084 
Q 1697 3084 1428 2787 
Q 1159 2491 1159 1978 
L 1159 0 
L 581 0 
L 581 3500 
L 1159 3500 
L 1159 2956 
Q 1366 3272 1645 3428 
Q 1925 3584 2291 3584 
Q 2894 3584 3203 3211 
Q 3513 2838 3513 2113 
z
" transform="scale(0.015625)"/>
       <path id="DejaVuSans-28" d="M 1984 4856 
Q 1566 4138 1362 3434 
Q 1159 2731 1159 2009 
Q 1159 1288 1364 580 
Q 1569 -128 1984 -844 
L 1484 -844 
Q 1016 -109 783 600 
Q 550 1309 550 2009 
Q 550 2706 781 3412 
Q 1013 4119 1484 4856 
L 1984 4856 
z
" transform="scale(0.015625)"/>
       <path id="DejaVuSans-62" d="M 3116 1747 
Q 3116 2381 2855 2742 
Q 2594 3103 2138 3103 
Q 1681 3103 1420 2742 
Q 1159 2381 1159 1747 
Q 1159 1113 1420 752 
Q 1681 391 2138 391 
Q 2594 391 2855 752 
Q 3116 1113 3116 1747 
z
M 1159 2969 
Q 1341 3281 1617 3432 
Q 1894 3584 2278 3584 
Q 2916 3584 3314 3078 
Q 3713 2572 3713 1747 
Q 3713 922 3314 415 
Q 2916 -91 2278 -91 
Q 1894 -91 1617 61 
Q 1341 213 1159 525 
L 1159 0 
L 581 0 
L 581 4863 
L 1159 4863 
L 1159 2969 
z
" transform="scale(0.015625)"/>
       <path id="DejaVuSans-70" d="M 1159 525 
L 1159 -1331 
L 581 -1331 
L 581 3500 
L 1159 3500 
L 1159 2969 
Q 1341 3281 1617 3432 
Q 1894 3584 2278 3584 
Q 2916 3584 3314 3078 
Q 3713 2572 3713 1747 
Q 3713 922 3314 415 
Q 2916 -91 2278 -91 
Q 1894 -91 1617 61 
Q 1341 213 1159 525 
z
M 3116 1747 
Q 3116 2381 2855 2742 
Q 2594 3103 2138 3103 
Q 1681 3103 1420 2742 
Q 1159 2381 1159 1747 
Q 1159 1113 1420 752 
Q 1681 391 2138 391 
Q 2594 391 2855 752 
Q 3116 1113 3116 1747 
z
" transform="scale(0.015625)"/>
       <path id="DejaVuSans-29" d="M 513 4856 
L 1013 4856 
Q 1481 4119 1714 3412 
Q 1947 2706 1947 2009 
Q 1947 1309 1714 600 
Q 1481 -109 1013 -844 
L 513 -844 
Q 928 -128 1133 580 
Q 1338 1288 1338 2009 
Q 1338 2731 1133 3434 
Q 928 4138 513 4856 
z
" transform="scale(0.015625)"/>
      </defs>
      <use xlink:href="#DejaVuSans-52"/>
      <use xlink:href="#DejaVuSans-65" transform="translate(64.982422 0)"/>
      <use xlink:href="#DejaVuSans-6c" transform="translate(126.505859 0)"/>
      <use xlink:href="#DejaVuSans-61" transform="translate(154.289062 0)"/>
      <use xlink:href="#DejaVuSans-74" transform="translate(215.568359 0)"/>
      <use xlink:href="#DejaVuSans-69" transform="translate(254.777344 0)"/>
      <use xlink:href="#DejaVuSans-76" transform="translate(282.560547 0)"/>
      <use xlink:href="#DejaVuSans-65" transform="translate(341.740234 0)"/>
      <use xlink:href="#DejaVuSans-20" transform="translate(403.263672 0)"/>
      <use xlink:href="#DejaVuSans-50" transform="translate(435.050781 0)"/>
      <use xlink:href="#DejaVuSans-6f" transform="translate(491.728516 0)"/>
      <use xlink:href="#DejaVuSans-73" transform="translate(552.910156 0)"/>
      <use xlink:href="#DejaVuSans-69" transform="translate(605.009766 0)"/>
      <use xlink:href="#DejaVuSans-74" transform="translate(632.792969 0)"/>
      <use xlink:href="#DejaVuSans-69" transform="translate(672.001953 0)"/>
      <use xlink:href="#DejaVuSans-6f" transform="translate(699.785156 0)"/>
      <use xlink:href="#DejaVuSans-6e" transform="translate(760.966797 0)"/>
      <use xlink:href="#DejaVuSans-20" transform="translate(824.345703 0)"/>
      <use xlink:href="#DejaVuSans-28" transform="translate(856.132812 0)"/>
      <use xlink:href="#DejaVuSans-62" transform="translate(895.146484 0)"/>
      <use xlink:href="#DejaVuSans-70" transform="translate(958.623047 0)"/>
      <use xlink:href="#DejaVuSans-29" transform="translate(1022.099609 0)"/>
     </g>
    </g>
   </g>
   <g id="matplotlib.axis_2">
    <g id="ytick_1">
     <g id="line2d_29">
      <defs>
       <path id="m45bcb2b169" d="M 0 0 
L -3.5 0 
" style="stroke: #000000; stroke-width: 0.8"/>
      </defs>
      <g>
       <use xlink:href="#m45bcb2b169" x="48.74375" y="221.554489" style="stroke: #000000; stroke-width: 0.8"/>
      </g>
     </g>
     <g id="text_11">
      <!-- Seed 0 -->
      <g transform="translate(7.2 225.353707) scale(0.1 -0.1)">
       <defs>
        <path id="DejaVuSans-53" d="M 3425 4513 
L 3425 3897 
Q 3066 4069 2747 4153 
Q 2428 4238 2131 4238 
Q 1616 4238 1336 4038 
Q 1056 3838 1056 3469 
Q 1056 3159 1242 3001 
Q 1428 2844 1947 2747 
L 2328 2669 
Q 3034 2534 3370 2195 
Q 3706 1856 3706 1288 
Q 3706 609 3251 259 
Q 2797 -91 1919 -91 
Q 1588 -91 1214 -16 
Q 841 59 441 206 
L 441 856 
Q 825 641 1194 531 
Q 1563 422 1919 422 
Q 2459 422 2753 634 
Q 3047 847 3047 1241 
Q 3047 1584 2836 1778 
Q 2625 1972 2144 2069 
L 1759 2144 
Q 1053 2284 737 2584 
Q 422 2884 422 3419 
Q 422 4038 858 4394 
Q 1294 4750 2059 4750 
Q 2388 4750 2728 4690 
Q 3069 4631 3425 4513 
z
" transform="scale(0.015625)"/>
        <path id="DejaVuSans-64" d="M 2906 2969 
L 2906 4863 
L 3481 4863 
L 3481 0 
L 2906 0 
L 2906 525 
Q 2725 213 2448 61 
Q 2172 -91 1784 -91 
Q 1150 -91 751 415 
Q 353 922 353 1747 
Q 353 2572 751 3078 
Q 1150 3584 1784 3584 
Q 2172 3584 2448 3432 
Q 2725 3281 2906 2969 
z
M 947 1747 
Q 947 1113 1208 752 
Q 1469 391 1925 391 
Q 2381 391 2643 752 
Q 2906 1113 2906 1747 
Q 2906 2381 2643 2742 
Q 2381 3103 1925 3103 
Q 1469 3103 1208 2742 
Q 947 2381 947 1747 
z
" transform="scale(0.015625)"/>
       </defs>
       <use xlink:href="#DejaVuSans-53"/>
       <use xlink:href="#DejaVuSans-65" transform="translate(63.476562 0)"/>
       <use xlink:href="#DejaVuSans-65" transform="translate(125 0)"/>
       <use xlink:href="#DejaVuSans-64" transform="translate(186.523438 0)"/>
       <use xlink:href="#DejaVuSans-20" transform="translate(250 0)"/>
       <use xlink:href="#DejaVuSans-30" transform="translate(281.787109 0)"/>
      </g>
     </g>
    </g>
    <g id="ytick_2">
     <g id="line2d_30">
      <g>
       <use xlink:href="#m45bcb2b169" x="48.74375" y="201.630852" style="stroke: #000000; stroke-width: 0.8"/>
      </g>
     </g>
     <g id="text_12">
      <!-- Seed 1 -->
      <g transform="translate(7.2 205.430071) scale(0.1 -0.1)">
       <use xlink:href="#DejaVuSans-53"/>
       <use xlink:href="#DejaVuSans-65" transform="translate(63.476562 0)"/>
       <use xlink:href="#DejaVuSans-65" transform="translate(125 0)"/>
       <use xlink:href="#DejaVuSans-64" transform="translate(186.523438 0)"/>
       <use xlink:href="#DejaVuSans-20" transform="translate(250 0)"/>
       <use xlink:href="#DejaVuSans-31" transform="translate(281.787109 0)"/>
      </g>
     </g>
    </g>
    <g id="ytick_3">
     <g id="line2d_31">
      <g>
       <use xlink:href="#m45bcb2b169" x="48.74375" y="181.707216" style="stroke: #000000; stroke-width: 0.8"/>
      </g>
     </g>
     <g id="text_13">
      <!-- Seed 2 -->
      <g transform="translate(7.2 185.506435) scale(0.1 -0.1)">
       <use xlink:href="#DejaVuSans-53"/>
       <use xlink:href="#DejaVuSans-65" transform="translate(63.476562 0)"/>
       <use xlink:href="#DejaVuSans-65" transform="translate(125 0)"/>
       <use xlink:href="#DejaVuSans-64" transform="translate(186.523438 0)"/>
       <use xlink:href="#DejaVuSans-20" transform="translate(250 0)"/>
       <use xlink:href="#DejaVuSans-32" transform="translate(281.787109 0)"/>
      </g>
     </g>
    </g>
    <g id="ytick_4">
     <g id="line2d_32">
      <g>
       <use xlink:href="#m45bcb2b169" x="48.74375" y="161.78358" style="stroke: #000000; stroke-width: 0.8"/>
      </g>
     </g>
     <g id="text_14">
      <!-- Seed 3 -->
      <g transform="translate(7.2 165.582798) scale(0.1 -0.1)">
       <defs>
        <path id="DejaVuSans-33" d="M 2597 2516 
Q 3050 2419 3304 2112 
Q 3559 1806 3559 1356 
Q 3559 666 3084 287 
Q 2609 -91 1734 -91 
Q 1441 -91 1130 -33 
Q 819 25 488 141 
L 488 750 
Q 750 597 1062 519 
Q 1375 441 1716 441 
Q 2309 441 2620 675 
Q 2931 909 2931 1356 
Q 2931 1769 2642 2001 
Q 2353 2234 1838 2234 
L 1294 2234 
L 1294 2753 
L 1863 2753 
Q 2328 2753 2575 2939 
Q 2822 3125 2822 3475 
Q 2822 3834 2567 4026 
Q 2313 4219 1838 4219 
Q 1578 4219 1281 4162 
Q 984 4106 628 3988 
L 628 4550 
Q 988 4650 1302 4700 
Q 1616 4750 1894 4750 
Q 2613 4750 3031 4423 
Q 3450 4097 3450 3541 
Q 3450 3153 3228 2886 
Q 3006 2619 2597 2516 
z
" transform="scale(0.015625)"/>
       </defs>
       <use xlink:href="#DejaVuSans-53"/>
       <use xlink:href="#DejaVuSans-65" transform="translate(63.476562 0)"/>
       <use xlink:href="#DejaVuSans-65" transform="translate(125 0)"/>
       <use xlink:href="#DejaVuSans-64" transform="translate(186.523438 0)"/>
       <use xlink:href="#DejaVuSans-20" transform="translate(250 0)"/>
       <use xlink:href="#DejaVuSans-33" transform="translate(281.787109 0)"/>
      </g>
     </g>
    </g>
    <g id="ytick_5">
     <g id="line2d_33">
      <g>
       <use xlink:href="#m45bcb2b169" x="48.74375" y="141.859943" style="stroke: #000000; stroke-width: 0.8"/>
      </g>
     </g>
     <g id="text_15">
      <!-- Seed 4 -->
      <g transform="translate(7.2 145.659162) scale(0.1 -0.1)">
       <defs>
        <path id="DejaVuSans-34" d="M 2419 4116 
L 825 1625 
L 2419 1625 
L 2419 4116 
z
M 2253 4666 
L 3047 4666 
L 3047 1625 
L 3713 1625 
L 3713 1100 
L 3047 1100 
L 3047 0 
L 2419 0 
L 2419 1100 
L 313 1100 
L 313 1709 
L 2253 4666 
z
" transform="scale(0.015625)"/>
       </defs>
       <use xlink:href="#DejaVuSans-53"/>
       <use xlink:href="#DejaVuSans-65" transform="translate(63.476562 0)"/>
       <use xlink:href="#DejaVuSans-65" transform="translate(125 0)"/>
       <use xlink:href="#DejaVuSans-64" transform="translate(186.523438 0)"/>
       <use xlink:href="#DejaVuSans-20" transform="translate(250 0)"/>
       <use xlink:href="#DejaVuSans-34" transform="translate(281.787109 0)"/>
      </g>
     </g>
    </g>
    <g id="ytick_6">
     <g id="line2d_34">
      <g>
       <use xlink:href="#m45bcb2b169" x="48.74375" y="121.936307" style="stroke: #000000; stroke-width: 0.8"/>
      </g>
     </g>
     <g id="text_16">
      <!-- Seed 5 -->
      <g transform="translate(7.2 125.735526) scale(0.1 -0.1)">
       <use xlink:href="#DejaVuSans-53"/>
       <use xlink:href="#DejaVuSans-65" transform="translate(63.476562 0)"/>
       <use xlink:href="#DejaVuSans-65" transform="translate(125 0)"/>
       <use xlink:href="#DejaVuSans-64" transform="translate(186.523438 0)"/>
       <use xlink:href="#DejaVuSans-20" transform="translate(250 0)"/>
       <use xlink:href="#DejaVuSans-35" transform="translate(281.787109 0)"/>
      </g>
     </g>
    </g>
    <g id="ytick_7">
     <g id="line2d_35">
      <g>
       <use xlink:href="#m45bcb2b169" x="48.74375" y="102.01267" style="stroke: #000000; stroke-width: 0.8"/>
      </g>
     </g>
     <g id="text_17">
      <!-- Seed 6 -->
      <g transform="translate(7.2 105.811889) scale(0.1 -0.1)">
       <defs>
        <path id="DejaVuSans-36" d="M 2113 2584 
Q 1688 2584 1439 2293 
Q 1191 2003 1191 1497 
Q 1191 994 1439 701 
Q 1688 409 2113 409 
Q 2538 409 2786 701 
Q 3034 994 3034 1497 
Q 3034 2003 2786 2293 
Q 2538 2584 2113 2584 
z
M 3366 4563 
L 3366 3988 
Q 3128 4100 2886 4159 
Q 2644 4219 2406 4219 
Q 1781 4219 1451 3797 
Q 1122 3375 1075 2522 
Q 1259 2794 1537 2939 
Q 1816 3084 2150 3084 
Q 2853 3084 3261 2657 
Q 3669 2231 3669 1497 
Q 3669 778 3244 343 
Q 2819 -91 2113 -91 
Q 1303 -91 875 529 
Q 447 1150 447 2328 
Q 447 3434 972 4092 
Q 1497 4750 2381 4750 
Q 2619 4750 2861 4703 
Q 3103 4656 3366 4563 
z
" transform="scale(0.015625)"/>
       </defs>
       <use xlink:href="#DejaVuSans-53"/>
       <use xlink:href="#DejaVuSans-65" transform="translate(63.476562 0)"/>
       <use xlink:href="#DejaVuSans-65" transform="translate(125 0)"/>
       <use xlink:href="#DejaVuSans-64" transform="translate(186.523438 0)"/>
       <use xlink:href="#DejaVuSans-20" transform="translate(250 0)"/>
       <use xlink:href="#DejaVuSans-36" transform="translate(281.787109 0)"/>
      </g>
     </g>
    </g>
    <g id="ytick_8">
     <g id="line2d_36">
      <g>
       <use xlink:href="#m45bcb2b169" x="48.74375" y="82.089034" style="stroke: #000000; stroke-width: 0.8"/>
      </g>
     </g>
     <g id="text_18">
      <!-- Seed 7 -->
      <g transform="translate(7.2 85.888253) scale(0.1 -0.1)">
       <use xlink:href="#DejaVuSans-53"/>
       <use xlink:href="#DejaVuSans-65" transform="translate(63.476562 0)"/>
       <use xlink:href="#DejaVuSans-65" transform="translate(125 0)"/>
       <use xlink:href="#DejaVuSans-64" transform="translate(186.523438 0)"/>
       <use xlink:href="#DejaVuSans-20" transform="translate(250 0)"/>
       <use xlink:href="#DejaVuSans-37" transform="translate(281.787109 0)"/>
      </g>
     </g>
    </g>
    <g id="ytick_9">
     <g id="line2d_37">
      <g>
       <use xlink:href="#m45bcb2b169" x="48.74375" y="62.165398" style="stroke: #000000; stroke-width: 0.8"/>
      </g>
     </g>
     <g id="text_19">
      <!-- Seed 8 -->
      <g transform="translate(7.2 65.964616) scale(0.1 -0.1)">
       <defs>
        <path id="DejaVuSans-38" d="M 2034 2216 
Q 1584 2216 1326 1975 
Q 1069 1734 1069 1313 
Q 1069 891 1326 650 
Q 1584 409 2034 409 
Q 2484 409 2743 651 
Q 3003 894 3003 1313 
Q 3003 1734 2745 1975 
Q 2488 2216 2034 2216 
z
M 1403 2484 
Q 997 2584 770 2862 
Q 544 3141 544 3541 
Q 544 4100 942 4425 
Q 1341 4750 2034 4750 
Q 2731 4750 3128 4425 
Q 3525 4100 3525 3541 
Q 3525 3141 3298 2862 
Q 3072 2584 2669 2484 
Q 3125 2378 3379 2068 
Q 3634 1759 3634 1313 
Q 3634 634 3220 271 
Q 2806 -91 2034 -91 
Q 1263 -91 848 271 
Q 434 634 434 1313 
Q 434 1759 690 2068 
Q 947 2378 1403 2484 
z
M 1172 3481 
Q 1172 3119 1398 2916 
Q 1625 2713 2034 2713 
Q 2441 2713 2670 2916 
Q 2900 3119 2900 3481 
Q 2900 3844 2670 4047 
Q 2441 4250 2034 4250 
Q 1625 4250 1398 4047 
Q 1172 3844 1172 3481 
z
" transform="scale(0.015625)"/>
       </defs>
       <use xlink:href="#DejaVuSans-53"/>
       <use xlink:href="#DejaVuSans-65" transform="translate(63.476562 0)"/>
       <use xlink:href="#DejaVuSans-65" transform="translate(125 0)"/>
       <use xlink:href="#DejaVuSans-64" transform="translate(186.523438 0)"/>
       <use xlink:href="#DejaVuSans-20" transform="translate(250 0)"/>
       <use xlink:href="#DejaVuSans-38" transform="translate(281.787109 0)"/>
      </g>
     </g>
    </g>
    <g id="ytick_10">
     <g id="line2d_38">
      <g>
       <use xlink:href="#m45bcb2b169" x="48.74375" y="42.241761" style="stroke: #000000; stroke-width: 0.8"/>
      </g>
     </g>
     <g id="text_20">
      <!-- Seed 9 -->
      <g transform="translate(7.2 46.04098) scale(0.1 -0.1)">
       <defs>
        <path id="DejaVuSans-39" d="M 703 97 
L 703 672 
Q 941 559 1184 500 
Q 1428 441 1663 441 
Q 2288 441 2617 861 
Q 2947 1281 2994 2138 
Q 2813 1869 2534 1725 
Q 2256 1581 1919 1581 
Q 1219 1581 811 2004 
Q 403 2428 403 3163 
Q 403 3881 828 4315 
Q 1253 4750 1959 4750 
Q 2769 4750 3195 4129 
Q 3622 3509 3622 2328 
Q 3622 1225 3098 567 
Q 2575 -91 1691 -91 
Q 1453 -91 1209 -44 
Q 966 3 703 97 
z
M 1959 2075 
Q 2384 2075 2632 2365 
Q 2881 2656 2881 3163 
Q 2881 3666 2632 3958 
Q 2384 4250 1959 4250 
Q 1534 4250 1286 3958 
Q 1038 3666 1038 3163 
Q 1038 2656 1286 2365 
Q 1534 2075 1959 2075 
z
" transform="scale(0.015625)"/>
       </defs>
       <use xlink:href="#DejaVuSans-53"/>
       <use xlink:href="#DejaVuSans-65" transform="translate(63.476562 0)"/>
       <use xlink:href="#DejaVuSans-65" transform="translate(125 0)"/>
       <use xlink:href="#DejaVuSans-64" transform="translate(186.523438 0)"/>
       <use xlink:href="#DejaVuSans-20" transform="translate(250 0)"/>
       <use xlink:href="#DejaVuSans-39" transform="translate(281.787109 0)"/>
      </g>
     </g>
    </g>
   </g>
   <g id="patch_73">
    <path d="M 48.74375 241.478125 
L 48.74375 22.318125 
" style="fill: none; stroke: #000000; stroke-width: 0.8; stroke-linejoin: miter; stroke-linecap: square"/>
   </g>
   <g id="patch_74">
    <path d="M 849.67375 241.478125 
L 849.67375 22.318125 
" style="fill: none; stroke: #000000; stroke-width: 0.8; stroke-linejoin: miter; stroke-linecap: square"/>
   </g>
   <g id="patch_75">
    <path d="M 48.74375 241.478125 
L 849.67375 241.478125 
" style="fill: none; stroke: #000000; stroke-width: 0.8; stroke-linejoin: miter; stroke-linecap: square"/>
   </g>
   <g id="patch_76">
    <path d="M 48.74375 22.318125 
L 849.67375 22.318125 
" style="fill: none; stroke: #000000; stroke-width: 0.8; stroke-linejoin: miter; stroke-linecap: square"/>
   </g>
   <g id="text_21">
    <!-- CTCF Motif Orientation in 2048bp Slice – chr5:38354944-39665664 -->
    <g transform="translate(247.723125 16.318125) scale(0.12 -0.12)">
     <defs>
      <path id="DejaVuSans-43" d="M 4122 4306 
L 4122 3641 
Q 3803 3938 3442 4084 
Q 3081 4231 2675 4231 
Q 1875 4231 1450 3742 
Q 1025 3253 1025 2328 
Q 1025 1406 1450 917 
Q 1875 428 2675 428 
Q 3081 428 3442 575 
Q 3803 722 4122 1019 
L 4122 359 
Q 3791 134 3420 21 
Q 3050 -91 2638 -91 
Q 1578 -91 968 557 
Q 359 1206 359 2328 
Q 359 3453 968 4101 
Q 1578 4750 2638 4750 
Q 3056 4750 3426 4639 
Q 3797 4528 4122 4306 
z
" transform="scale(0.015625)"/>
      <path id="DejaVuSans-54" d="M -19 4666 
L 3928 4666 
L 3928 4134 
L 2272 4134 
L 2272 0 
L 1638 0 
L 1638 4134 
L -19 4134 
L -19 4666 
z
" transform="scale(0.015625)"/>
      <path id="DejaVuSans-46" d="M 628 4666 
L 3309 4666 
L 3309 4134 
L 1259 4134 
L 1259 2759 
L 3109 2759 
L 3109 2228 
L 1259 2228 
L 1259 0 
L 628 0 
L 628 4666 
z
" transform="scale(0.015625)"/>
      <path id="DejaVuSans-4d" d="M 628 4666 
L 1569 4666 
L 2759 1491 
L 3956 4666 
L 4897 4666 
L 4897 0 
L 4281 0 
L 4281 4097 
L 3078 897 
L 2444 897 
L 1241 4097 
L 1241 0 
L 628 0 
L 628 4666 
z
" transform="scale(0.015625)"/>
      <path id="DejaVuSans-66" d="M 2375 4863 
L 2375 4384 
L 1825 4384 
Q 1516 4384 1395 4259 
Q 1275 4134 1275 3809 
L 1275 3500 
L 2222 3500 
L 2222 3053 
L 1275 3053 
L 1275 0 
L 697 0 
L 697 3053 
L 147 3053 
L 147 3500 
L 697 3500 
L 697 3744 
Q 697 4328 969 4595 
Q 1241 4863 1831 4863 
L 2375 4863 
z
" transform="scale(0.015625)"/>
      <path id="DejaVuSans-4f" d="M 2522 4238 
Q 1834 4238 1429 3725 
Q 1025 3213 1025 2328 
Q 1025 1447 1429 934 
Q 1834 422 2522 422 
Q 3209 422 3611 934 
Q 4013 1447 4013 2328 
Q 4013 3213 3611 3725 
Q 3209 4238 2522 4238 
z
M 2522 4750 
Q 3503 4750 4090 4092 
Q 4678 3434 4678 2328 
Q 4678 1225 4090 567 
Q 3503 -91 2522 -91 
Q 1538 -91 948 565 
Q 359 1222 359 2328 
Q 359 3434 948 4092 
Q 1538 4750 2522 4750 
z
" transform="scale(0.015625)"/>
      <path id="DejaVuSans-72" d="M 2631 2963 
Q 2534 3019 2420 3045 
Q 2306 3072 2169 3072 
Q 1681 3072 1420 2755 
Q 1159 2438 1159 1844 
L 1159 0 
L 581 0 
L 581 3500 
L 1159 3500 
L 1159 2956 
Q 1341 3275 1631 3429 
Q 1922 3584 2338 3584 
Q 2397 3584 2469 3576 
Q 2541 3569 2628 3553 
L 2631 2963 
z
" transform="scale(0.015625)"/>
      <path id="DejaVuSans-63" d="M 3122 3366 
L 3122 2828 
Q 2878 2963 2633 3030 
Q 2388 3097 2138 3097 
Q 1578 3097 1268 2742 
Q 959 2388 959 1747 
Q 959 1106 1268 751 
Q 1578 397 2138 397 
Q 2388 397 2633 464 
Q 2878 531 3122 666 
L 3122 134 
Q 2881 22 2623 -34 
Q 2366 -91 2075 -91 
Q 1284 -91 818 406 
Q 353 903 353 1747 
Q 353 2603 823 3093 
Q 1294 3584 2113 3584 
Q 2378 3584 2631 3529 
Q 2884 3475 3122 3366 
z
" transform="scale(0.015625)"/>
      <path id="DejaVuSans-2013" d="M 313 1978 
L 2888 1978 
L 2888 1528 
L 313 1528 
L 313 1978 
z
" transform="scale(0.015625)"/>
      <path id="DejaVuSans-68" d="M 3513 2113 
L 3513 0 
L 2938 0 
L 2938 2094 
Q 2938 2591 2744 2837 
Q 2550 3084 2163 3084 
Q 1697 3084 1428 2787 
Q 1159 2491 1159 1978 
L 1159 0 
L 581 0 
L 581 4863 
L 1159 4863 
L 1159 2956 
Q 1366 3272 1645 3428 
Q 1925 3584 2291 3584 
Q 2894 3584 3203 3211 
Q 3513 2838 3513 2113 
z
" transform="scale(0.015625)"/>
      <path id="DejaVuSans-3a" d="M 750 794 
L 1409 794 
L 1409 0 
L 750 0 
L 750 794 
z
M 750 3309 
L 1409 3309 
L 1409 2516 
L 750 2516 
L 750 3309 
z
" transform="scale(0.015625)"/>
      <path id="DejaVuSans-2d" d="M 313 2009 
L 1997 2009 
L 1997 1497 
L 313 1497 
L 313 2009 
z
" transform="scale(0.015625)"/>
     </defs>
     <use xlink:href="#DejaVuSans-43"/>
     <use xlink:href="#DejaVuSans-54" transform="translate(69.824219 0)"/>
     <use xlink:href="#DejaVuSans-43" transform="translate(125.033203 0)"/>
     <use xlink:href="#DejaVuSans-46" transform="translate(194.857422 0)"/>
     <use xlink:href="#DejaVuSans-20" transform="translate(252.376953 0)"/>
     <use xlink:href="#DejaVuSans-4d" transform="translate(284.164062 0)"/>
     <use xlink:href="#DejaVuSans-6f" transform="translate(370.443359 0)"/>
     <use xlink:href="#DejaVuSans-74" transform="translate(431.625 0)"/>
     <use xlink:href="#DejaVuSans-69" transform="translate(470.833984 0)"/>
     <use xlink:href="#DejaVuSans-66" transform="translate(498.617188 0)"/>
     <use xlink:href="#DejaVuSans-20" transform="translate(533.822266 0)"/>
     <use xlink:href="#DejaVuSans-4f" transform="translate(565.609375 0)"/>
     <use xlink:href="#DejaVuSans-72" transform="translate(644.320312 0)"/>
     <use xlink:href="#DejaVuSans-69" transform="translate(685.433594 0)"/>
     <use xlink:href="#DejaVuSans-65" transform="translate(713.216797 0)"/>
     <use xlink:href="#DejaVuSans-6e" transform="translate(774.740234 0)"/>
     <use xlink:href="#DejaVuSans-74" transform="translate(838.119141 0)"/>
     <use xlink:href="#DejaVuSans-61" transform="translate(877.328125 0)"/>
     <use xlink:href="#DejaVuSans-74" transform="translate(938.607422 0)"/>
     <use xlink:href="#DejaVuSans-69" transform="translate(977.816406 0)"/>
     <use xlink:href="#DejaVuSans-6f" transform="translate(1005.599609 0)"/>
     <use xlink:href="#DejaVuSans-6e" transform="translate(1066.78125 0)"/>
     <use xlink:href="#DejaVuSans-20" transform="translate(1130.160156 0)"/>
     <use xlink:href="#DejaVuSans-69" transform="translate(1161.947266 0)"/>
     <use xlink:href="#DejaVuSans-6e" transform="translate(1189.730469 0)"/>
     <use xlink:href="#DejaVuSans-20" transform="translate(1253.109375 0)"/>
     <use xlink:href="#DejaVuSans-32" transform="translate(1284.896484 0)"/>
     <use xlink:href="#DejaVuSans-30" transform="translate(1348.519531 0)"/>
     <use xlink:href="#DejaVuSans-34" transform="translate(1412.142578 0)"/>
     <use xlink:href="#DejaVuSans-38" transform="translate(1475.765625 0)"/>
     <use xlink:href="#DejaVuSans-62" transform="translate(1539.388672 0)"/>
     <use xlink:href="#DejaVuSans-70" transform="translate(1602.865234 0)"/>
     <use xlink:href="#DejaVuSans-20" transform="translate(1666.341797 0)"/>
     <use xlink:href="#DejaVuSans-53" transform="translate(1698.128906 0)"/>
     <use xlink:href="#DejaVuSans-6c" transform="translate(1761.605469 0)"/>
     <use xlink:href="#DejaVuSans-69" transform="translate(1789.388672 0)"/>
     <use xlink:href="#DejaVuSans-63" transform="translate(1817.171875 0)"/>
     <use xlink:href="#DejaVuSans-65" transform="translate(1872.152344 0)"/>
     <use xlink:href="#DejaVuSans-20" transform="translate(1933.675781 0)"/>
     <use xlink:href="#DejaVuSans-2013" transform="translate(1965.462891 0)"/>
     <use xlink:href="#DejaVuSans-20" transform="translate(2015.462891 0)"/>
     <use xlink:href="#DejaVuSans-63" transform="translate(2047.25 0)"/>
     <use xlink:href="#DejaVuSans-68" transform="translate(2102.230469 0)"/>
     <use xlink:href="#DejaVuSans-72" transform="translate(2165.609375 0)"/>
     <use xlink:href="#DejaVuSans-35" transform="translate(2206.722656 0)"/>
     <use xlink:href="#DejaVuSans-3a" transform="translate(2270.345703 0)"/>
     <use xlink:href="#DejaVuSans-33" transform="translate(2304.037109 0)"/>
     <use xlink:href="#DejaVuSans-38" transform="translate(2367.660156 0)"/>
     <use xlink:href="#DejaVuSans-33" transform="translate(2431.283203 0)"/>
     <use xlink:href="#DejaVuSans-35" transform="translate(2494.90625 0)"/>
     <use xlink:href="#DejaVuSans-34" transform="translate(2558.529297 0)"/>
     <use xlink:href="#DejaVuSans-39" transform="translate(2622.152344 0)"/>
     <use xlink:href="#DejaVuSans-34" transform="translate(2685.775391 0)"/>
     <use xlink:href="#DejaVuSans-34" transform="translate(2749.398438 0)"/>
     <use xlink:href="#DejaVuSans-2d" transform="translate(2813.021484 0)"/>
     <use xlink:href="#DejaVuSans-33" transform="translate(2849.105469 0)"/>
     <use xlink:href="#DejaVuSans-39" transform="translate(2912.728516 0)"/>
     <use xlink:href="#DejaVuSans-36" transform="translate(2976.351562 0)"/>
     <use xlink:href="#DejaVuSans-36" transform="translate(3039.974609 0)"/>
     <use xlink:href="#DejaVuSans-35" transform="translate(3103.597656 0)"/>
     <use xlink:href="#DejaVuSans-36" transform="translate(3167.220703 0)"/>
     <use xlink:href="#DejaVuSans-36" transform="translate(3230.84375 0)"/>
     <use xlink:href="#DejaVuSans-34" transform="translate(3294.466797 0)"/>
    </g>
   </g>
   <g id="legend_1">
    <g id="patch_77">
     <path d="M 55.74375 155.415312 
L 170.003125 155.415312 
Q 172.003125 155.415312 172.003125 153.415312 
L 172.003125 110.380938 
Q 172.003125 108.380938 170.003125 108.380938 
L 55.74375 108.380938 
Q 53.74375 108.380938 53.74375 110.380938 
L 53.74375 153.415312 
Q 53.74375 155.415312 55.74375 155.415312 
z
" style="fill: #ffffff; opacity: 0.8; stroke: #cccccc; stroke-linejoin: miter"/>
    </g>
    <g id="patch_78">
     <path d="M 57.74375 119.979375 
L 77.74375 119.979375 
L 77.74375 112.979375 
L 57.74375 112.979375 
z
" style="fill: #0000ff; stroke: #0000ff; stroke-linejoin: miter"/>
    </g>
    <g id="text_22">
     <!-- Orientation + -->
     <g transform="translate(85.74375 119.979375) scale(0.1 -0.1)">
      <defs>
       <path id="DejaVuSans-2b" d="M 2944 4013 
L 2944 2272 
L 4684 2272 
L 4684 1741 
L 2944 1741 
L 2944 0 
L 2419 0 
L 2419 1741 
L 678 1741 
L 678 2272 
L 2419 2272 
L 2419 4013 
L 2944 4013 
z
" transform="scale(0.015625)"/>
      </defs>
      <use xlink:href="#DejaVuSans-4f"/>
      <use xlink:href="#DejaVuSans-72" transform="translate(78.710938 0)"/>
      <use xlink:href="#DejaVuSans-69" transform="translate(119.824219 0)"/>
      <use xlink:href="#DejaVuSans-65" transform="translate(147.607422 0)"/>
      <use xlink:href="#DejaVuSans-6e" transform="translate(209.130859 0)"/>
      <use xlink:href="#DejaVuSans-74" transform="translate(272.509766 0)"/>
      <use xlink:href="#DejaVuSans-61" transform="translate(311.71875 0)"/>
      <use xlink:href="#DejaVuSans-74" transform="translate(372.998047 0)"/>
      <use xlink:href="#DejaVuSans-69" transform="translate(412.207031 0)"/>
      <use xlink:href="#DejaVuSans-6f" transform="translate(439.990234 0)"/>
      <use xlink:href="#DejaVuSans-6e" transform="translate(501.171875 0)"/>
      <use xlink:href="#DejaVuSans-20" transform="translate(564.550781 0)"/>
      <use xlink:href="#DejaVuSans-2b" transform="translate(596.337891 0)"/>
     </g>
    </g>
    <g id="patch_79">
     <path d="M 57.74375 134.6575 
L 77.74375 134.6575 
L 77.74375 127.6575 
L 57.74375 127.6575 
z
" style="fill: #ff0000; stroke: #ff0000; stroke-linejoin: miter"/>
    </g>
    <g id="text_23">
     <!-- Orientation - -->
     <g transform="translate(85.74375 134.6575) scale(0.1 -0.1)">
      <use xlink:href="#DejaVuSans-4f"/>
      <use xlink:href="#DejaVuSans-72" transform="translate(78.710938 0)"/>
      <use xlink:href="#DejaVuSans-69" transform="translate(119.824219 0)"/>
      <use xlink:href="#DejaVuSans-65" transform="translate(147.607422 0)"/>
      <use xlink:href="#DejaVuSans-6e" transform="translate(209.130859 0)"/>
      <use xlink:href="#DejaVuSans-74" transform="translate(272.509766 0)"/>
      <use xlink:href="#DejaVuSans-61" transform="translate(311.71875 0)"/>
      <use xlink:href="#DejaVuSans-74" transform="translate(372.998047 0)"/>
      <use xlink:href="#DejaVuSans-69" transform="translate(412.207031 0)"/>
      <use xlink:href="#DejaVuSans-6f" transform="translate(439.990234 0)"/>
      <use xlink:href="#DejaVuSans-6e" transform="translate(501.171875 0)"/>
      <use xlink:href="#DejaVuSans-20" transform="translate(564.550781 0)"/>
      <use xlink:href="#DejaVuSans-2d" transform="translate(596.337891 0)"/>
     </g>
    </g>
    <g id="patch_80">
     <path d="M 57.74375 149.335625 
L 77.74375 149.335625 
L 77.74375 142.335625 
L 57.74375 142.335625 
z
" style="fill: #d3d3d3; stroke: #d3d3d3; stroke-linejoin: miter"/>
    </g>
    <g id="text_24">
     <!-- Flanking regions -->
     <g transform="translate(85.74375 149.335625) scale(0.1 -0.1)">
      <defs>
       <path id="DejaVuSans-6b" d="M 581 4863 
L 1159 4863 
L 1159 1991 
L 2875 3500 
L 3609 3500 
L 1753 1863 
L 3688 0 
L 2938 0 
L 1159 1709 
L 1159 0 
L 581 0 
L 581 4863 
z
" transform="scale(0.015625)"/>
       <path id="DejaVuSans-67" d="M 2906 1791 
Q 2906 2416 2648 2759 
Q 2391 3103 1925 3103 
Q 1463 3103 1205 2759 
Q 947 2416 947 1791 
Q 947 1169 1205 825 
Q 1463 481 1925 481 
Q 2391 481 2648 825 
Q 2906 1169 2906 1791 
z
M 3481 434 
Q 3481 -459 3084 -895 
Q 2688 -1331 1869 -1331 
Q 1566 -1331 1297 -1286 
Q 1028 -1241 775 -1147 
L 775 -588 
Q 1028 -725 1275 -790 
Q 1522 -856 1778 -856 
Q 2344 -856 2625 -561 
Q 2906 -266 2906 331 
L 2906 616 
Q 2728 306 2450 153 
Q 2172 0 1784 0 
Q 1141 0 747 490 
Q 353 981 353 1791 
Q 353 2603 747 3093 
Q 1141 3584 1784 3584 
Q 2172 3584 2450 3431 
Q 2728 3278 2906 2969 
L 2906 3500 
L 3481 3500 
L 3481 434 
z
" transform="scale(0.015625)"/>
      </defs>
      <use xlink:href="#DejaVuSans-46"/>
      <use xlink:href="#DejaVuSans-6c" transform="translate(57.519531 0)"/>
      <use xlink:href="#DejaVuSans-61" transform="translate(85.302734 0)"/>
      <use xlink:href="#DejaVuSans-6e" transform="translate(146.582031 0)"/>
      <use xlink:href="#DejaVuSans-6b" transform="translate(209.960938 0)"/>
      <use xlink:href="#DejaVuSans-69" transform="translate(267.871094 0)"/>
      <use xlink:href="#DejaVuSans-6e" transform="translate(295.654297 0)"/>
      <use xlink:href="#DejaVuSans-67" transform="translate(359.033203 0)"/>
      <use xlink:href="#DejaVuSans-20" transform="translate(422.509766 0)"/>
      <use xlink:href="#DejaVuSans-72" transform="translate(454.296875 0)"/>
      <use xlink:href="#DejaVuSans-65" transform="translate(493.160156 0)"/>
      <use xlink:href="#DejaVuSans-67" transform="translate(554.683594 0)"/>
      <use xlink:href="#DejaVuSans-69" transform="translate(618.160156 0)"/>
      <use xlink:href="#DejaVuSans-6f" transform="translate(645.943359 0)"/>
      <use xlink:href="#DejaVuSans-6e" transform="translate(707.125 0)"/>
      <use xlink:href="#DejaVuSans-73" transform="translate(770.503906 0)"/>
     </g>
    </g>
   </g>
  </g>
 </g>
 <defs>
  <clipPath id="pf02db59d2f">
   <rect x="48.74375" y="22.318125" width="800.93" height="219.16"/>
  </clipPath>
 </defs>
</svg>
