<?xml version="1.0" encoding="utf-8" standalone="no"?>
<!DOCTYPE svg PUBLIC "-//W3C//DTD SVG 1.1//EN"
  "http://www.w3.org/Graphics/SVG/1.1/DTD/svg11.dtd">
<svg xmlns:xlink="http://www.w3.org/1999/xlink" width="432pt" height="360pt" viewBox="0 0 432 360" xmlns="http://www.w3.org/2000/svg" version="1.1">
 <metadata>
  <rdf:RDF xmlns:dc="http://purl.org/dc/elements/1.1/" xmlns:cc="http://creativecommons.org/ns#" xmlns:rdf="http://www.w3.org/1999/02/22-rdf-syntax-ns#">
   <cc:Work>
    <dc:type rdf:resource="http://purl.org/dc/dcmitype/StillImage"/>
    <dc:date>2026-01-30T08:38:34.760091</dc:date>
    <dc:format>image/svg+xml</dc:format>
    <dc:creator>
     <cc:Agent>
      <dc:title>Matplotlib v3.10.8, https://matplotlib.org/</dc:title>
     </cc:Agent>
    </dc:creator>
   </cc:Work>
  </rdf:RDF>
 </metadata>
 <defs>
  <style type="text/css">*{stroke-linejoin: round; stroke-linecap: butt}</style>
 </defs>
 <g id="figure_1">
  <g id="patch_1">
   <path d="M 0 360 
L 432 360 
L 432 0 
L 0 0 
z
" style="fill: #ffffff"/>
  </g>
  <g id="axes_1">
   <g id="patch_2">
    <path d="M 44.76125 318.04 
L 421.2 318.04 
L 421.2 10.8 
L 44.76125 10.8 
z
" style="fill: #ffffff"/>
   </g>
   <g id="matplotlib.axis_1">
    <g id="xtick_1">
     <g id="line2d_1">
      <defs>
       <path id="m73ed297e95" d="M 0 0 
L 0 3.5 
" style="stroke: #000000; stroke-width: 0.8"/>
      </defs>
      <g>
       <use xlink:href="#m73ed297e95" x="61.872102" y="318.04" style="stroke: #000000; stroke-width: 0.8"/>
      </g>
     </g>
     <g id="text_1">
      <!-- 0 -->
      <g transform="translate(58.690852 332.638438) scale(0.1 -0.1)">
       <defs>
        <path id="DejaVuSans-30" d="M 2034 4250 
Q 1547 4250 1301 3770 
Q 1056 3291 1056 2328 
Q 1056 1369 1301 889 
Q 1547 409 2034 409 
Q 2525 409 2770 889 
Q 3016 1369 3016 2328 
Q 3016 3291 2770 3770 
Q 2525 4250 2034 4250 
z
M 2034 4750 
Q 2819 4750 3233 4129 
Q 3647 3509 3647 2328 
Q 3647 1150 3233 529 
Q 2819 -91 2034 -91 
Q 1250 -91 836 529 
Q 422 1150 422 2328 
Q 422 3509 836 4129 
Q 1250 4750 2034 4750 
z
" transform="scale(0.015625)"/>
       </defs>
       <use xlink:href="#DejaVuSans-30"/>
      </g>
     </g>
    </g>
    <g id="xtick_2">
     <g id="line2d_2">
      <g>
       <use xlink:href="#m73ed297e95" x="96.093807" y="318.04" style="stroke: #000000; stroke-width: 0.8"/>
      </g>
     </g>
     <g id="text_2">
      <!-- 1 -->
      <g transform="translate(92.912557 332.638438) scale(0.1 -0.1)">
       <defs>
        <path id="DejaVuSans-31" d="M 794 531 
L 1825 531 
L 1825 4091 
L 703 3866 
L 703 4441 
L 1819 4666 
L 2450 4666 
L 2450 531 
L 3481 531 
L 3481 0 
L 794 0 
L 794 531 
z
" transform="scale(0.015625)"/>
       </defs>
       <use xlink:href="#DejaVuSans-31"/>
      </g>
     </g>
    </g>
    <g id="xtick_3">
     <g id="line2d_3">
      <g>
       <use xlink:href="#m73ed297e95" x="130.315511" y="318.04" style="stroke: #000000; stroke-width: 0.8"/>
      </g>
     </g>
     <g id="text_3">
      <!-- 2 -->
      <g transform="translate(127.134261 332.638438) scale(0.1 -0.1)">
       <defs>
        <path id="DejaVuSans-32" d="M 1228 531 
L 3431 531 
L 3431 0 
L 469 0 
L 469 531 
Q 828 903 1448 1529 
Q 2069 2156 2228 2338 
Q 2531 2678 2651 2914 
Q 2772 3150 2772 3378 
Q 2772 3750 2511 3984 
Q 2250 4219 1831 4219 
Q 1534 4219 1204 4116 
Q 875 4013 500 3803 
L 500 4441 
Q 881 4594 1212 4672 
Q 1544 4750 1819 4750 
Q 2544 4750 2975 4387 
Q 3406 4025 3406 3419 
Q 3406 3131 3298 2873 
Q 3191 2616 2906 2266 
Q 2828 2175 2409 1742 
Q 1991 1309 1228 531 
z
" transform="scale(0.015625)"/>
       </defs>
       <use xlink:href="#DejaVuSans-32"/>
      </g>
     </g>
    </g>
    <g id="xtick_4">
     <g id="line2d_4">
      <g>
       <use xlink:href="#m73ed297e95" x="164.537216" y="318.04" style="stroke: #000000; stroke-width: 0.8"/>
      </g>
     </g>
     <g id="text_4">
      <!-- 3 -->
      <g transform="translate(161.355966 332.638438) scale(0.1 -0.1)">
       <defs>
        <path id="DejaVuSans-33" d="M 2597 2516 
Q 3050 2419 3304 2112 
Q 3559 1806 3559 1356 
Q 3559 666 3084 287 
Q 2609 -91 1734 -91 
Q 1441 -91 1130 -33 
Q 819 25 488 141 
L 488 750 
Q 750 597 1062 519 
Q 1375 441 1716 441 
Q 2309 441 2620 675 
Q 2931 909 2931 1356 
Q 2931 1769 2642 2001 
Q 2353 2234 1838 2234 
L 1294 2234 
L 1294 2753 
L 1863 2753 
Q 2328 2753 2575 2939 
Q 2822 3125 2822 3475 
Q 2822 3834 2567 4026 
Q 2313 4219 1838 4219 
Q 1578 4219 1281 4162 
Q 984 4106 628 3988 
L 628 4550 
Q 988 4650 1302 4700 
Q 1616 4750 1894 4750 
Q 2613 4750 3031 4423 
Q 3450 4097 3450 3541 
Q 3450 3153 3228 2886 
Q 3006 2619 2597 2516 
z
" transform="scale(0.015625)"/>
       </defs>
       <use xlink:href="#DejaVuSans-33"/>
      </g>
     </g>
    </g>
    <g id="xtick_5">
     <g id="line2d_5">
      <g>
       <use xlink:href="#m73ed297e95" x="198.75892" y="318.04" style="stroke: #000000; stroke-width: 0.8"/>
      </g>
     </g>
     <g id="text_5">
      <!-- 4 -->
      <g transform="translate(195.57767 332.638438) scale(0.1 -0.1)">
       <defs>
        <path id="DejaVuSans-34" d="M 2419 4116 
L 825 1625 
L 2419 1625 
L 2419 4116 
z
M 2253 4666 
L 3047 4666 
L 3047 1625 
L 3713 1625 
L 3713 1100 
L 3047 1100 
L 3047 0 
L 2419 0 
L 2419 1100 
L 313 1100 
L 313 1709 
L 2253 4666 
z
" transform="scale(0.015625)"/>
       </defs>
       <use xlink:href="#DejaVuSans-34"/>
      </g>
     </g>
    </g>
    <g id="xtick_6">
     <g id="line2d_6">
      <g>
       <use xlink:href="#m73ed297e95" x="232.980625" y="318.04" style="stroke: #000000; stroke-width: 0.8"/>
      </g>
     </g>
     <g id="text_6">
      <!-- 5 -->
      <g transform="translate(229.799375 332.638438) scale(0.1 -0.1)">
       <defs>
        <path id="DejaVuSans-35" d="M 691 4666 
L 3169 4666 
L 3169 4134 
L 1269 4134 
L 1269 2991 
Q 1406 3038 1543 3061 
Q 1681 3084 1819 3084 
Q 2600 3084 3056 2656 
Q 3513 2228 3513 1497 
Q 3513 744 3044 326 
Q 2575 -91 1722 -91 
Q 1428 -91 1123 -41 
Q 819 9 494 109 
L 494 744 
Q 775 591 1075 516 
Q 1375 441 1709 441 
Q 2250 441 2565 725 
Q 2881 1009 2881 1497 
Q 2881 1984 2565 2268 
Q 2250 2553 1709 2553 
Q 1456 2553 1204 2497 
Q 953 2441 691 2322 
L 691 4666 
z
" transform="scale(0.015625)"/>
       </defs>
       <use xlink:href="#DejaVuSans-35"/>
      </g>
     </g>
    </g>
    <g id="xtick_7">
     <g id="line2d_7">
      <g>
       <use xlink:href="#m73ed297e95" x="267.20233" y="318.04" style="stroke: #000000; stroke-width: 0.8"/>
      </g>
     </g>
     <g id="text_7">
      <!-- 6 -->
      <g transform="translate(264.02108 332.638438) scale(0.1 -0.1)">
       <defs>
        <path id="DejaVuSans-36" d="M 2113 2584 
Q 1688 2584 1439 2293 
Q 1191 2003 1191 1497 
Q 1191 994 1439 701 
Q 1688 409 2113 409 
Q 2538 409 2786 701 
Q 3034 994 3034 1497 
Q 3034 2003 2786 2293 
Q 2538 2584 2113 2584 
z
M 3366 4563 
L 3366 3988 
Q 3128 4100 2886 4159 
Q 2644 4219 2406 4219 
Q 1781 4219 1451 3797 
Q 1122 3375 1075 2522 
Q 1259 2794 1537 2939 
Q 1816 3084 2150 3084 
Q 2853 3084 3261 2657 
Q 3669 2231 3669 1497 
Q 3669 778 3244 343 
Q 2819 -91 2113 -91 
Q 1303 -91 875 529 
Q 447 1150 447 2328 
Q 447 3434 972 4092 
Q 1497 4750 2381 4750 
Q 2619 4750 2861 4703 
Q 3103 4656 3366 4563 
z
" transform="scale(0.015625)"/>
       </defs>
       <use xlink:href="#DejaVuSans-36"/>
      </g>
     </g>
    </g>
    <g id="xtick_8">
     <g id="line2d_8">
      <g>
       <use xlink:href="#m73ed297e95" x="301.424034" y="318.04" style="stroke: #000000; stroke-width: 0.8"/>
      </g>
     </g>
     <g id="text_8">
      <!-- 7 -->
      <g transform="translate(298.242784 332.638438) scale(0.1 -0.1)">
       <defs>
        <path id="DejaVuSans-37" d="M 525 4666 
L 3525 4666 
L 3525 4397 
L 1831 0 
L 1172 0 
L 2766 4134 
L 525 4134 
L 525 4666 
z
" transform="scale(0.015625)"/>
       </defs>
       <use xlink:href="#DejaVuSans-37"/>
      </g>
     </g>
    </g>
    <g id="xtick_9">
     <g id="line2d_9">
      <g>
       <use xlink:href="#m73ed297e95" x="335.645739" y="318.04" style="stroke: #000000; stroke-width: 0.8"/>
      </g>
     </g>
     <g id="text_9">
      <!-- 8 -->
      <g transform="translate(332.464489 332.638438) scale(0.1 -0.1)">
       <defs>
        <path id="DejaVuSans-38" d="M 2034 2216 
Q 1584 2216 1326 1975 
Q 1069 1734 1069 1313 
Q 1069 891 1326 650 
Q 1584 409 2034 409 
Q 2484 409 2743 651 
Q 3003 894 3003 1313 
Q 3003 1734 2745 1975 
Q 2488 2216 2034 2216 
z
M 1403 2484 
Q 997 2584 770 2862 
Q 544 3141 544 3541 
Q 544 4100 942 4425 
Q 1341 4750 2034 4750 
Q 2731 4750 3128 4425 
Q 3525 4100 3525 3541 
Q 3525 3141 3298 2862 
Q 3072 2584 2669 2484 
Q 3125 2378 3379 2068 
Q 3634 1759 3634 1313 
Q 3634 634 3220 271 
Q 2806 -91 2034 -91 
Q 1263 -91 848 271 
Q 434 634 434 1313 
Q 434 1759 690 2068 
Q 947 2378 1403 2484 
z
M 1172 3481 
Q 1172 3119 1398 2916 
Q 1625 2713 2034 2713 
Q 2441 2713 2670 2916 
Q 2900 3119 2900 3481 
Q 2900 3844 2670 4047 
Q 2441 4250 2034 4250 
Q 1625 4250 1398 4047 
Q 1172 3844 1172 3481 
z
" transform="scale(0.015625)"/>
       </defs>
       <use xlink:href="#DejaVuSans-38"/>
      </g>
     </g>
    </g>
    <g id="xtick_10">
     <g id="line2d_10">
      <g>
       <use xlink:href="#m73ed297e95" x="369.867443" y="318.04" style="stroke: #000000; stroke-width: 0.8"/>
      </g>
     </g>
     <g id="text_10">
      <!-- 9 -->
      <g transform="translate(366.686193 332.638438) scale(0.1 -0.1)">
       <defs>
        <path id="DejaVuSans-39" d="M 703 97 
L 703 672 
Q 941 559 1184 500 
Q 1428 441 1663 441 
Q 2288 441 2617 861 
Q 2947 1281 2994 2138 
Q 2813 1869 2534 1725 
Q 2256 1581 1919 1581 
Q 1219 1581 811 2004 
Q 403 2428 403 3163 
Q 403 3881 828 4315 
Q 1253 4750 1959 4750 
Q 2769 4750 3195 4129 
Q 3622 3509 3622 2328 
Q 3622 1225 3098 567 
Q 2575 -91 1691 -91 
Q 1453 -91 1209 -44 
Q 966 3 703 97 
z
M 1959 2075 
Q 2384 2075 2632 2365 
Q 2881 2656 2881 3163 
Q 2881 3666 2632 3958 
Q 2384 4250 1959 4250 
Q 1534 4250 1286 3958 
Q 1038 3666 1038 3163 
Q 1038 2656 1286 2365 
Q 1534 2075 1959 2075 
z
" transform="scale(0.015625)"/>
       </defs>
       <use xlink:href="#DejaVuSans-39"/>
      </g>
     </g>
    </g>
    <g id="xtick_11">
     <g id="line2d_11">
      <g>
       <use xlink:href="#m73ed297e95" x="404.089148" y="318.04" style="stroke: #000000; stroke-width: 0.8"/>
      </g>
     </g>
     <g id="text_11">
      <!-- 10 -->
      <g transform="translate(397.726648 332.638438) scale(0.1 -0.1)">
       <use xlink:href="#DejaVuSans-31"/>
       <use xlink:href="#DejaVuSans-30" transform="translate(63.623047 0)"/>
      </g>
     </g>
    </g>
    <g id="text_12">
     <!-- Number of successful runs -->
     <g transform="translate(166.434531 346.316563) scale(0.1 -0.1)">
      <defs>
       <path id="DejaVuSans-4e" d="M 628 4666 
L 1478 4666 
L 3547 763 
L 3547 4666 
L 4159 4666 
L 4159 0 
L 3309 0 
L 1241 3903 
L 1241 0 
L 628 0 
L 628 4666 
z
" transform="scale(0.015625)"/>
       <path id="DejaVuSans-75" d="M 544 1381 
L 544 3500 
L 1119 3500 
L 1119 1403 
Q 1119 906 1312 657 
Q 1506 409 1894 409 
Q 2359 409 2629 706 
Q 2900 1003 2900 1516 
L 2900 3500 
L 3475 3500 
L 3475 0 
L 2900 0 
L 2900 538 
Q 2691 219 2414 64 
Q 2138 -91 1772 -91 
Q 1169 -91 856 284 
Q 544 659 544 1381 
z
M 1991 3584 
L 1991 3584 
z
" transform="scale(0.015625)"/>
       <path id="DejaVuSans-6d" d="M 3328 2828 
Q 3544 3216 3844 3400 
Q 4144 3584 4550 3584 
Q 5097 3584 5394 3201 
Q 5691 2819 5691 2113 
L 5691 0 
L 5113 0 
L 5113 2094 
Q 5113 2597 4934 2840 
Q 4756 3084 4391 3084 
Q 3944 3084 3684 2787 
Q 3425 2491 3425 1978 
L 3425 0 
L 2847 0 
L 2847 2094 
Q 2847 2600 2669 2842 
Q 2491 3084 2119 3084 
Q 1678 3084 1418 2786 
Q 1159 2488 1159 1978 
L 1159 0 
L 581 0 
L 581 3500 
L 1159 3500 
L 1159 2956 
Q 1356 3278 1631 3431 
Q 1906 3584 2284 3584 
Q 2666 3584 2933 3390 
Q 3200 3197 3328 2828 
z
" transform="scale(0.015625)"/>
       <path id="DejaVuSans-62" d="M 3116 1747 
Q 3116 2381 2855 2742 
Q 2594 3103 2138 3103 
Q 1681 3103 1420 2742 
Q 1159 2381 1159 1747 
Q 1159 1113 1420 752 
Q 1681 391 2138 391 
Q 2594 391 2855 752 
Q 3116 1113 3116 1747 
z
M 1159 2969 
Q 1341 3281 1617 3432 
Q 1894 3584 2278 3584 
Q 2916 3584 3314 3078 
Q 3713 2572 3713 1747 
Q 3713 922 3314 415 
Q 2916 -91 2278 -91 
Q 1894 -91 1617 61 
Q 1341 213 1159 525 
L 1159 0 
L 581 0 
L 581 4863 
L 1159 4863 
L 1159 2969 
z
" transform="scale(0.015625)"/>
       <path id="DejaVuSans-65" d="M 3597 1894 
L 3597 1613 
L 953 1613 
Q 991 1019 1311 708 
Q 1631 397 2203 397 
Q 2534 397 2845 478 
Q 3156 559 3463 722 
L 3463 178 
Q 3153 47 2828 -22 
Q 2503 -91 2169 -91 
Q 1331 -91 842 396 
Q 353 884 353 1716 
Q 353 2575 817 3079 
Q 1281 3584 2069 3584 
Q 2775 3584 3186 3129 
Q 3597 2675 3597 1894 
z
M 3022 2063 
Q 3016 2534 2758 2815 
Q 2500 3097 2075 3097 
Q 1594 3097 1305 2825 
Q 1016 2553 972 2059 
L 3022 2063 
z
" transform="scale(0.015625)"/>
       <path id="DejaVuSans-72" d="M 2631 2963 
Q 2534 3019 2420 3045 
Q 2306 3072 2169 3072 
Q 1681 3072 1420 2755 
Q 1159 2438 1159 1844 
L 1159 0 
L 581 0 
L 581 3500 
L 1159 3500 
L 1159 2956 
Q 1341 3275 1631 3429 
Q 1922 3584 2338 3584 
Q 2397 3584 2469 3576 
Q 2541 3569 2628 3553 
L 2631 2963 
z
" transform="scale(0.015625)"/>
       <path id="DejaVuSans-20" transform="scale(0.015625)"/>
       <path id="DejaVuSans-6f" d="M 1959 3097 
Q 1497 3097 1228 2736 
Q 959 2375 959 1747 
Q 959 1119 1226 758 
Q 1494 397 1959 397 
Q 2419 397 2687 759 
Q 2956 1122 2956 1747 
Q 2956 2369 2687 2733 
Q 2419 3097 1959 3097 
z
M 1959 3584 
Q 2709 3584 3137 3096 
Q 3566 2609 3566 1747 
Q 3566 888 3137 398 
Q 2709 -91 1959 -91 
Q 1206 -91 779 398 
Q 353 888 353 1747 
Q 353 2609 779 3096 
Q 1206 3584 1959 3584 
z
" transform="scale(0.015625)"/>
       <path id="DejaVuSans-66" d="M 2375 4863 
L 2375 4384 
L 1825 4384 
Q 1516 4384 1395 4259 
Q 1275 4134 1275 3809 
L 1275 3500 
L 2222 3500 
L 2222 3053 
L 1275 3053 
L 1275 0 
L 697 0 
L 697 3053 
L 147 3053 
L 147 3500 
L 697 3500 
L 697 3744 
Q 697 4328 969 4595 
Q 1241 4863 1831 4863 
L 2375 4863 
z
" transform="scale(0.015625)"/>
       <path id="DejaVuSans-73" d="M 2834 3397 
L 2834 2853 
Q 2591 2978 2328 3040 
Q 2066 3103 1784 3103 
Q 1356 3103 1142 2972 
Q 928 2841 928 2578 
Q 928 2378 1081 2264 
Q 1234 2150 1697 2047 
L 1894 2003 
Q 2506 1872 2764 1633 
Q 3022 1394 3022 966 
Q 3022 478 2636 193 
Q 2250 -91 1575 -91 
Q 1294 -91 989 -36 
Q 684 19 347 128 
L 347 722 
Q 666 556 975 473 
Q 1284 391 1588 391 
Q 1994 391 2212 530 
Q 2431 669 2431 922 
Q 2431 1156 2273 1281 
Q 2116 1406 1581 1522 
L 1381 1569 
Q 847 1681 609 1914 
Q 372 2147 372 2553 
Q 372 3047 722 3315 
Q 1072 3584 1716 3584 
Q 2034 3584 2315 3537 
Q 2597 3491 2834 3397 
z
" transform="scale(0.015625)"/>
       <path id="DejaVuSans-63" d="M 3122 3366 
L 3122 2828 
Q 2878 2963 2633 3030 
Q 2388 3097 2138 3097 
Q 1578 3097 1268 2742 
Q 959 2388 959 1747 
Q 959 1106 1268 751 
Q 1578 397 2138 397 
Q 2388 397 2633 464 
Q 2878 531 3122 666 
L 3122 134 
Q 2881 22 2623 -34 
Q 2366 -91 2075 -91 
Q 1284 -91 818 406 
Q 353 903 353 1747 
Q 353 2603 823 3093 
Q 1294 3584 2113 3584 
Q 2378 3584 2631 3529 
Q 2884 3475 3122 3366 
z
" transform="scale(0.015625)"/>
       <path id="DejaVuSans-6c" d="M 603 4863 
L 1178 4863 
L 1178 0 
L 603 0 
L 603 4863 
z
" transform="scale(0.015625)"/>
       <path id="DejaVuSans-6e" d="M 3513 2113 
L 3513 0 
L 2938 0 
L 2938 2094 
Q 2938 2591 2744 2837 
Q 2550 3084 2163 3084 
Q 1697 3084 1428 2787 
Q 1159 2491 1159 1978 
L 1159 0 
L 581 0 
L 581 3500 
L 1159 3500 
L 1159 2956 
Q 1366 3272 1645 3428 
Q 1925 3584 2291 3584 
Q 2894 3584 3203 3211 
Q 3513 2838 3513 2113 
z
" transform="scale(0.015625)"/>
      </defs>
      <use xlink:href="#DejaVuSans-4e"/>
      <use xlink:href="#DejaVuSans-75" transform="translate(74.804688 0)"/>
      <use xlink:href="#DejaVuSans-6d" transform="translate(138.183594 0)"/>
      <use xlink:href="#DejaVuSans-62" transform="translate(235.595703 0)"/>
      <use xlink:href="#DejaVuSans-65" transform="translate(299.072266 0)"/>
      <use xlink:href="#DejaVuSans-72" transform="translate(360.595703 0)"/>
      <use xlink:href="#DejaVuSans-20" transform="translate(401.708984 0)"/>
      <use xlink:href="#DejaVuSans-6f" transform="translate(433.496094 0)"/>
      <use xlink:href="#DejaVuSans-66" transform="translate(494.677734 0)"/>
      <use xlink:href="#DejaVuSans-20" transform="translate(529.882812 0)"/>
      <use xlink:href="#DejaVuSans-73" transform="translate(561.669922 0)"/>
      <use xlink:href="#DejaVuSans-75" transform="translate(613.769531 0)"/>
      <use xlink:href="#DejaVuSans-63" transform="translate(677.148438 0)"/>
      <use xlink:href="#DejaVuSans-63" transform="translate(732.128906 0)"/>
      <use xlink:href="#DejaVuSans-65" transform="translate(787.109375 0)"/>
      <use xlink:href="#DejaVuSans-73" transform="translate(848.632812 0)"/>
      <use xlink:href="#DejaVuSans-73" transform="translate(900.732422 0)"/>
      <use xlink:href="#DejaVuSans-66" transform="translate(952.832031 0)"/>
      <use xlink:href="#DejaVuSans-75" transform="translate(988.037109 0)"/>
      <use xlink:href="#DejaVuSans-6c" transform="translate(1051.416016 0)"/>
      <use xlink:href="#DejaVuSans-20" transform="translate(1079.199219 0)"/>
      <use xlink:href="#DejaVuSans-72" transform="translate(1110.986328 0)"/>
      <use xlink:href="#DejaVuSans-75" transform="translate(1152.099609 0)"/>
      <use xlink:href="#DejaVuSans-6e" transform="translate(1215.478516 0)"/>
      <use xlink:href="#DejaVuSans-73" transform="translate(1278.857422 0)"/>
     </g>
    </g>
   </g>
   <g id="matplotlib.axis_2">
    <g id="ytick_1">
     <g id="line2d_12">
      <defs>
       <path id="me8d335c4f4" d="M 0 0 
L -3.5 0 
" style="stroke: #000000; stroke-width: 0.8"/>
      </defs>
      <g>
       <use xlink:href="#me8d335c4f4" x="44.76125" y="304.074545" style="stroke: #000000; stroke-width: 0.8"/>
      </g>
     </g>
     <g id="text_13">
      <!-- 0 -->
      <g transform="translate(31.39875 307.873764) scale(0.1 -0.1)">
       <use xlink:href="#DejaVuSans-30"/>
      </g>
     </g>
    </g>
    <g id="ytick_2">
     <g id="line2d_13">
      <g>
       <use xlink:href="#me8d335c4f4" x="44.76125" y="269.443544" style="stroke: #000000; stroke-width: 0.8"/>
      </g>
     </g>
     <g id="text_14">
      <!-- 10 -->
      <g transform="translate(25.03625 273.242762) scale(0.1 -0.1)">
       <use xlink:href="#DejaVuSans-31"/>
       <use xlink:href="#DejaVuSans-30" transform="translate(63.623047 0)"/>
      </g>
     </g>
    </g>
    <g id="ytick_3">
     <g id="line2d_14">
      <g>
       <use xlink:href="#me8d335c4f4" x="44.76125" y="234.812542" style="stroke: #000000; stroke-width: 0.8"/>
      </g>
     </g>
     <g id="text_15">
      <!-- 20 -->
      <g transform="translate(25.03625 238.611761) scale(0.1 -0.1)">
       <use xlink:href="#DejaVuSans-32"/>
       <use xlink:href="#DejaVuSans-30" transform="translate(63.623047 0)"/>
      </g>
     </g>
    </g>
    <g id="ytick_4">
     <g id="line2d_15">
      <g>
       <use xlink:href="#me8d335c4f4" x="44.76125" y="200.18154" style="stroke: #000000; stroke-width: 0.8"/>
      </g>
     </g>
     <g id="text_16">
      <!-- 30 -->
      <g transform="translate(25.03625 203.980759) scale(0.1 -0.1)">
       <use xlink:href="#DejaVuSans-33"/>
       <use xlink:href="#DejaVuSans-30" transform="translate(63.623047 0)"/>
      </g>
     </g>
    </g>
    <g id="ytick_5">
     <g id="line2d_16">
      <g>
       <use xlink:href="#me8d335c4f4" x="44.76125" y="165.550538" style="stroke: #000000; stroke-width: 0.8"/>
      </g>
     </g>
     <g id="text_17">
      <!-- 40 -->
      <g transform="translate(25.03625 169.349757) scale(0.1 -0.1)">
       <use xlink:href="#DejaVuSans-34"/>
       <use xlink:href="#DejaVuSans-30" transform="translate(63.623047 0)"/>
      </g>
     </g>
    </g>
    <g id="ytick_6">
     <g id="line2d_17">
      <g>
       <use xlink:href="#me8d335c4f4" x="44.76125" y="130.919537" style="stroke: #000000; stroke-width: 0.8"/>
      </g>
     </g>
     <g id="text_18">
      <!-- 50 -->
      <g transform="translate(25.03625 134.718755) scale(0.1 -0.1)">
       <use xlink:href="#DejaVuSans-35"/>
       <use xlink:href="#DejaVuSans-30" transform="translate(63.623047 0)"/>
      </g>
     </g>
    </g>
    <g id="ytick_7">
     <g id="line2d_18">
      <g>
       <use xlink:href="#me8d335c4f4" x="44.76125" y="96.288535" style="stroke: #000000; stroke-width: 0.8"/>
      </g>
     </g>
     <g id="text_19">
      <!-- 60 -->
      <g transform="translate(25.03625 100.087754) scale(0.1 -0.1)">
       <use xlink:href="#DejaVuSans-36"/>
       <use xlink:href="#DejaVuSans-30" transform="translate(63.623047 0)"/>
      </g>
     </g>
    </g>
    <g id="ytick_8">
     <g id="line2d_19">
      <g>
       <use xlink:href="#me8d335c4f4" x="44.76125" y="61.657533" style="stroke: #000000; stroke-width: 0.8"/>
      </g>
     </g>
     <g id="text_20">
      <!-- 70 -->
      <g transform="translate(25.03625 65.456752) scale(0.1 -0.1)">
       <use xlink:href="#DejaVuSans-37"/>
       <use xlink:href="#DejaVuSans-30" transform="translate(63.623047 0)"/>
      </g>
     </g>
    </g>
    <g id="ytick_9">
     <g id="line2d_20">
      <g>
       <use xlink:href="#me8d335c4f4" x="44.76125" y="27.026531" style="stroke: #000000; stroke-width: 0.8"/>
      </g>
     </g>
     <g id="text_21">
      <!-- 80 -->
      <g transform="translate(25.03625 30.82575) scale(0.1 -0.1)">
       <use xlink:href="#DejaVuSans-38"/>
       <use xlink:href="#DejaVuSans-30" transform="translate(63.623047 0)"/>
      </g>
     </g>
    </g>
    <g id="text_22">
     <!-- sum_positive_scores -->
     <g transform="translate(18.678438 215.71375) rotate(-90) scale(0.1 -0.1)">
      <defs>
       <path id="DejaVuSans-5f" d="M 3263 -1063 
L 3263 -1509 
L -63 -1509 
L -63 -1063 
L 3263 -1063 
z
" transform="scale(0.015625)"/>
       <path id="DejaVuSans-70" d="M 1159 525 
L 1159 -1331 
L 581 -1331 
L 581 3500 
L 1159 3500 
L 1159 2969 
Q 1341 3281 1617 3432 
Q 1894 3584 2278 3584 
Q 2916 3584 3314 3078 
Q 3713 2572 3713 1747 
Q 3713 922 3314 415 
Q 2916 -91 2278 -91 
Q 1894 -91 1617 61 
Q 1341 213 1159 525 
z
M 3116 1747 
Q 3116 2381 2855 2742 
Q 2594 3103 2138 3103 
Q 1681 3103 1420 2742 
Q 1159 2381 1159 1747 
Q 1159 1113 1420 752 
Q 1681 391 2138 391 
Q 2594 391 2855 752 
Q 3116 1113 3116 1747 
z
" transform="scale(0.015625)"/>
       <path id="DejaVuSans-69" d="M 603 3500 
L 1178 3500 
L 1178 0 
L 603 0 
L 603 3500 
z
M 603 4863 
L 1178 4863 
L 1178 4134 
L 603 4134 
L 603 4863 
z
" transform="scale(0.015625)"/>
       <path id="DejaVuSans-74" d="M 1172 4494 
L 1172 3500 
L 2356 3500 
L 2356 3053 
L 1172 3053 
L 1172 1153 
Q 1172 725 1289 603 
Q 1406 481 1766 481 
L 2356 481 
L 2356 0 
L 1766 0 
Q 1100 0 847 248 
Q 594 497 594 1153 
L 594 3053 
L 172 3053 
L 172 3500 
L 594 3500 
L 594 4494 
L 1172 4494 
z
" transform="scale(0.015625)"/>
       <path id="DejaVuSans-76" d="M 191 3500 
L 800 3500 
L 1894 563 
L 2988 3500 
L 3597 3500 
L 2284 0 
L 1503 0 
L 191 3500 
z
" transform="scale(0.015625)"/>
      </defs>
      <use xlink:href="#DejaVuSans-73"/>
      <use xlink:href="#DejaVuSans-75" transform="translate(52.099609 0)"/>
      <use xlink:href="#DejaVuSans-6d" transform="translate(115.478516 0)"/>
      <use xlink:href="#DejaVuSans-5f" transform="translate(212.890625 0)"/>
      <use xlink:href="#DejaVuSans-70" transform="translate(262.890625 0)"/>
      <use xlink:href="#DejaVuSans-6f" transform="translate(326.367188 0)"/>
      <use xlink:href="#DejaVuSans-73" transform="translate(387.548828 0)"/>
      <use xlink:href="#DejaVuSans-69" transform="translate(439.648438 0)"/>
      <use xlink:href="#DejaVuSans-74" transform="translate(467.431641 0)"/>
      <use xlink:href="#DejaVuSans-69" transform="translate(506.640625 0)"/>
      <use xlink:href="#DejaVuSans-76" transform="translate(534.423828 0)"/>
      <use xlink:href="#DejaVuSans-65" transform="translate(593.603516 0)"/>
      <use xlink:href="#DejaVuSans-5f" transform="translate(655.126953 0)"/>
      <use xlink:href="#DejaVuSans-73" transform="translate(705.126953 0)"/>
      <use xlink:href="#DejaVuSans-63" transform="translate(757.226562 0)"/>
      <use xlink:href="#DejaVuSans-6f" transform="translate(812.207031 0)"/>
      <use xlink:href="#DejaVuSans-72" transform="translate(873.388672 0)"/>
      <use xlink:href="#DejaVuSans-65" transform="translate(912.251953 0)"/>
      <use xlink:href="#DejaVuSans-73" transform="translate(973.775391 0)"/>
     </g>
    </g>
   </g>
   <g id="patch_3">
    <path d="M 48.18342 290.498368 
L 75.560784 290.498368 
L 75.560784 257.527483 
L 48.18342 257.527483 
L 48.18342 290.498368 
z
" clip-path="url(#p1d3b3ba121)" style="fill: #3274a1; stroke: #3f3f3f; stroke-linejoin: miter"/>
   </g>
   <g id="line2d_21">
    <path d="M 61.872102 290.498368 
L 61.872102 300.432229 
" clip-path="url(#p1d3b3ba121)" style="fill: none; stroke: #3f3f3f"/>
   </g>
   <g id="line2d_22">
    <path d="M 61.872102 257.527483 
L 61.872102 237.121514 
" clip-path="url(#p1d3b3ba121)" style="fill: none; stroke: #3f3f3f"/>
   </g>
   <g id="line2d_23">
    <path d="M 55.027761 300.432229 
L 68.716443 300.432229 
" clip-path="url(#p1d3b3ba121)" style="fill: none; stroke: #3f3f3f; stroke-linecap: square"/>
   </g>
   <g id="line2d_24">
    <path d="M 55.027761 237.121514 
L 68.716443 237.121514 
" clip-path="url(#p1d3b3ba121)" style="fill: none; stroke: #3f3f3f; stroke-linecap: square"/>
   </g>
   <g id="line2d_25"/>
   <g id="patch_4">
    <path d="M 82.405125 271.715139 
L 109.782489 271.715139 
L 109.782489 236.549501 
L 82.405125 236.549501 
L 82.405125 271.715139 
z
" clip-path="url(#p1d3b3ba121)" style="fill: #3274a1; stroke: #3f3f3f; stroke-linejoin: miter"/>
   </g>
   <g id="line2d_26">
    <path d="M 96.093807 271.715139 
L 96.093807 289.297958 
" clip-path="url(#p1d3b3ba121)" style="fill: none; stroke: #3f3f3f"/>
   </g>
   <g id="line2d_27">
    <path d="M 96.093807 236.549501 
L 96.093807 218.966682 
" clip-path="url(#p1d3b3ba121)" style="fill: none; stroke: #3f3f3f"/>
   </g>
   <g id="line2d_28">
    <path d="M 89.249466 289.297958 
L 102.938148 289.297958 
" clip-path="url(#p1d3b3ba121)" style="fill: none; stroke: #3f3f3f; stroke-linecap: square"/>
   </g>
   <g id="line2d_29">
    <path d="M 89.249466 218.966682 
L 102.938148 218.966682 
" clip-path="url(#p1d3b3ba121)" style="fill: none; stroke: #3f3f3f; stroke-linecap: square"/>
   </g>
   <g id="line2d_30"/>
   <g id="patch_5">
    <path d="M 116.62683 256.419792 
L 144.004193 256.419792 
L 144.004193 219.209258 
L 116.62683 219.209258 
L 116.62683 256.419792 
z
" clip-path="url(#p1d3b3ba121)" style="fill: #3274a1; stroke: #3f3f3f; stroke-linejoin: miter"/>
   </g>
   <g id="line2d_31">
    <path d="M 130.315511 256.419792 
L 130.315511 278.742572 
" clip-path="url(#p1d3b3ba121)" style="fill: none; stroke: #3f3f3f"/>
   </g>
   <g id="line2d_32">
    <path d="M 130.315511 219.209258 
L 130.315511 204.321502 
" clip-path="url(#p1d3b3ba121)" style="fill: none; stroke: #3f3f3f"/>
   </g>
   <g id="line2d_33">
    <path d="M 123.47117 278.742572 
L 137.159852 278.742572 
" clip-path="url(#p1d3b3ba121)" style="fill: none; stroke: #3f3f3f; stroke-linecap: square"/>
   </g>
   <g id="line2d_34">
    <path d="M 123.47117 204.321502 
L 137.159852 204.321502 
" clip-path="url(#p1d3b3ba121)" style="fill: none; stroke: #3f3f3f; stroke-linecap: square"/>
   </g>
   <g id="line2d_35"/>
   <g id="patch_6">
    <path d="M 150.848534 293.237109 
L 178.225898 293.237109 
L 178.225898 220.643896 
L 150.848534 220.643896 
L 150.848534 293.237109 
z
" clip-path="url(#p1d3b3ba121)" style="fill: #3274a1; stroke: #3f3f3f; stroke-linejoin: miter"/>
   </g>
   <g id="line2d_36">
    <path d="M 164.537216 293.237109 
L 164.537216 304.074545 
" clip-path="url(#p1d3b3ba121)" style="fill: none; stroke: #3f3f3f"/>
   </g>
   <g id="line2d_37">
    <path d="M 164.537216 220.643896 
L 164.537216 125.774623 
" clip-path="url(#p1d3b3ba121)" style="fill: none; stroke: #3f3f3f"/>
   </g>
   <g id="line2d_38">
    <path d="M 157.692875 304.074545 
L 171.381557 304.074545 
" clip-path="url(#p1d3b3ba121)" style="fill: none; stroke: #3f3f3f; stroke-linecap: square"/>
   </g>
   <g id="line2d_39">
    <path d="M 157.692875 125.774623 
L 171.381557 125.774623 
" clip-path="url(#p1d3b3ba121)" style="fill: none; stroke: #3f3f3f; stroke-linecap: square"/>
   </g>
   <g id="line2d_40"/>
   <g id="patch_7">
    <path d="M 185.070239 267.449093 
L 212.447602 267.449093 
L 212.447602 242.334639 
L 185.070239 242.334639 
L 185.070239 267.449093 
z
" clip-path="url(#p1d3b3ba121)" style="fill: #3274a1; stroke: #3f3f3f; stroke-linejoin: miter"/>
   </g>
   <g id="line2d_41">
    <path d="M 198.75892 267.449093 
L 198.75892 291.883168 
" clip-path="url(#p1d3b3ba121)" style="fill: none; stroke: #3f3f3f"/>
   </g>
   <g id="line2d_42">
    <path d="M 198.75892 242.334639 
L 198.75892 205.085539 
" clip-path="url(#p1d3b3ba121)" style="fill: none; stroke: #3f3f3f"/>
   </g>
   <g id="line2d_43">
    <path d="M 191.91458 291.883168 
L 205.603261 291.883168 
" clip-path="url(#p1d3b3ba121)" style="fill: none; stroke: #3f3f3f; stroke-linecap: square"/>
   </g>
   <g id="line2d_44">
    <path d="M 191.91458 205.085539 
L 205.603261 205.085539 
" clip-path="url(#p1d3b3ba121)" style="fill: none; stroke: #3f3f3f; stroke-linecap: square"/>
   </g>
   <g id="line2d_45"/>
   <g id="patch_8">
    <path d="M 219.291943 276.190179 
L 246.669307 276.190179 
L 246.669307 240.295018 
L 219.291943 240.295018 
L 219.291943 276.190179 
z
" clip-path="url(#p1d3b3ba121)" style="fill: #3274a1; stroke: #3f3f3f; stroke-linejoin: miter"/>
   </g>
   <g id="line2d_46">
    <path d="M 232.980625 276.190179 
L 232.980625 294.137759 
" clip-path="url(#p1d3b3ba121)" style="fill: none; stroke: #3f3f3f"/>
   </g>
   <g id="line2d_47">
    <path d="M 232.980625 240.295018 
L 232.980625 222.347438 
" clip-path="url(#p1d3b3ba121)" style="fill: none; stroke: #3f3f3f"/>
   </g>
   <g id="line2d_48">
    <path d="M 226.136284 294.137759 
L 239.824966 294.137759 
" clip-path="url(#p1d3b3ba121)" style="fill: none; stroke: #3f3f3f; stroke-linecap: square"/>
   </g>
   <g id="line2d_49">
    <path d="M 226.136284 222.347438 
L 239.824966 222.347438 
" clip-path="url(#p1d3b3ba121)" style="fill: none; stroke: #3f3f3f; stroke-linecap: square"/>
   </g>
   <g id="line2d_50"/>
   <g id="patch_9">
    <path d="M 253.513648 240.325944 
L 280.891011 240.325944 
L 280.891011 227.695348 
L 253.513648 227.695348 
L 253.513648 240.325944 
z
" clip-path="url(#p1d3b3ba121)" style="fill: #3274a1; stroke: #3f3f3f; stroke-linejoin: miter"/>
   </g>
   <g id="line2d_51">
    <path d="M 267.20233 240.325944 
L 267.20233 246.641243 
" clip-path="url(#p1d3b3ba121)" style="fill: none; stroke: #3f3f3f"/>
   </g>
   <g id="line2d_52">
    <path d="M 267.20233 227.695348 
L 267.20233 221.380049 
" clip-path="url(#p1d3b3ba121)" style="fill: none; stroke: #3f3f3f"/>
   </g>
   <g id="line2d_53">
    <path d="M 260.357989 246.641243 
L 274.04667 246.641243 
" clip-path="url(#p1d3b3ba121)" style="fill: none; stroke: #3f3f3f; stroke-linecap: square"/>
   </g>
   <g id="line2d_54">
    <path d="M 260.357989 221.380049 
L 274.04667 221.380049 
" clip-path="url(#p1d3b3ba121)" style="fill: none; stroke: #3f3f3f; stroke-linecap: square"/>
   </g>
   <g id="line2d_55"/>
   <g id="patch_10">
    <path d="M 287.735352 269.730409 
L 315.112716 269.730409 
L 315.112716 222.603331 
L 287.735352 222.603331 
L 287.735352 269.730409 
z
" clip-path="url(#p1d3b3ba121)" style="fill: #3274a1; stroke: #3f3f3f; stroke-linejoin: miter"/>
   </g>
   <g id="line2d_56">
    <path d="M 301.424034 269.730409 
L 301.424034 279.798047 
" clip-path="url(#p1d3b3ba121)" style="fill: none; stroke: #3f3f3f"/>
   </g>
   <g id="line2d_57">
    <path d="M 301.424034 222.603331 
L 301.424034 205.442321 
" clip-path="url(#p1d3b3ba121)" style="fill: none; stroke: #3f3f3f"/>
   </g>
   <g id="line2d_58">
    <path d="M 294.579693 279.798047 
L 308.268375 279.798047 
" clip-path="url(#p1d3b3ba121)" style="fill: none; stroke: #3f3f3f; stroke-linecap: square"/>
   </g>
   <g id="line2d_59">
    <path d="M 294.579693 205.442321 
L 308.268375 205.442321 
" clip-path="url(#p1d3b3ba121)" style="fill: none; stroke: #3f3f3f; stroke-linecap: square"/>
   </g>
   <g id="line2d_60">
    <defs>
     <path id="mb80f9f202a" d="M 0 3 
C 0.795609 3 1.55874 2.683901 2.12132 2.12132 
C 2.683901 1.55874 3 0.795609 3 0 
C 3 -0.795609 2.683901 -1.55874 2.12132 -2.12132 
C 1.55874 -2.683901 0.795609 -3 0 -3 
C -0.795609 -3 -1.55874 -2.683901 -2.12132 -2.12132 
C -2.683901 -1.55874 -3 -0.795609 -3 0 
C -3 0.795609 -2.683901 1.55874 -2.12132 2.12132 
C -1.55874 2.683901 -0.795609 3 0 3 
z
" style="stroke: #3f3f3f"/>
    </defs>
    <g clip-path="url(#p1d3b3ba121)">
     <use xlink:href="#mb80f9f202a" x="301.424034" y="134.709196" style="fill-opacity: 0; stroke: #3f3f3f"/>
    </g>
   </g>
   <g id="patch_11">
    <path d="M 321.957057 245.687659 
L 349.33442 245.687659 
L 349.33442 217.865332 
L 321.957057 217.865332 
L 321.957057 245.687659 
z
" clip-path="url(#p1d3b3ba121)" style="fill: #3274a1; stroke: #3f3f3f; stroke-linejoin: miter"/>
   </g>
   <g id="line2d_61">
    <path d="M 335.645739 245.687659 
L 335.645739 263.757076 
" clip-path="url(#p1d3b3ba121)" style="fill: none; stroke: #3f3f3f"/>
   </g>
   <g id="line2d_62">
    <path d="M 335.645739 217.865332 
L 335.645739 208.112422 
" clip-path="url(#p1d3b3ba121)" style="fill: none; stroke: #3f3f3f"/>
   </g>
   <g id="line2d_63">
    <path d="M 328.801398 263.757076 
L 342.49008 263.757076 
" clip-path="url(#p1d3b3ba121)" style="fill: none; stroke: #3f3f3f; stroke-linecap: square"/>
   </g>
   <g id="line2d_64">
    <path d="M 328.801398 208.112422 
L 342.49008 208.112422 
" clip-path="url(#p1d3b3ba121)" style="fill: none; stroke: #3f3f3f; stroke-linecap: square"/>
   </g>
   <g id="line2d_65"/>
   <g id="patch_12">
    <path d="M 356.178761 246.475261 
L 383.556125 246.475261 
L 383.556125 196.70218 
L 356.178761 196.70218 
L 356.178761 246.475261 
z
" clip-path="url(#p1d3b3ba121)" style="fill: #3274a1; stroke: #3f3f3f; stroke-linejoin: miter"/>
   </g>
   <g id="line2d_66">
    <path d="M 369.867443 246.475261 
L 369.867443 287.69333 
" clip-path="url(#p1d3b3ba121)" style="fill: none; stroke: #3f3f3f"/>
   </g>
   <g id="line2d_67">
    <path d="M 369.867443 196.70218 
L 369.867443 184.212767 
" clip-path="url(#p1d3b3ba121)" style="fill: none; stroke: #3f3f3f"/>
   </g>
   <g id="line2d_68">
    <path d="M 363.023102 287.69333 
L 376.711784 287.69333 
" clip-path="url(#p1d3b3ba121)" style="fill: none; stroke: #3f3f3f; stroke-linecap: square"/>
   </g>
   <g id="line2d_69">
    <path d="M 363.023102 184.212767 
L 376.711784 184.212767 
" clip-path="url(#p1d3b3ba121)" style="fill: none; stroke: #3f3f3f; stroke-linecap: square"/>
   </g>
   <g id="line2d_70"/>
   <g id="patch_13">
    <path d="M 390.400466 258.41837 
L 417.77783 258.41837 
L 417.77783 199.031517 
L 390.400466 199.031517 
L 390.400466 258.41837 
z
" clip-path="url(#p1d3b3ba121)" style="fill: #3274a1; stroke: #3f3f3f; stroke-linejoin: miter"/>
   </g>
   <g id="line2d_71">
    <path d="M 404.089148 258.41837 
L 404.089148 289.909101 
" clip-path="url(#p1d3b3ba121)" style="fill: none; stroke: #3f3f3f"/>
   </g>
   <g id="line2d_72">
    <path d="M 404.089148 199.031517 
L 404.089148 123.052231 
" clip-path="url(#p1d3b3ba121)" style="fill: none; stroke: #3f3f3f"/>
   </g>
   <g id="line2d_73">
    <path d="M 397.244807 289.909101 
L 410.933489 289.909101 
" clip-path="url(#p1d3b3ba121)" style="fill: none; stroke: #3f3f3f; stroke-linecap: square"/>
   </g>
   <g id="line2d_74">
    <path d="M 397.244807 123.052231 
L 410.933489 123.052231 
" clip-path="url(#p1d3b3ba121)" style="fill: none; stroke: #3f3f3f; stroke-linecap: square"/>
   </g>
   <g id="line2d_75">
    <g clip-path="url(#p1d3b3ba121)">
     <use xlink:href="#mb80f9f202a" x="404.089148" y="94.783335" style="fill-opacity: 0; stroke: #3f3f3f"/>
     <use xlink:href="#mb80f9f202a" x="404.089148" y="108.824417" style="fill-opacity: 0; stroke: #3f3f3f"/>
     <use xlink:href="#mb80f9f202a" x="404.089148" y="62.794899" style="fill-opacity: 0; stroke: #3f3f3f"/>
     <use xlink:href="#mb80f9f202a" x="404.089148" y="24.765455" style="fill-opacity: 0; stroke: #3f3f3f"/>
     <use xlink:href="#mb80f9f202a" x="404.089148" y="58.870754" style="fill-opacity: 0; stroke: #3f3f3f"/>
    </g>
   </g>
   <g id="line2d_76">
    <path d="M 48.18342 277.564851 
L 75.560784 277.564851 
" clip-path="url(#p1d3b3ba121)" style="fill: none; stroke: #3f3f3f"/>
   </g>
   <g id="line2d_77">
    <path d="M 82.405125 254.13232 
L 109.782489 254.13232 
" clip-path="url(#p1d3b3ba121)" style="fill: none; stroke: #3f3f3f"/>
   </g>
   <g id="line2d_78">
    <path d="M 116.62683 234.097013 
L 144.004193 234.097013 
" clip-path="url(#p1d3b3ba121)" style="fill: none; stroke: #3f3f3f"/>
   </g>
   <g id="line2d_79">
    <path d="M 150.848534 252.653357 
L 178.225898 252.653357 
" clip-path="url(#p1d3b3ba121)" style="fill: none; stroke: #3f3f3f"/>
   </g>
   <g id="line2d_80">
    <path d="M 185.070239 257.725662 
L 212.447602 257.725662 
" clip-path="url(#p1d3b3ba121)" style="fill: none; stroke: #3f3f3f"/>
   </g>
   <g id="line2d_81">
    <path d="M 219.291943 258.242598 
L 246.669307 258.242598 
" clip-path="url(#p1d3b3ba121)" style="fill: none; stroke: #3f3f3f"/>
   </g>
   <g id="line2d_82">
    <path d="M 253.513648 234.010646 
L 280.891011 234.010646 
" clip-path="url(#p1d3b3ba121)" style="fill: none; stroke: #3f3f3f"/>
   </g>
   <g id="line2d_83">
    <path d="M 287.735352 250.81109 
L 315.112716 250.81109 
" clip-path="url(#p1d3b3ba121)" style="fill: none; stroke: #3f3f3f"/>
   </g>
   <g id="line2d_84">
    <path d="M 321.957057 227.618243 
L 349.33442 227.618243 
" clip-path="url(#p1d3b3ba121)" style="fill: none; stroke: #3f3f3f"/>
   </g>
   <g id="line2d_85">
    <path d="M 356.178761 219.979336 
L 383.556125 219.979336 
" clip-path="url(#p1d3b3ba121)" style="fill: none; stroke: #3f3f3f"/>
   </g>
   <g id="line2d_86">
    <path d="M 390.400466 229.841098 
L 417.77783 229.841098 
" clip-path="url(#p1d3b3ba121)" style="fill: none; stroke: #3f3f3f"/>
   </g>
   <g id="patch_14">
    <path d="M 44.76125 318.04 
L 44.76125 10.8 
" style="fill: none; stroke: #000000; stroke-width: 0.8; stroke-linejoin: miter; stroke-linecap: square"/>
   </g>
   <g id="patch_15">
    <path d="M 421.2 318.04 
L 421.2 10.8 
" style="fill: none; stroke: #000000; stroke-width: 0.8; stroke-linejoin: miter; stroke-linecap: square"/>
   </g>
   <g id="patch_16">
    <path d="M 44.76125 318.04 
L 421.2 318.04 
" style="fill: none; stroke: #000000; stroke-width: 0.8; stroke-linejoin: miter; stroke-linecap: square"/>
   </g>
   <g id="patch_17">
    <path d="M 44.76125 10.8 
L 421.2 10.8 
" style="fill: none; stroke: #000000; stroke-width: 0.8; stroke-linejoin: miter; stroke-linecap: square"/>
   </g>
  </g>
 </g>
 <defs>
  <clipPath id="p1d3b3ba121">
   <rect x="44.76125" y="10.8" width="376.43875" height="307.24"/>
  </clipPath>
 </defs>
</svg>
