<?xml version="1.0" encoding="utf-8" standalone="no"?>
<!DOCTYPE svg PUBLIC "-//W3C//DTD SVG 1.1//EN"
  "http://www.w3.org/Graphics/SVG/1.1/DTD/svg11.dtd">
<svg xmlns:xlink="http://www.w3.org/1999/xlink" width="576pt" height="216pt" viewBox="0 0 576 216" xmlns="http://www.w3.org/2000/svg" version="1.1">
 <metadata>
  <rdf:RDF xmlns:dc="http://purl.org/dc/elements/1.1/" xmlns:cc="http://creativecommons.org/ns#" xmlns:rdf="http://www.w3.org/1999/02/22-rdf-syntax-ns#">
   <cc:Work>
    <dc:type rdf:resource="http://purl.org/dc/dcmitype/StillImage"/>
    <dc:date>2026-01-13T14:18:23.071027</dc:date>
    <dc:format>image/svg+xml</dc:format>
    <dc:creator>
     <cc:Agent>
      <dc:title>Matplotlib v3.10.8, https://matplotlib.org/</dc:title>
     </cc:Agent>
    </dc:creator>
   </cc:Work>
  </rdf:RDF>
 </metadata>
 <defs>
  <style type="text/css">*{stroke-linejoin: round; stroke-linecap: butt}</style>
 </defs>
 <g id="figure_1">
  <g id="patch_1">
   <path d="M 0 216 
L 576 216 
L 576 0 
L 0 0 
z
" style="fill: #ffffff"/>
  </g>
  <g id="axes_1">
   <g id="patch_2">
    <path d="M 56.18 174.04 
L 565.2 174.04 
L 565.2 25.44 
L 56.18 25.44 
z
" style="fill: #ffffff"/>
   </g>
   <g id="matplotlib.axis_1">
    <g id="xtick_1">
     <g id="line2d_1">
      <defs>
       <path id="m6ee77ada86" d="M 0 0 
L 0 3.5 
" style="stroke: #000000; stroke-width: 0.8"/>
      </defs>
      <g>
       <use xlink:href="#m6ee77ada86" x="56.18" y="174.04" style="stroke: #000000; stroke-width: 0.8"/>
      </g>
     </g>
     <g id="text_1">
      <!-- 0 -->
      <g transform="translate(52.99875 188.638438) scale(0.1 -0.1)">
       <defs>
        <path id="DejaVuSans-30" d="M 2034 4250 
Q 1547 4250 1301 3770 
Q 1056 3291 1056 2328 
Q 1056 1369 1301 889 
Q 1547 409 2034 409 
Q 2525 409 2770 889 
Q 3016 1369 3016 2328 
Q 3016 3291 2770 3770 
Q 2525 4250 2034 4250 
z
M 2034 4750 
Q 2819 4750 3233 4129 
Q 3647 3509 3647 2328 
Q 3647 1150 3233 529 
Q 2819 -91 2034 -91 
Q 1250 -91 836 529 
Q 422 1150 422 2328 
Q 422 3509 836 4129 
Q 1250 4750 2034 4750 
z
" transform="scale(0.015625)"/>
       </defs>
       <use xlink:href="#DejaVuSans-30"/>
      </g>
     </g>
    </g>
    <g id="xtick_2">
     <g id="line2d_2">
      <g>
       <use xlink:href="#m6ee77ada86" x="155.597969" y="174.04" style="stroke: #000000; stroke-width: 0.8"/>
      </g>
     </g>
     <g id="text_2">
      <!-- 100 -->
      <g transform="translate(146.054219 188.638438) scale(0.1 -0.1)">
       <defs>
        <path id="DejaVuSans-31" d="M 794 531 
L 1825 531 
L 1825 4091 
L 703 3866 
L 703 4441 
L 1819 4666 
L 2450 4666 
L 2450 531 
L 3481 531 
L 3481 0 
L 794 0 
L 794 531 
z
" transform="scale(0.015625)"/>
       </defs>
       <use xlink:href="#DejaVuSans-31"/>
       <use xlink:href="#DejaVuSans-30" transform="translate(63.623047 0)"/>
       <use xlink:href="#DejaVuSans-30" transform="translate(127.246094 0)"/>
      </g>
     </g>
    </g>
    <g id="xtick_3">
     <g id="line2d_3">
      <g>
       <use xlink:href="#m6ee77ada86" x="255.015937" y="174.04" style="stroke: #000000; stroke-width: 0.8"/>
      </g>
     </g>
     <g id="text_3">
      <!-- 200 -->
      <g transform="translate(245.472187 188.638438) scale(0.1 -0.1)">
       <defs>
        <path id="DejaVuSans-32" d="M 1228 531 
L 3431 531 
L 3431 0 
L 469 0 
L 469 531 
Q 828 903 1448 1529 
Q 2069 2156 2228 2338 
Q 2531 2678 2651 2914 
Q 2772 3150 2772 3378 
Q 2772 3750 2511 3984 
Q 2250 4219 1831 4219 
Q 1534 4219 1204 4116 
Q 875 4013 500 3803 
L 500 4441 
Q 881 4594 1212 4672 
Q 1544 4750 1819 4750 
Q 2544 4750 2975 4387 
Q 3406 4025 3406 3419 
Q 3406 3131 3298 2873 
Q 3191 2616 2906 2266 
Q 2828 2175 2409 1742 
Q 1991 1309 1228 531 
z
" transform="scale(0.015625)"/>
       </defs>
       <use xlink:href="#DejaVuSans-32"/>
       <use xlink:href="#DejaVuSans-30" transform="translate(63.623047 0)"/>
       <use xlink:href="#DejaVuSans-30" transform="translate(127.246094 0)"/>
      </g>
     </g>
    </g>
    <g id="xtick_4">
     <g id="line2d_4">
      <g>
       <use xlink:href="#m6ee77ada86" x="354.433906" y="174.04" style="stroke: #000000; stroke-width: 0.8"/>
      </g>
     </g>
     <g id="text_4">
      <!-- 300 -->
      <g transform="translate(344.890156 188.638438) scale(0.1 -0.1)">
       <defs>
        <path id="DejaVuSans-33" d="M 2597 2516 
Q 3050 2419 3304 2112 
Q 3559 1806 3559 1356 
Q 3559 666 3084 287 
Q 2609 -91 1734 -91 
Q 1441 -91 1130 -33 
Q 819 25 488 141 
L 488 750 
Q 750 597 1062 519 
Q 1375 441 1716 441 
Q 2309 441 2620 675 
Q 2931 909 2931 1356 
Q 2931 1769 2642 2001 
Q 2353 2234 1838 2234 
L 1294 2234 
L 1294 2753 
L 1863 2753 
Q 2328 2753 2575 2939 
Q 2822 3125 2822 3475 
Q 2822 3834 2567 4026 
Q 2313 4219 1838 4219 
Q 1578 4219 1281 4162 
Q 984 4106 628 3988 
L 628 4550 
Q 988 4650 1302 4700 
Q 1616 4750 1894 4750 
Q 2613 4750 3031 4423 
Q 3450 4097 3450 3541 
Q 3450 3153 3228 2886 
Q 3006 2619 2597 2516 
z
" transform="scale(0.015625)"/>
       </defs>
       <use xlink:href="#DejaVuSans-33"/>
       <use xlink:href="#DejaVuSans-30" transform="translate(63.623047 0)"/>
       <use xlink:href="#DejaVuSans-30" transform="translate(127.246094 0)"/>
      </g>
     </g>
    </g>
    <g id="xtick_5">
     <g id="line2d_5">
      <g>
       <use xlink:href="#m6ee77ada86" x="453.851875" y="174.04" style="stroke: #000000; stroke-width: 0.8"/>
      </g>
     </g>
     <g id="text_5">
      <!-- 400 -->
      <g transform="translate(444.308125 188.638438) scale(0.1 -0.1)">
       <defs>
        <path id="DejaVuSans-34" d="M 2419 4116 
L 825 1625 
L 2419 1625 
L 2419 4116 
z
M 2253 4666 
L 3047 4666 
L 3047 1625 
L 3713 1625 
L 3713 1100 
L 3047 1100 
L 3047 0 
L 2419 0 
L 2419 1100 
L 313 1100 
L 313 1709 
L 2253 4666 
z
" transform="scale(0.015625)"/>
       </defs>
       <use xlink:href="#DejaVuSans-34"/>
       <use xlink:href="#DejaVuSans-30" transform="translate(63.623047 0)"/>
       <use xlink:href="#DejaVuSans-30" transform="translate(127.246094 0)"/>
      </g>
     </g>
    </g>
    <g id="xtick_6">
     <g id="line2d_6">
      <g>
       <use xlink:href="#m6ee77ada86" x="553.269844" y="174.04" style="stroke: #000000; stroke-width: 0.8"/>
      </g>
     </g>
     <g id="text_6">
      <!-- 500 -->
      <g transform="translate(543.726094 188.638438) scale(0.1 -0.1)">
       <defs>
        <path id="DejaVuSans-35" d="M 691 4666 
L 3169 4666 
L 3169 4134 
L 1269 4134 
L 1269 2991 
Q 1406 3038 1543 3061 
Q 1681 3084 1819 3084 
Q 2600 3084 3056 2656 
Q 3513 2228 3513 1497 
Q 3513 744 3044 326 
Q 2575 -91 1722 -91 
Q 1428 -91 1123 -41 
Q 819 9 494 109 
L 494 744 
Q 775 591 1075 516 
Q 1375 441 1709 441 
Q 2250 441 2565 725 
Q 2881 1009 2881 1497 
Q 2881 1984 2565 2268 
Q 2250 2553 1709 2553 
Q 1456 2553 1204 2497 
Q 953 2441 691 2322 
L 691 4666 
z
" transform="scale(0.015625)"/>
       </defs>
       <use xlink:href="#DejaVuSans-35"/>
       <use xlink:href="#DejaVuSans-30" transform="translate(63.623047 0)"/>
       <use xlink:href="#DejaVuSans-30" transform="translate(127.246094 0)"/>
      </g>
     </g>
    </g>
    <g id="text_7">
     <!-- Position -->
     <g transform="translate(291.225937 202.316563) scale(0.1 -0.1)">
      <defs>
       <path id="DejaVuSans-50" d="M 1259 4147 
L 1259 2394 
L 2053 2394 
Q 2494 2394 2734 2622 
Q 2975 2850 2975 3272 
Q 2975 3691 2734 3919 
Q 2494 4147 2053 4147 
L 1259 4147 
z
M 628 4666 
L 2053 4666 
Q 2838 4666 3239 4311 
Q 3641 3956 3641 3272 
Q 3641 2581 3239 2228 
Q 2838 1875 2053 1875 
L 1259 1875 
L 1259 0 
L 628 0 
L 628 4666 
z
" transform="scale(0.015625)"/>
       <path id="DejaVuSans-6f" d="M 1959 3097 
Q 1497 3097 1228 2736 
Q 959 2375 959 1747 
Q 959 1119 1226 758 
Q 1494 397 1959 397 
Q 2419 397 2687 759 
Q 2956 1122 2956 1747 
Q 2956 2369 2687 2733 
Q 2419 3097 1959 3097 
z
M 1959 3584 
Q 2709 3584 3137 3096 
Q 3566 2609 3566 1747 
Q 3566 888 3137 398 
Q 2709 -91 1959 -91 
Q 1206 -91 779 398 
Q 353 888 353 1747 
Q 353 2609 779 3096 
Q 1206 3584 1959 3584 
z
" transform="scale(0.015625)"/>
       <path id="DejaVuSans-73" d="M 2834 3397 
L 2834 2853 
Q 2591 2978 2328 3040 
Q 2066 3103 1784 3103 
Q 1356 3103 1142 2972 
Q 928 2841 928 2578 
Q 928 2378 1081 2264 
Q 1234 2150 1697 2047 
L 1894 2003 
Q 2506 1872 2764 1633 
Q 3022 1394 3022 966 
Q 3022 478 2636 193 
Q 2250 -91 1575 -91 
Q 1294 -91 989 -36 
Q 684 19 347 128 
L 347 722 
Q 666 556 975 473 
Q 1284 391 1588 391 
Q 1994 391 2212 530 
Q 2431 669 2431 922 
Q 2431 1156 2273 1281 
Q 2116 1406 1581 1522 
L 1381 1569 
Q 847 1681 609 1914 
Q 372 2147 372 2553 
Q 372 3047 722 3315 
Q 1072 3584 1716 3584 
Q 2034 3584 2315 3537 
Q 2597 3491 2834 3397 
z
" transform="scale(0.015625)"/>
       <path id="DejaVuSans-69" d="M 603 3500 
L 1178 3500 
L 1178 0 
L 603 0 
L 603 3500 
z
M 603 4863 
L 1178 4863 
L 1178 4134 
L 603 4134 
L 603 4863 
z
" transform="scale(0.015625)"/>
       <path id="DejaVuSans-74" d="M 1172 4494 
L 1172 3500 
L 2356 3500 
L 2356 3053 
L 1172 3053 
L 1172 1153 
Q 1172 725 1289 603 
Q 1406 481 1766 481 
L 2356 481 
L 2356 0 
L 1766 0 
Q 1100 0 847 248 
Q 594 497 594 1153 
L 594 3053 
L 172 3053 
L 172 3500 
L 594 3500 
L 594 4494 
L 1172 4494 
z
" transform="scale(0.015625)"/>
       <path id="DejaVuSans-6e" d="M 3513 2113 
L 3513 0 
L 2938 0 
L 2938 2094 
Q 2938 2591 2744 2837 
Q 2550 3084 2163 3084 
Q 1697 3084 1428 2787 
Q 1159 2491 1159 1978 
L 1159 0 
L 581 0 
L 581 3500 
L 1159 3500 
L 1159 2956 
Q 1366 3272 1645 3428 
Q 1925 3584 2291 3584 
Q 2894 3584 3203 3211 
Q 3513 2838 3513 2113 
z
" transform="scale(0.015625)"/>
      </defs>
      <use xlink:href="#DejaVuSans-50"/>
      <use xlink:href="#DejaVuSans-6f" transform="translate(56.677734 0)"/>
      <use xlink:href="#DejaVuSans-73" transform="translate(117.859375 0)"/>
      <use xlink:href="#DejaVuSans-69" transform="translate(169.958984 0)"/>
      <use xlink:href="#DejaVuSans-74" transform="translate(197.742188 0)"/>
      <use xlink:href="#DejaVuSans-69" transform="translate(236.951172 0)"/>
      <use xlink:href="#DejaVuSans-6f" transform="translate(264.734375 0)"/>
      <use xlink:href="#DejaVuSans-6e" transform="translate(325.916016 0)"/>
     </g>
    </g>
   </g>
   <g id="matplotlib.axis_2">
    <g id="ytick_1">
     <g id="line2d_7">
      <defs>
       <path id="m850fc0163f" d="M 0 0 
L -3.5 0 
" style="stroke: #000000; stroke-width: 0.8"/>
      </defs>
      <g>
       <use xlink:href="#m850fc0163f" x="56.18" y="174.04" style="stroke: #000000; stroke-width: 0.8"/>
      </g>
     </g>
     <g id="text_8">
      <!-- −0.6 -->
      <g transform="translate(24.897188 177.839219) scale(0.1 -0.1)">
       <defs>
        <path id="DejaVuSans-2212" d="M 678 2272 
L 4684 2272 
L 4684 1741 
L 678 1741 
L 678 2272 
z
" transform="scale(0.015625)"/>
        <path id="DejaVuSans-2e" d="M 684 794 
L 1344 794 
L 1344 0 
L 684 0 
L 684 794 
z
" transform="scale(0.015625)"/>
        <path id="DejaVuSans-36" d="M 2113 2584 
Q 1688 2584 1439 2293 
Q 1191 2003 1191 1497 
Q 1191 994 1439 701 
Q 1688 409 2113 409 
Q 2538 409 2786 701 
Q 3034 994 3034 1497 
Q 3034 2003 2786 2293 
Q 2538 2584 2113 2584 
z
M 3366 4563 
L 3366 3988 
Q 3128 4100 2886 4159 
Q 2644 4219 2406 4219 
Q 1781 4219 1451 3797 
Q 1122 3375 1075 2522 
Q 1259 2794 1537 2939 
Q 1816 3084 2150 3084 
Q 2853 3084 3261 2657 
Q 3669 2231 3669 1497 
Q 3669 778 3244 343 
Q 2819 -91 2113 -91 
Q 1303 -91 875 529 
Q 447 1150 447 2328 
Q 447 3434 972 4092 
Q 1497 4750 2381 4750 
Q 2619 4750 2861 4703 
Q 3103 4656 3366 4563 
z
" transform="scale(0.015625)"/>
       </defs>
       <use xlink:href="#DejaVuSans-2212"/>
       <use xlink:href="#DejaVuSans-30" transform="translate(83.789062 0)"/>
       <use xlink:href="#DejaVuSans-2e" transform="translate(147.412109 0)"/>
       <use xlink:href="#DejaVuSans-36" transform="translate(179.199219 0)"/>
      </g>
     </g>
    </g>
    <g id="ytick_2">
     <g id="line2d_8">
      <g>
       <use xlink:href="#m850fc0163f" x="56.18" y="149.273333" style="stroke: #000000; stroke-width: 0.8"/>
      </g>
     </g>
     <g id="text_9">
      <!-- −0.4 -->
      <g transform="translate(24.897188 153.072552) scale(0.1 -0.1)">
       <use xlink:href="#DejaVuSans-2212"/>
       <use xlink:href="#DejaVuSans-30" transform="translate(83.789062 0)"/>
       <use xlink:href="#DejaVuSans-2e" transform="translate(147.412109 0)"/>
       <use xlink:href="#DejaVuSans-34" transform="translate(179.199219 0)"/>
      </g>
     </g>
    </g>
    <g id="ytick_3">
     <g id="line2d_9">
      <g>
       <use xlink:href="#m850fc0163f" x="56.18" y="124.506667" style="stroke: #000000; stroke-width: 0.8"/>
      </g>
     </g>
     <g id="text_10">
      <!-- −0.2 -->
      <g transform="translate(24.897188 128.305885) scale(0.1 -0.1)">
       <use xlink:href="#DejaVuSans-2212"/>
       <use xlink:href="#DejaVuSans-30" transform="translate(83.789062 0)"/>
       <use xlink:href="#DejaVuSans-2e" transform="translate(147.412109 0)"/>
       <use xlink:href="#DejaVuSans-32" transform="translate(179.199219 0)"/>
      </g>
     </g>
    </g>
    <g id="ytick_4">
     <g id="line2d_10">
      <g>
       <use xlink:href="#m850fc0163f" x="56.18" y="99.74" style="stroke: #000000; stroke-width: 0.8"/>
      </g>
     </g>
     <g id="text_11">
      <!-- 0.0 -->
      <g transform="translate(33.276875 103.539219) scale(0.1 -0.1)">
       <use xlink:href="#DejaVuSans-30"/>
       <use xlink:href="#DejaVuSans-2e" transform="translate(63.623047 0)"/>
       <use xlink:href="#DejaVuSans-30" transform="translate(95.410156 0)"/>
      </g>
     </g>
    </g>
    <g id="ytick_5">
     <g id="line2d_11">
      <g>
       <use xlink:href="#m850fc0163f" x="56.18" y="74.973333" style="stroke: #000000; stroke-width: 0.8"/>
      </g>
     </g>
     <g id="text_12">
      <!-- 0.2 -->
      <g transform="translate(33.276875 78.772552) scale(0.1 -0.1)">
       <use xlink:href="#DejaVuSans-30"/>
       <use xlink:href="#DejaVuSans-2e" transform="translate(63.623047 0)"/>
       <use xlink:href="#DejaVuSans-32" transform="translate(95.410156 0)"/>
      </g>
     </g>
    </g>
    <g id="ytick_6">
     <g id="line2d_12">
      <g>
       <use xlink:href="#m850fc0163f" x="56.18" y="50.206667" style="stroke: #000000; stroke-width: 0.8"/>
      </g>
     </g>
     <g id="text_13">
      <!-- 0.4 -->
      <g transform="translate(33.276875 54.005885) scale(0.1 -0.1)">
       <use xlink:href="#DejaVuSans-30"/>
       <use xlink:href="#DejaVuSans-2e" transform="translate(63.623047 0)"/>
       <use xlink:href="#DejaVuSans-34" transform="translate(95.410156 0)"/>
      </g>
     </g>
    </g>
    <g id="ytick_7">
     <g id="line2d_13">
      <g>
       <use xlink:href="#m850fc0163f" x="56.18" y="25.44" style="stroke: #000000; stroke-width: 0.8"/>
      </g>
     </g>
     <g id="text_14">
      <!-- 0.6 -->
      <g transform="translate(33.276875 29.239219) scale(0.1 -0.1)">
       <use xlink:href="#DejaVuSans-30"/>
       <use xlink:href="#DejaVuSans-2e" transform="translate(63.623047 0)"/>
       <use xlink:href="#DejaVuSans-36" transform="translate(95.410156 0)"/>
      </g>
     </g>
    </g>
    <g id="text_15">
     <!-- Insulation -->
     <g transform="translate(18.8175 124.187656) rotate(-90) scale(0.1 -0.1)">
      <defs>
       <path id="DejaVuSans-49" d="M 628 4666 
L 1259 4666 
L 1259 0 
L 628 0 
L 628 4666 
z
" transform="scale(0.015625)"/>
       <path id="DejaVuSans-75" d="M 544 1381 
L 544 3500 
L 1119 3500 
L 1119 1403 
Q 1119 906 1312 657 
Q 1506 409 1894 409 
Q 2359 409 2629 706 
Q 2900 1003 2900 1516 
L 2900 3500 
L 3475 3500 
L 3475 0 
L 2900 0 
L 2900 538 
Q 2691 219 2414 64 
Q 2138 -91 1772 -91 
Q 1169 -91 856 284 
Q 544 659 544 1381 
z
M 1991 3584 
L 1991 3584 
z
" transform="scale(0.015625)"/>
       <path id="DejaVuSans-6c" d="M 603 4863 
L 1178 4863 
L 1178 0 
L 603 0 
L 603 4863 
z
" transform="scale(0.015625)"/>
       <path id="DejaVuSans-61" d="M 2194 1759 
Q 1497 1759 1228 1600 
Q 959 1441 959 1056 
Q 959 750 1161 570 
Q 1363 391 1709 391 
Q 2188 391 2477 730 
Q 2766 1069 2766 1631 
L 2766 1759 
L 2194 1759 
z
M 3341 1997 
L 3341 0 
L 2766 0 
L 2766 531 
Q 2569 213 2275 61 
Q 1981 -91 1556 -91 
Q 1019 -91 701 211 
Q 384 513 384 1019 
Q 384 1609 779 1909 
Q 1175 2209 1959 2209 
L 2766 2209 
L 2766 2266 
Q 2766 2663 2505 2880 
Q 2244 3097 1772 3097 
Q 1472 3097 1187 3025 
Q 903 2953 641 2809 
L 641 3341 
Q 956 3463 1253 3523 
Q 1550 3584 1831 3584 
Q 2591 3584 2966 3190 
Q 3341 2797 3341 1997 
z
" transform="scale(0.015625)"/>
      </defs>
      <use xlink:href="#DejaVuSans-49"/>
      <use xlink:href="#DejaVuSans-6e" transform="translate(29.492188 0)"/>
      <use xlink:href="#DejaVuSans-73" transform="translate(92.871094 0)"/>
      <use xlink:href="#DejaVuSans-75" transform="translate(144.970703 0)"/>
      <use xlink:href="#DejaVuSans-6c" transform="translate(208.349609 0)"/>
      <use xlink:href="#DejaVuSans-61" transform="translate(236.132812 0)"/>
      <use xlink:href="#DejaVuSans-74" transform="translate(297.412109 0)"/>
      <use xlink:href="#DejaVuSans-69" transform="translate(336.621094 0)"/>
      <use xlink:href="#DejaVuSans-6f" transform="translate(364.404297 0)"/>
      <use xlink:href="#DejaVuSans-6e" transform="translate(425.585938 0)"/>
     </g>
    </g>
   </g>
   <g id="line2d_14">
    <path d="M 72.086875 100.256052 
L 73.081055 100.306302 
L 74.075234 99.675838 
L 75.069414 97.745597 
L 76.063594 94.925681 
L 77.057773 91.702976 
L 78.051953 88.986205 
L 79.046133 87.109059 
L 80.040312 86.465822 
L 81.034492 88.075622 
L 82.028672 90.715528 
L 83.022852 91.834024 
L 84.017031 91.150172 
L 86.005391 88.909699 
L 87.99375 86.050979 
L 88.98793 85.31219 
L 89.982109 85.428825 
L 90.976289 86.885095 
L 91.970469 88.745931 
L 92.964648 89.539107 
L 94.953008 89.603948 
L 95.947187 90.149433 
L 96.941367 91.499175 
L 97.935547 94.107094 
L 100.918086 104.167019 
L 101.912266 107.011442 
L 103.900625 111.577092 
L 104.894805 113.06135 
L 105.888984 112.915567 
L 106.883164 110.832282 
L 107.877344 108.066593 
L 108.871523 105.923739 
L 109.865703 103.1808 
L 110.859883 99.39479 
L 111.854062 96.966865 
L 112.848242 96.747476 
L 113.842422 96.7983 
L 115.830781 94.97791 
L 116.824961 94.697716 
L 117.819141 94.167085 
L 118.81332 92.588484 
L 119.8075 89.605729 
L 120.80168 85.745332 
L 121.795859 82.934573 
L 122.790039 81.843509 
L 123.784219 80.263269 
L 125.772578 73.528353 
L 126.766758 71.696326 
L 127.760937 70.641807 
L 128.755117 70.543231 
L 129.749297 71.493326 
L 130.743477 72.828844 
L 133.726016 77.463332 
L 134.720195 78.245714 
L 135.714375 77.958333 
L 136.708555 76.564233 
L 137.702734 75.744678 
L 138.696914 77.214262 
L 141.679453 85.406123 
L 142.673633 87.560396 
L 143.667812 89.219626 
L 144.661992 91.28504 
L 145.656172 93.627761 
L 146.650352 95.404415 
L 147.644531 97.633308 
L 148.638711 102.150033 
L 152.61543 127.572885 
L 153.609609 132.296922 
L 154.603789 134.593891 
L 155.597969 134.299081 
L 156.592148 131.390134 
L 157.586328 127.448139 
L 160.568867 117.135586 
L 161.563047 111.681841 
L 164.545586 92.141098 
L 165.539766 87.986437 
L 166.533945 86.610625 
L 167.528125 86.95334 
L 168.522305 88.097619 
L 169.516484 89.671522 
L 170.510664 92.127473 
L 171.504844 96.487484 
L 173.493203 108.493899 
L 174.487383 113.534002 
L 175.481562 117.311816 
L 176.475742 120.110653 
L 177.469922 122.20083 
L 178.464102 123.910689 
L 179.458281 123.241068 
L 180.452461 119.16887 
L 181.446641 114.596505 
L 182.44082 111.69998 
L 183.435 110.320432 
L 184.42918 109.743891 
L 185.423359 108.874753 
L 186.417539 107.015225 
L 187.411719 104.791752 
L 188.405898 103.419928 
L 189.400078 103.213808 
L 190.394258 103.834328 
L 191.388437 105.85708 
L 192.382617 109.737298 
L 193.376797 114.911194 
L 194.370977 121.498852 
L 196.359336 136.855073 
L 197.353516 143.720723 
L 198.347695 149.666697 
L 199.341875 154.781383 
L 200.336055 158.240213 
L 201.330234 159.547028 
L 202.324414 159.457218 
L 203.318594 158.157689 
L 204.312773 155.251746 
L 205.306953 151.074958 
L 206.301133 145.649038 
L 207.295312 138.689152 
L 209.283672 121.402788 
L 210.277852 112.615634 
L 211.272031 105.506686 
L 212.266211 100.229488 
L 213.260391 96.172301 
L 214.25457 93.710508 
L 215.24875 93.017612 
L 216.24293 93.744421 
L 217.237109 95.094042 
L 218.231289 96.006761 
L 219.225469 95.783326 
L 220.219648 94.840363 
L 221.213828 94.847892 
L 222.208008 96.343655 
L 223.202187 97.522816 
L 224.196367 96.983461 
L 225.190547 95.827154 
L 226.184727 95.322896 
L 227.178906 95.686975 
L 229.167266 97.746794 
L 230.161445 97.935155 
L 231.155625 97.663588 
L 232.149805 99.077193 
L 233.143984 102.829104 
L 234.138164 107.142037 
L 235.132344 110.241026 
L 236.126523 112.165371 
L 237.120703 113.398017 
L 238.114883 113.972153 
L 239.109062 113.699594 
L 240.103242 113.058602 
L 241.097422 112.791517 
L 242.091602 113.351975 
L 244.079961 115.403331 
L 246.06832 118.155503 
L 247.0625 118.946675 
L 249.050859 117.771621 
L 250.045039 118.186072 
L 251.039219 119.033486 
L 253.027578 119.730929 
L 254.021758 121.11747 
L 255.015937 123.780645 
L 257.004297 131.00268 
L 257.998477 132.274479 
L 258.992656 132.043327 
L 259.986836 131.425435 
L 260.981016 129.944631 
L 261.975195 127.851658 
L 262.969375 126.596829 
L 263.963555 126.231799 
L 264.957734 125.674346 
L 265.951914 124.663912 
L 266.946094 122.739509 
L 267.940273 119.789191 
L 268.934453 117.205759 
L 269.928633 115.843897 
L 270.922812 114.708955 
L 271.916992 113.328075 
L 272.911172 113.048055 
L 273.905352 113.891184 
L 274.899531 114.137123 
L 275.893711 113.510606 
L 276.887891 112.635348 
L 277.88207 111.587714 
L 278.87625 110.786027 
L 279.87043 110.658407 
L 280.864609 110.278129 
L 281.858789 109.518714 
L 282.852969 108.51814 
L 284.841328 104.516491 
L 285.835508 103.68508 
L 288.818047 102.29364 
L 289.812227 102.380403 
L 290.806406 102.923743 
L 293.788945 106.451539 
L 294.783125 107.480475 
L 296.771484 111.111044 
L 297.765664 112.148947 
L 298.759844 112.942375 
L 300.748203 115.556538 
L 301.742383 115.450095 
L 302.736562 113.926261 
L 303.730742 112.165417 
L 304.724922 110.654067 
L 307.707461 106.869788 
L 308.701641 105.05124 
L 309.69582 102.580765 
L 310.69 100.976955 
L 311.68418 101.189641 
L 312.678359 102.517307 
L 313.672539 103.366273 
L 314.666719 102.567314 
L 315.660898 101.10961 
L 316.655078 100.868091 
L 317.649258 102.926985 
L 318.643437 106.265674 
L 319.637617 108.331883 
L 321.625977 108.944201 
L 323.614336 110.750522 
L 324.608516 111.263214 
L 325.602695 110.785676 
L 326.596875 109.287632 
L 327.591055 106.951274 
L 328.585234 104.939973 
L 329.579414 104.029758 
L 330.573594 103.726026 
L 331.567773 104.013598 
L 332.561953 105.050437 
L 333.556133 106.448087 
L 335.544492 108.42126 
L 336.538672 109.045307 
L 337.532852 108.167137 
L 340.515391 102.584326 
L 341.50957 101.19815 
L 343.49793 100.172181 
L 344.492109 99.733219 
L 346.480469 99.564641 
L 347.474648 99.61354 
L 348.468828 100.143623 
L 350.457187 102.240025 
L 351.451367 103.507498 
L 353.439727 107.613271 
L 356.422266 112.144784 
L 359.404805 116.206562 
L 360.398984 116.715566 
L 361.393164 116.711595 
L 362.387344 116.382174 
L 363.381523 115.667978 
L 364.375703 114.270072 
L 366.364062 109.130457 
L 367.358242 107.292744 
L 368.352422 106.057508 
L 370.340781 104.214919 
L 371.334961 103.716125 
L 372.329141 103.907456 
L 373.32332 104.237949 
L 374.3175 104.858332 
L 375.31168 105.97933 
L 377.300039 108.734565 
L 378.294219 109.686845 
L 380.282578 110.483625 
L 381.276758 111.162991 
L 382.270937 111.982535 
L 383.265117 112.391913 
L 385.253477 110.689725 
L 387.241836 110.957712 
L 388.236016 110.265438 
L 389.230195 109.398835 
L 390.224375 109.057601 
L 391.218555 109.572579 
L 392.212734 110.954313 
L 394.201094 114.208838 
L 395.195273 115.655444 
L 396.189453 117.450963 
L 397.183633 118.60277 
L 398.177812 118.613242 
L 399.171992 118.225346 
L 400.166172 117.601873 
L 401.160352 116.610743 
L 403.148711 113.985143 
L 404.142891 113.344768 
L 405.13707 113.328575 
L 406.13125 113.56591 
L 407.12543 114.089027 
L 408.119609 114.055163 
L 410.107969 112.931973 
L 411.102148 112.558778 
L 415.078867 111.774592 
L 416.073047 112.075684 
L 417.067227 112.619423 
L 418.061406 112.83481 
L 420.049766 112.240555 
L 422.038125 111.384954 
L 424.026484 111.715192 
L 425.020664 111.613479 
L 427.009023 110.717939 
L 428.003203 110.885262 
L 428.997383 111.515682 
L 429.991562 111.946872 
L 430.985742 112.579413 
L 431.979922 113.529816 
L 434.962461 117.169385 
L 435.956641 118.821624 
L 436.95082 120.919576 
L 437.945 122.149851 
L 438.93918 122.151971 
L 439.933359 122.425699 
L 441.921719 124.244294 
L 443.910078 125.375995 
L 444.904258 127.056313 
L 445.898437 129.719419 
L 446.892617 131.969421 
L 447.886797 132.775614 
L 448.880977 132.418926 
L 450.869336 130.200642 
L 451.863516 129.756988 
L 453.851875 130.010907 
L 454.846055 130.374118 
L 455.840234 131.00727 
L 457.828594 132.778592 
L 458.822773 133.180824 
L 459.816953 132.731191 
L 460.811133 131.943781 
L 462.799492 130.752386 
L 464.787852 129.096265 
L 465.782031 127.310564 
L 467.770391 120.912043 
L 468.76457 119.633874 
L 469.75875 118.823148 
L 470.75293 117.123826 
L 471.747109 115.085782 
L 472.741289 113.37877 
L 473.735469 112.58465 
L 474.729648 112.825104 
L 476.718008 113.623561 
L 477.712187 114.788445 
L 478.706367 116.510621 
L 479.700547 117.217553 
L 480.694727 117.220941 
L 481.688906 117.763339 
L 482.683086 118.585775 
L 483.677266 119.580727 
L 484.671445 120.767056 
L 485.665625 122.681533 
L 486.659805 125.125692 
L 487.653984 126.550323 
L 488.648164 126.04291 
L 489.642344 124.920761 
L 490.636523 124.685059 
L 491.630703 124.9222 
L 492.624883 124.534191 
L 494.613242 122.727526 
L 498.589961 118.133972 
L 499.584141 117.310904 
L 500.57832 117.176756 
L 502.56668 118.481646 
L 503.560859 118.759026 
L 504.555039 117.960819 
L 505.549219 116.968365 
L 507.537578 116.416762 
L 508.531758 116.44151 
L 510.520117 117.707828 
L 511.514297 117.895225 
L 512.508477 117.171873 
L 513.502656 115.689463 
L 514.496836 113.992169 
L 515.491016 112.756337 
L 516.485195 112.609906 
L 517.479375 113.350217 
L 518.473555 113.66888 
L 519.467734 112.842663 
L 521.456094 108.758226 
L 522.450273 108.353675 
L 523.444453 108.754752 
L 524.438633 108.639532 
L 526.426992 107.786416 
L 527.421172 107.616784 
L 528.415352 107.251202 
L 529.409531 106.684741 
L 530.403711 106.747769 
L 532.39207 108.38574 
L 533.38625 108.925724 
L 534.38043 109.326969 
L 535.374609 109.399609 
L 536.368789 109.1134 
L 537.362969 109.19799 
L 538.357148 110.02825 
L 539.351328 111.472452 
L 541.339687 116.032174 
L 542.333867 116.682663 
L 543.328047 116.494035 
L 544.322227 116.00127 
L 545.316406 114.308127 
L 546.310586 111.241213 
L 547.304766 107.625184 
L 548.298945 104.782697 
L 548.298945 104.782697 
" clip-path="url(#pad6875ee84)" style="fill: none; stroke: #000000; stroke-width: 1.5; stroke-linecap: square"/>
   </g>
   <g id="patch_3">
    <path d="M 56.18 174.04 
L 56.18 25.44 
" style="fill: none; stroke: #000000; stroke-width: 0.8; stroke-linejoin: miter; stroke-linecap: square"/>
   </g>
   <g id="patch_4">
    <path d="M 565.2 174.04 
L 565.2 25.44 
" style="fill: none; stroke: #000000; stroke-width: 0.8; stroke-linejoin: miter; stroke-linecap: square"/>
   </g>
   <g id="patch_5">
    <path d="M 56.18 174.04 
L 565.2 174.04 
" style="fill: none; stroke: #000000; stroke-width: 0.8; stroke-linejoin: miter; stroke-linecap: square"/>
   </g>
   <g id="patch_6">
    <path d="M 56.18 25.44 
L 565.2 25.44 
" style="fill: none; stroke: #000000; stroke-width: 0.8; stroke-linejoin: miter; stroke-linecap: square"/>
   </g>
   <g id="text_16">
    <!-- Insulation Score (Target) -->
    <g transform="translate(237.488125 19.44) scale(0.12 -0.12)">
     <defs>
      <path id="DejaVuSans-20" transform="scale(0.015625)"/>
      <path id="DejaVuSans-53" d="M 3425 4513 
L 3425 3897 
Q 3066 4069 2747 4153 
Q 2428 4238 2131 4238 
Q 1616 4238 1336 4038 
Q 1056 3838 1056 3469 
Q 1056 3159 1242 3001 
Q 1428 2844 1947 2747 
L 2328 2669 
Q 3034 2534 3370 2195 
Q 3706 1856 3706 1288 
Q 3706 609 3251 259 
Q 2797 -91 1919 -91 
Q 1588 -91 1214 -16 
Q 841 59 441 206 
L 441 856 
Q 825 641 1194 531 
Q 1563 422 1919 422 
Q 2459 422 2753 634 
Q 3047 847 3047 1241 
Q 3047 1584 2836 1778 
Q 2625 1972 2144 2069 
L 1759 2144 
Q 1053 2284 737 2584 
Q 422 2884 422 3419 
Q 422 4038 858 4394 
Q 1294 4750 2059 4750 
Q 2388 4750 2728 4690 
Q 3069 4631 3425 4513 
z
" transform="scale(0.015625)"/>
      <path id="DejaVuSans-63" d="M 3122 3366 
L 3122 2828 
Q 2878 2963 2633 3030 
Q 2388 3097 2138 3097 
Q 1578 3097 1268 2742 
Q 959 2388 959 1747 
Q 959 1106 1268 751 
Q 1578 397 2138 397 
Q 2388 397 2633 464 
Q 2878 531 3122 666 
L 3122 134 
Q 2881 22 2623 -34 
Q 2366 -91 2075 -91 
Q 1284 -91 818 406 
Q 353 903 353 1747 
Q 353 2603 823 3093 
Q 1294 3584 2113 3584 
Q 2378 3584 2631 3529 
Q 2884 3475 3122 3366 
z
" transform="scale(0.015625)"/>
      <path id="DejaVuSans-72" d="M 2631 2963 
Q 2534 3019 2420 3045 
Q 2306 3072 2169 3072 
Q 1681 3072 1420 2755 
Q 1159 2438 1159 1844 
L 1159 0 
L 581 0 
L 581 3500 
L 1159 3500 
L 1159 2956 
Q 1341 3275 1631 3429 
Q 1922 3584 2338 3584 
Q 2397 3584 2469 3576 
Q 2541 3569 2628 3553 
L 2631 2963 
z
" transform="scale(0.015625)"/>
      <path id="DejaVuSans-65" d="M 3597 1894 
L 3597 1613 
L 953 1613 
Q 991 1019 1311 708 
Q 1631 397 2203 397 
Q 2534 397 2845 478 
Q 3156 559 3463 722 
L 3463 178 
Q 3153 47 2828 -22 
Q 2503 -91 2169 -91 
Q 1331 -91 842 396 
Q 353 884 353 1716 
Q 353 2575 817 3079 
Q 1281 3584 2069 3584 
Q 2775 3584 3186 3129 
Q 3597 2675 3597 1894 
z
M 3022 2063 
Q 3016 2534 2758 2815 
Q 2500 3097 2075 3097 
Q 1594 3097 1305 2825 
Q 1016 2553 972 2059 
L 3022 2063 
z
" transform="scale(0.015625)"/>
      <path id="DejaVuSans-28" d="M 1984 4856 
Q 1566 4138 1362 3434 
Q 1159 2731 1159 2009 
Q 1159 1288 1364 580 
Q 1569 -128 1984 -844 
L 1484 -844 
Q 1016 -109 783 600 
Q 550 1309 550 2009 
Q 550 2706 781 3412 
Q 1013 4119 1484 4856 
L 1984 4856 
z
" transform="scale(0.015625)"/>
      <path id="DejaVuSans-54" d="M -19 4666 
L 3928 4666 
L 3928 4134 
L 2272 4134 
L 2272 0 
L 1638 0 
L 1638 4134 
L -19 4134 
L -19 4666 
z
" transform="scale(0.015625)"/>
      <path id="DejaVuSans-67" d="M 2906 1791 
Q 2906 2416 2648 2759 
Q 2391 3103 1925 3103 
Q 1463 3103 1205 2759 
Q 947 2416 947 1791 
Q 947 1169 1205 825 
Q 1463 481 1925 481 
Q 2391 481 2648 825 
Q 2906 1169 2906 1791 
z
M 3481 434 
Q 3481 -459 3084 -895 
Q 2688 -1331 1869 -1331 
Q 1566 -1331 1297 -1286 
Q 1028 -1241 775 -1147 
L 775 -588 
Q 1028 -725 1275 -790 
Q 1522 -856 1778 -856 
Q 2344 -856 2625 -561 
Q 2906 -266 2906 331 
L 2906 616 
Q 2728 306 2450 153 
Q 2172 0 1784 0 
Q 1141 0 747 490 
Q 353 981 353 1791 
Q 353 2603 747 3093 
Q 1141 3584 1784 3584 
Q 2172 3584 2450 3431 
Q 2728 3278 2906 2969 
L 2906 3500 
L 3481 3500 
L 3481 434 
z
" transform="scale(0.015625)"/>
      <path id="DejaVuSans-29" d="M 513 4856 
L 1013 4856 
Q 1481 4119 1714 3412 
Q 1947 2706 1947 2009 
Q 1947 1309 1714 600 
Q 1481 -109 1013 -844 
L 513 -844 
Q 928 -128 1133 580 
Q 1338 1288 1338 2009 
Q 1338 2731 1133 3434 
Q 928 4138 513 4856 
z
" transform="scale(0.015625)"/>
     </defs>
     <use xlink:href="#DejaVuSans-49"/>
     <use xlink:href="#DejaVuSans-6e" transform="translate(29.492188 0)"/>
     <use xlink:href="#DejaVuSans-73" transform="translate(92.871094 0)"/>
     <use xlink:href="#DejaVuSans-75" transform="translate(144.970703 0)"/>
     <use xlink:href="#DejaVuSans-6c" transform="translate(208.349609 0)"/>
     <use xlink:href="#DejaVuSans-61" transform="translate(236.132812 0)"/>
     <use xlink:href="#DejaVuSans-74" transform="translate(297.412109 0)"/>
     <use xlink:href="#DejaVuSans-69" transform="translate(336.621094 0)"/>
     <use xlink:href="#DejaVuSans-6f" transform="translate(364.404297 0)"/>
     <use xlink:href="#DejaVuSans-6e" transform="translate(425.585938 0)"/>
     <use xlink:href="#DejaVuSans-20" transform="translate(488.964844 0)"/>
     <use xlink:href="#DejaVuSans-53" transform="translate(520.751953 0)"/>
     <use xlink:href="#DejaVuSans-63" transform="translate(584.228516 0)"/>
     <use xlink:href="#DejaVuSans-6f" transform="translate(639.208984 0)"/>
     <use xlink:href="#DejaVuSans-72" transform="translate(700.390625 0)"/>
     <use xlink:href="#DejaVuSans-65" transform="translate(739.253906 0)"/>
     <use xlink:href="#DejaVuSans-20" transform="translate(800.777344 0)"/>
     <use xlink:href="#DejaVuSans-28" transform="translate(832.564453 0)"/>
     <use xlink:href="#DejaVuSans-54" transform="translate(871.578125 0)"/>
     <use xlink:href="#DejaVuSans-61" transform="translate(916.162109 0)"/>
     <use xlink:href="#DejaVuSans-72" transform="translate(977.441406 0)"/>
     <use xlink:href="#DejaVuSans-67" transform="translate(1016.804688 0)"/>
     <use xlink:href="#DejaVuSans-65" transform="translate(1080.28125 0)"/>
     <use xlink:href="#DejaVuSans-74" transform="translate(1141.804688 0)"/>
     <use xlink:href="#DejaVuSans-29" transform="translate(1181.013672 0)"/>
    </g>
   </g>
   <g id="legend_1">
    <g id="patch_7">
     <path d="M 503.957812 48.118125 
L 558.2 48.118125 
Q 560.2 48.118125 560.2 46.118125 
L 560.2 32.44 
Q 560.2 30.44 558.2 30.44 
L 503.957812 30.44 
Q 501.957812 30.44 501.957812 32.44 
L 501.957812 46.118125 
Q 501.957812 48.118125 503.957812 48.118125 
z
" style="fill: #ffffff; opacity: 0.8; stroke: #cccccc; stroke-linejoin: miter"/>
    </g>
    <g id="line2d_15">
     <path d="M 505.957812 38.538438 
L 515.957812 38.538438 
L 525.957812 38.538438 
" style="fill: none; stroke: #000000; stroke-width: 1.5; stroke-linecap: square"/>
    </g>
    <g id="text_17">
     <!-- Pred -->
     <g transform="translate(533.957812 42.038438) scale(0.1 -0.1)">
      <defs>
       <path id="DejaVuSans-64" d="M 2906 2969 
L 2906 4863 
L 3481 4863 
L 3481 0 
L 2906 0 
L 2906 525 
Q 2725 213 2448 61 
Q 2172 -91 1784 -91 
Q 1150 -91 751 415 
Q 353 922 353 1747 
Q 353 2572 751 3078 
Q 1150 3584 1784 3584 
Q 2172 3584 2448 3432 
Q 2725 3281 2906 2969 
z
M 947 1747 
Q 947 1113 1208 752 
Q 1469 391 1925 391 
Q 2381 391 2643 752 
Q 2906 1113 2906 1747 
Q 2906 2381 2643 2742 
Q 2381 3103 1925 3103 
Q 1469 3103 1208 2742 
Q 947 2381 947 1747 
z
" transform="scale(0.015625)"/>
      </defs>
      <use xlink:href="#DejaVuSans-50"/>
      <use xlink:href="#DejaVuSans-72" transform="translate(58.552734 0)"/>
      <use xlink:href="#DejaVuSans-65" transform="translate(97.416016 0)"/>
      <use xlink:href="#DejaVuSans-64" transform="translate(158.939453 0)"/>
     </g>
    </g>
   </g>
  </g>
 </g>
 <defs>
  <clipPath id="pad6875ee84">
   <rect x="56.18" y="25.44" width="509.02" height="148.6"/>
  </clipPath>
 </defs>
</svg>
