<?xml version="1.0" encoding="utf-8" standalone="no"?>
<!DOCTYPE svg PUBLIC "-//W3C//DTD SVG 1.1//EN"
  "http://www.w3.org/Graphics/SVG/1.1/DTD/svg11.dtd">
<svg xmlns:xlink="http://www.w3.org/1999/xlink" width="576pt" height="216pt" viewBox="0 0 576 216" xmlns="http://www.w3.org/2000/svg" version="1.1">
 <metadata>
  <rdf:RDF xmlns:dc="http://purl.org/dc/elements/1.1/" xmlns:cc="http://creativecommons.org/ns#" xmlns:rdf="http://www.w3.org/1999/02/22-rdf-syntax-ns#">
   <cc:Work>
    <dc:type rdf:resource="http://purl.org/dc/dcmitype/StillImage"/>
    <dc:date>2026-03-04T08:54:02.263932</dc:date>
    <dc:format>image/svg+xml</dc:format>
    <dc:creator>
     <cc:Agent>
      <dc:title>Matplotlib v3.10.8, https://matplotlib.org/</dc:title>
     </cc:Agent>
    </dc:creator>
   </cc:Work>
  </rdf:RDF>
 </metadata>
 <defs>
  <style type="text/css">*{stroke-linejoin: round; stroke-linecap: butt}</style>
 </defs>
 <g id="figure_1">
  <g id="patch_1">
   <path d="M 0 216 
L 576 216 
L 576 0 
L 0 0 
z
" style="fill: #ffffff"/>
  </g>
  <g id="axes_1">
   <g id="patch_2">
    <path d="M 56.18 174.04 
L 565.2 174.04 
L 565.2 25.44 
L 56.18 25.44 
z
" style="fill: #ffffff"/>
   </g>
   <g id="patch_3">
    <path d="M 256.010117 174.04 
L 364.375703 174.04 
L 364.375703 25.44 
L 256.010117 25.44 
z
" clip-path="url(#p4d8c8b8287)" style="fill: #ff0000; opacity: 0.25; stroke: #ff0000; stroke-linejoin: miter"/>
   </g>
   <g id="matplotlib.axis_1">
    <g id="xtick_1">
     <g id="line2d_1">
      <defs>
       <path id="m4e2a118086" d="M 0 0 
L 0 3.5 
" style="stroke: #000000; stroke-width: 0.8"/>
      </defs>
      <g>
       <use xlink:href="#m4e2a118086" x="56.18" y="174.04" style="stroke: #000000; stroke-width: 0.8"/>
      </g>
     </g>
     <g id="text_1">
      <!-- 0 -->
      <g transform="translate(52.99875 188.638438) scale(0.1 -0.1)">
       <defs>
        <path id="DejaVuSans-30" d="M 2034 4250 
Q 1547 4250 1301 3770 
Q 1056 3291 1056 2328 
Q 1056 1369 1301 889 
Q 1547 409 2034 409 
Q 2525 409 2770 889 
Q 3016 1369 3016 2328 
Q 3016 3291 2770 3770 
Q 2525 4250 2034 4250 
z
M 2034 4750 
Q 2819 4750 3233 4129 
Q 3647 3509 3647 2328 
Q 3647 1150 3233 529 
Q 2819 -91 2034 -91 
Q 1250 -91 836 529 
Q 422 1150 422 2328 
Q 422 3509 836 4129 
Q 1250 4750 2034 4750 
z
" transform="scale(0.015625)"/>
       </defs>
       <use xlink:href="#DejaVuSans-30"/>
      </g>
     </g>
    </g>
    <g id="xtick_2">
     <g id="line2d_2">
      <g>
       <use xlink:href="#m4e2a118086" x="155.597969" y="174.04" style="stroke: #000000; stroke-width: 0.8"/>
      </g>
     </g>
     <g id="text_2">
      <!-- 100 -->
      <g transform="translate(146.054219 188.638438) scale(0.1 -0.1)">
       <defs>
        <path id="DejaVuSans-31" d="M 794 531 
L 1825 531 
L 1825 4091 
L 703 3866 
L 703 4441 
L 1819 4666 
L 2450 4666 
L 2450 531 
L 3481 531 
L 3481 0 
L 794 0 
L 794 531 
z
" transform="scale(0.015625)"/>
       </defs>
       <use xlink:href="#DejaVuSans-31"/>
       <use xlink:href="#DejaVuSans-30" transform="translate(63.623047 0)"/>
       <use xlink:href="#DejaVuSans-30" transform="translate(127.246094 0)"/>
      </g>
     </g>
    </g>
    <g id="xtick_3">
     <g id="line2d_3">
      <g>
       <use xlink:href="#m4e2a118086" x="255.015937" y="174.04" style="stroke: #000000; stroke-width: 0.8"/>
      </g>
     </g>
     <g id="text_3">
      <!-- 200 -->
      <g transform="translate(245.472187 188.638438) scale(0.1 -0.1)">
       <defs>
        <path id="DejaVuSans-32" d="M 1228 531 
L 3431 531 
L 3431 0 
L 469 0 
L 469 531 
Q 828 903 1448 1529 
Q 2069 2156 2228 2338 
Q 2531 2678 2651 2914 
Q 2772 3150 2772 3378 
Q 2772 3750 2511 3984 
Q 2250 4219 1831 4219 
Q 1534 4219 1204 4116 
Q 875 4013 500 3803 
L 500 4441 
Q 881 4594 1212 4672 
Q 1544 4750 1819 4750 
Q 2544 4750 2975 4387 
Q 3406 4025 3406 3419 
Q 3406 3131 3298 2873 
Q 3191 2616 2906 2266 
Q 2828 2175 2409 1742 
Q 1991 1309 1228 531 
z
" transform="scale(0.015625)"/>
       </defs>
       <use xlink:href="#DejaVuSans-32"/>
       <use xlink:href="#DejaVuSans-30" transform="translate(63.623047 0)"/>
       <use xlink:href="#DejaVuSans-30" transform="translate(127.246094 0)"/>
      </g>
     </g>
    </g>
    <g id="xtick_4">
     <g id="line2d_4">
      <g>
       <use xlink:href="#m4e2a118086" x="354.433906" y="174.04" style="stroke: #000000; stroke-width: 0.8"/>
      </g>
     </g>
     <g id="text_4">
      <!-- 300 -->
      <g transform="translate(344.890156 188.638438) scale(0.1 -0.1)">
       <defs>
        <path id="DejaVuSans-33" d="M 2597 2516 
Q 3050 2419 3304 2112 
Q 3559 1806 3559 1356 
Q 3559 666 3084 287 
Q 2609 -91 1734 -91 
Q 1441 -91 1130 -33 
Q 819 25 488 141 
L 488 750 
Q 750 597 1062 519 
Q 1375 441 1716 441 
Q 2309 441 2620 675 
Q 2931 909 2931 1356 
Q 2931 1769 2642 2001 
Q 2353 2234 1838 2234 
L 1294 2234 
L 1294 2753 
L 1863 2753 
Q 2328 2753 2575 2939 
Q 2822 3125 2822 3475 
Q 2822 3834 2567 4026 
Q 2313 4219 1838 4219 
Q 1578 4219 1281 4162 
Q 984 4106 628 3988 
L 628 4550 
Q 988 4650 1302 4700 
Q 1616 4750 1894 4750 
Q 2613 4750 3031 4423 
Q 3450 4097 3450 3541 
Q 3450 3153 3228 2886 
Q 3006 2619 2597 2516 
z
" transform="scale(0.015625)"/>
       </defs>
       <use xlink:href="#DejaVuSans-33"/>
       <use xlink:href="#DejaVuSans-30" transform="translate(63.623047 0)"/>
       <use xlink:href="#DejaVuSans-30" transform="translate(127.246094 0)"/>
      </g>
     </g>
    </g>
    <g id="xtick_5">
     <g id="line2d_5">
      <g>
       <use xlink:href="#m4e2a118086" x="453.851875" y="174.04" style="stroke: #000000; stroke-width: 0.8"/>
      </g>
     </g>
     <g id="text_5">
      <!-- 400 -->
      <g transform="translate(444.308125 188.638438) scale(0.1 -0.1)">
       <defs>
        <path id="DejaVuSans-34" d="M 2419 4116 
L 825 1625 
L 2419 1625 
L 2419 4116 
z
M 2253 4666 
L 3047 4666 
L 3047 1625 
L 3713 1625 
L 3713 1100 
L 3047 1100 
L 3047 0 
L 2419 0 
L 2419 1100 
L 313 1100 
L 313 1709 
L 2253 4666 
z
" transform="scale(0.015625)"/>
       </defs>
       <use xlink:href="#DejaVuSans-34"/>
       <use xlink:href="#DejaVuSans-30" transform="translate(63.623047 0)"/>
       <use xlink:href="#DejaVuSans-30" transform="translate(127.246094 0)"/>
      </g>
     </g>
    </g>
    <g id="xtick_6">
     <g id="line2d_6">
      <g>
       <use xlink:href="#m4e2a118086" x="553.269844" y="174.04" style="stroke: #000000; stroke-width: 0.8"/>
      </g>
     </g>
     <g id="text_6">
      <!-- 500 -->
      <g transform="translate(543.726094 188.638438) scale(0.1 -0.1)">
       <defs>
        <path id="DejaVuSans-35" d="M 691 4666 
L 3169 4666 
L 3169 4134 
L 1269 4134 
L 1269 2991 
Q 1406 3038 1543 3061 
Q 1681 3084 1819 3084 
Q 2600 3084 3056 2656 
Q 3513 2228 3513 1497 
Q 3513 744 3044 326 
Q 2575 -91 1722 -91 
Q 1428 -91 1123 -41 
Q 819 9 494 109 
L 494 744 
Q 775 591 1075 516 
Q 1375 441 1709 441 
Q 2250 441 2565 725 
Q 2881 1009 2881 1497 
Q 2881 1984 2565 2268 
Q 2250 2553 1709 2553 
Q 1456 2553 1204 2497 
Q 953 2441 691 2322 
L 691 4666 
z
" transform="scale(0.015625)"/>
       </defs>
       <use xlink:href="#DejaVuSans-35"/>
       <use xlink:href="#DejaVuSans-30" transform="translate(63.623047 0)"/>
       <use xlink:href="#DejaVuSans-30" transform="translate(127.246094 0)"/>
      </g>
     </g>
    </g>
    <g id="text_7">
     <!-- Position (bins) -->
     <g transform="translate(275.398594 202.316563) scale(0.1 -0.1)">
      <defs>
       <path id="DejaVuSans-50" d="M 1259 4147 
L 1259 2394 
L 2053 2394 
Q 2494 2394 2734 2622 
Q 2975 2850 2975 3272 
Q 2975 3691 2734 3919 
Q 2494 4147 2053 4147 
L 1259 4147 
z
M 628 4666 
L 2053 4666 
Q 2838 4666 3239 4311 
Q 3641 3956 3641 3272 
Q 3641 2581 3239 2228 
Q 2838 1875 2053 1875 
L 1259 1875 
L 1259 0 
L 628 0 
L 628 4666 
z
" transform="scale(0.015625)"/>
       <path id="DejaVuSans-6f" d="M 1959 3097 
Q 1497 3097 1228 2736 
Q 959 2375 959 1747 
Q 959 1119 1226 758 
Q 1494 397 1959 397 
Q 2419 397 2687 759 
Q 2956 1122 2956 1747 
Q 2956 2369 2687 2733 
Q 2419 3097 1959 3097 
z
M 1959 3584 
Q 2709 3584 3137 3096 
Q 3566 2609 3566 1747 
Q 3566 888 3137 398 
Q 2709 -91 1959 -91 
Q 1206 -91 779 398 
Q 353 888 353 1747 
Q 353 2609 779 3096 
Q 1206 3584 1959 3584 
z
" transform="scale(0.015625)"/>
       <path id="DejaVuSans-73" d="M 2834 3397 
L 2834 2853 
Q 2591 2978 2328 3040 
Q 2066 3103 1784 3103 
Q 1356 3103 1142 2972 
Q 928 2841 928 2578 
Q 928 2378 1081 2264 
Q 1234 2150 1697 2047 
L 1894 2003 
Q 2506 1872 2764 1633 
Q 3022 1394 3022 966 
Q 3022 478 2636 193 
Q 2250 -91 1575 -91 
Q 1294 -91 989 -36 
Q 684 19 347 128 
L 347 722 
Q 666 556 975 473 
Q 1284 391 1588 391 
Q 1994 391 2212 530 
Q 2431 669 2431 922 
Q 2431 1156 2273 1281 
Q 2116 1406 1581 1522 
L 1381 1569 
Q 847 1681 609 1914 
Q 372 2147 372 2553 
Q 372 3047 722 3315 
Q 1072 3584 1716 3584 
Q 2034 3584 2315 3537 
Q 2597 3491 2834 3397 
z
" transform="scale(0.015625)"/>
       <path id="DejaVuSans-69" d="M 603 3500 
L 1178 3500 
L 1178 0 
L 603 0 
L 603 3500 
z
M 603 4863 
L 1178 4863 
L 1178 4134 
L 603 4134 
L 603 4863 
z
" transform="scale(0.015625)"/>
       <path id="DejaVuSans-74" d="M 1172 4494 
L 1172 3500 
L 2356 3500 
L 2356 3053 
L 1172 3053 
L 1172 1153 
Q 1172 725 1289 603 
Q 1406 481 1766 481 
L 2356 481 
L 2356 0 
L 1766 0 
Q 1100 0 847 248 
Q 594 497 594 1153 
L 594 3053 
L 172 3053 
L 172 3500 
L 594 3500 
L 594 4494 
L 1172 4494 
z
" transform="scale(0.015625)"/>
       <path id="DejaVuSans-6e" d="M 3513 2113 
L 3513 0 
L 2938 0 
L 2938 2094 
Q 2938 2591 2744 2837 
Q 2550 3084 2163 3084 
Q 1697 3084 1428 2787 
Q 1159 2491 1159 1978 
L 1159 0 
L 581 0 
L 581 3500 
L 1159 3500 
L 1159 2956 
Q 1366 3272 1645 3428 
Q 1925 3584 2291 3584 
Q 2894 3584 3203 3211 
Q 3513 2838 3513 2113 
z
" transform="scale(0.015625)"/>
       <path id="DejaVuSans-20" transform="scale(0.015625)"/>
       <path id="DejaVuSans-28" d="M 1984 4856 
Q 1566 4138 1362 3434 
Q 1159 2731 1159 2009 
Q 1159 1288 1364 580 
Q 1569 -128 1984 -844 
L 1484 -844 
Q 1016 -109 783 600 
Q 550 1309 550 2009 
Q 550 2706 781 3412 
Q 1013 4119 1484 4856 
L 1984 4856 
z
" transform="scale(0.015625)"/>
       <path id="DejaVuSans-62" d="M 3116 1747 
Q 3116 2381 2855 2742 
Q 2594 3103 2138 3103 
Q 1681 3103 1420 2742 
Q 1159 2381 1159 1747 
Q 1159 1113 1420 752 
Q 1681 391 2138 391 
Q 2594 391 2855 752 
Q 3116 1113 3116 1747 
z
M 1159 2969 
Q 1341 3281 1617 3432 
Q 1894 3584 2278 3584 
Q 2916 3584 3314 3078 
Q 3713 2572 3713 1747 
Q 3713 922 3314 415 
Q 2916 -91 2278 -91 
Q 1894 -91 1617 61 
Q 1341 213 1159 525 
L 1159 0 
L 581 0 
L 581 4863 
L 1159 4863 
L 1159 2969 
z
" transform="scale(0.015625)"/>
       <path id="DejaVuSans-29" d="M 513 4856 
L 1013 4856 
Q 1481 4119 1714 3412 
Q 1947 2706 1947 2009 
Q 1947 1309 1714 600 
Q 1481 -109 1013 -844 
L 513 -844 
Q 928 -128 1133 580 
Q 1338 1288 1338 2009 
Q 1338 2731 1133 3434 
Q 928 4138 513 4856 
z
" transform="scale(0.015625)"/>
      </defs>
      <use xlink:href="#DejaVuSans-50"/>
      <use xlink:href="#DejaVuSans-6f" transform="translate(56.677734 0)"/>
      <use xlink:href="#DejaVuSans-73" transform="translate(117.859375 0)"/>
      <use xlink:href="#DejaVuSans-69" transform="translate(169.958984 0)"/>
      <use xlink:href="#DejaVuSans-74" transform="translate(197.742188 0)"/>
      <use xlink:href="#DejaVuSans-69" transform="translate(236.951172 0)"/>
      <use xlink:href="#DejaVuSans-6f" transform="translate(264.734375 0)"/>
      <use xlink:href="#DejaVuSans-6e" transform="translate(325.916016 0)"/>
      <use xlink:href="#DejaVuSans-20" transform="translate(389.294922 0)"/>
      <use xlink:href="#DejaVuSans-28" transform="translate(421.082031 0)"/>
      <use xlink:href="#DejaVuSans-62" transform="translate(460.095703 0)"/>
      <use xlink:href="#DejaVuSans-69" transform="translate(523.572266 0)"/>
      <use xlink:href="#DejaVuSans-6e" transform="translate(551.355469 0)"/>
      <use xlink:href="#DejaVuSans-73" transform="translate(614.734375 0)"/>
      <use xlink:href="#DejaVuSans-29" transform="translate(666.833984 0)"/>
     </g>
    </g>
   </g>
   <g id="matplotlib.axis_2">
    <g id="ytick_1">
     <g id="line2d_7">
      <defs>
       <path id="mf96b5cf1a0" d="M 0 0 
L -3.5 0 
" style="stroke: #000000; stroke-width: 0.8"/>
      </defs>
      <g>
       <use xlink:href="#mf96b5cf1a0" x="56.18" y="174.04" style="stroke: #000000; stroke-width: 0.8"/>
      </g>
     </g>
     <g id="text_8">
      <!-- −0.6 -->
      <g transform="translate(24.897188 177.839219) scale(0.1 -0.1)">
       <defs>
        <path id="DejaVuSans-2212" d="M 678 2272 
L 4684 2272 
L 4684 1741 
L 678 1741 
L 678 2272 
z
" transform="scale(0.015625)"/>
        <path id="DejaVuSans-2e" d="M 684 794 
L 1344 794 
L 1344 0 
L 684 0 
L 684 794 
z
" transform="scale(0.015625)"/>
        <path id="DejaVuSans-36" d="M 2113 2584 
Q 1688 2584 1439 2293 
Q 1191 2003 1191 1497 
Q 1191 994 1439 701 
Q 1688 409 2113 409 
Q 2538 409 2786 701 
Q 3034 994 3034 1497 
Q 3034 2003 2786 2293 
Q 2538 2584 2113 2584 
z
M 3366 4563 
L 3366 3988 
Q 3128 4100 2886 4159 
Q 2644 4219 2406 4219 
Q 1781 4219 1451 3797 
Q 1122 3375 1075 2522 
Q 1259 2794 1537 2939 
Q 1816 3084 2150 3084 
Q 2853 3084 3261 2657 
Q 3669 2231 3669 1497 
Q 3669 778 3244 343 
Q 2819 -91 2113 -91 
Q 1303 -91 875 529 
Q 447 1150 447 2328 
Q 447 3434 972 4092 
Q 1497 4750 2381 4750 
Q 2619 4750 2861 4703 
Q 3103 4656 3366 4563 
z
" transform="scale(0.015625)"/>
       </defs>
       <use xlink:href="#DejaVuSans-2212"/>
       <use xlink:href="#DejaVuSans-30" transform="translate(83.789062 0)"/>
       <use xlink:href="#DejaVuSans-2e" transform="translate(147.412109 0)"/>
       <use xlink:href="#DejaVuSans-36" transform="translate(179.199219 0)"/>
      </g>
     </g>
    </g>
    <g id="ytick_2">
     <g id="line2d_8">
      <g>
       <use xlink:href="#mf96b5cf1a0" x="56.18" y="149.273333" style="stroke: #000000; stroke-width: 0.8"/>
      </g>
     </g>
     <g id="text_9">
      <!-- −0.4 -->
      <g transform="translate(24.897188 153.072552) scale(0.1 -0.1)">
       <use xlink:href="#DejaVuSans-2212"/>
       <use xlink:href="#DejaVuSans-30" transform="translate(83.789062 0)"/>
       <use xlink:href="#DejaVuSans-2e" transform="translate(147.412109 0)"/>
       <use xlink:href="#DejaVuSans-34" transform="translate(179.199219 0)"/>
      </g>
     </g>
    </g>
    <g id="ytick_3">
     <g id="line2d_9">
      <g>
       <use xlink:href="#mf96b5cf1a0" x="56.18" y="124.506667" style="stroke: #000000; stroke-width: 0.8"/>
      </g>
     </g>
     <g id="text_10">
      <!-- −0.2 -->
      <g transform="translate(24.897188 128.305885) scale(0.1 -0.1)">
       <use xlink:href="#DejaVuSans-2212"/>
       <use xlink:href="#DejaVuSans-30" transform="translate(83.789062 0)"/>
       <use xlink:href="#DejaVuSans-2e" transform="translate(147.412109 0)"/>
       <use xlink:href="#DejaVuSans-32" transform="translate(179.199219 0)"/>
      </g>
     </g>
    </g>
    <g id="ytick_4">
     <g id="line2d_10">
      <g>
       <use xlink:href="#mf96b5cf1a0" x="56.18" y="99.74" style="stroke: #000000; stroke-width: 0.8"/>
      </g>
     </g>
     <g id="text_11">
      <!-- 0.0 -->
      <g transform="translate(33.276875 103.539219) scale(0.1 -0.1)">
       <use xlink:href="#DejaVuSans-30"/>
       <use xlink:href="#DejaVuSans-2e" transform="translate(63.623047 0)"/>
       <use xlink:href="#DejaVuSans-30" transform="translate(95.410156 0)"/>
      </g>
     </g>
    </g>
    <g id="ytick_5">
     <g id="line2d_11">
      <g>
       <use xlink:href="#mf96b5cf1a0" x="56.18" y="74.973333" style="stroke: #000000; stroke-width: 0.8"/>
      </g>
     </g>
     <g id="text_12">
      <!-- 0.2 -->
      <g transform="translate(33.276875 78.772552) scale(0.1 -0.1)">
       <use xlink:href="#DejaVuSans-30"/>
       <use xlink:href="#DejaVuSans-2e" transform="translate(63.623047 0)"/>
       <use xlink:href="#DejaVuSans-32" transform="translate(95.410156 0)"/>
      </g>
     </g>
    </g>
    <g id="ytick_6">
     <g id="line2d_12">
      <g>
       <use xlink:href="#mf96b5cf1a0" x="56.18" y="50.206667" style="stroke: #000000; stroke-width: 0.8"/>
      </g>
     </g>
     <g id="text_13">
      <!-- 0.4 -->
      <g transform="translate(33.276875 54.005885) scale(0.1 -0.1)">
       <use xlink:href="#DejaVuSans-30"/>
       <use xlink:href="#DejaVuSans-2e" transform="translate(63.623047 0)"/>
       <use xlink:href="#DejaVuSans-34" transform="translate(95.410156 0)"/>
      </g>
     </g>
    </g>
    <g id="ytick_7">
     <g id="line2d_13">
      <g>
       <use xlink:href="#mf96b5cf1a0" x="56.18" y="25.44" style="stroke: #000000; stroke-width: 0.8"/>
      </g>
     </g>
     <g id="text_14">
      <!-- 0.6 -->
      <g transform="translate(33.276875 29.239219) scale(0.1 -0.1)">
       <use xlink:href="#DejaVuSans-30"/>
       <use xlink:href="#DejaVuSans-2e" transform="translate(63.623047 0)"/>
       <use xlink:href="#DejaVuSans-36" transform="translate(95.410156 0)"/>
      </g>
     </g>
    </g>
    <g id="text_15">
     <!-- Insulation score -->
     <g transform="translate(18.8175 139.209531) rotate(-90) scale(0.1 -0.1)">
      <defs>
       <path id="DejaVuSans-49" d="M 628 4666 
L 1259 4666 
L 1259 0 
L 628 0 
L 628 4666 
z
" transform="scale(0.015625)"/>
       <path id="DejaVuSans-75" d="M 544 1381 
L 544 3500 
L 1119 3500 
L 1119 1403 
Q 1119 906 1312 657 
Q 1506 409 1894 409 
Q 2359 409 2629 706 
Q 2900 1003 2900 1516 
L 2900 3500 
L 3475 3500 
L 3475 0 
L 2900 0 
L 2900 538 
Q 2691 219 2414 64 
Q 2138 -91 1772 -91 
Q 1169 -91 856 284 
Q 544 659 544 1381 
z
M 1991 3584 
L 1991 3584 
z
" transform="scale(0.015625)"/>
       <path id="DejaVuSans-6c" d="M 603 4863 
L 1178 4863 
L 1178 0 
L 603 0 
L 603 4863 
z
" transform="scale(0.015625)"/>
       <path id="DejaVuSans-61" d="M 2194 1759 
Q 1497 1759 1228 1600 
Q 959 1441 959 1056 
Q 959 750 1161 570 
Q 1363 391 1709 391 
Q 2188 391 2477 730 
Q 2766 1069 2766 1631 
L 2766 1759 
L 2194 1759 
z
M 3341 1997 
L 3341 0 
L 2766 0 
L 2766 531 
Q 2569 213 2275 61 
Q 1981 -91 1556 -91 
Q 1019 -91 701 211 
Q 384 513 384 1019 
Q 384 1609 779 1909 
Q 1175 2209 1959 2209 
L 2766 2209 
L 2766 2266 
Q 2766 2663 2505 2880 
Q 2244 3097 1772 3097 
Q 1472 3097 1187 3025 
Q 903 2953 641 2809 
L 641 3341 
Q 956 3463 1253 3523 
Q 1550 3584 1831 3584 
Q 2591 3584 2966 3190 
Q 3341 2797 3341 1997 
z
" transform="scale(0.015625)"/>
       <path id="DejaVuSans-63" d="M 3122 3366 
L 3122 2828 
Q 2878 2963 2633 3030 
Q 2388 3097 2138 3097 
Q 1578 3097 1268 2742 
Q 959 2388 959 1747 
Q 959 1106 1268 751 
Q 1578 397 2138 397 
Q 2388 397 2633 464 
Q 2878 531 3122 666 
L 3122 134 
Q 2881 22 2623 -34 
Q 2366 -91 2075 -91 
Q 1284 -91 818 406 
Q 353 903 353 1747 
Q 353 2603 823 3093 
Q 1294 3584 2113 3584 
Q 2378 3584 2631 3529 
Q 2884 3475 3122 3366 
z
" transform="scale(0.015625)"/>
       <path id="DejaVuSans-72" d="M 2631 2963 
Q 2534 3019 2420 3045 
Q 2306 3072 2169 3072 
Q 1681 3072 1420 2755 
Q 1159 2438 1159 1844 
L 1159 0 
L 581 0 
L 581 3500 
L 1159 3500 
L 1159 2956 
Q 1341 3275 1631 3429 
Q 1922 3584 2338 3584 
Q 2397 3584 2469 3576 
Q 2541 3569 2628 3553 
L 2631 2963 
z
" transform="scale(0.015625)"/>
       <path id="DejaVuSans-65" d="M 3597 1894 
L 3597 1613 
L 953 1613 
Q 991 1019 1311 708 
Q 1631 397 2203 397 
Q 2534 397 2845 478 
Q 3156 559 3463 722 
L 3463 178 
Q 3153 47 2828 -22 
Q 2503 -91 2169 -91 
Q 1331 -91 842 396 
Q 353 884 353 1716 
Q 353 2575 817 3079 
Q 1281 3584 2069 3584 
Q 2775 3584 3186 3129 
Q 3597 2675 3597 1894 
z
M 3022 2063 
Q 3016 2534 2758 2815 
Q 2500 3097 2075 3097 
Q 1594 3097 1305 2825 
Q 1016 2553 972 2059 
L 3022 2063 
z
" transform="scale(0.015625)"/>
      </defs>
      <use xlink:href="#DejaVuSans-49"/>
      <use xlink:href="#DejaVuSans-6e" transform="translate(29.492188 0)"/>
      <use xlink:href="#DejaVuSans-73" transform="translate(92.871094 0)"/>
      <use xlink:href="#DejaVuSans-75" transform="translate(144.970703 0)"/>
      <use xlink:href="#DejaVuSans-6c" transform="translate(208.349609 0)"/>
      <use xlink:href="#DejaVuSans-61" transform="translate(236.132812 0)"/>
      <use xlink:href="#DejaVuSans-74" transform="translate(297.412109 0)"/>
      <use xlink:href="#DejaVuSans-69" transform="translate(336.621094 0)"/>
      <use xlink:href="#DejaVuSans-6f" transform="translate(364.404297 0)"/>
      <use xlink:href="#DejaVuSans-6e" transform="translate(425.585938 0)"/>
      <use xlink:href="#DejaVuSans-20" transform="translate(488.964844 0)"/>
      <use xlink:href="#DejaVuSans-73" transform="translate(520.751953 0)"/>
      <use xlink:href="#DejaVuSans-63" transform="translate(572.851562 0)"/>
      <use xlink:href="#DejaVuSans-6f" transform="translate(627.832031 0)"/>
      <use xlink:href="#DejaVuSans-72" transform="translate(689.013672 0)"/>
      <use xlink:href="#DejaVuSans-65" transform="translate(727.876953 0)"/>
     </g>
    </g>
   </g>
   <g id="line2d_14">
    <path d="M 72.086875 94.811372 
L 73.081055 93.072812 
L 74.075234 91.786735 
L 75.069414 91.085536 
L 76.063594 90.7695 
L 77.057773 90.754898 
L 78.051953 90.988827 
L 79.046133 91.472751 
L 80.040312 92.11686 
L 83.022852 94.37302 
L 85.011211 95.717183 
L 86.99957 96.698432 
L 87.99375 97.082891 
L 88.98793 97.230724 
L 89.982109 96.864501 
L 90.976289 95.958972 
L 93.958828 92.159107 
L 95.947187 90.002724 
L 96.941367 89.131973 
L 97.935547 88.587663 
L 98.929727 88.377619 
L 99.923906 88.452369 
L 100.918086 88.767548 
L 101.912266 89.411118 
L 102.906445 90.330338 
L 104.894805 92.566438 
L 105.888984 92.857352 
L 106.883164 92.291663 
L 108.871523 90.73692 
L 110.859883 89.603664 
L 111.854062 89.149587 
L 112.848242 88.864886 
L 113.842422 88.720232 
L 114.836602 88.762703 
L 115.830781 89.10027 
L 116.824961 89.898374 
L 117.819141 91.171884 
L 118.81332 92.86478 
L 119.8075 94.935448 
L 123.784219 104.300696 
L 125.772578 107.736141 
L 127.760937 110.340002 
L 128.755117 111.510397 
L 129.749297 112.479164 
L 130.743477 113.071209 
L 131.737656 113.144617 
L 132.731836 112.781356 
L 137.702734 110.147053 
L 139.691094 109.261058 
L 140.685273 109.145181 
L 141.679453 109.233964 
L 143.667812 109.759174 
L 144.661992 110.221889 
L 146.650352 111.496436 
L 149.632891 114.058796 
L 153.609609 117.596952 
L 157.586328 120.400234 
L 159.574687 122.347235 
L 160.568867 123.353694 
L 161.563047 123.860548 
L 162.557227 123.249506 
L 163.551406 121.355914 
L 165.539766 116.710282 
L 168.522305 109.960208 
L 171.504844 102.871007 
L 174.487383 96.71852 
L 175.481562 94.901029 
L 176.475742 93.564199 
L 177.469922 93.002374 
L 178.464102 93.401713 
L 179.458281 94.359254 
L 181.446641 96.613548 
L 183.435 98.77809 
L 185.423359 101.356999 
L 187.411719 104.105543 
L 188.405898 105.673339 
L 191.388437 111.0735 
L 192.382617 112.04769 
L 193.376797 112.202689 
L 194.370977 111.68329 
L 195.365156 110.836489 
L 197.353516 108.490886 
L 199.341875 105.606428 
L 200.336055 103.885579 
L 202.324414 99.848297 
L 204.312773 95.806816 
L 205.306953 94.321561 
L 206.301133 93.896481 
L 207.295312 95.111115 
L 208.289492 98.239506 
L 209.283672 102.563941 
L 214.25457 127.532886 
L 218.231289 145.431486 
L 220.219648 153.814371 
L 221.213828 157.124025 
L 222.208008 158.707134 
L 223.202187 158.329813 
L 224.196367 156.889744 
L 226.184727 153.228953 
L 231.155625 142.739464 
L 233.143984 137.458746 
L 235.132344 131.164787 
L 238.114883 120.840172 
L 239.109062 118.443771 
L 240.103242 116.645227 
L 241.097422 115.227908 
L 242.091602 114.349492 
L 243.085781 113.930666 
L 244.079961 113.919312 
L 245.074141 114.089647 
L 246.06832 114.49169 
L 248.05668 115.701972 
L 251.039219 117.635848 
L 253.027578 118.54208 
L 255.015937 119.199909 
L 256.010117 119.420638 
L 257.998477 119.562044 
L 260.981016 119.508671 
L 261.975195 119.344858 
L 262.969375 119.034026 
L 266.946094 117.101677 
L 268.934453 116.375143 
L 271.916992 115.207463 
L 273.905352 114.66409 
L 275.893711 114.352676 
L 277.88207 114.28456 
L 281.858789 114.700172 
L 283.847148 114.277323 
L 288.818047 112.778624 
L 291.800586 112.305855 
L 294.783125 111.345904 
L 295.777305 111.222603 
L 297.765664 111.348056 
L 303.730742 112.171566 
L 305.719102 112.827567 
L 310.69 114.602082 
L 312.678359 115.134604 
L 316.655078 116.02142 
L 317.649258 115.929639 
L 318.643437 115.695253 
L 320.631797 114.855878 
L 326.596875 111.625961 
L 327.591055 110.986785 
L 328.585234 110.549243 
L 329.579414 110.32686 
L 330.573594 110.234531 
L 331.567773 110.262371 
L 333.556133 110.710638 
L 336.538672 111.708937 
L 339.521211 112.733011 
L 348.468828 115.223651 
L 350.457187 116.232111 
L 352.445547 117.511623 
L 353.439727 118.040167 
L 354.433906 118.345631 
L 355.428086 118.393008 
L 359.404805 117.959439 
L 361.393164 117.682027 
L 364.375703 117.012126 
L 366.364062 116.300831 
L 368.352422 115.059341 
L 369.346602 114.380578 
L 370.340781 113.847384 
L 372.329141 113.18395 
L 374.3175 112.461127 
L 377.300039 111.122354 
L 381.276758 109.087141 
L 383.265117 108.500889 
L 388.236016 107.794728 
L 391.218555 107.854514 
L 393.206914 107.786203 
L 396.189453 107.6413 
L 400.166172 107.580884 
L 402.154531 107.805445 
L 403.148711 107.770616 
L 405.13707 107.221521 
L 409.113789 105.841607 
L 412.096328 104.398296 
L 413.090508 104.117194 
L 414.084687 104.137478 
L 415.078867 104.30773 
L 416.073047 104.63362 
L 417.067227 105.201435 
L 420.049766 107.838179 
L 422.038125 109.079103 
L 425.020664 110.682431 
L 426.014844 111.248807 
L 427.009023 111.613376 
L 428.003203 111.785978 
L 428.997383 111.798443 
L 429.991562 111.68432 
L 431.979922 111.172876 
L 433.968281 110.976667 
L 434.962461 111.057097 
L 435.956641 111.277604 
L 438.93918 112.427266 
L 440.927539 113.261837 
L 443.910078 114.156944 
L 444.904258 114.303313 
L 445.898437 114.179399 
L 446.892617 113.906051 
L 448.880977 112.928651 
L 451.863516 111.366056 
L 453.851875 110.598554 
L 457.828594 109.339279 
L 458.822773 108.853185 
L 462.799492 106.181522 
L 464.787852 105.484824 
L 466.776211 105.033458 
L 471.747109 104.273105 
L 473.735469 103.896526 
L 475.723828 103.7952 
L 478.706367 103.942932 
L 485.665625 104.472762 
L 500.57832 107.155776 
L 504.555039 107.371143 
L 506.543398 107.360194 
L 508.531758 107.624207 
L 510.520117 108.22771 
L 512.508477 109.347501 
L 513.502656 109.923309 
L 515.491016 110.760742 
L 517.479375 111.335886 
L 520.461914 111.787887 
L 522.450273 111.639292 
L 524.438633 111.110077 
L 525.432812 110.698112 
L 526.426992 110.15549 
L 529.409531 108.039011 
L 531.397891 107.018024 
L 532.39207 106.652997 
L 533.38625 106.469241 
L 534.38043 106.450264 
L 537.362969 106.677253 
L 538.357148 106.520423 
L 539.351328 106.188138 
L 541.339687 105.141918 
L 544.322227 103.325839 
L 545.316406 102.842715 
L 546.310586 102.503803 
L 547.304766 102.302503 
L 548.298945 102.25424 
L 548.298945 102.25424 
" clip-path="url(#p4d8c8b8287)" style="fill: none; stroke: #4682b4; stroke-width: 1.5; stroke-linecap: square"/>
   </g>
   <g id="patch_4">
    <path d="M 56.18 174.04 
L 56.18 25.44 
" style="fill: none; stroke: #000000; stroke-width: 0.8; stroke-linejoin: miter; stroke-linecap: square"/>
   </g>
   <g id="patch_5">
    <path d="M 565.2 174.04 
L 565.2 25.44 
" style="fill: none; stroke: #000000; stroke-width: 0.8; stroke-linejoin: miter; stroke-linecap: square"/>
   </g>
   <g id="patch_6">
    <path d="M 56.18 174.04 
L 565.2 174.04 
" style="fill: none; stroke: #000000; stroke-width: 0.8; stroke-linejoin: miter; stroke-linecap: square"/>
   </g>
   <g id="patch_7">
    <path d="M 56.18 25.44 
L 565.2 25.44 
" style="fill: none; stroke: #000000; stroke-width: 0.8; stroke-linejoin: miter; stroke-linecap: square"/>
   </g>
   <g id="text_16">
    <!-- Predicted insulation — chr3:123035648 -->
    <g transform="translate(191.806562 19.44) scale(0.12 -0.12)">
     <defs>
      <path id="DejaVuSans-64" d="M 2906 2969 
L 2906 4863 
L 3481 4863 
L 3481 0 
L 2906 0 
L 2906 525 
Q 2725 213 2448 61 
Q 2172 -91 1784 -91 
Q 1150 -91 751 415 
Q 353 922 353 1747 
Q 353 2572 751 3078 
Q 1150 3584 1784 3584 
Q 2172 3584 2448 3432 
Q 2725 3281 2906 2969 
z
M 947 1747 
Q 947 1113 1208 752 
Q 1469 391 1925 391 
Q 2381 391 2643 752 
Q 2906 1113 2906 1747 
Q 2906 2381 2643 2742 
Q 2381 3103 1925 3103 
Q 1469 3103 1208 2742 
Q 947 2381 947 1747 
z
" transform="scale(0.015625)"/>
      <path id="DejaVuSans-2014" d="M 313 1978 
L 6088 1978 
L 6088 1528 
L 313 1528 
L 313 1978 
z
" transform="scale(0.015625)"/>
      <path id="DejaVuSans-68" d="M 3513 2113 
L 3513 0 
L 2938 0 
L 2938 2094 
Q 2938 2591 2744 2837 
Q 2550 3084 2163 3084 
Q 1697 3084 1428 2787 
Q 1159 2491 1159 1978 
L 1159 0 
L 581 0 
L 581 4863 
L 1159 4863 
L 1159 2956 
Q 1366 3272 1645 3428 
Q 1925 3584 2291 3584 
Q 2894 3584 3203 3211 
Q 3513 2838 3513 2113 
z
" transform="scale(0.015625)"/>
      <path id="DejaVuSans-3a" d="M 750 794 
L 1409 794 
L 1409 0 
L 750 0 
L 750 794 
z
M 750 3309 
L 1409 3309 
L 1409 2516 
L 750 2516 
L 750 3309 
z
" transform="scale(0.015625)"/>
      <path id="DejaVuSans-38" d="M 2034 2216 
Q 1584 2216 1326 1975 
Q 1069 1734 1069 1313 
Q 1069 891 1326 650 
Q 1584 409 2034 409 
Q 2484 409 2743 651 
Q 3003 894 3003 1313 
Q 3003 1734 2745 1975 
Q 2488 2216 2034 2216 
z
M 1403 2484 
Q 997 2584 770 2862 
Q 544 3141 544 3541 
Q 544 4100 942 4425 
Q 1341 4750 2034 4750 
Q 2731 4750 3128 4425 
Q 3525 4100 3525 3541 
Q 3525 3141 3298 2862 
Q 3072 2584 2669 2484 
Q 3125 2378 3379 2068 
Q 3634 1759 3634 1313 
Q 3634 634 3220 271 
Q 2806 -91 2034 -91 
Q 1263 -91 848 271 
Q 434 634 434 1313 
Q 434 1759 690 2068 
Q 947 2378 1403 2484 
z
M 1172 3481 
Q 1172 3119 1398 2916 
Q 1625 2713 2034 2713 
Q 2441 2713 2670 2916 
Q 2900 3119 2900 3481 
Q 2900 3844 2670 4047 
Q 2441 4250 2034 4250 
Q 1625 4250 1398 4047 
Q 1172 3844 1172 3481 
z
" transform="scale(0.015625)"/>
     </defs>
     <use xlink:href="#DejaVuSans-50"/>
     <use xlink:href="#DejaVuSans-72" transform="translate(58.552734 0)"/>
     <use xlink:href="#DejaVuSans-65" transform="translate(97.416016 0)"/>
     <use xlink:href="#DejaVuSans-64" transform="translate(158.939453 0)"/>
     <use xlink:href="#DejaVuSans-69" transform="translate(222.416016 0)"/>
     <use xlink:href="#DejaVuSans-63" transform="translate(250.199219 0)"/>
     <use xlink:href="#DejaVuSans-74" transform="translate(305.179688 0)"/>
     <use xlink:href="#DejaVuSans-65" transform="translate(344.388672 0)"/>
     <use xlink:href="#DejaVuSans-64" transform="translate(405.912109 0)"/>
     <use xlink:href="#DejaVuSans-20" transform="translate(469.388672 0)"/>
     <use xlink:href="#DejaVuSans-69" transform="translate(501.175781 0)"/>
     <use xlink:href="#DejaVuSans-6e" transform="translate(528.958984 0)"/>
     <use xlink:href="#DejaVuSans-73" transform="translate(592.337891 0)"/>
     <use xlink:href="#DejaVuSans-75" transform="translate(644.4375 0)"/>
     <use xlink:href="#DejaVuSans-6c" transform="translate(707.816406 0)"/>
     <use xlink:href="#DejaVuSans-61" transform="translate(735.599609 0)"/>
     <use xlink:href="#DejaVuSans-74" transform="translate(796.878906 0)"/>
     <use xlink:href="#DejaVuSans-69" transform="translate(836.087891 0)"/>
     <use xlink:href="#DejaVuSans-6f" transform="translate(863.871094 0)"/>
     <use xlink:href="#DejaVuSans-6e" transform="translate(925.052734 0)"/>
     <use xlink:href="#DejaVuSans-20" transform="translate(988.431641 0)"/>
     <use xlink:href="#DejaVuSans-2014" transform="translate(1020.21875 0)"/>
     <use xlink:href="#DejaVuSans-20" transform="translate(1120.21875 0)"/>
     <use xlink:href="#DejaVuSans-63" transform="translate(1152.005859 0)"/>
     <use xlink:href="#DejaVuSans-68" transform="translate(1206.986328 0)"/>
     <use xlink:href="#DejaVuSans-72" transform="translate(1270.365234 0)"/>
     <use xlink:href="#DejaVuSans-33" transform="translate(1311.478516 0)"/>
     <use xlink:href="#DejaVuSans-3a" transform="translate(1375.101562 0)"/>
     <use xlink:href="#DejaVuSans-31" transform="translate(1408.792969 0)"/>
     <use xlink:href="#DejaVuSans-32" transform="translate(1472.416016 0)"/>
     <use xlink:href="#DejaVuSans-33" transform="translate(1536.039062 0)"/>
     <use xlink:href="#DejaVuSans-30" transform="translate(1599.662109 0)"/>
     <use xlink:href="#DejaVuSans-33" transform="translate(1663.285156 0)"/>
     <use xlink:href="#DejaVuSans-35" transform="translate(1726.908203 0)"/>
     <use xlink:href="#DejaVuSans-36" transform="translate(1790.53125 0)"/>
     <use xlink:href="#DejaVuSans-34" transform="translate(1854.154297 0)"/>
     <use xlink:href="#DejaVuSans-38" transform="translate(1917.777344 0)"/>
    </g>
   </g>
   <g id="legend_1">
    <g id="patch_8">
     <path d="M 472.821875 62.79625 
L 558.2 62.79625 
Q 560.2 62.79625 560.2 60.79625 
L 560.2 32.44 
Q 560.2 30.44 558.2 30.44 
L 472.821875 30.44 
Q 470.821875 30.44 470.821875 32.44 
L 470.821875 60.79625 
Q 470.821875 62.79625 472.821875 62.79625 
z
" style="fill: #ffffff; opacity: 0.8; stroke: #cccccc; stroke-linejoin: miter"/>
    </g>
    <g id="line2d_15">
     <path d="M 474.821875 38.538438 
L 484.821875 38.538438 
L 494.821875 38.538438 
" style="fill: none; stroke: #4682b4; stroke-width: 1.5; stroke-linecap: square"/>
    </g>
    <g id="text_17">
     <!-- Pred -->
     <g transform="translate(502.821875 42.038438) scale(0.1 -0.1)">
      <use xlink:href="#DejaVuSans-50"/>
      <use xlink:href="#DejaVuSans-72" transform="translate(58.552734 0)"/>
      <use xlink:href="#DejaVuSans-65" transform="translate(97.416016 0)"/>
      <use xlink:href="#DejaVuSans-64" transform="translate(158.939453 0)"/>
     </g>
    </g>
    <g id="patch_9">
     <path d="M 474.821875 56.716563 
L 494.821875 56.716563 
L 494.821875 49.716563 
L 474.821875 49.716563 
z
" style="fill: #ff0000; opacity: 0.25; stroke: #ff0000; stroke-linejoin: miter"/>
    </g>
    <g id="text_18">
     <!-- Flat region -->
     <g transform="translate(502.821875 56.716563) scale(0.1 -0.1)">
      <defs>
       <path id="DejaVuSans-46" d="M 628 4666 
L 3309 4666 
L 3309 4134 
L 1259 4134 
L 1259 2759 
L 3109 2759 
L 3109 2228 
L 1259 2228 
L 1259 0 
L 628 0 
L 628 4666 
z
" transform="scale(0.015625)"/>
       <path id="DejaVuSans-67" d="M 2906 1791 
Q 2906 2416 2648 2759 
Q 2391 3103 1925 3103 
Q 1463 3103 1205 2759 
Q 947 2416 947 1791 
Q 947 1169 1205 825 
Q 1463 481 1925 481 
Q 2391 481 2648 825 
Q 2906 1169 2906 1791 
z
M 3481 434 
Q 3481 -459 3084 -895 
Q 2688 -1331 1869 -1331 
Q 1566 -1331 1297 -1286 
Q 1028 -1241 775 -1147 
L 775 -588 
Q 1028 -725 1275 -790 
Q 1522 -856 1778 -856 
Q 2344 -856 2625 -561 
Q 2906 -266 2906 331 
L 2906 616 
Q 2728 306 2450 153 
Q 2172 0 1784 0 
Q 1141 0 747 490 
Q 353 981 353 1791 
Q 353 2603 747 3093 
Q 1141 3584 1784 3584 
Q 2172 3584 2450 3431 
Q 2728 3278 2906 2969 
L 2906 3500 
L 3481 3500 
L 3481 434 
z
" transform="scale(0.015625)"/>
      </defs>
      <use xlink:href="#DejaVuSans-46"/>
      <use xlink:href="#DejaVuSans-6c" transform="translate(57.519531 0)"/>
      <use xlink:href="#DejaVuSans-61" transform="translate(85.302734 0)"/>
      <use xlink:href="#DejaVuSans-74" transform="translate(146.582031 0)"/>
      <use xlink:href="#DejaVuSans-20" transform="translate(185.791016 0)"/>
      <use xlink:href="#DejaVuSans-72" transform="translate(217.578125 0)"/>
      <use xlink:href="#DejaVuSans-65" transform="translate(256.441406 0)"/>
      <use xlink:href="#DejaVuSans-67" transform="translate(317.964844 0)"/>
      <use xlink:href="#DejaVuSans-69" transform="translate(381.441406 0)"/>
      <use xlink:href="#DejaVuSans-6f" transform="translate(409.224609 0)"/>
      <use xlink:href="#DejaVuSans-6e" transform="translate(470.40625 0)"/>
     </g>
    </g>
   </g>
  </g>
 </g>
 <defs>
  <clipPath id="p4d8c8b8287">
   <rect x="56.18" y="25.44" width="509.02" height="148.6"/>
  </clipPath>
 </defs>
</svg>
