<?xml version="1.0" encoding="utf-8" standalone="no"?>
<!DOCTYPE svg PUBLIC "-//W3C//DTD SVG 1.1//EN"
  "http://www.w3.org/Graphics/SVG/1.1/DTD/svg11.dtd">
<svg xmlns:xlink="http://www.w3.org/1999/xlink" width="576pt" height="216pt" viewBox="0 0 576 216" xmlns="http://www.w3.org/2000/svg" version="1.1">
 <metadata>
  <rdf:RDF xmlns:dc="http://purl.org/dc/elements/1.1/" xmlns:cc="http://creativecommons.org/ns#" xmlns:rdf="http://www.w3.org/1999/02/22-rdf-syntax-ns#">
   <cc:Work>
    <dc:type rdf:resource="http://purl.org/dc/dcmitype/StillImage"/>
    <dc:date>2026-03-04T08:54:00.456502</dc:date>
    <dc:format>image/svg+xml</dc:format>
    <dc:creator>
     <cc:Agent>
      <dc:title>Matplotlib v3.10.8, https://matplotlib.org/</dc:title>
     </cc:Agent>
    </dc:creator>
   </cc:Work>
  </rdf:RDF>
 </metadata>
 <defs>
  <style type="text/css">*{stroke-linejoin: round; stroke-linecap: butt}</style>
 </defs>
 <g id="figure_1">
  <g id="patch_1">
   <path d="M 0 216 
L 576 216 
L 576 0 
L 0 0 
z
" style="fill: #ffffff"/>
  </g>
  <g id="axes_1">
   <g id="patch_2">
    <path d="M 56.18 174.04 
L 565.2 174.04 
L 565.2 25.44 
L 56.18 25.44 
z
" style="fill: #ffffff"/>
   </g>
   <g id="patch_3">
    <path d="M 115.830781 174.04 
L 254.021758 174.04 
L 254.021758 25.44 
L 115.830781 25.44 
z
" clip-path="url(#pa065f8d940)" style="fill: #ff0000; opacity: 0.25; stroke: #ff0000; stroke-linejoin: miter"/>
   </g>
   <g id="matplotlib.axis_1">
    <g id="xtick_1">
     <g id="line2d_1">
      <defs>
       <path id="m84f7d506ce" d="M 0 0 
L 0 3.5 
" style="stroke: #000000; stroke-width: 0.8"/>
      </defs>
      <g>
       <use xlink:href="#m84f7d506ce" x="56.18" y="174.04" style="stroke: #000000; stroke-width: 0.8"/>
      </g>
     </g>
     <g id="text_1">
      <!-- 0 -->
      <g transform="translate(52.99875 188.638438) scale(0.1 -0.1)">
       <defs>
        <path id="DejaVuSans-30" d="M 2034 4250 
Q 1547 4250 1301 3770 
Q 1056 3291 1056 2328 
Q 1056 1369 1301 889 
Q 1547 409 2034 409 
Q 2525 409 2770 889 
Q 3016 1369 3016 2328 
Q 3016 3291 2770 3770 
Q 2525 4250 2034 4250 
z
M 2034 4750 
Q 2819 4750 3233 4129 
Q 3647 3509 3647 2328 
Q 3647 1150 3233 529 
Q 2819 -91 2034 -91 
Q 1250 -91 836 529 
Q 422 1150 422 2328 
Q 422 3509 836 4129 
Q 1250 4750 2034 4750 
z
" transform="scale(0.015625)"/>
       </defs>
       <use xlink:href="#DejaVuSans-30"/>
      </g>
     </g>
    </g>
    <g id="xtick_2">
     <g id="line2d_2">
      <g>
       <use xlink:href="#m84f7d506ce" x="155.597969" y="174.04" style="stroke: #000000; stroke-width: 0.8"/>
      </g>
     </g>
     <g id="text_2">
      <!-- 100 -->
      <g transform="translate(146.054219 188.638438) scale(0.1 -0.1)">
       <defs>
        <path id="DejaVuSans-31" d="M 794 531 
L 1825 531 
L 1825 4091 
L 703 3866 
L 703 4441 
L 1819 4666 
L 2450 4666 
L 2450 531 
L 3481 531 
L 3481 0 
L 794 0 
L 794 531 
z
" transform="scale(0.015625)"/>
       </defs>
       <use xlink:href="#DejaVuSans-31"/>
       <use xlink:href="#DejaVuSans-30" transform="translate(63.623047 0)"/>
       <use xlink:href="#DejaVuSans-30" transform="translate(127.246094 0)"/>
      </g>
     </g>
    </g>
    <g id="xtick_3">
     <g id="line2d_3">
      <g>
       <use xlink:href="#m84f7d506ce" x="255.015937" y="174.04" style="stroke: #000000; stroke-width: 0.8"/>
      </g>
     </g>
     <g id="text_3">
      <!-- 200 -->
      <g transform="translate(245.472187 188.638438) scale(0.1 -0.1)">
       <defs>
        <path id="DejaVuSans-32" d="M 1228 531 
L 3431 531 
L 3431 0 
L 469 0 
L 469 531 
Q 828 903 1448 1529 
Q 2069 2156 2228 2338 
Q 2531 2678 2651 2914 
Q 2772 3150 2772 3378 
Q 2772 3750 2511 3984 
Q 2250 4219 1831 4219 
Q 1534 4219 1204 4116 
Q 875 4013 500 3803 
L 500 4441 
Q 881 4594 1212 4672 
Q 1544 4750 1819 4750 
Q 2544 4750 2975 4387 
Q 3406 4025 3406 3419 
Q 3406 3131 3298 2873 
Q 3191 2616 2906 2266 
Q 2828 2175 2409 1742 
Q 1991 1309 1228 531 
z
" transform="scale(0.015625)"/>
       </defs>
       <use xlink:href="#DejaVuSans-32"/>
       <use xlink:href="#DejaVuSans-30" transform="translate(63.623047 0)"/>
       <use xlink:href="#DejaVuSans-30" transform="translate(127.246094 0)"/>
      </g>
     </g>
    </g>
    <g id="xtick_4">
     <g id="line2d_4">
      <g>
       <use xlink:href="#m84f7d506ce" x="354.433906" y="174.04" style="stroke: #000000; stroke-width: 0.8"/>
      </g>
     </g>
     <g id="text_4">
      <!-- 300 -->
      <g transform="translate(344.890156 188.638438) scale(0.1 -0.1)">
       <defs>
        <path id="DejaVuSans-33" d="M 2597 2516 
Q 3050 2419 3304 2112 
Q 3559 1806 3559 1356 
Q 3559 666 3084 287 
Q 2609 -91 1734 -91 
Q 1441 -91 1130 -33 
Q 819 25 488 141 
L 488 750 
Q 750 597 1062 519 
Q 1375 441 1716 441 
Q 2309 441 2620 675 
Q 2931 909 2931 1356 
Q 2931 1769 2642 2001 
Q 2353 2234 1838 2234 
L 1294 2234 
L 1294 2753 
L 1863 2753 
Q 2328 2753 2575 2939 
Q 2822 3125 2822 3475 
Q 2822 3834 2567 4026 
Q 2313 4219 1838 4219 
Q 1578 4219 1281 4162 
Q 984 4106 628 3988 
L 628 4550 
Q 988 4650 1302 4700 
Q 1616 4750 1894 4750 
Q 2613 4750 3031 4423 
Q 3450 4097 3450 3541 
Q 3450 3153 3228 2886 
Q 3006 2619 2597 2516 
z
" transform="scale(0.015625)"/>
       </defs>
       <use xlink:href="#DejaVuSans-33"/>
       <use xlink:href="#DejaVuSans-30" transform="translate(63.623047 0)"/>
       <use xlink:href="#DejaVuSans-30" transform="translate(127.246094 0)"/>
      </g>
     </g>
    </g>
    <g id="xtick_5">
     <g id="line2d_5">
      <g>
       <use xlink:href="#m84f7d506ce" x="453.851875" y="174.04" style="stroke: #000000; stroke-width: 0.8"/>
      </g>
     </g>
     <g id="text_5">
      <!-- 400 -->
      <g transform="translate(444.308125 188.638438) scale(0.1 -0.1)">
       <defs>
        <path id="DejaVuSans-34" d="M 2419 4116 
L 825 1625 
L 2419 1625 
L 2419 4116 
z
M 2253 4666 
L 3047 4666 
L 3047 1625 
L 3713 1625 
L 3713 1100 
L 3047 1100 
L 3047 0 
L 2419 0 
L 2419 1100 
L 313 1100 
L 313 1709 
L 2253 4666 
z
" transform="scale(0.015625)"/>
       </defs>
       <use xlink:href="#DejaVuSans-34"/>
       <use xlink:href="#DejaVuSans-30" transform="translate(63.623047 0)"/>
       <use xlink:href="#DejaVuSans-30" transform="translate(127.246094 0)"/>
      </g>
     </g>
    </g>
    <g id="xtick_6">
     <g id="line2d_6">
      <g>
       <use xlink:href="#m84f7d506ce" x="553.269844" y="174.04" style="stroke: #000000; stroke-width: 0.8"/>
      </g>
     </g>
     <g id="text_6">
      <!-- 500 -->
      <g transform="translate(543.726094 188.638438) scale(0.1 -0.1)">
       <defs>
        <path id="DejaVuSans-35" d="M 691 4666 
L 3169 4666 
L 3169 4134 
L 1269 4134 
L 1269 2991 
Q 1406 3038 1543 3061 
Q 1681 3084 1819 3084 
Q 2600 3084 3056 2656 
Q 3513 2228 3513 1497 
Q 3513 744 3044 326 
Q 2575 -91 1722 -91 
Q 1428 -91 1123 -41 
Q 819 9 494 109 
L 494 744 
Q 775 591 1075 516 
Q 1375 441 1709 441 
Q 2250 441 2565 725 
Q 2881 1009 2881 1497 
Q 2881 1984 2565 2268 
Q 2250 2553 1709 2553 
Q 1456 2553 1204 2497 
Q 953 2441 691 2322 
L 691 4666 
z
" transform="scale(0.015625)"/>
       </defs>
       <use xlink:href="#DejaVuSans-35"/>
       <use xlink:href="#DejaVuSans-30" transform="translate(63.623047 0)"/>
       <use xlink:href="#DejaVuSans-30" transform="translate(127.246094 0)"/>
      </g>
     </g>
    </g>
    <g id="text_7">
     <!-- Position (bins) -->
     <g transform="translate(275.398594 202.316563) scale(0.1 -0.1)">
      <defs>
       <path id="DejaVuSans-50" d="M 1259 4147 
L 1259 2394 
L 2053 2394 
Q 2494 2394 2734 2622 
Q 2975 2850 2975 3272 
Q 2975 3691 2734 3919 
Q 2494 4147 2053 4147 
L 1259 4147 
z
M 628 4666 
L 2053 4666 
Q 2838 4666 3239 4311 
Q 3641 3956 3641 3272 
Q 3641 2581 3239 2228 
Q 2838 1875 2053 1875 
L 1259 1875 
L 1259 0 
L 628 0 
L 628 4666 
z
" transform="scale(0.015625)"/>
       <path id="DejaVuSans-6f" d="M 1959 3097 
Q 1497 3097 1228 2736 
Q 959 2375 959 1747 
Q 959 1119 1226 758 
Q 1494 397 1959 397 
Q 2419 397 2687 759 
Q 2956 1122 2956 1747 
Q 2956 2369 2687 2733 
Q 2419 3097 1959 3097 
z
M 1959 3584 
Q 2709 3584 3137 3096 
Q 3566 2609 3566 1747 
Q 3566 888 3137 398 
Q 2709 -91 1959 -91 
Q 1206 -91 779 398 
Q 353 888 353 1747 
Q 353 2609 779 3096 
Q 1206 3584 1959 3584 
z
" transform="scale(0.015625)"/>
       <path id="DejaVuSans-73" d="M 2834 3397 
L 2834 2853 
Q 2591 2978 2328 3040 
Q 2066 3103 1784 3103 
Q 1356 3103 1142 2972 
Q 928 2841 928 2578 
Q 928 2378 1081 2264 
Q 1234 2150 1697 2047 
L 1894 2003 
Q 2506 1872 2764 1633 
Q 3022 1394 3022 966 
Q 3022 478 2636 193 
Q 2250 -91 1575 -91 
Q 1294 -91 989 -36 
Q 684 19 347 128 
L 347 722 
Q 666 556 975 473 
Q 1284 391 1588 391 
Q 1994 391 2212 530 
Q 2431 669 2431 922 
Q 2431 1156 2273 1281 
Q 2116 1406 1581 1522 
L 1381 1569 
Q 847 1681 609 1914 
Q 372 2147 372 2553 
Q 372 3047 722 3315 
Q 1072 3584 1716 3584 
Q 2034 3584 2315 3537 
Q 2597 3491 2834 3397 
z
" transform="scale(0.015625)"/>
       <path id="DejaVuSans-69" d="M 603 3500 
L 1178 3500 
L 1178 0 
L 603 0 
L 603 3500 
z
M 603 4863 
L 1178 4863 
L 1178 4134 
L 603 4134 
L 603 4863 
z
" transform="scale(0.015625)"/>
       <path id="DejaVuSans-74" d="M 1172 4494 
L 1172 3500 
L 2356 3500 
L 2356 3053 
L 1172 3053 
L 1172 1153 
Q 1172 725 1289 603 
Q 1406 481 1766 481 
L 2356 481 
L 2356 0 
L 1766 0 
Q 1100 0 847 248 
Q 594 497 594 1153 
L 594 3053 
L 172 3053 
L 172 3500 
L 594 3500 
L 594 4494 
L 1172 4494 
z
" transform="scale(0.015625)"/>
       <path id="DejaVuSans-6e" d="M 3513 2113 
L 3513 0 
L 2938 0 
L 2938 2094 
Q 2938 2591 2744 2837 
Q 2550 3084 2163 3084 
Q 1697 3084 1428 2787 
Q 1159 2491 1159 1978 
L 1159 0 
L 581 0 
L 581 3500 
L 1159 3500 
L 1159 2956 
Q 1366 3272 1645 3428 
Q 1925 3584 2291 3584 
Q 2894 3584 3203 3211 
Q 3513 2838 3513 2113 
z
" transform="scale(0.015625)"/>
       <path id="DejaVuSans-20" transform="scale(0.015625)"/>
       <path id="DejaVuSans-28" d="M 1984 4856 
Q 1566 4138 1362 3434 
Q 1159 2731 1159 2009 
Q 1159 1288 1364 580 
Q 1569 -128 1984 -844 
L 1484 -844 
Q 1016 -109 783 600 
Q 550 1309 550 2009 
Q 550 2706 781 3412 
Q 1013 4119 1484 4856 
L 1984 4856 
z
" transform="scale(0.015625)"/>
       <path id="DejaVuSans-62" d="M 3116 1747 
Q 3116 2381 2855 2742 
Q 2594 3103 2138 3103 
Q 1681 3103 1420 2742 
Q 1159 2381 1159 1747 
Q 1159 1113 1420 752 
Q 1681 391 2138 391 
Q 2594 391 2855 752 
Q 3116 1113 3116 1747 
z
M 1159 2969 
Q 1341 3281 1617 3432 
Q 1894 3584 2278 3584 
Q 2916 3584 3314 3078 
Q 3713 2572 3713 1747 
Q 3713 922 3314 415 
Q 2916 -91 2278 -91 
Q 1894 -91 1617 61 
Q 1341 213 1159 525 
L 1159 0 
L 581 0 
L 581 4863 
L 1159 4863 
L 1159 2969 
z
" transform="scale(0.015625)"/>
       <path id="DejaVuSans-29" d="M 513 4856 
L 1013 4856 
Q 1481 4119 1714 3412 
Q 1947 2706 1947 2009 
Q 1947 1309 1714 600 
Q 1481 -109 1013 -844 
L 513 -844 
Q 928 -128 1133 580 
Q 1338 1288 1338 2009 
Q 1338 2731 1133 3434 
Q 928 4138 513 4856 
z
" transform="scale(0.015625)"/>
      </defs>
      <use xlink:href="#DejaVuSans-50"/>
      <use xlink:href="#DejaVuSans-6f" transform="translate(56.677734 0)"/>
      <use xlink:href="#DejaVuSans-73" transform="translate(117.859375 0)"/>
      <use xlink:href="#DejaVuSans-69" transform="translate(169.958984 0)"/>
      <use xlink:href="#DejaVuSans-74" transform="translate(197.742188 0)"/>
      <use xlink:href="#DejaVuSans-69" transform="translate(236.951172 0)"/>
      <use xlink:href="#DejaVuSans-6f" transform="translate(264.734375 0)"/>
      <use xlink:href="#DejaVuSans-6e" transform="translate(325.916016 0)"/>
      <use xlink:href="#DejaVuSans-20" transform="translate(389.294922 0)"/>
      <use xlink:href="#DejaVuSans-28" transform="translate(421.082031 0)"/>
      <use xlink:href="#DejaVuSans-62" transform="translate(460.095703 0)"/>
      <use xlink:href="#DejaVuSans-69" transform="translate(523.572266 0)"/>
      <use xlink:href="#DejaVuSans-6e" transform="translate(551.355469 0)"/>
      <use xlink:href="#DejaVuSans-73" transform="translate(614.734375 0)"/>
      <use xlink:href="#DejaVuSans-29" transform="translate(666.833984 0)"/>
     </g>
    </g>
   </g>
   <g id="matplotlib.axis_2">
    <g id="ytick_1">
     <g id="line2d_7">
      <defs>
       <path id="m742b271f28" d="M 0 0 
L -3.5 0 
" style="stroke: #000000; stroke-width: 0.8"/>
      </defs>
      <g>
       <use xlink:href="#m742b271f28" x="56.18" y="174.04" style="stroke: #000000; stroke-width: 0.8"/>
      </g>
     </g>
     <g id="text_8">
      <!-- −0.6 -->
      <g transform="translate(24.897188 177.839219) scale(0.1 -0.1)">
       <defs>
        <path id="DejaVuSans-2212" d="M 678 2272 
L 4684 2272 
L 4684 1741 
L 678 1741 
L 678 2272 
z
" transform="scale(0.015625)"/>
        <path id="DejaVuSans-2e" d="M 684 794 
L 1344 794 
L 1344 0 
L 684 0 
L 684 794 
z
" transform="scale(0.015625)"/>
        <path id="DejaVuSans-36" d="M 2113 2584 
Q 1688 2584 1439 2293 
Q 1191 2003 1191 1497 
Q 1191 994 1439 701 
Q 1688 409 2113 409 
Q 2538 409 2786 701 
Q 3034 994 3034 1497 
Q 3034 2003 2786 2293 
Q 2538 2584 2113 2584 
z
M 3366 4563 
L 3366 3988 
Q 3128 4100 2886 4159 
Q 2644 4219 2406 4219 
Q 1781 4219 1451 3797 
Q 1122 3375 1075 2522 
Q 1259 2794 1537 2939 
Q 1816 3084 2150 3084 
Q 2853 3084 3261 2657 
Q 3669 2231 3669 1497 
Q 3669 778 3244 343 
Q 2819 -91 2113 -91 
Q 1303 -91 875 529 
Q 447 1150 447 2328 
Q 447 3434 972 4092 
Q 1497 4750 2381 4750 
Q 2619 4750 2861 4703 
Q 3103 4656 3366 4563 
z
" transform="scale(0.015625)"/>
       </defs>
       <use xlink:href="#DejaVuSans-2212"/>
       <use xlink:href="#DejaVuSans-30" transform="translate(83.789062 0)"/>
       <use xlink:href="#DejaVuSans-2e" transform="translate(147.412109 0)"/>
       <use xlink:href="#DejaVuSans-36" transform="translate(179.199219 0)"/>
      </g>
     </g>
    </g>
    <g id="ytick_2">
     <g id="line2d_8">
      <g>
       <use xlink:href="#m742b271f28" x="56.18" y="149.273333" style="stroke: #000000; stroke-width: 0.8"/>
      </g>
     </g>
     <g id="text_9">
      <!-- −0.4 -->
      <g transform="translate(24.897188 153.072552) scale(0.1 -0.1)">
       <use xlink:href="#DejaVuSans-2212"/>
       <use xlink:href="#DejaVuSans-30" transform="translate(83.789062 0)"/>
       <use xlink:href="#DejaVuSans-2e" transform="translate(147.412109 0)"/>
       <use xlink:href="#DejaVuSans-34" transform="translate(179.199219 0)"/>
      </g>
     </g>
    </g>
    <g id="ytick_3">
     <g id="line2d_9">
      <g>
       <use xlink:href="#m742b271f28" x="56.18" y="124.506667" style="stroke: #000000; stroke-width: 0.8"/>
      </g>
     </g>
     <g id="text_10">
      <!-- −0.2 -->
      <g transform="translate(24.897188 128.305885) scale(0.1 -0.1)">
       <use xlink:href="#DejaVuSans-2212"/>
       <use xlink:href="#DejaVuSans-30" transform="translate(83.789062 0)"/>
       <use xlink:href="#DejaVuSans-2e" transform="translate(147.412109 0)"/>
       <use xlink:href="#DejaVuSans-32" transform="translate(179.199219 0)"/>
      </g>
     </g>
    </g>
    <g id="ytick_4">
     <g id="line2d_10">
      <g>
       <use xlink:href="#m742b271f28" x="56.18" y="99.74" style="stroke: #000000; stroke-width: 0.8"/>
      </g>
     </g>
     <g id="text_11">
      <!-- 0.0 -->
      <g transform="translate(33.276875 103.539219) scale(0.1 -0.1)">
       <use xlink:href="#DejaVuSans-30"/>
       <use xlink:href="#DejaVuSans-2e" transform="translate(63.623047 0)"/>
       <use xlink:href="#DejaVuSans-30" transform="translate(95.410156 0)"/>
      </g>
     </g>
    </g>
    <g id="ytick_5">
     <g id="line2d_11">
      <g>
       <use xlink:href="#m742b271f28" x="56.18" y="74.973333" style="stroke: #000000; stroke-width: 0.8"/>
      </g>
     </g>
     <g id="text_12">
      <!-- 0.2 -->
      <g transform="translate(33.276875 78.772552) scale(0.1 -0.1)">
       <use xlink:href="#DejaVuSans-30"/>
       <use xlink:href="#DejaVuSans-2e" transform="translate(63.623047 0)"/>
       <use xlink:href="#DejaVuSans-32" transform="translate(95.410156 0)"/>
      </g>
     </g>
    </g>
    <g id="ytick_6">
     <g id="line2d_12">
      <g>
       <use xlink:href="#m742b271f28" x="56.18" y="50.206667" style="stroke: #000000; stroke-width: 0.8"/>
      </g>
     </g>
     <g id="text_13">
      <!-- 0.4 -->
      <g transform="translate(33.276875 54.005885) scale(0.1 -0.1)">
       <use xlink:href="#DejaVuSans-30"/>
       <use xlink:href="#DejaVuSans-2e" transform="translate(63.623047 0)"/>
       <use xlink:href="#DejaVuSans-34" transform="translate(95.410156 0)"/>
      </g>
     </g>
    </g>
    <g id="ytick_7">
     <g id="line2d_13">
      <g>
       <use xlink:href="#m742b271f28" x="56.18" y="25.44" style="stroke: #000000; stroke-width: 0.8"/>
      </g>
     </g>
     <g id="text_14">
      <!-- 0.6 -->
      <g transform="translate(33.276875 29.239219) scale(0.1 -0.1)">
       <use xlink:href="#DejaVuSans-30"/>
       <use xlink:href="#DejaVuSans-2e" transform="translate(63.623047 0)"/>
       <use xlink:href="#DejaVuSans-36" transform="translate(95.410156 0)"/>
      </g>
     </g>
    </g>
    <g id="text_15">
     <!-- Insulation score -->
     <g transform="translate(18.8175 139.209531) rotate(-90) scale(0.1 -0.1)">
      <defs>
       <path id="DejaVuSans-49" d="M 628 4666 
L 1259 4666 
L 1259 0 
L 628 0 
L 628 4666 
z
" transform="scale(0.015625)"/>
       <path id="DejaVuSans-75" d="M 544 1381 
L 544 3500 
L 1119 3500 
L 1119 1403 
Q 1119 906 1312 657 
Q 1506 409 1894 409 
Q 2359 409 2629 706 
Q 2900 1003 2900 1516 
L 2900 3500 
L 3475 3500 
L 3475 0 
L 2900 0 
L 2900 538 
Q 2691 219 2414 64 
Q 2138 -91 1772 -91 
Q 1169 -91 856 284 
Q 544 659 544 1381 
z
M 1991 3584 
L 1991 3584 
z
" transform="scale(0.015625)"/>
       <path id="DejaVuSans-6c" d="M 603 4863 
L 1178 4863 
L 1178 0 
L 603 0 
L 603 4863 
z
" transform="scale(0.015625)"/>
       <path id="DejaVuSans-61" d="M 2194 1759 
Q 1497 1759 1228 1600 
Q 959 1441 959 1056 
Q 959 750 1161 570 
Q 1363 391 1709 391 
Q 2188 391 2477 730 
Q 2766 1069 2766 1631 
L 2766 1759 
L 2194 1759 
z
M 3341 1997 
L 3341 0 
L 2766 0 
L 2766 531 
Q 2569 213 2275 61 
Q 1981 -91 1556 -91 
Q 1019 -91 701 211 
Q 384 513 384 1019 
Q 384 1609 779 1909 
Q 1175 2209 1959 2209 
L 2766 2209 
L 2766 2266 
Q 2766 2663 2505 2880 
Q 2244 3097 1772 3097 
Q 1472 3097 1187 3025 
Q 903 2953 641 2809 
L 641 3341 
Q 956 3463 1253 3523 
Q 1550 3584 1831 3584 
Q 2591 3584 2966 3190 
Q 3341 2797 3341 1997 
z
" transform="scale(0.015625)"/>
       <path id="DejaVuSans-63" d="M 3122 3366 
L 3122 2828 
Q 2878 2963 2633 3030 
Q 2388 3097 2138 3097 
Q 1578 3097 1268 2742 
Q 959 2388 959 1747 
Q 959 1106 1268 751 
Q 1578 397 2138 397 
Q 2388 397 2633 464 
Q 2878 531 3122 666 
L 3122 134 
Q 2881 22 2623 -34 
Q 2366 -91 2075 -91 
Q 1284 -91 818 406 
Q 353 903 353 1747 
Q 353 2603 823 3093 
Q 1294 3584 2113 3584 
Q 2378 3584 2631 3529 
Q 2884 3475 3122 3366 
z
" transform="scale(0.015625)"/>
       <path id="DejaVuSans-72" d="M 2631 2963 
Q 2534 3019 2420 3045 
Q 2306 3072 2169 3072 
Q 1681 3072 1420 2755 
Q 1159 2438 1159 1844 
L 1159 0 
L 581 0 
L 581 3500 
L 1159 3500 
L 1159 2956 
Q 1341 3275 1631 3429 
Q 1922 3584 2338 3584 
Q 2397 3584 2469 3576 
Q 2541 3569 2628 3553 
L 2631 2963 
z
" transform="scale(0.015625)"/>
       <path id="DejaVuSans-65" d="M 3597 1894 
L 3597 1613 
L 953 1613 
Q 991 1019 1311 708 
Q 1631 397 2203 397 
Q 2534 397 2845 478 
Q 3156 559 3463 722 
L 3463 178 
Q 3153 47 2828 -22 
Q 2503 -91 2169 -91 
Q 1331 -91 842 396 
Q 353 884 353 1716 
Q 353 2575 817 3079 
Q 1281 3584 2069 3584 
Q 2775 3584 3186 3129 
Q 3597 2675 3597 1894 
z
M 3022 2063 
Q 3016 2534 2758 2815 
Q 2500 3097 2075 3097 
Q 1594 3097 1305 2825 
Q 1016 2553 972 2059 
L 3022 2063 
z
" transform="scale(0.015625)"/>
      </defs>
      <use xlink:href="#DejaVuSans-49"/>
      <use xlink:href="#DejaVuSans-6e" transform="translate(29.492188 0)"/>
      <use xlink:href="#DejaVuSans-73" transform="translate(92.871094 0)"/>
      <use xlink:href="#DejaVuSans-75" transform="translate(144.970703 0)"/>
      <use xlink:href="#DejaVuSans-6c" transform="translate(208.349609 0)"/>
      <use xlink:href="#DejaVuSans-61" transform="translate(236.132812 0)"/>
      <use xlink:href="#DejaVuSans-74" transform="translate(297.412109 0)"/>
      <use xlink:href="#DejaVuSans-69" transform="translate(336.621094 0)"/>
      <use xlink:href="#DejaVuSans-6f" transform="translate(364.404297 0)"/>
      <use xlink:href="#DejaVuSans-6e" transform="translate(425.585938 0)"/>
      <use xlink:href="#DejaVuSans-20" transform="translate(488.964844 0)"/>
      <use xlink:href="#DejaVuSans-73" transform="translate(520.751953 0)"/>
      <use xlink:href="#DejaVuSans-63" transform="translate(572.851562 0)"/>
      <use xlink:href="#DejaVuSans-6f" transform="translate(627.832031 0)"/>
      <use xlink:href="#DejaVuSans-72" transform="translate(689.013672 0)"/>
      <use xlink:href="#DejaVuSans-65" transform="translate(727.876953 0)"/>
     </g>
    </g>
   </g>
   <g id="line2d_14">
    <path d="M 72.086875 116.949792 
L 73.081055 117.658328 
L 74.075234 118.739592 
L 75.069414 118.839754 
L 76.063594 117.718038 
L 77.057773 117.123758 
L 78.051953 117.887559 
L 80.040312 120.327298 
L 82.028672 124.057154 
L 83.022852 125.101228 
L 84.017031 125.426331 
L 85.011211 125.119223 
L 86.005391 124.246395 
L 90.976289 117.414954 
L 91.970469 115.905631 
L 92.964648 115.607694 
L 93.958828 116.419919 
L 94.953008 116.873626 
L 95.947187 117.079053 
L 97.935547 119.28427 
L 98.929727 119.346669 
L 99.923906 119.260346 
L 100.918086 119.574451 
L 101.912266 119.23605 
L 103.900625 117.320449 
L 105.888984 116.214213 
L 108.871523 113.620286 
L 109.865703 113.15501 
L 110.859883 113.313997 
L 111.854062 113.749183 
L 112.848242 113.350271 
L 113.842422 112.131438 
L 114.836602 111.580873 
L 115.830781 112.494077 
L 116.824961 113.824092 
L 117.819141 114.624714 
L 119.8075 115.632618 
L 120.80168 114.912724 
L 121.795859 113.692233 
L 122.790039 112.810034 
L 123.784219 111.497127 
L 127.760937 105.575424 
L 128.755117 105.734234 
L 129.749297 106.723752 
L 131.737656 108.344013 
L 132.731836 109.339543 
L 133.726016 109.717169 
L 135.714375 108.100068 
L 137.702734 107.635565 
L 138.696914 107.044351 
L 140.685273 106.369146 
L 142.673633 105.931926 
L 143.667812 105.234283 
L 144.661992 104.319627 
L 145.656172 103.994063 
L 146.650352 104.29645 
L 150.62707 106.709324 
L 151.62125 107.879756 
L 153.609609 110.541934 
L 155.597969 112.152253 
L 156.592148 112.845678 
L 157.586328 113.034489 
L 161.563047 111.775646 
L 162.557227 112.475913 
L 163.551406 113.900784 
L 164.545586 114.813031 
L 165.539766 113.796809 
L 167.528125 108.90872 
L 168.522305 107.599294 
L 169.516484 107.184931 
L 170.510664 106.507205 
L 171.504844 105.68104 
L 172.499023 105.61329 
L 173.493203 106.958134 
L 174.487383 108.902714 
L 175.481562 110.592417 
L 176.475742 111.523923 
L 177.469922 110.961626 
L 179.458281 107.879604 
L 181.446641 104.153206 
L 182.44082 103.072296 
L 184.42918 103.146096 
L 185.423359 101.746078 
L 186.417539 99.821639 
L 187.411719 98.587141 
L 190.394258 97.118505 
L 191.388437 97.344871 
L 193.376797 100.83787 
L 194.370977 101.436786 
L 195.365156 101.580802 
L 196.359336 101.93826 
L 197.353516 102.493179 
L 198.347695 103.222699 
L 199.341875 103.812559 
L 200.336055 104.65747 
L 201.330234 106.021135 
L 202.324414 107.162368 
L 203.318594 107.266234 
L 205.306953 105.946857 
L 206.301133 105.655819 
L 207.295312 106.527374 
L 209.283672 110.854618 
L 210.277852 112.076359 
L 211.272031 112.981021 
L 212.266211 113.515056 
L 214.25457 113.071585 
L 215.24875 112.826854 
L 216.24293 112.796904 
L 218.231289 113.293834 
L 219.225469 113.219599 
L 220.219648 112.920397 
L 221.213828 112.18271 
L 223.202187 109.351294 
L 224.196367 108.43504 
L 225.190547 108.45806 
L 227.178906 110.069927 
L 228.173086 110.588414 
L 229.167266 111.429907 
L 230.161445 112.884661 
L 231.155625 113.52507 
L 232.149805 113.852606 
L 233.143984 114.478731 
L 234.138164 114.934018 
L 235.132344 114.688467 
L 236.126523 113.591289 
L 237.120703 112.736796 
L 238.114883 112.573765 
L 239.109062 112.166188 
L 240.103242 111.030683 
L 242.091602 108.141365 
L 243.085781 107.55454 
L 244.079961 107.252166 
L 245.074141 106.666371 
L 246.06832 106.243922 
L 247.0625 106.055761 
L 248.05668 105.501889 
L 251.039219 102.496632 
L 252.033398 102.056811 
L 254.021758 101.871233 
L 255.015937 102.379701 
L 256.010117 103.49232 
L 257.004297 104.390838 
L 257.998477 104.768265 
L 258.992656 104.881424 
L 259.986836 104.746376 
L 260.981016 105.240652 
L 263.963555 110.039659 
L 264.957734 111.837907 
L 265.951914 114.354816 
L 268.934453 122.577117 
L 269.928633 124.313944 
L 270.922812 126.41915 
L 272.911172 131.677006 
L 273.905352 132.967541 
L 274.899531 132.073251 
L 276.887891 126.900045 
L 277.88207 125.274372 
L 278.87625 125.256083 
L 280.864609 126.791739 
L 281.858789 128.060087 
L 283.847148 131.827604 
L 284.841328 132.842791 
L 285.835508 132.32737 
L 286.829687 130.472638 
L 288.818047 124.618814 
L 292.794766 112.949107 
L 293.788945 110.602158 
L 294.783125 108.680928 
L 295.777305 107.627815 
L 296.771484 107.436346 
L 298.759844 108.044124 
L 299.754023 107.458374 
L 300.748203 106.020053 
L 301.742383 104.858346 
L 302.736562 104.954142 
L 304.724922 106.091418 
L 305.719102 106.256649 
L 306.713281 105.306433 
L 307.707461 103.788362 
L 308.701641 102.885441 
L 309.69582 102.457371 
L 310.69 101.563292 
L 311.68418 100.39588 
L 312.678359 100.587955 
L 313.672539 103.221718 
L 314.666719 106.334443 
L 315.660898 108.687829 
L 316.655078 110.244056 
L 317.649258 110.842704 
L 319.637617 110.48375 
L 320.631797 110.995745 
L 321.625977 112.138485 
L 322.620156 112.892249 
L 323.614336 112.844291 
L 324.608516 113.030683 
L 325.602695 114.430157 
L 326.596875 116.560284 
L 327.591055 117.984895 
L 331.567773 120.196294 
L 332.561953 120.293895 
L 333.556133 119.632683 
L 334.550312 119.322957 
L 335.544492 119.6479 
L 336.538672 119.709042 
L 337.532852 119.33065 
L 338.527031 118.45081 
L 339.521211 116.970682 
L 341.50957 112.642289 
L 342.50375 111.869696 
L 343.49793 111.610572 
L 344.492109 110.265621 
L 345.486289 108.188916 
L 346.480469 106.446842 
L 347.474648 105.070795 
L 348.468828 104.321942 
L 349.463008 104.707098 
L 350.457187 105.567491 
L 351.451367 107.193645 
L 352.445547 109.331656 
L 353.439727 110.307694 
L 354.433906 109.828876 
L 356.422266 107.249348 
L 357.416445 105.40831 
L 359.404805 100.990563 
L 360.398984 99.483327 
L 364.375703 95.219019 
L 366.364062 92.130394 
L 367.358242 91.648563 
L 368.352422 92.428597 
L 369.346602 93.795655 
L 373.32332 100.153068 
L 376.305859 107.33179 
L 377.300039 108.760822 
L 378.294219 108.987341 
L 379.288398 107.949523 
L 380.282578 107.137874 
L 381.276758 106.586198 
L 382.270937 105.382746 
L 383.265117 103.781549 
L 384.259297 102.57654 
L 385.253477 101.59311 
L 386.247656 100.813614 
L 387.241836 101.041595 
L 388.236016 101.606527 
L 389.230195 101.559813 
L 390.224375 101.675887 
L 391.218555 103.043333 
L 392.212734 104.995677 
L 393.206914 106.605407 
L 394.201094 107.405264 
L 395.195273 106.938821 
L 396.189453 105.610297 
L 397.183633 103.99293 
L 398.177812 102.598765 
L 399.171992 101.691191 
L 401.160352 100.268911 
L 402.154531 99.7644 
L 403.148711 100.396881 
L 404.142891 101.965578 
L 405.13707 103.281721 
L 406.13125 104.103444 
L 407.12543 105.230478 
L 408.119609 105.819477 
L 409.113789 105.076774 
L 410.107969 104.165829 
L 411.102148 103.944557 
L 412.096328 104.386137 
L 414.084687 105.894955 
L 416.073047 106.527161 
L 417.067227 107.600036 
L 418.061406 109.299492 
L 421.043945 113.201506 
L 422.038125 113.302467 
L 423.032305 111.784319 
L 424.026484 109.565479 
L 425.020664 108.372062 
L 426.014844 108.762649 
L 427.009023 109.612228 
L 428.997383 110.132963 
L 429.991562 110.608998 
L 431.979922 110.750852 
L 432.974102 112.026676 
L 434.962461 115.738065 
L 435.956641 116.888677 
L 437.945 118.052054 
L 438.93918 118.257044 
L 439.933359 118.296984 
L 440.927539 118.149359 
L 441.921719 116.994538 
L 442.915898 115.13395 
L 443.910078 114.377886 
L 444.904258 115.081106 
L 445.898437 115.500436 
L 447.886797 115.168577 
L 448.880977 115.393466 
L 449.875156 116.085005 
L 450.869336 117.136643 
L 451.863516 118.418988 
L 452.857695 120.631427 
L 453.851875 124.502219 
L 457.828594 146.460894 
L 461.805312 166.601151 
L 463.793672 172.987382 
L 464.787852 175.627761 
L 466.776211 179.419182 
L 467.770391 180.467338 
L 468.76457 179.849542 
L 469.75875 177.491578 
L 470.75293 173.467491 
L 473.735469 157.040946 
L 474.729648 151.527008 
L 476.718008 138.722834 
L 477.712187 131.615004 
L 481.688906 99.159226 
L 484.671445 71.764607 
L 485.665625 62.801099 
L 486.659805 55.100102 
L 487.653984 48.537051 
L 488.648164 42.853311 
L 489.642344 38.26964 
L 490.636523 35.166059 
L 491.630703 33.623626 
L 492.624883 33.356258 
L 493.619062 34.835969 
L 494.613242 38.54489 
L 496.601602 49.867465 
L 499.584141 69.844565 
L 500.57832 74.649005 
L 501.5725 78.138055 
L 504.555039 86.956688 
L 507.537578 95.35336 
L 508.531758 95.306656 
L 509.525937 92.48993 
L 511.514297 83.843404 
L 512.508477 81.883256 
L 513.502656 82.182867 
L 514.496836 84.215951 
L 515.491016 87.789661 
L 516.485195 92.899858 
L 518.473555 104.542179 
L 521.456094 118.542279 
L 522.450273 124.813944 
L 524.438633 140.298053 
L 525.432812 147.71504 
L 526.426992 153.144493 
L 527.421172 156.631463 
L 528.415352 157.105819 
L 529.409531 153.248109 
L 530.403711 146.244021 
L 534.38043 114.010257 
L 537.362969 88.500955 
L 539.351328 68.838717 
L 541.339687 48.641836 
L 542.333867 39.438287 
L 543.328047 32.745058 
L 544.322227 30.018197 
L 545.316406 30.662082 
L 546.310586 32.741149 
L 547.304766 35.174663 
L 548.298945 38.553137 
L 548.298945 38.553137 
" clip-path="url(#pa065f8d940)" style="fill: none; stroke: #000000; stroke-width: 1.5; stroke-linecap: square"/>
   </g>
   <g id="patch_4">
    <path d="M 56.18 174.04 
L 56.18 25.44 
" style="fill: none; stroke: #000000; stroke-width: 0.8; stroke-linejoin: miter; stroke-linecap: square"/>
   </g>
   <g id="patch_5">
    <path d="M 565.2 174.04 
L 565.2 25.44 
" style="fill: none; stroke: #000000; stroke-width: 0.8; stroke-linejoin: miter; stroke-linecap: square"/>
   </g>
   <g id="patch_6">
    <path d="M 56.18 174.04 
L 565.2 174.04 
" style="fill: none; stroke: #000000; stroke-width: 0.8; stroke-linejoin: miter; stroke-linecap: square"/>
   </g>
   <g id="patch_7">
    <path d="M 56.18 25.44 
L 565.2 25.44 
" style="fill: none; stroke: #000000; stroke-width: 0.8; stroke-linejoin: miter; stroke-linecap: square"/>
   </g>
   <g id="text_16">
    <!-- True insulation — chr11:65921024 -->
    <g transform="translate(207.230312 19.44) scale(0.12 -0.12)">
     <defs>
      <path id="DejaVuSans-54" d="M -19 4666 
L 3928 4666 
L 3928 4134 
L 2272 4134 
L 2272 0 
L 1638 0 
L 1638 4134 
L -19 4134 
L -19 4666 
z
" transform="scale(0.015625)"/>
      <path id="DejaVuSans-2014" d="M 313 1978 
L 6088 1978 
L 6088 1528 
L 313 1528 
L 313 1978 
z
" transform="scale(0.015625)"/>
      <path id="DejaVuSans-68" d="M 3513 2113 
L 3513 0 
L 2938 0 
L 2938 2094 
Q 2938 2591 2744 2837 
Q 2550 3084 2163 3084 
Q 1697 3084 1428 2787 
Q 1159 2491 1159 1978 
L 1159 0 
L 581 0 
L 581 4863 
L 1159 4863 
L 1159 2956 
Q 1366 3272 1645 3428 
Q 1925 3584 2291 3584 
Q 2894 3584 3203 3211 
Q 3513 2838 3513 2113 
z
" transform="scale(0.015625)"/>
      <path id="DejaVuSans-3a" d="M 750 794 
L 1409 794 
L 1409 0 
L 750 0 
L 750 794 
z
M 750 3309 
L 1409 3309 
L 1409 2516 
L 750 2516 
L 750 3309 
z
" transform="scale(0.015625)"/>
      <path id="DejaVuSans-39" d="M 703 97 
L 703 672 
Q 941 559 1184 500 
Q 1428 441 1663 441 
Q 2288 441 2617 861 
Q 2947 1281 2994 2138 
Q 2813 1869 2534 1725 
Q 2256 1581 1919 1581 
Q 1219 1581 811 2004 
Q 403 2428 403 3163 
Q 403 3881 828 4315 
Q 1253 4750 1959 4750 
Q 2769 4750 3195 4129 
Q 3622 3509 3622 2328 
Q 3622 1225 3098 567 
Q 2575 -91 1691 -91 
Q 1453 -91 1209 -44 
Q 966 3 703 97 
z
M 1959 2075 
Q 2384 2075 2632 2365 
Q 2881 2656 2881 3163 
Q 2881 3666 2632 3958 
Q 2384 4250 1959 4250 
Q 1534 4250 1286 3958 
Q 1038 3666 1038 3163 
Q 1038 2656 1286 2365 
Q 1534 2075 1959 2075 
z
" transform="scale(0.015625)"/>
     </defs>
     <use xlink:href="#DejaVuSans-54"/>
     <use xlink:href="#DejaVuSans-72" transform="translate(46.333984 0)"/>
     <use xlink:href="#DejaVuSans-75" transform="translate(87.447266 0)"/>
     <use xlink:href="#DejaVuSans-65" transform="translate(150.826172 0)"/>
     <use xlink:href="#DejaVuSans-20" transform="translate(212.349609 0)"/>
     <use xlink:href="#DejaVuSans-69" transform="translate(244.136719 0)"/>
     <use xlink:href="#DejaVuSans-6e" transform="translate(271.919922 0)"/>
     <use xlink:href="#DejaVuSans-73" transform="translate(335.298828 0)"/>
     <use xlink:href="#DejaVuSans-75" transform="translate(387.398438 0)"/>
     <use xlink:href="#DejaVuSans-6c" transform="translate(450.777344 0)"/>
     <use xlink:href="#DejaVuSans-61" transform="translate(478.560547 0)"/>
     <use xlink:href="#DejaVuSans-74" transform="translate(539.839844 0)"/>
     <use xlink:href="#DejaVuSans-69" transform="translate(579.048828 0)"/>
     <use xlink:href="#DejaVuSans-6f" transform="translate(606.832031 0)"/>
     <use xlink:href="#DejaVuSans-6e" transform="translate(668.013672 0)"/>
     <use xlink:href="#DejaVuSans-20" transform="translate(731.392578 0)"/>
     <use xlink:href="#DejaVuSans-2014" transform="translate(763.179688 0)"/>
     <use xlink:href="#DejaVuSans-20" transform="translate(863.179688 0)"/>
     <use xlink:href="#DejaVuSans-63" transform="translate(894.966797 0)"/>
     <use xlink:href="#DejaVuSans-68" transform="translate(949.947266 0)"/>
     <use xlink:href="#DejaVuSans-72" transform="translate(1013.326172 0)"/>
     <use xlink:href="#DejaVuSans-31" transform="translate(1054.439453 0)"/>
     <use xlink:href="#DejaVuSans-31" transform="translate(1118.0625 0)"/>
     <use xlink:href="#DejaVuSans-3a" transform="translate(1181.685547 0)"/>
     <use xlink:href="#DejaVuSans-36" transform="translate(1215.376953 0)"/>
     <use xlink:href="#DejaVuSans-35" transform="translate(1279 0)"/>
     <use xlink:href="#DejaVuSans-39" transform="translate(1342.623047 0)"/>
     <use xlink:href="#DejaVuSans-32" transform="translate(1406.246094 0)"/>
     <use xlink:href="#DejaVuSans-31" transform="translate(1469.869141 0)"/>
     <use xlink:href="#DejaVuSans-30" transform="translate(1533.492188 0)"/>
     <use xlink:href="#DejaVuSans-32" transform="translate(1597.115234 0)"/>
     <use xlink:href="#DejaVuSans-34" transform="translate(1660.738281 0)"/>
    </g>
   </g>
   <g id="legend_1">
    <g id="patch_8">
     <path d="M 268.000937 169.04 
L 353.379062 169.04 
Q 355.379062 169.04 355.379062 167.04 
L 355.379062 138.68375 
Q 355.379062 136.68375 353.379062 136.68375 
L 268.000937 136.68375 
Q 266.000937 136.68375 266.000937 138.68375 
L 266.000937 167.04 
Q 266.000937 169.04 268.000937 169.04 
z
" style="fill: #ffffff; opacity: 0.8; stroke: #cccccc; stroke-linejoin: miter"/>
    </g>
    <g id="line2d_15">
     <path d="M 270.000937 144.782188 
L 280.000937 144.782188 
L 290.000937 144.782188 
" style="fill: none; stroke: #000000; stroke-width: 1.5; stroke-linecap: square"/>
    </g>
    <g id="text_17">
     <!-- True -->
     <g transform="translate(298.000937 148.282188) scale(0.1 -0.1)">
      <use xlink:href="#DejaVuSans-54"/>
      <use xlink:href="#DejaVuSans-72" transform="translate(46.333984 0)"/>
      <use xlink:href="#DejaVuSans-75" transform="translate(87.447266 0)"/>
      <use xlink:href="#DejaVuSans-65" transform="translate(150.826172 0)"/>
     </g>
    </g>
    <g id="patch_9">
     <path d="M 270.000937 162.960313 
L 290.000937 162.960313 
L 290.000937 155.960313 
L 270.000937 155.960313 
z
" style="fill: #ff0000; opacity: 0.25; stroke: #ff0000; stroke-linejoin: miter"/>
    </g>
    <g id="text_18">
     <!-- Flat region -->
     <g transform="translate(298.000937 162.960313) scale(0.1 -0.1)">
      <defs>
       <path id="DejaVuSans-46" d="M 628 4666 
L 3309 4666 
L 3309 4134 
L 1259 4134 
L 1259 2759 
L 3109 2759 
L 3109 2228 
L 1259 2228 
L 1259 0 
L 628 0 
L 628 4666 
z
" transform="scale(0.015625)"/>
       <path id="DejaVuSans-67" d="M 2906 1791 
Q 2906 2416 2648 2759 
Q 2391 3103 1925 3103 
Q 1463 3103 1205 2759 
Q 947 2416 947 1791 
Q 947 1169 1205 825 
Q 1463 481 1925 481 
Q 2391 481 2648 825 
Q 2906 1169 2906 1791 
z
M 3481 434 
Q 3481 -459 3084 -895 
Q 2688 -1331 1869 -1331 
Q 1566 -1331 1297 -1286 
Q 1028 -1241 775 -1147 
L 775 -588 
Q 1028 -725 1275 -790 
Q 1522 -856 1778 -856 
Q 2344 -856 2625 -561 
Q 2906 -266 2906 331 
L 2906 616 
Q 2728 306 2450 153 
Q 2172 0 1784 0 
Q 1141 0 747 490 
Q 353 981 353 1791 
Q 353 2603 747 3093 
Q 1141 3584 1784 3584 
Q 2172 3584 2450 3431 
Q 2728 3278 2906 2969 
L 2906 3500 
L 3481 3500 
L 3481 434 
z
" transform="scale(0.015625)"/>
      </defs>
      <use xlink:href="#DejaVuSans-46"/>
      <use xlink:href="#DejaVuSans-6c" transform="translate(57.519531 0)"/>
      <use xlink:href="#DejaVuSans-61" transform="translate(85.302734 0)"/>
      <use xlink:href="#DejaVuSans-74" transform="translate(146.582031 0)"/>
      <use xlink:href="#DejaVuSans-20" transform="translate(185.791016 0)"/>
      <use xlink:href="#DejaVuSans-72" transform="translate(217.578125 0)"/>
      <use xlink:href="#DejaVuSans-65" transform="translate(256.441406 0)"/>
      <use xlink:href="#DejaVuSans-67" transform="translate(317.964844 0)"/>
      <use xlink:href="#DejaVuSans-69" transform="translate(381.441406 0)"/>
      <use xlink:href="#DejaVuSans-6f" transform="translate(409.224609 0)"/>
      <use xlink:href="#DejaVuSans-6e" transform="translate(470.40625 0)"/>
     </g>
    </g>
   </g>
  </g>
 </g>
 <defs>
  <clipPath id="pa065f8d940">
   <rect x="56.18" y="25.44" width="509.02" height="148.6"/>
  </clipPath>
 </defs>
</svg>
