<?xml version="1.0" encoding="utf-8" standalone="no"?>
<!DOCTYPE svg PUBLIC "-//W3C//DTD SVG 1.1//EN"
  "http://www.w3.org/Graphics/SVG/1.1/DTD/svg11.dtd">
<svg xmlns:xlink="http://www.w3.org/1999/xlink" width="576pt" height="216pt" viewBox="0 0 576 216" xmlns="http://www.w3.org/2000/svg" version="1.1">
 <metadata>
  <rdf:RDF xmlns:dc="http://purl.org/dc/elements/1.1/" xmlns:cc="http://creativecommons.org/ns#" xmlns:rdf="http://www.w3.org/1999/02/22-rdf-syntax-ns#">
   <cc:Work>
    <dc:type rdf:resource="http://purl.org/dc/dcmitype/StillImage"/>
    <dc:date>2026-03-04T08:54:02.000845</dc:date>
    <dc:format>image/svg+xml</dc:format>
    <dc:creator>
     <cc:Agent>
      <dc:title>Matplotlib v3.10.8, https://matplotlib.org/</dc:title>
     </cc:Agent>
    </dc:creator>
   </cc:Work>
  </rdf:RDF>
 </metadata>
 <defs>
  <style type="text/css">*{stroke-linejoin: round; stroke-linecap: butt}</style>
 </defs>
 <g id="figure_1">
  <g id="patch_1">
   <path d="M 0 216 
L 576 216 
L 576 0 
L 0 0 
z
" style="fill: #ffffff"/>
  </g>
  <g id="axes_1">
   <g id="patch_2">
    <path d="M 56.18 174.04 
L 565.2 174.04 
L 565.2 25.44 
L 56.18 25.44 
z
" style="fill: #ffffff"/>
   </g>
   <g id="patch_3">
    <path d="M 259.986836 174.04 
L 369.346602 174.04 
L 369.346602 25.44 
L 259.986836 25.44 
z
" clip-path="url(#p983d35b9ab)" style="fill: #ff0000; opacity: 0.25; stroke: #ff0000; stroke-linejoin: miter"/>
   </g>
   <g id="matplotlib.axis_1">
    <g id="xtick_1">
     <g id="line2d_1">
      <defs>
       <path id="md4b7e668d9" d="M 0 0 
L 0 3.5 
" style="stroke: #000000; stroke-width: 0.8"/>
      </defs>
      <g>
       <use xlink:href="#md4b7e668d9" x="56.18" y="174.04" style="stroke: #000000; stroke-width: 0.8"/>
      </g>
     </g>
     <g id="text_1">
      <!-- 0 -->
      <g transform="translate(52.99875 188.638438) scale(0.1 -0.1)">
       <defs>
        <path id="DejaVuSans-30" d="M 2034 4250 
Q 1547 4250 1301 3770 
Q 1056 3291 1056 2328 
Q 1056 1369 1301 889 
Q 1547 409 2034 409 
Q 2525 409 2770 889 
Q 3016 1369 3016 2328 
Q 3016 3291 2770 3770 
Q 2525 4250 2034 4250 
z
M 2034 4750 
Q 2819 4750 3233 4129 
Q 3647 3509 3647 2328 
Q 3647 1150 3233 529 
Q 2819 -91 2034 -91 
Q 1250 -91 836 529 
Q 422 1150 422 2328 
Q 422 3509 836 4129 
Q 1250 4750 2034 4750 
z
" transform="scale(0.015625)"/>
       </defs>
       <use xlink:href="#DejaVuSans-30"/>
      </g>
     </g>
    </g>
    <g id="xtick_2">
     <g id="line2d_2">
      <g>
       <use xlink:href="#md4b7e668d9" x="155.597969" y="174.04" style="stroke: #000000; stroke-width: 0.8"/>
      </g>
     </g>
     <g id="text_2">
      <!-- 100 -->
      <g transform="translate(146.054219 188.638438) scale(0.1 -0.1)">
       <defs>
        <path id="DejaVuSans-31" d="M 794 531 
L 1825 531 
L 1825 4091 
L 703 3866 
L 703 4441 
L 1819 4666 
L 2450 4666 
L 2450 531 
L 3481 531 
L 3481 0 
L 794 0 
L 794 531 
z
" transform="scale(0.015625)"/>
       </defs>
       <use xlink:href="#DejaVuSans-31"/>
       <use xlink:href="#DejaVuSans-30" transform="translate(63.623047 0)"/>
       <use xlink:href="#DejaVuSans-30" transform="translate(127.246094 0)"/>
      </g>
     </g>
    </g>
    <g id="xtick_3">
     <g id="line2d_3">
      <g>
       <use xlink:href="#md4b7e668d9" x="255.015937" y="174.04" style="stroke: #000000; stroke-width: 0.8"/>
      </g>
     </g>
     <g id="text_3">
      <!-- 200 -->
      <g transform="translate(245.472187 188.638438) scale(0.1 -0.1)">
       <defs>
        <path id="DejaVuSans-32" d="M 1228 531 
L 3431 531 
L 3431 0 
L 469 0 
L 469 531 
Q 828 903 1448 1529 
Q 2069 2156 2228 2338 
Q 2531 2678 2651 2914 
Q 2772 3150 2772 3378 
Q 2772 3750 2511 3984 
Q 2250 4219 1831 4219 
Q 1534 4219 1204 4116 
Q 875 4013 500 3803 
L 500 4441 
Q 881 4594 1212 4672 
Q 1544 4750 1819 4750 
Q 2544 4750 2975 4387 
Q 3406 4025 3406 3419 
Q 3406 3131 3298 2873 
Q 3191 2616 2906 2266 
Q 2828 2175 2409 1742 
Q 1991 1309 1228 531 
z
" transform="scale(0.015625)"/>
       </defs>
       <use xlink:href="#DejaVuSans-32"/>
       <use xlink:href="#DejaVuSans-30" transform="translate(63.623047 0)"/>
       <use xlink:href="#DejaVuSans-30" transform="translate(127.246094 0)"/>
      </g>
     </g>
    </g>
    <g id="xtick_4">
     <g id="line2d_4">
      <g>
       <use xlink:href="#md4b7e668d9" x="354.433906" y="174.04" style="stroke: #000000; stroke-width: 0.8"/>
      </g>
     </g>
     <g id="text_4">
      <!-- 300 -->
      <g transform="translate(344.890156 188.638438) scale(0.1 -0.1)">
       <defs>
        <path id="DejaVuSans-33" d="M 2597 2516 
Q 3050 2419 3304 2112 
Q 3559 1806 3559 1356 
Q 3559 666 3084 287 
Q 2609 -91 1734 -91 
Q 1441 -91 1130 -33 
Q 819 25 488 141 
L 488 750 
Q 750 597 1062 519 
Q 1375 441 1716 441 
Q 2309 441 2620 675 
Q 2931 909 2931 1356 
Q 2931 1769 2642 2001 
Q 2353 2234 1838 2234 
L 1294 2234 
L 1294 2753 
L 1863 2753 
Q 2328 2753 2575 2939 
Q 2822 3125 2822 3475 
Q 2822 3834 2567 4026 
Q 2313 4219 1838 4219 
Q 1578 4219 1281 4162 
Q 984 4106 628 3988 
L 628 4550 
Q 988 4650 1302 4700 
Q 1616 4750 1894 4750 
Q 2613 4750 3031 4423 
Q 3450 4097 3450 3541 
Q 3450 3153 3228 2886 
Q 3006 2619 2597 2516 
z
" transform="scale(0.015625)"/>
       </defs>
       <use xlink:href="#DejaVuSans-33"/>
       <use xlink:href="#DejaVuSans-30" transform="translate(63.623047 0)"/>
       <use xlink:href="#DejaVuSans-30" transform="translate(127.246094 0)"/>
      </g>
     </g>
    </g>
    <g id="xtick_5">
     <g id="line2d_5">
      <g>
       <use xlink:href="#md4b7e668d9" x="453.851875" y="174.04" style="stroke: #000000; stroke-width: 0.8"/>
      </g>
     </g>
     <g id="text_5">
      <!-- 400 -->
      <g transform="translate(444.308125 188.638438) scale(0.1 -0.1)">
       <defs>
        <path id="DejaVuSans-34" d="M 2419 4116 
L 825 1625 
L 2419 1625 
L 2419 4116 
z
M 2253 4666 
L 3047 4666 
L 3047 1625 
L 3713 1625 
L 3713 1100 
L 3047 1100 
L 3047 0 
L 2419 0 
L 2419 1100 
L 313 1100 
L 313 1709 
L 2253 4666 
z
" transform="scale(0.015625)"/>
       </defs>
       <use xlink:href="#DejaVuSans-34"/>
       <use xlink:href="#DejaVuSans-30" transform="translate(63.623047 0)"/>
       <use xlink:href="#DejaVuSans-30" transform="translate(127.246094 0)"/>
      </g>
     </g>
    </g>
    <g id="xtick_6">
     <g id="line2d_6">
      <g>
       <use xlink:href="#md4b7e668d9" x="553.269844" y="174.04" style="stroke: #000000; stroke-width: 0.8"/>
      </g>
     </g>
     <g id="text_6">
      <!-- 500 -->
      <g transform="translate(543.726094 188.638438) scale(0.1 -0.1)">
       <defs>
        <path id="DejaVuSans-35" d="M 691 4666 
L 3169 4666 
L 3169 4134 
L 1269 4134 
L 1269 2991 
Q 1406 3038 1543 3061 
Q 1681 3084 1819 3084 
Q 2600 3084 3056 2656 
Q 3513 2228 3513 1497 
Q 3513 744 3044 326 
Q 2575 -91 1722 -91 
Q 1428 -91 1123 -41 
Q 819 9 494 109 
L 494 744 
Q 775 591 1075 516 
Q 1375 441 1709 441 
Q 2250 441 2565 725 
Q 2881 1009 2881 1497 
Q 2881 1984 2565 2268 
Q 2250 2553 1709 2553 
Q 1456 2553 1204 2497 
Q 953 2441 691 2322 
L 691 4666 
z
" transform="scale(0.015625)"/>
       </defs>
       <use xlink:href="#DejaVuSans-35"/>
       <use xlink:href="#DejaVuSans-30" transform="translate(63.623047 0)"/>
       <use xlink:href="#DejaVuSans-30" transform="translate(127.246094 0)"/>
      </g>
     </g>
    </g>
    <g id="text_7">
     <!-- Position (bins) -->
     <g transform="translate(275.398594 202.316563) scale(0.1 -0.1)">
      <defs>
       <path id="DejaVuSans-50" d="M 1259 4147 
L 1259 2394 
L 2053 2394 
Q 2494 2394 2734 2622 
Q 2975 2850 2975 3272 
Q 2975 3691 2734 3919 
Q 2494 4147 2053 4147 
L 1259 4147 
z
M 628 4666 
L 2053 4666 
Q 2838 4666 3239 4311 
Q 3641 3956 3641 3272 
Q 3641 2581 3239 2228 
Q 2838 1875 2053 1875 
L 1259 1875 
L 1259 0 
L 628 0 
L 628 4666 
z
" transform="scale(0.015625)"/>
       <path id="DejaVuSans-6f" d="M 1959 3097 
Q 1497 3097 1228 2736 
Q 959 2375 959 1747 
Q 959 1119 1226 758 
Q 1494 397 1959 397 
Q 2419 397 2687 759 
Q 2956 1122 2956 1747 
Q 2956 2369 2687 2733 
Q 2419 3097 1959 3097 
z
M 1959 3584 
Q 2709 3584 3137 3096 
Q 3566 2609 3566 1747 
Q 3566 888 3137 398 
Q 2709 -91 1959 -91 
Q 1206 -91 779 398 
Q 353 888 353 1747 
Q 353 2609 779 3096 
Q 1206 3584 1959 3584 
z
" transform="scale(0.015625)"/>
       <path id="DejaVuSans-73" d="M 2834 3397 
L 2834 2853 
Q 2591 2978 2328 3040 
Q 2066 3103 1784 3103 
Q 1356 3103 1142 2972 
Q 928 2841 928 2578 
Q 928 2378 1081 2264 
Q 1234 2150 1697 2047 
L 1894 2003 
Q 2506 1872 2764 1633 
Q 3022 1394 3022 966 
Q 3022 478 2636 193 
Q 2250 -91 1575 -91 
Q 1294 -91 989 -36 
Q 684 19 347 128 
L 347 722 
Q 666 556 975 473 
Q 1284 391 1588 391 
Q 1994 391 2212 530 
Q 2431 669 2431 922 
Q 2431 1156 2273 1281 
Q 2116 1406 1581 1522 
L 1381 1569 
Q 847 1681 609 1914 
Q 372 2147 372 2553 
Q 372 3047 722 3315 
Q 1072 3584 1716 3584 
Q 2034 3584 2315 3537 
Q 2597 3491 2834 3397 
z
" transform="scale(0.015625)"/>
       <path id="DejaVuSans-69" d="M 603 3500 
L 1178 3500 
L 1178 0 
L 603 0 
L 603 3500 
z
M 603 4863 
L 1178 4863 
L 1178 4134 
L 603 4134 
L 603 4863 
z
" transform="scale(0.015625)"/>
       <path id="DejaVuSans-74" d="M 1172 4494 
L 1172 3500 
L 2356 3500 
L 2356 3053 
L 1172 3053 
L 1172 1153 
Q 1172 725 1289 603 
Q 1406 481 1766 481 
L 2356 481 
L 2356 0 
L 1766 0 
Q 1100 0 847 248 
Q 594 497 594 1153 
L 594 3053 
L 172 3053 
L 172 3500 
L 594 3500 
L 594 4494 
L 1172 4494 
z
" transform="scale(0.015625)"/>
       <path id="DejaVuSans-6e" d="M 3513 2113 
L 3513 0 
L 2938 0 
L 2938 2094 
Q 2938 2591 2744 2837 
Q 2550 3084 2163 3084 
Q 1697 3084 1428 2787 
Q 1159 2491 1159 1978 
L 1159 0 
L 581 0 
L 581 3500 
L 1159 3500 
L 1159 2956 
Q 1366 3272 1645 3428 
Q 1925 3584 2291 3584 
Q 2894 3584 3203 3211 
Q 3513 2838 3513 2113 
z
" transform="scale(0.015625)"/>
       <path id="DejaVuSans-20" transform="scale(0.015625)"/>
       <path id="DejaVuSans-28" d="M 1984 4856 
Q 1566 4138 1362 3434 
Q 1159 2731 1159 2009 
Q 1159 1288 1364 580 
Q 1569 -128 1984 -844 
L 1484 -844 
Q 1016 -109 783 600 
Q 550 1309 550 2009 
Q 550 2706 781 3412 
Q 1013 4119 1484 4856 
L 1984 4856 
z
" transform="scale(0.015625)"/>
       <path id="DejaVuSans-62" d="M 3116 1747 
Q 3116 2381 2855 2742 
Q 2594 3103 2138 3103 
Q 1681 3103 1420 2742 
Q 1159 2381 1159 1747 
Q 1159 1113 1420 752 
Q 1681 391 2138 391 
Q 2594 391 2855 752 
Q 3116 1113 3116 1747 
z
M 1159 2969 
Q 1341 3281 1617 3432 
Q 1894 3584 2278 3584 
Q 2916 3584 3314 3078 
Q 3713 2572 3713 1747 
Q 3713 922 3314 415 
Q 2916 -91 2278 -91 
Q 1894 -91 1617 61 
Q 1341 213 1159 525 
L 1159 0 
L 581 0 
L 581 4863 
L 1159 4863 
L 1159 2969 
z
" transform="scale(0.015625)"/>
       <path id="DejaVuSans-29" d="M 513 4856 
L 1013 4856 
Q 1481 4119 1714 3412 
Q 1947 2706 1947 2009 
Q 1947 1309 1714 600 
Q 1481 -109 1013 -844 
L 513 -844 
Q 928 -128 1133 580 
Q 1338 1288 1338 2009 
Q 1338 2731 1133 3434 
Q 928 4138 513 4856 
z
" transform="scale(0.015625)"/>
      </defs>
      <use xlink:href="#DejaVuSans-50"/>
      <use xlink:href="#DejaVuSans-6f" transform="translate(56.677734 0)"/>
      <use xlink:href="#DejaVuSans-73" transform="translate(117.859375 0)"/>
      <use xlink:href="#DejaVuSans-69" transform="translate(169.958984 0)"/>
      <use xlink:href="#DejaVuSans-74" transform="translate(197.742188 0)"/>
      <use xlink:href="#DejaVuSans-69" transform="translate(236.951172 0)"/>
      <use xlink:href="#DejaVuSans-6f" transform="translate(264.734375 0)"/>
      <use xlink:href="#DejaVuSans-6e" transform="translate(325.916016 0)"/>
      <use xlink:href="#DejaVuSans-20" transform="translate(389.294922 0)"/>
      <use xlink:href="#DejaVuSans-28" transform="translate(421.082031 0)"/>
      <use xlink:href="#DejaVuSans-62" transform="translate(460.095703 0)"/>
      <use xlink:href="#DejaVuSans-69" transform="translate(523.572266 0)"/>
      <use xlink:href="#DejaVuSans-6e" transform="translate(551.355469 0)"/>
      <use xlink:href="#DejaVuSans-73" transform="translate(614.734375 0)"/>
      <use xlink:href="#DejaVuSans-29" transform="translate(666.833984 0)"/>
     </g>
    </g>
   </g>
   <g id="matplotlib.axis_2">
    <g id="ytick_1">
     <g id="line2d_7">
      <defs>
       <path id="m7392ca9790" d="M 0 0 
L -3.5 0 
" style="stroke: #000000; stroke-width: 0.8"/>
      </defs>
      <g>
       <use xlink:href="#m7392ca9790" x="56.18" y="174.04" style="stroke: #000000; stroke-width: 0.8"/>
      </g>
     </g>
     <g id="text_8">
      <!-- −0.6 -->
      <g transform="translate(24.897188 177.839219) scale(0.1 -0.1)">
       <defs>
        <path id="DejaVuSans-2212" d="M 678 2272 
L 4684 2272 
L 4684 1741 
L 678 1741 
L 678 2272 
z
" transform="scale(0.015625)"/>
        <path id="DejaVuSans-2e" d="M 684 794 
L 1344 794 
L 1344 0 
L 684 0 
L 684 794 
z
" transform="scale(0.015625)"/>
        <path id="DejaVuSans-36" d="M 2113 2584 
Q 1688 2584 1439 2293 
Q 1191 2003 1191 1497 
Q 1191 994 1439 701 
Q 1688 409 2113 409 
Q 2538 409 2786 701 
Q 3034 994 3034 1497 
Q 3034 2003 2786 2293 
Q 2538 2584 2113 2584 
z
M 3366 4563 
L 3366 3988 
Q 3128 4100 2886 4159 
Q 2644 4219 2406 4219 
Q 1781 4219 1451 3797 
Q 1122 3375 1075 2522 
Q 1259 2794 1537 2939 
Q 1816 3084 2150 3084 
Q 2853 3084 3261 2657 
Q 3669 2231 3669 1497 
Q 3669 778 3244 343 
Q 2819 -91 2113 -91 
Q 1303 -91 875 529 
Q 447 1150 447 2328 
Q 447 3434 972 4092 
Q 1497 4750 2381 4750 
Q 2619 4750 2861 4703 
Q 3103 4656 3366 4563 
z
" transform="scale(0.015625)"/>
       </defs>
       <use xlink:href="#DejaVuSans-2212"/>
       <use xlink:href="#DejaVuSans-30" transform="translate(83.789062 0)"/>
       <use xlink:href="#DejaVuSans-2e" transform="translate(147.412109 0)"/>
       <use xlink:href="#DejaVuSans-36" transform="translate(179.199219 0)"/>
      </g>
     </g>
    </g>
    <g id="ytick_2">
     <g id="line2d_8">
      <g>
       <use xlink:href="#m7392ca9790" x="56.18" y="149.273333" style="stroke: #000000; stroke-width: 0.8"/>
      </g>
     </g>
     <g id="text_9">
      <!-- −0.4 -->
      <g transform="translate(24.897188 153.072552) scale(0.1 -0.1)">
       <use xlink:href="#DejaVuSans-2212"/>
       <use xlink:href="#DejaVuSans-30" transform="translate(83.789062 0)"/>
       <use xlink:href="#DejaVuSans-2e" transform="translate(147.412109 0)"/>
       <use xlink:href="#DejaVuSans-34" transform="translate(179.199219 0)"/>
      </g>
     </g>
    </g>
    <g id="ytick_3">
     <g id="line2d_9">
      <g>
       <use xlink:href="#m7392ca9790" x="56.18" y="124.506667" style="stroke: #000000; stroke-width: 0.8"/>
      </g>
     </g>
     <g id="text_10">
      <!-- −0.2 -->
      <g transform="translate(24.897188 128.305885) scale(0.1 -0.1)">
       <use xlink:href="#DejaVuSans-2212"/>
       <use xlink:href="#DejaVuSans-30" transform="translate(83.789062 0)"/>
       <use xlink:href="#DejaVuSans-2e" transform="translate(147.412109 0)"/>
       <use xlink:href="#DejaVuSans-32" transform="translate(179.199219 0)"/>
      </g>
     </g>
    </g>
    <g id="ytick_4">
     <g id="line2d_10">
      <g>
       <use xlink:href="#m7392ca9790" x="56.18" y="99.74" style="stroke: #000000; stroke-width: 0.8"/>
      </g>
     </g>
     <g id="text_11">
      <!-- 0.0 -->
      <g transform="translate(33.276875 103.539219) scale(0.1 -0.1)">
       <use xlink:href="#DejaVuSans-30"/>
       <use xlink:href="#DejaVuSans-2e" transform="translate(63.623047 0)"/>
       <use xlink:href="#DejaVuSans-30" transform="translate(95.410156 0)"/>
      </g>
     </g>
    </g>
    <g id="ytick_5">
     <g id="line2d_11">
      <g>
       <use xlink:href="#m7392ca9790" x="56.18" y="74.973333" style="stroke: #000000; stroke-width: 0.8"/>
      </g>
     </g>
     <g id="text_12">
      <!-- 0.2 -->
      <g transform="translate(33.276875 78.772552) scale(0.1 -0.1)">
       <use xlink:href="#DejaVuSans-30"/>
       <use xlink:href="#DejaVuSans-2e" transform="translate(63.623047 0)"/>
       <use xlink:href="#DejaVuSans-32" transform="translate(95.410156 0)"/>
      </g>
     </g>
    </g>
    <g id="ytick_6">
     <g id="line2d_12">
      <g>
       <use xlink:href="#m7392ca9790" x="56.18" y="50.206667" style="stroke: #000000; stroke-width: 0.8"/>
      </g>
     </g>
     <g id="text_13">
      <!-- 0.4 -->
      <g transform="translate(33.276875 54.005885) scale(0.1 -0.1)">
       <use xlink:href="#DejaVuSans-30"/>
       <use xlink:href="#DejaVuSans-2e" transform="translate(63.623047 0)"/>
       <use xlink:href="#DejaVuSans-34" transform="translate(95.410156 0)"/>
      </g>
     </g>
    </g>
    <g id="ytick_7">
     <g id="line2d_13">
      <g>
       <use xlink:href="#m7392ca9790" x="56.18" y="25.44" style="stroke: #000000; stroke-width: 0.8"/>
      </g>
     </g>
     <g id="text_14">
      <!-- 0.6 -->
      <g transform="translate(33.276875 29.239219) scale(0.1 -0.1)">
       <use xlink:href="#DejaVuSans-30"/>
       <use xlink:href="#DejaVuSans-2e" transform="translate(63.623047 0)"/>
       <use xlink:href="#DejaVuSans-36" transform="translate(95.410156 0)"/>
      </g>
     </g>
    </g>
    <g id="text_15">
     <!-- Insulation score -->
     <g transform="translate(18.8175 139.209531) rotate(-90) scale(0.1 -0.1)">
      <defs>
       <path id="DejaVuSans-49" d="M 628 4666 
L 1259 4666 
L 1259 0 
L 628 0 
L 628 4666 
z
" transform="scale(0.015625)"/>
       <path id="DejaVuSans-75" d="M 544 1381 
L 544 3500 
L 1119 3500 
L 1119 1403 
Q 1119 906 1312 657 
Q 1506 409 1894 409 
Q 2359 409 2629 706 
Q 2900 1003 2900 1516 
L 2900 3500 
L 3475 3500 
L 3475 0 
L 2900 0 
L 2900 538 
Q 2691 219 2414 64 
Q 2138 -91 1772 -91 
Q 1169 -91 856 284 
Q 544 659 544 1381 
z
M 1991 3584 
L 1991 3584 
z
" transform="scale(0.015625)"/>
       <path id="DejaVuSans-6c" d="M 603 4863 
L 1178 4863 
L 1178 0 
L 603 0 
L 603 4863 
z
" transform="scale(0.015625)"/>
       <path id="DejaVuSans-61" d="M 2194 1759 
Q 1497 1759 1228 1600 
Q 959 1441 959 1056 
Q 959 750 1161 570 
Q 1363 391 1709 391 
Q 2188 391 2477 730 
Q 2766 1069 2766 1631 
L 2766 1759 
L 2194 1759 
z
M 3341 1997 
L 3341 0 
L 2766 0 
L 2766 531 
Q 2569 213 2275 61 
Q 1981 -91 1556 -91 
Q 1019 -91 701 211 
Q 384 513 384 1019 
Q 384 1609 779 1909 
Q 1175 2209 1959 2209 
L 2766 2209 
L 2766 2266 
Q 2766 2663 2505 2880 
Q 2244 3097 1772 3097 
Q 1472 3097 1187 3025 
Q 903 2953 641 2809 
L 641 3341 
Q 956 3463 1253 3523 
Q 1550 3584 1831 3584 
Q 2591 3584 2966 3190 
Q 3341 2797 3341 1997 
z
" transform="scale(0.015625)"/>
       <path id="DejaVuSans-63" d="M 3122 3366 
L 3122 2828 
Q 2878 2963 2633 3030 
Q 2388 3097 2138 3097 
Q 1578 3097 1268 2742 
Q 959 2388 959 1747 
Q 959 1106 1268 751 
Q 1578 397 2138 397 
Q 2388 397 2633 464 
Q 2878 531 3122 666 
L 3122 134 
Q 2881 22 2623 -34 
Q 2366 -91 2075 -91 
Q 1284 -91 818 406 
Q 353 903 353 1747 
Q 353 2603 823 3093 
Q 1294 3584 2113 3584 
Q 2378 3584 2631 3529 
Q 2884 3475 3122 3366 
z
" transform="scale(0.015625)"/>
       <path id="DejaVuSans-72" d="M 2631 2963 
Q 2534 3019 2420 3045 
Q 2306 3072 2169 3072 
Q 1681 3072 1420 2755 
Q 1159 2438 1159 1844 
L 1159 0 
L 581 0 
L 581 3500 
L 1159 3500 
L 1159 2956 
Q 1341 3275 1631 3429 
Q 1922 3584 2338 3584 
Q 2397 3584 2469 3576 
Q 2541 3569 2628 3553 
L 2631 2963 
z
" transform="scale(0.015625)"/>
       <path id="DejaVuSans-65" d="M 3597 1894 
L 3597 1613 
L 953 1613 
Q 991 1019 1311 708 
Q 1631 397 2203 397 
Q 2534 397 2845 478 
Q 3156 559 3463 722 
L 3463 178 
Q 3153 47 2828 -22 
Q 2503 -91 2169 -91 
Q 1331 -91 842 396 
Q 353 884 353 1716 
Q 353 2575 817 3079 
Q 1281 3584 2069 3584 
Q 2775 3584 3186 3129 
Q 3597 2675 3597 1894 
z
M 3022 2063 
Q 3016 2534 2758 2815 
Q 2500 3097 2075 3097 
Q 1594 3097 1305 2825 
Q 1016 2553 972 2059 
L 3022 2063 
z
" transform="scale(0.015625)"/>
      </defs>
      <use xlink:href="#DejaVuSans-49"/>
      <use xlink:href="#DejaVuSans-6e" transform="translate(29.492188 0)"/>
      <use xlink:href="#DejaVuSans-73" transform="translate(92.871094 0)"/>
      <use xlink:href="#DejaVuSans-75" transform="translate(144.970703 0)"/>
      <use xlink:href="#DejaVuSans-6c" transform="translate(208.349609 0)"/>
      <use xlink:href="#DejaVuSans-61" transform="translate(236.132812 0)"/>
      <use xlink:href="#DejaVuSans-74" transform="translate(297.412109 0)"/>
      <use xlink:href="#DejaVuSans-69" transform="translate(336.621094 0)"/>
      <use xlink:href="#DejaVuSans-6f" transform="translate(364.404297 0)"/>
      <use xlink:href="#DejaVuSans-6e" transform="translate(425.585938 0)"/>
      <use xlink:href="#DejaVuSans-20" transform="translate(488.964844 0)"/>
      <use xlink:href="#DejaVuSans-73" transform="translate(520.751953 0)"/>
      <use xlink:href="#DejaVuSans-63" transform="translate(572.851562 0)"/>
      <use xlink:href="#DejaVuSans-6f" transform="translate(627.832031 0)"/>
      <use xlink:href="#DejaVuSans-72" transform="translate(689.013672 0)"/>
      <use xlink:href="#DejaVuSans-65" transform="translate(727.876953 0)"/>
     </g>
    </g>
   </g>
   <g id="line2d_14">
    <path d="M 72.086875 117.691684 
L 73.081055 117.545186 
L 74.075234 117.277231 
L 75.069414 117.127398 
L 76.063594 116.054275 
L 77.057773 114.441172 
L 78.051953 113.145446 
L 79.046133 111.530355 
L 80.040312 109.047551 
L 82.028672 102.252817 
L 83.022852 100.344665 
L 84.017031 100.069064 
L 85.011211 100.575405 
L 86.005391 101.814469 
L 86.99957 104.070127 
L 88.98793 109.183762 
L 90.976289 113.620071 
L 91.970469 115.978455 
L 92.964648 117.765412 
L 93.958828 119.144576 
L 94.953008 119.945523 
L 95.947187 119.684774 
L 97.935547 117.387111 
L 98.929727 116.652199 
L 99.923906 116.501099 
L 100.918086 117.421352 
L 102.906445 121.402566 
L 103.900625 122.451143 
L 104.894805 122.432496 
L 105.888984 120.636263 
L 106.883164 116.784691 
L 108.871523 106.944558 
L 109.865703 103.816733 
L 110.859883 101.496898 
L 111.854062 100.10379 
L 112.848242 99.714823 
L 113.842422 99.680354 
L 115.830781 99.904952 
L 116.824961 99.870725 
L 117.819141 100.127632 
L 118.81332 100.839784 
L 119.8075 102.505783 
L 120.80168 105.222187 
L 122.790039 111.494105 
L 123.784219 113.95422 
L 124.778398 115.108079 
L 125.772578 115.388023 
L 126.766758 115.170163 
L 127.760937 114.625073 
L 128.755117 113.941044 
L 129.749297 112.899311 
L 130.743477 111.415409 
L 131.737656 110.140907 
L 132.731836 109.690904 
L 133.726016 109.563278 
L 134.720195 108.50161 
L 136.708555 103.825487 
L 137.702734 102.42721 
L 138.696914 101.414315 
L 139.691094 99.823833 
L 140.685273 97.548734 
L 141.679453 94.892095 
L 142.673633 91.818234 
L 144.661992 84.469853 
L 145.656172 81.360443 
L 149.632891 67.277563 
L 150.62707 65.003016 
L 151.62125 63.598441 
L 152.61543 63.250754 
L 153.609609 64.019128 
L 154.603789 66.089572 
L 155.597969 69.472199 
L 158.580508 82.616849 
L 159.574687 85.790366 
L 160.568867 90.052277 
L 162.557227 101.883171 
L 163.551406 107.931862 
L 164.545586 112.978191 
L 165.539766 116.67144 
L 170.510664 130.583445 
L 172.499023 134.927962 
L 173.493203 136.774433 
L 174.487383 137.783224 
L 175.481562 137.624803 
L 176.475742 136.885186 
L 177.469922 136.463199 
L 178.464102 137.248893 
L 180.452461 140.710105 
L 181.446641 141.657671 
L 182.44082 142.400017 
L 183.435 142.266904 
L 185.423359 139.992987 
L 186.417539 138.136958 
L 187.411719 135.070268 
L 189.400078 128.57979 
L 190.394258 126.416447 
L 191.388437 124.785963 
L 193.376797 120.747269 
L 194.370977 119.963635 
L 195.365156 120.246533 
L 196.359336 120.011074 
L 199.341875 116.719323 
L 200.336055 115.848056 
L 201.330234 115.470389 
L 202.324414 116.189682 
L 204.312773 118.573969 
L 206.301133 119.691891 
L 207.295312 121.081364 
L 209.283672 125.197946 
L 211.272031 127.858633 
L 213.260391 131.742329 
L 214.25457 133.431667 
L 215.24875 134.714413 
L 216.24293 135.296034 
L 217.237109 135.259708 
L 219.225469 134.55025 
L 220.219648 134.463597 
L 222.208008 134.99174 
L 225.190547 135.309686 
L 226.184727 134.758844 
L 227.178906 133.564035 
L 228.173086 131.981475 
L 231.155625 128.030386 
L 232.149805 127.202033 
L 233.143984 127.095378 
L 234.138164 127.477144 
L 235.132344 126.857879 
L 237.120703 122.226842 
L 238.114883 121.032391 
L 239.109062 120.629643 
L 240.103242 120.654063 
L 241.097422 120.340681 
L 242.091602 119.082354 
L 243.085781 117.201176 
L 244.079961 114.319614 
L 245.074141 110.12853 
L 246.06832 105.400789 
L 247.0625 101.799069 
L 248.05668 100.176043 
L 249.050859 99.731764 
L 251.039219 100.171042 
L 252.033398 99.419959 
L 253.027578 98.285835 
L 254.021758 97.765831 
L 255.015937 97.653551 
L 256.010117 97.891866 
L 257.004297 98.865094 
L 257.998477 100.802958 
L 258.992656 103.496086 
L 259.986836 105.652055 
L 260.981016 106.489049 
L 261.975195 106.330825 
L 262.969375 105.507735 
L 264.957734 102.238238 
L 265.951914 102.076692 
L 266.946094 102.506733 
L 267.940273 102.180524 
L 269.928633 100.18282 
L 270.922812 99.890851 
L 271.916992 100.407814 
L 273.905352 102.581532 
L 274.899531 103.214511 
L 275.893711 103.540144 
L 276.887891 104.850373 
L 279.87043 114.350701 
L 280.864609 116.103241 
L 281.858789 117.108008 
L 282.852969 117.397137 
L 283.847148 116.974089 
L 284.841328 116.312684 
L 285.835508 115.818264 
L 286.829687 116.074529 
L 287.823867 117.036278 
L 288.818047 118.820904 
L 290.806406 126.038895 
L 291.800586 128.048129 
L 292.794766 127.922552 
L 293.788945 125.765669 
L 294.783125 122.005088 
L 295.777305 118.999072 
L 296.771484 117.645217 
L 297.765664 116.957718 
L 299.754023 116.047601 
L 301.742383 114.192394 
L 303.730742 111.4871 
L 305.719102 108.393131 
L 306.713281 107.757424 
L 307.707461 107.51952 
L 308.701641 107.831571 
L 309.69582 109.321576 
L 310.69 111.533057 
L 311.68418 113.197574 
L 312.678359 114.13194 
L 314.666719 115.612206 
L 315.660898 116.569753 
L 316.655078 116.926054 
L 317.649258 116.816773 
L 318.643437 117.280238 
L 319.637617 118.229855 
L 321.625977 121.120551 
L 322.620156 121.221456 
L 323.614336 120.472495 
L 324.608516 119.315125 
L 326.596875 114.72137 
L 327.591055 113.594376 
L 328.585234 113.313486 
L 329.579414 113.673028 
L 330.573594 114.424405 
L 331.567773 114.994899 
L 332.561953 115.258964 
L 333.556133 115.23008 
L 334.550312 114.66615 
L 335.544492 113.653422 
L 336.538672 113.475154 
L 337.532852 114.469629 
L 338.527031 115.686375 
L 339.521211 116.091918 
L 340.515391 115.222691 
L 341.50957 114.123058 
L 342.50375 114.136953 
L 343.49793 115.16904 
L 344.492109 116.387097 
L 345.486289 117.99986 
L 346.480469 120.041613 
L 347.474648 121.153809 
L 348.468828 121.112945 
L 350.457187 120.360686 
L 352.445547 119.01407 
L 353.439727 118.189055 
L 354.433906 116.984726 
L 355.428086 116.141261 
L 356.422266 115.767397 
L 357.416445 116.080772 
L 358.410625 116.851883 
L 360.398984 117.567842 
L 361.393164 118.634234 
L 362.387344 120.478083 
L 363.381523 121.828203 
L 365.369883 123.228 
L 366.364062 123.424467 
L 367.358242 122.99024 
L 368.352422 122.34536 
L 369.346602 122.067169 
L 370.340781 122.027019 
L 371.334961 120.85499 
L 372.329141 118.221509 
L 373.32332 115.135133 
L 374.3175 113.038014 
L 375.31168 112.117933 
L 376.305859 111.619118 
L 377.300039 111.249297 
L 378.294219 111.464895 
L 379.288398 112.061394 
L 380.282578 112.000632 
L 381.276758 111.225254 
L 382.270937 110.788709 
L 383.265117 110.686832 
L 384.259297 110.243715 
L 385.253477 109.988092 
L 386.247656 111.102253 
L 387.241836 113.250192 
L 388.236016 115.824108 
L 390.224375 122.364556 
L 395.195273 138.728938 
L 397.183633 146.669591 
L 398.177812 150.058087 
L 399.171992 152.728319 
L 400.166172 154.568355 
L 401.160352 155.715688 
L 402.154531 156.448098 
L 403.148711 156.870935 
L 404.142891 156.951928 
L 405.13707 155.943775 
L 407.12543 151.845223 
L 408.119609 150.178797 
L 409.113789 147.9386 
L 410.107969 144.736306 
L 412.096328 137.060477 
L 416.073047 118.583647 
L 417.067227 115.050082 
L 418.061406 112.14019 
L 419.055586 110.779097 
L 420.049766 111.500008 
L 421.043945 112.767505 
L 422.038125 112.89815 
L 424.026484 112.000575 
L 426.014844 110.260413 
L 427.009023 109.928971 
L 428.003203 110.02121 
L 429.991562 111.674377 
L 430.985742 111.556914 
L 431.979922 110.844245 
L 432.974102 109.741561 
L 433.968281 107.568039 
L 435.956641 101.342332 
L 436.95082 99.631438 
L 437.945 99.42711 
L 438.93918 100.202015 
L 440.927539 102.208568 
L 442.915898 105.202838 
L 445.898437 108.36561 
L 446.892617 109.821414 
L 448.880977 113.557255 
L 449.875156 115.738419 
L 450.869336 118.460084 
L 451.863516 122.112949 
L 452.857695 126.714099 
L 453.851875 130.039273 
L 454.846055 130.305034 
L 456.834414 127.235757 
L 457.828594 126.21061 
L 458.822773 125.903785 
L 459.816953 125.921357 
L 460.811133 125.819644 
L 461.805312 124.239857 
L 463.793672 117.404643 
L 464.787852 116.045129 
L 465.782031 115.34858 
L 466.776211 113.791691 
L 467.770391 112.918315 
L 468.76457 114.227262 
L 470.75293 119.743824 
L 471.747109 121.195011 
L 472.741289 121.480759 
L 473.735469 120.585575 
L 474.729648 118.59071 
L 475.723828 115.970322 
L 476.718008 112.926056 
L 477.712187 110.455759 
L 478.706367 109.695049 
L 479.700547 109.485981 
L 480.694727 108.538055 
L 481.688906 106.004553 
L 482.683086 100.862312 
L 483.677266 94.830197 
L 484.671445 90.353634 
L 485.665625 88.005356 
L 486.659805 87.750988 
L 487.653984 89.297563 
L 488.648164 91.890178 
L 489.642344 94.076523 
L 490.636523 94.264671 
L 491.630703 93.231536 
L 492.624883 92.656863 
L 493.619062 92.980332 
L 494.613242 94.510451 
L 495.607422 97.486929 
L 498.589961 108.417842 
L 499.584141 111.415172 
L 500.57832 113.537189 
L 501.5725 114.590768 
L 502.56668 113.942098 
L 503.560859 111.865382 
L 505.549219 106.707718 
L 508.531758 99.781153 
L 509.525937 98.54041 
L 510.520117 99.017607 
L 511.514297 100.237916 
L 512.508477 100.696384 
L 513.502656 99.623347 
L 514.496836 97.233461 
L 515.491016 95.580972 
L 516.485195 96.471886 
L 517.479375 99.076878 
L 518.473555 102.178278 
L 519.467734 104.779743 
L 520.461914 106.086683 
L 521.456094 105.651944 
L 522.450273 103.339541 
L 523.444453 100.684628 
L 526.426992 96.110253 
L 527.421172 95.204627 
L 528.415352 95.191595 
L 529.409531 94.831982 
L 530.403711 93.581651 
L 531.397891 92.532973 
L 532.39207 92.044915 
L 533.38625 92.583689 
L 534.38043 95.400773 
L 535.374609 99.255923 
L 536.368789 101.812391 
L 538.357148 102.980258 
L 539.351328 105.399752 
L 541.339687 112.165009 
L 543.328047 117.552956 
L 545.316406 122.44166 
L 546.310586 124.438275 
L 547.304766 125.961461 
L 548.298945 126.423037 
L 548.298945 126.423037 
" clip-path="url(#p983d35b9ab)" style="fill: none; stroke: #000000; stroke-width: 1.5; stroke-linecap: square"/>
   </g>
   <g id="patch_4">
    <path d="M 56.18 174.04 
L 56.18 25.44 
" style="fill: none; stroke: #000000; stroke-width: 0.8; stroke-linejoin: miter; stroke-linecap: square"/>
   </g>
   <g id="patch_5">
    <path d="M 565.2 174.04 
L 565.2 25.44 
" style="fill: none; stroke: #000000; stroke-width: 0.8; stroke-linejoin: miter; stroke-linecap: square"/>
   </g>
   <g id="patch_6">
    <path d="M 56.18 174.04 
L 565.2 174.04 
" style="fill: none; stroke: #000000; stroke-width: 0.8; stroke-linejoin: miter; stroke-linecap: square"/>
   </g>
   <g id="patch_7">
    <path d="M 56.18 25.44 
L 565.2 25.44 
" style="fill: none; stroke: #000000; stroke-width: 0.8; stroke-linejoin: miter; stroke-linecap: square"/>
   </g>
   <g id="text_16">
    <!-- True insulation — chr3:101851136 -->
    <g transform="translate(207.230312 19.44) scale(0.12 -0.12)">
     <defs>
      <path id="DejaVuSans-54" d="M -19 4666 
L 3928 4666 
L 3928 4134 
L 2272 4134 
L 2272 0 
L 1638 0 
L 1638 4134 
L -19 4134 
L -19 4666 
z
" transform="scale(0.015625)"/>
      <path id="DejaVuSans-2014" d="M 313 1978 
L 6088 1978 
L 6088 1528 
L 313 1528 
L 313 1978 
z
" transform="scale(0.015625)"/>
      <path id="DejaVuSans-68" d="M 3513 2113 
L 3513 0 
L 2938 0 
L 2938 2094 
Q 2938 2591 2744 2837 
Q 2550 3084 2163 3084 
Q 1697 3084 1428 2787 
Q 1159 2491 1159 1978 
L 1159 0 
L 581 0 
L 581 4863 
L 1159 4863 
L 1159 2956 
Q 1366 3272 1645 3428 
Q 1925 3584 2291 3584 
Q 2894 3584 3203 3211 
Q 3513 2838 3513 2113 
z
" transform="scale(0.015625)"/>
      <path id="DejaVuSans-3a" d="M 750 794 
L 1409 794 
L 1409 0 
L 750 0 
L 750 794 
z
M 750 3309 
L 1409 3309 
L 1409 2516 
L 750 2516 
L 750 3309 
z
" transform="scale(0.015625)"/>
      <path id="DejaVuSans-38" d="M 2034 2216 
Q 1584 2216 1326 1975 
Q 1069 1734 1069 1313 
Q 1069 891 1326 650 
Q 1584 409 2034 409 
Q 2484 409 2743 651 
Q 3003 894 3003 1313 
Q 3003 1734 2745 1975 
Q 2488 2216 2034 2216 
z
M 1403 2484 
Q 997 2584 770 2862 
Q 544 3141 544 3541 
Q 544 4100 942 4425 
Q 1341 4750 2034 4750 
Q 2731 4750 3128 4425 
Q 3525 4100 3525 3541 
Q 3525 3141 3298 2862 
Q 3072 2584 2669 2484 
Q 3125 2378 3379 2068 
Q 3634 1759 3634 1313 
Q 3634 634 3220 271 
Q 2806 -91 2034 -91 
Q 1263 -91 848 271 
Q 434 634 434 1313 
Q 434 1759 690 2068 
Q 947 2378 1403 2484 
z
M 1172 3481 
Q 1172 3119 1398 2916 
Q 1625 2713 2034 2713 
Q 2441 2713 2670 2916 
Q 2900 3119 2900 3481 
Q 2900 3844 2670 4047 
Q 2441 4250 2034 4250 
Q 1625 4250 1398 4047 
Q 1172 3844 1172 3481 
z
" transform="scale(0.015625)"/>
     </defs>
     <use xlink:href="#DejaVuSans-54"/>
     <use xlink:href="#DejaVuSans-72" transform="translate(46.333984 0)"/>
     <use xlink:href="#DejaVuSans-75" transform="translate(87.447266 0)"/>
     <use xlink:href="#DejaVuSans-65" transform="translate(150.826172 0)"/>
     <use xlink:href="#DejaVuSans-20" transform="translate(212.349609 0)"/>
     <use xlink:href="#DejaVuSans-69" transform="translate(244.136719 0)"/>
     <use xlink:href="#DejaVuSans-6e" transform="translate(271.919922 0)"/>
     <use xlink:href="#DejaVuSans-73" transform="translate(335.298828 0)"/>
     <use xlink:href="#DejaVuSans-75" transform="translate(387.398438 0)"/>
     <use xlink:href="#DejaVuSans-6c" transform="translate(450.777344 0)"/>
     <use xlink:href="#DejaVuSans-61" transform="translate(478.560547 0)"/>
     <use xlink:href="#DejaVuSans-74" transform="translate(539.839844 0)"/>
     <use xlink:href="#DejaVuSans-69" transform="translate(579.048828 0)"/>
     <use xlink:href="#DejaVuSans-6f" transform="translate(606.832031 0)"/>
     <use xlink:href="#DejaVuSans-6e" transform="translate(668.013672 0)"/>
     <use xlink:href="#DejaVuSans-20" transform="translate(731.392578 0)"/>
     <use xlink:href="#DejaVuSans-2014" transform="translate(763.179688 0)"/>
     <use xlink:href="#DejaVuSans-20" transform="translate(863.179688 0)"/>
     <use xlink:href="#DejaVuSans-63" transform="translate(894.966797 0)"/>
     <use xlink:href="#DejaVuSans-68" transform="translate(949.947266 0)"/>
     <use xlink:href="#DejaVuSans-72" transform="translate(1013.326172 0)"/>
     <use xlink:href="#DejaVuSans-33" transform="translate(1054.439453 0)"/>
     <use xlink:href="#DejaVuSans-3a" transform="translate(1118.0625 0)"/>
     <use xlink:href="#DejaVuSans-31" transform="translate(1151.753906 0)"/>
     <use xlink:href="#DejaVuSans-30" transform="translate(1215.376953 0)"/>
     <use xlink:href="#DejaVuSans-31" transform="translate(1279 0)"/>
     <use xlink:href="#DejaVuSans-38" transform="translate(1342.623047 0)"/>
     <use xlink:href="#DejaVuSans-35" transform="translate(1406.246094 0)"/>
     <use xlink:href="#DejaVuSans-31" transform="translate(1469.869141 0)"/>
     <use xlink:href="#DejaVuSans-31" transform="translate(1533.492188 0)"/>
     <use xlink:href="#DejaVuSans-33" transform="translate(1597.115234 0)"/>
     <use xlink:href="#DejaVuSans-36" transform="translate(1660.738281 0)"/>
    </g>
   </g>
   <g id="legend_1">
    <g id="patch_8">
     <path d="M 472.821875 62.79625 
L 558.2 62.79625 
Q 560.2 62.79625 560.2 60.79625 
L 560.2 32.44 
Q 560.2 30.44 558.2 30.44 
L 472.821875 30.44 
Q 470.821875 30.44 470.821875 32.44 
L 470.821875 60.79625 
Q 470.821875 62.79625 472.821875 62.79625 
z
" style="fill: #ffffff; opacity: 0.8; stroke: #cccccc; stroke-linejoin: miter"/>
    </g>
    <g id="line2d_15">
     <path d="M 474.821875 38.538438 
L 484.821875 38.538438 
L 494.821875 38.538438 
" style="fill: none; stroke: #000000; stroke-width: 1.5; stroke-linecap: square"/>
    </g>
    <g id="text_17">
     <!-- True -->
     <g transform="translate(502.821875 42.038438) scale(0.1 -0.1)">
      <use xlink:href="#DejaVuSans-54"/>
      <use xlink:href="#DejaVuSans-72" transform="translate(46.333984 0)"/>
      <use xlink:href="#DejaVuSans-75" transform="translate(87.447266 0)"/>
      <use xlink:href="#DejaVuSans-65" transform="translate(150.826172 0)"/>
     </g>
    </g>
    <g id="patch_9">
     <path d="M 474.821875 56.716563 
L 494.821875 56.716563 
L 494.821875 49.716563 
L 474.821875 49.716563 
z
" style="fill: #ff0000; opacity: 0.25; stroke: #ff0000; stroke-linejoin: miter"/>
    </g>
    <g id="text_18">
     <!-- Flat region -->
     <g transform="translate(502.821875 56.716563) scale(0.1 -0.1)">
      <defs>
       <path id="DejaVuSans-46" d="M 628 4666 
L 3309 4666 
L 3309 4134 
L 1259 4134 
L 1259 2759 
L 3109 2759 
L 3109 2228 
L 1259 2228 
L 1259 0 
L 628 0 
L 628 4666 
z
" transform="scale(0.015625)"/>
       <path id="DejaVuSans-67" d="M 2906 1791 
Q 2906 2416 2648 2759 
Q 2391 3103 1925 3103 
Q 1463 3103 1205 2759 
Q 947 2416 947 1791 
Q 947 1169 1205 825 
Q 1463 481 1925 481 
Q 2391 481 2648 825 
Q 2906 1169 2906 1791 
z
M 3481 434 
Q 3481 -459 3084 -895 
Q 2688 -1331 1869 -1331 
Q 1566 -1331 1297 -1286 
Q 1028 -1241 775 -1147 
L 775 -588 
Q 1028 -725 1275 -790 
Q 1522 -856 1778 -856 
Q 2344 -856 2625 -561 
Q 2906 -266 2906 331 
L 2906 616 
Q 2728 306 2450 153 
Q 2172 0 1784 0 
Q 1141 0 747 490 
Q 353 981 353 1791 
Q 353 2603 747 3093 
Q 1141 3584 1784 3584 
Q 2172 3584 2450 3431 
Q 2728 3278 2906 2969 
L 2906 3500 
L 3481 3500 
L 3481 434 
z
" transform="scale(0.015625)"/>
      </defs>
      <use xlink:href="#DejaVuSans-46"/>
      <use xlink:href="#DejaVuSans-6c" transform="translate(57.519531 0)"/>
      <use xlink:href="#DejaVuSans-61" transform="translate(85.302734 0)"/>
      <use xlink:href="#DejaVuSans-74" transform="translate(146.582031 0)"/>
      <use xlink:href="#DejaVuSans-20" transform="translate(185.791016 0)"/>
      <use xlink:href="#DejaVuSans-72" transform="translate(217.578125 0)"/>
      <use xlink:href="#DejaVuSans-65" transform="translate(256.441406 0)"/>
      <use xlink:href="#DejaVuSans-67" transform="translate(317.964844 0)"/>
      <use xlink:href="#DejaVuSans-69" transform="translate(381.441406 0)"/>
      <use xlink:href="#DejaVuSans-6f" transform="translate(409.224609 0)"/>
      <use xlink:href="#DejaVuSans-6e" transform="translate(470.40625 0)"/>
     </g>
    </g>
   </g>
  </g>
 </g>
 <defs>
  <clipPath id="p983d35b9ab">
   <rect x="56.18" y="25.44" width="509.02" height="148.6"/>
  </clipPath>
 </defs>
</svg>
