<?xml version="1.0" encoding="utf-8" standalone="no"?>
<!DOCTYPE svg PUBLIC "-//W3C//DTD SVG 1.1//EN"
  "http://www.w3.org/Graphics/SVG/1.1/DTD/svg11.dtd">
<svg xmlns:xlink="http://www.w3.org/1999/xlink" width="1008pt" height="504pt" viewBox="0 0 1008 504" xmlns="http://www.w3.org/2000/svg" version="1.1">
 <metadata>
  <rdf:RDF xmlns:dc="http://purl.org/dc/elements/1.1/" xmlns:cc="http://creativecommons.org/ns#" xmlns:rdf="http://www.w3.org/1999/02/22-rdf-syntax-ns#">
   <cc:Work>
    <dc:type rdf:resource="http://purl.org/dc/dcmitype/StillImage"/>
    <dc:date>2026-01-27T10:33:01.074361</dc:date>
    <dc:format>image/svg+xml</dc:format>
    <dc:creator>
     <cc:Agent>
      <dc:title>Matplotlib v3.10.8, https://matplotlib.org/</dc:title>
     </cc:Agent>
    </dc:creator>
   </cc:Work>
  </rdf:RDF>
 </metadata>
 <defs>
  <style type="text/css">*{stroke-linejoin: round; stroke-linecap: butt}</style>
 </defs>
 <g id="figure_1">
  <g id="patch_1">
   <path d="M 0 504 
L 1008 504 
L 1008 0 
L 0 0 
z
" style="fill: #ffffff"/>
  </g>
  <g id="axes_1">
   <g id="patch_2">
    <path d="M 59.06 464.456 
L 997.2 464.456 
L 997.2 10.8 
L 59.06 10.8 
z
" style="fill: #ffffff"/>
   </g>
   <g id="matplotlib.axis_1">
    <g id="xtick_1">
     <g id="line2d_1">
      <defs>
       <path id="m8d39095f6c" d="M 0 0 
L 0 3.5 
" style="stroke: #000000; stroke-width: 0.8"/>
      </defs>
      <g>
       <use xlink:href="#m8d39095f6c" x="105.967" y="464.456" style="stroke: #000000; stroke-width: 0.8"/>
      </g>
     </g>
     <g id="text_1">
      <!-- H1 -->
      <g transform="translate(99.025594 479.054438) scale(0.1 -0.1)">
       <defs>
        <path id="DejaVuSans-48" d="M 628 4666 
L 1259 4666 
L 1259 2753 
L 3553 2753 
L 3553 4666 
L 4184 4666 
L 4184 0 
L 3553 0 
L 3553 2222 
L 1259 2222 
L 1259 0 
L 628 0 
L 628 4666 
z
" transform="scale(0.015625)"/>
        <path id="DejaVuSans-31" d="M 794 531 
L 1825 531 
L 1825 4091 
L 703 3866 
L 703 4441 
L 1819 4666 
L 2450 4666 
L 2450 531 
L 3481 531 
L 3481 0 
L 794 0 
L 794 531 
z
" transform="scale(0.015625)"/>
       </defs>
       <use xlink:href="#DejaVuSans-48"/>
       <use xlink:href="#DejaVuSans-31" transform="translate(75.195312 0)"/>
      </g>
      <!-- Before -->
      <g transform="translate(89.620906 490.25225) scale(0.1 -0.1)">
       <defs>
        <path id="DejaVuSans-42" d="M 1259 2228 
L 1259 519 
L 2272 519 
Q 2781 519 3026 730 
Q 3272 941 3272 1375 
Q 3272 1813 3026 2020 
Q 2781 2228 2272 2228 
L 1259 2228 
z
M 1259 4147 
L 1259 2741 
L 2194 2741 
Q 2656 2741 2882 2914 
Q 3109 3088 3109 3444 
Q 3109 3797 2882 3972 
Q 2656 4147 2194 4147 
L 1259 4147 
z
M 628 4666 
L 2241 4666 
Q 2963 4666 3353 4366 
Q 3744 4066 3744 3513 
Q 3744 3084 3544 2831 
Q 3344 2578 2956 2516 
Q 3422 2416 3680 2098 
Q 3938 1781 3938 1306 
Q 3938 681 3513 340 
Q 3088 0 2303 0 
L 628 0 
L 628 4666 
z
" transform="scale(0.015625)"/>
        <path id="DejaVuSans-65" d="M 3597 1894 
L 3597 1613 
L 953 1613 
Q 991 1019 1311 708 
Q 1631 397 2203 397 
Q 2534 397 2845 478 
Q 3156 559 3463 722 
L 3463 178 
Q 3153 47 2828 -22 
Q 2503 -91 2169 -91 
Q 1331 -91 842 396 
Q 353 884 353 1716 
Q 353 2575 817 3079 
Q 1281 3584 2069 3584 
Q 2775 3584 3186 3129 
Q 3597 2675 3597 1894 
z
M 3022 2063 
Q 3016 2534 2758 2815 
Q 2500 3097 2075 3097 
Q 1594 3097 1305 2825 
Q 1016 2553 972 2059 
L 3022 2063 
z
" transform="scale(0.015625)"/>
        <path id="DejaVuSans-66" d="M 2375 4863 
L 2375 4384 
L 1825 4384 
Q 1516 4384 1395 4259 
Q 1275 4134 1275 3809 
L 1275 3500 
L 2222 3500 
L 2222 3053 
L 1275 3053 
L 1275 0 
L 697 0 
L 697 3053 
L 147 3053 
L 147 3500 
L 697 3500 
L 697 3744 
Q 697 4328 969 4595 
Q 1241 4863 1831 4863 
L 2375 4863 
z
" transform="scale(0.015625)"/>
        <path id="DejaVuSans-6f" d="M 1959 3097 
Q 1497 3097 1228 2736 
Q 959 2375 959 1747 
Q 959 1119 1226 758 
Q 1494 397 1959 397 
Q 2419 397 2687 759 
Q 2956 1122 2956 1747 
Q 2956 2369 2687 2733 
Q 2419 3097 1959 3097 
z
M 1959 3584 
Q 2709 3584 3137 3096 
Q 3566 2609 3566 1747 
Q 3566 888 3137 398 
Q 2709 -91 1959 -91 
Q 1206 -91 779 398 
Q 353 888 353 1747 
Q 353 2609 779 3096 
Q 1206 3584 1959 3584 
z
" transform="scale(0.015625)"/>
        <path id="DejaVuSans-72" d="M 2631 2963 
Q 2534 3019 2420 3045 
Q 2306 3072 2169 3072 
Q 1681 3072 1420 2755 
Q 1159 2438 1159 1844 
L 1159 0 
L 581 0 
L 581 3500 
L 1159 3500 
L 1159 2956 
Q 1341 3275 1631 3429 
Q 1922 3584 2338 3584 
Q 2397 3584 2469 3576 
Q 2541 3569 2628 3553 
L 2631 2963 
z
" transform="scale(0.015625)"/>
       </defs>
       <use xlink:href="#DejaVuSans-42"/>
       <use xlink:href="#DejaVuSans-65" transform="translate(68.603516 0)"/>
       <use xlink:href="#DejaVuSans-66" transform="translate(130.126953 0)"/>
       <use xlink:href="#DejaVuSans-6f" transform="translate(165.332031 0)"/>
       <use xlink:href="#DejaVuSans-72" transform="translate(226.513672 0)"/>
       <use xlink:href="#DejaVuSans-65" transform="translate(265.376953 0)"/>
      </g>
     </g>
    </g>
    <g id="xtick_2">
     <g id="line2d_2">
      <g>
       <use xlink:href="#m8d39095f6c" x="199.781" y="464.456" style="stroke: #000000; stroke-width: 0.8"/>
      </g>
     </g>
     <g id="text_2">
      <!-- H1 -->
      <g transform="translate(192.839594 479.054438) scale(0.1 -0.1)">
       <use xlink:href="#DejaVuSans-48"/>
       <use xlink:href="#DejaVuSans-31" transform="translate(75.195312 0)"/>
      </g>
      <!-- After(O) -->
      <g transform="translate(179.939594 490.25225) scale(0.1 -0.1)">
       <defs>
        <path id="DejaVuSans-41" d="M 2188 4044 
L 1331 1722 
L 3047 1722 
L 2188 4044 
z
M 1831 4666 
L 2547 4666 
L 4325 0 
L 3669 0 
L 3244 1197 
L 1141 1197 
L 716 0 
L 50 0 
L 1831 4666 
z
" transform="scale(0.015625)"/>
        <path id="DejaVuSans-74" d="M 1172 4494 
L 1172 3500 
L 2356 3500 
L 2356 3053 
L 1172 3053 
L 1172 1153 
Q 1172 725 1289 603 
Q 1406 481 1766 481 
L 2356 481 
L 2356 0 
L 1766 0 
Q 1100 0 847 248 
Q 594 497 594 1153 
L 594 3053 
L 172 3053 
L 172 3500 
L 594 3500 
L 594 4494 
L 1172 4494 
z
" transform="scale(0.015625)"/>
        <path id="DejaVuSans-28" d="M 1984 4856 
Q 1566 4138 1362 3434 
Q 1159 2731 1159 2009 
Q 1159 1288 1364 580 
Q 1569 -128 1984 -844 
L 1484 -844 
Q 1016 -109 783 600 
Q 550 1309 550 2009 
Q 550 2706 781 3412 
Q 1013 4119 1484 4856 
L 1984 4856 
z
" transform="scale(0.015625)"/>
        <path id="DejaVuSans-4f" d="M 2522 4238 
Q 1834 4238 1429 3725 
Q 1025 3213 1025 2328 
Q 1025 1447 1429 934 
Q 1834 422 2522 422 
Q 3209 422 3611 934 
Q 4013 1447 4013 2328 
Q 4013 3213 3611 3725 
Q 3209 4238 2522 4238 
z
M 2522 4750 
Q 3503 4750 4090 4092 
Q 4678 3434 4678 2328 
Q 4678 1225 4090 567 
Q 3503 -91 2522 -91 
Q 1538 -91 948 565 
Q 359 1222 359 2328 
Q 359 3434 948 4092 
Q 1538 4750 2522 4750 
z
" transform="scale(0.015625)"/>
        <path id="DejaVuSans-29" d="M 513 4856 
L 1013 4856 
Q 1481 4119 1714 3412 
Q 1947 2706 1947 2009 
Q 1947 1309 1714 600 
Q 1481 -109 1013 -844 
L 513 -844 
Q 928 -128 1133 580 
Q 1338 1288 1338 2009 
Q 1338 2731 1133 3434 
Q 928 4138 513 4856 
z
" transform="scale(0.015625)"/>
       </defs>
       <use xlink:href="#DejaVuSans-41"/>
       <use xlink:href="#DejaVuSans-66" transform="translate(64.783203 0)"/>
       <use xlink:href="#DejaVuSans-74" transform="translate(98.238281 0)"/>
       <use xlink:href="#DejaVuSans-65" transform="translate(137.447266 0)"/>
       <use xlink:href="#DejaVuSans-72" transform="translate(198.970703 0)"/>
       <use xlink:href="#DejaVuSans-28" transform="translate(240.083984 0)"/>
       <use xlink:href="#DejaVuSans-4f" transform="translate(279.097656 0)"/>
       <use xlink:href="#DejaVuSans-29" transform="translate(357.808594 0)"/>
      </g>
     </g>
    </g>
    <g id="xtick_3">
     <g id="line2d_3">
      <g>
       <use xlink:href="#m8d39095f6c" x="293.595" y="464.456" style="stroke: #000000; stroke-width: 0.8"/>
      </g>
     </g>
     <g id="text_3">
      <!-- H1 -->
      <g transform="translate(286.653594 479.054438) scale(0.1 -0.1)">
       <use xlink:href="#DejaVuSans-48"/>
       <use xlink:href="#DejaVuSans-31" transform="translate(75.195312 0)"/>
      </g>
      <!-- After(NO) -->
      <g transform="translate(270.012969 490.25225) scale(0.1 -0.1)">
       <defs>
        <path id="DejaVuSans-4e" d="M 628 4666 
L 1478 4666 
L 3547 763 
L 3547 4666 
L 4159 4666 
L 4159 0 
L 3309 0 
L 1241 3903 
L 1241 0 
L 628 0 
L 628 4666 
z
" transform="scale(0.015625)"/>
       </defs>
       <use xlink:href="#DejaVuSans-41"/>
       <use xlink:href="#DejaVuSans-66" transform="translate(64.783203 0)"/>
       <use xlink:href="#DejaVuSans-74" transform="translate(98.238281 0)"/>
       <use xlink:href="#DejaVuSans-65" transform="translate(137.447266 0)"/>
       <use xlink:href="#DejaVuSans-72" transform="translate(198.970703 0)"/>
       <use xlink:href="#DejaVuSans-28" transform="translate(240.083984 0)"/>
       <use xlink:href="#DejaVuSans-4e" transform="translate(279.097656 0)"/>
       <use xlink:href="#DejaVuSans-4f" transform="translate(353.902344 0)"/>
       <use xlink:href="#DejaVuSans-29" transform="translate(432.613281 0)"/>
      </g>
     </g>
    </g>
    <g id="xtick_4">
     <g id="line2d_4">
      <g>
       <use xlink:href="#m8d39095f6c" x="387.409" y="464.456" style="stroke: #000000; stroke-width: 0.8"/>
      </g>
     </g>
     <g id="text_4">
      <!-- HFF -->
      <g transform="translate(377.897281 479.054438) scale(0.1 -0.1)">
       <defs>
        <path id="DejaVuSans-46" d="M 628 4666 
L 3309 4666 
L 3309 4134 
L 1259 4134 
L 1259 2759 
L 3109 2759 
L 3109 2228 
L 1259 2228 
L 1259 0 
L 628 0 
L 628 4666 
z
" transform="scale(0.015625)"/>
       </defs>
       <use xlink:href="#DejaVuSans-48"/>
       <use xlink:href="#DejaVuSans-46" transform="translate(75.195312 0)"/>
       <use xlink:href="#DejaVuSans-46" transform="translate(132.714844 0)"/>
      </g>
      <!-- Before -->
      <g transform="translate(371.062906 490.25225) scale(0.1 -0.1)">
       <use xlink:href="#DejaVuSans-42"/>
       <use xlink:href="#DejaVuSans-65" transform="translate(68.603516 0)"/>
       <use xlink:href="#DejaVuSans-66" transform="translate(130.126953 0)"/>
       <use xlink:href="#DejaVuSans-6f" transform="translate(165.332031 0)"/>
       <use xlink:href="#DejaVuSans-72" transform="translate(226.513672 0)"/>
       <use xlink:href="#DejaVuSans-65" transform="translate(265.376953 0)"/>
      </g>
     </g>
    </g>
    <g id="xtick_5">
     <g id="line2d_5">
      <g>
       <use xlink:href="#m8d39095f6c" x="481.223" y="464.456" style="stroke: #000000; stroke-width: 0.8"/>
      </g>
     </g>
     <g id="text_5">
      <!-- HFF -->
      <g transform="translate(471.711281 479.054438) scale(0.1 -0.1)">
       <use xlink:href="#DejaVuSans-48"/>
       <use xlink:href="#DejaVuSans-46" transform="translate(75.195312 0)"/>
       <use xlink:href="#DejaVuSans-46" transform="translate(132.714844 0)"/>
      </g>
      <!-- After(O) -->
      <g transform="translate(461.381594 490.25225) scale(0.1 -0.1)">
       <use xlink:href="#DejaVuSans-41"/>
       <use xlink:href="#DejaVuSans-66" transform="translate(64.783203 0)"/>
       <use xlink:href="#DejaVuSans-74" transform="translate(98.238281 0)"/>
       <use xlink:href="#DejaVuSans-65" transform="translate(137.447266 0)"/>
       <use xlink:href="#DejaVuSans-72" transform="translate(198.970703 0)"/>
       <use xlink:href="#DejaVuSans-28" transform="translate(240.083984 0)"/>
       <use xlink:href="#DejaVuSans-4f" transform="translate(279.097656 0)"/>
       <use xlink:href="#DejaVuSans-29" transform="translate(357.808594 0)"/>
      </g>
     </g>
    </g>
    <g id="xtick_6">
     <g id="line2d_6">
      <g>
       <use xlink:href="#m8d39095f6c" x="575.037" y="464.456" style="stroke: #000000; stroke-width: 0.8"/>
      </g>
     </g>
     <g id="text_6">
      <!-- HFF -->
      <g transform="translate(565.525281 479.054438) scale(0.1 -0.1)">
       <use xlink:href="#DejaVuSans-48"/>
       <use xlink:href="#DejaVuSans-46" transform="translate(75.195312 0)"/>
       <use xlink:href="#DejaVuSans-46" transform="translate(132.714844 0)"/>
      </g>
      <!-- After(NO) -->
      <g transform="translate(551.454969 490.25225) scale(0.1 -0.1)">
       <use xlink:href="#DejaVuSans-41"/>
       <use xlink:href="#DejaVuSans-66" transform="translate(64.783203 0)"/>
       <use xlink:href="#DejaVuSans-74" transform="translate(98.238281 0)"/>
       <use xlink:href="#DejaVuSans-65" transform="translate(137.447266 0)"/>
       <use xlink:href="#DejaVuSans-72" transform="translate(198.970703 0)"/>
       <use xlink:href="#DejaVuSans-28" transform="translate(240.083984 0)"/>
       <use xlink:href="#DejaVuSans-4e" transform="translate(279.097656 0)"/>
       <use xlink:href="#DejaVuSans-4f" transform="translate(353.902344 0)"/>
       <use xlink:href="#DejaVuSans-29" transform="translate(432.613281 0)"/>
      </g>
     </g>
    </g>
    <g id="xtick_7">
     <g id="line2d_7">
      <g>
       <use xlink:href="#m8d39095f6c" x="668.851" y="464.456" style="stroke: #000000; stroke-width: 0.8"/>
      </g>
     </g>
     <g id="text_7">
      <!-- H1 -->
      <g transform="translate(661.909594 479.054438) scale(0.1 -0.1)">
       <use xlink:href="#DejaVuSans-48"/>
       <use xlink:href="#DejaVuSans-31" transform="translate(75.195312 0)"/>
      </g>
      <!-- AG, Before -->
      <g transform="translate(642.11975 490.25225) scale(0.1 -0.1)">
       <defs>
        <path id="DejaVuSans-47" d="M 3809 666 
L 3809 1919 
L 2778 1919 
L 2778 2438 
L 4434 2438 
L 4434 434 
Q 4069 175 3628 42 
Q 3188 -91 2688 -91 
Q 1594 -91 976 548 
Q 359 1188 359 2328 
Q 359 3472 976 4111 
Q 1594 4750 2688 4750 
Q 3144 4750 3555 4637 
Q 3966 4525 4313 4306 
L 4313 3634 
Q 3963 3931 3569 4081 
Q 3175 4231 2741 4231 
Q 1884 4231 1454 3753 
Q 1025 3275 1025 2328 
Q 1025 1384 1454 906 
Q 1884 428 2741 428 
Q 3075 428 3337 486 
Q 3600 544 3809 666 
z
" transform="scale(0.015625)"/>
        <path id="DejaVuSans-2c" d="M 750 794 
L 1409 794 
L 1409 256 
L 897 -744 
L 494 -744 
L 750 256 
L 750 794 
z
" transform="scale(0.015625)"/>
        <path id="DejaVuSans-20" transform="scale(0.015625)"/>
       </defs>
       <use xlink:href="#DejaVuSans-41"/>
       <use xlink:href="#DejaVuSans-47" transform="translate(66.658203 0)"/>
       <use xlink:href="#DejaVuSans-2c" transform="translate(144.148438 0)"/>
       <use xlink:href="#DejaVuSans-20" transform="translate(175.935547 0)"/>
       <use xlink:href="#DejaVuSans-42" transform="translate(207.722656 0)"/>
       <use xlink:href="#DejaVuSans-65" transform="translate(276.326172 0)"/>
       <use xlink:href="#DejaVuSans-66" transform="translate(337.849609 0)"/>
       <use xlink:href="#DejaVuSans-6f" transform="translate(373.054688 0)"/>
       <use xlink:href="#DejaVuSans-72" transform="translate(434.236328 0)"/>
       <use xlink:href="#DejaVuSans-65" transform="translate(473.099609 0)"/>
      </g>
     </g>
    </g>
    <g id="xtick_8">
     <g id="line2d_8">
      <g>
       <use xlink:href="#m8d39095f6c" x="762.665" y="464.456" style="stroke: #000000; stroke-width: 0.8"/>
      </g>
     </g>
     <g id="text_8">
      <!-- HFF -->
      <g transform="translate(753.153281 479.054438) scale(0.1 -0.1)">
       <use xlink:href="#DejaVuSans-48"/>
       <use xlink:href="#DejaVuSans-46" transform="translate(75.195312 0)"/>
       <use xlink:href="#DejaVuSans-46" transform="translate(132.714844 0)"/>
      </g>
      <!-- AG, After -->
      <g transform="translate(740.275938 490.25225) scale(0.1 -0.1)">
       <use xlink:href="#DejaVuSans-41"/>
       <use xlink:href="#DejaVuSans-47" transform="translate(66.658203 0)"/>
       <use xlink:href="#DejaVuSans-2c" transform="translate(144.148438 0)"/>
       <use xlink:href="#DejaVuSans-20" transform="translate(175.935547 0)"/>
       <use xlink:href="#DejaVuSans-41" transform="translate(207.722656 0)"/>
       <use xlink:href="#DejaVuSans-66" transform="translate(272.505859 0)"/>
       <use xlink:href="#DejaVuSans-74" transform="translate(305.960938 0)"/>
       <use xlink:href="#DejaVuSans-65" transform="translate(345.169922 0)"/>
       <use xlink:href="#DejaVuSans-72" transform="translate(406.693359 0)"/>
      </g>
     </g>
    </g>
    <g id="xtick_9">
     <g id="line2d_9">
      <g>
       <use xlink:href="#m8d39095f6c" x="856.479" y="464.456" style="stroke: #000000; stroke-width: 0.8"/>
      </g>
     </g>
     <g id="text_9">
      <!-- H1 -->
      <g transform="translate(849.537594 479.054438) scale(0.1 -0.1)">
       <use xlink:href="#DejaVuSans-48"/>
       <use xlink:href="#DejaVuSans-31" transform="translate(75.195312 0)"/>
      </g>
      <!-- AG, Before -->
      <g transform="translate(829.74775 490.25225) scale(0.1 -0.1)">
       <use xlink:href="#DejaVuSans-41"/>
       <use xlink:href="#DejaVuSans-47" transform="translate(66.658203 0)"/>
       <use xlink:href="#DejaVuSans-2c" transform="translate(144.148438 0)"/>
       <use xlink:href="#DejaVuSans-20" transform="translate(175.935547 0)"/>
       <use xlink:href="#DejaVuSans-42" transform="translate(207.722656 0)"/>
       <use xlink:href="#DejaVuSans-65" transform="translate(276.326172 0)"/>
       <use xlink:href="#DejaVuSans-66" transform="translate(337.849609 0)"/>
       <use xlink:href="#DejaVuSans-6f" transform="translate(373.054688 0)"/>
       <use xlink:href="#DejaVuSans-72" transform="translate(434.236328 0)"/>
       <use xlink:href="#DejaVuSans-65" transform="translate(473.099609 0)"/>
      </g>
     </g>
    </g>
    <g id="xtick_10">
     <g id="line2d_10">
      <g>
       <use xlink:href="#m8d39095f6c" x="950.293" y="464.456" style="stroke: #000000; stroke-width: 0.8"/>
      </g>
     </g>
     <g id="text_10">
      <!-- HFF -->
      <g transform="translate(940.781281 479.054438) scale(0.1 -0.1)">
       <use xlink:href="#DejaVuSans-48"/>
       <use xlink:href="#DejaVuSans-46" transform="translate(75.195312 0)"/>
       <use xlink:href="#DejaVuSans-46" transform="translate(132.714844 0)"/>
      </g>
      <!-- AG, After -->
      <g transform="translate(927.903938 490.25225) scale(0.1 -0.1)">
       <use xlink:href="#DejaVuSans-41"/>
       <use xlink:href="#DejaVuSans-47" transform="translate(66.658203 0)"/>
       <use xlink:href="#DejaVuSans-2c" transform="translate(144.148438 0)"/>
       <use xlink:href="#DejaVuSans-20" transform="translate(175.935547 0)"/>
       <use xlink:href="#DejaVuSans-41" transform="translate(207.722656 0)"/>
       <use xlink:href="#DejaVuSans-66" transform="translate(272.505859 0)"/>
       <use xlink:href="#DejaVuSans-74" transform="translate(305.960938 0)"/>
       <use xlink:href="#DejaVuSans-65" transform="translate(345.169922 0)"/>
       <use xlink:href="#DejaVuSans-72" transform="translate(406.693359 0)"/>
      </g>
     </g>
    </g>
   </g>
   <g id="matplotlib.axis_2">
    <g id="ytick_1">
     <g id="line2d_11">
      <path d="M 59.06 421.33418 
L 997.2 421.33418 
" clip-path="url(#p06b9021f22)" style="fill: none; stroke: #b0b0b0; stroke-opacity: 0.5; stroke-width: 0.8; stroke-linecap: square"/>
     </g>
     <g id="line2d_12">
      <defs>
       <path id="m5bd77496ff" d="M 0 0 
L -3.5 0 
" style="stroke: #000000; stroke-width: 0.8"/>
      </defs>
      <g>
       <use xlink:href="#m5bd77496ff" x="59.06" y="421.33418" style="stroke: #000000; stroke-width: 0.8"/>
      </g>
     </g>
     <g id="text_11">
      <!-- −0.6 -->
      <g transform="translate(27.777188 425.133399) scale(0.1 -0.1)">
       <defs>
        <path id="DejaVuSans-2212" d="M 678 2272 
L 4684 2272 
L 4684 1741 
L 678 1741 
L 678 2272 
z
" transform="scale(0.015625)"/>
        <path id="DejaVuSans-30" d="M 2034 4250 
Q 1547 4250 1301 3770 
Q 1056 3291 1056 2328 
Q 1056 1369 1301 889 
Q 1547 409 2034 409 
Q 2525 409 2770 889 
Q 3016 1369 3016 2328 
Q 3016 3291 2770 3770 
Q 2525 4250 2034 4250 
z
M 2034 4750 
Q 2819 4750 3233 4129 
Q 3647 3509 3647 2328 
Q 3647 1150 3233 529 
Q 2819 -91 2034 -91 
Q 1250 -91 836 529 
Q 422 1150 422 2328 
Q 422 3509 836 4129 
Q 1250 4750 2034 4750 
z
" transform="scale(0.015625)"/>
        <path id="DejaVuSans-2e" d="M 684 794 
L 1344 794 
L 1344 0 
L 684 0 
L 684 794 
z
" transform="scale(0.015625)"/>
        <path id="DejaVuSans-36" d="M 2113 2584 
Q 1688 2584 1439 2293 
Q 1191 2003 1191 1497 
Q 1191 994 1439 701 
Q 1688 409 2113 409 
Q 2538 409 2786 701 
Q 3034 994 3034 1497 
Q 3034 2003 2786 2293 
Q 2538 2584 2113 2584 
z
M 3366 4563 
L 3366 3988 
Q 3128 4100 2886 4159 
Q 2644 4219 2406 4219 
Q 1781 4219 1451 3797 
Q 1122 3375 1075 2522 
Q 1259 2794 1537 2939 
Q 1816 3084 2150 3084 
Q 2853 3084 3261 2657 
Q 3669 2231 3669 1497 
Q 3669 778 3244 343 
Q 2819 -91 2113 -91 
Q 1303 -91 875 529 
Q 447 1150 447 2328 
Q 447 3434 972 4092 
Q 1497 4750 2381 4750 
Q 2619 4750 2861 4703 
Q 3103 4656 3366 4563 
z
" transform="scale(0.015625)"/>
       </defs>
       <use xlink:href="#DejaVuSans-2212"/>
       <use xlink:href="#DejaVuSans-30" transform="translate(83.789062 0)"/>
       <use xlink:href="#DejaVuSans-2e" transform="translate(147.412109 0)"/>
       <use xlink:href="#DejaVuSans-36" transform="translate(179.199219 0)"/>
      </g>
     </g>
    </g>
    <g id="ytick_2">
     <g id="line2d_13">
      <path d="M 59.06 346.807755 
L 997.2 346.807755 
" clip-path="url(#p06b9021f22)" style="fill: none; stroke: #b0b0b0; stroke-opacity: 0.5; stroke-width: 0.8; stroke-linecap: square"/>
     </g>
     <g id="line2d_14">
      <g>
       <use xlink:href="#m5bd77496ff" x="59.06" y="346.807755" style="stroke: #000000; stroke-width: 0.8"/>
      </g>
     </g>
     <g id="text_12">
      <!-- −0.4 -->
      <g transform="translate(27.777188 350.606974) scale(0.1 -0.1)">
       <defs>
        <path id="DejaVuSans-34" d="M 2419 4116 
L 825 1625 
L 2419 1625 
L 2419 4116 
z
M 2253 4666 
L 3047 4666 
L 3047 1625 
L 3713 1625 
L 3713 1100 
L 3047 1100 
L 3047 0 
L 2419 0 
L 2419 1100 
L 313 1100 
L 313 1709 
L 2253 4666 
z
" transform="scale(0.015625)"/>
       </defs>
       <use xlink:href="#DejaVuSans-2212"/>
       <use xlink:href="#DejaVuSans-30" transform="translate(83.789062 0)"/>
       <use xlink:href="#DejaVuSans-2e" transform="translate(147.412109 0)"/>
       <use xlink:href="#DejaVuSans-34" transform="translate(179.199219 0)"/>
      </g>
     </g>
    </g>
    <g id="ytick_3">
     <g id="line2d_15">
      <path d="M 59.06 272.281331 
L 997.2 272.281331 
" clip-path="url(#p06b9021f22)" style="fill: none; stroke: #b0b0b0; stroke-opacity: 0.5; stroke-width: 0.8; stroke-linecap: square"/>
     </g>
     <g id="line2d_16">
      <g>
       <use xlink:href="#m5bd77496ff" x="59.06" y="272.281331" style="stroke: #000000; stroke-width: 0.8"/>
      </g>
     </g>
     <g id="text_13">
      <!-- −0.2 -->
      <g transform="translate(27.777188 276.080549) scale(0.1 -0.1)">
       <defs>
        <path id="DejaVuSans-32" d="M 1228 531 
L 3431 531 
L 3431 0 
L 469 0 
L 469 531 
Q 828 903 1448 1529 
Q 2069 2156 2228 2338 
Q 2531 2678 2651 2914 
Q 2772 3150 2772 3378 
Q 2772 3750 2511 3984 
Q 2250 4219 1831 4219 
Q 1534 4219 1204 4116 
Q 875 4013 500 3803 
L 500 4441 
Q 881 4594 1212 4672 
Q 1544 4750 1819 4750 
Q 2544 4750 2975 4387 
Q 3406 4025 3406 3419 
Q 3406 3131 3298 2873 
Q 3191 2616 2906 2266 
Q 2828 2175 2409 1742 
Q 1991 1309 1228 531 
z
" transform="scale(0.015625)"/>
       </defs>
       <use xlink:href="#DejaVuSans-2212"/>
       <use xlink:href="#DejaVuSans-30" transform="translate(83.789062 0)"/>
       <use xlink:href="#DejaVuSans-2e" transform="translate(147.412109 0)"/>
       <use xlink:href="#DejaVuSans-32" transform="translate(179.199219 0)"/>
      </g>
     </g>
    </g>
    <g id="ytick_4">
     <g id="line2d_17">
      <path d="M 59.06 197.754906 
L 997.2 197.754906 
" clip-path="url(#p06b9021f22)" style="fill: none; stroke: #b0b0b0; stroke-opacity: 0.5; stroke-width: 0.8; stroke-linecap: square"/>
     </g>
     <g id="line2d_18">
      <g>
       <use xlink:href="#m5bd77496ff" x="59.06" y="197.754906" style="stroke: #000000; stroke-width: 0.8"/>
      </g>
     </g>
     <g id="text_14">
      <!-- 0.0 -->
      <g transform="translate(36.156875 201.554125) scale(0.1 -0.1)">
       <use xlink:href="#DejaVuSans-30"/>
       <use xlink:href="#DejaVuSans-2e" transform="translate(63.623047 0)"/>
       <use xlink:href="#DejaVuSans-30" transform="translate(95.410156 0)"/>
      </g>
     </g>
    </g>
    <g id="ytick_5">
     <g id="line2d_19">
      <path d="M 59.06 123.228481 
L 997.2 123.228481 
" clip-path="url(#p06b9021f22)" style="fill: none; stroke: #b0b0b0; stroke-opacity: 0.5; stroke-width: 0.8; stroke-linecap: square"/>
     </g>
     <g id="line2d_20">
      <g>
       <use xlink:href="#m5bd77496ff" x="59.06" y="123.228481" style="stroke: #000000; stroke-width: 0.8"/>
      </g>
     </g>
     <g id="text_15">
      <!-- 0.2 -->
      <g transform="translate(36.156875 127.0277) scale(0.1 -0.1)">
       <use xlink:href="#DejaVuSans-30"/>
       <use xlink:href="#DejaVuSans-2e" transform="translate(63.623047 0)"/>
       <use xlink:href="#DejaVuSans-32" transform="translate(95.410156 0)"/>
      </g>
     </g>
    </g>
    <g id="ytick_6">
     <g id="line2d_21">
      <path d="M 59.06 48.702056 
L 997.2 48.702056 
" clip-path="url(#p06b9021f22)" style="fill: none; stroke: #b0b0b0; stroke-opacity: 0.5; stroke-width: 0.8; stroke-linecap: square"/>
     </g>
     <g id="line2d_22">
      <g>
       <use xlink:href="#m5bd77496ff" x="59.06" y="48.702056" style="stroke: #000000; stroke-width: 0.8"/>
      </g>
     </g>
     <g id="text_16">
      <!-- 0.4 -->
      <g transform="translate(36.156875 52.501275) scale(0.1 -0.1)">
       <use xlink:href="#DejaVuSans-30"/>
       <use xlink:href="#DejaVuSans-2e" transform="translate(63.623047 0)"/>
       <use xlink:href="#DejaVuSans-34" transform="translate(95.410156 0)"/>
      </g>
     </g>
    </g>
    <g id="text_17">
     <!-- Boundary Insulation Score -->
     <g transform="translate(21.073594 323.049172) rotate(-90) scale(0.13 -0.13)">
      <defs>
       <path id="DejaVuSans-75" d="M 544 1381 
L 544 3500 
L 1119 3500 
L 1119 1403 
Q 1119 906 1312 657 
Q 1506 409 1894 409 
Q 2359 409 2629 706 
Q 2900 1003 2900 1516 
L 2900 3500 
L 3475 3500 
L 3475 0 
L 2900 0 
L 2900 538 
Q 2691 219 2414 64 
Q 2138 -91 1772 -91 
Q 1169 -91 856 284 
Q 544 659 544 1381 
z
M 1991 3584 
L 1991 3584 
z
" transform="scale(0.015625)"/>
       <path id="DejaVuSans-6e" d="M 3513 2113 
L 3513 0 
L 2938 0 
L 2938 2094 
Q 2938 2591 2744 2837 
Q 2550 3084 2163 3084 
Q 1697 3084 1428 2787 
Q 1159 2491 1159 1978 
L 1159 0 
L 581 0 
L 581 3500 
L 1159 3500 
L 1159 2956 
Q 1366 3272 1645 3428 
Q 1925 3584 2291 3584 
Q 2894 3584 3203 3211 
Q 3513 2838 3513 2113 
z
" transform="scale(0.015625)"/>
       <path id="DejaVuSans-64" d="M 2906 2969 
L 2906 4863 
L 3481 4863 
L 3481 0 
L 2906 0 
L 2906 525 
Q 2725 213 2448 61 
Q 2172 -91 1784 -91 
Q 1150 -91 751 415 
Q 353 922 353 1747 
Q 353 2572 751 3078 
Q 1150 3584 1784 3584 
Q 2172 3584 2448 3432 
Q 2725 3281 2906 2969 
z
M 947 1747 
Q 947 1113 1208 752 
Q 1469 391 1925 391 
Q 2381 391 2643 752 
Q 2906 1113 2906 1747 
Q 2906 2381 2643 2742 
Q 2381 3103 1925 3103 
Q 1469 3103 1208 2742 
Q 947 2381 947 1747 
z
" transform="scale(0.015625)"/>
       <path id="DejaVuSans-61" d="M 2194 1759 
Q 1497 1759 1228 1600 
Q 959 1441 959 1056 
Q 959 750 1161 570 
Q 1363 391 1709 391 
Q 2188 391 2477 730 
Q 2766 1069 2766 1631 
L 2766 1759 
L 2194 1759 
z
M 3341 1997 
L 3341 0 
L 2766 0 
L 2766 531 
Q 2569 213 2275 61 
Q 1981 -91 1556 -91 
Q 1019 -91 701 211 
Q 384 513 384 1019 
Q 384 1609 779 1909 
Q 1175 2209 1959 2209 
L 2766 2209 
L 2766 2266 
Q 2766 2663 2505 2880 
Q 2244 3097 1772 3097 
Q 1472 3097 1187 3025 
Q 903 2953 641 2809 
L 641 3341 
Q 956 3463 1253 3523 
Q 1550 3584 1831 3584 
Q 2591 3584 2966 3190 
Q 3341 2797 3341 1997 
z
" transform="scale(0.015625)"/>
       <path id="DejaVuSans-79" d="M 2059 -325 
Q 1816 -950 1584 -1140 
Q 1353 -1331 966 -1331 
L 506 -1331 
L 506 -850 
L 844 -850 
Q 1081 -850 1212 -737 
Q 1344 -625 1503 -206 
L 1606 56 
L 191 3500 
L 800 3500 
L 1894 763 
L 2988 3500 
L 3597 3500 
L 2059 -325 
z
" transform="scale(0.015625)"/>
       <path id="DejaVuSans-49" d="M 628 4666 
L 1259 4666 
L 1259 0 
L 628 0 
L 628 4666 
z
" transform="scale(0.015625)"/>
       <path id="DejaVuSans-73" d="M 2834 3397 
L 2834 2853 
Q 2591 2978 2328 3040 
Q 2066 3103 1784 3103 
Q 1356 3103 1142 2972 
Q 928 2841 928 2578 
Q 928 2378 1081 2264 
Q 1234 2150 1697 2047 
L 1894 2003 
Q 2506 1872 2764 1633 
Q 3022 1394 3022 966 
Q 3022 478 2636 193 
Q 2250 -91 1575 -91 
Q 1294 -91 989 -36 
Q 684 19 347 128 
L 347 722 
Q 666 556 975 473 
Q 1284 391 1588 391 
Q 1994 391 2212 530 
Q 2431 669 2431 922 
Q 2431 1156 2273 1281 
Q 2116 1406 1581 1522 
L 1381 1569 
Q 847 1681 609 1914 
Q 372 2147 372 2553 
Q 372 3047 722 3315 
Q 1072 3584 1716 3584 
Q 2034 3584 2315 3537 
Q 2597 3491 2834 3397 
z
" transform="scale(0.015625)"/>
       <path id="DejaVuSans-6c" d="M 603 4863 
L 1178 4863 
L 1178 0 
L 603 0 
L 603 4863 
z
" transform="scale(0.015625)"/>
       <path id="DejaVuSans-69" d="M 603 3500 
L 1178 3500 
L 1178 0 
L 603 0 
L 603 3500 
z
M 603 4863 
L 1178 4863 
L 1178 4134 
L 603 4134 
L 603 4863 
z
" transform="scale(0.015625)"/>
       <path id="DejaVuSans-53" d="M 3425 4513 
L 3425 3897 
Q 3066 4069 2747 4153 
Q 2428 4238 2131 4238 
Q 1616 4238 1336 4038 
Q 1056 3838 1056 3469 
Q 1056 3159 1242 3001 
Q 1428 2844 1947 2747 
L 2328 2669 
Q 3034 2534 3370 2195 
Q 3706 1856 3706 1288 
Q 3706 609 3251 259 
Q 2797 -91 1919 -91 
Q 1588 -91 1214 -16 
Q 841 59 441 206 
L 441 856 
Q 825 641 1194 531 
Q 1563 422 1919 422 
Q 2459 422 2753 634 
Q 3047 847 3047 1241 
Q 3047 1584 2836 1778 
Q 2625 1972 2144 2069 
L 1759 2144 
Q 1053 2284 737 2584 
Q 422 2884 422 3419 
Q 422 4038 858 4394 
Q 1294 4750 2059 4750 
Q 2388 4750 2728 4690 
Q 3069 4631 3425 4513 
z
" transform="scale(0.015625)"/>
       <path id="DejaVuSans-63" d="M 3122 3366 
L 3122 2828 
Q 2878 2963 2633 3030 
Q 2388 3097 2138 3097 
Q 1578 3097 1268 2742 
Q 959 2388 959 1747 
Q 959 1106 1268 751 
Q 1578 397 2138 397 
Q 2388 397 2633 464 
Q 2878 531 3122 666 
L 3122 134 
Q 2881 22 2623 -34 
Q 2366 -91 2075 -91 
Q 1284 -91 818 406 
Q 353 903 353 1747 
Q 353 2603 823 3093 
Q 1294 3584 2113 3584 
Q 2378 3584 2631 3529 
Q 2884 3475 3122 3366 
z
" transform="scale(0.015625)"/>
      </defs>
      <use xlink:href="#DejaVuSans-42"/>
      <use xlink:href="#DejaVuSans-6f" transform="translate(68.603516 0)"/>
      <use xlink:href="#DejaVuSans-75" transform="translate(129.785156 0)"/>
      <use xlink:href="#DejaVuSans-6e" transform="translate(193.164062 0)"/>
      <use xlink:href="#DejaVuSans-64" transform="translate(256.542969 0)"/>
      <use xlink:href="#DejaVuSans-61" transform="translate(320.019531 0)"/>
      <use xlink:href="#DejaVuSans-72" transform="translate(381.298828 0)"/>
      <use xlink:href="#DejaVuSans-79" transform="translate(422.412109 0)"/>
      <use xlink:href="#DejaVuSans-20" transform="translate(481.591797 0)"/>
      <use xlink:href="#DejaVuSans-49" transform="translate(513.378906 0)"/>
      <use xlink:href="#DejaVuSans-6e" transform="translate(542.871094 0)"/>
      <use xlink:href="#DejaVuSans-73" transform="translate(606.25 0)"/>
      <use xlink:href="#DejaVuSans-75" transform="translate(658.349609 0)"/>
      <use xlink:href="#DejaVuSans-6c" transform="translate(721.728516 0)"/>
      <use xlink:href="#DejaVuSans-61" transform="translate(749.511719 0)"/>
      <use xlink:href="#DejaVuSans-74" transform="translate(810.791016 0)"/>
      <use xlink:href="#DejaVuSans-69" transform="translate(850 0)"/>
      <use xlink:href="#DejaVuSans-6f" transform="translate(877.783203 0)"/>
      <use xlink:href="#DejaVuSans-6e" transform="translate(938.964844 0)"/>
      <use xlink:href="#DejaVuSans-20" transform="translate(1002.34375 0)"/>
      <use xlink:href="#DejaVuSans-53" transform="translate(1034.130859 0)"/>
      <use xlink:href="#DejaVuSans-63" transform="translate(1097.607422 0)"/>
      <use xlink:href="#DejaVuSans-6f" transform="translate(1152.587891 0)"/>
      <use xlink:href="#DejaVuSans-72" transform="translate(1213.769531 0)"/>
      <use xlink:href="#DejaVuSans-65" transform="translate(1252.632812 0)"/>
     </g>
    </g>
   </g>
   <g id="patch_3">
    <path d="M 82.5135 230.838049 
L 129.4205 230.838049 
L 129.4205 196.800761 
L 82.5135 196.800761 
L 82.5135 230.838049 
z
" clip-path="url(#p06b9021f22)" style="fill: #b2d7eb; stroke: #000000; stroke-linejoin: miter"/>
   </g>
   <g id="line2d_23">
    <path d="M 105.967 230.838049 
L 105.967 269.813429 
" clip-path="url(#p06b9021f22)" style="fill: none; stroke: #000000; stroke-linecap: square"/>
   </g>
   <g id="line2d_24">
    <path d="M 105.967 196.800761 
L 105.967 146.744301 
" clip-path="url(#p06b9021f22)" style="fill: none; stroke: #000000; stroke-linecap: square"/>
   </g>
   <g id="line2d_25">
    <path d="M 94.24025 269.813429 
L 117.69375 269.813429 
" clip-path="url(#p06b9021f22)" style="fill: none; stroke: #000000; stroke-linecap: square"/>
   </g>
   <g id="line2d_26">
    <path d="M 94.24025 146.744301 
L 117.69375 146.744301 
" clip-path="url(#p06b9021f22)" style="fill: none; stroke: #000000; stroke-linecap: square"/>
   </g>
   <g id="line2d_27">
    <defs>
     <path id="m14a355b07a" d="M 0 3 
C 0.795609 3 1.55874 2.683901 2.12132 2.12132 
C 2.683901 1.55874 3 0.795609 3 0 
C 3 -0.795609 2.683901 -1.55874 2.12132 -2.12132 
C 1.55874 -2.683901 0.795609 -3 0 -3 
C -0.795609 -3 -1.55874 -2.683901 -2.12132 -2.12132 
C -2.683901 -1.55874 -3 -0.795609 -3 0 
C -3 0.795609 -2.683901 1.55874 -2.12132 2.12132 
C -1.55874 2.683901 -0.795609 3 0 3 
z
" style="stroke: #000000"/>
    </defs>
    <g clip-path="url(#p06b9021f22)">
     <use xlink:href="#m14a355b07a" x="105.967" y="331.313775" style="fill-opacity: 0; stroke: #000000"/>
     <use xlink:href="#m14a355b07a" x="105.967" y="310.63237" style="fill-opacity: 0; stroke: #000000"/>
     <use xlink:href="#m14a355b07a" x="105.967" y="292.71797" style="fill-opacity: 0; stroke: #000000"/>
     <use xlink:href="#m14a355b07a" x="105.967" y="315.715443" style="fill-opacity: 0; stroke: #000000"/>
     <use xlink:href="#m14a355b07a" x="105.967" y="300.716541" style="fill-opacity: 0; stroke: #000000"/>
     <use xlink:href="#m14a355b07a" x="105.967" y="293.76412" style="fill-opacity: 0; stroke: #000000"/>
     <use xlink:href="#m14a355b07a" x="105.967" y="334.297323" style="fill-opacity: 0; stroke: #000000"/>
    </g>
   </g>
   <g id="patch_4">
    <path d="M 176.3275 369.448424 
L 223.2345 369.448424 
L 223.2345 341.535478 
L 176.3275 341.535478 
L 176.3275 369.448424 
z
" clip-path="url(#p06b9021f22)" style="fill: #46b2eb; stroke: #000000; stroke-linejoin: miter"/>
   </g>
   <g id="line2d_28">
    <path d="M 199.781 369.448424 
L 199.781 411.129349 
" clip-path="url(#p06b9021f22)" style="fill: none; stroke: #000000; stroke-linecap: square"/>
   </g>
   <g id="line2d_29">
    <path d="M 199.781 341.535478 
L 199.781 324.67078 
" clip-path="url(#p06b9021f22)" style="fill: none; stroke: #000000; stroke-linecap: square"/>
   </g>
   <g id="line2d_30">
    <path d="M 188.05425 411.129349 
L 211.50775 411.129349 
" clip-path="url(#p06b9021f22)" style="fill: none; stroke: #000000; stroke-linecap: square"/>
   </g>
   <g id="line2d_31">
    <path d="M 188.05425 324.67078 
L 211.50775 324.67078 
" clip-path="url(#p06b9021f22)" style="fill: none; stroke: #000000; stroke-linecap: square"/>
   </g>
   <g id="line2d_32">
    <g clip-path="url(#p06b9021f22)">
     <use xlink:href="#m14a355b07a" x="199.781" y="430.703132" style="fill-opacity: 0; stroke: #000000"/>
     <use xlink:href="#m14a355b07a" x="199.781" y="427.155877" style="fill-opacity: 0; stroke: #000000"/>
     <use xlink:href="#m14a355b07a" x="199.781" y="435.347859" style="fill-opacity: 0; stroke: #000000"/>
    </g>
   </g>
   <g id="patch_5">
    <path d="M 270.1415 376.444442 
L 317.0485 376.444442 
L 317.0485 325.400023 
L 270.1415 325.400023 
L 270.1415 376.444442 
z
" clip-path="url(#p06b9021f22)" style="fill: #1098e0; stroke: #000000; stroke-linejoin: miter"/>
   </g>
   <g id="line2d_33">
    <path d="M 293.595 376.444442 
L 293.595 443.835273 
" clip-path="url(#p06b9021f22)" style="fill: none; stroke: #000000; stroke-linecap: square"/>
   </g>
   <g id="line2d_34">
    <path d="M 293.595 325.400023 
L 293.595 254.760777 
" clip-path="url(#p06b9021f22)" style="fill: none; stroke: #000000; stroke-linecap: square"/>
   </g>
   <g id="line2d_35">
    <path d="M 281.86825 443.835273 
L 305.32175 443.835273 
" clip-path="url(#p06b9021f22)" style="fill: none; stroke: #000000; stroke-linecap: square"/>
   </g>
   <g id="line2d_36">
    <path d="M 281.86825 254.760777 
L 305.32175 254.760777 
" clip-path="url(#p06b9021f22)" style="fill: none; stroke: #000000; stroke-linecap: square"/>
   </g>
   <g id="line2d_37"/>
   <g id="patch_6">
    <path d="M 363.9555 239.217501 
L 410.8625 239.217501 
L 410.8625 197.904932 
L 363.9555 197.904932 
L 363.9555 239.217501 
z
" clip-path="url(#p06b9021f22)" style="fill: #edccab; stroke: #000000; stroke-linejoin: miter"/>
   </g>
   <g id="line2d_38">
    <path d="M 387.409 239.217501 
L 387.409 290.118366 
" clip-path="url(#p06b9021f22)" style="fill: none; stroke: #000000; stroke-linecap: square"/>
   </g>
   <g id="line2d_39">
    <path d="M 387.409 197.904932 
L 387.409 153.344293 
" clip-path="url(#p06b9021f22)" style="fill: none; stroke: #000000; stroke-linecap: square"/>
   </g>
   <g id="line2d_40">
    <path d="M 375.68225 290.118366 
L 399.13575 290.118366 
" clip-path="url(#p06b9021f22)" style="fill: none; stroke: #000000; stroke-linecap: square"/>
   </g>
   <g id="line2d_41">
    <path d="M 375.68225 153.344293 
L 399.13575 153.344293 
" clip-path="url(#p06b9021f22)" style="fill: none; stroke: #000000; stroke-linecap: square"/>
   </g>
   <g id="line2d_42">
    <g clip-path="url(#p06b9021f22)">
     <use xlink:href="#m14a355b07a" x="387.409" y="339.572937" style="fill-opacity: 0; stroke: #000000"/>
     <use xlink:href="#m14a355b07a" x="387.409" y="325.689195" style="fill-opacity: 0; stroke: #000000"/>
     <use xlink:href="#m14a355b07a" x="387.409" y="314.750109" style="fill-opacity: 0; stroke: #000000"/>
     <use xlink:href="#m14a355b07a" x="387.409" y="314.561544" style="fill-opacity: 0; stroke: #000000"/>
     <use xlink:href="#m14a355b07a" x="387.409" y="353.706806" style="fill-opacity: 0; stroke: #000000"/>
     <use xlink:href="#m14a355b07a" x="387.409" y="307.986799" style="fill-opacity: 0; stroke: #000000"/>
     <use xlink:href="#m14a355b07a" x="387.409" y="318.919207" style="fill-opacity: 0; stroke: #000000"/>
    </g>
   </g>
   <g id="patch_7">
    <path d="M 457.7695 326.465227 
L 504.6765 326.465227 
L 504.6765 266.57311 
L 457.7695 266.57311 
L 457.7695 326.465227 
z
" clip-path="url(#p06b9021f22)" style="fill: #e3903d; stroke: #000000; stroke-linejoin: miter"/>
   </g>
   <g id="line2d_43">
    <path d="M 481.223 326.465227 
L 481.223 412.863889 
" clip-path="url(#p06b9021f22)" style="fill: none; stroke: #000000; stroke-linecap: square"/>
   </g>
   <g id="line2d_44">
    <path d="M 481.223 266.57311 
L 481.223 229.638378 
" clip-path="url(#p06b9021f22)" style="fill: none; stroke: #000000; stroke-linecap: square"/>
   </g>
   <g id="line2d_45">
    <path d="M 469.49625 412.863889 
L 492.94975 412.863889 
" clip-path="url(#p06b9021f22)" style="fill: none; stroke: #000000; stroke-linecap: square"/>
   </g>
   <g id="line2d_46">
    <path d="M 469.49625 229.638378 
L 492.94975 229.638378 
" clip-path="url(#p06b9021f22)" style="fill: none; stroke: #000000; stroke-linecap: square"/>
   </g>
   <g id="line2d_47"/>
   <g id="patch_8">
    <path d="M 551.5835 339.120051 
L 598.4905 339.120051 
L 598.4905 299.018948 
L 551.5835 299.018948 
L 551.5835 339.120051 
z
" clip-path="url(#p06b9021f22)" style="fill: #e37609; stroke: #000000; stroke-linejoin: miter"/>
   </g>
   <g id="line2d_48">
    <path d="M 575.037 339.120051 
L 575.037 382.147701 
" clip-path="url(#p06b9021f22)" style="fill: none; stroke: #000000; stroke-linecap: square"/>
   </g>
   <g id="line2d_49">
    <path d="M 575.037 299.018948 
L 575.037 263.704157 
" clip-path="url(#p06b9021f22)" style="fill: none; stroke: #000000; stroke-linecap: square"/>
   </g>
   <g id="line2d_50">
    <path d="M 563.31025 382.147701 
L 586.76375 382.147701 
" clip-path="url(#p06b9021f22)" style="fill: none; stroke: #000000; stroke-linecap: square"/>
   </g>
   <g id="line2d_51">
    <path d="M 563.31025 263.704157 
L 586.76375 263.704157 
" clip-path="url(#p06b9021f22)" style="fill: none; stroke: #000000; stroke-linecap: square"/>
   </g>
   <g id="line2d_52">
    <g clip-path="url(#p06b9021f22)">
     <use xlink:href="#m14a355b07a" x="575.037" y="407.754957" style="fill-opacity: 0; stroke: #000000"/>
     <use xlink:href="#m14a355b07a" x="575.037" y="430.458022" style="fill-opacity: 0; stroke: #000000"/>
     <use xlink:href="#m14a355b07a" x="575.037" y="422.843368" style="fill-opacity: 0; stroke: #000000"/>
     <use xlink:href="#m14a355b07a" x="575.037" y="402.207446" style="fill-opacity: 0; stroke: #000000"/>
    </g>
   </g>
   <g id="patch_9">
    <path d="M 645.3975 162.599088 
L 692.3045 162.599088 
L 692.3045 101.771101 
L 645.3975 101.771101 
L 645.3975 162.599088 
z
" clip-path="url(#p06b9021f22)" style="fill: #a4c3ed; stroke: #000000; stroke-linejoin: miter"/>
   </g>
   <g id="line2d_53">
    <path d="M 668.851 162.599088 
L 668.851 242.210384 
" clip-path="url(#p06b9021f22)" style="fill: none; stroke: #000000; stroke-linecap: square"/>
   </g>
   <g id="line2d_54">
    <path d="M 668.851 101.771101 
L 668.851 31.420727 
" clip-path="url(#p06b9021f22)" style="fill: none; stroke: #000000; stroke-linecap: square"/>
   </g>
   <g id="line2d_55">
    <path d="M 657.12425 242.210384 
L 680.57775 242.210384 
" clip-path="url(#p06b9021f22)" style="fill: none; stroke: #000000; stroke-linecap: square"/>
   </g>
   <g id="line2d_56">
    <path d="M 657.12425 31.420727 
L 680.57775 31.420727 
" clip-path="url(#p06b9021f22)" style="fill: none; stroke: #000000; stroke-linecap: square"/>
   </g>
   <g id="line2d_57"/>
   <g id="patch_10">
    <path d="M 739.2115 309.568111 
L 786.1185 309.568111 
L 786.1185 245.361491 
L 739.2115 245.361491 
L 739.2115 309.568111 
z
" clip-path="url(#p06b9021f22)" style="fill: #2978e3; stroke: #000000; stroke-linejoin: miter"/>
   </g>
   <g id="line2d_58">
    <path d="M 762.665 309.568111 
L 762.665 385.806371 
" clip-path="url(#p06b9021f22)" style="fill: none; stroke: #000000; stroke-linecap: square"/>
   </g>
   <g id="line2d_59">
    <path d="M 762.665 245.361491 
L 762.665 159.621508 
" clip-path="url(#p06b9021f22)" style="fill: none; stroke: #000000; stroke-linecap: square"/>
   </g>
   <g id="line2d_60">
    <path d="M 750.93825 385.806371 
L 774.39175 385.806371 
" clip-path="url(#p06b9021f22)" style="fill: none; stroke: #000000; stroke-linecap: square"/>
   </g>
   <g id="line2d_61">
    <path d="M 750.93825 159.621508 
L 774.39175 159.621508 
" clip-path="url(#p06b9021f22)" style="fill: none; stroke: #000000; stroke-linecap: square"/>
   </g>
   <g id="line2d_62"/>
   <g id="patch_11">
    <path d="M 833.0255 173.178003 
L 879.9325 173.178003 
L 879.9325 93.160419 
L 833.0255 93.160419 
L 833.0255 173.178003 
z
" clip-path="url(#p06b9021f22)" style="fill: #db9c74; stroke: #000000; stroke-linejoin: miter"/>
   </g>
   <g id="line2d_63">
    <path d="M 856.479 173.178003 
L 856.479 290.021481 
" clip-path="url(#p06b9021f22)" style="fill: none; stroke: #000000; stroke-linecap: square"/>
   </g>
   <g id="line2d_64">
    <path d="M 856.479 93.160419 
L 856.479 39.53737 
" clip-path="url(#p06b9021f22)" style="fill: none; stroke: #000000; stroke-linecap: square"/>
   </g>
   <g id="line2d_65">
    <path d="M 844.75225 290.021481 
L 868.20575 290.021481 
" clip-path="url(#p06b9021f22)" style="fill: none; stroke: #000000; stroke-linecap: square"/>
   </g>
   <g id="line2d_66">
    <path d="M 844.75225 39.53737 
L 868.20575 39.53737 
" clip-path="url(#p06b9021f22)" style="fill: none; stroke: #000000; stroke-linecap: square"/>
   </g>
   <g id="line2d_67"/>
   <g id="patch_12">
    <path d="M 926.8395 340.378677 
L 973.7465 340.378677 
L 973.7465 223.359733 
L 926.8395 223.359733 
L 926.8395 340.378677 
z
" clip-path="url(#p06b9021f22)" style="fill: #b84e0b; stroke: #000000; stroke-linejoin: miter"/>
   </g>
   <g id="line2d_68">
    <path d="M 950.293 340.378677 
L 950.293 427.508024 
" clip-path="url(#p06b9021f22)" style="fill: none; stroke: #000000; stroke-linecap: square"/>
   </g>
   <g id="line2d_69">
    <path d="M 950.293 223.359733 
L 950.293 87.816408 
" clip-path="url(#p06b9021f22)" style="fill: none; stroke: #000000; stroke-linecap: square"/>
   </g>
   <g id="line2d_70">
    <path d="M 938.56625 427.508024 
L 962.01975 427.508024 
" clip-path="url(#p06b9021f22)" style="fill: none; stroke: #000000; stroke-linecap: square"/>
   </g>
   <g id="line2d_71">
    <path d="M 938.56625 87.816408 
L 962.01975 87.816408 
" clip-path="url(#p06b9021f22)" style="fill: none; stroke: #000000; stroke-linecap: square"/>
   </g>
   <g id="line2d_72"/>
   <g id="line2d_73">
    <path d="M 340.502 464.456 
L 340.502 10.8 
" clip-path="url(#p06b9021f22)" style="fill: none; stroke-dasharray: 5.55,2.4; stroke-dashoffset: 0; stroke: #808080; stroke-opacity: 0.5; stroke-width: 1.5"/>
   </g>
   <g id="line2d_74">
    <path d="M 621.944 464.456 
L 621.944 10.8 
" clip-path="url(#p06b9021f22)" style="fill: none; stroke-dasharray: 5.55,2.4; stroke-dashoffset: 0; stroke: #808080; stroke-opacity: 0.5; stroke-width: 1.5"/>
   </g>
   <g id="line2d_75">
    <path d="M 809.572 464.456 
L 809.572 10.8 
" clip-path="url(#p06b9021f22)" style="fill: none; stroke-dasharray: 5.55,2.4; stroke-dashoffset: 0; stroke: #808080; stroke-opacity: 0.5; stroke-width: 1.5"/>
   </g>
   <g id="line2d_76">
    <path d="M 82.5135 212.310545 
L 129.4205 212.310545 
" clip-path="url(#p06b9021f22)" style="fill: none; stroke: #ff7f0e"/>
   </g>
   <g id="line2d_77">
    <path d="M 176.3275 354.960685 
L 223.2345 354.960685 
" clip-path="url(#p06b9021f22)" style="fill: none; stroke: #ff7f0e"/>
   </g>
   <g id="line2d_78">
    <path d="M 270.1415 346.3185 
L 317.0485 346.3185 
" clip-path="url(#p06b9021f22)" style="fill: none; stroke: #ff7f0e"/>
   </g>
   <g id="line2d_79">
    <path d="M 363.9555 216.032156 
L 410.8625 216.032156 
" clip-path="url(#p06b9021f22)" style="fill: none; stroke: #ff7f0e"/>
   </g>
   <g id="line2d_80">
    <path d="M 457.7695 286.421145 
L 504.6765 286.421145 
" clip-path="url(#p06b9021f22)" style="fill: none; stroke: #ff7f0e"/>
   </g>
   <g id="line2d_81">
    <path d="M 551.5835 314.304971 
L 598.4905 314.304971 
" clip-path="url(#p06b9021f22)" style="fill: none; stroke: #ff7f0e"/>
   </g>
   <g id="line2d_82">
    <path d="M 645.3975 129.177905 
L 692.3045 129.177905 
" clip-path="url(#p06b9021f22)" style="fill: none; stroke: #ff7f0e"/>
   </g>
   <g id="line2d_83">
    <path d="M 739.2115 283.165557 
L 786.1185 283.165557 
" clip-path="url(#p06b9021f22)" style="fill: none; stroke: #ff7f0e"/>
   </g>
   <g id="line2d_84">
    <path d="M 833.0255 145.41559 
L 879.9325 145.41559 
" clip-path="url(#p06b9021f22)" style="fill: none; stroke: #ff7f0e"/>
   </g>
   <g id="line2d_85">
    <path d="M 926.8395 277.960481 
L 973.7465 277.960481 
" clip-path="url(#p06b9021f22)" style="fill: none; stroke: #ff7f0e"/>
   </g>
   <g id="patch_13">
    <path d="M 59.06 464.456 
L 59.06 10.8 
" style="fill: none; stroke: #000000; stroke-width: 0.8; stroke-linejoin: miter; stroke-linecap: square"/>
   </g>
   <g id="patch_14">
    <path d="M 997.2 464.456 
L 997.2 10.8 
" style="fill: none; stroke: #000000; stroke-width: 0.8; stroke-linejoin: miter; stroke-linecap: square"/>
   </g>
   <g id="patch_15">
    <path d="M 59.06 464.456 
L 997.2 464.456 
" style="fill: none; stroke: #000000; stroke-width: 0.8; stroke-linejoin: miter; stroke-linecap: square"/>
   </g>
   <g id="patch_16">
    <path d="M 59.06 10.8 
L 997.2 10.8 
" style="fill: none; stroke: #000000; stroke-width: 0.8; stroke-linejoin: miter; stroke-linecap: square"/>
   </g>
  </g>
 </g>
 <defs>
  <clipPath id="p06b9021f22">
   <rect x="59.06" y="10.8" width="938.14" height="453.656"/>
  </clipPath>
 </defs>
</svg>
