<?xml version="1.0" encoding="utf-8" standalone="no"?>
<!DOCTYPE svg PUBLIC "-//W3C//DTD SVG 1.1//EN"
  "http://www.w3.org/Graphics/SVG/1.1/DTD/svg11.dtd">
<svg xmlns:xlink="http://www.w3.org/1999/xlink" width="576pt" height="360pt" viewBox="0 0 576 360" xmlns="http://www.w3.org/2000/svg" version="1.1">
 <metadata>
  <rdf:RDF xmlns:dc="http://purl.org/dc/elements/1.1/" xmlns:cc="http://creativecommons.org/ns#" xmlns:rdf="http://www.w3.org/1999/02/22-rdf-syntax-ns#">
   <cc:Work>
    <dc:type rdf:resource="http://purl.org/dc/dcmitype/StillImage"/>
    <dc:date>2026-03-17T14:39:13.433481</dc:date>
    <dc:format>image/svg+xml</dc:format>
    <dc:creator>
     <cc:Agent>
      <dc:title>Matplotlib v3.10.8, https://matplotlib.org/</dc:title>
     </cc:Agent>
    </dc:creator>
   </cc:Work>
  </rdf:RDF>
 </metadata>
 <defs>
  <style type="text/css">*{stroke-linejoin: round; stroke-linecap: butt}</style>
 </defs>
 <g id="figure_1">
  <g id="patch_1">
   <path d="M 0 360 
L 576 360 
L 576 0 
L 0 0 
z
" style="fill: #ffffff"/>
  </g>
  <g id="axes_1">
   <g id="patch_2">
    <path d="M 51.05 303.045994 
L 565.2 303.045994 
L 565.2 25.44 
L 51.05 25.44 
z
" style="fill: #ffffff"/>
   </g>
   <g id="patch_3">
    <path d="M 74.420455 303.045994 
L 93.30567 303.045994 
L 93.30567 38.659333 
L 74.420455 38.659333 
z
" clip-path="url(#pe0996fedd5)" style="fill: #1f77b4"/>
   </g>
   <g id="patch_4">
    <path d="M 98.026974 303.045994 
L 116.91219 303.045994 
L 116.91219 48.699333 
L 98.026974 48.699333 
z
" clip-path="url(#pe0996fedd5)" style="fill: #1f77b4"/>
   </g>
   <g id="patch_5">
    <path d="M 121.633494 303.045994 
L 140.51871 303.045994 
L 140.51871 108.939331 
L 121.633494 108.939331 
z
" clip-path="url(#pe0996fedd5)" style="fill: #1f77b4"/>
   </g>
   <g id="patch_6">
    <path d="M 145.240014 303.045994 
L 164.12523 303.045994 
L 164.12523 108.939331 
L 145.240014 108.939331 
z
" clip-path="url(#pe0996fedd5)" style="fill: #1f77b4"/>
   </g>
   <g id="patch_7">
    <path d="M 168.846534 303.045994 
L 187.731749 303.045994 
L 187.731749 110.612665 
L 168.846534 110.612665 
z
" clip-path="url(#pe0996fedd5)" style="fill: #1f77b4"/>
   </g>
   <g id="patch_8">
    <path d="M 192.453053 303.045994 
L 211.338269 303.045994 
L 211.338269 155.792664 
L 192.453053 155.792664 
z
" clip-path="url(#pe0996fedd5)" style="fill: #1f77b4"/>
   </g>
   <g id="patch_9">
    <path d="M 216.059573 303.045994 
L 234.944789 303.045994 
L 234.944789 212.685996 
L 216.059573 212.685996 
z
" clip-path="url(#pe0996fedd5)" style="fill: #1f77b4"/>
   </g>
   <g id="patch_10">
    <path d="M 239.666093 303.045994 
L 258.551309 303.045994 
L 258.551309 219.379329 
L 239.666093 219.379329 
z
" clip-path="url(#pe0996fedd5)" style="fill: #1f77b4"/>
   </g>
   <g id="patch_11">
    <path d="M 263.272612 303.045994 
L 282.157828 303.045994 
L 282.157828 229.419329 
L 263.272612 229.419329 
z
" clip-path="url(#pe0996fedd5)" style="fill: #1f77b4"/>
   </g>
   <g id="patch_12">
    <path d="M 286.879132 303.045994 
L 305.764348 303.045994 
L 305.764348 236.112662 
L 286.879132 236.112662 
z
" clip-path="url(#pe0996fedd5)" style="fill: #1f77b4"/>
   </g>
   <g id="patch_13">
    <path d="M 310.485652 303.045994 
L 329.370868 303.045994 
L 329.370868 244.479328 
L 310.485652 244.479328 
z
" clip-path="url(#pe0996fedd5)" style="fill: #1f77b4"/>
   </g>
   <g id="patch_14">
    <path d="M 334.092172 303.045994 
L 352.977388 303.045994 
L 352.977388 246.152662 
L 334.092172 246.152662 
z
" clip-path="url(#pe0996fedd5)" style="fill: #1f77b4"/>
   </g>
   <g id="patch_15">
    <path d="M 357.698691 303.045994 
L 376.583907 303.045994 
L 376.583907 252.845995 
L 357.698691 252.845995 
z
" clip-path="url(#pe0996fedd5)" style="fill: #1f77b4"/>
   </g>
   <g id="patch_16">
    <path d="M 381.305211 303.045994 
L 400.190427 303.045994 
L 400.190427 262.885994 
L 381.305211 262.885994 
z
" clip-path="url(#pe0996fedd5)" style="fill: #1f77b4"/>
   </g>
   <g id="patch_17">
    <path d="M 404.911731 303.045994 
L 423.796947 303.045994 
L 423.796947 269.579328 
L 404.911731 269.579328 
z
" clip-path="url(#pe0996fedd5)" style="fill: #1f77b4"/>
   </g>
   <g id="patch_18">
    <path d="M 428.518251 303.045994 
L 447.403466 303.045994 
L 447.403466 269.579328 
L 428.518251 269.579328 
z
" clip-path="url(#pe0996fedd5)" style="fill: #1f77b4"/>
   </g>
   <g id="patch_19">
    <path d="M 452.12477 303.045994 
L 471.009986 303.045994 
L 471.009986 271.252661 
L 452.12477 271.252661 
z
" clip-path="url(#pe0996fedd5)" style="fill: #1f77b4"/>
   </g>
   <g id="patch_20">
    <path d="M 475.73129 303.045994 
L 494.616506 303.045994 
L 494.616506 279.619327 
L 475.73129 279.619327 
z
" clip-path="url(#pe0996fedd5)" style="fill: #1f77b4"/>
   </g>
   <g id="patch_21">
    <path d="M 499.33781 303.045994 
L 518.223026 303.045994 
L 518.223026 282.965994 
L 499.33781 282.965994 
z
" clip-path="url(#pe0996fedd5)" style="fill: #1f77b4"/>
   </g>
   <g id="patch_22">
    <path d="M 522.94433 303.045994 
L 541.829545 303.045994 
L 541.829545 284.639327 
L 522.94433 284.639327 
z
" clip-path="url(#pe0996fedd5)" style="fill: #1f77b4"/>
   </g>
   <g id="matplotlib.axis_1">
    <g id="xtick_1">
     <g id="line2d_1">
      <defs>
       <path id="m4b6cf3d643" d="M 0 0 
L 0 3.5 
" style="stroke: #000000; stroke-width: 0.8"/>
      </defs>
      <g>
       <use xlink:href="#m4b6cf3d643" x="83.863062" y="303.045994" style="stroke: #000000; stroke-width: 0.8"/>
      </g>
     </g>
     <g id="text_1">
      <!-- ++ -->
      <g transform="translate(79.888901 327.269568) rotate(-45) scale(0.1 -0.1)">
       <defs>
        <path id="DejaVuSans-2b" d="M 2944 4013 
L 2944 2272 
L 4684 2272 
L 4684 1741 
L 2944 1741 
L 2944 0 
L 2419 0 
L 2419 1741 
L 678 1741 
L 678 2272 
L 2419 2272 
L 2419 4013 
L 2944 4013 
z
" transform="scale(0.015625)"/>
       </defs>
       <use xlink:href="#DejaVuSans-2b"/>
       <use xlink:href="#DejaVuSans-2b" transform="translate(83.789062 0)"/>
      </g>
     </g>
    </g>
    <g id="xtick_2">
     <g id="line2d_2">
      <g>
       <use xlink:href="#m4b6cf3d643" x="107.469582" y="303.045994" style="stroke: #000000; stroke-width: 0.8"/>
      </g>
     </g>
     <g id="text_2">
      <!-- + -->
      <g transform="translate(106.458088 321.344234) rotate(-45) scale(0.1 -0.1)">
       <use xlink:href="#DejaVuSans-2b"/>
      </g>
     </g>
    </g>
    <g id="xtick_3">
     <g id="line2d_3">
      <g>
       <use xlink:href="#m4b6cf3d643" x="131.076102" y="303.045994" style="stroke: #000000; stroke-width: 0.8"/>
      </g>
     </g>
     <g id="text_3">
      <!-- - -->
      <g transform="translate(131.75172 317.970009) rotate(-45) scale(0.1 -0.1)">
       <defs>
        <path id="DejaVuSans-2d" d="M 313 2009 
L 1997 2009 
L 1997 1497 
L 313 1497 
L 313 2009 
z
" transform="scale(0.015625)"/>
       </defs>
       <use xlink:href="#DejaVuSans-2d"/>
      </g>
     </g>
    </g>
    <g id="xtick_4">
     <g id="line2d_4">
      <g>
       <use xlink:href="#m4b6cf3d643" x="154.682622" y="303.045994" style="stroke: #000000; stroke-width: 0.8"/>
      </g>
     </g>
     <g id="text_4">
      <!-- - - -->
      <g transform="translate(154.082686 320.521118) rotate(-45) scale(0.1 -0.1)">
       <use xlink:href="#DejaVuSans-2d"/>
       <use xlink:href="#DejaVuSans-2d" transform="translate(36.083984 0)"/>
      </g>
     </g>
    </g>
    <g id="xtick_5">
     <g id="line2d_5">
      <g>
       <use xlink:href="#m4b6cf3d643" x="178.289141" y="303.045994" style="stroke: #000000; stroke-width: 0.8"/>
      </g>
     </g>
     <g id="text_5">
      <!-- +- -->
      <g transform="translate(176.002093 323.895343) rotate(-45) scale(0.1 -0.1)">
       <use xlink:href="#DejaVuSans-2b"/>
       <use xlink:href="#DejaVuSans-2d" transform="translate(83.789062 0)"/>
      </g>
     </g>
    </g>
    <g id="xtick_6">
     <g id="line2d_6">
      <g>
       <use xlink:href="#m4b6cf3d643" x="201.895661" y="303.045994" style="stroke: #000000; stroke-width: 0.8"/>
      </g>
     </g>
     <g id="text_6">
      <!-- -+ -->
      <g transform="translate(199.608613 323.895343) rotate(-45) scale(0.1 -0.1)">
       <use xlink:href="#DejaVuSans-2d"/>
       <use xlink:href="#DejaVuSans-2b" transform="translate(36.083984 0)"/>
      </g>
     </g>
    </g>
    <g id="xtick_7">
     <g id="line2d_7">
      <g>
       <use xlink:href="#m4b6cf3d643" x="225.502181" y="303.045994" style="stroke: #000000; stroke-width: 0.8"/>
      </g>
     </g>
     <g id="text_7">
      <!-- ++- -->
      <g transform="translate(220.252465 329.820677) rotate(-45) scale(0.1 -0.1)">
       <use xlink:href="#DejaVuSans-2b"/>
       <use xlink:href="#DejaVuSans-2b" transform="translate(83.789062 0)"/>
       <use xlink:href="#DejaVuSans-2d" transform="translate(167.578125 0)"/>
      </g>
     </g>
    </g>
    <g id="xtick_8">
     <g id="line2d_8">
      <g>
       <use xlink:href="#m4b6cf3d643" x="249.108701" y="303.045994" style="stroke: #000000; stroke-width: 0.8"/>
      </g>
     </g>
     <g id="text_8">
      <!-- -+- -->
      <g transform="translate(245.546098 326.446451) rotate(-45) scale(0.1 -0.1)">
       <use xlink:href="#DejaVuSans-2d"/>
       <use xlink:href="#DejaVuSans-2b" transform="translate(36.083984 0)"/>
       <use xlink:href="#DejaVuSans-2d" transform="translate(119.873047 0)"/>
      </g>
     </g>
    </g>
    <g id="xtick_9">
     <g id="line2d_9">
      <g>
       <use xlink:href="#m4b6cf3d643" x="272.71522" y="303.045994" style="stroke: #000000; stroke-width: 0.8"/>
      </g>
     </g>
     <g id="text_9">
      <!-- +-+ -->
      <g transform="translate(267.465505 329.820677) rotate(-45) scale(0.1 -0.1)">
       <use xlink:href="#DejaVuSans-2b"/>
       <use xlink:href="#DejaVuSans-2d" transform="translate(83.789062 0)"/>
       <use xlink:href="#DejaVuSans-2b" transform="translate(119.873047 0)"/>
      </g>
     </g>
    </g>
    <g id="xtick_10">
     <g id="line2d_10">
      <g>
       <use xlink:href="#m4b6cf3d643" x="296.32174" y="303.045994" style="stroke: #000000; stroke-width: 0.8"/>
      </g>
     </g>
     <g id="text_10">
      <!-- +- - -->
      <g transform="translate(292.759137 326.446451) rotate(-45) scale(0.1 -0.1)">
       <use xlink:href="#DejaVuSans-2b"/>
       <use xlink:href="#DejaVuSans-2d" transform="translate(83.789062 0)"/>
       <use xlink:href="#DejaVuSans-2d" transform="translate(119.873047 0)"/>
      </g>
     </g>
    </g>
    <g id="xtick_11">
     <g id="line2d_11">
      <g>
       <use xlink:href="#m4b6cf3d643" x="319.92826" y="303.045994" style="stroke: #000000; stroke-width: 0.8"/>
      </g>
     </g>
     <g id="text_11">
      <!-- -++ -->
      <g transform="translate(314.678544 329.820677) rotate(-45) scale(0.1 -0.1)">
       <use xlink:href="#DejaVuSans-2d"/>
       <use xlink:href="#DejaVuSans-2b" transform="translate(36.083984 0)"/>
       <use xlink:href="#DejaVuSans-2b" transform="translate(119.873047 0)"/>
      </g>
     </g>
    </g>
    <g id="xtick_12">
     <g id="line2d_12">
      <g>
       <use xlink:href="#m4b6cf3d643" x="343.53478" y="303.045994" style="stroke: #000000; stroke-width: 0.8"/>
      </g>
     </g>
     <g id="text_12">
      <!-- - -+ -->
      <g transform="translate(339.972177 326.446451) rotate(-45) scale(0.1 -0.1)">
       <use xlink:href="#DejaVuSans-2d"/>
       <use xlink:href="#DejaVuSans-2d" transform="translate(36.083984 0)"/>
       <use xlink:href="#DejaVuSans-2b" transform="translate(72.167969 0)"/>
      </g>
     </g>
    </g>
    <g id="xtick_13">
     <g id="line2d_13">
      <g>
       <use xlink:href="#m4b6cf3d643" x="367.141299" y="303.045994" style="stroke: #000000; stroke-width: 0.8"/>
      </g>
     </g>
     <g id="text_13">
      <!-- +++ -->
      <g transform="translate(360.204471 333.194902) rotate(-45) scale(0.1 -0.1)">
       <use xlink:href="#DejaVuSans-2b"/>
       <use xlink:href="#DejaVuSans-2b" transform="translate(83.789062 0)"/>
       <use xlink:href="#DejaVuSans-2b" transform="translate(167.578125 0)"/>
      </g>
     </g>
    </g>
    <g id="xtick_14">
     <g id="line2d_14">
      <g>
       <use xlink:href="#m4b6cf3d643" x="390.747819" y="303.045994" style="stroke: #000000; stroke-width: 0.8"/>
      </g>
     </g>
     <g id="text_14">
      <!-- +-+- -->
      <g transform="translate(384.222549 332.371785) rotate(-45) scale(0.1 -0.1)">
       <use xlink:href="#DejaVuSans-2b"/>
       <use xlink:href="#DejaVuSans-2d" transform="translate(83.789062 0)"/>
       <use xlink:href="#DejaVuSans-2b" transform="translate(119.873047 0)"/>
       <use xlink:href="#DejaVuSans-2d" transform="translate(203.662109 0)"/>
      </g>
     </g>
    </g>
    <g id="xtick_15">
     <g id="line2d_15">
      <g>
       <use xlink:href="#m4b6cf3d643" x="414.354339" y="303.045994" style="stroke: #000000; stroke-width: 0.8"/>
      </g>
     </g>
     <g id="text_15">
      <!-- - - - -->
      <g transform="translate(412.478849 323.072226) rotate(-45) scale(0.1 -0.1)">
       <use xlink:href="#DejaVuSans-2d"/>
       <use xlink:href="#DejaVuSans-2d" transform="translate(36.083984 0)"/>
       <use xlink:href="#DejaVuSans-2d" transform="translate(72.167969 0)"/>
      </g>
     </g>
    </g>
    <g id="xtick_16">
     <g id="line2d_16">
      <g>
       <use xlink:href="#m4b6cf3d643" x="437.960859" y="303.045994" style="stroke: #000000; stroke-width: 0.8"/>
      </g>
     </g>
     <g id="text_16">
      <!-- -+-+ -->
      <g transform="translate(431.435589 332.371785) rotate(-45) scale(0.1 -0.1)">
       <use xlink:href="#DejaVuSans-2d"/>
       <use xlink:href="#DejaVuSans-2b" transform="translate(36.083984 0)"/>
       <use xlink:href="#DejaVuSans-2d" transform="translate(119.873047 0)"/>
       <use xlink:href="#DejaVuSans-2b" transform="translate(155.957031 0)"/>
      </g>
     </g>
    </g>
    <g id="xtick_17">
     <g id="line2d_17">
      <g>
       <use xlink:href="#m4b6cf3d643" x="461.567378" y="303.045994" style="stroke: #000000; stroke-width: 0.8"/>
      </g>
     </g>
     <g id="text_17">
      <!-- -++- -->
      <g transform="translate(455.042109 332.371785) rotate(-45) scale(0.1 -0.1)">
       <use xlink:href="#DejaVuSans-2d"/>
       <use xlink:href="#DejaVuSans-2b" transform="translate(36.083984 0)"/>
       <use xlink:href="#DejaVuSans-2b" transform="translate(119.873047 0)"/>
       <use xlink:href="#DejaVuSans-2d" transform="translate(203.662109 0)"/>
      </g>
     </g>
    </g>
    <g id="xtick_18">
     <g id="line2d_18">
      <g>
       <use xlink:href="#m4b6cf3d643" x="485.173898" y="303.045994" style="stroke: #000000; stroke-width: 0.8"/>
      </g>
     </g>
     <g id="text_18">
      <!-- +- -+ -->
      <g transform="translate(478.648628 332.371785) rotate(-45) scale(0.1 -0.1)">
       <use xlink:href="#DejaVuSans-2b"/>
       <use xlink:href="#DejaVuSans-2d" transform="translate(83.789062 0)"/>
       <use xlink:href="#DejaVuSans-2d" transform="translate(119.873047 0)"/>
       <use xlink:href="#DejaVuSans-2b" transform="translate(155.957031 0)"/>
      </g>
     </g>
    </g>
    <g id="xtick_19">
     <g id="line2d_19">
      <g>
       <use xlink:href="#m4b6cf3d643" x="508.780418" y="303.045994" style="stroke: #000000; stroke-width: 0.8"/>
      </g>
     </g>
     <g id="text_19">
      <!-- +- - - -->
      <g transform="translate(503.942261 328.99756) rotate(-45) scale(0.1 -0.1)">
       <use xlink:href="#DejaVuSans-2b"/>
       <use xlink:href="#DejaVuSans-2d" transform="translate(83.789062 0)"/>
       <use xlink:href="#DejaVuSans-2d" transform="translate(119.873047 0)"/>
       <use xlink:href="#DejaVuSans-2d" transform="translate(155.957031 0)"/>
      </g>
     </g>
    </g>
    <g id="xtick_20">
     <g id="line2d_20">
      <g>
       <use xlink:href="#m4b6cf3d643" x="532.386938" y="303.045994" style="stroke: #000000; stroke-width: 0.8"/>
      </g>
     </g>
     <g id="text_20">
      <!-- -+- - -->
      <g transform="translate(527.54878 328.99756) rotate(-45) scale(0.1 -0.1)">
       <use xlink:href="#DejaVuSans-2d"/>
       <use xlink:href="#DejaVuSans-2b" transform="translate(36.083984 0)"/>
       <use xlink:href="#DejaVuSans-2d" transform="translate(119.873047 0)"/>
       <use xlink:href="#DejaVuSans-2d" transform="translate(155.957031 0)"/>
      </g>
     </g>
    </g>
    <g id="text_21">
     <!-- CTCF orientation -->
     <g transform="translate(266.566406 346.2639) scale(0.1 -0.1)">
      <defs>
       <path id="DejaVuSans-43" d="M 4122 4306 
L 4122 3641 
Q 3803 3938 3442 4084 
Q 3081 4231 2675 4231 
Q 1875 4231 1450 3742 
Q 1025 3253 1025 2328 
Q 1025 1406 1450 917 
Q 1875 428 2675 428 
Q 3081 428 3442 575 
Q 3803 722 4122 1019 
L 4122 359 
Q 3791 134 3420 21 
Q 3050 -91 2638 -91 
Q 1578 -91 968 557 
Q 359 1206 359 2328 
Q 359 3453 968 4101 
Q 1578 4750 2638 4750 
Q 3056 4750 3426 4639 
Q 3797 4528 4122 4306 
z
" transform="scale(0.015625)"/>
       <path id="DejaVuSans-54" d="M -19 4666 
L 3928 4666 
L 3928 4134 
L 2272 4134 
L 2272 0 
L 1638 0 
L 1638 4134 
L -19 4134 
L -19 4666 
z
" transform="scale(0.015625)"/>
       <path id="DejaVuSans-46" d="M 628 4666 
L 3309 4666 
L 3309 4134 
L 1259 4134 
L 1259 2759 
L 3109 2759 
L 3109 2228 
L 1259 2228 
L 1259 0 
L 628 0 
L 628 4666 
z
" transform="scale(0.015625)"/>
       <path id="DejaVuSans-20" transform="scale(0.015625)"/>
       <path id="DejaVuSans-6f" d="M 1959 3097 
Q 1497 3097 1228 2736 
Q 959 2375 959 1747 
Q 959 1119 1226 758 
Q 1494 397 1959 397 
Q 2419 397 2687 759 
Q 2956 1122 2956 1747 
Q 2956 2369 2687 2733 
Q 2419 3097 1959 3097 
z
M 1959 3584 
Q 2709 3584 3137 3096 
Q 3566 2609 3566 1747 
Q 3566 888 3137 398 
Q 2709 -91 1959 -91 
Q 1206 -91 779 398 
Q 353 888 353 1747 
Q 353 2609 779 3096 
Q 1206 3584 1959 3584 
z
" transform="scale(0.015625)"/>
       <path id="DejaVuSans-72" d="M 2631 2963 
Q 2534 3019 2420 3045 
Q 2306 3072 2169 3072 
Q 1681 3072 1420 2755 
Q 1159 2438 1159 1844 
L 1159 0 
L 581 0 
L 581 3500 
L 1159 3500 
L 1159 2956 
Q 1341 3275 1631 3429 
Q 1922 3584 2338 3584 
Q 2397 3584 2469 3576 
Q 2541 3569 2628 3553 
L 2631 2963 
z
" transform="scale(0.015625)"/>
       <path id="DejaVuSans-69" d="M 603 3500 
L 1178 3500 
L 1178 0 
L 603 0 
L 603 3500 
z
M 603 4863 
L 1178 4863 
L 1178 4134 
L 603 4134 
L 603 4863 
z
" transform="scale(0.015625)"/>
       <path id="DejaVuSans-65" d="M 3597 1894 
L 3597 1613 
L 953 1613 
Q 991 1019 1311 708 
Q 1631 397 2203 397 
Q 2534 397 2845 478 
Q 3156 559 3463 722 
L 3463 178 
Q 3153 47 2828 -22 
Q 2503 -91 2169 -91 
Q 1331 -91 842 396 
Q 353 884 353 1716 
Q 353 2575 817 3079 
Q 1281 3584 2069 3584 
Q 2775 3584 3186 3129 
Q 3597 2675 3597 1894 
z
M 3022 2063 
Q 3016 2534 2758 2815 
Q 2500 3097 2075 3097 
Q 1594 3097 1305 2825 
Q 1016 2553 972 2059 
L 3022 2063 
z
" transform="scale(0.015625)"/>
       <path id="DejaVuSans-6e" d="M 3513 2113 
L 3513 0 
L 2938 0 
L 2938 2094 
Q 2938 2591 2744 2837 
Q 2550 3084 2163 3084 
Q 1697 3084 1428 2787 
Q 1159 2491 1159 1978 
L 1159 0 
L 581 0 
L 581 3500 
L 1159 3500 
L 1159 2956 
Q 1366 3272 1645 3428 
Q 1925 3584 2291 3584 
Q 2894 3584 3203 3211 
Q 3513 2838 3513 2113 
z
" transform="scale(0.015625)"/>
       <path id="DejaVuSans-74" d="M 1172 4494 
L 1172 3500 
L 2356 3500 
L 2356 3053 
L 1172 3053 
L 1172 1153 
Q 1172 725 1289 603 
Q 1406 481 1766 481 
L 2356 481 
L 2356 0 
L 1766 0 
Q 1100 0 847 248 
Q 594 497 594 1153 
L 594 3053 
L 172 3053 
L 172 3500 
L 594 3500 
L 594 4494 
L 1172 4494 
z
" transform="scale(0.015625)"/>
       <path id="DejaVuSans-61" d="M 2194 1759 
Q 1497 1759 1228 1600 
Q 959 1441 959 1056 
Q 959 750 1161 570 
Q 1363 391 1709 391 
Q 2188 391 2477 730 
Q 2766 1069 2766 1631 
L 2766 1759 
L 2194 1759 
z
M 3341 1997 
L 3341 0 
L 2766 0 
L 2766 531 
Q 2569 213 2275 61 
Q 1981 -91 1556 -91 
Q 1019 -91 701 211 
Q 384 513 384 1019 
Q 384 1609 779 1909 
Q 1175 2209 1959 2209 
L 2766 2209 
L 2766 2266 
Q 2766 2663 2505 2880 
Q 2244 3097 1772 3097 
Q 1472 3097 1187 3025 
Q 903 2953 641 2809 
L 641 3341 
Q 956 3463 1253 3523 
Q 1550 3584 1831 3584 
Q 2591 3584 2966 3190 
Q 3341 2797 3341 1997 
z
" transform="scale(0.015625)"/>
      </defs>
      <use xlink:href="#DejaVuSans-43"/>
      <use xlink:href="#DejaVuSans-54" transform="translate(69.824219 0)"/>
      <use xlink:href="#DejaVuSans-43" transform="translate(125.033203 0)"/>
      <use xlink:href="#DejaVuSans-46" transform="translate(194.857422 0)"/>
      <use xlink:href="#DejaVuSans-20" transform="translate(252.376953 0)"/>
      <use xlink:href="#DejaVuSans-6f" transform="translate(284.164062 0)"/>
      <use xlink:href="#DejaVuSans-72" transform="translate(345.345703 0)"/>
      <use xlink:href="#DejaVuSans-69" transform="translate(386.458984 0)"/>
      <use xlink:href="#DejaVuSans-65" transform="translate(414.242188 0)"/>
      <use xlink:href="#DejaVuSans-6e" transform="translate(475.765625 0)"/>
      <use xlink:href="#DejaVuSans-74" transform="translate(539.144531 0)"/>
      <use xlink:href="#DejaVuSans-61" transform="translate(578.353516 0)"/>
      <use xlink:href="#DejaVuSans-74" transform="translate(639.632812 0)"/>
      <use xlink:href="#DejaVuSans-69" transform="translate(678.841797 0)"/>
      <use xlink:href="#DejaVuSans-6f" transform="translate(706.625 0)"/>
      <use xlink:href="#DejaVuSans-6e" transform="translate(767.806641 0)"/>
     </g>
    </g>
   </g>
   <g id="matplotlib.axis_2">
    <g id="ytick_1">
     <g id="line2d_21">
      <defs>
       <path id="md9a38cc331" d="M 0 0 
L -3.5 0 
" style="stroke: #000000; stroke-width: 0.8"/>
      </defs>
      <g>
       <use xlink:href="#md9a38cc331" x="51.05" y="303.045994" style="stroke: #000000; stroke-width: 0.8"/>
      </g>
     </g>
     <g id="text_22">
      <!-- 0 -->
      <g transform="translate(37.6875 306.845212) scale(0.1 -0.1)">
       <defs>
        <path id="DejaVuSans-30" d="M 2034 4250 
Q 1547 4250 1301 3770 
Q 1056 3291 1056 2328 
Q 1056 1369 1301 889 
Q 1547 409 2034 409 
Q 2525 409 2770 889 
Q 3016 1369 3016 2328 
Q 3016 3291 2770 3770 
Q 2525 4250 2034 4250 
z
M 2034 4750 
Q 2819 4750 3233 4129 
Q 3647 3509 3647 2328 
Q 3647 1150 3233 529 
Q 2819 -91 2034 -91 
Q 1250 -91 836 529 
Q 422 1150 422 2328 
Q 422 3509 836 4129 
Q 1250 4750 2034 4750 
z
" transform="scale(0.015625)"/>
       </defs>
       <use xlink:href="#DejaVuSans-30"/>
      </g>
     </g>
    </g>
    <g id="ytick_2">
     <g id="line2d_22">
      <g>
       <use xlink:href="#md9a38cc331" x="51.05" y="269.579328" style="stroke: #000000; stroke-width: 0.8"/>
      </g>
     </g>
     <g id="text_23">
      <!-- 20 -->
      <g transform="translate(31.325 273.378546) scale(0.1 -0.1)">
       <defs>
        <path id="DejaVuSans-32" d="M 1228 531 
L 3431 531 
L 3431 0 
L 469 0 
L 469 531 
Q 828 903 1448 1529 
Q 2069 2156 2228 2338 
Q 2531 2678 2651 2914 
Q 2772 3150 2772 3378 
Q 2772 3750 2511 3984 
Q 2250 4219 1831 4219 
Q 1534 4219 1204 4116 
Q 875 4013 500 3803 
L 500 4441 
Q 881 4594 1212 4672 
Q 1544 4750 1819 4750 
Q 2544 4750 2975 4387 
Q 3406 4025 3406 3419 
Q 3406 3131 3298 2873 
Q 3191 2616 2906 2266 
Q 2828 2175 2409 1742 
Q 1991 1309 1228 531 
z
" transform="scale(0.015625)"/>
       </defs>
       <use xlink:href="#DejaVuSans-32"/>
       <use xlink:href="#DejaVuSans-30" transform="translate(63.623047 0)"/>
      </g>
     </g>
    </g>
    <g id="ytick_3">
     <g id="line2d_23">
      <g>
       <use xlink:href="#md9a38cc331" x="51.05" y="236.112662" style="stroke: #000000; stroke-width: 0.8"/>
      </g>
     </g>
     <g id="text_24">
      <!-- 40 -->
      <g transform="translate(31.325 239.911881) scale(0.1 -0.1)">
       <defs>
        <path id="DejaVuSans-34" d="M 2419 4116 
L 825 1625 
L 2419 1625 
L 2419 4116 
z
M 2253 4666 
L 3047 4666 
L 3047 1625 
L 3713 1625 
L 3713 1100 
L 3047 1100 
L 3047 0 
L 2419 0 
L 2419 1100 
L 313 1100 
L 313 1709 
L 2253 4666 
z
" transform="scale(0.015625)"/>
       </defs>
       <use xlink:href="#DejaVuSans-34"/>
       <use xlink:href="#DejaVuSans-30" transform="translate(63.623047 0)"/>
      </g>
     </g>
    </g>
    <g id="ytick_4">
     <g id="line2d_24">
      <g>
       <use xlink:href="#md9a38cc331" x="51.05" y="202.645996" style="stroke: #000000; stroke-width: 0.8"/>
      </g>
     </g>
     <g id="text_25">
      <!-- 60 -->
      <g transform="translate(31.325 206.445215) scale(0.1 -0.1)">
       <defs>
        <path id="DejaVuSans-36" d="M 2113 2584 
Q 1688 2584 1439 2293 
Q 1191 2003 1191 1497 
Q 1191 994 1439 701 
Q 1688 409 2113 409 
Q 2538 409 2786 701 
Q 3034 994 3034 1497 
Q 3034 2003 2786 2293 
Q 2538 2584 2113 2584 
z
M 3366 4563 
L 3366 3988 
Q 3128 4100 2886 4159 
Q 2644 4219 2406 4219 
Q 1781 4219 1451 3797 
Q 1122 3375 1075 2522 
Q 1259 2794 1537 2939 
Q 1816 3084 2150 3084 
Q 2853 3084 3261 2657 
Q 3669 2231 3669 1497 
Q 3669 778 3244 343 
Q 2819 -91 2113 -91 
Q 1303 -91 875 529 
Q 447 1150 447 2328 
Q 447 3434 972 4092 
Q 1497 4750 2381 4750 
Q 2619 4750 2861 4703 
Q 3103 4656 3366 4563 
z
" transform="scale(0.015625)"/>
       </defs>
       <use xlink:href="#DejaVuSans-36"/>
       <use xlink:href="#DejaVuSans-30" transform="translate(63.623047 0)"/>
      </g>
     </g>
    </g>
    <g id="ytick_5">
     <g id="line2d_25">
      <g>
       <use xlink:href="#md9a38cc331" x="51.05" y="169.17933" style="stroke: #000000; stroke-width: 0.8"/>
      </g>
     </g>
     <g id="text_26">
      <!-- 80 -->
      <g transform="translate(31.325 172.978549) scale(0.1 -0.1)">
       <defs>
        <path id="DejaVuSans-38" d="M 2034 2216 
Q 1584 2216 1326 1975 
Q 1069 1734 1069 1313 
Q 1069 891 1326 650 
Q 1584 409 2034 409 
Q 2484 409 2743 651 
Q 3003 894 3003 1313 
Q 3003 1734 2745 1975 
Q 2488 2216 2034 2216 
z
M 1403 2484 
Q 997 2584 770 2862 
Q 544 3141 544 3541 
Q 544 4100 942 4425 
Q 1341 4750 2034 4750 
Q 2731 4750 3128 4425 
Q 3525 4100 3525 3541 
Q 3525 3141 3298 2862 
Q 3072 2584 2669 2484 
Q 3125 2378 3379 2068 
Q 3634 1759 3634 1313 
Q 3634 634 3220 271 
Q 2806 -91 2034 -91 
Q 1263 -91 848 271 
Q 434 634 434 1313 
Q 434 1759 690 2068 
Q 947 2378 1403 2484 
z
M 1172 3481 
Q 1172 3119 1398 2916 
Q 1625 2713 2034 2713 
Q 2441 2713 2670 2916 
Q 2900 3119 2900 3481 
Q 2900 3844 2670 4047 
Q 2441 4250 2034 4250 
Q 1625 4250 1398 4047 
Q 1172 3844 1172 3481 
z
" transform="scale(0.015625)"/>
       </defs>
       <use xlink:href="#DejaVuSans-38"/>
       <use xlink:href="#DejaVuSans-30" transform="translate(63.623047 0)"/>
      </g>
     </g>
    </g>
    <g id="ytick_6">
     <g id="line2d_26">
      <g>
       <use xlink:href="#md9a38cc331" x="51.05" y="135.712664" style="stroke: #000000; stroke-width: 0.8"/>
      </g>
     </g>
     <g id="text_27">
      <!-- 100 -->
      <g transform="translate(24.9625 139.511883) scale(0.1 -0.1)">
       <defs>
        <path id="DejaVuSans-31" d="M 794 531 
L 1825 531 
L 1825 4091 
L 703 3866 
L 703 4441 
L 1819 4666 
L 2450 4666 
L 2450 531 
L 3481 531 
L 3481 0 
L 794 0 
L 794 531 
z
" transform="scale(0.015625)"/>
       </defs>
       <use xlink:href="#DejaVuSans-31"/>
       <use xlink:href="#DejaVuSans-30" transform="translate(63.623047 0)"/>
       <use xlink:href="#DejaVuSans-30" transform="translate(127.246094 0)"/>
      </g>
     </g>
    </g>
    <g id="ytick_7">
     <g id="line2d_27">
      <g>
       <use xlink:href="#md9a38cc331" x="51.05" y="102.245998" style="stroke: #000000; stroke-width: 0.8"/>
      </g>
     </g>
     <g id="text_28">
      <!-- 120 -->
      <g transform="translate(24.9625 106.045217) scale(0.1 -0.1)">
       <use xlink:href="#DejaVuSans-31"/>
       <use xlink:href="#DejaVuSans-32" transform="translate(63.623047 0)"/>
       <use xlink:href="#DejaVuSans-30" transform="translate(127.246094 0)"/>
      </g>
     </g>
    </g>
    <g id="ytick_8">
     <g id="line2d_28">
      <g>
       <use xlink:href="#md9a38cc331" x="51.05" y="68.779332" style="stroke: #000000; stroke-width: 0.8"/>
      </g>
     </g>
     <g id="text_29">
      <!-- 140 -->
      <g transform="translate(24.9625 72.578551) scale(0.1 -0.1)">
       <use xlink:href="#DejaVuSans-31"/>
       <use xlink:href="#DejaVuSans-34" transform="translate(63.623047 0)"/>
       <use xlink:href="#DejaVuSans-30" transform="translate(127.246094 0)"/>
      </g>
     </g>
    </g>
    <g id="ytick_9">
     <g id="line2d_29">
      <g>
       <use xlink:href="#md9a38cc331" x="51.05" y="35.312666" style="stroke: #000000; stroke-width: 0.8"/>
      </g>
     </g>
     <g id="text_30">
      <!-- 160 -->
      <g transform="translate(24.9625 39.111885) scale(0.1 -0.1)">
       <use xlink:href="#DejaVuSans-31"/>
       <use xlink:href="#DejaVuSans-36" transform="translate(63.623047 0)"/>
       <use xlink:href="#DejaVuSans-30" transform="translate(127.246094 0)"/>
      </g>
     </g>
    </g>
    <g id="text_31">
     <!-- Count -->
     <g transform="translate(18.882813 179.091434) rotate(-90) scale(0.1 -0.1)">
      <defs>
       <path id="DejaVuSans-75" d="M 544 1381 
L 544 3500 
L 1119 3500 
L 1119 1403 
Q 1119 906 1312 657 
Q 1506 409 1894 409 
Q 2359 409 2629 706 
Q 2900 1003 2900 1516 
L 2900 3500 
L 3475 3500 
L 3475 0 
L 2900 0 
L 2900 538 
Q 2691 219 2414 64 
Q 2138 -91 1772 -91 
Q 1169 -91 856 284 
Q 544 659 544 1381 
z
M 1991 3584 
L 1991 3584 
z
" transform="scale(0.015625)"/>
      </defs>
      <use xlink:href="#DejaVuSans-43"/>
      <use xlink:href="#DejaVuSans-6f" transform="translate(69.824219 0)"/>
      <use xlink:href="#DejaVuSans-75" transform="translate(131.005859 0)"/>
      <use xlink:href="#DejaVuSans-6e" transform="translate(194.384766 0)"/>
      <use xlink:href="#DejaVuSans-74" transform="translate(257.763672 0)"/>
     </g>
    </g>
   </g>
   <g id="patch_23">
    <path d="M 51.05 303.045994 
L 51.05 25.44 
" style="fill: none; stroke: #000000; stroke-width: 0.8; stroke-linejoin: miter; stroke-linecap: square"/>
   </g>
   <g id="patch_24">
    <path d="M 565.2 303.045994 
L 565.2 25.44 
" style="fill: none; stroke: #000000; stroke-width: 0.8; stroke-linejoin: miter; stroke-linecap: square"/>
   </g>
   <g id="patch_25">
    <path d="M 51.05 303.045994 
L 565.2 303.045994 
" style="fill: none; stroke: #000000; stroke-width: 0.8; stroke-linejoin: miter; stroke-linecap: square"/>
   </g>
   <g id="patch_26">
    <path d="M 51.05 25.44 
L 565.2 25.44 
" style="fill: none; stroke: #000000; stroke-width: 0.8; stroke-linejoin: miter; stroke-linecap: square"/>
   </g>
   <g id="text_32">
    <!-- CTCF orientation distribution across all targets (count &gt; 10) -->
    <g transform="translate(128.832812 19.44) scale(0.12 -0.12)">
     <defs>
      <path id="DejaVuSans-64" d="M 2906 2969 
L 2906 4863 
L 3481 4863 
L 3481 0 
L 2906 0 
L 2906 525 
Q 2725 213 2448 61 
Q 2172 -91 1784 -91 
Q 1150 -91 751 415 
Q 353 922 353 1747 
Q 353 2572 751 3078 
Q 1150 3584 1784 3584 
Q 2172 3584 2448 3432 
Q 2725 3281 2906 2969 
z
M 947 1747 
Q 947 1113 1208 752 
Q 1469 391 1925 391 
Q 2381 391 2643 752 
Q 2906 1113 2906 1747 
Q 2906 2381 2643 2742 
Q 2381 3103 1925 3103 
Q 1469 3103 1208 2742 
Q 947 2381 947 1747 
z
" transform="scale(0.015625)"/>
      <path id="DejaVuSans-73" d="M 2834 3397 
L 2834 2853 
Q 2591 2978 2328 3040 
Q 2066 3103 1784 3103 
Q 1356 3103 1142 2972 
Q 928 2841 928 2578 
Q 928 2378 1081 2264 
Q 1234 2150 1697 2047 
L 1894 2003 
Q 2506 1872 2764 1633 
Q 3022 1394 3022 966 
Q 3022 478 2636 193 
Q 2250 -91 1575 -91 
Q 1294 -91 989 -36 
Q 684 19 347 128 
L 347 722 
Q 666 556 975 473 
Q 1284 391 1588 391 
Q 1994 391 2212 530 
Q 2431 669 2431 922 
Q 2431 1156 2273 1281 
Q 2116 1406 1581 1522 
L 1381 1569 
Q 847 1681 609 1914 
Q 372 2147 372 2553 
Q 372 3047 722 3315 
Q 1072 3584 1716 3584 
Q 2034 3584 2315 3537 
Q 2597 3491 2834 3397 
z
" transform="scale(0.015625)"/>
      <path id="DejaVuSans-62" d="M 3116 1747 
Q 3116 2381 2855 2742 
Q 2594 3103 2138 3103 
Q 1681 3103 1420 2742 
Q 1159 2381 1159 1747 
Q 1159 1113 1420 752 
Q 1681 391 2138 391 
Q 2594 391 2855 752 
Q 3116 1113 3116 1747 
z
M 1159 2969 
Q 1341 3281 1617 3432 
Q 1894 3584 2278 3584 
Q 2916 3584 3314 3078 
Q 3713 2572 3713 1747 
Q 3713 922 3314 415 
Q 2916 -91 2278 -91 
Q 1894 -91 1617 61 
Q 1341 213 1159 525 
L 1159 0 
L 581 0 
L 581 4863 
L 1159 4863 
L 1159 2969 
z
" transform="scale(0.015625)"/>
      <path id="DejaVuSans-63" d="M 3122 3366 
L 3122 2828 
Q 2878 2963 2633 3030 
Q 2388 3097 2138 3097 
Q 1578 3097 1268 2742 
Q 959 2388 959 1747 
Q 959 1106 1268 751 
Q 1578 397 2138 397 
Q 2388 397 2633 464 
Q 2878 531 3122 666 
L 3122 134 
Q 2881 22 2623 -34 
Q 2366 -91 2075 -91 
Q 1284 -91 818 406 
Q 353 903 353 1747 
Q 353 2603 823 3093 
Q 1294 3584 2113 3584 
Q 2378 3584 2631 3529 
Q 2884 3475 3122 3366 
z
" transform="scale(0.015625)"/>
      <path id="DejaVuSans-6c" d="M 603 4863 
L 1178 4863 
L 1178 0 
L 603 0 
L 603 4863 
z
" transform="scale(0.015625)"/>
      <path id="DejaVuSans-67" d="M 2906 1791 
Q 2906 2416 2648 2759 
Q 2391 3103 1925 3103 
Q 1463 3103 1205 2759 
Q 947 2416 947 1791 
Q 947 1169 1205 825 
Q 1463 481 1925 481 
Q 2391 481 2648 825 
Q 2906 1169 2906 1791 
z
M 3481 434 
Q 3481 -459 3084 -895 
Q 2688 -1331 1869 -1331 
Q 1566 -1331 1297 -1286 
Q 1028 -1241 775 -1147 
L 775 -588 
Q 1028 -725 1275 -790 
Q 1522 -856 1778 -856 
Q 2344 -856 2625 -561 
Q 2906 -266 2906 331 
L 2906 616 
Q 2728 306 2450 153 
Q 2172 0 1784 0 
Q 1141 0 747 490 
Q 353 981 353 1791 
Q 353 2603 747 3093 
Q 1141 3584 1784 3584 
Q 2172 3584 2450 3431 
Q 2728 3278 2906 2969 
L 2906 3500 
L 3481 3500 
L 3481 434 
z
" transform="scale(0.015625)"/>
      <path id="DejaVuSans-28" d="M 1984 4856 
Q 1566 4138 1362 3434 
Q 1159 2731 1159 2009 
Q 1159 1288 1364 580 
Q 1569 -128 1984 -844 
L 1484 -844 
Q 1016 -109 783 600 
Q 550 1309 550 2009 
Q 550 2706 781 3412 
Q 1013 4119 1484 4856 
L 1984 4856 
z
" transform="scale(0.015625)"/>
      <path id="DejaVuSans-3e" d="M 678 3150 
L 678 3719 
L 4684 2266 
L 4684 1747 
L 678 294 
L 678 863 
L 3897 2003 
L 678 3150 
z
" transform="scale(0.015625)"/>
      <path id="DejaVuSans-29" d="M 513 4856 
L 1013 4856 
Q 1481 4119 1714 3412 
Q 1947 2706 1947 2009 
Q 1947 1309 1714 600 
Q 1481 -109 1013 -844 
L 513 -844 
Q 928 -128 1133 580 
Q 1338 1288 1338 2009 
Q 1338 2731 1133 3434 
Q 928 4138 513 4856 
z
" transform="scale(0.015625)"/>
     </defs>
     <use xlink:href="#DejaVuSans-43"/>
     <use xlink:href="#DejaVuSans-54" transform="translate(69.824219 0)"/>
     <use xlink:href="#DejaVuSans-43" transform="translate(125.033203 0)"/>
     <use xlink:href="#DejaVuSans-46" transform="translate(194.857422 0)"/>
     <use xlink:href="#DejaVuSans-20" transform="translate(252.376953 0)"/>
     <use xlink:href="#DejaVuSans-6f" transform="translate(284.164062 0)"/>
     <use xlink:href="#DejaVuSans-72" transform="translate(345.345703 0)"/>
     <use xlink:href="#DejaVuSans-69" transform="translate(386.458984 0)"/>
     <use xlink:href="#DejaVuSans-65" transform="translate(414.242188 0)"/>
     <use xlink:href="#DejaVuSans-6e" transform="translate(475.765625 0)"/>
     <use xlink:href="#DejaVuSans-74" transform="translate(539.144531 0)"/>
     <use xlink:href="#DejaVuSans-61" transform="translate(578.353516 0)"/>
     <use xlink:href="#DejaVuSans-74" transform="translate(639.632812 0)"/>
     <use xlink:href="#DejaVuSans-69" transform="translate(678.841797 0)"/>
     <use xlink:href="#DejaVuSans-6f" transform="translate(706.625 0)"/>
     <use xlink:href="#DejaVuSans-6e" transform="translate(767.806641 0)"/>
     <use xlink:href="#DejaVuSans-20" transform="translate(831.185547 0)"/>
     <use xlink:href="#DejaVuSans-64" transform="translate(862.972656 0)"/>
     <use xlink:href="#DejaVuSans-69" transform="translate(926.449219 0)"/>
     <use xlink:href="#DejaVuSans-73" transform="translate(954.232422 0)"/>
     <use xlink:href="#DejaVuSans-74" transform="translate(1006.332031 0)"/>
     <use xlink:href="#DejaVuSans-72" transform="translate(1045.541016 0)"/>
     <use xlink:href="#DejaVuSans-69" transform="translate(1086.654297 0)"/>
     <use xlink:href="#DejaVuSans-62" transform="translate(1114.4375 0)"/>
     <use xlink:href="#DejaVuSans-75" transform="translate(1177.914062 0)"/>
     <use xlink:href="#DejaVuSans-74" transform="translate(1241.292969 0)"/>
     <use xlink:href="#DejaVuSans-69" transform="translate(1280.501953 0)"/>
     <use xlink:href="#DejaVuSans-6f" transform="translate(1308.285156 0)"/>
     <use xlink:href="#DejaVuSans-6e" transform="translate(1369.466797 0)"/>
     <use xlink:href="#DejaVuSans-20" transform="translate(1432.845703 0)"/>
     <use xlink:href="#DejaVuSans-61" transform="translate(1464.632812 0)"/>
     <use xlink:href="#DejaVuSans-63" transform="translate(1525.912109 0)"/>
     <use xlink:href="#DejaVuSans-72" transform="translate(1580.892578 0)"/>
     <use xlink:href="#DejaVuSans-6f" transform="translate(1619.755859 0)"/>
     <use xlink:href="#DejaVuSans-73" transform="translate(1680.9375 0)"/>
     <use xlink:href="#DejaVuSans-73" transform="translate(1733.037109 0)"/>
     <use xlink:href="#DejaVuSans-20" transform="translate(1785.136719 0)"/>
     <use xlink:href="#DejaVuSans-61" transform="translate(1816.923828 0)"/>
     <use xlink:href="#DejaVuSans-6c" transform="translate(1878.203125 0)"/>
     <use xlink:href="#DejaVuSans-6c" transform="translate(1905.986328 0)"/>
     <use xlink:href="#DejaVuSans-20" transform="translate(1933.769531 0)"/>
     <use xlink:href="#DejaVuSans-74" transform="translate(1965.556641 0)"/>
     <use xlink:href="#DejaVuSans-61" transform="translate(2004.765625 0)"/>
     <use xlink:href="#DejaVuSans-72" transform="translate(2066.044922 0)"/>
     <use xlink:href="#DejaVuSans-67" transform="translate(2105.408203 0)"/>
     <use xlink:href="#DejaVuSans-65" transform="translate(2168.884766 0)"/>
     <use xlink:href="#DejaVuSans-74" transform="translate(2230.408203 0)"/>
     <use xlink:href="#DejaVuSans-73" transform="translate(2269.617188 0)"/>
     <use xlink:href="#DejaVuSans-20" transform="translate(2321.716797 0)"/>
     <use xlink:href="#DejaVuSans-28" transform="translate(2353.503906 0)"/>
     <use xlink:href="#DejaVuSans-63" transform="translate(2392.517578 0)"/>
     <use xlink:href="#DejaVuSans-6f" transform="translate(2447.498047 0)"/>
     <use xlink:href="#DejaVuSans-75" transform="translate(2508.679688 0)"/>
     <use xlink:href="#DejaVuSans-6e" transform="translate(2572.058594 0)"/>
     <use xlink:href="#DejaVuSans-74" transform="translate(2635.4375 0)"/>
     <use xlink:href="#DejaVuSans-20" transform="translate(2674.646484 0)"/>
     <use xlink:href="#DejaVuSans-3e" transform="translate(2706.433594 0)"/>
     <use xlink:href="#DejaVuSans-20" transform="translate(2790.222656 0)"/>
     <use xlink:href="#DejaVuSans-31" transform="translate(2822.009766 0)"/>
     <use xlink:href="#DejaVuSans-30" transform="translate(2885.632812 0)"/>
     <use xlink:href="#DejaVuSans-29" transform="translate(2949.255859 0)"/>
    </g>
   </g>
  </g>
 </g>
 <defs>
  <clipPath id="pe0996fedd5">
   <rect x="51.05" y="25.44" width="514.15" height="277.605994"/>
  </clipPath>
 </defs>
</svg>
