<?xml version="1.0" encoding="utf-8" standalone="no"?>
<!DOCTYPE svg PUBLIC "-//W3C//DTD SVG 1.1//EN"
  "http://www.w3.org/Graphics/SVG/1.1/DTD/svg11.dtd">
<svg xmlns:xlink="http://www.w3.org/1999/xlink" width="856.804062pt" height="280.474375pt" viewBox="0 0 856.804062 280.474375" xmlns="http://www.w3.org/2000/svg" version="1.1">
 <metadata>
  <rdf:RDF xmlns:dc="http://purl.org/dc/elements/1.1/" xmlns:cc="http://creativecommons.org/ns#" xmlns:rdf="http://www.w3.org/1999/02/22-rdf-syntax-ns#">
   <cc:Work>
    <dc:type rdf:resource="http://purl.org/dc/dcmitype/StillImage"/>
    <dc:date>2026-03-18T13:17:32.385356</dc:date>
    <dc:format>image/svg+xml</dc:format>
    <dc:creator>
     <cc:Agent>
      <dc:title>Matplotlib v3.10.8, https://matplotlib.org/</dc:title>
     </cc:Agent>
    </dc:creator>
   </cc:Work>
  </rdf:RDF>
 </metadata>
 <defs>
  <style type="text/css">*{stroke-linejoin: round; stroke-linecap: butt}</style>
 </defs>
 <g id="figure_1">
  <g id="patch_1">
   <path d="M 0 280.474375 
L 856.804062 280.474375 
L 856.804062 0 
L 0 0 
z
" style="fill: #ffffff"/>
  </g>
  <g id="axes_1">
   <g id="patch_2">
    <path d="M 42.914062 242.918125 
L 849.604063 242.918125 
L 849.604063 22.318125 
L 42.914062 22.318125 
z
" style="fill: #ffffff"/>
   </g>
   <g id="line2d_1">
    <path d="M 19.280566 222.86358 
L 857.804062 222.86358 
" clip-path="url(#pfd5f13118a)" style="fill: none; stroke-dasharray: 2.96,1.28; stroke-dashoffset: 0; stroke: #d3d3d3; stroke-opacity: 0.8; stroke-width: 0.8"/>
   </g>
   <g id="line2d_2">
    <path d="M 19.280566 202.809034 
L 857.804062 202.809034 
" clip-path="url(#pfd5f13118a)" style="fill: none; stroke-dasharray: 2.96,1.28; stroke-dashoffset: 0; stroke: #d3d3d3; stroke-opacity: 0.8; stroke-width: 0.8"/>
   </g>
   <g id="line2d_3">
    <path d="M 19.280566 182.754489 
L 857.804062 182.754489 
" clip-path="url(#pfd5f13118a)" style="fill: none; stroke-dasharray: 2.96,1.28; stroke-dashoffset: 0; stroke: #d3d3d3; stroke-opacity: 0.8; stroke-width: 0.8"/>
   </g>
   <g id="line2d_4">
    <path d="M 19.280566 162.699943 
L 857.804062 162.699943 
" clip-path="url(#pfd5f13118a)" style="fill: none; stroke-dasharray: 2.96,1.28; stroke-dashoffset: 0; stroke: #d3d3d3; stroke-opacity: 0.8; stroke-width: 0.8"/>
   </g>
   <g id="line2d_5">
    <path d="M 19.280566 142.645398 
L 857.804062 142.645398 
" clip-path="url(#pfd5f13118a)" style="fill: none; stroke-dasharray: 2.96,1.28; stroke-dashoffset: 0; stroke: #d3d3d3; stroke-opacity: 0.8; stroke-width: 0.8"/>
   </g>
   <g id="line2d_6">
    <path d="M 19.280566 122.590852 
L 857.804062 122.590852 
" clip-path="url(#pfd5f13118a)" style="fill: none; stroke-dasharray: 2.96,1.28; stroke-dashoffset: 0; stroke: #d3d3d3; stroke-opacity: 0.8; stroke-width: 0.8"/>
   </g>
   <g id="line2d_7">
    <path d="M 19.280566 102.536307 
L 857.804062 102.536307 
" clip-path="url(#pfd5f13118a)" style="fill: none; stroke-dasharray: 2.96,1.28; stroke-dashoffset: 0; stroke: #d3d3d3; stroke-opacity: 0.8; stroke-width: 0.8"/>
   </g>
   <g id="line2d_8">
    <path d="M 19.280566 82.481761 
L 857.804062 82.481761 
" clip-path="url(#pfd5f13118a)" style="fill: none; stroke-dasharray: 2.96,1.28; stroke-dashoffset: 0; stroke: #d3d3d3; stroke-opacity: 0.8; stroke-width: 0.8"/>
   </g>
   <g id="line2d_9">
    <path d="M 19.280566 62.427216 
L 857.804062 62.427216 
" clip-path="url(#pfd5f13118a)" style="fill: none; stroke-dasharray: 2.96,1.28; stroke-dashoffset: 0; stroke: #d3d3d3; stroke-opacity: 0.8; stroke-width: 0.8"/>
   </g>
   <g id="line2d_10">
    <path d="M 19.280566 42.37267 
L 857.804062 42.37267 
" clip-path="url(#pfd5f13118a)" style="fill: none; stroke-dasharray: 2.96,1.28; stroke-dashoffset: 0; stroke: #d3d3d3; stroke-opacity: 0.8; stroke-width: 0.8"/>
   </g>
   <g id="matplotlib.axis_1">
    <g id="xtick_1">
     <g id="line2d_11">
      <path d="M 42.914062 242.918125 
L 42.914062 22.318125 
" clip-path="url(#pfd5f13118a)" style="fill: none; stroke-dasharray: 2.96,1.28; stroke-dashoffset: 0; stroke: #b0b0b0; stroke-opacity: 0.4; stroke-width: 0.8"/>
     </g>
     <g id="line2d_12">
      <defs>
       <path id="m46834cbb87" d="M 0 0 
L 0 3.5 
" style="stroke: #000000; stroke-width: 0.8"/>
      </defs>
      <g>
       <use xlink:href="#m46834cbb87" x="42.914062" y="242.918125" style="stroke: #000000; stroke-width: 0.8"/>
      </g>
     </g>
     <g id="text_1">
      <!-- 0 -->
      <g transform="translate(39.732813 257.516563) scale(0.1 -0.1)">
       <defs>
        <path id="DejaVuSans-30" d="M 2034 4250 
Q 1547 4250 1301 3770 
Q 1056 3291 1056 2328 
Q 1056 1369 1301 889 
Q 1547 409 2034 409 
Q 2525 409 2770 889 
Q 3016 1369 3016 2328 
Q 3016 3291 2770 3770 
Q 2525 4250 2034 4250 
z
M 2034 4750 
Q 2819 4750 3233 4129 
Q 3647 3509 3647 2328 
Q 3647 1150 3233 529 
Q 2819 -91 2034 -91 
Q 1250 -91 836 529 
Q 422 1150 422 2328 
Q 422 3509 836 4129 
Q 1250 4750 2034 4750 
z
" transform="scale(0.015625)"/>
       </defs>
       <use xlink:href="#DejaVuSans-30"/>
      </g>
     </g>
    </g>
    <g id="xtick_2">
     <g id="line2d_13">
      <path d="M 141.386963 242.918125 
L 141.386963 22.318125 
" clip-path="url(#pfd5f13118a)" style="fill: none; stroke-dasharray: 2.96,1.28; stroke-dashoffset: 0; stroke: #b0b0b0; stroke-opacity: 0.4; stroke-width: 0.8"/>
     </g>
     <g id="line2d_14">
      <g>
       <use xlink:href="#m46834cbb87" x="141.386963" y="242.918125" style="stroke: #000000; stroke-width: 0.8"/>
      </g>
     </g>
     <g id="text_2">
      <!-- 250 -->
      <g transform="translate(131.843213 257.516563) scale(0.1 -0.1)">
       <defs>
        <path id="DejaVuSans-32" d="M 1228 531 
L 3431 531 
L 3431 0 
L 469 0 
L 469 531 
Q 828 903 1448 1529 
Q 2069 2156 2228 2338 
Q 2531 2678 2651 2914 
Q 2772 3150 2772 3378 
Q 2772 3750 2511 3984 
Q 2250 4219 1831 4219 
Q 1534 4219 1204 4116 
Q 875 4013 500 3803 
L 500 4441 
Q 881 4594 1212 4672 
Q 1544 4750 1819 4750 
Q 2544 4750 2975 4387 
Q 3406 4025 3406 3419 
Q 3406 3131 3298 2873 
Q 3191 2616 2906 2266 
Q 2828 2175 2409 1742 
Q 1991 1309 1228 531 
z
" transform="scale(0.015625)"/>
        <path id="DejaVuSans-35" d="M 691 4666 
L 3169 4666 
L 3169 4134 
L 1269 4134 
L 1269 2991 
Q 1406 3038 1543 3061 
Q 1681 3084 1819 3084 
Q 2600 3084 3056 2656 
Q 3513 2228 3513 1497 
Q 3513 744 3044 326 
Q 2575 -91 1722 -91 
Q 1428 -91 1123 -41 
Q 819 9 494 109 
L 494 744 
Q 775 591 1075 516 
Q 1375 441 1709 441 
Q 2250 441 2565 725 
Q 2881 1009 2881 1497 
Q 2881 1984 2565 2268 
Q 2250 2553 1709 2553 
Q 1456 2553 1204 2497 
Q 953 2441 691 2322 
L 691 4666 
z
" transform="scale(0.015625)"/>
       </defs>
       <use xlink:href="#DejaVuSans-32"/>
       <use xlink:href="#DejaVuSans-35" transform="translate(63.623047 0)"/>
       <use xlink:href="#DejaVuSans-30" transform="translate(127.246094 0)"/>
      </g>
     </g>
    </g>
    <g id="xtick_3">
     <g id="line2d_15">
      <path d="M 239.859863 242.918125 
L 239.859863 22.318125 
" clip-path="url(#pfd5f13118a)" style="fill: none; stroke-dasharray: 2.96,1.28; stroke-dashoffset: 0; stroke: #b0b0b0; stroke-opacity: 0.4; stroke-width: 0.8"/>
     </g>
     <g id="line2d_16">
      <g>
       <use xlink:href="#m46834cbb87" x="239.859863" y="242.918125" style="stroke: #000000; stroke-width: 0.8"/>
      </g>
     </g>
     <g id="text_3">
      <!-- 500 -->
      <g transform="translate(230.316113 257.516563) scale(0.1 -0.1)">
       <use xlink:href="#DejaVuSans-35"/>
       <use xlink:href="#DejaVuSans-30" transform="translate(63.623047 0)"/>
       <use xlink:href="#DejaVuSans-30" transform="translate(127.246094 0)"/>
      </g>
     </g>
    </g>
    <g id="xtick_4">
     <g id="line2d_17">
      <path d="M 338.332764 242.918125 
L 338.332764 22.318125 
" clip-path="url(#pfd5f13118a)" style="fill: none; stroke-dasharray: 2.96,1.28; stroke-dashoffset: 0; stroke: #b0b0b0; stroke-opacity: 0.4; stroke-width: 0.8"/>
     </g>
     <g id="line2d_18">
      <g>
       <use xlink:href="#m46834cbb87" x="338.332764" y="242.918125" style="stroke: #000000; stroke-width: 0.8"/>
      </g>
     </g>
     <g id="text_4">
      <!-- 750 -->
      <g transform="translate(328.789014 257.516563) scale(0.1 -0.1)">
       <defs>
        <path id="DejaVuSans-37" d="M 525 4666 
L 3525 4666 
L 3525 4397 
L 1831 0 
L 1172 0 
L 2766 4134 
L 525 4134 
L 525 4666 
z
" transform="scale(0.015625)"/>
       </defs>
       <use xlink:href="#DejaVuSans-37"/>
       <use xlink:href="#DejaVuSans-35" transform="translate(63.623047 0)"/>
       <use xlink:href="#DejaVuSans-30" transform="translate(127.246094 0)"/>
      </g>
     </g>
    </g>
    <g id="xtick_5">
     <g id="line2d_19">
      <path d="M 436.805664 242.918125 
L 436.805664 22.318125 
" clip-path="url(#pfd5f13118a)" style="fill: none; stroke-dasharray: 2.96,1.28; stroke-dashoffset: 0; stroke: #b0b0b0; stroke-opacity: 0.4; stroke-width: 0.8"/>
     </g>
     <g id="line2d_20">
      <g>
       <use xlink:href="#m46834cbb87" x="436.805664" y="242.918125" style="stroke: #000000; stroke-width: 0.8"/>
      </g>
     </g>
     <g id="text_5">
      <!-- 1000 -->
      <g transform="translate(424.080664 257.516563) scale(0.1 -0.1)">
       <defs>
        <path id="DejaVuSans-31" d="M 794 531 
L 1825 531 
L 1825 4091 
L 703 3866 
L 703 4441 
L 1819 4666 
L 2450 4666 
L 2450 531 
L 3481 531 
L 3481 0 
L 794 0 
L 794 531 
z
" transform="scale(0.015625)"/>
       </defs>
       <use xlink:href="#DejaVuSans-31"/>
       <use xlink:href="#DejaVuSans-30" transform="translate(63.623047 0)"/>
       <use xlink:href="#DejaVuSans-30" transform="translate(127.246094 0)"/>
       <use xlink:href="#DejaVuSans-30" transform="translate(190.869141 0)"/>
      </g>
     </g>
    </g>
    <g id="xtick_6">
     <g id="line2d_21">
      <path d="M 535.278564 242.918125 
L 535.278564 22.318125 
" clip-path="url(#pfd5f13118a)" style="fill: none; stroke-dasharray: 2.96,1.28; stroke-dashoffset: 0; stroke: #b0b0b0; stroke-opacity: 0.4; stroke-width: 0.8"/>
     </g>
     <g id="line2d_22">
      <g>
       <use xlink:href="#m46834cbb87" x="535.278564" y="242.918125" style="stroke: #000000; stroke-width: 0.8"/>
      </g>
     </g>
     <g id="text_6">
      <!-- 1250 -->
      <g transform="translate(522.553564 257.516563) scale(0.1 -0.1)">
       <use xlink:href="#DejaVuSans-31"/>
       <use xlink:href="#DejaVuSans-32" transform="translate(63.623047 0)"/>
       <use xlink:href="#DejaVuSans-35" transform="translate(127.246094 0)"/>
       <use xlink:href="#DejaVuSans-30" transform="translate(190.869141 0)"/>
      </g>
     </g>
    </g>
    <g id="xtick_7">
     <g id="line2d_23">
      <path d="M 633.751465 242.918125 
L 633.751465 22.318125 
" clip-path="url(#pfd5f13118a)" style="fill: none; stroke-dasharray: 2.96,1.28; stroke-dashoffset: 0; stroke: #b0b0b0; stroke-opacity: 0.4; stroke-width: 0.8"/>
     </g>
     <g id="line2d_24">
      <g>
       <use xlink:href="#m46834cbb87" x="633.751465" y="242.918125" style="stroke: #000000; stroke-width: 0.8"/>
      </g>
     </g>
     <g id="text_7">
      <!-- 1500 -->
      <g transform="translate(621.026465 257.516563) scale(0.1 -0.1)">
       <use xlink:href="#DejaVuSans-31"/>
       <use xlink:href="#DejaVuSans-35" transform="translate(63.623047 0)"/>
       <use xlink:href="#DejaVuSans-30" transform="translate(127.246094 0)"/>
       <use xlink:href="#DejaVuSans-30" transform="translate(190.869141 0)"/>
      </g>
     </g>
    </g>
    <g id="xtick_8">
     <g id="line2d_25">
      <path d="M 732.224365 242.918125 
L 732.224365 22.318125 
" clip-path="url(#pfd5f13118a)" style="fill: none; stroke-dasharray: 2.96,1.28; stroke-dashoffset: 0; stroke: #b0b0b0; stroke-opacity: 0.4; stroke-width: 0.8"/>
     </g>
     <g id="line2d_26">
      <g>
       <use xlink:href="#m46834cbb87" x="732.224365" y="242.918125" style="stroke: #000000; stroke-width: 0.8"/>
      </g>
     </g>
     <g id="text_8">
      <!-- 1750 -->
      <g transform="translate(719.499365 257.516563) scale(0.1 -0.1)">
       <use xlink:href="#DejaVuSans-31"/>
       <use xlink:href="#DejaVuSans-37" transform="translate(63.623047 0)"/>
       <use xlink:href="#DejaVuSans-35" transform="translate(127.246094 0)"/>
       <use xlink:href="#DejaVuSans-30" transform="translate(190.869141 0)"/>
      </g>
     </g>
    </g>
    <g id="xtick_9">
     <g id="line2d_27">
      <path d="M 830.697266 242.918125 
L 830.697266 22.318125 
" clip-path="url(#pfd5f13118a)" style="fill: none; stroke-dasharray: 2.96,1.28; stroke-dashoffset: 0; stroke: #b0b0b0; stroke-opacity: 0.4; stroke-width: 0.8"/>
     </g>
     <g id="line2d_28">
      <g>
       <use xlink:href="#m46834cbb87" x="830.697266" y="242.918125" style="stroke: #000000; stroke-width: 0.8"/>
      </g>
     </g>
     <g id="text_9">
      <!-- 2000 -->
      <g transform="translate(817.972266 257.516563) scale(0.1 -0.1)">
       <use xlink:href="#DejaVuSans-32"/>
       <use xlink:href="#DejaVuSans-30" transform="translate(63.623047 0)"/>
       <use xlink:href="#DejaVuSans-30" transform="translate(127.246094 0)"/>
       <use xlink:href="#DejaVuSans-30" transform="translate(190.869141 0)"/>
      </g>
     </g>
    </g>
    <g id="text_10">
     <!-- Relative position (bp) -->
     <g transform="translate(392.862188 271.194687) scale(0.1 -0.1)">
      <defs>
       <path id="DejaVuSans-52" d="M 2841 2188 
Q 3044 2119 3236 1894 
Q 3428 1669 3622 1275 
L 4263 0 
L 3584 0 
L 2988 1197 
Q 2756 1666 2539 1819 
Q 2322 1972 1947 1972 
L 1259 1972 
L 1259 0 
L 628 0 
L 628 4666 
L 2053 4666 
Q 2853 4666 3247 4331 
Q 3641 3997 3641 3322 
Q 3641 2881 3436 2590 
Q 3231 2300 2841 2188 
z
M 1259 4147 
L 1259 2491 
L 2053 2491 
Q 2509 2491 2742 2702 
Q 2975 2913 2975 3322 
Q 2975 3731 2742 3939 
Q 2509 4147 2053 4147 
L 1259 4147 
z
" transform="scale(0.015625)"/>
       <path id="DejaVuSans-65" d="M 3597 1894 
L 3597 1613 
L 953 1613 
Q 991 1019 1311 708 
Q 1631 397 2203 397 
Q 2534 397 2845 478 
Q 3156 559 3463 722 
L 3463 178 
Q 3153 47 2828 -22 
Q 2503 -91 2169 -91 
Q 1331 -91 842 396 
Q 353 884 353 1716 
Q 353 2575 817 3079 
Q 1281 3584 2069 3584 
Q 2775 3584 3186 3129 
Q 3597 2675 3597 1894 
z
M 3022 2063 
Q 3016 2534 2758 2815 
Q 2500 3097 2075 3097 
Q 1594 3097 1305 2825 
Q 1016 2553 972 2059 
L 3022 2063 
z
" transform="scale(0.015625)"/>
       <path id="DejaVuSans-6c" d="M 603 4863 
L 1178 4863 
L 1178 0 
L 603 0 
L 603 4863 
z
" transform="scale(0.015625)"/>
       <path id="DejaVuSans-61" d="M 2194 1759 
Q 1497 1759 1228 1600 
Q 959 1441 959 1056 
Q 959 750 1161 570 
Q 1363 391 1709 391 
Q 2188 391 2477 730 
Q 2766 1069 2766 1631 
L 2766 1759 
L 2194 1759 
z
M 3341 1997 
L 3341 0 
L 2766 0 
L 2766 531 
Q 2569 213 2275 61 
Q 1981 -91 1556 -91 
Q 1019 -91 701 211 
Q 384 513 384 1019 
Q 384 1609 779 1909 
Q 1175 2209 1959 2209 
L 2766 2209 
L 2766 2266 
Q 2766 2663 2505 2880 
Q 2244 3097 1772 3097 
Q 1472 3097 1187 3025 
Q 903 2953 641 2809 
L 641 3341 
Q 956 3463 1253 3523 
Q 1550 3584 1831 3584 
Q 2591 3584 2966 3190 
Q 3341 2797 3341 1997 
z
" transform="scale(0.015625)"/>
       <path id="DejaVuSans-74" d="M 1172 4494 
L 1172 3500 
L 2356 3500 
L 2356 3053 
L 1172 3053 
L 1172 1153 
Q 1172 725 1289 603 
Q 1406 481 1766 481 
L 2356 481 
L 2356 0 
L 1766 0 
Q 1100 0 847 248 
Q 594 497 594 1153 
L 594 3053 
L 172 3053 
L 172 3500 
L 594 3500 
L 594 4494 
L 1172 4494 
z
" transform="scale(0.015625)"/>
       <path id="DejaVuSans-69" d="M 603 3500 
L 1178 3500 
L 1178 0 
L 603 0 
L 603 3500 
z
M 603 4863 
L 1178 4863 
L 1178 4134 
L 603 4134 
L 603 4863 
z
" transform="scale(0.015625)"/>
       <path id="DejaVuSans-76" d="M 191 3500 
L 800 3500 
L 1894 563 
L 2988 3500 
L 3597 3500 
L 2284 0 
L 1503 0 
L 191 3500 
z
" transform="scale(0.015625)"/>
       <path id="DejaVuSans-20" transform="scale(0.015625)"/>
       <path id="DejaVuSans-70" d="M 1159 525 
L 1159 -1331 
L 581 -1331 
L 581 3500 
L 1159 3500 
L 1159 2969 
Q 1341 3281 1617 3432 
Q 1894 3584 2278 3584 
Q 2916 3584 3314 3078 
Q 3713 2572 3713 1747 
Q 3713 922 3314 415 
Q 2916 -91 2278 -91 
Q 1894 -91 1617 61 
Q 1341 213 1159 525 
z
M 3116 1747 
Q 3116 2381 2855 2742 
Q 2594 3103 2138 3103 
Q 1681 3103 1420 2742 
Q 1159 2381 1159 1747 
Q 1159 1113 1420 752 
Q 1681 391 2138 391 
Q 2594 391 2855 752 
Q 3116 1113 3116 1747 
z
" transform="scale(0.015625)"/>
       <path id="DejaVuSans-6f" d="M 1959 3097 
Q 1497 3097 1228 2736 
Q 959 2375 959 1747 
Q 959 1119 1226 758 
Q 1494 397 1959 397 
Q 2419 397 2687 759 
Q 2956 1122 2956 1747 
Q 2956 2369 2687 2733 
Q 2419 3097 1959 3097 
z
M 1959 3584 
Q 2709 3584 3137 3096 
Q 3566 2609 3566 1747 
Q 3566 888 3137 398 
Q 2709 -91 1959 -91 
Q 1206 -91 779 398 
Q 353 888 353 1747 
Q 353 2609 779 3096 
Q 1206 3584 1959 3584 
z
" transform="scale(0.015625)"/>
       <path id="DejaVuSans-73" d="M 2834 3397 
L 2834 2853 
Q 2591 2978 2328 3040 
Q 2066 3103 1784 3103 
Q 1356 3103 1142 2972 
Q 928 2841 928 2578 
Q 928 2378 1081 2264 
Q 1234 2150 1697 2047 
L 1894 2003 
Q 2506 1872 2764 1633 
Q 3022 1394 3022 966 
Q 3022 478 2636 193 
Q 2250 -91 1575 -91 
Q 1294 -91 989 -36 
Q 684 19 347 128 
L 347 722 
Q 666 556 975 473 
Q 1284 391 1588 391 
Q 1994 391 2212 530 
Q 2431 669 2431 922 
Q 2431 1156 2273 1281 
Q 2116 1406 1581 1522 
L 1381 1569 
Q 847 1681 609 1914 
Q 372 2147 372 2553 
Q 372 3047 722 3315 
Q 1072 3584 1716 3584 
Q 2034 3584 2315 3537 
Q 2597 3491 2834 3397 
z
" transform="scale(0.015625)"/>
       <path id="DejaVuSans-6e" d="M 3513 2113 
L 3513 0 
L 2938 0 
L 2938 2094 
Q 2938 2591 2744 2837 
Q 2550 3084 2163 3084 
Q 1697 3084 1428 2787 
Q 1159 2491 1159 1978 
L 1159 0 
L 581 0 
L 581 3500 
L 1159 3500 
L 1159 2956 
Q 1366 3272 1645 3428 
Q 1925 3584 2291 3584 
Q 2894 3584 3203 3211 
Q 3513 2838 3513 2113 
z
" transform="scale(0.015625)"/>
       <path id="DejaVuSans-28" d="M 1984 4856 
Q 1566 4138 1362 3434 
Q 1159 2731 1159 2009 
Q 1159 1288 1364 580 
Q 1569 -128 1984 -844 
L 1484 -844 
Q 1016 -109 783 600 
Q 550 1309 550 2009 
Q 550 2706 781 3412 
Q 1013 4119 1484 4856 
L 1984 4856 
z
" transform="scale(0.015625)"/>
       <path id="DejaVuSans-62" d="M 3116 1747 
Q 3116 2381 2855 2742 
Q 2594 3103 2138 3103 
Q 1681 3103 1420 2742 
Q 1159 2381 1159 1747 
Q 1159 1113 1420 752 
Q 1681 391 2138 391 
Q 2594 391 2855 752 
Q 3116 1113 3116 1747 
z
M 1159 2969 
Q 1341 3281 1617 3432 
Q 1894 3584 2278 3584 
Q 2916 3584 3314 3078 
Q 3713 2572 3713 1747 
Q 3713 922 3314 415 
Q 2916 -91 2278 -91 
Q 1894 -91 1617 61 
Q 1341 213 1159 525 
L 1159 0 
L 581 0 
L 581 4863 
L 1159 4863 
L 1159 2969 
z
" transform="scale(0.015625)"/>
       <path id="DejaVuSans-29" d="M 513 4856 
L 1013 4856 
Q 1481 4119 1714 3412 
Q 1947 2706 1947 2009 
Q 1947 1309 1714 600 
Q 1481 -109 1013 -844 
L 513 -844 
Q 928 -128 1133 580 
Q 1338 1288 1338 2009 
Q 1338 2731 1133 3434 
Q 928 4138 513 4856 
z
" transform="scale(0.015625)"/>
      </defs>
      <use xlink:href="#DejaVuSans-52"/>
      <use xlink:href="#DejaVuSans-65" transform="translate(64.982422 0)"/>
      <use xlink:href="#DejaVuSans-6c" transform="translate(126.505859 0)"/>
      <use xlink:href="#DejaVuSans-61" transform="translate(154.289062 0)"/>
      <use xlink:href="#DejaVuSans-74" transform="translate(215.568359 0)"/>
      <use xlink:href="#DejaVuSans-69" transform="translate(254.777344 0)"/>
      <use xlink:href="#DejaVuSans-76" transform="translate(282.560547 0)"/>
      <use xlink:href="#DejaVuSans-65" transform="translate(341.740234 0)"/>
      <use xlink:href="#DejaVuSans-20" transform="translate(403.263672 0)"/>
      <use xlink:href="#DejaVuSans-70" transform="translate(435.050781 0)"/>
      <use xlink:href="#DejaVuSans-6f" transform="translate(498.527344 0)"/>
      <use xlink:href="#DejaVuSans-73" transform="translate(559.708984 0)"/>
      <use xlink:href="#DejaVuSans-69" transform="translate(611.808594 0)"/>
      <use xlink:href="#DejaVuSans-74" transform="translate(639.591797 0)"/>
      <use xlink:href="#DejaVuSans-69" transform="translate(678.800781 0)"/>
      <use xlink:href="#DejaVuSans-6f" transform="translate(706.583984 0)"/>
      <use xlink:href="#DejaVuSans-6e" transform="translate(767.765625 0)"/>
      <use xlink:href="#DejaVuSans-20" transform="translate(831.144531 0)"/>
      <use xlink:href="#DejaVuSans-28" transform="translate(862.931641 0)"/>
      <use xlink:href="#DejaVuSans-62" transform="translate(901.945312 0)"/>
      <use xlink:href="#DejaVuSans-70" transform="translate(965.421875 0)"/>
      <use xlink:href="#DejaVuSans-29" transform="translate(1028.898438 0)"/>
     </g>
    </g>
   </g>
   <g id="matplotlib.axis_2">
    <g id="ytick_1">
     <g id="line2d_29">
      <defs>
       <path id="m0b3bd76a5a" d="M 0 0 
L -3.5 0 
" style="stroke: #000000; stroke-width: 0.8"/>
      </defs>
      <g>
       <use xlink:href="#m0b3bd76a5a" x="42.914062" y="222.86358" style="stroke: #000000; stroke-width: 0.8"/>
      </g>
     </g>
     <g id="text_11">
      <!-- Run 0 -->
      <g transform="translate(7.2 226.662798) scale(0.1 -0.1)">
       <defs>
        <path id="DejaVuSans-75" d="M 544 1381 
L 544 3500 
L 1119 3500 
L 1119 1403 
Q 1119 906 1312 657 
Q 1506 409 1894 409 
Q 2359 409 2629 706 
Q 2900 1003 2900 1516 
L 2900 3500 
L 3475 3500 
L 3475 0 
L 2900 0 
L 2900 538 
Q 2691 219 2414 64 
Q 2138 -91 1772 -91 
Q 1169 -91 856 284 
Q 544 659 544 1381 
z
M 1991 3584 
L 1991 3584 
z
" transform="scale(0.015625)"/>
       </defs>
       <use xlink:href="#DejaVuSans-52"/>
       <use xlink:href="#DejaVuSans-75" transform="translate(64.982422 0)"/>
       <use xlink:href="#DejaVuSans-6e" transform="translate(128.361328 0)"/>
       <use xlink:href="#DejaVuSans-20" transform="translate(191.740234 0)"/>
       <use xlink:href="#DejaVuSans-30" transform="translate(223.527344 0)"/>
      </g>
     </g>
    </g>
    <g id="ytick_2">
     <g id="line2d_30">
      <g>
       <use xlink:href="#m0b3bd76a5a" x="42.914062" y="202.809034" style="stroke: #000000; stroke-width: 0.8"/>
      </g>
     </g>
     <g id="text_12">
      <!-- Run 3 -->
      <g transform="translate(7.2 206.608253) scale(0.1 -0.1)">
       <defs>
        <path id="DejaVuSans-33" d="M 2597 2516 
Q 3050 2419 3304 2112 
Q 3559 1806 3559 1356 
Q 3559 666 3084 287 
Q 2609 -91 1734 -91 
Q 1441 -91 1130 -33 
Q 819 25 488 141 
L 488 750 
Q 750 597 1062 519 
Q 1375 441 1716 441 
Q 2309 441 2620 675 
Q 2931 909 2931 1356 
Q 2931 1769 2642 2001 
Q 2353 2234 1838 2234 
L 1294 2234 
L 1294 2753 
L 1863 2753 
Q 2328 2753 2575 2939 
Q 2822 3125 2822 3475 
Q 2822 3834 2567 4026 
Q 2313 4219 1838 4219 
Q 1578 4219 1281 4162 
Q 984 4106 628 3988 
L 628 4550 
Q 988 4650 1302 4700 
Q 1616 4750 1894 4750 
Q 2613 4750 3031 4423 
Q 3450 4097 3450 3541 
Q 3450 3153 3228 2886 
Q 3006 2619 2597 2516 
z
" transform="scale(0.015625)"/>
       </defs>
       <use xlink:href="#DejaVuSans-52"/>
       <use xlink:href="#DejaVuSans-75" transform="translate(64.982422 0)"/>
       <use xlink:href="#DejaVuSans-6e" transform="translate(128.361328 0)"/>
       <use xlink:href="#DejaVuSans-20" transform="translate(191.740234 0)"/>
       <use xlink:href="#DejaVuSans-33" transform="translate(223.527344 0)"/>
      </g>
     </g>
    </g>
    <g id="ytick_3">
     <g id="line2d_31">
      <g>
       <use xlink:href="#m0b3bd76a5a" x="42.914062" y="182.754489" style="stroke: #000000; stroke-width: 0.8"/>
      </g>
     </g>
     <g id="text_13">
      <!-- Run 5 -->
      <g transform="translate(7.2 186.553707) scale(0.1 -0.1)">
       <use xlink:href="#DejaVuSans-52"/>
       <use xlink:href="#DejaVuSans-75" transform="translate(64.982422 0)"/>
       <use xlink:href="#DejaVuSans-6e" transform="translate(128.361328 0)"/>
       <use xlink:href="#DejaVuSans-20" transform="translate(191.740234 0)"/>
       <use xlink:href="#DejaVuSans-35" transform="translate(223.527344 0)"/>
      </g>
     </g>
    </g>
    <g id="ytick_4">
     <g id="line2d_32">
      <g>
       <use xlink:href="#m0b3bd76a5a" x="42.914062" y="162.699943" style="stroke: #000000; stroke-width: 0.8"/>
      </g>
     </g>
     <g id="text_14">
      <!-- Run 8 -->
      <g transform="translate(7.2 166.499162) scale(0.1 -0.1)">
       <defs>
        <path id="DejaVuSans-38" d="M 2034 2216 
Q 1584 2216 1326 1975 
Q 1069 1734 1069 1313 
Q 1069 891 1326 650 
Q 1584 409 2034 409 
Q 2484 409 2743 651 
Q 3003 894 3003 1313 
Q 3003 1734 2745 1975 
Q 2488 2216 2034 2216 
z
M 1403 2484 
Q 997 2584 770 2862 
Q 544 3141 544 3541 
Q 544 4100 942 4425 
Q 1341 4750 2034 4750 
Q 2731 4750 3128 4425 
Q 3525 4100 3525 3541 
Q 3525 3141 3298 2862 
Q 3072 2584 2669 2484 
Q 3125 2378 3379 2068 
Q 3634 1759 3634 1313 
Q 3634 634 3220 271 
Q 2806 -91 2034 -91 
Q 1263 -91 848 271 
Q 434 634 434 1313 
Q 434 1759 690 2068 
Q 947 2378 1403 2484 
z
M 1172 3481 
Q 1172 3119 1398 2916 
Q 1625 2713 2034 2713 
Q 2441 2713 2670 2916 
Q 2900 3119 2900 3481 
Q 2900 3844 2670 4047 
Q 2441 4250 2034 4250 
Q 1625 4250 1398 4047 
Q 1172 3844 1172 3481 
z
" transform="scale(0.015625)"/>
       </defs>
       <use xlink:href="#DejaVuSans-52"/>
       <use xlink:href="#DejaVuSans-75" transform="translate(64.982422 0)"/>
       <use xlink:href="#DejaVuSans-6e" transform="translate(128.361328 0)"/>
       <use xlink:href="#DejaVuSans-20" transform="translate(191.740234 0)"/>
       <use xlink:href="#DejaVuSans-38" transform="translate(223.527344 0)"/>
      </g>
     </g>
    </g>
    <g id="ytick_5">
     <g id="line2d_33">
      <g>
       <use xlink:href="#m0b3bd76a5a" x="42.914062" y="142.645398" style="stroke: #000000; stroke-width: 0.8"/>
      </g>
     </g>
     <g id="text_15">
      <!-- Run 2 -->
      <g transform="translate(7.2 146.444616) scale(0.1 -0.1)">
       <use xlink:href="#DejaVuSans-52"/>
       <use xlink:href="#DejaVuSans-75" transform="translate(64.982422 0)"/>
       <use xlink:href="#DejaVuSans-6e" transform="translate(128.361328 0)"/>
       <use xlink:href="#DejaVuSans-20" transform="translate(191.740234 0)"/>
       <use xlink:href="#DejaVuSans-32" transform="translate(223.527344 0)"/>
      </g>
     </g>
    </g>
    <g id="ytick_6">
     <g id="line2d_34">
      <g>
       <use xlink:href="#m0b3bd76a5a" x="42.914062" y="122.590852" style="stroke: #000000; stroke-width: 0.8"/>
      </g>
     </g>
     <g id="text_16">
      <!-- Run 1 -->
      <g transform="translate(7.2 126.390071) scale(0.1 -0.1)">
       <use xlink:href="#DejaVuSans-52"/>
       <use xlink:href="#DejaVuSans-75" transform="translate(64.982422 0)"/>
       <use xlink:href="#DejaVuSans-6e" transform="translate(128.361328 0)"/>
       <use xlink:href="#DejaVuSans-20" transform="translate(191.740234 0)"/>
       <use xlink:href="#DejaVuSans-31" transform="translate(223.527344 0)"/>
      </g>
     </g>
    </g>
    <g id="ytick_7">
     <g id="line2d_35">
      <g>
       <use xlink:href="#m0b3bd76a5a" x="42.914062" y="102.536307" style="stroke: #000000; stroke-width: 0.8"/>
      </g>
     </g>
     <g id="text_17">
      <!-- Run 7 -->
      <g transform="translate(7.2 106.335526) scale(0.1 -0.1)">
       <use xlink:href="#DejaVuSans-52"/>
       <use xlink:href="#DejaVuSans-75" transform="translate(64.982422 0)"/>
       <use xlink:href="#DejaVuSans-6e" transform="translate(128.361328 0)"/>
       <use xlink:href="#DejaVuSans-20" transform="translate(191.740234 0)"/>
       <use xlink:href="#DejaVuSans-37" transform="translate(223.527344 0)"/>
      </g>
     </g>
    </g>
    <g id="ytick_8">
     <g id="line2d_36">
      <g>
       <use xlink:href="#m0b3bd76a5a" x="42.914062" y="82.481761" style="stroke: #000000; stroke-width: 0.8"/>
      </g>
     </g>
     <g id="text_18">
      <!-- Run 9 -->
      <g transform="translate(7.2 86.28098) scale(0.1 -0.1)">
       <defs>
        <path id="DejaVuSans-39" d="M 703 97 
L 703 672 
Q 941 559 1184 500 
Q 1428 441 1663 441 
Q 2288 441 2617 861 
Q 2947 1281 2994 2138 
Q 2813 1869 2534 1725 
Q 2256 1581 1919 1581 
Q 1219 1581 811 2004 
Q 403 2428 403 3163 
Q 403 3881 828 4315 
Q 1253 4750 1959 4750 
Q 2769 4750 3195 4129 
Q 3622 3509 3622 2328 
Q 3622 1225 3098 567 
Q 2575 -91 1691 -91 
Q 1453 -91 1209 -44 
Q 966 3 703 97 
z
M 1959 2075 
Q 2384 2075 2632 2365 
Q 2881 2656 2881 3163 
Q 2881 3666 2632 3958 
Q 2384 4250 1959 4250 
Q 1534 4250 1286 3958 
Q 1038 3666 1038 3163 
Q 1038 2656 1286 2365 
Q 1534 2075 1959 2075 
z
" transform="scale(0.015625)"/>
       </defs>
       <use xlink:href="#DejaVuSans-52"/>
       <use xlink:href="#DejaVuSans-75" transform="translate(64.982422 0)"/>
       <use xlink:href="#DejaVuSans-6e" transform="translate(128.361328 0)"/>
       <use xlink:href="#DejaVuSans-20" transform="translate(191.740234 0)"/>
       <use xlink:href="#DejaVuSans-39" transform="translate(223.527344 0)"/>
      </g>
     </g>
    </g>
    <g id="ytick_9">
     <g id="line2d_37">
      <g>
       <use xlink:href="#m0b3bd76a5a" x="42.914062" y="62.427216" style="stroke: #000000; stroke-width: 0.8"/>
      </g>
     </g>
     <g id="text_19">
      <!-- Run 4 -->
      <g transform="translate(7.2 66.226435) scale(0.1 -0.1)">
       <defs>
        <path id="DejaVuSans-34" d="M 2419 4116 
L 825 1625 
L 2419 1625 
L 2419 4116 
z
M 2253 4666 
L 3047 4666 
L 3047 1625 
L 3713 1625 
L 3713 1100 
L 3047 1100 
L 3047 0 
L 2419 0 
L 2419 1100 
L 313 1100 
L 313 1709 
L 2253 4666 
z
" transform="scale(0.015625)"/>
       </defs>
       <use xlink:href="#DejaVuSans-52"/>
       <use xlink:href="#DejaVuSans-75" transform="translate(64.982422 0)"/>
       <use xlink:href="#DejaVuSans-6e" transform="translate(128.361328 0)"/>
       <use xlink:href="#DejaVuSans-20" transform="translate(191.740234 0)"/>
       <use xlink:href="#DejaVuSans-34" transform="translate(223.527344 0)"/>
      </g>
     </g>
    </g>
    <g id="ytick_10">
     <g id="line2d_38">
      <g>
       <use xlink:href="#m0b3bd76a5a" x="42.914062" y="42.37267" style="stroke: #000000; stroke-width: 0.8"/>
      </g>
     </g>
     <g id="text_20">
      <!-- Run 6 -->
      <g transform="translate(7.2 46.171889) scale(0.1 -0.1)">
       <defs>
        <path id="DejaVuSans-36" d="M 2113 2584 
Q 1688 2584 1439 2293 
Q 1191 2003 1191 1497 
Q 1191 994 1439 701 
Q 1688 409 2113 409 
Q 2538 409 2786 701 
Q 3034 994 3034 1497 
Q 3034 2003 2786 2293 
Q 2538 2584 2113 2584 
z
M 3366 4563 
L 3366 3988 
Q 3128 4100 2886 4159 
Q 2644 4219 2406 4219 
Q 1781 4219 1451 3797 
Q 1122 3375 1075 2522 
Q 1259 2794 1537 2939 
Q 1816 3084 2150 3084 
Q 2853 3084 3261 2657 
Q 3669 2231 3669 1497 
Q 3669 778 3244 343 
Q 2819 -91 2113 -91 
Q 1303 -91 875 529 
Q 447 1150 447 2328 
Q 447 3434 972 4092 
Q 1497 4750 2381 4750 
Q 2619 4750 2861 4703 
Q 3103 4656 3366 4563 
z
" transform="scale(0.015625)"/>
       </defs>
       <use xlink:href="#DejaVuSans-52"/>
       <use xlink:href="#DejaVuSans-75" transform="translate(64.982422 0)"/>
       <use xlink:href="#DejaVuSans-6e" transform="translate(128.361328 0)"/>
       <use xlink:href="#DejaVuSans-20" transform="translate(191.740234 0)"/>
       <use xlink:href="#DejaVuSans-36" transform="translate(223.527344 0)"/>
      </g>
     </g>
    </g>
   </g>
   <g id="patch_3">
    <path d="M 118.935142 222.86358 
L 114.444777 225.871761 
L 114.444777 224.869034 
L 111.451201 224.869034 
L 111.451201 220.858125 
L 114.444777 220.858125 
L 114.444777 219.855398 
z
" clip-path="url(#pfd5f13118a)" style="fill: #0000ff; stroke: #0000ff; stroke-linejoin: miter"/>
   </g>
   <g id="patch_4">
    <path d="M 197.31957 222.86358 
L 192.829206 225.871761 
L 192.829206 224.869034 
L 189.83563 224.869034 
L 189.83563 220.858125 
L 192.829206 220.858125 
L 192.829206 219.855398 
z
" clip-path="url(#pfd5f13118a)" style="fill: #0000ff; stroke: #0000ff; stroke-linejoin: miter"/>
   </g>
   <g id="patch_5">
    <path d="M 204.015728 222.86358 
L 208.506092 219.855398 
L 208.506092 220.858125 
L 211.499668 220.858125 
L 211.499668 224.869034 
L 208.506092 224.869034 
L 208.506092 225.871761 
z
" clip-path="url(#pfd5f13118a)" style="fill: #ff0000; stroke: #ff0000; stroke-linejoin: miter"/>
   </g>
   <g id="patch_6">
    <path d="M 237.102622 222.86358 
L 241.592986 219.855398 
L 241.592986 220.858125 
L 244.586563 220.858125 
L 244.586563 224.869034 
L 241.592986 224.869034 
L 241.592986 225.871761 
z
" clip-path="url(#pfd5f13118a)" style="fill: #ff0000; stroke: #ff0000; stroke-linejoin: miter"/>
   </g>
   <g id="patch_7">
    <path d="M 282.006265 222.86358 
L 277.5159 225.871761 
L 277.5159 224.869034 
L 274.522324 224.869034 
L 274.522324 220.858125 
L 277.5159 220.858125 
L 277.5159 219.855398 
z
" clip-path="url(#pfd5f13118a)" style="fill: #0000ff; stroke: #0000ff; stroke-linejoin: miter"/>
   </g>
   <g id="patch_8">
    <path d="M 445.865171 222.86358 
L 450.355535 219.855398 
L 450.355535 220.858125 
L 453.349111 220.858125 
L 453.349111 224.869034 
L 450.355535 224.869034 
L 450.355535 225.871761 
z
" clip-path="url(#pfd5f13118a)" style="fill: #ff0000; stroke: #ff0000; stroke-linejoin: miter"/>
   </g>
   <g id="patch_9">
    <path d="M 495.495513 222.86358 
L 499.985877 219.855398 
L 499.985877 220.858125 
L 502.979453 220.858125 
L 502.979453 224.869034 
L 499.985877 224.869034 
L 499.985877 225.871761 
z
" clip-path="url(#pfd5f13118a)" style="fill: #ff0000; stroke: #ff0000; stroke-linejoin: miter"/>
   </g>
   <g id="patch_10">
    <path d="M 672.746733 222.86358 
L 668.256369 225.871761 
L 668.256369 224.869034 
L 665.262793 224.869034 
L 665.262793 220.858125 
L 668.256369 220.858125 
L 668.256369 219.855398 
z
" clip-path="url(#pfd5f13118a)" style="fill: #0000ff; stroke: #0000ff; stroke-linejoin: miter"/>
   </g>
   <g id="patch_11">
    <path d="M 687.714614 222.86358 
L 692.204979 219.855398 
L 692.204979 220.858125 
L 695.198555 220.858125 
L 695.198555 224.869034 
L 692.204979 224.869034 
L 692.204979 225.871761 
z
" clip-path="url(#pfd5f13118a)" style="fill: #ff0000; stroke: #ff0000; stroke-linejoin: miter"/>
   </g>
   <g id="patch_12">
    <path d="M 718.832051 222.86358 
L 723.322415 219.855398 
L 723.322415 220.858125 
L 726.315991 220.858125 
L 726.315991 224.869034 
L 723.322415 224.869034 
L 723.322415 225.871761 
z
" clip-path="url(#pfd5f13118a)" style="fill: #ff0000; stroke: #ff0000; stroke-linejoin: miter"/>
   </g>
   <g id="patch_13">
    <path d="M 99.240562 122.590852 
L 103.730926 119.58267 
L 103.730926 120.585398 
L 106.724502 120.585398 
L 106.724502 124.596307 
L 103.730926 124.596307 
L 103.730926 125.599034 
z
" clip-path="url(#pfd5f13118a)" style="fill: #ff0000; stroke: #ff0000; stroke-linejoin: miter"/>
   </g>
   <g id="patch_14">
    <path d="M 199.68292 122.590852 
L 195.192556 125.599034 
L 195.192556 124.596307 
L 192.198979 124.596307 
L 192.198979 120.585398 
L 195.192556 120.585398 
L 195.192556 119.58267 
z
" clip-path="url(#pfd5f13118a)" style="fill: #0000ff; stroke: #0000ff; stroke-linejoin: miter"/>
   </g>
   <g id="patch_15">
    <path d="M 223.316416 122.590852 
L 218.826052 125.599034 
L 218.826052 124.596307 
L 215.832476 124.596307 
L 215.832476 120.585398 
L 218.826052 120.585398 
L 218.826052 119.58267 
z
" clip-path="url(#pfd5f13118a)" style="fill: #0000ff; stroke: #0000ff; stroke-linejoin: miter"/>
   </g>
   <g id="patch_16">
    <path d="M 256.009419 122.590852 
L 251.519055 125.599034 
L 251.519055 124.596307 
L 248.525479 124.596307 
L 248.525479 120.585398 
L 251.519055 120.585398 
L 251.519055 119.58267 
z
" clip-path="url(#pfd5f13118a)" style="fill: #0000ff; stroke: #0000ff; stroke-linejoin: miter"/>
   </g>
   <g id="patch_17">
    <path d="M 397.416504 122.590852 
L 401.906868 119.58267 
L 401.906868 120.585398 
L 404.900444 120.585398 
L 404.900444 124.596307 
L 401.906868 124.596307 
L 401.906868 125.599034 
z
" clip-path="url(#pfd5f13118a)" style="fill: #ff0000; stroke: #ff0000; stroke-linejoin: miter"/>
   </g>
   <g id="patch_18">
    <path d="M 429.715615 122.590852 
L 434.205979 119.58267 
L 434.205979 120.585398 
L 437.199556 120.585398 
L 437.199556 124.596307 
L 434.205979 124.596307 
L 434.205979 125.599034 
z
" clip-path="url(#pfd5f13118a)" style="fill: #ff0000; stroke: #ff0000; stroke-linejoin: miter"/>
   </g>
   <g id="patch_19">
    <path d="M 644.386538 122.590852 
L 639.896174 125.599034 
L 639.896174 124.596307 
L 636.902598 124.596307 
L 636.902598 120.585398 
L 639.896174 120.585398 
L 639.896174 119.58267 
z
" clip-path="url(#pfd5f13118a)" style="fill: #0000ff; stroke: #0000ff; stroke-linejoin: miter"/>
   </g>
   <g id="patch_20">
    <path d="M 659.354419 122.590852 
L 663.844783 119.58267 
L 663.844783 120.585398 
L 666.838359 120.585398 
L 666.838359 124.596307 
L 663.844783 124.596307 
L 663.844783 125.599034 
z
" clip-path="url(#pfd5f13118a)" style="fill: #ff0000; stroke: #ff0000; stroke-linejoin: miter"/>
   </g>
   <g id="patch_21">
    <path d="M 675.110083 122.590852 
L 670.619719 125.599034 
L 670.619719 124.596307 
L 667.626143 124.596307 
L 667.626143 120.585398 
L 670.619719 120.585398 
L 670.619719 119.58267 
z
" clip-path="url(#pfd5f13118a)" style="fill: #0000ff; stroke: #0000ff; stroke-linejoin: miter"/>
   </g>
   <g id="patch_22">
    <path d="M 687.714614 122.590852 
L 692.204979 119.58267 
L 692.204979 120.585398 
L 695.198555 120.585398 
L 695.198555 124.596307 
L 692.204979 124.596307 
L 692.204979 125.599034 
z
" clip-path="url(#pfd5f13118a)" style="fill: #ff0000; stroke: #ff0000; stroke-linejoin: miter"/>
   </g>
   <g id="patch_23">
    <path d="M 718.832051 122.590852 
L 723.322415 119.58267 
L 723.322415 120.585398 
L 726.315991 120.585398 
L 726.315991 124.596307 
L 723.322415 124.596307 
L 723.322415 125.599034 
z
" clip-path="url(#pfd5f13118a)" style="fill: #ff0000; stroke: #ff0000; stroke-linejoin: miter"/>
   </g>
   <g id="patch_24">
    <path d="M 114.996226 142.645398 
L 110.505861 145.65358 
L 110.505861 144.650852 
L 107.512285 144.650852 
L 107.512285 140.639943 
L 110.505861 140.639943 
L 110.505861 139.637216 
z
" clip-path="url(#pfd5f13118a)" style="fill: #0000ff; stroke: #0000ff; stroke-linejoin: miter"/>
   </g>
   <g id="patch_25">
    <path d="M 134.296914 142.645398 
L 129.80655 145.65358 
L 129.80655 144.650852 
L 126.812974 144.650852 
L 126.812974 140.639943 
L 129.80655 140.639943 
L 129.80655 139.637216 
z
" clip-path="url(#pfd5f13118a)" style="fill: #0000ff; stroke: #0000ff; stroke-linejoin: miter"/>
   </g>
   <g id="patch_26">
    <path d="M 236.314839 142.645398 
L 231.824475 145.65358 
L 231.824475 144.650852 
L 228.830898 144.650852 
L 228.830898 140.639943 
L 231.824475 140.639943 
L 231.824475 139.637216 
z
" clip-path="url(#pfd5f13118a)" style="fill: #0000ff; stroke: #0000ff; stroke-linejoin: miter"/>
   </g>
   <g id="patch_27">
    <path d="M 413.56606 142.645398 
L 409.075695 145.65358 
L 409.075695 144.650852 
L 406.082119 144.650852 
L 406.082119 140.639943 
L 409.075695 140.639943 
L 409.075695 139.637216 
z
" clip-path="url(#pfd5f13118a)" style="fill: #0000ff; stroke: #0000ff; stroke-linejoin: miter"/>
   </g>
   <g id="patch_28">
    <path d="M 429.715615 142.645398 
L 434.205979 139.637216 
L 434.205979 140.639943 
L 437.199556 140.639943 
L 437.199556 144.650852 
L 434.205979 144.650852 
L 434.205979 145.65358 
z
" clip-path="url(#pfd5f13118a)" style="fill: #ff0000; stroke: #ff0000; stroke-linejoin: miter"/>
   </g>
   <g id="patch_29">
    <path d="M 507.312261 142.645398 
L 502.821896 145.65358 
L 502.821896 144.650852 
L 499.82832 144.650852 
L 499.82832 140.639943 
L 502.821896 140.639943 
L 502.821896 139.637216 
z
" clip-path="url(#pfd5f13118a)" style="fill: #0000ff; stroke: #0000ff; stroke-linejoin: miter"/>
   </g>
   <g id="patch_30">
    <path d="M 643.598755 142.645398 
L 639.108391 145.65358 
L 639.108391 144.650852 
L 636.114814 144.650852 
L 636.114814 140.639943 
L 639.108391 140.639943 
L 639.108391 139.637216 
z
" clip-path="url(#pfd5f13118a)" style="fill: #0000ff; stroke: #0000ff; stroke-linejoin: miter"/>
   </g>
   <g id="patch_31">
    <path d="M 655.415503 142.645398 
L 659.905867 139.637216 
L 659.905867 140.639943 
L 662.899443 140.639943 
L 662.899443 144.650852 
L 659.905867 144.650852 
L 659.905867 145.65358 
z
" clip-path="url(#pfd5f13118a)" style="fill: #ff0000; stroke: #ff0000; stroke-linejoin: miter"/>
   </g>
   <g id="patch_32">
    <path d="M 687.714614 142.645398 
L 692.204979 139.637216 
L 692.204979 140.639943 
L 695.198555 140.639943 
L 695.198555 144.650852 
L 692.204979 144.650852 
L 692.204979 145.65358 
z
" clip-path="url(#pfd5f13118a)" style="fill: #ff0000; stroke: #ff0000; stroke-linejoin: miter"/>
   </g>
   <g id="patch_33">
    <path d="M 87.029922 202.809034 
L 82.539558 205.817216 
L 82.539558 204.814489 
L 79.545981 204.814489 
L 79.545981 200.80358 
L 82.539558 200.80358 
L 82.539558 199.800852 
z
" clip-path="url(#pfd5f13118a)" style="fill: #0000ff; stroke: #0000ff; stroke-linejoin: miter"/>
   </g>
   <g id="patch_34">
    <path d="M 201.258486 202.809034 
L 196.768122 205.817216 
L 196.768122 204.814489 
L 193.774546 204.814489 
L 193.774546 200.80358 
L 196.768122 200.80358 
L 196.768122 199.800852 
z
" clip-path="url(#pfd5f13118a)" style="fill: #0000ff; stroke: #0000ff; stroke-linejoin: miter"/>
   </g>
   <g id="patch_35">
    <path d="M 213.863018 202.809034 
L 218.353382 199.800852 
L 218.353382 200.80358 
L 221.346958 200.80358 
L 221.346958 204.814489 
L 218.353382 204.814489 
L 218.353382 205.817216 
z
" clip-path="url(#pfd5f13118a)" style="fill: #ff0000; stroke: #ff0000; stroke-linejoin: miter"/>
   </g>
   <g id="patch_36">
    <path d="M 261.523901 202.809034 
L 257.033537 205.817216 
L 257.033537 204.814489 
L 254.039961 204.814489 
L 254.039961 200.80358 
L 257.033537 200.80358 
L 257.033537 199.800852 
z
" clip-path="url(#pfd5f13118a)" style="fill: #0000ff; stroke: #0000ff; stroke-linejoin: miter"/>
   </g>
   <g id="patch_37">
    <path d="M 274.916216 202.809034 
L 279.40658 199.800852 
L 279.40658 200.80358 
L 282.400156 200.80358 
L 282.400156 204.814489 
L 279.40658 204.814489 
L 279.40658 205.817216 
z
" clip-path="url(#pfd5f13118a)" style="fill: #ff0000; stroke: #ff0000; stroke-linejoin: miter"/>
   </g>
   <g id="patch_38">
    <path d="M 291.065771 202.809034 
L 286.575407 205.817216 
L 286.575407 204.814489 
L 283.581831 204.814489 
L 283.581831 200.80358 
L 286.575407 200.80358 
L 286.575407 199.800852 
z
" clip-path="url(#pfd5f13118a)" style="fill: #0000ff; stroke: #0000ff; stroke-linejoin: miter"/>
   </g>
   <g id="patch_39">
    <path d="M 413.56606 202.809034 
L 409.075695 205.817216 
L 409.075695 204.814489 
L 406.082119 204.814489 
L 406.082119 200.80358 
L 409.075695 200.80358 
L 409.075695 199.800852 
z
" clip-path="url(#pfd5f13118a)" style="fill: #0000ff; stroke: #0000ff; stroke-linejoin: miter"/>
   </g>
   <g id="patch_40">
    <path d="M 426.564482 202.809034 
L 431.054847 199.800852 
L 431.054847 200.80358 
L 434.048423 200.80358 
L 434.048423 204.814489 
L 431.054847 204.814489 
L 431.054847 205.817216 
z
" clip-path="url(#pfd5f13118a)" style="fill: #ff0000; stroke: #ff0000; stroke-linejoin: miter"/>
   </g>
   <g id="patch_41">
    <path d="M 672.746733 202.809034 
L 668.256369 205.817216 
L 668.256369 204.814489 
L 665.262793 204.814489 
L 665.262793 200.80358 
L 668.256369 200.80358 
L 668.256369 199.800852 
z
" clip-path="url(#pfd5f13118a)" style="fill: #0000ff; stroke: #0000ff; stroke-linejoin: miter"/>
   </g>
   <g id="patch_42">
    <path d="M 687.714614 202.809034 
L 692.204979 199.800852 
L 692.204979 200.80358 
L 695.198555 200.80358 
L 695.198555 204.814489 
L 692.204979 204.814489 
L 692.204979 205.817216 
z
" clip-path="url(#pfd5f13118a)" style="fill: #ff0000; stroke: #ff0000; stroke-linejoin: miter"/>
   </g>
   <g id="patch_43">
    <path d="M 712.135894 202.809034 
L 716.626258 199.800852 
L 716.626258 200.80358 
L 719.619834 200.80358 
L 719.619834 204.814489 
L 716.626258 204.814489 
L 716.626258 205.817216 
z
" clip-path="url(#pfd5f13118a)" style="fill: #ff0000; stroke: #ff0000; stroke-linejoin: miter"/>
   </g>
   <g id="patch_44">
    <path d="M 253.252178 62.427216 
L 248.761813 65.435398 
L 248.761813 64.43267 
L 245.768237 64.43267 
L 245.768237 60.421761 
L 248.761813 60.421761 
L 248.761813 59.419034 
z
" clip-path="url(#pfd5f13118a)" style="fill: #0000ff; stroke: #0000ff; stroke-linejoin: miter"/>
   </g>
   <g id="patch_45">
    <path d="M 406.476011 62.427216 
L 410.966375 59.419034 
L 410.966375 60.421761 
L 413.959951 60.421761 
L 413.959951 64.43267 
L 410.966375 64.43267 
L 410.966375 65.435398 
z
" clip-path="url(#pfd5f13118a)" style="fill: #ff0000; stroke: #ff0000; stroke-linejoin: miter"/>
   </g>
   <g id="patch_46">
    <path d="M 422.231675 62.427216 
L 417.741311 65.435398 
L 417.741311 64.43267 
L 414.747734 64.43267 
L 414.747734 60.421761 
L 417.741311 60.421761 
L 417.741311 59.419034 
z
" clip-path="url(#pfd5f13118a)" style="fill: #0000ff; stroke: #0000ff; stroke-linejoin: miter"/>
   </g>
   <g id="patch_47">
    <path d="M 430.89729 62.427216 
L 435.387654 59.419034 
L 435.387654 60.421761 
L 438.38123 60.421761 
L 438.38123 64.43267 
L 435.387654 64.43267 
L 435.387654 65.435398 
z
" clip-path="url(#pfd5f13118a)" style="fill: #ff0000; stroke: #ff0000; stroke-linejoin: miter"/>
   </g>
   <g id="patch_48">
    <path d="M 460.833052 62.427216 
L 465.323416 59.419034 
L 465.323416 60.421761 
L 468.316992 60.421761 
L 468.316992 64.43267 
L 465.323416 64.43267 
L 465.323416 65.435398 
z
" clip-path="url(#pfd5f13118a)" style="fill: #ff0000; stroke: #ff0000; stroke-linejoin: miter"/>
   </g>
   <g id="patch_49">
    <path d="M 634.93314 62.427216 
L 639.423504 59.419034 
L 639.423504 60.421761 
L 642.41708 60.421761 
L 642.41708 64.43267 
L 639.423504 64.43267 
L 639.423504 65.435398 
z
" clip-path="url(#pfd5f13118a)" style="fill: #ff0000; stroke: #ff0000; stroke-linejoin: miter"/>
   </g>
   <g id="patch_50">
    <path d="M 687.714614 62.427216 
L 692.204979 59.419034 
L 692.204979 60.421761 
L 695.198555 60.421761 
L 695.198555 64.43267 
L 692.204979 64.43267 
L 692.204979 65.435398 
z
" clip-path="url(#pfd5f13118a)" style="fill: #ff0000; stroke: #ff0000; stroke-linejoin: miter"/>
   </g>
   <g id="patch_51">
    <path d="M 237.102622 182.754489 
L 241.592986 179.746307 
L 241.592986 180.749034 
L 244.586563 180.749034 
L 244.586563 184.759943 
L 241.592986 184.759943 
L 241.592986 185.76267 
z
" clip-path="url(#pfd5f13118a)" style="fill: #ff0000; stroke: #ff0000; stroke-linejoin: miter"/>
   </g>
   <g id="patch_52">
    <path d="M 282.006265 182.754489 
L 277.5159 185.76267 
L 277.5159 184.759943 
L 274.522324 184.759943 
L 274.522324 180.749034 
L 277.5159 180.749034 
L 277.5159 179.746307 
z
" clip-path="url(#pfd5f13118a)" style="fill: #0000ff; stroke: #0000ff; stroke-linejoin: miter"/>
   </g>
   <g id="patch_53">
    <path d="M 340.696113 182.754489 
L 336.205749 185.76267 
L 336.205749 184.759943 
L 333.212173 184.759943 
L 333.212173 180.749034 
L 336.205749 180.749034 
L 336.205749 179.746307 
z
" clip-path="url(#pfd5f13118a)" style="fill: #0000ff; stroke: #0000ff; stroke-linejoin: miter"/>
   </g>
   <g id="patch_54">
    <path d="M 495.495513 182.754489 
L 499.985877 179.746307 
L 499.985877 180.749034 
L 502.979453 180.749034 
L 502.979453 184.759943 
L 499.985877 184.759943 
L 499.985877 185.76267 
z
" clip-path="url(#pfd5f13118a)" style="fill: #ff0000; stroke: #ff0000; stroke-linejoin: miter"/>
   </g>
   <g id="patch_55">
    <path d="M 523.461816 182.754489 
L 527.952181 179.746307 
L 527.952181 180.749034 
L 530.945757 180.749034 
L 530.945757 184.759943 
L 527.952181 184.759943 
L 527.952181 185.76267 
z
" clip-path="url(#pfd5f13118a)" style="fill: #ff0000; stroke: #ff0000; stroke-linejoin: miter"/>
   </g>
   <g id="patch_56">
    <path d="M 732.618257 182.754489 
L 737.108621 179.746307 
L 737.108621 180.749034 
L 740.102197 180.749034 
L 740.102197 184.759943 
L 737.108621 184.759943 
L 737.108621 185.76267 
z
" clip-path="url(#pfd5f13118a)" style="fill: #ff0000; stroke: #ff0000; stroke-linejoin: miter"/>
   </g>
   <g id="patch_57">
    <path d="M 757.039536 182.754489 
L 761.5299 179.746307 
L 761.5299 180.749034 
L 764.523477 180.749034 
L 764.523477 184.759943 
L 761.5299 184.759943 
L 761.5299 185.76267 
z
" clip-path="url(#pfd5f13118a)" style="fill: #ff0000; stroke: #ff0000; stroke-linejoin: miter"/>
   </g>
   <g id="patch_58">
    <path d="M 790.914214 182.754489 
L 795.404578 179.746307 
L 795.404578 180.749034 
L 798.398154 180.749034 
L 798.398154 184.759943 
L 795.404578 184.759943 
L 795.404578 185.76267 
z
" clip-path="url(#pfd5f13118a)" style="fill: #ff0000; stroke: #ff0000; stroke-linejoin: miter"/>
   </g>
   <g id="patch_59">
    <path d="M 223.316416 42.37267 
L 218.826052 45.380852 
L 218.826052 44.378125 
L 215.832476 44.378125 
L 215.832476 40.367216 
L 218.826052 40.367216 
L 218.826052 39.364489 
z
" clip-path="url(#pfd5f13118a)" style="fill: #0000ff; stroke: #0000ff; stroke-linejoin: miter"/>
   </g>
   <g id="patch_60">
    <path d="M 250.888828 42.37267 
L 246.398464 45.380852 
L 246.398464 44.378125 
L 243.404888 44.378125 
L 243.404888 40.367216 
L 246.398464 40.367216 
L 246.398464 39.364489 
z
" clip-path="url(#pfd5f13118a)" style="fill: #0000ff; stroke: #0000ff; stroke-linejoin: miter"/>
   </g>
   <g id="patch_61">
    <path d="M 413.56606 42.37267 
L 409.075695 45.380852 
L 409.075695 44.378125 
L 406.082119 44.378125 
L 406.082119 40.367216 
L 409.075695 40.367216 
L 409.075695 39.364489 
z
" clip-path="url(#pfd5f13118a)" style="fill: #0000ff; stroke: #0000ff; stroke-linejoin: miter"/>
   </g>
   <g id="patch_62">
    <path d="M 430.503398 42.37267 
L 434.993763 39.364489 
L 434.993763 40.367216 
L 437.987339 40.367216 
L 437.987339 44.378125 
L 434.993763 44.378125 
L 434.993763 45.380852 
z
" clip-path="url(#pfd5f13118a)" style="fill: #ff0000; stroke: #ff0000; stroke-linejoin: miter"/>
   </g>
   <g id="patch_63">
    <path d="M 518.341226 42.37267 
L 513.850861 45.380852 
L 513.850861 44.378125 
L 510.857285 44.378125 
L 510.857285 40.367216 
L 513.850861 40.367216 
L 513.850861 39.364489 
z
" clip-path="url(#pfd5f13118a)" style="fill: #0000ff; stroke: #0000ff; stroke-linejoin: miter"/>
   </g>
   <g id="patch_64">
    <path d="M 661.323877 42.37267 
L 665.814241 39.364489 
L 665.814241 40.367216 
L 668.807817 40.367216 
L 668.807817 44.378125 
L 665.814241 44.378125 
L 665.814241 45.380852 
z
" clip-path="url(#pfd5f13118a)" style="fill: #ff0000; stroke: #ff0000; stroke-linejoin: miter"/>
   </g>
   <g id="patch_65">
    <path d="M 687.714614 42.37267 
L 692.204979 39.364489 
L 692.204979 40.367216 
L 695.198555 40.367216 
L 695.198555 44.378125 
L 692.204979 44.378125 
L 692.204979 45.380852 
z
" clip-path="url(#pfd5f13118a)" style="fill: #ff0000; stroke: #ff0000; stroke-linejoin: miter"/>
   </g>
   <g id="patch_66">
    <path d="M 715.287026 42.37267 
L 719.777391 39.364489 
L 719.777391 40.367216 
L 722.770967 40.367216 
L 722.770967 44.378125 
L 719.777391 44.378125 
L 719.777391 45.380852 
z
" clip-path="url(#pfd5f13118a)" style="fill: #ff0000; stroke: #ff0000; stroke-linejoin: miter"/>
   </g>
   <g id="patch_67">
    <path d="M 256.797202 102.536307 
L 252.306838 105.544489 
L 252.306838 104.541761 
L 249.313262 104.541761 
L 249.313262 100.530852 
L 252.306838 100.530852 
L 252.306838 99.528125 
z
" clip-path="url(#pfd5f13118a)" style="fill: #0000ff; stroke: #0000ff; stroke-linejoin: miter"/>
   </g>
   <g id="patch_68">
    <path d="M 290.277988 102.536307 
L 285.787624 105.544489 
L 285.787624 104.541761 
L 282.794048 104.541761 
L 282.794048 100.530852 
L 285.787624 100.530852 
L 285.787624 99.528125 
z
" clip-path="url(#pfd5f13118a)" style="fill: #0000ff; stroke: #0000ff; stroke-linejoin: miter"/>
   </g>
   <g id="patch_69">
    <path d="M 397.416504 102.536307 
L 401.906868 99.528125 
L 401.906868 100.530852 
L 404.900444 100.530852 
L 404.900444 104.541761 
L 401.906868 104.541761 
L 401.906868 105.544489 
z
" clip-path="url(#pfd5f13118a)" style="fill: #ff0000; stroke: #ff0000; stroke-linejoin: miter"/>
   </g>
   <g id="patch_70">
    <path d="M 431.291182 102.536307 
L 435.781546 99.528125 
L 435.781546 100.530852 
L 438.775122 100.530852 
L 438.775122 104.541761 
L 435.781546 104.541761 
L 435.781546 105.544489 
z
" clip-path="url(#pfd5f13118a)" style="fill: #ff0000; stroke: #ff0000; stroke-linejoin: miter"/>
   </g>
   <g id="patch_71">
    <path d="M 483.284873 102.536307 
L 478.794509 105.544489 
L 478.794509 104.541761 
L 475.800933 104.541761 
L 475.800933 100.530852 
L 478.794509 100.530852 
L 478.794509 99.528125 
z
" clip-path="url(#pfd5f13118a)" style="fill: #0000ff; stroke: #0000ff; stroke-linejoin: miter"/>
   </g>
   <g id="patch_72">
    <path d="M 634.93314 102.536307 
L 639.423504 99.528125 
L 639.423504 100.530852 
L 642.41708 100.530852 
L 642.41708 104.541761 
L 639.423504 104.541761 
L 639.423504 105.544489 
z
" clip-path="url(#pfd5f13118a)" style="fill: #ff0000; stroke: #ff0000; stroke-linejoin: miter"/>
   </g>
   <g id="patch_73">
    <path d="M 655.415503 102.536307 
L 659.905867 99.528125 
L 659.905867 100.530852 
L 662.899443 100.530852 
L 662.899443 104.541761 
L 659.905867 104.541761 
L 659.905867 105.544489 
z
" clip-path="url(#pfd5f13118a)" style="fill: #ff0000; stroke: #ff0000; stroke-linejoin: miter"/>
   </g>
   <g id="patch_74">
    <path d="M 671.171167 102.536307 
L 666.680803 105.544489 
L 666.680803 104.541761 
L 663.687227 104.541761 
L 663.687227 100.530852 
L 666.680803 100.530852 
L 666.680803 99.528125 
z
" clip-path="url(#pfd5f13118a)" style="fill: #0000ff; stroke: #0000ff; stroke-linejoin: miter"/>
   </g>
   <g id="patch_75">
    <path d="M 687.714614 102.536307 
L 692.204979 99.528125 
L 692.204979 100.530852 
L 695.198555 100.530852 
L 695.198555 104.541761 
L 692.204979 104.541761 
L 692.204979 105.544489 
z
" clip-path="url(#pfd5f13118a)" style="fill: #ff0000; stroke: #ff0000; stroke-linejoin: miter"/>
   </g>
   <g id="patch_76">
    <path d="M 736.163281 102.536307 
L 740.653646 99.528125 
L 740.653646 100.530852 
L 743.647222 100.530852 
L 743.647222 104.541761 
L 740.653646 104.541761 
L 740.653646 105.544489 
z
" clip-path="url(#pfd5f13118a)" style="fill: #ff0000; stroke: #ff0000; stroke-linejoin: miter"/>
   </g>
   <g id="patch_77">
    <path d="M 86.63603 162.699943 
L 82.145666 165.708125 
L 82.145666 164.705398 
L 79.15209 164.705398 
L 79.15209 160.694489 
L 82.145666 160.694489 
L 82.145666 159.691761 
z
" clip-path="url(#pfd5f13118a)" style="fill: #0000ff; stroke: #0000ff; stroke-linejoin: miter"/>
   </g>
   <g id="patch_78">
    <path d="M 237.102622 162.699943 
L 241.592986 159.691761 
L 241.592986 160.694489 
L 244.586563 160.694489 
L 244.586563 164.705398 
L 241.592986 164.705398 
L 241.592986 165.708125 
z
" clip-path="url(#pfd5f13118a)" style="fill: #ff0000; stroke: #ff0000; stroke-linejoin: miter"/>
   </g>
   <g id="patch_79">
    <path d="M 289.096313 162.699943 
L 284.605949 165.708125 
L 284.605949 164.705398 
L 281.612373 164.705398 
L 281.612373 160.694489 
L 284.605949 160.694489 
L 284.605949 159.691761 
z
" clip-path="url(#pfd5f13118a)" style="fill: #0000ff; stroke: #0000ff; stroke-linejoin: miter"/>
   </g>
   <g id="patch_80">
    <path d="M 449.804087 162.699943 
L 445.313723 165.708125 
L 445.313723 164.705398 
L 442.320146 164.705398 
L 442.320146 160.694489 
L 445.313723 160.694489 
L 445.313723 159.691761 
z
" clip-path="url(#pfd5f13118a)" style="fill: #0000ff; stroke: #0000ff; stroke-linejoin: miter"/>
   </g>
   <g id="patch_81">
    <path d="M 462.408618 162.699943 
L 466.898982 159.691761 
L 466.898982 160.694489 
L 469.892559 160.694489 
L 469.892559 164.705398 
L 466.898982 164.705398 
L 466.898982 165.708125 
z
" clip-path="url(#pfd5f13118a)" style="fill: #ff0000; stroke: #ff0000; stroke-linejoin: miter"/>
   </g>
   <g id="patch_82">
    <path d="M 495.495513 162.699943 
L 499.985877 159.691761 
L 499.985877 160.694489 
L 502.979453 160.694489 
L 502.979453 164.705398 
L 499.985877 164.705398 
L 499.985877 165.708125 
z
" clip-path="url(#pfd5f13118a)" style="fill: #ff0000; stroke: #ff0000; stroke-linejoin: miter"/>
   </g>
   <g id="patch_83">
    <path d="M 701.894712 162.699943 
L 706.385076 159.691761 
L 706.385076 160.694489 
L 709.378652 160.694489 
L 709.378652 164.705398 
L 706.385076 164.705398 
L 706.385076 165.708125 
z
" clip-path="url(#pfd5f13118a)" style="fill: #ff0000; stroke: #ff0000; stroke-linejoin: miter"/>
   </g>
   <g id="patch_84">
    <path d="M 733.012148 162.699943 
L 737.502513 159.691761 
L 737.502513 160.694489 
L 740.496089 160.694489 
L 740.496089 164.705398 
L 737.502513 164.705398 
L 737.502513 165.708125 
z
" clip-path="url(#pfd5f13118a)" style="fill: #ff0000; stroke: #ff0000; stroke-linejoin: miter"/>
   </g>
   <g id="patch_85">
    <path d="M 759.796777 162.699943 
L 764.287142 159.691761 
L 764.287142 160.694489 
L 767.280718 160.694489 
L 767.280718 164.705398 
L 764.287142 164.705398 
L 764.287142 165.708125 
z
" clip-path="url(#pfd5f13118a)" style="fill: #ff0000; stroke: #ff0000; stroke-linejoin: miter"/>
   </g>
   <g id="patch_86">
    <path d="M 775.552441 162.699943 
L 771.062077 165.708125 
L 771.062077 164.705398 
L 768.068501 164.705398 
L 768.068501 160.694489 
L 771.062077 160.694489 
L 771.062077 159.691761 
z
" clip-path="url(#pfd5f13118a)" style="fill: #0000ff; stroke: #0000ff; stroke-linejoin: miter"/>
   </g>
   <g id="patch_87">
    <path d="M 85.848247 82.481761 
L 81.357883 85.489943 
L 81.357883 84.487216 
L 78.364307 84.487216 
L 78.364307 80.476307 
L 81.357883 80.476307 
L 81.357883 79.47358 
z
" clip-path="url(#pfd5f13118a)" style="fill: #0000ff; stroke: #0000ff; stroke-linejoin: miter"/>
   </g>
   <g id="patch_88">
    <path d="M 250.888828 82.481761 
L 246.398464 85.489943 
L 246.398464 84.487216 
L 243.404888 84.487216 
L 243.404888 80.476307 
L 246.398464 80.476307 
L 246.398464 79.47358 
z
" clip-path="url(#pfd5f13118a)" style="fill: #0000ff; stroke: #0000ff; stroke-linejoin: miter"/>
   </g>
   <g id="patch_89">
    <path d="M 258.76666 82.481761 
L 263.257024 79.47358 
L 263.257024 80.476307 
L 266.250601 80.476307 
L 266.250601 84.487216 
L 263.257024 84.487216 
L 263.257024 85.489943 
z
" clip-path="url(#pfd5f13118a)" style="fill: #ff0000; stroke: #ff0000; stroke-linejoin: miter"/>
   </g>
   <g id="patch_90">
    <path d="M 299.337495 82.481761 
L 294.847131 85.489943 
L 294.847131 84.487216 
L 291.853555 84.487216 
L 291.853555 80.476307 
L 294.847131 80.476307 
L 294.847131 79.47358 
z
" clip-path="url(#pfd5f13118a)" style="fill: #0000ff; stroke: #0000ff; stroke-linejoin: miter"/>
   </g>
   <g id="patch_91">
    <path d="M 310.36646 82.481761 
L 314.856824 79.47358 
L 314.856824 80.476307 
L 317.8504 80.476307 
L 317.8504 84.487216 
L 314.856824 84.487216 
L 314.856824 85.489943 
z
" clip-path="url(#pfd5f13118a)" style="fill: #ff0000; stroke: #ff0000; stroke-linejoin: miter"/>
   </g>
   <g id="patch_92">
    <path d="M 428.53394 82.481761 
L 424.043576 85.489943 
L 424.043576 84.487216 
L 421.05 84.487216 
L 421.05 80.476307 
L 424.043576 80.476307 
L 424.043576 79.47358 
z
" clip-path="url(#pfd5f13118a)" style="fill: #0000ff; stroke: #0000ff; stroke-linejoin: miter"/>
   </g>
   <g id="patch_93">
    <path d="M 634.93314 82.481761 
L 639.423504 79.47358 
L 639.423504 80.476307 
L 642.41708 80.476307 
L 642.41708 84.487216 
L 639.423504 84.487216 
L 639.423504 85.489943 
z
" clip-path="url(#pfd5f13118a)" style="fill: #ff0000; stroke: #ff0000; stroke-linejoin: miter"/>
   </g>
   <g id="patch_94">
    <path d="M 687.714614 82.481761 
L 692.204979 79.47358 
L 692.204979 80.476307 
L 695.198555 80.476307 
L 695.198555 84.487216 
L 692.204979 84.487216 
L 692.204979 85.489943 
z
" clip-path="url(#pfd5f13118a)" style="fill: #ff0000; stroke: #ff0000; stroke-linejoin: miter"/>
   </g>
   <g id="patch_95">
    <path d="M 42.914062 242.918125 
L 42.914062 22.318125 
" style="fill: none; stroke: #000000; stroke-width: 0.8; stroke-linejoin: miter; stroke-linecap: square"/>
   </g>
   <g id="patch_96">
    <path d="M 849.604063 242.918125 
L 849.604063 22.318125 
" style="fill: none; stroke: #000000; stroke-width: 0.8; stroke-linejoin: miter; stroke-linecap: square"/>
   </g>
   <g id="patch_97">
    <path d="M 42.914062 242.918125 
L 849.604063 242.918125 
" style="fill: none; stroke: #000000; stroke-width: 0.8; stroke-linejoin: miter; stroke-linecap: square"/>
   </g>
   <g id="patch_98">
    <path d="M 42.914062 22.318125 
L 849.604063 22.318125 
" style="fill: none; stroke: #000000; stroke-width: 0.8; stroke-linejoin: miter; stroke-linecap: square"/>
   </g>
   <g id="text_21">
    <!-- CTCF motif orientations – chr1:189710336-191021056 -->
    <g transform="translate(282.609063 16.318125) scale(0.12 -0.12)">
     <defs>
      <path id="DejaVuSans-43" d="M 4122 4306 
L 4122 3641 
Q 3803 3938 3442 4084 
Q 3081 4231 2675 4231 
Q 1875 4231 1450 3742 
Q 1025 3253 1025 2328 
Q 1025 1406 1450 917 
Q 1875 428 2675 428 
Q 3081 428 3442 575 
Q 3803 722 4122 1019 
L 4122 359 
Q 3791 134 3420 21 
Q 3050 -91 2638 -91 
Q 1578 -91 968 557 
Q 359 1206 359 2328 
Q 359 3453 968 4101 
Q 1578 4750 2638 4750 
Q 3056 4750 3426 4639 
Q 3797 4528 4122 4306 
z
" transform="scale(0.015625)"/>
      <path id="DejaVuSans-54" d="M -19 4666 
L 3928 4666 
L 3928 4134 
L 2272 4134 
L 2272 0 
L 1638 0 
L 1638 4134 
L -19 4134 
L -19 4666 
z
" transform="scale(0.015625)"/>
      <path id="DejaVuSans-46" d="M 628 4666 
L 3309 4666 
L 3309 4134 
L 1259 4134 
L 1259 2759 
L 3109 2759 
L 3109 2228 
L 1259 2228 
L 1259 0 
L 628 0 
L 628 4666 
z
" transform="scale(0.015625)"/>
      <path id="DejaVuSans-6d" d="M 3328 2828 
Q 3544 3216 3844 3400 
Q 4144 3584 4550 3584 
Q 5097 3584 5394 3201 
Q 5691 2819 5691 2113 
L 5691 0 
L 5113 0 
L 5113 2094 
Q 5113 2597 4934 2840 
Q 4756 3084 4391 3084 
Q 3944 3084 3684 2787 
Q 3425 2491 3425 1978 
L 3425 0 
L 2847 0 
L 2847 2094 
Q 2847 2600 2669 2842 
Q 2491 3084 2119 3084 
Q 1678 3084 1418 2786 
Q 1159 2488 1159 1978 
L 1159 0 
L 581 0 
L 581 3500 
L 1159 3500 
L 1159 2956 
Q 1356 3278 1631 3431 
Q 1906 3584 2284 3584 
Q 2666 3584 2933 3390 
Q 3200 3197 3328 2828 
z
" transform="scale(0.015625)"/>
      <path id="DejaVuSans-66" d="M 2375 4863 
L 2375 4384 
L 1825 4384 
Q 1516 4384 1395 4259 
Q 1275 4134 1275 3809 
L 1275 3500 
L 2222 3500 
L 2222 3053 
L 1275 3053 
L 1275 0 
L 697 0 
L 697 3053 
L 147 3053 
L 147 3500 
L 697 3500 
L 697 3744 
Q 697 4328 969 4595 
Q 1241 4863 1831 4863 
L 2375 4863 
z
" transform="scale(0.015625)"/>
      <path id="DejaVuSans-72" d="M 2631 2963 
Q 2534 3019 2420 3045 
Q 2306 3072 2169 3072 
Q 1681 3072 1420 2755 
Q 1159 2438 1159 1844 
L 1159 0 
L 581 0 
L 581 3500 
L 1159 3500 
L 1159 2956 
Q 1341 3275 1631 3429 
Q 1922 3584 2338 3584 
Q 2397 3584 2469 3576 
Q 2541 3569 2628 3553 
L 2631 2963 
z
" transform="scale(0.015625)"/>
      <path id="DejaVuSans-2013" d="M 313 1978 
L 2888 1978 
L 2888 1528 
L 313 1528 
L 313 1978 
z
" transform="scale(0.015625)"/>
      <path id="DejaVuSans-63" d="M 3122 3366 
L 3122 2828 
Q 2878 2963 2633 3030 
Q 2388 3097 2138 3097 
Q 1578 3097 1268 2742 
Q 959 2388 959 1747 
Q 959 1106 1268 751 
Q 1578 397 2138 397 
Q 2388 397 2633 464 
Q 2878 531 3122 666 
L 3122 134 
Q 2881 22 2623 -34 
Q 2366 -91 2075 -91 
Q 1284 -91 818 406 
Q 353 903 353 1747 
Q 353 2603 823 3093 
Q 1294 3584 2113 3584 
Q 2378 3584 2631 3529 
Q 2884 3475 3122 3366 
z
" transform="scale(0.015625)"/>
      <path id="DejaVuSans-68" d="M 3513 2113 
L 3513 0 
L 2938 0 
L 2938 2094 
Q 2938 2591 2744 2837 
Q 2550 3084 2163 3084 
Q 1697 3084 1428 2787 
Q 1159 2491 1159 1978 
L 1159 0 
L 581 0 
L 581 4863 
L 1159 4863 
L 1159 2956 
Q 1366 3272 1645 3428 
Q 1925 3584 2291 3584 
Q 2894 3584 3203 3211 
Q 3513 2838 3513 2113 
z
" transform="scale(0.015625)"/>
      <path id="DejaVuSans-3a" d="M 750 794 
L 1409 794 
L 1409 0 
L 750 0 
L 750 794 
z
M 750 3309 
L 1409 3309 
L 1409 2516 
L 750 2516 
L 750 3309 
z
" transform="scale(0.015625)"/>
      <path id="DejaVuSans-2d" d="M 313 2009 
L 1997 2009 
L 1997 1497 
L 313 1497 
L 313 2009 
z
" transform="scale(0.015625)"/>
     </defs>
     <use xlink:href="#DejaVuSans-43"/>
     <use xlink:href="#DejaVuSans-54" transform="translate(69.824219 0)"/>
     <use xlink:href="#DejaVuSans-43" transform="translate(125.033203 0)"/>
     <use xlink:href="#DejaVuSans-46" transform="translate(194.857422 0)"/>
     <use xlink:href="#DejaVuSans-20" transform="translate(252.376953 0)"/>
     <use xlink:href="#DejaVuSans-6d" transform="translate(284.164062 0)"/>
     <use xlink:href="#DejaVuSans-6f" transform="translate(381.576172 0)"/>
     <use xlink:href="#DejaVuSans-74" transform="translate(442.757812 0)"/>
     <use xlink:href="#DejaVuSans-69" transform="translate(481.966797 0)"/>
     <use xlink:href="#DejaVuSans-66" transform="translate(509.75 0)"/>
     <use xlink:href="#DejaVuSans-20" transform="translate(544.955078 0)"/>
     <use xlink:href="#DejaVuSans-6f" transform="translate(576.742188 0)"/>
     <use xlink:href="#DejaVuSans-72" transform="translate(637.923828 0)"/>
     <use xlink:href="#DejaVuSans-69" transform="translate(679.037109 0)"/>
     <use xlink:href="#DejaVuSans-65" transform="translate(706.820312 0)"/>
     <use xlink:href="#DejaVuSans-6e" transform="translate(768.34375 0)"/>
     <use xlink:href="#DejaVuSans-74" transform="translate(831.722656 0)"/>
     <use xlink:href="#DejaVuSans-61" transform="translate(870.931641 0)"/>
     <use xlink:href="#DejaVuSans-74" transform="translate(932.210938 0)"/>
     <use xlink:href="#DejaVuSans-69" transform="translate(971.419922 0)"/>
     <use xlink:href="#DejaVuSans-6f" transform="translate(999.203125 0)"/>
     <use xlink:href="#DejaVuSans-6e" transform="translate(1060.384766 0)"/>
     <use xlink:href="#DejaVuSans-73" transform="translate(1123.763672 0)"/>
     <use xlink:href="#DejaVuSans-20" transform="translate(1175.863281 0)"/>
     <use xlink:href="#DejaVuSans-2013" transform="translate(1207.650391 0)"/>
     <use xlink:href="#DejaVuSans-20" transform="translate(1257.650391 0)"/>
     <use xlink:href="#DejaVuSans-63" transform="translate(1289.4375 0)"/>
     <use xlink:href="#DejaVuSans-68" transform="translate(1344.417969 0)"/>
     <use xlink:href="#DejaVuSans-72" transform="translate(1407.796875 0)"/>
     <use xlink:href="#DejaVuSans-31" transform="translate(1448.910156 0)"/>
     <use xlink:href="#DejaVuSans-3a" transform="translate(1512.533203 0)"/>
     <use xlink:href="#DejaVuSans-31" transform="translate(1546.224609 0)"/>
     <use xlink:href="#DejaVuSans-38" transform="translate(1609.847656 0)"/>
     <use xlink:href="#DejaVuSans-39" transform="translate(1673.470703 0)"/>
     <use xlink:href="#DejaVuSans-37" transform="translate(1737.09375 0)"/>
     <use xlink:href="#DejaVuSans-31" transform="translate(1800.716797 0)"/>
     <use xlink:href="#DejaVuSans-30" transform="translate(1864.339844 0)"/>
     <use xlink:href="#DejaVuSans-33" transform="translate(1927.962891 0)"/>
     <use xlink:href="#DejaVuSans-33" transform="translate(1991.585938 0)"/>
     <use xlink:href="#DejaVuSans-36" transform="translate(2055.208984 0)"/>
     <use xlink:href="#DejaVuSans-2d" transform="translate(2118.832031 0)"/>
     <use xlink:href="#DejaVuSans-31" transform="translate(2154.916016 0)"/>
     <use xlink:href="#DejaVuSans-39" transform="translate(2218.539062 0)"/>
     <use xlink:href="#DejaVuSans-31" transform="translate(2282.162109 0)"/>
     <use xlink:href="#DejaVuSans-30" transform="translate(2345.785156 0)"/>
     <use xlink:href="#DejaVuSans-32" transform="translate(2409.408203 0)"/>
     <use xlink:href="#DejaVuSans-31" transform="translate(2473.03125 0)"/>
     <use xlink:href="#DejaVuSans-30" transform="translate(2536.654297 0)"/>
     <use xlink:href="#DejaVuSans-35" transform="translate(2600.277344 0)"/>
     <use xlink:href="#DejaVuSans-36" transform="translate(2663.900391 0)"/>
    </g>
   </g>
   <g id="legend_1">
    <g id="patch_99">
     <path d="M 49.914062 237.918125 
L 149.926562 237.918125 
Q 151.926562 237.918125 151.926562 235.918125 
L 151.926562 207.561875 
Q 151.926562 205.561875 149.926562 205.561875 
L 49.914062 205.561875 
Q 47.914062 205.561875 47.914062 207.561875 
L 47.914062 235.918125 
Q 47.914062 237.918125 49.914062 237.918125 
z
" style="fill: #ffffff; opacity: 0.8; stroke: #cccccc; stroke-linejoin: miter"/>
    </g>
    <g id="patch_100">
     <path d="M 51.914062 217.160313 
L 71.914062 217.160313 
L 71.914062 210.160313 
L 51.914062 210.160313 
z
" style="fill: #0000ff; stroke: #0000ff; stroke-linejoin: miter"/>
    </g>
    <g id="text_22">
     <!-- Orientation + -->
     <g transform="translate(79.914062 217.160313) scale(0.1 -0.1)">
      <defs>
       <path id="DejaVuSans-4f" d="M 2522 4238 
Q 1834 4238 1429 3725 
Q 1025 3213 1025 2328 
Q 1025 1447 1429 934 
Q 1834 422 2522 422 
Q 3209 422 3611 934 
Q 4013 1447 4013 2328 
Q 4013 3213 3611 3725 
Q 3209 4238 2522 4238 
z
M 2522 4750 
Q 3503 4750 4090 4092 
Q 4678 3434 4678 2328 
Q 4678 1225 4090 567 
Q 3503 -91 2522 -91 
Q 1538 -91 948 565 
Q 359 1222 359 2328 
Q 359 3434 948 4092 
Q 1538 4750 2522 4750 
z
" transform="scale(0.015625)"/>
       <path id="DejaVuSans-2b" d="M 2944 4013 
L 2944 2272 
L 4684 2272 
L 4684 1741 
L 2944 1741 
L 2944 0 
L 2419 0 
L 2419 1741 
L 678 1741 
L 678 2272 
L 2419 2272 
L 2419 4013 
L 2944 4013 
z
" transform="scale(0.015625)"/>
      </defs>
      <use xlink:href="#DejaVuSans-4f"/>
      <use xlink:href="#DejaVuSans-72" transform="translate(78.710938 0)"/>
      <use xlink:href="#DejaVuSans-69" transform="translate(119.824219 0)"/>
      <use xlink:href="#DejaVuSans-65" transform="translate(147.607422 0)"/>
      <use xlink:href="#DejaVuSans-6e" transform="translate(209.130859 0)"/>
      <use xlink:href="#DejaVuSans-74" transform="translate(272.509766 0)"/>
      <use xlink:href="#DejaVuSans-61" transform="translate(311.71875 0)"/>
      <use xlink:href="#DejaVuSans-74" transform="translate(372.998047 0)"/>
      <use xlink:href="#DejaVuSans-69" transform="translate(412.207031 0)"/>
      <use xlink:href="#DejaVuSans-6f" transform="translate(439.990234 0)"/>
      <use xlink:href="#DejaVuSans-6e" transform="translate(501.171875 0)"/>
      <use xlink:href="#DejaVuSans-20" transform="translate(564.550781 0)"/>
      <use xlink:href="#DejaVuSans-2b" transform="translate(596.337891 0)"/>
     </g>
    </g>
    <g id="patch_101">
     <path d="M 51.914062 231.838437 
L 71.914062 231.838437 
L 71.914062 224.838437 
L 51.914062 224.838437 
z
" style="fill: #ff0000; stroke: #ff0000; stroke-linejoin: miter"/>
    </g>
    <g id="text_23">
     <!-- Orientation − -->
     <g transform="translate(79.914062 231.838437) scale(0.1 -0.1)">
      <defs>
       <path id="DejaVuSans-2212" d="M 678 2272 
L 4684 2272 
L 4684 1741 
L 678 1741 
L 678 2272 
z
" transform="scale(0.015625)"/>
      </defs>
      <use xlink:href="#DejaVuSans-4f"/>
      <use xlink:href="#DejaVuSans-72" transform="translate(78.710938 0)"/>
      <use xlink:href="#DejaVuSans-69" transform="translate(119.824219 0)"/>
      <use xlink:href="#DejaVuSans-65" transform="translate(147.607422 0)"/>
      <use xlink:href="#DejaVuSans-6e" transform="translate(209.130859 0)"/>
      <use xlink:href="#DejaVuSans-74" transform="translate(272.509766 0)"/>
      <use xlink:href="#DejaVuSans-61" transform="translate(311.71875 0)"/>
      <use xlink:href="#DejaVuSans-74" transform="translate(372.998047 0)"/>
      <use xlink:href="#DejaVuSans-69" transform="translate(412.207031 0)"/>
      <use xlink:href="#DejaVuSans-6f" transform="translate(439.990234 0)"/>
      <use xlink:href="#DejaVuSans-6e" transform="translate(501.171875 0)"/>
      <use xlink:href="#DejaVuSans-20" transform="translate(564.550781 0)"/>
      <use xlink:href="#DejaVuSans-2212" transform="translate(596.337891 0)"/>
     </g>
    </g>
   </g>
  </g>
 </g>
 <defs>
  <clipPath id="pfd5f13118a">
   <rect x="42.914062" y="22.318125" width="806.69" height="220.6"/>
  </clipPath>
 </defs>
</svg>
