<?xml version="1.0" encoding="utf-8" standalone="no"?>
<!DOCTYPE svg PUBLIC "-//W3C//DTD SVG 1.1//EN"
  "http://www.w3.org/Graphics/SVG/1.1/DTD/svg11.dtd">
<svg xmlns:xlink="http://www.w3.org/1999/xlink" width="432pt" height="360pt" viewBox="0 0 432 360" xmlns="http://www.w3.org/2000/svg" version="1.1">
 <metadata>
  <rdf:RDF xmlns:dc="http://purl.org/dc/elements/1.1/" xmlns:cc="http://creativecommons.org/ns#" xmlns:rdf="http://www.w3.org/1999/02/22-rdf-syntax-ns#">
   <cc:Work>
    <dc:type rdf:resource="http://purl.org/dc/dcmitype/StillImage"/>
    <dc:date>2026-03-17T15:02:42.528752</dc:date>
    <dc:format>image/svg+xml</dc:format>
    <dc:creator>
     <cc:Agent>
      <dc:title>Matplotlib v3.10.8, https://matplotlib.org/</dc:title>
     </cc:Agent>
    </dc:creator>
   </cc:Work>
  </rdf:RDF>
 </metadata>
 <defs>
  <style type="text/css">*{stroke-linejoin: round; stroke-linecap: butt}</style>
 </defs>
 <g id="figure_1">
  <g id="patch_1">
   <path d="M 0 360 
L 432 360 
L 432 0 
L 0 0 
z
" style="fill: #ffffff"/>
  </g>
  <g id="axes_1">
   <g id="patch_2">
    <path d="M 56.18 320.456 
L 421.155 320.456 
L 421.155 10.8 
L 56.18 10.8 
z
" style="fill: #ffffff"/>
   </g>
   <g id="matplotlib.axis_1">
    <g id="xtick_1">
     <g id="line2d_1">
      <defs>
       <path id="ma6105fa70b" d="M 0 0 
L 0 3.5 
" style="stroke: #000000; stroke-width: 0.8"/>
      </defs>
      <g>
       <use xlink:href="#ma6105fa70b" x="86.594583" y="320.456" style="stroke: #000000; stroke-width: 0.8"/>
      </g>
     </g>
     <g id="text_1">
      <!-- Before -->
      <g transform="translate(70.24849 335.054438) scale(0.1 -0.1)">
       <defs>
        <path id="DejaVuSans-42" d="M 1259 2228 
L 1259 519 
L 2272 519 
Q 2781 519 3026 730 
Q 3272 941 3272 1375 
Q 3272 1813 3026 2020 
Q 2781 2228 2272 2228 
L 1259 2228 
z
M 1259 4147 
L 1259 2741 
L 2194 2741 
Q 2656 2741 2882 2914 
Q 3109 3088 3109 3444 
Q 3109 3797 2882 3972 
Q 2656 4147 2194 4147 
L 1259 4147 
z
M 628 4666 
L 2241 4666 
Q 2963 4666 3353 4366 
Q 3744 4066 3744 3513 
Q 3744 3084 3544 2831 
Q 3344 2578 2956 2516 
Q 3422 2416 3680 2098 
Q 3938 1781 3938 1306 
Q 3938 681 3513 340 
Q 3088 0 2303 0 
L 628 0 
L 628 4666 
z
" transform="scale(0.015625)"/>
        <path id="DejaVuSans-65" d="M 3597 1894 
L 3597 1613 
L 953 1613 
Q 991 1019 1311 708 
Q 1631 397 2203 397 
Q 2534 397 2845 478 
Q 3156 559 3463 722 
L 3463 178 
Q 3153 47 2828 -22 
Q 2503 -91 2169 -91 
Q 1331 -91 842 396 
Q 353 884 353 1716 
Q 353 2575 817 3079 
Q 1281 3584 2069 3584 
Q 2775 3584 3186 3129 
Q 3597 2675 3597 1894 
z
M 3022 2063 
Q 3016 2534 2758 2815 
Q 2500 3097 2075 3097 
Q 1594 3097 1305 2825 
Q 1016 2553 972 2059 
L 3022 2063 
z
" transform="scale(0.015625)"/>
        <path id="DejaVuSans-66" d="M 2375 4863 
L 2375 4384 
L 1825 4384 
Q 1516 4384 1395 4259 
Q 1275 4134 1275 3809 
L 1275 3500 
L 2222 3500 
L 2222 3053 
L 1275 3053 
L 1275 0 
L 697 0 
L 697 3053 
L 147 3053 
L 147 3500 
L 697 3500 
L 697 3744 
Q 697 4328 969 4595 
Q 1241 4863 1831 4863 
L 2375 4863 
z
" transform="scale(0.015625)"/>
        <path id="DejaVuSans-6f" d="M 1959 3097 
Q 1497 3097 1228 2736 
Q 959 2375 959 1747 
Q 959 1119 1226 758 
Q 1494 397 1959 397 
Q 2419 397 2687 759 
Q 2956 1122 2956 1747 
Q 2956 2369 2687 2733 
Q 2419 3097 1959 3097 
z
M 1959 3584 
Q 2709 3584 3137 3096 
Q 3566 2609 3566 1747 
Q 3566 888 3137 398 
Q 2709 -91 1959 -91 
Q 1206 -91 779 398 
Q 353 888 353 1747 
Q 353 2609 779 3096 
Q 1206 3584 1959 3584 
z
" transform="scale(0.015625)"/>
        <path id="DejaVuSans-72" d="M 2631 2963 
Q 2534 3019 2420 3045 
Q 2306 3072 2169 3072 
Q 1681 3072 1420 2755 
Q 1159 2438 1159 1844 
L 1159 0 
L 581 0 
L 581 3500 
L 1159 3500 
L 1159 2956 
Q 1341 3275 1631 3429 
Q 1922 3584 2338 3584 
Q 2397 3584 2469 3576 
Q 2541 3569 2628 3553 
L 2631 2963 
z
" transform="scale(0.015625)"/>
       </defs>
       <use xlink:href="#DejaVuSans-42"/>
       <use xlink:href="#DejaVuSans-65" transform="translate(68.603516 0)"/>
       <use xlink:href="#DejaVuSans-66" transform="translate(130.126953 0)"/>
       <use xlink:href="#DejaVuSans-6f" transform="translate(165.332031 0)"/>
       <use xlink:href="#DejaVuSans-72" transform="translate(226.513672 0)"/>
       <use xlink:href="#DejaVuSans-65" transform="translate(265.376953 0)"/>
      </g>
      <!-- optimization -->
      <g transform="translate(55.486771 346.25225) scale(0.1 -0.1)">
       <defs>
        <path id="DejaVuSans-70" d="M 1159 525 
L 1159 -1331 
L 581 -1331 
L 581 3500 
L 1159 3500 
L 1159 2969 
Q 1341 3281 1617 3432 
Q 1894 3584 2278 3584 
Q 2916 3584 3314 3078 
Q 3713 2572 3713 1747 
Q 3713 922 3314 415 
Q 2916 -91 2278 -91 
Q 1894 -91 1617 61 
Q 1341 213 1159 525 
z
M 3116 1747 
Q 3116 2381 2855 2742 
Q 2594 3103 2138 3103 
Q 1681 3103 1420 2742 
Q 1159 2381 1159 1747 
Q 1159 1113 1420 752 
Q 1681 391 2138 391 
Q 2594 391 2855 752 
Q 3116 1113 3116 1747 
z
" transform="scale(0.015625)"/>
        <path id="DejaVuSans-74" d="M 1172 4494 
L 1172 3500 
L 2356 3500 
L 2356 3053 
L 1172 3053 
L 1172 1153 
Q 1172 725 1289 603 
Q 1406 481 1766 481 
L 2356 481 
L 2356 0 
L 1766 0 
Q 1100 0 847 248 
Q 594 497 594 1153 
L 594 3053 
L 172 3053 
L 172 3500 
L 594 3500 
L 594 4494 
L 1172 4494 
z
" transform="scale(0.015625)"/>
        <path id="DejaVuSans-69" d="M 603 3500 
L 1178 3500 
L 1178 0 
L 603 0 
L 603 3500 
z
M 603 4863 
L 1178 4863 
L 1178 4134 
L 603 4134 
L 603 4863 
z
" transform="scale(0.015625)"/>
        <path id="DejaVuSans-6d" d="M 3328 2828 
Q 3544 3216 3844 3400 
Q 4144 3584 4550 3584 
Q 5097 3584 5394 3201 
Q 5691 2819 5691 2113 
L 5691 0 
L 5113 0 
L 5113 2094 
Q 5113 2597 4934 2840 
Q 4756 3084 4391 3084 
Q 3944 3084 3684 2787 
Q 3425 2491 3425 1978 
L 3425 0 
L 2847 0 
L 2847 2094 
Q 2847 2600 2669 2842 
Q 2491 3084 2119 3084 
Q 1678 3084 1418 2786 
Q 1159 2488 1159 1978 
L 1159 0 
L 581 0 
L 581 3500 
L 1159 3500 
L 1159 2956 
Q 1356 3278 1631 3431 
Q 1906 3584 2284 3584 
Q 2666 3584 2933 3390 
Q 3200 3197 3328 2828 
z
" transform="scale(0.015625)"/>
        <path id="DejaVuSans-7a" d="M 353 3500 
L 3084 3500 
L 3084 2975 
L 922 459 
L 3084 459 
L 3084 0 
L 275 0 
L 275 525 
L 2438 3041 
L 353 3041 
L 353 3500 
z
" transform="scale(0.015625)"/>
        <path id="DejaVuSans-61" d="M 2194 1759 
Q 1497 1759 1228 1600 
Q 959 1441 959 1056 
Q 959 750 1161 570 
Q 1363 391 1709 391 
Q 2188 391 2477 730 
Q 2766 1069 2766 1631 
L 2766 1759 
L 2194 1759 
z
M 3341 1997 
L 3341 0 
L 2766 0 
L 2766 531 
Q 2569 213 2275 61 
Q 1981 -91 1556 -91 
Q 1019 -91 701 211 
Q 384 513 384 1019 
Q 384 1609 779 1909 
Q 1175 2209 1959 2209 
L 2766 2209 
L 2766 2266 
Q 2766 2663 2505 2880 
Q 2244 3097 1772 3097 
Q 1472 3097 1187 3025 
Q 903 2953 641 2809 
L 641 3341 
Q 956 3463 1253 3523 
Q 1550 3584 1831 3584 
Q 2591 3584 2966 3190 
Q 3341 2797 3341 1997 
z
" transform="scale(0.015625)"/>
        <path id="DejaVuSans-6e" d="M 3513 2113 
L 3513 0 
L 2938 0 
L 2938 2094 
Q 2938 2591 2744 2837 
Q 2550 3084 2163 3084 
Q 1697 3084 1428 2787 
Q 1159 2491 1159 1978 
L 1159 0 
L 581 0 
L 581 3500 
L 1159 3500 
L 1159 2956 
Q 1366 3272 1645 3428 
Q 1925 3584 2291 3584 
Q 2894 3584 3203 3211 
Q 3513 2838 3513 2113 
z
" transform="scale(0.015625)"/>
       </defs>
       <use xlink:href="#DejaVuSans-6f"/>
       <use xlink:href="#DejaVuSans-70" transform="translate(61.181641 0)"/>
       <use xlink:href="#DejaVuSans-74" transform="translate(124.658203 0)"/>
       <use xlink:href="#DejaVuSans-69" transform="translate(163.867188 0)"/>
       <use xlink:href="#DejaVuSans-6d" transform="translate(191.650391 0)"/>
       <use xlink:href="#DejaVuSans-69" transform="translate(289.0625 0)"/>
       <use xlink:href="#DejaVuSans-7a" transform="translate(316.845703 0)"/>
       <use xlink:href="#DejaVuSans-61" transform="translate(369.335938 0)"/>
       <use xlink:href="#DejaVuSans-74" transform="translate(430.615234 0)"/>
       <use xlink:href="#DejaVuSans-69" transform="translate(469.824219 0)"/>
       <use xlink:href="#DejaVuSans-6f" transform="translate(497.607422 0)"/>
       <use xlink:href="#DejaVuSans-6e" transform="translate(558.789062 0)"/>
      </g>
     </g>
    </g>
    <g id="xtick_2">
     <g id="line2d_2">
      <g>
       <use xlink:href="#ma6105fa70b" x="147.42375" y="320.456" style="stroke: #000000; stroke-width: 0.8"/>
      </g>
     </g>
     <g id="text_2">
      <!-- Target -->
      <g transform="translate(131.951875 335.054438) scale(0.1 -0.1)">
       <defs>
        <path id="DejaVuSans-54" d="M -19 4666 
L 3928 4666 
L 3928 4134 
L 2272 4134 
L 2272 0 
L 1638 0 
L 1638 4134 
L -19 4134 
L -19 4666 
z
" transform="scale(0.015625)"/>
        <path id="DejaVuSans-67" d="M 2906 1791 
Q 2906 2416 2648 2759 
Q 2391 3103 1925 3103 
Q 1463 3103 1205 2759 
Q 947 2416 947 1791 
Q 947 1169 1205 825 
Q 1463 481 1925 481 
Q 2391 481 2648 825 
Q 2906 1169 2906 1791 
z
M 3481 434 
Q 3481 -459 3084 -895 
Q 2688 -1331 1869 -1331 
Q 1566 -1331 1297 -1286 
Q 1028 -1241 775 -1147 
L 775 -588 
Q 1028 -725 1275 -790 
Q 1522 -856 1778 -856 
Q 2344 -856 2625 -561 
Q 2906 -266 2906 331 
L 2906 616 
Q 2728 306 2450 153 
Q 2172 0 1784 0 
Q 1141 0 747 490 
Q 353 981 353 1791 
Q 353 2603 747 3093 
Q 1141 3584 1784 3584 
Q 2172 3584 2450 3431 
Q 2728 3278 2906 2969 
L 2906 3500 
L 3481 3500 
L 3481 434 
z
" transform="scale(0.015625)"/>
       </defs>
       <use xlink:href="#DejaVuSans-54"/>
       <use xlink:href="#DejaVuSans-61" transform="translate(44.583984 0)"/>
       <use xlink:href="#DejaVuSans-72" transform="translate(105.863281 0)"/>
       <use xlink:href="#DejaVuSans-67" transform="translate(145.226562 0)"/>
       <use xlink:href="#DejaVuSans-65" transform="translate(208.703125 0)"/>
       <use xlink:href="#DejaVuSans-74" transform="translate(270.226562 0)"/>
      </g>
      <!-- -0.2 -->
      <g transform="translate(137.668281 346.25225) scale(0.1 -0.1)">
       <defs>
        <path id="DejaVuSans-2d" d="M 313 2009 
L 1997 2009 
L 1997 1497 
L 313 1497 
L 313 2009 
z
" transform="scale(0.015625)"/>
        <path id="DejaVuSans-30" d="M 2034 4250 
Q 1547 4250 1301 3770 
Q 1056 3291 1056 2328 
Q 1056 1369 1301 889 
Q 1547 409 2034 409 
Q 2525 409 2770 889 
Q 3016 1369 3016 2328 
Q 3016 3291 2770 3770 
Q 2525 4250 2034 4250 
z
M 2034 4750 
Q 2819 4750 3233 4129 
Q 3647 3509 3647 2328 
Q 3647 1150 3233 529 
Q 2819 -91 2034 -91 
Q 1250 -91 836 529 
Q 422 1150 422 2328 
Q 422 3509 836 4129 
Q 1250 4750 2034 4750 
z
" transform="scale(0.015625)"/>
        <path id="DejaVuSans-2e" d="M 684 794 
L 1344 794 
L 1344 0 
L 684 0 
L 684 794 
z
" transform="scale(0.015625)"/>
        <path id="DejaVuSans-32" d="M 1228 531 
L 3431 531 
L 3431 0 
L 469 0 
L 469 531 
Q 828 903 1448 1529 
Q 2069 2156 2228 2338 
Q 2531 2678 2651 2914 
Q 2772 3150 2772 3378 
Q 2772 3750 2511 3984 
Q 2250 4219 1831 4219 
Q 1534 4219 1204 4116 
Q 875 4013 500 3803 
L 500 4441 
Q 881 4594 1212 4672 
Q 1544 4750 1819 4750 
Q 2544 4750 2975 4387 
Q 3406 4025 3406 3419 
Q 3406 3131 3298 2873 
Q 3191 2616 2906 2266 
Q 2828 2175 2409 1742 
Q 1991 1309 1228 531 
z
" transform="scale(0.015625)"/>
       </defs>
       <use xlink:href="#DejaVuSans-2d"/>
       <use xlink:href="#DejaVuSans-30" transform="translate(36.083984 0)"/>
       <use xlink:href="#DejaVuSans-2e" transform="translate(99.707031 0)"/>
       <use xlink:href="#DejaVuSans-32" transform="translate(131.494141 0)"/>
      </g>
     </g>
    </g>
    <g id="xtick_3">
     <g id="line2d_3">
      <g>
       <use xlink:href="#ma6105fa70b" x="208.252917" y="320.456" style="stroke: #000000; stroke-width: 0.8"/>
      </g>
     </g>
     <g id="text_3">
      <!-- Target -->
      <g transform="translate(192.781042 335.054438) scale(0.1 -0.1)">
       <use xlink:href="#DejaVuSans-54"/>
       <use xlink:href="#DejaVuSans-61" transform="translate(44.583984 0)"/>
       <use xlink:href="#DejaVuSans-72" transform="translate(105.863281 0)"/>
       <use xlink:href="#DejaVuSans-67" transform="translate(145.226562 0)"/>
       <use xlink:href="#DejaVuSans-65" transform="translate(208.703125 0)"/>
       <use xlink:href="#DejaVuSans-74" transform="translate(270.226562 0)"/>
      </g>
      <!-- -0.3 -->
      <g transform="translate(198.497448 346.25225) scale(0.1 -0.1)">
       <defs>
        <path id="DejaVuSans-33" d="M 2597 2516 
Q 3050 2419 3304 2112 
Q 3559 1806 3559 1356 
Q 3559 666 3084 287 
Q 2609 -91 1734 -91 
Q 1441 -91 1130 -33 
Q 819 25 488 141 
L 488 750 
Q 750 597 1062 519 
Q 1375 441 1716 441 
Q 2309 441 2620 675 
Q 2931 909 2931 1356 
Q 2931 1769 2642 2001 
Q 2353 2234 1838 2234 
L 1294 2234 
L 1294 2753 
L 1863 2753 
Q 2328 2753 2575 2939 
Q 2822 3125 2822 3475 
Q 2822 3834 2567 4026 
Q 2313 4219 1838 4219 
Q 1578 4219 1281 4162 
Q 984 4106 628 3988 
L 628 4550 
Q 988 4650 1302 4700 
Q 1616 4750 1894 4750 
Q 2613 4750 3031 4423 
Q 3450 4097 3450 3541 
Q 3450 3153 3228 2886 
Q 3006 2619 2597 2516 
z
" transform="scale(0.015625)"/>
       </defs>
       <use xlink:href="#DejaVuSans-2d"/>
       <use xlink:href="#DejaVuSans-30" transform="translate(36.083984 0)"/>
       <use xlink:href="#DejaVuSans-2e" transform="translate(99.707031 0)"/>
       <use xlink:href="#DejaVuSans-33" transform="translate(131.494141 0)"/>
      </g>
     </g>
    </g>
    <g id="xtick_4">
     <g id="line2d_4">
      <g>
       <use xlink:href="#ma6105fa70b" x="269.082083" y="320.456" style="stroke: #000000; stroke-width: 0.8"/>
      </g>
     </g>
     <g id="text_4">
      <!-- Target -->
      <g transform="translate(253.610208 335.054438) scale(0.1 -0.1)">
       <use xlink:href="#DejaVuSans-54"/>
       <use xlink:href="#DejaVuSans-61" transform="translate(44.583984 0)"/>
       <use xlink:href="#DejaVuSans-72" transform="translate(105.863281 0)"/>
       <use xlink:href="#DejaVuSans-67" transform="translate(145.226562 0)"/>
       <use xlink:href="#DejaVuSans-65" transform="translate(208.703125 0)"/>
       <use xlink:href="#DejaVuSans-74" transform="translate(270.226562 0)"/>
      </g>
      <!-- -0.4 -->
      <g transform="translate(259.326615 346.25225) scale(0.1 -0.1)">
       <defs>
        <path id="DejaVuSans-34" d="M 2419 4116 
L 825 1625 
L 2419 1625 
L 2419 4116 
z
M 2253 4666 
L 3047 4666 
L 3047 1625 
L 3713 1625 
L 3713 1100 
L 3047 1100 
L 3047 0 
L 2419 0 
L 2419 1100 
L 313 1100 
L 313 1709 
L 2253 4666 
z
" transform="scale(0.015625)"/>
       </defs>
       <use xlink:href="#DejaVuSans-2d"/>
       <use xlink:href="#DejaVuSans-30" transform="translate(36.083984 0)"/>
       <use xlink:href="#DejaVuSans-2e" transform="translate(99.707031 0)"/>
       <use xlink:href="#DejaVuSans-34" transform="translate(131.494141 0)"/>
      </g>
     </g>
    </g>
    <g id="xtick_5">
     <g id="line2d_5">
      <g>
       <use xlink:href="#ma6105fa70b" x="329.91125" y="320.456" style="stroke: #000000; stroke-width: 0.8"/>
      </g>
     </g>
     <g id="text_5">
      <!-- Target -->
      <g transform="translate(314.439375 335.054438) scale(0.1 -0.1)">
       <use xlink:href="#DejaVuSans-54"/>
       <use xlink:href="#DejaVuSans-61" transform="translate(44.583984 0)"/>
       <use xlink:href="#DejaVuSans-72" transform="translate(105.863281 0)"/>
       <use xlink:href="#DejaVuSans-67" transform="translate(145.226562 0)"/>
       <use xlink:href="#DejaVuSans-65" transform="translate(208.703125 0)"/>
       <use xlink:href="#DejaVuSans-74" transform="translate(270.226562 0)"/>
      </g>
      <!-- -0.5 -->
      <g transform="translate(320.155781 346.25225) scale(0.1 -0.1)">
       <defs>
        <path id="DejaVuSans-35" d="M 691 4666 
L 3169 4666 
L 3169 4134 
L 1269 4134 
L 1269 2991 
Q 1406 3038 1543 3061 
Q 1681 3084 1819 3084 
Q 2600 3084 3056 2656 
Q 3513 2228 3513 1497 
Q 3513 744 3044 326 
Q 2575 -91 1722 -91 
Q 1428 -91 1123 -41 
Q 819 9 494 109 
L 494 744 
Q 775 591 1075 516 
Q 1375 441 1709 441 
Q 2250 441 2565 725 
Q 2881 1009 2881 1497 
Q 2881 1984 2565 2268 
Q 2250 2553 1709 2553 
Q 1456 2553 1204 2497 
Q 953 2441 691 2322 
L 691 4666 
z
" transform="scale(0.015625)"/>
       </defs>
       <use xlink:href="#DejaVuSans-2d"/>
       <use xlink:href="#DejaVuSans-30" transform="translate(36.083984 0)"/>
       <use xlink:href="#DejaVuSans-2e" transform="translate(99.707031 0)"/>
       <use xlink:href="#DejaVuSans-35" transform="translate(131.494141 0)"/>
      </g>
     </g>
    </g>
    <g id="xtick_6">
     <g id="line2d_6">
      <g>
       <use xlink:href="#ma6105fa70b" x="390.740417" y="320.456" style="stroke: #000000; stroke-width: 0.8"/>
      </g>
     </g>
     <g id="text_6">
      <!-- Natural -->
      <g transform="translate(372.298229 335.054438) scale(0.1 -0.1)">
       <defs>
        <path id="DejaVuSans-4e" d="M 628 4666 
L 1478 4666 
L 3547 763 
L 3547 4666 
L 4159 4666 
L 4159 0 
L 3309 0 
L 1241 3903 
L 1241 0 
L 628 0 
L 628 4666 
z
" transform="scale(0.015625)"/>
        <path id="DejaVuSans-75" d="M 544 1381 
L 544 3500 
L 1119 3500 
L 1119 1403 
Q 1119 906 1312 657 
Q 1506 409 1894 409 
Q 2359 409 2629 706 
Q 2900 1003 2900 1516 
L 2900 3500 
L 3475 3500 
L 3475 0 
L 2900 0 
L 2900 538 
Q 2691 219 2414 64 
Q 2138 -91 1772 -91 
Q 1169 -91 856 284 
Q 544 659 544 1381 
z
M 1991 3584 
L 1991 3584 
z
" transform="scale(0.015625)"/>
        <path id="DejaVuSans-6c" d="M 603 4863 
L 1178 4863 
L 1178 0 
L 603 0 
L 603 4863 
z
" transform="scale(0.015625)"/>
       </defs>
       <use xlink:href="#DejaVuSans-4e"/>
       <use xlink:href="#DejaVuSans-61" transform="translate(74.804688 0)"/>
       <use xlink:href="#DejaVuSans-74" transform="translate(136.083984 0)"/>
       <use xlink:href="#DejaVuSans-75" transform="translate(175.292969 0)"/>
       <use xlink:href="#DejaVuSans-72" transform="translate(238.671875 0)"/>
       <use xlink:href="#DejaVuSans-61" transform="translate(279.785156 0)"/>
       <use xlink:href="#DejaVuSans-6c" transform="translate(341.064453 0)"/>
      </g>
      <!-- boundaries -->
      <g transform="translate(362.80526 346.25225) scale(0.1 -0.1)">
       <defs>
        <path id="DejaVuSans-62" d="M 3116 1747 
Q 3116 2381 2855 2742 
Q 2594 3103 2138 3103 
Q 1681 3103 1420 2742 
Q 1159 2381 1159 1747 
Q 1159 1113 1420 752 
Q 1681 391 2138 391 
Q 2594 391 2855 752 
Q 3116 1113 3116 1747 
z
M 1159 2969 
Q 1341 3281 1617 3432 
Q 1894 3584 2278 3584 
Q 2916 3584 3314 3078 
Q 3713 2572 3713 1747 
Q 3713 922 3314 415 
Q 2916 -91 2278 -91 
Q 1894 -91 1617 61 
Q 1341 213 1159 525 
L 1159 0 
L 581 0 
L 581 4863 
L 1159 4863 
L 1159 2969 
z
" transform="scale(0.015625)"/>
        <path id="DejaVuSans-64" d="M 2906 2969 
L 2906 4863 
L 3481 4863 
L 3481 0 
L 2906 0 
L 2906 525 
Q 2725 213 2448 61 
Q 2172 -91 1784 -91 
Q 1150 -91 751 415 
Q 353 922 353 1747 
Q 353 2572 751 3078 
Q 1150 3584 1784 3584 
Q 2172 3584 2448 3432 
Q 2725 3281 2906 2969 
z
M 947 1747 
Q 947 1113 1208 752 
Q 1469 391 1925 391 
Q 2381 391 2643 752 
Q 2906 1113 2906 1747 
Q 2906 2381 2643 2742 
Q 2381 3103 1925 3103 
Q 1469 3103 1208 2742 
Q 947 2381 947 1747 
z
" transform="scale(0.015625)"/>
        <path id="DejaVuSans-73" d="M 2834 3397 
L 2834 2853 
Q 2591 2978 2328 3040 
Q 2066 3103 1784 3103 
Q 1356 3103 1142 2972 
Q 928 2841 928 2578 
Q 928 2378 1081 2264 
Q 1234 2150 1697 2047 
L 1894 2003 
Q 2506 1872 2764 1633 
Q 3022 1394 3022 966 
Q 3022 478 2636 193 
Q 2250 -91 1575 -91 
Q 1294 -91 989 -36 
Q 684 19 347 128 
L 347 722 
Q 666 556 975 473 
Q 1284 391 1588 391 
Q 1994 391 2212 530 
Q 2431 669 2431 922 
Q 2431 1156 2273 1281 
Q 2116 1406 1581 1522 
L 1381 1569 
Q 847 1681 609 1914 
Q 372 2147 372 2553 
Q 372 3047 722 3315 
Q 1072 3584 1716 3584 
Q 2034 3584 2315 3537 
Q 2597 3491 2834 3397 
z
" transform="scale(0.015625)"/>
       </defs>
       <use xlink:href="#DejaVuSans-62"/>
       <use xlink:href="#DejaVuSans-6f" transform="translate(63.476562 0)"/>
       <use xlink:href="#DejaVuSans-75" transform="translate(124.658203 0)"/>
       <use xlink:href="#DejaVuSans-6e" transform="translate(188.037109 0)"/>
       <use xlink:href="#DejaVuSans-64" transform="translate(251.416016 0)"/>
       <use xlink:href="#DejaVuSans-61" transform="translate(314.892578 0)"/>
       <use xlink:href="#DejaVuSans-72" transform="translate(376.171875 0)"/>
       <use xlink:href="#DejaVuSans-69" transform="translate(417.285156 0)"/>
       <use xlink:href="#DejaVuSans-65" transform="translate(445.068359 0)"/>
       <use xlink:href="#DejaVuSans-73" transform="translate(506.591797 0)"/>
      </g>
     </g>
    </g>
   </g>
   <g id="matplotlib.axis_2">
    <g id="ytick_1">
     <g id="line2d_7">
      <defs>
       <path id="m028efb42fa" d="M 0 0 
L -3.5 0 
" style="stroke: #000000; stroke-width: 0.8"/>
      </defs>
      <g>
       <use xlink:href="#m028efb42fa" x="56.18" y="304.776549" style="stroke: #000000; stroke-width: 0.8"/>
      </g>
     </g>
     <g id="text_7">
      <!-- −1.0 -->
      <g transform="translate(24.897188 308.575768) scale(0.1 -0.1)">
       <defs>
        <path id="DejaVuSans-2212" d="M 678 2272 
L 4684 2272 
L 4684 1741 
L 678 1741 
L 678 2272 
z
" transform="scale(0.015625)"/>
        <path id="DejaVuSans-31" d="M 794 531 
L 1825 531 
L 1825 4091 
L 703 3866 
L 703 4441 
L 1819 4666 
L 2450 4666 
L 2450 531 
L 3481 531 
L 3481 0 
L 794 0 
L 794 531 
z
" transform="scale(0.015625)"/>
       </defs>
       <use xlink:href="#DejaVuSans-2212"/>
       <use xlink:href="#DejaVuSans-31" transform="translate(83.789062 0)"/>
       <use xlink:href="#DejaVuSans-2e" transform="translate(147.412109 0)"/>
       <use xlink:href="#DejaVuSans-30" transform="translate(179.199219 0)"/>
      </g>
     </g>
    </g>
    <g id="ytick_2">
     <g id="line2d_8">
      <g>
       <use xlink:href="#m028efb42fa" x="56.18" y="258.155882" style="stroke: #000000; stroke-width: 0.8"/>
      </g>
     </g>
     <g id="text_8">
      <!-- −0.8 -->
      <g transform="translate(24.897188 261.955101) scale(0.1 -0.1)">
       <defs>
        <path id="DejaVuSans-38" d="M 2034 2216 
Q 1584 2216 1326 1975 
Q 1069 1734 1069 1313 
Q 1069 891 1326 650 
Q 1584 409 2034 409 
Q 2484 409 2743 651 
Q 3003 894 3003 1313 
Q 3003 1734 2745 1975 
Q 2488 2216 2034 2216 
z
M 1403 2484 
Q 997 2584 770 2862 
Q 544 3141 544 3541 
Q 544 4100 942 4425 
Q 1341 4750 2034 4750 
Q 2731 4750 3128 4425 
Q 3525 4100 3525 3541 
Q 3525 3141 3298 2862 
Q 3072 2584 2669 2484 
Q 3125 2378 3379 2068 
Q 3634 1759 3634 1313 
Q 3634 634 3220 271 
Q 2806 -91 2034 -91 
Q 1263 -91 848 271 
Q 434 634 434 1313 
Q 434 1759 690 2068 
Q 947 2378 1403 2484 
z
M 1172 3481 
Q 1172 3119 1398 2916 
Q 1625 2713 2034 2713 
Q 2441 2713 2670 2916 
Q 2900 3119 2900 3481 
Q 2900 3844 2670 4047 
Q 2441 4250 2034 4250 
Q 1625 4250 1398 4047 
Q 1172 3844 1172 3481 
z
" transform="scale(0.015625)"/>
       </defs>
       <use xlink:href="#DejaVuSans-2212"/>
       <use xlink:href="#DejaVuSans-30" transform="translate(83.789062 0)"/>
       <use xlink:href="#DejaVuSans-2e" transform="translate(147.412109 0)"/>
       <use xlink:href="#DejaVuSans-38" transform="translate(179.199219 0)"/>
      </g>
     </g>
    </g>
    <g id="ytick_3">
     <g id="line2d_9">
      <g>
       <use xlink:href="#m028efb42fa" x="56.18" y="211.535215" style="stroke: #000000; stroke-width: 0.8"/>
      </g>
     </g>
     <g id="text_9">
      <!-- −0.6 -->
      <g transform="translate(24.897188 215.334434) scale(0.1 -0.1)">
       <defs>
        <path id="DejaVuSans-36" d="M 2113 2584 
Q 1688 2584 1439 2293 
Q 1191 2003 1191 1497 
Q 1191 994 1439 701 
Q 1688 409 2113 409 
Q 2538 409 2786 701 
Q 3034 994 3034 1497 
Q 3034 2003 2786 2293 
Q 2538 2584 2113 2584 
z
M 3366 4563 
L 3366 3988 
Q 3128 4100 2886 4159 
Q 2644 4219 2406 4219 
Q 1781 4219 1451 3797 
Q 1122 3375 1075 2522 
Q 1259 2794 1537 2939 
Q 1816 3084 2150 3084 
Q 2853 3084 3261 2657 
Q 3669 2231 3669 1497 
Q 3669 778 3244 343 
Q 2819 -91 2113 -91 
Q 1303 -91 875 529 
Q 447 1150 447 2328 
Q 447 3434 972 4092 
Q 1497 4750 2381 4750 
Q 2619 4750 2861 4703 
Q 3103 4656 3366 4563 
z
" transform="scale(0.015625)"/>
       </defs>
       <use xlink:href="#DejaVuSans-2212"/>
       <use xlink:href="#DejaVuSans-30" transform="translate(83.789062 0)"/>
       <use xlink:href="#DejaVuSans-2e" transform="translate(147.412109 0)"/>
       <use xlink:href="#DejaVuSans-36" transform="translate(179.199219 0)"/>
      </g>
     </g>
    </g>
    <g id="ytick_4">
     <g id="line2d_10">
      <g>
       <use xlink:href="#m028efb42fa" x="56.18" y="164.914548" style="stroke: #000000; stroke-width: 0.8"/>
      </g>
     </g>
     <g id="text_10">
      <!-- −0.4 -->
      <g transform="translate(24.897188 168.713767) scale(0.1 -0.1)">
       <use xlink:href="#DejaVuSans-2212"/>
       <use xlink:href="#DejaVuSans-30" transform="translate(83.789062 0)"/>
       <use xlink:href="#DejaVuSans-2e" transform="translate(147.412109 0)"/>
       <use xlink:href="#DejaVuSans-34" transform="translate(179.199219 0)"/>
      </g>
     </g>
    </g>
    <g id="ytick_5">
     <g id="line2d_11">
      <g>
       <use xlink:href="#m028efb42fa" x="56.18" y="118.293881" style="stroke: #000000; stroke-width: 0.8"/>
      </g>
     </g>
     <g id="text_11">
      <!-- −0.2 -->
      <g transform="translate(24.897188 122.0931) scale(0.1 -0.1)">
       <use xlink:href="#DejaVuSans-2212"/>
       <use xlink:href="#DejaVuSans-30" transform="translate(83.789062 0)"/>
       <use xlink:href="#DejaVuSans-2e" transform="translate(147.412109 0)"/>
       <use xlink:href="#DejaVuSans-32" transform="translate(179.199219 0)"/>
      </g>
     </g>
    </g>
    <g id="ytick_6">
     <g id="line2d_12">
      <g>
       <use xlink:href="#m028efb42fa" x="56.18" y="71.673214" style="stroke: #000000; stroke-width: 0.8"/>
      </g>
     </g>
     <g id="text_12">
      <!-- 0.0 -->
      <g transform="translate(33.276875 75.472433) scale(0.1 -0.1)">
       <use xlink:href="#DejaVuSans-30"/>
       <use xlink:href="#DejaVuSans-2e" transform="translate(63.623047 0)"/>
       <use xlink:href="#DejaVuSans-30" transform="translate(95.410156 0)"/>
      </g>
     </g>
    </g>
    <g id="ytick_7">
     <g id="line2d_13">
      <g>
       <use xlink:href="#m028efb42fa" x="56.18" y="25.052547" style="stroke: #000000; stroke-width: 0.8"/>
      </g>
     </g>
     <g id="text_13">
      <!-- 0.2 -->
      <g transform="translate(33.276875 28.851766) scale(0.1 -0.1)">
       <use xlink:href="#DejaVuSans-30"/>
       <use xlink:href="#DejaVuSans-2e" transform="translate(63.623047 0)"/>
       <use xlink:href="#DejaVuSans-32" transform="translate(95.410156 0)"/>
      </g>
     </g>
    </g>
    <g id="text_14">
     <!-- Insulation score -->
     <g transform="translate(18.8175 205.097531) rotate(-90) scale(0.1 -0.1)">
      <defs>
       <path id="DejaVuSans-49" d="M 628 4666 
L 1259 4666 
L 1259 0 
L 628 0 
L 628 4666 
z
" transform="scale(0.015625)"/>
       <path id="DejaVuSans-20" transform="scale(0.015625)"/>
       <path id="DejaVuSans-63" d="M 3122 3366 
L 3122 2828 
Q 2878 2963 2633 3030 
Q 2388 3097 2138 3097 
Q 1578 3097 1268 2742 
Q 959 2388 959 1747 
Q 959 1106 1268 751 
Q 1578 397 2138 397 
Q 2388 397 2633 464 
Q 2878 531 3122 666 
L 3122 134 
Q 2881 22 2623 -34 
Q 2366 -91 2075 -91 
Q 1284 -91 818 406 
Q 353 903 353 1747 
Q 353 2603 823 3093 
Q 1294 3584 2113 3584 
Q 2378 3584 2631 3529 
Q 2884 3475 3122 3366 
z
" transform="scale(0.015625)"/>
      </defs>
      <use xlink:href="#DejaVuSans-49"/>
      <use xlink:href="#DejaVuSans-6e" transform="translate(29.492188 0)"/>
      <use xlink:href="#DejaVuSans-73" transform="translate(92.871094 0)"/>
      <use xlink:href="#DejaVuSans-75" transform="translate(144.970703 0)"/>
      <use xlink:href="#DejaVuSans-6c" transform="translate(208.349609 0)"/>
      <use xlink:href="#DejaVuSans-61" transform="translate(236.132812 0)"/>
      <use xlink:href="#DejaVuSans-74" transform="translate(297.412109 0)"/>
      <use xlink:href="#DejaVuSans-69" transform="translate(336.621094 0)"/>
      <use xlink:href="#DejaVuSans-6f" transform="translate(364.404297 0)"/>
      <use xlink:href="#DejaVuSans-6e" transform="translate(425.585938 0)"/>
      <use xlink:href="#DejaVuSans-20" transform="translate(488.964844 0)"/>
      <use xlink:href="#DejaVuSans-73" transform="translate(520.751953 0)"/>
      <use xlink:href="#DejaVuSans-63" transform="translate(572.851562 0)"/>
      <use xlink:href="#DejaVuSans-6f" transform="translate(627.832031 0)"/>
      <use xlink:href="#DejaVuSans-72" transform="translate(689.013672 0)"/>
      <use xlink:href="#DejaVuSans-65" transform="translate(727.876953 0)"/>
     </g>
    </g>
   </g>
   <g id="patch_3">
    <path d="M 62.262917 94.986351 
L 110.92625 94.986351 
L 110.92625 63.86454 
L 62.262917 63.86454 
L 62.262917 94.986351 
z
" clip-path="url(#pd01beb0fe1)" style="fill: #3274a1; stroke: #3f3f3f; stroke-linejoin: miter"/>
   </g>
   <g id="line2d_14">
    <path d="M 86.594583 94.986351 
L 86.594583 140.742217 
" clip-path="url(#pd01beb0fe1)" style="fill: none; stroke: #3f3f3f"/>
   </g>
   <g id="line2d_15">
    <path d="M 86.594583 63.86454 
L 86.594583 33.284794 
" clip-path="url(#pd01beb0fe1)" style="fill: none; stroke: #3f3f3f"/>
   </g>
   <g id="line2d_16">
    <path d="M 74.42875 140.742217 
L 98.760417 140.742217 
" clip-path="url(#pd01beb0fe1)" style="fill: none; stroke: #3f3f3f; stroke-linecap: square"/>
   </g>
   <g id="line2d_17">
    <path d="M 74.42875 33.284794 
L 98.760417 33.284794 
" clip-path="url(#pd01beb0fe1)" style="fill: none; stroke: #3f3f3f; stroke-linecap: square"/>
   </g>
   <g id="line2d_18">
    <defs>
     <path id="m5be7b3dd3e" d="M 0 3 
C 0.795609 3 1.55874 2.683901 2.12132 2.12132 
C 2.683901 1.55874 3 0.795609 3 0 
C 3 -0.795609 2.683901 -1.55874 2.12132 -2.12132 
C 1.55874 -2.683901 0.795609 -3 0 -3 
C -0.795609 -3 -1.55874 -2.683901 -2.12132 -2.12132 
C -2.683901 -1.55874 -3 -0.795609 -3 0 
C -3 0.795609 -2.683901 1.55874 -2.12132 2.12132 
C -1.55874 2.683901 -0.795609 3 0 3 
z
" style="stroke: #3f3f3f"/>
    </defs>
    <g clip-path="url(#pd01beb0fe1)">
     <use xlink:href="#m5be7b3dd3e" x="86.594583" y="164.000051" style="fill-opacity: 0; stroke: #3f3f3f"/>
     <use xlink:href="#m5be7b3dd3e" x="86.594583" y="162.619462" style="fill-opacity: 0; stroke: #3f3f3f"/>
     <use xlink:href="#m5be7b3dd3e" x="86.594583" y="161.394126" style="fill-opacity: 0; stroke: #3f3f3f"/>
     <use xlink:href="#m5be7b3dd3e" x="86.594583" y="168.366239" style="fill-opacity: 0; stroke: #3f3f3f"/>
     <use xlink:href="#m5be7b3dd3e" x="86.594583" y="162.28595" style="fill-opacity: 0; stroke: #3f3f3f"/>
     <use xlink:href="#m5be7b3dd3e" x="86.594583" y="143.265556" style="fill-opacity: 0; stroke: #3f3f3f"/>
     <use xlink:href="#m5be7b3dd3e" x="86.594583" y="144.914813" style="fill-opacity: 0; stroke: #3f3f3f"/>
     <use xlink:href="#m5be7b3dd3e" x="86.594583" y="147.579114" style="fill-opacity: 0; stroke: #3f3f3f"/>
     <use xlink:href="#m5be7b3dd3e" x="86.594583" y="151.525202" style="fill-opacity: 0; stroke: #3f3f3f"/>
     <use xlink:href="#m5be7b3dd3e" x="86.594583" y="147.893821" style="fill-opacity: 0; stroke: #3f3f3f"/>
    </g>
   </g>
   <g id="patch_4">
    <path d="M 123.092083 120.507672 
L 171.755417 120.507672 
L 171.755417 98.561557 
L 123.092083 98.561557 
L 123.092083 120.507672 
z
" clip-path="url(#pd01beb0fe1)" style="fill: #3274a1; stroke: #3f3f3f; stroke-linejoin: miter"/>
   </g>
   <g id="line2d_19">
    <path d="M 147.42375 120.507672 
L 147.42375 151.674522 
" clip-path="url(#pd01beb0fe1)" style="fill: none; stroke: #3f3f3f"/>
   </g>
   <g id="line2d_20">
    <path d="M 147.42375 98.561557 
L 147.42375 73.829811 
" clip-path="url(#pd01beb0fe1)" style="fill: none; stroke: #3f3f3f"/>
   </g>
   <g id="line2d_21">
    <path d="M 135.257917 151.674522 
L 159.589583 151.674522 
" clip-path="url(#pd01beb0fe1)" style="fill: none; stroke: #3f3f3f; stroke-linecap: square"/>
   </g>
   <g id="line2d_22">
    <path d="M 135.257917 73.829811 
L 159.589583 73.829811 
" clip-path="url(#pd01beb0fe1)" style="fill: none; stroke: #3f3f3f; stroke-linecap: square"/>
   </g>
   <g id="line2d_23">
    <g clip-path="url(#pd01beb0fe1)">
     <use xlink:href="#m5be7b3dd3e" x="147.42375" y="170.072178" style="fill-opacity: 0; stroke: #3f3f3f"/>
     <use xlink:href="#m5be7b3dd3e" x="147.42375" y="171.965012" style="fill-opacity: 0; stroke: #3f3f3f"/>
     <use xlink:href="#m5be7b3dd3e" x="147.42375" y="178.017916" style="fill-opacity: 0; stroke: #3f3f3f"/>
     <use xlink:href="#m5be7b3dd3e" x="147.42375" y="170.14369" style="fill-opacity: 0; stroke: #3f3f3f"/>
     <use xlink:href="#m5be7b3dd3e" x="147.42375" y="177.972976" style="fill-opacity: 0; stroke: #3f3f3f"/>
     <use xlink:href="#m5be7b3dd3e" x="147.42375" y="165.013017" style="fill-opacity: 0; stroke: #3f3f3f"/>
     <use xlink:href="#m5be7b3dd3e" x="147.42375" y="153.462754" style="fill-opacity: 0; stroke: #3f3f3f"/>
     <use xlink:href="#m5be7b3dd3e" x="147.42375" y="157.703368" style="fill-opacity: 0; stroke: #3f3f3f"/>
     <use xlink:href="#m5be7b3dd3e" x="147.42375" y="164.545753" style="fill-opacity: 0; stroke: #3f3f3f"/>
     <use xlink:href="#m5be7b3dd3e" x="147.42375" y="169.357128" style="fill-opacity: 0; stroke: #3f3f3f"/>
     <use xlink:href="#m5be7b3dd3e" x="147.42375" y="169.609075" style="fill-opacity: 0; stroke: #3f3f3f"/>
     <use xlink:href="#m5be7b3dd3e" x="147.42375" y="164.964082" style="fill-opacity: 0; stroke: #3f3f3f"/>
    </g>
   </g>
   <g id="patch_5">
    <path d="M 183.92125 128.208752 
L 232.584583 128.208752 
L 232.584583 107.314331 
L 183.92125 107.314331 
L 183.92125 128.208752 
z
" clip-path="url(#pd01beb0fe1)" style="fill: #3274a1; stroke: #3f3f3f; stroke-linejoin: miter"/>
   </g>
   <g id="line2d_24">
    <path d="M 208.252917 128.208752 
L 208.252917 158.51369 
" clip-path="url(#pd01beb0fe1)" style="fill: none; stroke: #3f3f3f"/>
   </g>
   <g id="line2d_25">
    <path d="M 208.252917 107.314331 
L 208.252917 80.654269 
" clip-path="url(#pd01beb0fe1)" style="fill: none; stroke: #3f3f3f"/>
   </g>
   <g id="line2d_26">
    <path d="M 196.087083 158.51369 
L 220.41875 158.51369 
" clip-path="url(#pd01beb0fe1)" style="fill: none; stroke: #3f3f3f; stroke-linecap: square"/>
   </g>
   <g id="line2d_27">
    <path d="M 196.087083 80.654269 
L 220.41875 80.654269 
" clip-path="url(#pd01beb0fe1)" style="fill: none; stroke: #3f3f3f; stroke-linecap: square"/>
   </g>
   <g id="line2d_28">
    <g clip-path="url(#pd01beb0fe1)">
     <use xlink:href="#m5be7b3dd3e" x="208.252917" y="170.818836" style="fill-opacity: 0; stroke: #3f3f3f"/>
     <use xlink:href="#m5be7b3dd3e" x="208.252917" y="174.748481" style="fill-opacity: 0; stroke: #3f3f3f"/>
     <use xlink:href="#m5be7b3dd3e" x="208.252917" y="180.928752" style="fill-opacity: 0; stroke: #3f3f3f"/>
     <use xlink:href="#m5be7b3dd3e" x="208.252917" y="162.574383" style="fill-opacity: 0; stroke: #3f3f3f"/>
     <use xlink:href="#m5be7b3dd3e" x="208.252917" y="170.986176" style="fill-opacity: 0; stroke: #3f3f3f"/>
     <use xlink:href="#m5be7b3dd3e" x="208.252917" y="189.977143" style="fill-opacity: 0; stroke: #3f3f3f"/>
     <use xlink:href="#m5be7b3dd3e" x="208.252917" y="167.908917" style="fill-opacity: 0; stroke: #3f3f3f"/>
     <use xlink:href="#m5be7b3dd3e" x="208.252917" y="162.175742" style="fill-opacity: 0; stroke: #3f3f3f"/>
     <use xlink:href="#m5be7b3dd3e" x="208.252917" y="166.546488" style="fill-opacity: 0; stroke: #3f3f3f"/>
     <use xlink:href="#m5be7b3dd3e" x="208.252917" y="172.995567" style="fill-opacity: 0; stroke: #3f3f3f"/>
     <use xlink:href="#m5be7b3dd3e" x="208.252917" y="179.113058" style="fill-opacity: 0; stroke: #3f3f3f"/>
     <use xlink:href="#m5be7b3dd3e" x="208.252917" y="170.592197" style="fill-opacity: 0; stroke: #3f3f3f"/>
     <use xlink:href="#m5be7b3dd3e" x="208.252917" y="174.312799" style="fill-opacity: 0; stroke: #3f3f3f"/>
     <use xlink:href="#m5be7b3dd3e" x="208.252917" y="61.883283" style="fill-opacity: 0; stroke: #3f3f3f"/>
    </g>
   </g>
   <g id="patch_6">
    <path d="M 244.750417 138.035234 
L 293.41375 138.035234 
L 293.41375 116.18981 
L 244.750417 116.18981 
L 244.750417 138.035234 
z
" clip-path="url(#pd01beb0fe1)" style="fill: #3274a1; stroke: #3f3f3f; stroke-linejoin: miter"/>
   </g>
   <g id="line2d_29">
    <path d="M 269.082083 138.035234 
L 269.082083 170.156376 
" clip-path="url(#pd01beb0fe1)" style="fill: none; stroke: #3f3f3f"/>
   </g>
   <g id="line2d_30">
    <path d="M 269.082083 116.18981 
L 269.082083 86.027163 
" clip-path="url(#pd01beb0fe1)" style="fill: none; stroke: #3f3f3f"/>
   </g>
   <g id="line2d_31">
    <path d="M 256.91625 170.156376 
L 281.247917 170.156376 
" clip-path="url(#pd01beb0fe1)" style="fill: none; stroke: #3f3f3f; stroke-linecap: square"/>
   </g>
   <g id="line2d_32">
    <path d="M 256.91625 86.027163 
L 281.247917 86.027163 
" clip-path="url(#pd01beb0fe1)" style="fill: none; stroke: #3f3f3f; stroke-linecap: square"/>
   </g>
   <g id="line2d_33">
    <g clip-path="url(#pd01beb0fe1)">
     <use xlink:href="#m5be7b3dd3e" x="269.082083" y="172.17898" style="fill-opacity: 0; stroke: #3f3f3f"/>
     <use xlink:href="#m5be7b3dd3e" x="269.082083" y="174.157325" style="fill-opacity: 0; stroke: #3f3f3f"/>
     <use xlink:href="#m5be7b3dd3e" x="269.082083" y="184.396017" style="fill-opacity: 0; stroke: #3f3f3f"/>
     <use xlink:href="#m5be7b3dd3e" x="269.082083" y="172.684556" style="fill-opacity: 0; stroke: #3f3f3f"/>
     <use xlink:href="#m5be7b3dd3e" x="269.082083" y="202.640714" style="fill-opacity: 0; stroke: #3f3f3f"/>
     <use xlink:href="#m5be7b3dd3e" x="269.082083" y="171.263286" style="fill-opacity: 0; stroke: #3f3f3f"/>
     <use xlink:href="#m5be7b3dd3e" x="269.082083" y="175.702307" style="fill-opacity: 0; stroke: #3f3f3f"/>
     <use xlink:href="#m5be7b3dd3e" x="269.082083" y="173.807285" style="fill-opacity: 0; stroke: #3f3f3f"/>
     <use xlink:href="#m5be7b3dd3e" x="269.082083" y="174.574757" style="fill-opacity: 0; stroke: #3f3f3f"/>
    </g>
   </g>
   <g id="patch_7">
    <path d="M 305.579583 147.351533 
L 354.242917 147.351533 
L 354.242917 121.890989 
L 305.579583 121.890989 
L 305.579583 147.351533 
z
" clip-path="url(#pd01beb0fe1)" style="fill: #3274a1; stroke: #3f3f3f; stroke-linejoin: miter"/>
   </g>
   <g id="line2d_34">
    <path d="M 329.91125 147.351533 
L 329.91125 181.706228 
" clip-path="url(#pd01beb0fe1)" style="fill: none; stroke: #3f3f3f"/>
   </g>
   <g id="line2d_35">
    <path d="M 329.91125 121.890989 
L 329.91125 86.318675 
" clip-path="url(#pd01beb0fe1)" style="fill: none; stroke: #3f3f3f"/>
   </g>
   <g id="line2d_36">
    <path d="M 317.745417 181.706228 
L 342.077083 181.706228 
" clip-path="url(#pd01beb0fe1)" style="fill: none; stroke: #3f3f3f; stroke-linecap: square"/>
   </g>
   <g id="line2d_37">
    <path d="M 317.745417 86.318675 
L 342.077083 86.318675 
" clip-path="url(#pd01beb0fe1)" style="fill: none; stroke: #3f3f3f; stroke-linecap: square"/>
   </g>
   <g id="line2d_38">
    <g clip-path="url(#pd01beb0fe1)">
     <use xlink:href="#m5be7b3dd3e" x="329.91125" y="185.851981" style="fill-opacity: 0; stroke: #3f3f3f"/>
     <use xlink:href="#m5be7b3dd3e" x="329.91125" y="215.916735" style="fill-opacity: 0; stroke: #3f3f3f"/>
     <use xlink:href="#m5be7b3dd3e" x="329.91125" y="188.917764" style="fill-opacity: 0; stroke: #3f3f3f"/>
     <use xlink:href="#m5be7b3dd3e" x="329.91125" y="70.613597" style="fill-opacity: 0; stroke: #3f3f3f"/>
     <use xlink:href="#m5be7b3dd3e" x="329.91125" y="81.056217" style="fill-opacity: 0; stroke: #3f3f3f"/>
    </g>
   </g>
   <g id="patch_8">
    <path d="M 366.40875 155.172824 
L 415.072083 155.172824 
L 415.072083 104.369352 
L 366.40875 104.369352 
L 366.40875 155.172824 
z
" clip-path="url(#pd01beb0fe1)" style="fill: #3274a1; stroke: #3f3f3f; stroke-linejoin: miter"/>
   </g>
   <g id="line2d_39">
    <path d="M 390.740417 155.172824 
L 390.740417 231.262356 
" clip-path="url(#pd01beb0fe1)" style="fill: none; stroke: #3f3f3f"/>
   </g>
   <g id="line2d_40">
    <path d="M 390.740417 104.369352 
L 390.740417 40.471286 
" clip-path="url(#pd01beb0fe1)" style="fill: none; stroke: #3f3f3f"/>
   </g>
   <g id="line2d_41">
    <path d="M 378.574583 231.262356 
L 402.90625 231.262356 
" clip-path="url(#pd01beb0fe1)" style="fill: none; stroke: #3f3f3f; stroke-linecap: square"/>
   </g>
   <g id="line2d_42">
    <path d="M 378.574583 40.471286 
L 402.90625 40.471286 
" clip-path="url(#pd01beb0fe1)" style="fill: none; stroke: #3f3f3f; stroke-linecap: square"/>
   </g>
   <g id="line2d_43">
    <g clip-path="url(#pd01beb0fe1)">
     <use xlink:href="#m5be7b3dd3e" x="390.740417" y="247.003041" style="fill-opacity: 0; stroke: #3f3f3f"/>
     <use xlink:href="#m5be7b3dd3e" x="390.740417" y="247.869529" style="fill-opacity: 0; stroke: #3f3f3f"/>
     <use xlink:href="#m5be7b3dd3e" x="390.740417" y="286.74175" style="fill-opacity: 0; stroke: #3f3f3f"/>
     <use xlink:href="#m5be7b3dd3e" x="390.740417" y="240.743664" style="fill-opacity: 0; stroke: #3f3f3f"/>
     <use xlink:href="#m5be7b3dd3e" x="390.740417" y="239.957747" style="fill-opacity: 0; stroke: #3f3f3f"/>
     <use xlink:href="#m5be7b3dd3e" x="390.740417" y="255.416869" style="fill-opacity: 0; stroke: #3f3f3f"/>
     <use xlink:href="#m5be7b3dd3e" x="390.740417" y="240.790723" style="fill-opacity: 0; stroke: #3f3f3f"/>
     <use xlink:href="#m5be7b3dd3e" x="390.740417" y="246.288637" style="fill-opacity: 0; stroke: #3f3f3f"/>
     <use xlink:href="#m5be7b3dd3e" x="390.740417" y="260.441858" style="fill-opacity: 0; stroke: #3f3f3f"/>
     <use xlink:href="#m5be7b3dd3e" x="390.740417" y="232.997347" style="fill-opacity: 0; stroke: #3f3f3f"/>
     <use xlink:href="#m5be7b3dd3e" x="390.740417" y="233.468174" style="fill-opacity: 0; stroke: #3f3f3f"/>
     <use xlink:href="#m5be7b3dd3e" x="390.740417" y="260.158516" style="fill-opacity: 0; stroke: #3f3f3f"/>
     <use xlink:href="#m5be7b3dd3e" x="390.740417" y="232.878219" style="fill-opacity: 0; stroke: #3f3f3f"/>
     <use xlink:href="#m5be7b3dd3e" x="390.740417" y="232.064292" style="fill-opacity: 0; stroke: #3f3f3f"/>
     <use xlink:href="#m5be7b3dd3e" x="390.740417" y="242.801705" style="fill-opacity: 0; stroke: #3f3f3f"/>
     <use xlink:href="#m5be7b3dd3e" x="390.740417" y="240.384378" style="fill-opacity: 0; stroke: #3f3f3f"/>
     <use xlink:href="#m5be7b3dd3e" x="390.740417" y="258.262702" style="fill-opacity: 0; stroke: #3f3f3f"/>
     <use xlink:href="#m5be7b3dd3e" x="390.740417" y="250.975403" style="fill-opacity: 0; stroke: #3f3f3f"/>
     <use xlink:href="#m5be7b3dd3e" x="390.740417" y="255.530328" style="fill-opacity: 0; stroke: #3f3f3f"/>
     <use xlink:href="#m5be7b3dd3e" x="390.740417" y="277.445761" style="fill-opacity: 0; stroke: #3f3f3f"/>
     <use xlink:href="#m5be7b3dd3e" x="390.740417" y="259.081909" style="fill-opacity: 0; stroke: #3f3f3f"/>
     <use xlink:href="#m5be7b3dd3e" x="390.740417" y="244.478076" style="fill-opacity: 0; stroke: #3f3f3f"/>
     <use xlink:href="#m5be7b3dd3e" x="390.740417" y="261.342136" style="fill-opacity: 0; stroke: #3f3f3f"/>
     <use xlink:href="#m5be7b3dd3e" x="390.740417" y="272.610565" style="fill-opacity: 0; stroke: #3f3f3f"/>
     <use xlink:href="#m5be7b3dd3e" x="390.740417" y="260.588106" style="fill-opacity: 0; stroke: #3f3f3f"/>
     <use xlink:href="#m5be7b3dd3e" x="390.740417" y="239.834841" style="fill-opacity: 0; stroke: #3f3f3f"/>
     <use xlink:href="#m5be7b3dd3e" x="390.740417" y="289.508067" style="fill-opacity: 0; stroke: #3f3f3f"/>
     <use xlink:href="#m5be7b3dd3e" x="390.740417" y="247.118889" style="fill-opacity: 0; stroke: #3f3f3f"/>
     <use xlink:href="#m5be7b3dd3e" x="390.740417" y="265.128804" style="fill-opacity: 0; stroke: #3f3f3f"/>
     <use xlink:href="#m5be7b3dd3e" x="390.740417" y="245.375868" style="fill-opacity: 0; stroke: #3f3f3f"/>
     <use xlink:href="#m5be7b3dd3e" x="390.740417" y="250.124115" style="fill-opacity: 0; stroke: #3f3f3f"/>
     <use xlink:href="#m5be7b3dd3e" x="390.740417" y="296.957705" style="fill-opacity: 0; stroke: #3f3f3f"/>
     <use xlink:href="#m5be7b3dd3e" x="390.740417" y="298.327296" style="fill-opacity: 0; stroke: #3f3f3f"/>
     <use xlink:href="#m5be7b3dd3e" x="390.740417" y="273.055271" style="fill-opacity: 0; stroke: #3f3f3f"/>
     <use xlink:href="#m5be7b3dd3e" x="390.740417" y="262.543623" style="fill-opacity: 0; stroke: #3f3f3f"/>
     <use xlink:href="#m5be7b3dd3e" x="390.740417" y="244.979387" style="fill-opacity: 0; stroke: #3f3f3f"/>
     <use xlink:href="#m5be7b3dd3e" x="390.740417" y="238.862313" style="fill-opacity: 0; stroke: #3f3f3f"/>
     <use xlink:href="#m5be7b3dd3e" x="390.740417" y="232.953052" style="fill-opacity: 0; stroke: #3f3f3f"/>
     <use xlink:href="#m5be7b3dd3e" x="390.740417" y="240.048392" style="fill-opacity: 0; stroke: #3f3f3f"/>
     <use xlink:href="#m5be7b3dd3e" x="390.740417" y="257.277698" style="fill-opacity: 0; stroke: #3f3f3f"/>
     <use xlink:href="#m5be7b3dd3e" x="390.740417" y="232.734596" style="fill-opacity: 0; stroke: #3f3f3f"/>
     <use xlink:href="#m5be7b3dd3e" x="390.740417" y="269.098415" style="fill-opacity: 0; stroke: #3f3f3f"/>
     <use xlink:href="#m5be7b3dd3e" x="390.740417" y="289.286124" style="fill-opacity: 0; stroke: #3f3f3f"/>
     <use xlink:href="#m5be7b3dd3e" x="390.740417" y="235.595505" style="fill-opacity: 0; stroke: #3f3f3f"/>
     <use xlink:href="#m5be7b3dd3e" x="390.740417" y="241.406882" style="fill-opacity: 0; stroke: #3f3f3f"/>
     <use xlink:href="#m5be7b3dd3e" x="390.740417" y="239.110058" style="fill-opacity: 0; stroke: #3f3f3f"/>
     <use xlink:href="#m5be7b3dd3e" x="390.740417" y="256.37767" style="fill-opacity: 0; stroke: #3f3f3f"/>
     <use xlink:href="#m5be7b3dd3e" x="390.740417" y="285.875734" style="fill-opacity: 0; stroke: #3f3f3f"/>
     <use xlink:href="#m5be7b3dd3e" x="390.740417" y="306.380727" style="fill-opacity: 0; stroke: #3f3f3f"/>
     <use xlink:href="#m5be7b3dd3e" x="390.740417" y="285.676244" style="fill-opacity: 0; stroke: #3f3f3f"/>
     <use xlink:href="#m5be7b3dd3e" x="390.740417" y="271.602524" style="fill-opacity: 0; stroke: #3f3f3f"/>
     <use xlink:href="#m5be7b3dd3e" x="390.740417" y="289.317636" style="fill-opacity: 0; stroke: #3f3f3f"/>
     <use xlink:href="#m5be7b3dd3e" x="390.740417" y="268.298869" style="fill-opacity: 0; stroke: #3f3f3f"/>
     <use xlink:href="#m5be7b3dd3e" x="390.740417" y="270.482164" style="fill-opacity: 0; stroke: #3f3f3f"/>
     <use xlink:href="#m5be7b3dd3e" x="390.740417" y="240.762921" style="fill-opacity: 0; stroke: #3f3f3f"/>
     <use xlink:href="#m5be7b3dd3e" x="390.740417" y="251.345873" style="fill-opacity: 0; stroke: #3f3f3f"/>
     <use xlink:href="#m5be7b3dd3e" x="390.740417" y="241.742381" style="fill-opacity: 0; stroke: #3f3f3f"/>
     <use xlink:href="#m5be7b3dd3e" x="390.740417" y="244.832458" style="fill-opacity: 0; stroke: #3f3f3f"/>
     <use xlink:href="#m5be7b3dd3e" x="390.740417" y="266.018245" style="fill-opacity: 0; stroke: #3f3f3f"/>
     <use xlink:href="#m5be7b3dd3e" x="390.740417" y="269.263726" style="fill-opacity: 0; stroke: #3f3f3f"/>
     <use xlink:href="#m5be7b3dd3e" x="390.740417" y="233.971013" style="fill-opacity: 0; stroke: #3f3f3f"/>
     <use xlink:href="#m5be7b3dd3e" x="390.740417" y="289.988509" style="fill-opacity: 0; stroke: #3f3f3f"/>
     <use xlink:href="#m5be7b3dd3e" x="390.740417" y="24.875273" style="fill-opacity: 0; stroke: #3f3f3f"/>
    </g>
   </g>
   <g id="line2d_44">
    <path d="M 62.262917 76.660078 
L 110.92625 76.660078 
" clip-path="url(#pd01beb0fe1)" style="fill: none; stroke: #3f3f3f"/>
   </g>
   <g id="line2d_45">
    <path d="M 123.092083 106.516455 
L 171.755417 106.516455 
" clip-path="url(#pd01beb0fe1)" style="fill: none; stroke: #3f3f3f"/>
   </g>
   <g id="line2d_46">
    <path d="M 183.92125 115.985443 
L 232.584583 115.985443 
" clip-path="url(#pd01beb0fe1)" style="fill: none; stroke: #3f3f3f"/>
   </g>
   <g id="line2d_47">
    <path d="M 244.750417 126.283668 
L 293.41375 126.283668 
" clip-path="url(#pd01beb0fe1)" style="fill: none; stroke: #3f3f3f"/>
   </g>
   <g id="line2d_48">
    <path d="M 305.579583 134.734232 
L 354.242917 134.734232 
" clip-path="url(#pd01beb0fe1)" style="fill: none; stroke: #3f3f3f"/>
   </g>
   <g id="line2d_49">
    <path d="M 366.40875 127.332161 
L 415.072083 127.332161 
" clip-path="url(#pd01beb0fe1)" style="fill: none; stroke: #3f3f3f"/>
   </g>
   <g id="patch_9">
    <path d="M 56.18 320.456 
L 56.18 10.8 
" style="fill: none; stroke: #000000; stroke-width: 0.8; stroke-linejoin: miter; stroke-linecap: square"/>
   </g>
   <g id="patch_10">
    <path d="M 421.155 320.456 
L 421.155 10.8 
" style="fill: none; stroke: #000000; stroke-width: 0.8; stroke-linejoin: miter; stroke-linecap: square"/>
   </g>
   <g id="patch_11">
    <path d="M 56.18 320.456 
L 421.155 320.456 
" style="fill: none; stroke: #000000; stroke-width: 0.8; stroke-linejoin: miter; stroke-linecap: square"/>
   </g>
   <g id="patch_12">
    <path d="M 56.18 10.8 
L 421.155 10.8 
" style="fill: none; stroke: #000000; stroke-width: 0.8; stroke-linejoin: miter; stroke-linecap: square"/>
   </g>
  </g>
 </g>
 <defs>
  <clipPath id="pd01beb0fe1">
   <rect x="56.18" y="10.8" width="364.975" height="309.656"/>
  </clipPath>
 </defs>
</svg>
