<?xml version="1.0" encoding="utf-8" standalone="no"?>
<!DOCTYPE svg PUBLIC "-//W3C//DTD SVG 1.1//EN"
  "http://www.w3.org/Graphics/SVG/1.1/DTD/svg11.dtd">
<svg xmlns:xlink="http://www.w3.org/1999/xlink" width="640.136562pt" height="355.812807pt" viewBox="0 0 640.136562 355.812807" xmlns="http://www.w3.org/2000/svg" version="1.1">
 <metadata>
  <rdf:RDF xmlns:dc="http://purl.org/dc/elements/1.1/" xmlns:cc="http://creativecommons.org/ns#" xmlns:rdf="http://www.w3.org/1999/02/22-rdf-syntax-ns#">
   <cc:Work>
    <dc:type rdf:resource="http://purl.org/dc/dcmitype/StillImage"/>
    <dc:date>2026-03-27T17:14:05.950094</dc:date>
    <dc:format>image/svg+xml</dc:format>
    <dc:creator>
     <cc:Agent>
      <dc:title>Matplotlib v3.10.8, https://matplotlib.org/</dc:title>
     </cc:Agent>
    </dc:creator>
   </cc:Work>
  </rdf:RDF>
 </metadata>
 <defs>
  <style type="text/css">*{stroke-linejoin: round; stroke-linecap: butt}</style>
 </defs>
 <g id="figure_1">
  <g id="patch_1">
   <path d="M 0 355.812807 
L 640.136562 355.812807 
L 640.136562 0 
L 0 0 
z
" style="fill: #ffffff"/>
  </g>
  <g id="axes_1">
   <g id="patch_2">
    <path d="M 46.336563 310.176 
L 632.936562 310.176 
L 632.936562 7.2 
L 46.336563 7.2 
z
" style="fill: #ffffff"/>
   </g>
   <g id="matplotlib.axis_1">
    <g id="xtick_1">
     <g id="line2d_1">
      <defs>
       <path id="me8161fca12" d="M 0 0 
L 0 3.5 
" style="stroke: #000000; stroke-width: 0.8"/>
      </defs>
      <g>
       <use xlink:href="#me8161fca12" x="68.898101" y="310.176" style="stroke: #000000; stroke-width: 0.8"/>
      </g>
     </g>
     <g id="text_1">
      <!-- H1hESC, -->
      <g transform="translate(52.754937 322.874828) scale(0.075 -0.075)">
       <defs>
        <path id="DejaVuSans-48" d="M 628 4666 
L 1259 4666 
L 1259 2753 
L 3553 2753 
L 3553 4666 
L 4184 4666 
L 4184 0 
L 3553 0 
L 3553 2222 
L 1259 2222 
L 1259 0 
L 628 0 
L 628 4666 
z
" transform="scale(0.015625)"/>
        <path id="DejaVuSans-31" d="M 794 531 
L 1825 531 
L 1825 4091 
L 703 3866 
L 703 4441 
L 1819 4666 
L 2450 4666 
L 2450 531 
L 3481 531 
L 3481 0 
L 794 0 
L 794 531 
z
" transform="scale(0.015625)"/>
        <path id="DejaVuSans-68" d="M 3513 2113 
L 3513 0 
L 2938 0 
L 2938 2094 
Q 2938 2591 2744 2837 
Q 2550 3084 2163 3084 
Q 1697 3084 1428 2787 
Q 1159 2491 1159 1978 
L 1159 0 
L 581 0 
L 581 4863 
L 1159 4863 
L 1159 2956 
Q 1366 3272 1645 3428 
Q 1925 3584 2291 3584 
Q 2894 3584 3203 3211 
Q 3513 2838 3513 2113 
z
" transform="scale(0.015625)"/>
        <path id="DejaVuSans-45" d="M 628 4666 
L 3578 4666 
L 3578 4134 
L 1259 4134 
L 1259 2753 
L 3481 2753 
L 3481 2222 
L 1259 2222 
L 1259 531 
L 3634 531 
L 3634 0 
L 628 0 
L 628 4666 
z
" transform="scale(0.015625)"/>
        <path id="DejaVuSans-53" d="M 3425 4513 
L 3425 3897 
Q 3066 4069 2747 4153 
Q 2428 4238 2131 4238 
Q 1616 4238 1336 4038 
Q 1056 3838 1056 3469 
Q 1056 3159 1242 3001 
Q 1428 2844 1947 2747 
L 2328 2669 
Q 3034 2534 3370 2195 
Q 3706 1856 3706 1288 
Q 3706 609 3251 259 
Q 2797 -91 1919 -91 
Q 1588 -91 1214 -16 
Q 841 59 441 206 
L 441 856 
Q 825 641 1194 531 
Q 1563 422 1919 422 
Q 2459 422 2753 634 
Q 3047 847 3047 1241 
Q 3047 1584 2836 1778 
Q 2625 1972 2144 2069 
L 1759 2144 
Q 1053 2284 737 2584 
Q 422 2884 422 3419 
Q 422 4038 858 4394 
Q 1294 4750 2059 4750 
Q 2388 4750 2728 4690 
Q 3069 4631 3425 4513 
z
" transform="scale(0.015625)"/>
        <path id="DejaVuSans-43" d="M 4122 4306 
L 4122 3641 
Q 3803 3938 3442 4084 
Q 3081 4231 2675 4231 
Q 1875 4231 1450 3742 
Q 1025 3253 1025 2328 
Q 1025 1406 1450 917 
Q 1875 428 2675 428 
Q 3081 428 3442 575 
Q 3803 722 4122 1019 
L 4122 359 
Q 3791 134 3420 21 
Q 3050 -91 2638 -91 
Q 1578 -91 968 557 
Q 359 1206 359 2328 
Q 359 3453 968 4101 
Q 1578 4750 2638 4750 
Q 3056 4750 3426 4639 
Q 3797 4528 4122 4306 
z
" transform="scale(0.015625)"/>
        <path id="DejaVuSans-2c" d="M 750 794 
L 1409 794 
L 1409 256 
L 897 -744 
L 494 -744 
L 750 256 
L 750 794 
z
" transform="scale(0.015625)"/>
       </defs>
       <use xlink:href="#DejaVuSans-48"/>
       <use xlink:href="#DejaVuSans-31" transform="translate(75.195312 0)"/>
       <use xlink:href="#DejaVuSans-68" transform="translate(138.818359 0)"/>
       <use xlink:href="#DejaVuSans-45" transform="translate(202.197266 0)"/>
       <use xlink:href="#DejaVuSans-53" transform="translate(265.380859 0)"/>
       <use xlink:href="#DejaVuSans-43" transform="translate(328.857422 0)"/>
       <use xlink:href="#DejaVuSans-2c" transform="translate(398.681641 0)"/>
      </g>
      <!-- before -->
      <g transform="translate(56.830718 331.273187) scale(0.075 -0.075)">
       <defs>
        <path id="DejaVuSans-62" d="M 3116 1747 
Q 3116 2381 2855 2742 
Q 2594 3103 2138 3103 
Q 1681 3103 1420 2742 
Q 1159 2381 1159 1747 
Q 1159 1113 1420 752 
Q 1681 391 2138 391 
Q 2594 391 2855 752 
Q 3116 1113 3116 1747 
z
M 1159 2969 
Q 1341 3281 1617 3432 
Q 1894 3584 2278 3584 
Q 2916 3584 3314 3078 
Q 3713 2572 3713 1747 
Q 3713 922 3314 415 
Q 2916 -91 2278 -91 
Q 1894 -91 1617 61 
Q 1341 213 1159 525 
L 1159 0 
L 581 0 
L 581 4863 
L 1159 4863 
L 1159 2969 
z
" transform="scale(0.015625)"/>
        <path id="DejaVuSans-65" d="M 3597 1894 
L 3597 1613 
L 953 1613 
Q 991 1019 1311 708 
Q 1631 397 2203 397 
Q 2534 397 2845 478 
Q 3156 559 3463 722 
L 3463 178 
Q 3153 47 2828 -22 
Q 2503 -91 2169 -91 
Q 1331 -91 842 396 
Q 353 884 353 1716 
Q 353 2575 817 3079 
Q 1281 3584 2069 3584 
Q 2775 3584 3186 3129 
Q 3597 2675 3597 1894 
z
M 3022 2063 
Q 3016 2534 2758 2815 
Q 2500 3097 2075 3097 
Q 1594 3097 1305 2825 
Q 1016 2553 972 2059 
L 3022 2063 
z
" transform="scale(0.015625)"/>
        <path id="DejaVuSans-66" d="M 2375 4863 
L 2375 4384 
L 1825 4384 
Q 1516 4384 1395 4259 
Q 1275 4134 1275 3809 
L 1275 3500 
L 2222 3500 
L 2222 3053 
L 1275 3053 
L 1275 0 
L 697 0 
L 697 3053 
L 147 3053 
L 147 3500 
L 697 3500 
L 697 3744 
Q 697 4328 969 4595 
Q 1241 4863 1831 4863 
L 2375 4863 
z
" transform="scale(0.015625)"/>
        <path id="DejaVuSans-6f" d="M 1959 3097 
Q 1497 3097 1228 2736 
Q 959 2375 959 1747 
Q 959 1119 1226 758 
Q 1494 397 1959 397 
Q 2419 397 2687 759 
Q 2956 1122 2956 1747 
Q 2956 2369 2687 2733 
Q 2419 3097 1959 3097 
z
M 1959 3584 
Q 2709 3584 3137 3096 
Q 3566 2609 3566 1747 
Q 3566 888 3137 398 
Q 2709 -91 1959 -91 
Q 1206 -91 779 398 
Q 353 888 353 1747 
Q 353 2609 779 3096 
Q 1206 3584 1959 3584 
z
" transform="scale(0.015625)"/>
        <path id="DejaVuSans-72" d="M 2631 2963 
Q 2534 3019 2420 3045 
Q 2306 3072 2169 3072 
Q 1681 3072 1420 2755 
Q 1159 2438 1159 1844 
L 1159 0 
L 581 0 
L 581 3500 
L 1159 3500 
L 1159 2956 
Q 1341 3275 1631 3429 
Q 1922 3584 2338 3584 
Q 2397 3584 2469 3576 
Q 2541 3569 2628 3553 
L 2631 2963 
z
" transform="scale(0.015625)"/>
       </defs>
       <use xlink:href="#DejaVuSans-62"/>
       <use xlink:href="#DejaVuSans-65" transform="translate(63.476562 0)"/>
       <use xlink:href="#DejaVuSans-66" transform="translate(125 0)"/>
       <use xlink:href="#DejaVuSans-6f" transform="translate(160.205078 0)"/>
       <use xlink:href="#DejaVuSans-72" transform="translate(221.386719 0)"/>
       <use xlink:href="#DejaVuSans-65" transform="translate(260.25 0)"/>
      </g>
     </g>
    </g>
    <g id="xtick_2">
     <g id="line2d_2">
      <g>
       <use xlink:href="#me8161fca12" x="114.021178" y="310.176" style="stroke: #000000; stroke-width: 0.8"/>
      </g>
     </g>
     <g id="text_2">
      <!-- H1hESC, -->
      <g transform="translate(97.878014 322.874828) scale(0.075 -0.075)">
       <use xlink:href="#DejaVuSans-48"/>
       <use xlink:href="#DejaVuSans-31" transform="translate(75.195312 0)"/>
       <use xlink:href="#DejaVuSans-68" transform="translate(138.818359 0)"/>
       <use xlink:href="#DejaVuSans-45" transform="translate(202.197266 0)"/>
       <use xlink:href="#DejaVuSans-53" transform="translate(265.380859 0)"/>
       <use xlink:href="#DejaVuSans-43" transform="translate(328.857422 0)"/>
       <use xlink:href="#DejaVuSans-2c" transform="translate(398.681641 0)"/>
      </g>
      <!-- after (O) -->
      <g transform="translate(98.079576 331.273187) scale(0.075 -0.075)">
       <defs>
        <path id="DejaVuSans-61" d="M 2194 1759 
Q 1497 1759 1228 1600 
Q 959 1441 959 1056 
Q 959 750 1161 570 
Q 1363 391 1709 391 
Q 2188 391 2477 730 
Q 2766 1069 2766 1631 
L 2766 1759 
L 2194 1759 
z
M 3341 1997 
L 3341 0 
L 2766 0 
L 2766 531 
Q 2569 213 2275 61 
Q 1981 -91 1556 -91 
Q 1019 -91 701 211 
Q 384 513 384 1019 
Q 384 1609 779 1909 
Q 1175 2209 1959 2209 
L 2766 2209 
L 2766 2266 
Q 2766 2663 2505 2880 
Q 2244 3097 1772 3097 
Q 1472 3097 1187 3025 
Q 903 2953 641 2809 
L 641 3341 
Q 956 3463 1253 3523 
Q 1550 3584 1831 3584 
Q 2591 3584 2966 3190 
Q 3341 2797 3341 1997 
z
" transform="scale(0.015625)"/>
        <path id="DejaVuSans-74" d="M 1172 4494 
L 1172 3500 
L 2356 3500 
L 2356 3053 
L 1172 3053 
L 1172 1153 
Q 1172 725 1289 603 
Q 1406 481 1766 481 
L 2356 481 
L 2356 0 
L 1766 0 
Q 1100 0 847 248 
Q 594 497 594 1153 
L 594 3053 
L 172 3053 
L 172 3500 
L 594 3500 
L 594 4494 
L 1172 4494 
z
" transform="scale(0.015625)"/>
        <path id="DejaVuSans-20" transform="scale(0.015625)"/>
        <path id="DejaVuSans-28" d="M 1984 4856 
Q 1566 4138 1362 3434 
Q 1159 2731 1159 2009 
Q 1159 1288 1364 580 
Q 1569 -128 1984 -844 
L 1484 -844 
Q 1016 -109 783 600 
Q 550 1309 550 2009 
Q 550 2706 781 3412 
Q 1013 4119 1484 4856 
L 1984 4856 
z
" transform="scale(0.015625)"/>
        <path id="DejaVuSans-4f" d="M 2522 4238 
Q 1834 4238 1429 3725 
Q 1025 3213 1025 2328 
Q 1025 1447 1429 934 
Q 1834 422 2522 422 
Q 3209 422 3611 934 
Q 4013 1447 4013 2328 
Q 4013 3213 3611 3725 
Q 3209 4238 2522 4238 
z
M 2522 4750 
Q 3503 4750 4090 4092 
Q 4678 3434 4678 2328 
Q 4678 1225 4090 567 
Q 3503 -91 2522 -91 
Q 1538 -91 948 565 
Q 359 1222 359 2328 
Q 359 3434 948 4092 
Q 1538 4750 2522 4750 
z
" transform="scale(0.015625)"/>
        <path id="DejaVuSans-29" d="M 513 4856 
L 1013 4856 
Q 1481 4119 1714 3412 
Q 1947 2706 1947 2009 
Q 1947 1309 1714 600 
Q 1481 -109 1013 -844 
L 513 -844 
Q 928 -128 1133 580 
Q 1338 1288 1338 2009 
Q 1338 2731 1133 3434 
Q 928 4138 513 4856 
z
" transform="scale(0.015625)"/>
       </defs>
       <use xlink:href="#DejaVuSans-61"/>
       <use xlink:href="#DejaVuSans-66" transform="translate(61.279297 0)"/>
       <use xlink:href="#DejaVuSans-74" transform="translate(94.734375 0)"/>
       <use xlink:href="#DejaVuSans-65" transform="translate(133.943359 0)"/>
       <use xlink:href="#DejaVuSans-72" transform="translate(195.466797 0)"/>
       <use xlink:href="#DejaVuSans-20" transform="translate(236.580078 0)"/>
       <use xlink:href="#DejaVuSans-28" transform="translate(268.367188 0)"/>
       <use xlink:href="#DejaVuSans-4f" transform="translate(307.380859 0)"/>
       <use xlink:href="#DejaVuSans-29" transform="translate(386.091797 0)"/>
      </g>
     </g>
    </g>
    <g id="xtick_3">
     <g id="line2d_3">
      <g>
       <use xlink:href="#me8161fca12" x="159.144255" y="310.176" style="stroke: #000000; stroke-width: 0.8"/>
      </g>
     </g>
     <g id="text_3">
      <!-- H1hESC, -->
      <g transform="translate(143.001091 322.874828) scale(0.075 -0.075)">
       <use xlink:href="#DejaVuSans-48"/>
       <use xlink:href="#DejaVuSans-31" transform="translate(75.195312 0)"/>
       <use xlink:href="#DejaVuSans-68" transform="translate(138.818359 0)"/>
       <use xlink:href="#DejaVuSans-45" transform="translate(202.197266 0)"/>
       <use xlink:href="#DejaVuSans-53" transform="translate(265.380859 0)"/>
       <use xlink:href="#DejaVuSans-43" transform="translate(328.857422 0)"/>
       <use xlink:href="#DejaVuSans-2c" transform="translate(398.681641 0)"/>
      </g>
      <!-- after (V) -->
      <g transform="translate(143.589372 331.273187) scale(0.075 -0.075)">
       <defs>
        <path id="DejaVuSans-56" d="M 1831 0 
L 50 4666 
L 709 4666 
L 2188 738 
L 3669 4666 
L 4325 4666 
L 2547 0 
L 1831 0 
z
" transform="scale(0.015625)"/>
       </defs>
       <use xlink:href="#DejaVuSans-61"/>
       <use xlink:href="#DejaVuSans-66" transform="translate(61.279297 0)"/>
       <use xlink:href="#DejaVuSans-74" transform="translate(94.734375 0)"/>
       <use xlink:href="#DejaVuSans-65" transform="translate(133.943359 0)"/>
       <use xlink:href="#DejaVuSans-72" transform="translate(195.466797 0)"/>
       <use xlink:href="#DejaVuSans-20" transform="translate(236.580078 0)"/>
       <use xlink:href="#DejaVuSans-28" transform="translate(268.367188 0)"/>
       <use xlink:href="#DejaVuSans-56" transform="translate(307.380859 0)"/>
       <use xlink:href="#DejaVuSans-29" transform="translate(375.789062 0)"/>
      </g>
     </g>
    </g>
    <g id="xtick_4">
     <g id="line2d_4">
      <g>
       <use xlink:href="#me8161fca12" x="249.390409" y="310.176" style="stroke: #000000; stroke-width: 0.8"/>
      </g>
     </g>
     <g id="text_4">
      <!-- HFF, -->
      <g transform="translate(241.064823 322.874828) scale(0.075 -0.075)">
       <defs>
        <path id="DejaVuSans-46" d="M 628 4666 
L 3309 4666 
L 3309 4134 
L 1259 4134 
L 1259 2759 
L 3109 2759 
L 3109 2228 
L 1259 2228 
L 1259 0 
L 628 0 
L 628 4666 
z
" transform="scale(0.015625)"/>
       </defs>
       <use xlink:href="#DejaVuSans-48"/>
       <use xlink:href="#DejaVuSans-46" transform="translate(75.195312 0)"/>
       <use xlink:href="#DejaVuSans-46" transform="translate(132.714844 0)"/>
       <use xlink:href="#DejaVuSans-2c" transform="translate(190.234375 0)"/>
      </g>
      <!-- before -->
      <g transform="translate(237.323026 331.273187) scale(0.075 -0.075)">
       <use xlink:href="#DejaVuSans-62"/>
       <use xlink:href="#DejaVuSans-65" transform="translate(63.476562 0)"/>
       <use xlink:href="#DejaVuSans-66" transform="translate(125 0)"/>
       <use xlink:href="#DejaVuSans-6f" transform="translate(160.205078 0)"/>
       <use xlink:href="#DejaVuSans-72" transform="translate(221.386719 0)"/>
       <use xlink:href="#DejaVuSans-65" transform="translate(260.25 0)"/>
      </g>
     </g>
    </g>
    <g id="xtick_5">
     <g id="line2d_5">
      <g>
       <use xlink:href="#me8161fca12" x="294.513486" y="310.176" style="stroke: #000000; stroke-width: 0.8"/>
      </g>
     </g>
     <g id="text_5">
      <!-- HFF, -->
      <g transform="translate(286.1879 322.874828) scale(0.075 -0.075)">
       <use xlink:href="#DejaVuSans-48"/>
       <use xlink:href="#DejaVuSans-46" transform="translate(75.195312 0)"/>
       <use xlink:href="#DejaVuSans-46" transform="translate(132.714844 0)"/>
       <use xlink:href="#DejaVuSans-2c" transform="translate(190.234375 0)"/>
      </g>
      <!-- after (O) -->
      <g transform="translate(278.571884 331.273187) scale(0.075 -0.075)">
       <use xlink:href="#DejaVuSans-61"/>
       <use xlink:href="#DejaVuSans-66" transform="translate(61.279297 0)"/>
       <use xlink:href="#DejaVuSans-74" transform="translate(94.734375 0)"/>
       <use xlink:href="#DejaVuSans-65" transform="translate(133.943359 0)"/>
       <use xlink:href="#DejaVuSans-72" transform="translate(195.466797 0)"/>
       <use xlink:href="#DejaVuSans-20" transform="translate(236.580078 0)"/>
       <use xlink:href="#DejaVuSans-28" transform="translate(268.367188 0)"/>
       <use xlink:href="#DejaVuSans-4f" transform="translate(307.380859 0)"/>
       <use xlink:href="#DejaVuSans-29" transform="translate(386.091797 0)"/>
      </g>
     </g>
    </g>
    <g id="xtick_6">
     <g id="line2d_6">
      <g>
       <use xlink:href="#me8161fca12" x="339.636562" y="310.176" style="stroke: #000000; stroke-width: 0.8"/>
      </g>
     </g>
     <g id="text_6">
      <!-- HFF, -->
      <g transform="translate(331.310977 322.874828) scale(0.075 -0.075)">
       <use xlink:href="#DejaVuSans-48"/>
       <use xlink:href="#DejaVuSans-46" transform="translate(75.195312 0)"/>
       <use xlink:href="#DejaVuSans-46" transform="translate(132.714844 0)"/>
       <use xlink:href="#DejaVuSans-2c" transform="translate(190.234375 0)"/>
      </g>
      <!-- after (V) -->
      <g transform="translate(324.08168 331.273187) scale(0.075 -0.075)">
       <use xlink:href="#DejaVuSans-61"/>
       <use xlink:href="#DejaVuSans-66" transform="translate(61.279297 0)"/>
       <use xlink:href="#DejaVuSans-74" transform="translate(94.734375 0)"/>
       <use xlink:href="#DejaVuSans-65" transform="translate(133.943359 0)"/>
       <use xlink:href="#DejaVuSans-72" transform="translate(195.466797 0)"/>
       <use xlink:href="#DejaVuSans-20" transform="translate(236.580078 0)"/>
       <use xlink:href="#DejaVuSans-28" transform="translate(268.367188 0)"/>
       <use xlink:href="#DejaVuSans-56" transform="translate(307.380859 0)"/>
       <use xlink:href="#DejaVuSans-29" transform="translate(375.789062 0)"/>
      </g>
     </g>
    </g>
    <g id="xtick_7">
     <g id="line2d_7">
      <g>
       <use xlink:href="#me8161fca12" x="429.882716" y="310.176" style="stroke: #000000; stroke-width: 0.8"/>
      </g>
     </g>
     <g id="text_7">
      <!-- H1hESC, -->
      <g transform="translate(413.739552 322.874828) scale(0.075 -0.075)">
       <use xlink:href="#DejaVuSans-48"/>
       <use xlink:href="#DejaVuSans-31" transform="translate(75.195312 0)"/>
       <use xlink:href="#DejaVuSans-68" transform="translate(138.818359 0)"/>
       <use xlink:href="#DejaVuSans-45" transform="translate(202.197266 0)"/>
       <use xlink:href="#DejaVuSans-53" transform="translate(265.380859 0)"/>
       <use xlink:href="#DejaVuSans-43" transform="translate(328.857422 0)"/>
       <use xlink:href="#DejaVuSans-2c" transform="translate(398.681641 0)"/>
      </g>
      <!-- before -->
      <g transform="translate(417.815334 331.273187) scale(0.075 -0.075)">
       <use xlink:href="#DejaVuSans-62"/>
       <use xlink:href="#DejaVuSans-65" transform="translate(63.476562 0)"/>
       <use xlink:href="#DejaVuSans-66" transform="translate(125 0)"/>
       <use xlink:href="#DejaVuSans-6f" transform="translate(160.205078 0)"/>
       <use xlink:href="#DejaVuSans-72" transform="translate(221.386719 0)"/>
       <use xlink:href="#DejaVuSans-65" transform="translate(260.25 0)"/>
      </g>
     </g>
    </g>
    <g id="xtick_8">
     <g id="line2d_8">
      <g>
       <use xlink:href="#me8161fca12" x="475.005793" y="310.176" style="stroke: #000000; stroke-width: 0.8"/>
      </g>
     </g>
     <g id="text_8">
      <!-- H1hESC, -->
      <g transform="translate(458.862629 322.874828) scale(0.075 -0.075)">
       <use xlink:href="#DejaVuSans-48"/>
       <use xlink:href="#DejaVuSans-31" transform="translate(75.195312 0)"/>
       <use xlink:href="#DejaVuSans-68" transform="translate(138.818359 0)"/>
       <use xlink:href="#DejaVuSans-45" transform="translate(202.197266 0)"/>
       <use xlink:href="#DejaVuSans-53" transform="translate(265.380859 0)"/>
       <use xlink:href="#DejaVuSans-43" transform="translate(328.857422 0)"/>
       <use xlink:href="#DejaVuSans-2c" transform="translate(398.681641 0)"/>
      </g>
      <!-- after -->
      <g transform="translate(466.134114 331.273187) scale(0.075 -0.075)">
       <use xlink:href="#DejaVuSans-61"/>
       <use xlink:href="#DejaVuSans-66" transform="translate(61.279297 0)"/>
       <use xlink:href="#DejaVuSans-74" transform="translate(94.734375 0)"/>
       <use xlink:href="#DejaVuSans-65" transform="translate(133.943359 0)"/>
       <use xlink:href="#DejaVuSans-72" transform="translate(195.466797 0)"/>
      </g>
     </g>
    </g>
    <g id="xtick_9">
     <g id="line2d_9">
      <g>
       <use xlink:href="#me8161fca12" x="565.251947" y="310.176" style="stroke: #000000; stroke-width: 0.8"/>
      </g>
     </g>
     <g id="text_9">
      <!-- HFF, -->
      <g transform="translate(556.926361 322.874828) scale(0.075 -0.075)">
       <use xlink:href="#DejaVuSans-48"/>
       <use xlink:href="#DejaVuSans-46" transform="translate(75.195312 0)"/>
       <use xlink:href="#DejaVuSans-46" transform="translate(132.714844 0)"/>
       <use xlink:href="#DejaVuSans-2c" transform="translate(190.234375 0)"/>
      </g>
      <!-- before -->
      <g transform="translate(553.184564 331.273187) scale(0.075 -0.075)">
       <use xlink:href="#DejaVuSans-62"/>
       <use xlink:href="#DejaVuSans-65" transform="translate(63.476562 0)"/>
       <use xlink:href="#DejaVuSans-66" transform="translate(125 0)"/>
       <use xlink:href="#DejaVuSans-6f" transform="translate(160.205078 0)"/>
       <use xlink:href="#DejaVuSans-72" transform="translate(221.386719 0)"/>
       <use xlink:href="#DejaVuSans-65" transform="translate(260.25 0)"/>
      </g>
     </g>
    </g>
    <g id="xtick_10">
     <g id="line2d_10">
      <g>
       <use xlink:href="#me8161fca12" x="610.375024" y="310.176" style="stroke: #000000; stroke-width: 0.8"/>
      </g>
     </g>
     <g id="text_10">
      <!-- HFF, -->
      <g transform="translate(602.049438 322.874828) scale(0.075 -0.075)">
       <use xlink:href="#DejaVuSans-48"/>
       <use xlink:href="#DejaVuSans-46" transform="translate(75.195312 0)"/>
       <use xlink:href="#DejaVuSans-46" transform="translate(132.714844 0)"/>
       <use xlink:href="#DejaVuSans-2c" transform="translate(190.234375 0)"/>
      </g>
      <!-- after -->
      <g transform="translate(601.503344 331.273187) scale(0.075 -0.075)">
       <use xlink:href="#DejaVuSans-61"/>
       <use xlink:href="#DejaVuSans-66" transform="translate(61.279297 0)"/>
       <use xlink:href="#DejaVuSans-74" transform="translate(94.734375 0)"/>
       <use xlink:href="#DejaVuSans-65" transform="translate(133.943359 0)"/>
       <use xlink:href="#DejaVuSans-72" transform="translate(195.466797 0)"/>
      </g>
     </g>
    </g>
   </g>
   <g id="matplotlib.axis_2">
    <g id="ytick_1">
     <g id="line2d_11">
      <defs>
       <path id="ma2d736a7d2" d="M 0 0 
L -3.5 0 
" style="stroke: #000000; stroke-width: 0.8"/>
      </defs>
      <g>
       <use xlink:href="#ma2d736a7d2" x="46.336563" y="281.739021" style="stroke: #000000; stroke-width: 0.8"/>
      </g>
     </g>
     <g id="text_11">
      <!-- −0.6 -->
      <g transform="translate(19.910313 284.778396) scale(0.08 -0.08)">
       <defs>
        <path id="DejaVuSans-2212" d="M 678 2272 
L 4684 2272 
L 4684 1741 
L 678 1741 
L 678 2272 
z
" transform="scale(0.015625)"/>
        <path id="DejaVuSans-30" d="M 2034 4250 
Q 1547 4250 1301 3770 
Q 1056 3291 1056 2328 
Q 1056 1369 1301 889 
Q 1547 409 2034 409 
Q 2525 409 2770 889 
Q 3016 1369 3016 2328 
Q 3016 3291 2770 3770 
Q 2525 4250 2034 4250 
z
M 2034 4750 
Q 2819 4750 3233 4129 
Q 3647 3509 3647 2328 
Q 3647 1150 3233 529 
Q 2819 -91 2034 -91 
Q 1250 -91 836 529 
Q 422 1150 422 2328 
Q 422 3509 836 4129 
Q 1250 4750 2034 4750 
z
" transform="scale(0.015625)"/>
        <path id="DejaVuSans-2e" d="M 684 794 
L 1344 794 
L 1344 0 
L 684 0 
L 684 794 
z
" transform="scale(0.015625)"/>
        <path id="DejaVuSans-36" d="M 2113 2584 
Q 1688 2584 1439 2293 
Q 1191 2003 1191 1497 
Q 1191 994 1439 701 
Q 1688 409 2113 409 
Q 2538 409 2786 701 
Q 3034 994 3034 1497 
Q 3034 2003 2786 2293 
Q 2538 2584 2113 2584 
z
M 3366 4563 
L 3366 3988 
Q 3128 4100 2886 4159 
Q 2644 4219 2406 4219 
Q 1781 4219 1451 3797 
Q 1122 3375 1075 2522 
Q 1259 2794 1537 2939 
Q 1816 3084 2150 3084 
Q 2853 3084 3261 2657 
Q 3669 2231 3669 1497 
Q 3669 778 3244 343 
Q 2819 -91 2113 -91 
Q 1303 -91 875 529 
Q 447 1150 447 2328 
Q 447 3434 972 4092 
Q 1497 4750 2381 4750 
Q 2619 4750 2861 4703 
Q 3103 4656 3366 4563 
z
" transform="scale(0.015625)"/>
       </defs>
       <use xlink:href="#DejaVuSans-2212"/>
       <use xlink:href="#DejaVuSans-30" transform="translate(83.789062 0)"/>
       <use xlink:href="#DejaVuSans-2e" transform="translate(147.412109 0)"/>
       <use xlink:href="#DejaVuSans-36" transform="translate(179.199219 0)"/>
      </g>
     </g>
    </g>
    <g id="ytick_2">
     <g id="line2d_12">
      <g>
       <use xlink:href="#ma2d736a7d2" x="46.336563" y="235.226551" style="stroke: #000000; stroke-width: 0.8"/>
      </g>
     </g>
     <g id="text_12">
      <!-- −0.4 -->
      <g transform="translate(19.910313 238.265926) scale(0.08 -0.08)">
       <defs>
        <path id="DejaVuSans-34" d="M 2419 4116 
L 825 1625 
L 2419 1625 
L 2419 4116 
z
M 2253 4666 
L 3047 4666 
L 3047 1625 
L 3713 1625 
L 3713 1100 
L 3047 1100 
L 3047 0 
L 2419 0 
L 2419 1100 
L 313 1100 
L 313 1709 
L 2253 4666 
z
" transform="scale(0.015625)"/>
       </defs>
       <use xlink:href="#DejaVuSans-2212"/>
       <use xlink:href="#DejaVuSans-30" transform="translate(83.789062 0)"/>
       <use xlink:href="#DejaVuSans-2e" transform="translate(147.412109 0)"/>
       <use xlink:href="#DejaVuSans-34" transform="translate(179.199219 0)"/>
      </g>
     </g>
    </g>
    <g id="ytick_3">
     <g id="line2d_13">
      <g>
       <use xlink:href="#ma2d736a7d2" x="46.336563" y="188.714081" style="stroke: #000000; stroke-width: 0.8"/>
      </g>
     </g>
     <g id="text_13">
      <!-- −0.2 -->
      <g transform="translate(19.910313 191.753456) scale(0.08 -0.08)">
       <defs>
        <path id="DejaVuSans-32" d="M 1228 531 
L 3431 531 
L 3431 0 
L 469 0 
L 469 531 
Q 828 903 1448 1529 
Q 2069 2156 2228 2338 
Q 2531 2678 2651 2914 
Q 2772 3150 2772 3378 
Q 2772 3750 2511 3984 
Q 2250 4219 1831 4219 
Q 1534 4219 1204 4116 
Q 875 4013 500 3803 
L 500 4441 
Q 881 4594 1212 4672 
Q 1544 4750 1819 4750 
Q 2544 4750 2975 4387 
Q 3406 4025 3406 3419 
Q 3406 3131 3298 2873 
Q 3191 2616 2906 2266 
Q 2828 2175 2409 1742 
Q 1991 1309 1228 531 
z
" transform="scale(0.015625)"/>
       </defs>
       <use xlink:href="#DejaVuSans-2212"/>
       <use xlink:href="#DejaVuSans-30" transform="translate(83.789062 0)"/>
       <use xlink:href="#DejaVuSans-2e" transform="translate(147.412109 0)"/>
       <use xlink:href="#DejaVuSans-32" transform="translate(179.199219 0)"/>
      </g>
     </g>
    </g>
    <g id="ytick_4">
     <g id="line2d_14">
      <g>
       <use xlink:href="#ma2d736a7d2" x="46.336563" y="142.201611" style="stroke: #000000; stroke-width: 0.8"/>
      </g>
     </g>
     <g id="text_14">
      <!-- 0.0 -->
      <g transform="translate(26.614063 145.240986) scale(0.08 -0.08)">
       <use xlink:href="#DejaVuSans-30"/>
       <use xlink:href="#DejaVuSans-2e" transform="translate(63.623047 0)"/>
       <use xlink:href="#DejaVuSans-30" transform="translate(95.410156 0)"/>
      </g>
     </g>
    </g>
    <g id="ytick_5">
     <g id="line2d_15">
      <g>
       <use xlink:href="#ma2d736a7d2" x="46.336563" y="95.689141" style="stroke: #000000; stroke-width: 0.8"/>
      </g>
     </g>
     <g id="text_15">
      <!-- 0.2 -->
      <g transform="translate(26.614063 98.728516) scale(0.08 -0.08)">
       <use xlink:href="#DejaVuSans-30"/>
       <use xlink:href="#DejaVuSans-2e" transform="translate(63.623047 0)"/>
       <use xlink:href="#DejaVuSans-32" transform="translate(95.410156 0)"/>
      </g>
     </g>
    </g>
    <g id="ytick_6">
     <g id="line2d_16">
      <g>
       <use xlink:href="#ma2d736a7d2" x="46.336563" y="49.176671" style="stroke: #000000; stroke-width: 0.8"/>
      </g>
     </g>
     <g id="text_16">
      <!-- 0.4 -->
      <g transform="translate(26.614063 52.216046) scale(0.08 -0.08)">
       <use xlink:href="#DejaVuSans-30"/>
       <use xlink:href="#DejaVuSans-2e" transform="translate(63.623047 0)"/>
       <use xlink:href="#DejaVuSans-34" transform="translate(95.410156 0)"/>
      </g>
     </g>
    </g>
    <g id="text_17">
     <!-- boundary insulation score -->
     <g transform="translate(14.038594 217.005187) rotate(-90) scale(0.09 -0.09)">
      <defs>
       <path id="DejaVuSans-75" d="M 544 1381 
L 544 3500 
L 1119 3500 
L 1119 1403 
Q 1119 906 1312 657 
Q 1506 409 1894 409 
Q 2359 409 2629 706 
Q 2900 1003 2900 1516 
L 2900 3500 
L 3475 3500 
L 3475 0 
L 2900 0 
L 2900 538 
Q 2691 219 2414 64 
Q 2138 -91 1772 -91 
Q 1169 -91 856 284 
Q 544 659 544 1381 
z
M 1991 3584 
L 1991 3584 
z
" transform="scale(0.015625)"/>
       <path id="DejaVuSans-6e" d="M 3513 2113 
L 3513 0 
L 2938 0 
L 2938 2094 
Q 2938 2591 2744 2837 
Q 2550 3084 2163 3084 
Q 1697 3084 1428 2787 
Q 1159 2491 1159 1978 
L 1159 0 
L 581 0 
L 581 3500 
L 1159 3500 
L 1159 2956 
Q 1366 3272 1645 3428 
Q 1925 3584 2291 3584 
Q 2894 3584 3203 3211 
Q 3513 2838 3513 2113 
z
" transform="scale(0.015625)"/>
       <path id="DejaVuSans-64" d="M 2906 2969 
L 2906 4863 
L 3481 4863 
L 3481 0 
L 2906 0 
L 2906 525 
Q 2725 213 2448 61 
Q 2172 -91 1784 -91 
Q 1150 -91 751 415 
Q 353 922 353 1747 
Q 353 2572 751 3078 
Q 1150 3584 1784 3584 
Q 2172 3584 2448 3432 
Q 2725 3281 2906 2969 
z
M 947 1747 
Q 947 1113 1208 752 
Q 1469 391 1925 391 
Q 2381 391 2643 752 
Q 2906 1113 2906 1747 
Q 2906 2381 2643 2742 
Q 2381 3103 1925 3103 
Q 1469 3103 1208 2742 
Q 947 2381 947 1747 
z
" transform="scale(0.015625)"/>
       <path id="DejaVuSans-79" d="M 2059 -325 
Q 1816 -950 1584 -1140 
Q 1353 -1331 966 -1331 
L 506 -1331 
L 506 -850 
L 844 -850 
Q 1081 -850 1212 -737 
Q 1344 -625 1503 -206 
L 1606 56 
L 191 3500 
L 800 3500 
L 1894 763 
L 2988 3500 
L 3597 3500 
L 2059 -325 
z
" transform="scale(0.015625)"/>
       <path id="DejaVuSans-69" d="M 603 3500 
L 1178 3500 
L 1178 0 
L 603 0 
L 603 3500 
z
M 603 4863 
L 1178 4863 
L 1178 4134 
L 603 4134 
L 603 4863 
z
" transform="scale(0.015625)"/>
       <path id="DejaVuSans-73" d="M 2834 3397 
L 2834 2853 
Q 2591 2978 2328 3040 
Q 2066 3103 1784 3103 
Q 1356 3103 1142 2972 
Q 928 2841 928 2578 
Q 928 2378 1081 2264 
Q 1234 2150 1697 2047 
L 1894 2003 
Q 2506 1872 2764 1633 
Q 3022 1394 3022 966 
Q 3022 478 2636 193 
Q 2250 -91 1575 -91 
Q 1294 -91 989 -36 
Q 684 19 347 128 
L 347 722 
Q 666 556 975 473 
Q 1284 391 1588 391 
Q 1994 391 2212 530 
Q 2431 669 2431 922 
Q 2431 1156 2273 1281 
Q 2116 1406 1581 1522 
L 1381 1569 
Q 847 1681 609 1914 
Q 372 2147 372 2553 
Q 372 3047 722 3315 
Q 1072 3584 1716 3584 
Q 2034 3584 2315 3537 
Q 2597 3491 2834 3397 
z
" transform="scale(0.015625)"/>
       <path id="DejaVuSans-6c" d="M 603 4863 
L 1178 4863 
L 1178 0 
L 603 0 
L 603 4863 
z
" transform="scale(0.015625)"/>
       <path id="DejaVuSans-63" d="M 3122 3366 
L 3122 2828 
Q 2878 2963 2633 3030 
Q 2388 3097 2138 3097 
Q 1578 3097 1268 2742 
Q 959 2388 959 1747 
Q 959 1106 1268 751 
Q 1578 397 2138 397 
Q 2388 397 2633 464 
Q 2878 531 3122 666 
L 3122 134 
Q 2881 22 2623 -34 
Q 2366 -91 2075 -91 
Q 1284 -91 818 406 
Q 353 903 353 1747 
Q 353 2603 823 3093 
Q 1294 3584 2113 3584 
Q 2378 3584 2631 3529 
Q 2884 3475 3122 3366 
z
" transform="scale(0.015625)"/>
      </defs>
      <use xlink:href="#DejaVuSans-62"/>
      <use xlink:href="#DejaVuSans-6f" transform="translate(63.476562 0)"/>
      <use xlink:href="#DejaVuSans-75" transform="translate(124.658203 0)"/>
      <use xlink:href="#DejaVuSans-6e" transform="translate(188.037109 0)"/>
      <use xlink:href="#DejaVuSans-64" transform="translate(251.416016 0)"/>
      <use xlink:href="#DejaVuSans-61" transform="translate(314.892578 0)"/>
      <use xlink:href="#DejaVuSans-72" transform="translate(376.171875 0)"/>
      <use xlink:href="#DejaVuSans-79" transform="translate(417.285156 0)"/>
      <use xlink:href="#DejaVuSans-20" transform="translate(476.464844 0)"/>
      <use xlink:href="#DejaVuSans-69" transform="translate(508.251953 0)"/>
      <use xlink:href="#DejaVuSans-6e" transform="translate(536.035156 0)"/>
      <use xlink:href="#DejaVuSans-73" transform="translate(599.414062 0)"/>
      <use xlink:href="#DejaVuSans-75" transform="translate(651.513672 0)"/>
      <use xlink:href="#DejaVuSans-6c" transform="translate(714.892578 0)"/>
      <use xlink:href="#DejaVuSans-61" transform="translate(742.675781 0)"/>
      <use xlink:href="#DejaVuSans-74" transform="translate(803.955078 0)"/>
      <use xlink:href="#DejaVuSans-69" transform="translate(843.164062 0)"/>
      <use xlink:href="#DejaVuSans-6f" transform="translate(870.947266 0)"/>
      <use xlink:href="#DejaVuSans-6e" transform="translate(932.128906 0)"/>
      <use xlink:href="#DejaVuSans-20" transform="translate(995.507812 0)"/>
      <use xlink:href="#DejaVuSans-73" transform="translate(1027.294922 0)"/>
      <use xlink:href="#DejaVuSans-63" transform="translate(1079.394531 0)"/>
      <use xlink:href="#DejaVuSans-6f" transform="translate(1134.375 0)"/>
      <use xlink:href="#DejaVuSans-72" transform="translate(1195.556641 0)"/>
      <use xlink:href="#DejaVuSans-65" transform="translate(1234.419922 0)"/>
     </g>
    </g>
   </g>
   <g id="patch_3">
    <path d="M 54.233101 173.944718 
L 83.563101 173.944718 
L 83.563101 137.274493 
L 54.233101 137.274493 
L 54.233101 173.944718 
z
" clip-path="url(#p2eb4ce49b2)" style="fill: #ebf5fb; opacity: 0.9; stroke: #000000; stroke-linejoin: miter"/>
   </g>
   <g id="line2d_17">
    <path d="M 68.898101 173.944718 
L 68.898101 227.195277 
" clip-path="url(#p2eb4ce49b2)" style="fill: none; stroke: #444444; stroke-linecap: square"/>
   </g>
   <g id="line2d_18">
    <path d="M 68.898101 137.274493 
L 68.898101 94.573029 
" clip-path="url(#p2eb4ce49b2)" style="fill: none; stroke: #444444; stroke-linecap: square"/>
   </g>
   <g id="line2d_19">
    <path d="M 61.565601 227.195277 
L 76.230601 227.195277 
" clip-path="url(#p2eb4ce49b2)" style="fill: none; stroke: #444444; stroke-linecap: square"/>
   </g>
   <g id="line2d_20">
    <path d="M 61.565601 94.573029 
L 76.230601 94.573029 
" clip-path="url(#p2eb4ce49b2)" style="fill: none; stroke: #444444; stroke-linecap: square"/>
   </g>
   <g id="line2d_21">
    <defs>
     <path id="m0cc25334b1" d="M 0 1.5 
C 0.397805 1.5 0.77937 1.341951 1.06066 1.06066 
C 1.341951 0.77937 1.5 0.397805 1.5 0 
C 1.5 -0.397805 1.341951 -0.77937 1.06066 -1.06066 
C 0.77937 -1.341951 0.397805 -1.5 0 -1.5 
C -0.397805 -1.5 -0.77937 -1.341951 -1.06066 -1.06066 
C -1.341951 -0.77937 -1.5 -0.397805 -1.5 0 
C -1.5 0.397805 -1.341951 0.77937 -1.06066 1.06066 
C -0.77937 1.341951 -0.397805 1.5 0 1.5 
z
" style="stroke: #000000"/>
    </defs>
    <g clip-path="url(#p2eb4ce49b2)">
     <use xlink:href="#m0cc25334b1" x="68.898101" y="244.758111" style="fill-opacity: 0; stroke: #000000"/>
    </g>
   </g>
   <g id="patch_4">
    <path d="M 99.356178 233.135234 
L 128.686178 233.135234 
L 128.686178 214.538388 
L 99.356178 214.538388 
L 99.356178 233.135234 
z
" clip-path="url(#p2eb4ce49b2)" style="fill: #5dade2; opacity: 0.9; stroke: #000000; stroke-linejoin: miter"/>
   </g>
   <g id="line2d_22">
    <path d="M 114.021178 233.135234 
L 114.021178 259.641535 
" clip-path="url(#p2eb4ce49b2)" style="fill: none; stroke: #444444; stroke-linecap: square"/>
   </g>
   <g id="line2d_23">
    <path d="M 114.021178 214.538388 
L 114.021178 186.895314 
" clip-path="url(#p2eb4ce49b2)" style="fill: none; stroke: #444444; stroke-linecap: square"/>
   </g>
   <g id="line2d_24">
    <path d="M 106.688678 259.641535 
L 121.353678 259.641535 
" clip-path="url(#p2eb4ce49b2)" style="fill: none; stroke: #444444; stroke-linecap: square"/>
   </g>
   <g id="line2d_25">
    <path d="M 106.688678 186.895314 
L 121.353678 186.895314 
" clip-path="url(#p2eb4ce49b2)" style="fill: none; stroke: #444444; stroke-linecap: square"/>
   </g>
   <g id="line2d_26">
    <g clip-path="url(#p2eb4ce49b2)">
     <use xlink:href="#m0cc25334b1" x="114.021178" y="277.621436" style="fill-opacity: 0; stroke: #000000"/>
     <use xlink:href="#m0cc25334b1" x="114.021178" y="181.992564" style="fill-opacity: 0; stroke: #000000"/>
    </g>
   </g>
   <g id="patch_5">
    <path d="M 144.479255 235.048776 
L 173.809255 235.048776 
L 173.809255 200.655233 
L 144.479255 200.655233 
L 144.479255 235.048776 
z
" clip-path="url(#p2eb4ce49b2)" style="fill: #1a5276; opacity: 0.9; stroke: #000000; stroke-linejoin: miter"/>
   </g>
   <g id="line2d_27">
    <path d="M 159.144255 235.048776 
L 159.144255 281.505462 
" clip-path="url(#p2eb4ce49b2)" style="fill: none; stroke: #444444; stroke-linecap: square"/>
   </g>
   <g id="line2d_28">
    <path d="M 159.144255 200.655233 
L 159.144255 154.632298 
" clip-path="url(#p2eb4ce49b2)" style="fill: none; stroke: #444444; stroke-linecap: square"/>
   </g>
   <g id="line2d_29">
    <path d="M 151.811755 281.505462 
L 166.476755 281.505462 
" clip-path="url(#p2eb4ce49b2)" style="fill: none; stroke: #444444; stroke-linecap: square"/>
   </g>
   <g id="line2d_30">
    <path d="M 151.811755 154.632298 
L 166.476755 154.632298 
" clip-path="url(#p2eb4ce49b2)" style="fill: none; stroke: #444444; stroke-linecap: square"/>
   </g>
   <g id="line2d_31">
    <g clip-path="url(#p2eb4ce49b2)">
     <use xlink:href="#m0cc25334b1" x="159.144255" y="287.14056" style="fill-opacity: 0; stroke: #000000"/>
     <use xlink:href="#m0cc25334b1" x="159.144255" y="292.062738" style="fill-opacity: 0; stroke: #000000"/>
     <use xlink:href="#m0cc25334b1" x="159.144255" y="296.404364" style="fill-opacity: 0; stroke: #000000"/>
     <use xlink:href="#m0cc25334b1" x="159.144255" y="127.217596" style="fill-opacity: 0; stroke: #000000"/>
    </g>
   </g>
   <g id="patch_6">
    <path d="M 234.725409 171.44531 
L 264.055409 171.44531 
L 264.055409 139.875278 
L 234.725409 139.875278 
L 234.725409 171.44531 
z
" clip-path="url(#p2eb4ce49b2)" style="fill: #fef5e7; opacity: 0.9; stroke: #000000; stroke-linejoin: miter"/>
   </g>
   <g id="line2d_32">
    <path d="M 249.390409 171.44531 
L 249.390409 210.950553 
" clip-path="url(#p2eb4ce49b2)" style="fill: none; stroke: #444444; stroke-linecap: square"/>
   </g>
   <g id="line2d_33">
    <path d="M 249.390409 139.875278 
L 249.390409 97.298693 
" clip-path="url(#p2eb4ce49b2)" style="fill: none; stroke: #444444; stroke-linecap: square"/>
   </g>
   <g id="line2d_34">
    <path d="M 242.057909 210.950553 
L 256.722909 210.950553 
" clip-path="url(#p2eb4ce49b2)" style="fill: none; stroke: #444444; stroke-linecap: square"/>
   </g>
   <g id="line2d_35">
    <path d="M 242.057909 97.298693 
L 256.722909 97.298693 
" clip-path="url(#p2eb4ce49b2)" style="fill: none; stroke: #444444; stroke-linecap: square"/>
   </g>
   <g id="line2d_36">
    <g clip-path="url(#p2eb4ce49b2)">
     <use xlink:href="#m0cc25334b1" x="249.390409" y="219.617891" style="fill-opacity: 0; stroke: #000000"/>
     <use xlink:href="#m0cc25334b1" x="249.390409" y="226.271917" style="fill-opacity: 0; stroke: #000000"/>
     <use xlink:href="#m0cc25334b1" x="249.390409" y="221.945794" style="fill-opacity: 0; stroke: #000000"/>
     <use xlink:href="#m0cc25334b1" x="249.390409" y="228.629963" style="fill-opacity: 0; stroke: #000000"/>
     <use xlink:href="#m0cc25334b1" x="249.390409" y="232.992464" style="fill-opacity: 0; stroke: #000000"/>
    </g>
   </g>
   <g id="patch_7">
    <path d="M 279.848486 203.681711 
L 309.178486 203.681711 
L 309.178486 176.707413 
L 279.848486 176.707413 
L 279.848486 203.681711 
z
" clip-path="url(#p2eb4ce49b2)" style="fill: #f0b27a; opacity: 0.9; stroke: #000000; stroke-linejoin: miter"/>
   </g>
   <g id="line2d_37">
    <path d="M 294.513486 203.681711 
L 294.513486 244.122222 
" clip-path="url(#p2eb4ce49b2)" style="fill: none; stroke: #444444; stroke-linecap: square"/>
   </g>
   <g id="line2d_38">
    <path d="M 294.513486 176.707413 
L 294.513486 138.639087 
" clip-path="url(#p2eb4ce49b2)" style="fill: none; stroke: #444444; stroke-linecap: square"/>
   </g>
   <g id="line2d_39">
    <path d="M 287.180986 244.122222 
L 301.845986 244.122222 
" clip-path="url(#p2eb4ce49b2)" style="fill: none; stroke: #444444; stroke-linecap: square"/>
   </g>
   <g id="line2d_40">
    <path d="M 287.180986 138.639087 
L 301.845986 138.639087 
" clip-path="url(#p2eb4ce49b2)" style="fill: none; stroke: #444444; stroke-linecap: square"/>
   </g>
   <g id="line2d_41">
    <g clip-path="url(#p2eb4ce49b2)">
     <use xlink:href="#m0cc25334b1" x="294.513486" y="251.511928" style="fill-opacity: 0; stroke: #000000"/>
     <use xlink:href="#m0cc25334b1" x="294.513486" y="258.157457" style="fill-opacity: 0; stroke: #000000"/>
    </g>
   </g>
   <g id="patch_8">
    <path d="M 324.971562 217.511738 
L 354.301562 217.511738 
L 354.301562 188.977197 
L 324.971562 188.977197 
L 324.971562 217.511738 
z
" clip-path="url(#p2eb4ce49b2)" style="fill: #784212; opacity: 0.9; stroke: #000000; stroke-linejoin: miter"/>
   </g>
   <g id="line2d_42">
    <path d="M 339.636562 217.511738 
L 339.636562 254.705066 
" clip-path="url(#p2eb4ce49b2)" style="fill: none; stroke: #444444; stroke-linecap: square"/>
   </g>
   <g id="line2d_43">
    <path d="M 339.636562 188.977197 
L 339.636562 153.350847 
" clip-path="url(#p2eb4ce49b2)" style="fill: none; stroke: #444444; stroke-linecap: square"/>
   </g>
   <g id="line2d_44">
    <path d="M 332.304062 254.705066 
L 346.969062 254.705066 
" clip-path="url(#p2eb4ce49b2)" style="fill: none; stroke: #444444; stroke-linecap: square"/>
   </g>
   <g id="line2d_45">
    <path d="M 332.304062 153.350847 
L 346.969062 153.350847 
" clip-path="url(#p2eb4ce49b2)" style="fill: none; stroke: #444444; stroke-linecap: square"/>
   </g>
   <g id="line2d_46">
    <g clip-path="url(#p2eb4ce49b2)">
     <use xlink:href="#m0cc25334b1" x="339.636562" y="274.477705" style="fill-opacity: 0; stroke: #000000"/>
    </g>
   </g>
   <g id="patch_9">
    <path d="M 415.217716 122.755218 
L 444.547716 122.755218 
L 444.547716 74.17334 
L 415.217716 74.17334 
L 415.217716 122.755218 
z
" clip-path="url(#p2eb4ce49b2)" style="fill: #aed6f1; opacity: 0.9; stroke: #000000; stroke-linejoin: miter"/>
   </g>
   <g id="line2d_47">
    <path d="M 429.882716 122.755218 
L 429.882716 183.115077 
" clip-path="url(#p2eb4ce49b2)" style="fill: none; stroke: #444444; stroke-linecap: square"/>
   </g>
   <g id="line2d_48">
    <path d="M 429.882716 74.17334 
L 429.882716 20.971636 
" clip-path="url(#p2eb4ce49b2)" style="fill: none; stroke: #444444; stroke-linecap: square"/>
   </g>
   <g id="line2d_49">
    <path d="M 422.550216 183.115077 
L 437.215216 183.115077 
" clip-path="url(#p2eb4ce49b2)" style="fill: none; stroke: #444444; stroke-linecap: square"/>
   </g>
   <g id="line2d_50">
    <path d="M 422.550216 20.971636 
L 437.215216 20.971636 
" clip-path="url(#p2eb4ce49b2)" style="fill: none; stroke: #444444; stroke-linecap: square"/>
   </g>
   <g id="line2d_51">
    <g clip-path="url(#p2eb4ce49b2)">
     <use xlink:href="#m0cc25334b1" x="429.882716" y="202.451798" style="fill-opacity: 0; stroke: #000000"/>
     <use xlink:href="#m0cc25334b1" x="429.882716" y="196.376831" style="fill-opacity: 0; stroke: #000000"/>
    </g>
   </g>
   <g id="patch_10">
    <path d="M 460.340793 198.360678 
L 489.670793 198.360678 
L 489.670793 149.145167 
L 460.340793 149.145167 
L 460.340793 198.360678 
z
" clip-path="url(#p2eb4ce49b2)" style="fill: #3498db; opacity: 0.9; stroke: #000000; stroke-linejoin: miter"/>
   </g>
   <g id="line2d_52">
    <path d="M 475.005793 198.360678 
L 475.005793 253.943498 
" clip-path="url(#p2eb4ce49b2)" style="fill: none; stroke: #444444; stroke-linecap: square"/>
   </g>
   <g id="line2d_53">
    <path d="M 475.005793 149.145167 
L 475.005793 84.630976 
" clip-path="url(#p2eb4ce49b2)" style="fill: none; stroke: #444444; stroke-linecap: square"/>
   </g>
   <g id="line2d_54">
    <path d="M 467.673293 253.943498 
L 482.338293 253.943498 
" clip-path="url(#p2eb4ce49b2)" style="fill: none; stroke: #444444; stroke-linecap: square"/>
   </g>
   <g id="line2d_55">
    <path d="M 467.673293 84.630976 
L 482.338293 84.630976 
" clip-path="url(#p2eb4ce49b2)" style="fill: none; stroke: #444444; stroke-linecap: square"/>
   </g>
   <g id="line2d_56">
    <g clip-path="url(#p2eb4ce49b2)">
     <use xlink:href="#m0cc25334b1" x="475.005793" y="48.112257" style="fill-opacity: 0; stroke: #000000"/>
     <use xlink:href="#m0cc25334b1" x="475.005793" y="60.451335" style="fill-opacity: 0; stroke: #000000"/>
     <use xlink:href="#m0cc25334b1" x="475.005793" y="73.531825" style="fill-opacity: 0; stroke: #000000"/>
     <use xlink:href="#m0cc25334b1" x="475.005793" y="49.658755" style="fill-opacity: 0; stroke: #000000"/>
     <use xlink:href="#m0cc25334b1" x="475.005793" y="53.789779" style="fill-opacity: 0; stroke: #000000"/>
     <use xlink:href="#m0cc25334b1" x="475.005793" y="33.77277" style="fill-opacity: 0; stroke: #000000"/>
     <use xlink:href="#m0cc25334b1" x="475.005793" y="43.232517" style="fill-opacity: 0; stroke: #000000"/>
    </g>
   </g>
   <g id="patch_11">
    <path d="M 550.586947 130.731463 
L 579.916947 130.731463 
L 579.916947 76.227499 
L 550.586947 76.227499 
L 550.586947 130.731463 
z
" clip-path="url(#p2eb4ce49b2)" style="fill: #f5cba7; opacity: 0.9; stroke: #000000; stroke-linejoin: miter"/>
   </g>
   <g id="line2d_57">
    <path d="M 565.251947 130.731463 
L 565.251947 209.023946 
" clip-path="url(#p2eb4ce49b2)" style="fill: none; stroke: #444444; stroke-linecap: square"/>
   </g>
   <g id="line2d_58">
    <path d="M 565.251947 76.227499 
L 565.251947 27.980701 
" clip-path="url(#p2eb4ce49b2)" style="fill: none; stroke: #444444; stroke-linecap: square"/>
   </g>
   <g id="line2d_59">
    <path d="M 557.919447 209.023946 
L 572.584447 209.023946 
" clip-path="url(#p2eb4ce49b2)" style="fill: none; stroke: #444444; stroke-linecap: square"/>
   </g>
   <g id="line2d_60">
    <path d="M 557.919447 27.980701 
L 572.584447 27.980701 
" clip-path="url(#p2eb4ce49b2)" style="fill: none; stroke: #444444; stroke-linecap: square"/>
   </g>
   <g id="line2d_61">
    <g clip-path="url(#p2eb4ce49b2)">
     <use xlink:href="#m0cc25334b1" x="565.251947" y="236.351708" style="fill-opacity: 0; stroke: #000000"/>
    </g>
   </g>
   <g id="patch_12">
    <path d="M 595.710024 204.790016 
L 625.040024 204.790016 
L 625.040024 140.273447 
L 595.710024 140.273447 
L 595.710024 204.790016 
z
" clip-path="url(#p2eb4ce49b2)" style="fill: #e67e22; opacity: 0.9; stroke: #000000; stroke-linejoin: miter"/>
   </g>
   <g id="line2d_62">
    <path d="M 610.375024 204.790016 
L 610.375024 280.461191 
" clip-path="url(#p2eb4ce49b2)" style="fill: none; stroke: #444444; stroke-linecap: square"/>
   </g>
   <g id="line2d_63">
    <path d="M 610.375024 140.273447 
L 610.375024 49.720122 
" clip-path="url(#p2eb4ce49b2)" style="fill: none; stroke: #444444; stroke-linecap: square"/>
   </g>
   <g id="line2d_64">
    <path d="M 603.042524 280.461191 
L 617.707524 280.461191 
" clip-path="url(#p2eb4ce49b2)" style="fill: none; stroke: #444444; stroke-linecap: square"/>
   </g>
   <g id="line2d_65">
    <path d="M 603.042524 49.720122 
L 617.707524 49.720122 
" clip-path="url(#p2eb4ce49b2)" style="fill: none; stroke: #444444; stroke-linecap: square"/>
   </g>
   <g id="line2d_66">
    <g clip-path="url(#p2eb4ce49b2)">
     <use xlink:href="#m0cc25334b1" x="610.375024" y="39.274288" style="fill-opacity: 0; stroke: #000000"/>
    </g>
   </g>
   <g id="line2d_67">
    <path d="M 204.267332 310.176 
L 204.267332 7.2 
" clip-path="url(#p2eb4ce49b2)" style="fill: none; stroke-dasharray: 3.7,1.6; stroke-dashoffset: 0; stroke: #808080"/>
   </g>
   <g id="line2d_68">
    <path d="M 384.759639 310.176 
L 384.759639 7.2 
" clip-path="url(#p2eb4ce49b2)" style="fill: none; stroke-dasharray: 3.7,1.6; stroke-dashoffset: 0; stroke: #808080"/>
   </g>
   <g id="line2d_69">
    <path d="M 520.12887 310.176 
L 520.12887 7.2 
" clip-path="url(#p2eb4ce49b2)" style="fill: none; stroke-dasharray: 3.7,1.6; stroke-dashoffset: 0; stroke: #808080"/>
   </g>
   <g id="line2d_70">
    <path d="M 54.233101 153.191225 
L 83.563101 153.191225 
" clip-path="url(#p2eb4ce49b2)" style="fill: none; stroke: #000000; stroke-width: 1.5"/>
   </g>
   <g id="line2d_71">
    <path d="M 99.356178 223.145781 
L 128.686178 223.145781 
" clip-path="url(#p2eb4ce49b2)" style="fill: none; stroke: #000000; stroke-width: 1.5"/>
   </g>
   <g id="line2d_72">
    <path d="M 144.479255 220.062238 
L 173.809255 220.062238 
" clip-path="url(#p2eb4ce49b2)" style="fill: none; stroke: #000000; stroke-width: 1.5"/>
   </g>
   <g id="line2d_73">
    <path d="M 234.725409 153.119582 
L 264.055409 153.119582 
" clip-path="url(#p2eb4ce49b2)" style="fill: none; stroke: #000000; stroke-width: 1.5"/>
   </g>
   <g id="line2d_74">
    <path d="M 279.848486 188.383702 
L 309.178486 188.383702 
" clip-path="url(#p2eb4ce49b2)" style="fill: none; stroke: #000000; stroke-width: 1.5"/>
   </g>
   <g id="line2d_75">
    <path d="M 324.971562 204.492232 
L 354.301562 204.492232 
" clip-path="url(#p2eb4ce49b2)" style="fill: none; stroke: #000000; stroke-width: 1.5"/>
   </g>
   <g id="line2d_76">
    <path d="M 415.217716 97.338285 
L 444.547716 97.338285 
" clip-path="url(#p2eb4ce49b2)" style="fill: none; stroke: #000000; stroke-width: 1.5"/>
   </g>
   <g id="line2d_77">
    <path d="M 460.340793 171.518687 
L 489.670793 171.518687 
" clip-path="url(#p2eb4ce49b2)" style="fill: none; stroke: #000000; stroke-width: 1.5"/>
   </g>
   <g id="line2d_78">
    <path d="M 550.586947 102.494875 
L 579.916947 102.494875 
" clip-path="url(#p2eb4ce49b2)" style="fill: none; stroke: #000000; stroke-width: 1.5"/>
   </g>
   <g id="line2d_79">
    <path d="M 595.710024 177.231918 
L 625.040024 177.231918 
" clip-path="url(#p2eb4ce49b2)" style="fill: none; stroke: #000000; stroke-width: 1.5"/>
   </g>
   <g id="patch_13">
    <path d="M 46.336563 310.176 
L 46.336563 7.2 
" style="fill: none; stroke: #000000; stroke-width: 0.8; stroke-linejoin: miter; stroke-linecap: square"/>
   </g>
   <g id="patch_14">
    <path d="M 632.936562 310.176 
L 632.936562 7.2 
" style="fill: none; stroke: #000000; stroke-width: 0.8; stroke-linejoin: miter; stroke-linecap: square"/>
   </g>
   <g id="patch_15">
    <path d="M 46.336563 310.176 
L 632.936562 310.176 
" style="fill: none; stroke: #000000; stroke-width: 0.8; stroke-linejoin: miter; stroke-linecap: square"/>
   </g>
   <g id="patch_16">
    <path d="M 46.336563 7.2 
L 632.936562 7.2 
" style="fill: none; stroke: #000000; stroke-width: 0.8; stroke-linejoin: miter; stroke-linecap: square"/>
   </g>
   <g id="text_18">
    <!-- Akita -->
    <g transform="translate(191.538425 346.53312) scale(0.1 -0.1)">
     <defs>
      <path id="DejaVuSans-41" d="M 2188 4044 
L 1331 1722 
L 3047 1722 
L 2188 4044 
z
M 1831 4666 
L 2547 4666 
L 4325 0 
L 3669 0 
L 3244 1197 
L 1141 1197 
L 716 0 
L 50 0 
L 1831 4666 
z
" transform="scale(0.015625)"/>
      <path id="DejaVuSans-6b" d="M 581 4863 
L 1159 4863 
L 1159 1991 
L 2875 3500 
L 3609 3500 
L 1753 1863 
L 3688 0 
L 2938 0 
L 1159 1709 
L 1159 0 
L 581 0 
L 581 4863 
z
" transform="scale(0.015625)"/>
     </defs>
     <use xlink:href="#DejaVuSans-41"/>
     <use xlink:href="#DejaVuSans-6b" transform="translate(68.408203 0)"/>
     <use xlink:href="#DejaVuSans-69" transform="translate(126.318359 0)"/>
     <use xlink:href="#DejaVuSans-74" transform="translate(154.101562 0)"/>
     <use xlink:href="#DejaVuSans-61" transform="translate(193.310547 0)"/>
    </g>
   </g>
   <g id="text_19">
    <!-- Alpha Genome -->
    <g transform="translate(483.19762 346.53312) scale(0.1 -0.1)">
     <defs>
      <path id="DejaVuSans-70" d="M 1159 525 
L 1159 -1331 
L 581 -1331 
L 581 3500 
L 1159 3500 
L 1159 2969 
Q 1341 3281 1617 3432 
Q 1894 3584 2278 3584 
Q 2916 3584 3314 3078 
Q 3713 2572 3713 1747 
Q 3713 922 3314 415 
Q 2916 -91 2278 -91 
Q 1894 -91 1617 61 
Q 1341 213 1159 525 
z
M 3116 1747 
Q 3116 2381 2855 2742 
Q 2594 3103 2138 3103 
Q 1681 3103 1420 2742 
Q 1159 2381 1159 1747 
Q 1159 1113 1420 752 
Q 1681 391 2138 391 
Q 2594 391 2855 752 
Q 3116 1113 3116 1747 
z
" transform="scale(0.015625)"/>
      <path id="DejaVuSans-47" d="M 3809 666 
L 3809 1919 
L 2778 1919 
L 2778 2438 
L 4434 2438 
L 4434 434 
Q 4069 175 3628 42 
Q 3188 -91 2688 -91 
Q 1594 -91 976 548 
Q 359 1188 359 2328 
Q 359 3472 976 4111 
Q 1594 4750 2688 4750 
Q 3144 4750 3555 4637 
Q 3966 4525 4313 4306 
L 4313 3634 
Q 3963 3931 3569 4081 
Q 3175 4231 2741 4231 
Q 1884 4231 1454 3753 
Q 1025 3275 1025 2328 
Q 1025 1384 1454 906 
Q 1884 428 2741 428 
Q 3075 428 3337 486 
Q 3600 544 3809 666 
z
" transform="scale(0.015625)"/>
      <path id="DejaVuSans-6d" d="M 3328 2828 
Q 3544 3216 3844 3400 
Q 4144 3584 4550 3584 
Q 5097 3584 5394 3201 
Q 5691 2819 5691 2113 
L 5691 0 
L 5113 0 
L 5113 2094 
Q 5113 2597 4934 2840 
Q 4756 3084 4391 3084 
Q 3944 3084 3684 2787 
Q 3425 2491 3425 1978 
L 3425 0 
L 2847 0 
L 2847 2094 
Q 2847 2600 2669 2842 
Q 2491 3084 2119 3084 
Q 1678 3084 1418 2786 
Q 1159 2488 1159 1978 
L 1159 0 
L 581 0 
L 581 3500 
L 1159 3500 
L 1159 2956 
Q 1356 3278 1631 3431 
Q 1906 3584 2284 3584 
Q 2666 3584 2933 3390 
Q 3200 3197 3328 2828 
z
" transform="scale(0.015625)"/>
     </defs>
     <use xlink:href="#DejaVuSans-41"/>
     <use xlink:href="#DejaVuSans-6c" transform="translate(68.408203 0)"/>
     <use xlink:href="#DejaVuSans-70" transform="translate(96.191406 0)"/>
     <use xlink:href="#DejaVuSans-68" transform="translate(159.667969 0)"/>
     <use xlink:href="#DejaVuSans-61" transform="translate(223.046875 0)"/>
     <use xlink:href="#DejaVuSans-20" transform="translate(284.326172 0)"/>
     <use xlink:href="#DejaVuSans-47" transform="translate(316.113281 0)"/>
     <use xlink:href="#DejaVuSans-65" transform="translate(393.603516 0)"/>
     <use xlink:href="#DejaVuSans-6e" transform="translate(455.126953 0)"/>
     <use xlink:href="#DejaVuSans-6f" transform="translate(518.505859 0)"/>
     <use xlink:href="#DejaVuSans-6d" transform="translate(579.6875 0)"/>
     <use xlink:href="#DejaVuSans-65" transform="translate(677.099609 0)"/>
    </g>
   </g>
  </g>
 </g>
 <defs>
  <clipPath id="p2eb4ce49b2">
   <rect x="46.336563" y="7.2" width="586.6" height="302.976"/>
  </clipPath>
 </defs>
</svg>
