<?xml version="1.0" encoding="utf-8" standalone="no"?>
<!DOCTYPE svg PUBLIC "-//W3C//DTD SVG 1.1//EN"
  "http://www.w3.org/Graphics/SVG/1.1/DTD/svg11.dtd">
<svg xmlns:xlink="http://www.w3.org/1999/xlink" width="576pt" height="216pt" viewBox="0 0 576 216" xmlns="http://www.w3.org/2000/svg" version="1.1">
 <metadata>
  <rdf:RDF xmlns:dc="http://purl.org/dc/elements/1.1/" xmlns:cc="http://creativecommons.org/ns#" xmlns:rdf="http://www.w3.org/1999/02/22-rdf-syntax-ns#">
   <cc:Work>
    <dc:type rdf:resource="http://purl.org/dc/dcmitype/StillImage"/>
    <dc:date>2026-01-13T14:18:12.227137</dc:date>
    <dc:format>image/svg+xml</dc:format>
    <dc:creator>
     <cc:Agent>
      <dc:title>Matplotlib v3.10.8, https://matplotlib.org/</dc:title>
     </cc:Agent>
    </dc:creator>
   </cc:Work>
  </rdf:RDF>
 </metadata>
 <defs>
  <style type="text/css">*{stroke-linejoin: round; stroke-linecap: butt}</style>
 </defs>
 <g id="figure_1">
  <g id="patch_1">
   <path d="M 0 216 
L 576 216 
L 576 0 
L 0 0 
z
" style="fill: #ffffff"/>
  </g>
  <g id="axes_1">
   <g id="patch_2">
    <path d="M 56.18 174.04 
L 565.2 174.04 
L 565.2 25.44 
L 56.18 25.44 
z
" style="fill: #ffffff"/>
   </g>
   <g id="patch_3">
    <path d="M 317.649258 174.04 
L 428.003203 174.04 
L 428.003203 25.44 
L 317.649258 25.44 
z
" clip-path="url(#pb6322c3dd1)" style="fill: #ff0000; opacity: 0.3; stroke: #ff0000; stroke-linejoin: miter"/>
   </g>
   <g id="matplotlib.axis_1">
    <g id="xtick_1">
     <g id="line2d_1">
      <defs>
       <path id="m1a0754bea6" d="M 0 0 
L 0 3.5 
" style="stroke: #000000; stroke-width: 0.8"/>
      </defs>
      <g>
       <use xlink:href="#m1a0754bea6" x="56.18" y="174.04" style="stroke: #000000; stroke-width: 0.8"/>
      </g>
     </g>
     <g id="text_1">
      <!-- 0 -->
      <g transform="translate(52.99875 188.638438) scale(0.1 -0.1)">
       <defs>
        <path id="DejaVuSans-30" d="M 2034 4250 
Q 1547 4250 1301 3770 
Q 1056 3291 1056 2328 
Q 1056 1369 1301 889 
Q 1547 409 2034 409 
Q 2525 409 2770 889 
Q 3016 1369 3016 2328 
Q 3016 3291 2770 3770 
Q 2525 4250 2034 4250 
z
M 2034 4750 
Q 2819 4750 3233 4129 
Q 3647 3509 3647 2328 
Q 3647 1150 3233 529 
Q 2819 -91 2034 -91 
Q 1250 -91 836 529 
Q 422 1150 422 2328 
Q 422 3509 836 4129 
Q 1250 4750 2034 4750 
z
" transform="scale(0.015625)"/>
       </defs>
       <use xlink:href="#DejaVuSans-30"/>
      </g>
     </g>
    </g>
    <g id="xtick_2">
     <g id="line2d_2">
      <g>
       <use xlink:href="#m1a0754bea6" x="155.597969" y="174.04" style="stroke: #000000; stroke-width: 0.8"/>
      </g>
     </g>
     <g id="text_2">
      <!-- 100 -->
      <g transform="translate(146.054219 188.638438) scale(0.1 -0.1)">
       <defs>
        <path id="DejaVuSans-31" d="M 794 531 
L 1825 531 
L 1825 4091 
L 703 3866 
L 703 4441 
L 1819 4666 
L 2450 4666 
L 2450 531 
L 3481 531 
L 3481 0 
L 794 0 
L 794 531 
z
" transform="scale(0.015625)"/>
       </defs>
       <use xlink:href="#DejaVuSans-31"/>
       <use xlink:href="#DejaVuSans-30" transform="translate(63.623047 0)"/>
       <use xlink:href="#DejaVuSans-30" transform="translate(127.246094 0)"/>
      </g>
     </g>
    </g>
    <g id="xtick_3">
     <g id="line2d_3">
      <g>
       <use xlink:href="#m1a0754bea6" x="255.015937" y="174.04" style="stroke: #000000; stroke-width: 0.8"/>
      </g>
     </g>
     <g id="text_3">
      <!-- 200 -->
      <g transform="translate(245.472187 188.638438) scale(0.1 -0.1)">
       <defs>
        <path id="DejaVuSans-32" d="M 1228 531 
L 3431 531 
L 3431 0 
L 469 0 
L 469 531 
Q 828 903 1448 1529 
Q 2069 2156 2228 2338 
Q 2531 2678 2651 2914 
Q 2772 3150 2772 3378 
Q 2772 3750 2511 3984 
Q 2250 4219 1831 4219 
Q 1534 4219 1204 4116 
Q 875 4013 500 3803 
L 500 4441 
Q 881 4594 1212 4672 
Q 1544 4750 1819 4750 
Q 2544 4750 2975 4387 
Q 3406 4025 3406 3419 
Q 3406 3131 3298 2873 
Q 3191 2616 2906 2266 
Q 2828 2175 2409 1742 
Q 1991 1309 1228 531 
z
" transform="scale(0.015625)"/>
       </defs>
       <use xlink:href="#DejaVuSans-32"/>
       <use xlink:href="#DejaVuSans-30" transform="translate(63.623047 0)"/>
       <use xlink:href="#DejaVuSans-30" transform="translate(127.246094 0)"/>
      </g>
     </g>
    </g>
    <g id="xtick_4">
     <g id="line2d_4">
      <g>
       <use xlink:href="#m1a0754bea6" x="354.433906" y="174.04" style="stroke: #000000; stroke-width: 0.8"/>
      </g>
     </g>
     <g id="text_4">
      <!-- 300 -->
      <g transform="translate(344.890156 188.638438) scale(0.1 -0.1)">
       <defs>
        <path id="DejaVuSans-33" d="M 2597 2516 
Q 3050 2419 3304 2112 
Q 3559 1806 3559 1356 
Q 3559 666 3084 287 
Q 2609 -91 1734 -91 
Q 1441 -91 1130 -33 
Q 819 25 488 141 
L 488 750 
Q 750 597 1062 519 
Q 1375 441 1716 441 
Q 2309 441 2620 675 
Q 2931 909 2931 1356 
Q 2931 1769 2642 2001 
Q 2353 2234 1838 2234 
L 1294 2234 
L 1294 2753 
L 1863 2753 
Q 2328 2753 2575 2939 
Q 2822 3125 2822 3475 
Q 2822 3834 2567 4026 
Q 2313 4219 1838 4219 
Q 1578 4219 1281 4162 
Q 984 4106 628 3988 
L 628 4550 
Q 988 4650 1302 4700 
Q 1616 4750 1894 4750 
Q 2613 4750 3031 4423 
Q 3450 4097 3450 3541 
Q 3450 3153 3228 2886 
Q 3006 2619 2597 2516 
z
" transform="scale(0.015625)"/>
       </defs>
       <use xlink:href="#DejaVuSans-33"/>
       <use xlink:href="#DejaVuSans-30" transform="translate(63.623047 0)"/>
       <use xlink:href="#DejaVuSans-30" transform="translate(127.246094 0)"/>
      </g>
     </g>
    </g>
    <g id="xtick_5">
     <g id="line2d_5">
      <g>
       <use xlink:href="#m1a0754bea6" x="453.851875" y="174.04" style="stroke: #000000; stroke-width: 0.8"/>
      </g>
     </g>
     <g id="text_5">
      <!-- 400 -->
      <g transform="translate(444.308125 188.638438) scale(0.1 -0.1)">
       <defs>
        <path id="DejaVuSans-34" d="M 2419 4116 
L 825 1625 
L 2419 1625 
L 2419 4116 
z
M 2253 4666 
L 3047 4666 
L 3047 1625 
L 3713 1625 
L 3713 1100 
L 3047 1100 
L 3047 0 
L 2419 0 
L 2419 1100 
L 313 1100 
L 313 1709 
L 2253 4666 
z
" transform="scale(0.015625)"/>
       </defs>
       <use xlink:href="#DejaVuSans-34"/>
       <use xlink:href="#DejaVuSans-30" transform="translate(63.623047 0)"/>
       <use xlink:href="#DejaVuSans-30" transform="translate(127.246094 0)"/>
      </g>
     </g>
    </g>
    <g id="xtick_6">
     <g id="line2d_6">
      <g>
       <use xlink:href="#m1a0754bea6" x="553.269844" y="174.04" style="stroke: #000000; stroke-width: 0.8"/>
      </g>
     </g>
     <g id="text_6">
      <!-- 500 -->
      <g transform="translate(543.726094 188.638438) scale(0.1 -0.1)">
       <defs>
        <path id="DejaVuSans-35" d="M 691 4666 
L 3169 4666 
L 3169 4134 
L 1269 4134 
L 1269 2991 
Q 1406 3038 1543 3061 
Q 1681 3084 1819 3084 
Q 2600 3084 3056 2656 
Q 3513 2228 3513 1497 
Q 3513 744 3044 326 
Q 2575 -91 1722 -91 
Q 1428 -91 1123 -41 
Q 819 9 494 109 
L 494 744 
Q 775 591 1075 516 
Q 1375 441 1709 441 
Q 2250 441 2565 725 
Q 2881 1009 2881 1497 
Q 2881 1984 2565 2268 
Q 2250 2553 1709 2553 
Q 1456 2553 1204 2497 
Q 953 2441 691 2322 
L 691 4666 
z
" transform="scale(0.015625)"/>
       </defs>
       <use xlink:href="#DejaVuSans-35"/>
       <use xlink:href="#DejaVuSans-30" transform="translate(63.623047 0)"/>
       <use xlink:href="#DejaVuSans-30" transform="translate(127.246094 0)"/>
      </g>
     </g>
    </g>
    <g id="text_7">
     <!-- Position -->
     <g transform="translate(291.225937 202.316563) scale(0.1 -0.1)">
      <defs>
       <path id="DejaVuSans-50" d="M 1259 4147 
L 1259 2394 
L 2053 2394 
Q 2494 2394 2734 2622 
Q 2975 2850 2975 3272 
Q 2975 3691 2734 3919 
Q 2494 4147 2053 4147 
L 1259 4147 
z
M 628 4666 
L 2053 4666 
Q 2838 4666 3239 4311 
Q 3641 3956 3641 3272 
Q 3641 2581 3239 2228 
Q 2838 1875 2053 1875 
L 1259 1875 
L 1259 0 
L 628 0 
L 628 4666 
z
" transform="scale(0.015625)"/>
       <path id="DejaVuSans-6f" d="M 1959 3097 
Q 1497 3097 1228 2736 
Q 959 2375 959 1747 
Q 959 1119 1226 758 
Q 1494 397 1959 397 
Q 2419 397 2687 759 
Q 2956 1122 2956 1747 
Q 2956 2369 2687 2733 
Q 2419 3097 1959 3097 
z
M 1959 3584 
Q 2709 3584 3137 3096 
Q 3566 2609 3566 1747 
Q 3566 888 3137 398 
Q 2709 -91 1959 -91 
Q 1206 -91 779 398 
Q 353 888 353 1747 
Q 353 2609 779 3096 
Q 1206 3584 1959 3584 
z
" transform="scale(0.015625)"/>
       <path id="DejaVuSans-73" d="M 2834 3397 
L 2834 2853 
Q 2591 2978 2328 3040 
Q 2066 3103 1784 3103 
Q 1356 3103 1142 2972 
Q 928 2841 928 2578 
Q 928 2378 1081 2264 
Q 1234 2150 1697 2047 
L 1894 2003 
Q 2506 1872 2764 1633 
Q 3022 1394 3022 966 
Q 3022 478 2636 193 
Q 2250 -91 1575 -91 
Q 1294 -91 989 -36 
Q 684 19 347 128 
L 347 722 
Q 666 556 975 473 
Q 1284 391 1588 391 
Q 1994 391 2212 530 
Q 2431 669 2431 922 
Q 2431 1156 2273 1281 
Q 2116 1406 1581 1522 
L 1381 1569 
Q 847 1681 609 1914 
Q 372 2147 372 2553 
Q 372 3047 722 3315 
Q 1072 3584 1716 3584 
Q 2034 3584 2315 3537 
Q 2597 3491 2834 3397 
z
" transform="scale(0.015625)"/>
       <path id="DejaVuSans-69" d="M 603 3500 
L 1178 3500 
L 1178 0 
L 603 0 
L 603 3500 
z
M 603 4863 
L 1178 4863 
L 1178 4134 
L 603 4134 
L 603 4863 
z
" transform="scale(0.015625)"/>
       <path id="DejaVuSans-74" d="M 1172 4494 
L 1172 3500 
L 2356 3500 
L 2356 3053 
L 1172 3053 
L 1172 1153 
Q 1172 725 1289 603 
Q 1406 481 1766 481 
L 2356 481 
L 2356 0 
L 1766 0 
Q 1100 0 847 248 
Q 594 497 594 1153 
L 594 3053 
L 172 3053 
L 172 3500 
L 594 3500 
L 594 4494 
L 1172 4494 
z
" transform="scale(0.015625)"/>
       <path id="DejaVuSans-6e" d="M 3513 2113 
L 3513 0 
L 2938 0 
L 2938 2094 
Q 2938 2591 2744 2837 
Q 2550 3084 2163 3084 
Q 1697 3084 1428 2787 
Q 1159 2491 1159 1978 
L 1159 0 
L 581 0 
L 581 3500 
L 1159 3500 
L 1159 2956 
Q 1366 3272 1645 3428 
Q 1925 3584 2291 3584 
Q 2894 3584 3203 3211 
Q 3513 2838 3513 2113 
z
" transform="scale(0.015625)"/>
      </defs>
      <use xlink:href="#DejaVuSans-50"/>
      <use xlink:href="#DejaVuSans-6f" transform="translate(56.677734 0)"/>
      <use xlink:href="#DejaVuSans-73" transform="translate(117.859375 0)"/>
      <use xlink:href="#DejaVuSans-69" transform="translate(169.958984 0)"/>
      <use xlink:href="#DejaVuSans-74" transform="translate(197.742188 0)"/>
      <use xlink:href="#DejaVuSans-69" transform="translate(236.951172 0)"/>
      <use xlink:href="#DejaVuSans-6f" transform="translate(264.734375 0)"/>
      <use xlink:href="#DejaVuSans-6e" transform="translate(325.916016 0)"/>
     </g>
    </g>
   </g>
   <g id="matplotlib.axis_2">
    <g id="ytick_1">
     <g id="line2d_7">
      <defs>
       <path id="mf261497754" d="M 0 0 
L -3.5 0 
" style="stroke: #000000; stroke-width: 0.8"/>
      </defs>
      <g>
       <use xlink:href="#mf261497754" x="56.18" y="174.04" style="stroke: #000000; stroke-width: 0.8"/>
      </g>
     </g>
     <g id="text_8">
      <!-- −0.6 -->
      <g transform="translate(24.897188 177.839219) scale(0.1 -0.1)">
       <defs>
        <path id="DejaVuSans-2212" d="M 678 2272 
L 4684 2272 
L 4684 1741 
L 678 1741 
L 678 2272 
z
" transform="scale(0.015625)"/>
        <path id="DejaVuSans-2e" d="M 684 794 
L 1344 794 
L 1344 0 
L 684 0 
L 684 794 
z
" transform="scale(0.015625)"/>
        <path id="DejaVuSans-36" d="M 2113 2584 
Q 1688 2584 1439 2293 
Q 1191 2003 1191 1497 
Q 1191 994 1439 701 
Q 1688 409 2113 409 
Q 2538 409 2786 701 
Q 3034 994 3034 1497 
Q 3034 2003 2786 2293 
Q 2538 2584 2113 2584 
z
M 3366 4563 
L 3366 3988 
Q 3128 4100 2886 4159 
Q 2644 4219 2406 4219 
Q 1781 4219 1451 3797 
Q 1122 3375 1075 2522 
Q 1259 2794 1537 2939 
Q 1816 3084 2150 3084 
Q 2853 3084 3261 2657 
Q 3669 2231 3669 1497 
Q 3669 778 3244 343 
Q 2819 -91 2113 -91 
Q 1303 -91 875 529 
Q 447 1150 447 2328 
Q 447 3434 972 4092 
Q 1497 4750 2381 4750 
Q 2619 4750 2861 4703 
Q 3103 4656 3366 4563 
z
" transform="scale(0.015625)"/>
       </defs>
       <use xlink:href="#DejaVuSans-2212"/>
       <use xlink:href="#DejaVuSans-30" transform="translate(83.789062 0)"/>
       <use xlink:href="#DejaVuSans-2e" transform="translate(147.412109 0)"/>
       <use xlink:href="#DejaVuSans-36" transform="translate(179.199219 0)"/>
      </g>
     </g>
    </g>
    <g id="ytick_2">
     <g id="line2d_8">
      <g>
       <use xlink:href="#mf261497754" x="56.18" y="149.273333" style="stroke: #000000; stroke-width: 0.8"/>
      </g>
     </g>
     <g id="text_9">
      <!-- −0.4 -->
      <g transform="translate(24.897188 153.072552) scale(0.1 -0.1)">
       <use xlink:href="#DejaVuSans-2212"/>
       <use xlink:href="#DejaVuSans-30" transform="translate(83.789062 0)"/>
       <use xlink:href="#DejaVuSans-2e" transform="translate(147.412109 0)"/>
       <use xlink:href="#DejaVuSans-34" transform="translate(179.199219 0)"/>
      </g>
     </g>
    </g>
    <g id="ytick_3">
     <g id="line2d_9">
      <g>
       <use xlink:href="#mf261497754" x="56.18" y="124.506667" style="stroke: #000000; stroke-width: 0.8"/>
      </g>
     </g>
     <g id="text_10">
      <!-- −0.2 -->
      <g transform="translate(24.897188 128.305885) scale(0.1 -0.1)">
       <use xlink:href="#DejaVuSans-2212"/>
       <use xlink:href="#DejaVuSans-30" transform="translate(83.789062 0)"/>
       <use xlink:href="#DejaVuSans-2e" transform="translate(147.412109 0)"/>
       <use xlink:href="#DejaVuSans-32" transform="translate(179.199219 0)"/>
      </g>
     </g>
    </g>
    <g id="ytick_4">
     <g id="line2d_10">
      <g>
       <use xlink:href="#mf261497754" x="56.18" y="99.74" style="stroke: #000000; stroke-width: 0.8"/>
      </g>
     </g>
     <g id="text_11">
      <!-- 0.0 -->
      <g transform="translate(33.276875 103.539219) scale(0.1 -0.1)">
       <use xlink:href="#DejaVuSans-30"/>
       <use xlink:href="#DejaVuSans-2e" transform="translate(63.623047 0)"/>
       <use xlink:href="#DejaVuSans-30" transform="translate(95.410156 0)"/>
      </g>
     </g>
    </g>
    <g id="ytick_5">
     <g id="line2d_11">
      <g>
       <use xlink:href="#mf261497754" x="56.18" y="74.973333" style="stroke: #000000; stroke-width: 0.8"/>
      </g>
     </g>
     <g id="text_12">
      <!-- 0.2 -->
      <g transform="translate(33.276875 78.772552) scale(0.1 -0.1)">
       <use xlink:href="#DejaVuSans-30"/>
       <use xlink:href="#DejaVuSans-2e" transform="translate(63.623047 0)"/>
       <use xlink:href="#DejaVuSans-32" transform="translate(95.410156 0)"/>
      </g>
     </g>
    </g>
    <g id="ytick_6">
     <g id="line2d_12">
      <g>
       <use xlink:href="#mf261497754" x="56.18" y="50.206667" style="stroke: #000000; stroke-width: 0.8"/>
      </g>
     </g>
     <g id="text_13">
      <!-- 0.4 -->
      <g transform="translate(33.276875 54.005885) scale(0.1 -0.1)">
       <use xlink:href="#DejaVuSans-30"/>
       <use xlink:href="#DejaVuSans-2e" transform="translate(63.623047 0)"/>
       <use xlink:href="#DejaVuSans-34" transform="translate(95.410156 0)"/>
      </g>
     </g>
    </g>
    <g id="ytick_7">
     <g id="line2d_13">
      <g>
       <use xlink:href="#mf261497754" x="56.18" y="25.44" style="stroke: #000000; stroke-width: 0.8"/>
      </g>
     </g>
     <g id="text_14">
      <!-- 0.6 -->
      <g transform="translate(33.276875 29.239219) scale(0.1 -0.1)">
       <use xlink:href="#DejaVuSans-30"/>
       <use xlink:href="#DejaVuSans-2e" transform="translate(63.623047 0)"/>
       <use xlink:href="#DejaVuSans-36" transform="translate(95.410156 0)"/>
      </g>
     </g>
    </g>
    <g id="text_15">
     <!-- Insulation -->
     <g transform="translate(18.8175 124.187656) rotate(-90) scale(0.1 -0.1)">
      <defs>
       <path id="DejaVuSans-49" d="M 628 4666 
L 1259 4666 
L 1259 0 
L 628 0 
L 628 4666 
z
" transform="scale(0.015625)"/>
       <path id="DejaVuSans-75" d="M 544 1381 
L 544 3500 
L 1119 3500 
L 1119 1403 
Q 1119 906 1312 657 
Q 1506 409 1894 409 
Q 2359 409 2629 706 
Q 2900 1003 2900 1516 
L 2900 3500 
L 3475 3500 
L 3475 0 
L 2900 0 
L 2900 538 
Q 2691 219 2414 64 
Q 2138 -91 1772 -91 
Q 1169 -91 856 284 
Q 544 659 544 1381 
z
M 1991 3584 
L 1991 3584 
z
" transform="scale(0.015625)"/>
       <path id="DejaVuSans-6c" d="M 603 4863 
L 1178 4863 
L 1178 0 
L 603 0 
L 603 4863 
z
" transform="scale(0.015625)"/>
       <path id="DejaVuSans-61" d="M 2194 1759 
Q 1497 1759 1228 1600 
Q 959 1441 959 1056 
Q 959 750 1161 570 
Q 1363 391 1709 391 
Q 2188 391 2477 730 
Q 2766 1069 2766 1631 
L 2766 1759 
L 2194 1759 
z
M 3341 1997 
L 3341 0 
L 2766 0 
L 2766 531 
Q 2569 213 2275 61 
Q 1981 -91 1556 -91 
Q 1019 -91 701 211 
Q 384 513 384 1019 
Q 384 1609 779 1909 
Q 1175 2209 1959 2209 
L 2766 2209 
L 2766 2266 
Q 2766 2663 2505 2880 
Q 2244 3097 1772 3097 
Q 1472 3097 1187 3025 
Q 903 2953 641 2809 
L 641 3341 
Q 956 3463 1253 3523 
Q 1550 3584 1831 3584 
Q 2591 3584 2966 3190 
Q 3341 2797 3341 1997 
z
" transform="scale(0.015625)"/>
      </defs>
      <use xlink:href="#DejaVuSans-49"/>
      <use xlink:href="#DejaVuSans-6e" transform="translate(29.492188 0)"/>
      <use xlink:href="#DejaVuSans-73" transform="translate(92.871094 0)"/>
      <use xlink:href="#DejaVuSans-75" transform="translate(144.970703 0)"/>
      <use xlink:href="#DejaVuSans-6c" transform="translate(208.349609 0)"/>
      <use xlink:href="#DejaVuSans-61" transform="translate(236.132812 0)"/>
      <use xlink:href="#DejaVuSans-74" transform="translate(297.412109 0)"/>
      <use xlink:href="#DejaVuSans-69" transform="translate(336.621094 0)"/>
      <use xlink:href="#DejaVuSans-6f" transform="translate(364.404297 0)"/>
      <use xlink:href="#DejaVuSans-6e" transform="translate(425.585938 0)"/>
     </g>
    </g>
   </g>
   <g id="line2d_14">
    <path d="M 72.086875 118.666449 
L 74.075234 116.788939 
L 75.069414 115.707911 
L 78.051953 111.970877 
L 79.046133 111.197192 
L 80.040312 110.79992 
L 81.034492 110.805122 
L 82.028672 111.178902 
L 84.017031 112.494187 
L 86.005391 113.875308 
L 86.99957 114.367551 
L 88.98793 115.148687 
L 89.982109 115.671418 
L 90.976289 116.401096 
L 95.947187 120.800072 
L 97.935547 122.33604 
L 99.923906 124.224599 
L 100.918086 125.340521 
L 103.900625 129.188907 
L 104.894805 129.593651 
L 105.888984 129.444344 
L 106.883164 128.754307 
L 107.877344 127.578734 
L 108.871523 125.861857 
L 109.865703 123.72247 
L 111.854062 118.463107 
L 113.842422 112.275513 
L 115.830781 105.3706 
L 117.819141 98.338096 
L 118.81332 95.170927 
L 119.8075 92.376423 
L 120.80168 90.07455 
L 121.795859 88.387422 
L 122.790039 87.215496 
L 123.784219 86.340506 
L 124.778398 85.650902 
L 125.772578 85.158415 
L 126.766758 84.964134 
L 128.755117 85.000854 
L 130.743477 85.422865 
L 134.720195 86.377739 
L 136.708555 86.434241 
L 137.702734 86.363133 
L 138.696914 86.547455 
L 139.691094 87.327619 
L 143.667812 92.687039 
L 146.650352 97.845908 
L 147.644531 99.613153 
L 149.632891 103.830286 
L 152.61543 111.281927 
L 153.609609 113.011842 
L 154.603789 113.674588 
L 155.597969 112.715591 
L 156.592148 110.531906 
L 159.574687 102.78383 
L 160.568867 99.603544 
L 162.557227 92.595703 
L 163.551406 89.625967 
L 164.545586 87.148493 
L 165.539766 85.289533 
L 166.533945 84.160257 
L 167.528125 83.766922 
L 168.522305 84.0898 
L 169.516484 85.300399 
L 170.510664 87.377341 
L 174.487383 98.388647 
L 176.475742 103.218632 
L 177.469922 105.129359 
L 178.464102 106.121935 
L 179.458281 106.139947 
L 180.452461 105.662967 
L 182.44082 104.302691 
L 184.42918 102.897324 
L 185.423359 102.429197 
L 187.411719 101.907134 
L 188.405898 101.758115 
L 189.400078 101.894137 
L 190.394258 102.311936 
L 191.388437 103.155579 
L 192.382617 104.399515 
L 193.376797 106.356047 
L 194.370977 108.979681 
L 198.347695 120.831333 
L 199.341875 123.355097 
L 200.336055 125.56412 
L 201.330234 127.388571 
L 202.324414 128.697945 
L 203.318594 129.499054 
L 204.312773 129.662224 
L 205.306953 128.866809 
L 206.301133 126.986635 
L 207.295312 123.859411 
L 208.289492 119.937198 
L 210.277852 110.649944 
L 212.266211 101.56259 
L 213.260391 97.87137 
L 214.25457 95.105402 
L 215.24875 93.281936 
L 216.24293 92.525981 
L 217.237109 92.538284 
L 218.231289 93.256758 
L 219.225469 94.644512 
L 220.219648 96.471121 
L 222.208008 101.308154 
L 224.196367 106.270209 
L 226.184727 110.052899 
L 227.178906 111.626063 
L 228.173086 112.806479 
L 229.167266 113.607966 
L 230.161445 114.142231 
L 231.155625 114.448355 
L 233.143984 114.506666 
L 235.132344 114.781279 
L 236.126523 114.793742 
L 237.120703 114.590727 
L 239.109062 113.641262 
L 240.103242 113.124202 
L 241.097422 112.831302 
L 242.091602 112.978234 
L 243.085781 113.655157 
L 246.06832 116.518139 
L 247.0625 117.093551 
L 248.05668 117.251907 
L 249.050859 116.823593 
L 250.045039 116.246303 
L 251.039219 115.829658 
L 252.033398 115.781973 
L 253.027578 116.198846 
L 254.021758 116.876206 
L 256.010117 118.477485 
L 257.004297 119.186583 
L 257.998477 119.636601 
L 258.992656 119.36802 
L 259.986836 118.386613 
L 261.975195 116.122957 
L 263.963555 114.537564 
L 268.934453 111.807642 
L 272.911172 109.275659 
L 273.905352 108.486769 
L 274.899531 107.930694 
L 277.88207 107.100983 
L 279.87043 106.281623 
L 281.858789 105.775609 
L 283.847148 105.486574 
L 285.835508 105.469302 
L 287.823867 105.54798 
L 290.806406 105.450188 
L 293.788945 105.145299 
L 296.771484 104.561908 
L 298.759844 104.382702 
L 299.754023 104.074966 
L 300.748203 103.473651 
L 301.742383 102.677236 
L 303.730742 100.631976 
L 305.719102 98.48583 
L 308.701641 95.619409 
L 309.69582 94.808462 
L 310.69 94.222297 
L 311.68418 93.830725 
L 312.678359 93.603557 
L 313.672539 93.572502 
L 314.666719 93.766545 
L 315.660898 94.235053 
L 317.649258 95.51675 
L 324.608516 99.843314 
L 325.602695 100.208715 
L 326.596875 100.438945 
L 328.585234 100.528362 
L 330.573594 100.266689 
L 333.556133 99.358668 
L 335.544492 99.301375 
L 340.515391 100.001065 
L 344.492109 100.542929 
L 348.468828 101.03408 
L 349.463008 100.964936 
L 353.439727 100.009429 
L 355.428086 100.056033 
L 358.410625 100.31179 
L 362.387344 100.429749 
L 364.375703 100.865554 
L 366.364062 101.387881 
L 368.352422 101.615836 
L 369.346602 101.586701 
L 373.32332 100.981997 
L 375.31168 100.878086 
L 378.294219 100.793516 
L 380.282578 100.816974 
L 386.247656 101.45696 
L 389.230195 101.083707 
L 391.218555 101.123458 
L 393.206914 101.470758 
L 399.171992 103.23821 
L 401.160352 104.119606 
L 406.13125 106.718446 
L 407.12543 106.982151 
L 409.113789 107.176543 
L 413.090508 107.418283 
L 421.043945 107.127382 
L 423.032305 107.320763 
L 425.020664 107.715651 
L 428.997383 108.728704 
L 430.985742 108.93489 
L 432.974102 109.023361 
L 433.968281 109.260353 
L 435.956641 110.085037 
L 437.945 111.079731 
L 439.933359 112.076934 
L 441.921719 112.984959 
L 443.910078 114.218849 
L 444.904258 115.115163 
L 446.892617 117.422727 
L 447.886797 118.614682 
L 448.880977 119.600168 
L 449.875156 120.304234 
L 450.869336 120.663303 
L 451.863516 120.764808 
L 454.846055 120.767715 
L 456.834414 121.18709 
L 460.811133 121.574349 
L 461.805312 121.16063 
L 462.799492 120.172293 
L 466.776211 114.791275 
L 471.747109 108.926866 
L 472.741289 107.933192 
L 474.729648 106.500794 
L 475.723828 105.963005 
L 476.718008 105.567073 
L 477.712187 105.423158 
L 478.706367 105.581891 
L 482.683086 106.920834 
L 483.677266 107.521026 
L 484.671445 108.339221 
L 486.659805 110.522447 
L 487.653984 111.745795 
L 488.648164 112.671858 
L 489.642344 113.189178 
L 490.636523 113.286265 
L 493.619062 113.202585 
L 496.601602 113.349332 
L 498.589961 113.242399 
L 501.5725 112.76214 
L 502.56668 112.293076 
L 503.560859 111.382704 
L 506.543398 107.655896 
L 512.508477 101.274551 
L 513.502656 100.519221 
L 516.485195 98.920831 
L 518.473555 97.367997 
L 528.415352 88.281725 
L 529.409531 87.783132 
L 530.403711 87.485468 
L 531.397891 87.396518 
L 533.38625 87.804803 
L 535.374609 88.471287 
L 537.362969 88.923754 
L 540.345508 89.343054 
L 542.333867 89.637373 
L 543.328047 89.546994 
L 544.322227 89.170459 
L 546.310586 88.155221 
L 547.304766 87.88728 
L 548.298945 87.945298 
L 548.298945 87.945298 
" clip-path="url(#pb6322c3dd1)" style="fill: none; stroke: #0000ff; stroke-width: 1.5; stroke-linecap: square"/>
   </g>
   <g id="patch_4">
    <path d="M 56.18 174.04 
L 56.18 25.44 
" style="fill: none; stroke: #000000; stroke-width: 0.8; stroke-linejoin: miter; stroke-linecap: square"/>
   </g>
   <g id="patch_5">
    <path d="M 565.2 174.04 
L 565.2 25.44 
" style="fill: none; stroke: #000000; stroke-width: 0.8; stroke-linejoin: miter; stroke-linecap: square"/>
   </g>
   <g id="patch_6">
    <path d="M 56.18 174.04 
L 565.2 174.04 
" style="fill: none; stroke: #000000; stroke-width: 0.8; stroke-linejoin: miter; stroke-linecap: square"/>
   </g>
   <g id="patch_7">
    <path d="M 56.18 25.44 
L 565.2 25.44 
" style="fill: none; stroke: #000000; stroke-width: 0.8; stroke-linejoin: miter; stroke-linecap: square"/>
   </g>
   <g id="text_16">
    <!-- Insulation Score (Pred) -->
    <g transform="translate(242.709062 19.44) scale(0.12 -0.12)">
     <defs>
      <path id="DejaVuSans-20" transform="scale(0.015625)"/>
      <path id="DejaVuSans-53" d="M 3425 4513 
L 3425 3897 
Q 3066 4069 2747 4153 
Q 2428 4238 2131 4238 
Q 1616 4238 1336 4038 
Q 1056 3838 1056 3469 
Q 1056 3159 1242 3001 
Q 1428 2844 1947 2747 
L 2328 2669 
Q 3034 2534 3370 2195 
Q 3706 1856 3706 1288 
Q 3706 609 3251 259 
Q 2797 -91 1919 -91 
Q 1588 -91 1214 -16 
Q 841 59 441 206 
L 441 856 
Q 825 641 1194 531 
Q 1563 422 1919 422 
Q 2459 422 2753 634 
Q 3047 847 3047 1241 
Q 3047 1584 2836 1778 
Q 2625 1972 2144 2069 
L 1759 2144 
Q 1053 2284 737 2584 
Q 422 2884 422 3419 
Q 422 4038 858 4394 
Q 1294 4750 2059 4750 
Q 2388 4750 2728 4690 
Q 3069 4631 3425 4513 
z
" transform="scale(0.015625)"/>
      <path id="DejaVuSans-63" d="M 3122 3366 
L 3122 2828 
Q 2878 2963 2633 3030 
Q 2388 3097 2138 3097 
Q 1578 3097 1268 2742 
Q 959 2388 959 1747 
Q 959 1106 1268 751 
Q 1578 397 2138 397 
Q 2388 397 2633 464 
Q 2878 531 3122 666 
L 3122 134 
Q 2881 22 2623 -34 
Q 2366 -91 2075 -91 
Q 1284 -91 818 406 
Q 353 903 353 1747 
Q 353 2603 823 3093 
Q 1294 3584 2113 3584 
Q 2378 3584 2631 3529 
Q 2884 3475 3122 3366 
z
" transform="scale(0.015625)"/>
      <path id="DejaVuSans-72" d="M 2631 2963 
Q 2534 3019 2420 3045 
Q 2306 3072 2169 3072 
Q 1681 3072 1420 2755 
Q 1159 2438 1159 1844 
L 1159 0 
L 581 0 
L 581 3500 
L 1159 3500 
L 1159 2956 
Q 1341 3275 1631 3429 
Q 1922 3584 2338 3584 
Q 2397 3584 2469 3576 
Q 2541 3569 2628 3553 
L 2631 2963 
z
" transform="scale(0.015625)"/>
      <path id="DejaVuSans-65" d="M 3597 1894 
L 3597 1613 
L 953 1613 
Q 991 1019 1311 708 
Q 1631 397 2203 397 
Q 2534 397 2845 478 
Q 3156 559 3463 722 
L 3463 178 
Q 3153 47 2828 -22 
Q 2503 -91 2169 -91 
Q 1331 -91 842 396 
Q 353 884 353 1716 
Q 353 2575 817 3079 
Q 1281 3584 2069 3584 
Q 2775 3584 3186 3129 
Q 3597 2675 3597 1894 
z
M 3022 2063 
Q 3016 2534 2758 2815 
Q 2500 3097 2075 3097 
Q 1594 3097 1305 2825 
Q 1016 2553 972 2059 
L 3022 2063 
z
" transform="scale(0.015625)"/>
      <path id="DejaVuSans-28" d="M 1984 4856 
Q 1566 4138 1362 3434 
Q 1159 2731 1159 2009 
Q 1159 1288 1364 580 
Q 1569 -128 1984 -844 
L 1484 -844 
Q 1016 -109 783 600 
Q 550 1309 550 2009 
Q 550 2706 781 3412 
Q 1013 4119 1484 4856 
L 1984 4856 
z
" transform="scale(0.015625)"/>
      <path id="DejaVuSans-64" d="M 2906 2969 
L 2906 4863 
L 3481 4863 
L 3481 0 
L 2906 0 
L 2906 525 
Q 2725 213 2448 61 
Q 2172 -91 1784 -91 
Q 1150 -91 751 415 
Q 353 922 353 1747 
Q 353 2572 751 3078 
Q 1150 3584 1784 3584 
Q 2172 3584 2448 3432 
Q 2725 3281 2906 2969 
z
M 947 1747 
Q 947 1113 1208 752 
Q 1469 391 1925 391 
Q 2381 391 2643 752 
Q 2906 1113 2906 1747 
Q 2906 2381 2643 2742 
Q 2381 3103 1925 3103 
Q 1469 3103 1208 2742 
Q 947 2381 947 1747 
z
" transform="scale(0.015625)"/>
      <path id="DejaVuSans-29" d="M 513 4856 
L 1013 4856 
Q 1481 4119 1714 3412 
Q 1947 2706 1947 2009 
Q 1947 1309 1714 600 
Q 1481 -109 1013 -844 
L 513 -844 
Q 928 -128 1133 580 
Q 1338 1288 1338 2009 
Q 1338 2731 1133 3434 
Q 928 4138 513 4856 
z
" transform="scale(0.015625)"/>
     </defs>
     <use xlink:href="#DejaVuSans-49"/>
     <use xlink:href="#DejaVuSans-6e" transform="translate(29.492188 0)"/>
     <use xlink:href="#DejaVuSans-73" transform="translate(92.871094 0)"/>
     <use xlink:href="#DejaVuSans-75" transform="translate(144.970703 0)"/>
     <use xlink:href="#DejaVuSans-6c" transform="translate(208.349609 0)"/>
     <use xlink:href="#DejaVuSans-61" transform="translate(236.132812 0)"/>
     <use xlink:href="#DejaVuSans-74" transform="translate(297.412109 0)"/>
     <use xlink:href="#DejaVuSans-69" transform="translate(336.621094 0)"/>
     <use xlink:href="#DejaVuSans-6f" transform="translate(364.404297 0)"/>
     <use xlink:href="#DejaVuSans-6e" transform="translate(425.585938 0)"/>
     <use xlink:href="#DejaVuSans-20" transform="translate(488.964844 0)"/>
     <use xlink:href="#DejaVuSans-53" transform="translate(520.751953 0)"/>
     <use xlink:href="#DejaVuSans-63" transform="translate(584.228516 0)"/>
     <use xlink:href="#DejaVuSans-6f" transform="translate(639.208984 0)"/>
     <use xlink:href="#DejaVuSans-72" transform="translate(700.390625 0)"/>
     <use xlink:href="#DejaVuSans-65" transform="translate(739.253906 0)"/>
     <use xlink:href="#DejaVuSans-20" transform="translate(800.777344 0)"/>
     <use xlink:href="#DejaVuSans-28" transform="translate(832.564453 0)"/>
     <use xlink:href="#DejaVuSans-50" transform="translate(871.578125 0)"/>
     <use xlink:href="#DejaVuSans-72" transform="translate(930.130859 0)"/>
     <use xlink:href="#DejaVuSans-65" transform="translate(968.994141 0)"/>
     <use xlink:href="#DejaVuSans-64" transform="translate(1030.517578 0)"/>
     <use xlink:href="#DejaVuSans-29" transform="translate(1093.994141 0)"/>
    </g>
   </g>
   <g id="legend_1">
    <g id="patch_8">
     <path d="M 472.821875 62.79625 
L 558.2 62.79625 
Q 560.2 62.79625 560.2 60.79625 
L 560.2 32.44 
Q 560.2 30.44 558.2 30.44 
L 472.821875 30.44 
Q 470.821875 30.44 470.821875 32.44 
L 470.821875 60.79625 
Q 470.821875 62.79625 472.821875 62.79625 
z
" style="fill: #ffffff; opacity: 0.8; stroke: #cccccc; stroke-linejoin: miter"/>
    </g>
    <g id="line2d_15">
     <path d="M 474.821875 38.538438 
L 484.821875 38.538438 
L 494.821875 38.538438 
" style="fill: none; stroke: #0000ff; stroke-width: 1.5; stroke-linecap: square"/>
    </g>
    <g id="text_17">
     <!-- Pred -->
     <g transform="translate(502.821875 42.038438) scale(0.1 -0.1)">
      <use xlink:href="#DejaVuSans-50"/>
      <use xlink:href="#DejaVuSans-72" transform="translate(58.552734 0)"/>
      <use xlink:href="#DejaVuSans-65" transform="translate(97.416016 0)"/>
      <use xlink:href="#DejaVuSans-64" transform="translate(158.939453 0)"/>
     </g>
    </g>
    <g id="patch_9">
     <path d="M 474.821875 56.716563 
L 494.821875 56.716563 
L 494.821875 49.716563 
L 474.821875 49.716563 
z
" style="fill: #ff0000; opacity: 0.3; stroke: #ff0000; stroke-linejoin: miter"/>
    </g>
    <g id="text_18">
     <!-- Flat region -->
     <g transform="translate(502.821875 56.716563) scale(0.1 -0.1)">
      <defs>
       <path id="DejaVuSans-46" d="M 628 4666 
L 3309 4666 
L 3309 4134 
L 1259 4134 
L 1259 2759 
L 3109 2759 
L 3109 2228 
L 1259 2228 
L 1259 0 
L 628 0 
L 628 4666 
z
" transform="scale(0.015625)"/>
       <path id="DejaVuSans-67" d="M 2906 1791 
Q 2906 2416 2648 2759 
Q 2391 3103 1925 3103 
Q 1463 3103 1205 2759 
Q 947 2416 947 1791 
Q 947 1169 1205 825 
Q 1463 481 1925 481 
Q 2391 481 2648 825 
Q 2906 1169 2906 1791 
z
M 3481 434 
Q 3481 -459 3084 -895 
Q 2688 -1331 1869 -1331 
Q 1566 -1331 1297 -1286 
Q 1028 -1241 775 -1147 
L 775 -588 
Q 1028 -725 1275 -790 
Q 1522 -856 1778 -856 
Q 2344 -856 2625 -561 
Q 2906 -266 2906 331 
L 2906 616 
Q 2728 306 2450 153 
Q 2172 0 1784 0 
Q 1141 0 747 490 
Q 353 981 353 1791 
Q 353 2603 747 3093 
Q 1141 3584 1784 3584 
Q 2172 3584 2450 3431 
Q 2728 3278 2906 2969 
L 2906 3500 
L 3481 3500 
L 3481 434 
z
" transform="scale(0.015625)"/>
      </defs>
      <use xlink:href="#DejaVuSans-46"/>
      <use xlink:href="#DejaVuSans-6c" transform="translate(57.519531 0)"/>
      <use xlink:href="#DejaVuSans-61" transform="translate(85.302734 0)"/>
      <use xlink:href="#DejaVuSans-74" transform="translate(146.582031 0)"/>
      <use xlink:href="#DejaVuSans-20" transform="translate(185.791016 0)"/>
      <use xlink:href="#DejaVuSans-72" transform="translate(217.578125 0)"/>
      <use xlink:href="#DejaVuSans-65" transform="translate(256.441406 0)"/>
      <use xlink:href="#DejaVuSans-67" transform="translate(317.964844 0)"/>
      <use xlink:href="#DejaVuSans-69" transform="translate(381.441406 0)"/>
      <use xlink:href="#DejaVuSans-6f" transform="translate(409.224609 0)"/>
      <use xlink:href="#DejaVuSans-6e" transform="translate(470.40625 0)"/>
     </g>
    </g>
   </g>
  </g>
 </g>
 <defs>
  <clipPath id="pb6322c3dd1">
   <rect x="56.18" y="25.44" width="509.02" height="148.6"/>
  </clipPath>
 </defs>
</svg>
